<svg version="1.1" xmlns="http://www.w3.org/2000/svg" viewBox="0 0 819.6333312988281 722.7403602864127" width="1639.2666625976562" height="1445.4807205728255">
  <!-- svg-source:excalidraw -->
  
  <defs>
    <style class="style-fonts">
      @font-face {
        font-family: "Virgil";
        src: url("https://excalidraw.com/Virgil.woff2");
      }
      @font-face {
        font-family: "Cascadia";
        src: url("https://excalidraw.com/Cascadia.woff2");
      }
    </style>
  </defs>
  <rect x="0" y="0" width="819.6333312988281" height="722.7403602864127" fill="#ffffff"></rect><g stroke-linecap="round"><g transform="translate(235 106) rotate(0 -0.580481684054746 302.686324840216)"><path d="M0.56 -0.21 C0.48 100.53, -0.57 504.16, -0.48 605.13 M-0.61 -1.37 C-0.88 99.53, -1.94 505.9, -1.68 606.74" stroke="#000000" stroke-width="1" fill="none"></path></g></g><mask></mask><g stroke-linecap="round"><g transform="translate(561.5804816840546 104.31367515978403) rotate(0 -0.3365093116448179 302.8930888781836)"><path d="M-1.07 1.03 C-0.92 102.05, -0.2 504.44, -0.19 605.27 M0.57 0.52 C0.64 101.24, -1.37 502.67, -1.24 603.29" stroke="#000000" stroke-width="1" fill="none"></path></g></g><mask></mask><g transform="translate(196 67) rotate(0 44.56666564941406 12.5)"><text x="0" y="0" font-family="Virgil, Segoe UI Emoji" font-size="20px" fill="#000000" text-anchor="start" style="white-space: pre;" direction="ltr" dominant-baseline="text-before-edge">Ethereum</text></g><g transform="translate(529 67) rotate(0 38.45000076293945 12.5)"><text x="0" y="0" font-family="Virgil, Segoe UI Emoji" font-size="20px" fill="#000000" text-anchor="start" style="white-space: pre;" direction="ltr" dominant-baseline="text-before-edge">Namada</text></g><g transform="translate(46 12) rotate(0 70.18333435058594 25)"><text x="0" y="0" font-family="Virgil, Segoe UI Emoji" font-size="20px" fill="#000000" text-anchor="start" style="white-space: pre;" direction="ltr" dominant-baseline="text-before-edge">Initial state:</text><text x="0" y="25" font-family="Virgil, Segoe UI Emoji" font-size="20px" fill="#000000" text-anchor="start" style="white-space: pre;" direction="ltr" dominant-baseline="text-before-edge">  bpNonce = 0</text></g><g transform="translate(612.8333282470703 10) rotate(0 70.18333435058594 25)"><text x="0" y="0" font-family="Virgil, Segoe UI Emoji" font-size="20px" fill="#000000" text-anchor="start" style="white-space: pre;" direction="ltr" dominant-baseline="text-before-edge">Initial state:</text><text x="0" y="25" font-family="Virgil, Segoe UI Emoji" font-size="20px" fill="#000000" text-anchor="start" style="white-space: pre;" direction="ltr" dominant-baseline="text-before-edge">  bpNonce = 0</text></g><g stroke-linecap="round"><g transform="translate(548 130) rotate(0 -152.47138720230663 8.88568352284841)"><path d="M0.94 0.04 C-50.02 2.75, -253.91 14.34, -304.96 17.14 M-0.02 -0.99 C-51.22 1.87, -254.84 15.57, -305.89 18.76" stroke="#000000" stroke-width="1" fill="none"></path></g><g transform="translate(548 130) rotate(0 -152.47138720230663 8.88568352284841)"><path d="M-278.36 6.76 C-288.28 10.8, -298.93 14.94, -304.46 20.44 M-278.63 7.36 C-284.65 9.14, -291.51 12.38, -305.54 19.38" stroke="#000000" stroke-width="1" fill="none"></path></g><g transform="translate(548 130) rotate(0 -152.47138720230663 8.88568352284841)"><path d="M-277.03 27.24 C-287.59 23.7, -298.74 20.24, -304.46 20.44 M-277.3 27.84 C-283.55 24.91, -290.71 23.43, -305.54 19.38" stroke="#000000" stroke-width="1" fill="none"></path></g></g><mask></mask><g transform="translate(284.0000388283148 103.00139284837655) rotate(356.8063680355 116.90000152587885 12.5)"><text x="0" y="0" font-family="Virgil, Segoe UI Emoji" font-size="20px" fill="#000000" text-anchor="start" style="white-space: pre;" direction="ltr" dominant-baseline="text-before-edge">transferToErc(nonce=0)</text></g><g stroke-linecap="round"><g transform="translate(245 194) rotate(0 155.52411979848983 19.567439492046844)"><path d="M0.25 -0.56 C52.27 5.98, 260.26 33.11, 312.12 39.7 M-1.08 1.76 C50.79 7.91, 259.34 31.53, 311.24 37.94" stroke="#000000" stroke-width="1" fill="none"></path></g><g transform="translate(245 194) rotate(0 155.52411979848983 19.567439492046844)"><path d="M281.11 45.04 C292 41.72, 299.58 39.58, 313.12 36.22 M281.84 45.29 C292.4 43.07, 303.69 40.73, 310.76 37.07" stroke="#000000" stroke-width="1" fill="none"></path></g><g transform="translate(245 194) rotate(0 155.52411979848983 19.567439492046844)"><path d="M283.5 24.66 C293.75 27.51, 300.61 31.52, 313.12 36.22 M284.24 24.91 C294.01 30.34, 304.41 35.66, 310.76 37.07" stroke="#000000" stroke-width="1" fill="none"></path></g></g><mask></mask><g transform="translate(254.0001711522467 178.9970800291126) rotate(6.709035494874936 150.91667175292974 12.5)"><text x="0" y="0" font-family="Virgil, Segoe UI Emoji" font-size="20px" fill="#000000" text-anchor="start" style="white-space: pre;" direction="ltr" dominant-baseline="text-before-edge">event(transferToErc(nonce=0))</text></g><g transform="translate(10 157) rotate(0 71.83333587646484 12.5)"><text x="0" y="0" font-family="Virgil, Segoe UI Emoji" font-size="20px" fill="#000000" text-anchor="start" style="white-space: pre;" direction="ltr" dominant-baseline="text-before-edge">OK : bpNonce=1</text></g><g stroke-linecap="round"><g transform="translate(550.4713872023067 297.3682047859768) rotate(0 -151.97992920148192 8.897515268949803)"><path d="M-0.47 0.75 C-51.35 3.35, -253.84 13.69, -304.67 16.45 M1.48 0.1 C-49.58 2.78, -254.12 14.58, -305.44 17.7" stroke="#000000" stroke-width="1" fill="none"></path></g><g transform="translate(550.4713872023067 297.3682047859768) rotate(0 -151.97992920148192 8.897515268949803)"><path d="M-276.65 6.35 C-288.41 9.17, -296.66 13.67, -306.41 19.54 M-278 6.03 C-288.03 9.89, -299.06 14.36, -304.53 18.24" stroke="#000000" stroke-width="1" fill="none"></path></g><g transform="translate(550.4713872023067 297.3682047859768) rotate(0 -151.97992920148192 8.897515268949803)"><path d="M-275.44 26.84 C-287.77 22.46, -296.45 19.75, -306.41 19.54 M-276.79 26.52 C-287.38 22.29, -298.88 18.68, -304.53 18.24" stroke="#000000" stroke-width="1" fill="none"></path></g></g><mask></mask><g transform="translate(286.4714260306214 270.36959763435334) rotate(356.8063680355 116.9000015258789 12.5)"><text x="0" y="0" font-family="Virgil, Segoe UI Emoji" font-size="20px" fill="#000000" text-anchor="start" style="white-space: pre;" direction="ltr" dominant-baseline="text-before-edge">transferToErc(nonce=0)</text></g><g transform="translate(41.166664123535156 300.5) rotate(0 92.31666564941406 12.5)"><text x="0" y="0" font-family="Virgil, Segoe UI Emoji" font-size="20px" fill="#000000" text-anchor="start" style="white-space: pre;" direction="ltr" dominant-baseline="text-before-edge">ERR : invalid nonce</text></g><g stroke-linecap="round"><g transform="translate(573 329.9956827362402) rotate(0 27.508458207425974 43.162023645417804)"><path d="M0.1 0.34 C9.36 6.78, 56.52 25.56, 56.32 39.84 C56.11 54.12, 8.22 78.17, -1.12 86.04 M-1.3 -0.53 C7.76 6.09, 55.12 23.57, 55.53 38.14 C55.95 52.7, 10.33 78.51, 1.18 86.85" stroke="#000000" stroke-width="1" fill="none"></path></g><g transform="translate(573 329.9956827362402) rotate(0 27.508458207425974 43.162023645417804)"><path d="M18.59 62.56 C13.48 69.19, 4.43 80.54, 1.27 87.81 M18.63 62.98 C15.08 67.12, 9.44 73.48, 1.1 86.58" stroke="#000000" stroke-width="1" fill="none"></path></g><g transform="translate(573 329.9956827362402) rotate(0 27.508458207425974 43.162023645417804)"><path d="M30.61 79.19 C20.97 79.79, 7.56 85.11, 1.27 87.81 M30.64 79.61 C24.19 79.87, 15.73 82.34, 1.1 86.58" stroke="#000000" stroke-width="1" fill="none"></path></g></g><mask></mask><g transform="translate(646 344) rotate(0 81.81666564941406 25)"><text x="0" y="0" font-family="Virgil, Segoe UI Emoji" font-size="20px" fill="#000000" text-anchor="start" style="white-space: pre;" direction="ltr" dominant-baseline="text-before-edge">apply eth events</text><text x="0" y="25" font-family="Virgil, Segoe UI Emoji" font-size="20px" fill="#000000" text-anchor="start" style="white-space: pre;" direction="ltr" dominant-baseline="text-before-edge">  bpNonce = 1</text></g><g stroke-linecap="round"><g transform="translate(542.4380176700652 469.89822245273297) rotate(0 -149.2059611492407 8.541918454263424)"><path d="M-0.41 0.1 C-50.16 2.73, -249.32 13.91, -298.91 16.53 M1.57 -0.89 C-48.31 1.86, -250.01 15.04, -299.98 17.98" stroke="#000000" stroke-width="1" fill="none"></path></g><g transform="translate(542.4380176700652 469.89822245273297) rotate(0 -149.2059611492407 8.541918454263424)"><path d="M-272.32 5.57 C-279.95 10.28, -288.31 11.31, -298.08 17.47 M-272.15 5.03 C-280.53 8.49, -288.46 12.64, -299.54 18.9" stroke="#000000" stroke-width="1" fill="none"></path></g><g transform="translate(542.4380176700652 469.89822245273297) rotate(0 -149.2059611492407 8.541918454263424)"><path d="M-271.04 26.05 C-279.13 25.37, -287.84 21.01, -298.08 17.47 M-270.87 25.51 C-279.8 23.27, -288.09 21.69, -299.54 18.9" stroke="#000000" stroke-width="1" fill="none"></path></g></g><mask></mask><g transform="translate(278.44452749713287 443.1317428126375) rotate(356.8063680355 112.73332977294922 12.5)"><text x="0" y="0" font-family="Virgil, Segoe UI Emoji" font-size="20px" fill="#000000" text-anchor="start" style="white-space: pre;" direction="ltr" dominant-baseline="text-before-edge">transferToErc(nonce=1)</text></g><g stroke-linecap="round"><g transform="translate(244.5925324827149 578.4332363654436) rotate(0 153.25393018983158 16.699893227884615)"><path d="M-0.25 -0.18 C50.95 5.41, 255.8 27.67, 306.75 33.64 M1.83 -1.33 C52.96 4.38, 255.76 28.85, 306.2 34.73" stroke="#000000" stroke-width="1" fill="none"></path></g><g transform="translate(244.5925324827149 578.4332363654436) rotate(0 153.25393018983158 16.699893227884615)"><path d="M276.69 42.83 C283.3 38.94, 294.41 37.49, 305.77 36.59 M276.51 40.72 C285.46 39.62, 295.89 38.45, 307.13 35.44" stroke="#000000" stroke-width="1" fill="none"></path></g><g transform="translate(244.5925324827149 578.4332363654436) rotate(0 153.25393018983158 16.699893227884615)"><path d="M279.11 22.45 C285.1 23.97, 295.56 27.94, 305.77 36.59 M278.93 20.34 C287.18 25.66, 296.85 30.94, 307.13 35.44" stroke="#000000" stroke-width="1" fill="none"></path></g></g><mask></mask><g transform="translate(253.466721197497 556.4085212301293) rotate(6.709035494874936 146.75 12.5)"><text x="0" y="0" font-family="Virgil, Segoe UI Emoji" font-size="20px" fill="#000000" text-anchor="start" style="white-space: pre;" direction="ltr" dominant-baseline="text-before-edge">event(transferToErc(nonce=1))</text></g><g transform="translate(14.710744942792644 513.7164042709147) rotate(0 76.23332977294922 12.5)"><text x="0" y="0" font-family="Virgil, Segoe UI Emoji" font-size="20px" fill="#000000" text-anchor="start" style="white-space: pre;" direction="ltr" dominant-baseline="text-before-edge">OK : bpNonce=2</text></g><g stroke-linecap="round"><g transform="translate(225.50547118869986 149.83797635458228) rotate(0 -27.191511938398378 28.296469158098716)"><path d="M0.66 0.98 C-8.62 4.77, -56.9 12.38, -56.63 21.58 C-56.37 30.77, -7.83 50.57, 2.25 56.14 M-0.45 0.45 C-9.25 4.02, -54.54 11, -54.25 19.95 C-53.96 28.89, -7.93 48.14, 1.28 54.13" stroke="#000000" stroke-width="1" fill="none"></path></g><g transform="translate(225.50547118869986 149.83797635458228) rotate(0 -27.191511938398378 28.296469158098716)"><path d="M-26.82 49.16 C-20.44 50.27, -14.46 53.75, 0.47 54.55 M-28.84 49.62 C-17.5 51.48, -5.86 53.43, 2.16 54.07" stroke="#000000" stroke-width="1" fill="none"></path></g><g transform="translate(225.50547118869986 149.83797635458228) rotate(0 -27.191511938398378 28.296469158098716)"><path d="M-17.35 30.96 C-13.21 36.09, -9.3 43.55, 0.47 54.55 M-19.36 31.42 C-11.48 39.94, -3.28 48.51, 2.16 54.07" stroke="#000000" stroke-width="1" fill="none"></path></g></g><mask></mask><g stroke-linecap="round"><g transform="translate(227.7369664838526 506.15807629644667) rotate(0 -26.042463880825267 27.768062471143594)"><path d="M0.3 0.39 C-8.72 3.78, -55.84 11.73, -55.27 20.83 C-54.69 29.92, -6.05 49.28, 3.76 54.96 M-1 -0.45 C-10.01 3.12, -56.6 13.06, -55.83 22.46 C-55.07 31.87, -6.44 50.45, 3.58 55.99" stroke="#000000" stroke-width="1" fill="none"></path></g><g transform="translate(227.7369664838526 506.15807629644667) rotate(0 -26.042463880825267 27.768062471143594)"><path d="M-25.66 54.7 C-19.91 55.8, -15.06 56.01, 2.55 54.63 M-26.08 53.99 C-18.16 54.9, -11.49 55.06, 3.94 55.78" stroke="#000000" stroke-width="1" fill="none"></path></g><g transform="translate(227.7369664838526 506.15807629644667) rotate(0 -26.042463880825267 27.768062471143594)"><path d="M-17.06 36.07 C-12.99 40.98, -9.89 44.99, 2.55 54.63 M-17.48 35.36 C-11.65 40.92, -7.11 45.67, 3.94 55.78" stroke="#000000" stroke-width="1" fill="none"></path></g></g><mask></mask></svg>