<svg width="196" height="194" viewBox="0 0 196 194" fill="none" xmlns="http://www.w3.org/2000/svg">
<path d="M151.037 104.332C148.5 127.251 130.184 145.531 107.078 148.202C103.838 148.624 101.442 151.155 101.442 154.389V186.729C101.442 190.385 104.542 193.197 108.205 193.057C131.734 191.369 152.868 181.245 168.507 165.638C184.146 150.03 194.431 128.939 195.981 105.457C196.263 101.801 193.304 98.7077 189.641 98.7077H157.236C154.136 98.5671 151.459 101.098 151.037 104.332Z" fill="#FFE3BE"/>
<path d="M95.9478 39.3708V7.31188C95.9478 3.37482 92.9891 -0.14042 89.0441 0.140799C39.4499 4.21847 0 46.4013 0 96.8801C0 147.499 39.0272 188.979 88.6214 193.057C92.5664 193.338 95.8069 190.385 95.8069 186.448V154.389C95.8069 151.015 93.6935 147.921 90.3121 147.359C66.9239 143.562 46.6354 121.487 46.6354 95.3334C46.6354 73.1171 64.6697 49.2135 89.8894 45.8389C93.4117 45.5576 95.9478 42.7455 95.9478 39.3708Z" fill="#EC4236"/>
<path d="M194.432 6.60864V43.7295C194.432 50.4788 185.555 53.0098 182.033 47.1042C173.439 32.3402 161.04 20.529 145.824 12.3736C139.765 9.13961 142.161 0 149.064 0H187.81C191.332 0 194.432 2.9528 194.432 6.60864Z" fill="#EEAF02"/>
<path d="M142.583 98.9884H102.288C98.6248 98.9884 95.666 96.0356 95.666 92.3797V53.0091C95.666 48.9314 99.0474 45.9786 103.133 46.4005C127.508 49.4939 145.824 68.0543 149.205 91.3955C149.769 95.4732 146.528 98.9884 142.583 98.9884Z" fill="#2A517E"/>
</svg>
