<svg width="196" height="196" viewBox="0 0 196 196" fill="none" xmlns="http://www.w3.org/2000/svg">
<rect width="196" height="196" fill="white"/>
<path d="M150.495 105.267C147.985 127.952 129.856 146.045 106.985 148.689C103.778 149.107 101.407 151.612 101.407 154.813V186.823C101.407 190.442 104.475 193.225 108.101 193.086C131.39 191.416 152.308 181.395 167.788 165.947C183.267 150.499 193.447 129.622 194.981 106.38C195.26 102.762 192.332 99.6999 188.706 99.6999H156.631C153.563 99.5607 150.914 102.066 150.495 105.267Z" fill="#FFE3BE"/>
<path d="M95.9688 40.9704V9.23855C95.9688 5.34166 93.0403 1.86229 89.1355 2.14064C40.0474 6.17671 1 47.9291 1 97.8929C1 147.996 39.629 189.052 88.7172 193.088C92.6219 193.367 95.8293 190.444 95.8293 186.547V154.815C95.8293 151.475 93.7375 148.413 90.3906 147.857C67.2411 144.099 47.1596 122.248 47.1596 96.3619C47.1596 74.3723 65.0098 50.7126 89.9722 47.3724C93.4586 47.0941 95.9688 44.3106 95.9688 40.9704Z" fill="#EC4236"/>
<path d="M193.447 8.54121V45.2833C193.447 51.9637 184.662 54.4689 181.175 48.6235C172.668 34.0102 160.396 22.3195 145.335 14.2474C139.339 11.0464 141.71 2 148.543 2H186.893C190.379 2 193.447 4.92267 193.447 8.54121Z" fill="#EEAF02"/>
<path d="M142.128 99.9788H102.244C98.618 99.9788 95.6895 97.0561 95.6895 93.4375V54.4686C95.6895 50.4325 99.0364 47.5099 103.081 47.9274C127.206 50.9892 145.335 69.3603 148.682 92.4633C149.24 96.4994 146.033 99.9788 142.128 99.9788Z" fill="#2A517E"/>
</svg>
