<svg version="1.1" xmlns="http://www.w3.org/2000/svg" viewBox="0 0 1048.5000000000005 1366.805555555556" width="1048.5000000000005" height="1366.805555555556">
  <!-- svg-source:excalidraw -->
  
  <defs>
    <style>
      @font-face {
        font-family: "Virgil";
        src: url("https://excalidraw.com/Virgil.woff2");
      }
      @font-face {
        font-family: "Cascadia";
        src: url("https://excalidraw.com/Cascadia.woff2");
      }
    </style>
  </defs>
  <rect x="0" y="0" width="1048.5000000000005" height="1366.805555555556" fill="#ffffff"></rect><g transform="translate(474.67741950529495 713.5254110612868) rotate(0 42.7228354605037 10.890134529147986)"><text x="0" y="14.78026905829601" font-family="Virgil, Segoe UI Emoji" font-size="16.75405312176615px" fill="#1864ab" text-anchor="start" style="white-space: pre;" direction="ltr">add intent</text></g><g transform="translate(362.36376728805413 736.0231689088182) rotate(0 44 9)"><text x="0" y="14" font-family="Cascadia, Segoe UI Emoji" font-size="13.677130044843086px" fill="#c92a2a" text-anchor="start" style="white-space: pre;" direction="ltr">filter.wasm</text></g><g stroke-linecap="round"><g transform="translate(467.9637280420327 744.4013491711225) rotate(0 52.396621009660024 -0.36212424991140324)"><path d="M0.18 0.22 C17.67 0.51, 88.32 0.63, 105.98 0.61 M-1.19 -0.7 C16.14 -0.69, 87.67 -1.61, 105.53 -1.26" stroke="#1864ab" stroke-width="1" fill="none"></path></g><g transform="translate(467.9637280420327 744.4013491711225) rotate(0 52.396621009660024 -0.36212424991140324)"><path d="M77.7 10.54 C89.06 6.81, 99.01 0, 103.67 0.58 M76.5 9.69 C88.51 5, 97.8 0.93, 105.19 -2.01" stroke="#1864ab" stroke-width="1" fill="none"></path></g><g transform="translate(467.9637280420327 744.4013491711225) rotate(0 52.396621009660024 -0.36212424991140324)"><path d="M77.72 -9.99 C88.88 -5.82, 98.83 -4.75, 103.67 0.58 M76.52 -10.83 C88.72 -7.96, 98 -4.48, 105.19 -2.01" stroke="#1864ab" stroke-width="1" fill="none"></path></g></g><g stroke-linecap="round" transform="translate(572.7299855242278 715.8404334828081) rotate(0 62.6868460388642 29.747757847533762)"><path d="M1.85 1.61 C34.71 -2.42, 65.4 0.29, 125.92 -1.11 M-0.68 0.13 C42.82 -1.04, 88.15 -0.68, 124.96 0.13 M124.28 -0.6 C126.18 18.42, 126.32 37.75, 125.25 61.18 M125.91 -0.79 C126.32 15.56, 124.99 29.49, 125.39 59.01 M124.3 58.77 C97.4 59.74, 70 58.27, 0.19 58.86 M124.87 59.92 C88.06 58.82, 53.32 59.38, 0.06 59.13 M1.82 59.48 C0.6 42.95, 1.3 28.31, -0.41 1.7 M0.7 60.02 C0.72 43.43, 0.96 28.16, -0.46 0.55" stroke="#1864ab" stroke-width="1" fill="none"></path></g><g stroke-linecap="round" transform="translate(356.3854414285627 725.9308669656184) rotate(0 53.53768061783779 16.741591928251182)"><path d="M-0.69 -1.66 C37.37 -2.16, 78.37 0.76, 107.7 -1.47 M0.89 -0.31 C39.14 -0.67, 77.44 -0.15, 107.29 -0.18 M106.71 0.46 C106.15 7.83, 106.77 16.7, 108.28 33.73 M107.63 -0.65 C107.58 7.76, 108.03 16.73, 106.57 32.83 M108.18 34.7 C68.33 31.66, 28.82 34.77, 1.75 34.53 M106.24 33.69 C84.89 31.94, 64.8 32.59, -0.92 32.96 M-0.93 32.32 C-0.95 20.28, 2.06 7.69, -0.8 0.78 M-0.86 33.62 C-1.11 21.34, -0.86 9.34, 0.04 -0.95" stroke="#1864ab" stroke-width="1" fill="none"></path></g><g stroke-linecap="round"><g transform="translate(475.6483631197301 680.3170798180049) rotate(0 -18.169385654605378 20.244501155462558)"><path d="M-0.1 -0.1 C-6.03 6.82, -30.16 34.62, -36.24 41.69 M-1.61 -1.2 C-7.1 5.35, -28.51 32.87, -33.96 39.83" stroke="#1864ab" stroke-width="1" fill="none"></path></g><g transform="translate(475.6483631197301 680.3170798180049) rotate(0 -18.169385654605378 20.244501155462558)"><path d="M-25.74 12.62 C-26.77 18.37, -27.81 25.9, -33.29 38.9 M-25.72 14.41 C-28.79 22.3, -30.76 30.01, -33 40.58" stroke="#1864ab" stroke-width="1" fill="none"></path></g><g transform="translate(475.6483631197301 680.3170798180049) rotate(0 -18.169385654605378 20.244501155462558)"><path d="M-11.1 24.06 C-15.73 26.99, -20.37 31.71, -33.29 38.9 M-11.08 25.85 C-18.54 30.26, -24.8 34.62, -33 40.58" stroke="#1864ab" stroke-width="1" fill="none"></path></g></g><g transform="translate(579.5685505466492 721.3112855007478) rotate(0 56.41816143497774 8.206278026905807)"><text x="0" y="11.412556053811695" font-family="Helvetica, Segoe UI Emoji" font-size="13.67713004484308px" fill="#c92a2a" text-anchor="start" style="white-space: pre;" direction="ltr">matchmaker.wasm</text></g><g stroke-linecap="round" transform="translate(447.00539658551236 815.9155455904349) rotate(0 88.34697309417056 28.101831091180884)"><path d="M0.98 -1 C58.68 0.62, 112.4 1.54, 177.31 -0.68 M-0.59 -0.77 C64.98 1.77, 131.24 1.49, 177.26 0.89 M177.02 -0.16 C178.25 16.67, 177.7 33, 177.49 57.66 M176.3 0.72 C176.92 21.86, 177.02 44, 176.78 57.15 M178.59 54.83 C106.98 57.65, 39.08 57.23, 1.94 57.31 M177.48 56.74 C109.18 56.06, 41.97 55.99, 0.93 55.21 M0.52 56.1 C1.86 42.16, 0.66 30.84, 1.28 0.6 M-0.31 56.3 C-0.03 40.37, -0.16 22.75, -0.44 -0.15" stroke="#1864ab" stroke-width="1" fill="none"></path></g><g transform="translate(479.33648776637983 843.5003736920773) rotate(0 56 9)"><text x="0" y="14" font-family="Cascadia, Segoe UI Emoji" font-size="13.67713004484309px" fill="#1864ab" text-anchor="start" style="white-space: pre;" direction="ltr">tx.wawm + data</text></g><g stroke-linecap="round"><g transform="translate(625.6420809478668 784.0216634080846) rotate(0 -32.940221217319746 11.23935958261859)"><path d="M1.02 -0.16 C-9.89 3.8, -54.74 18.94, -66.2 22.69 M0.09 -1.29 C-10.87 2.89, -55.97 19.71, -66.9 23.77" stroke="#1864ab" stroke-width="1" fill="none"></path></g><g transform="translate(625.6420809478668 784.0216634080846) rotate(0 -32.940221217319746 11.23935958261859)"><path d="M-44.33 5.12 C-51.1 7.32, -57.08 12.54, -67.38 23.69 M-44.84 4.9 C-49.64 7.56, -52.83 12.09, -66.8 24.17" stroke="#1864ab" stroke-width="1" fill="none"></path></g><g transform="translate(625.6420809478668 784.0216634080846) rotate(0 -32.940221217319746 11.23935958261859)"><path d="M-37.17 24.35 C-45.47 22.04, -53.15 22.69, -67.38 23.69 M-37.68 24.13 C-43.84 22.82, -48.51 23.39, -66.8 24.17" stroke="#1864ab" stroke-width="1" fill="none"></path></g></g><g transform="translate(596.5876088426137 743.9192825112111) rotate(0 37.95403587443957 8.890134529147986)"><text x="0" y="11.780269058296007" font-family="Virgil, Segoe UI Emoji" font-size="13.677130044843084px" fill="#1864ab" text-anchor="start" style="white-space: pre;" direction="ltr">craft data</text></g><g stroke-linecap="round"><g transform="translate(528.2006271141203 883.9646671990349) rotate(0 0.1782533781757536 173.61375511767346)"><path d="M-0.73 -0.57 C-0.47 57.56, 0.2 289.87, 0.41 347.8 M1.09 1.74 C1.27 59.59, -0.45 288.15, -0.67 345.88" stroke="#1864ab" stroke-width="1" fill="none"></path></g><g transform="translate(528.2006271141203 883.9646671990349) rotate(0 0.1782533781757536 173.61375511767346)"><path d="M-11.72 317.19 C-8.31 323.22, -7.59 329.51, 0.09 346.97 M-10.26 317.51 C-7.31 324.55, -4.91 333.85, -1.3 346.26" stroke="#1864ab" stroke-width="1" fill="none"></path></g><g transform="translate(528.2006271141203 883.9646671990349) rotate(0 0.1782533781757536 173.61375511767346)"><path d="M8.8 317.31 C8.05 323.19, 4.6 329.45, 0.09 346.97 M10.26 317.63 C7.43 324.74, 4.05 334, -1.3 346.26" stroke="#1864ab" stroke-width="1" fill="none"></path></g></g><g stroke-linecap="round" transform="translate(443.77370749732177 1235.1740159441954) rotate(0 91.92245889387168 60.81576980568036)"><path d="M70.8 1.09 C82.72 -1.96, 98.93 -1.33, 111.88 0.68 C124.83 2.69, 138.24 7.73, 148.52 13.16 C158.79 18.58, 167.79 25.35, 173.54 33.23 C179.29 41.11, 182.6 51.53, 183.02 60.45 C183.43 69.36, 181.41 78.94, 176.02 86.74 C170.63 94.54, 160.92 101.69, 150.67 107.24 C140.43 112.8, 127.42 117.79, 114.56 120.07 C101.69 122.35, 86.44 122.54, 73.49 120.91 C60.54 119.28, 47.48 115.54, 36.85 110.28 C26.23 105.02, 15.84 97.34, 9.74 89.33 C3.65 81.32, 0.52 70.93, 0.28 62.22 C0.04 53.51, 3.07 45.15, 8.32 37.08 C13.56 29.02, 21.71 19.53, 31.75 13.84 C41.79 8.15, 61.31 5.01, 68.54 2.94 C75.76 0.87, 73.29 1.55, 75.08 1.4 C76.88 1.26, 79.16 1.16, 79.32 2.07 M59 2.66 C70.7 -1.08, 88.18 -1.15, 101.51 -0.2 C114.84 0.75, 127.56 3.73, 139 8.37 C150.43 13.02, 162.6 20.54, 170.12 27.69 C177.64 34.84, 182.54 42.45, 184.11 51.27 C185.69 60.1, 183.57 72.21, 179.59 80.65 C175.62 89.09, 169.28 95.71, 160.26 101.91 C151.23 108.1, 137.91 114.58, 125.45 117.8 C112.99 121.01, 98.89 121.7, 85.52 121.2 C72.14 120.69, 56.9 119.02, 45.19 114.76 C33.48 110.51, 22.5 102.9, 15.24 95.67 C7.97 88.43, 3.73 80.06, 1.61 71.36 C-0.52 62.65, -0.98 52.03, 2.49 43.44 C5.95 34.85, 13.07 26.35, 22.4 19.81 C31.73 13.26, 52.04 7, 58.45 4.17 C64.86 1.34, 60.64 2.53, 60.85 2.84 C61.06 3.15, 59.12 4.78, 59.73 6.02" stroke="#000000" stroke-width="1" fill="none"></path></g><g transform="translate(478.50390181720275 1289.5663926258123) rotate(0 51.289237668161576 8.890134529147986)"><text x="0" y="11.780269058296007" font-family="Virgil, Segoe UI Emoji" font-size="13.677130044843079px" fill="#000000" text-anchor="start" style="white-space: pre;" direction="ltr">Ledger network</text></g><g transform="translate(541.889552041418 1118.4790732436484) rotate(0 14.702914798206308 8.890134529147986)"><text x="0" y="11.780269058296007" font-family="Virgil, Segoe UI Emoji" font-size="13.677130044843071px" fill="#1864ab" text-anchor="start" style="white-space: pre;" direction="ltr">send</text></g><g transform="translate(403.29700097016644 681.4722222222215) rotate(0 21.993273542600917 12.154177484068896)"><text x="0" y="17.30835496813786" font-family="Virgil, Segoe UI Emoji" font-size="18.520651404295513px" fill="#000000" text-anchor="start" style="white-space: pre;" direction="ltr">apply</text></g><g stroke-linecap="round"><g transform="translate(680.9708500037951 778.9729079845479) rotate(0 4.158602133894092 176.60190472026386)"><path d="M-0.46 -0.63 C0.85 58.14, 7.32 293.48, 8.77 352.56 M1.51 1.65 C2.52 60.6, 6.04 295.45, 7.56 353.84" stroke="#1864ab" stroke-width="1" fill="none"></path></g><g transform="translate(680.9708500037951 778.9729079845479) rotate(0 4.158602133894092 176.60190472026386)"><path d="M9.48 26.44 C5.56 14.95, 3.56 7.17, -0.95 0.06 M9.86 27.31 C8.28 20.54, 5.59 14.56, -1.42 -0.36" stroke="#1864ab" stroke-width="1" fill="none"></path></g><g transform="translate(680.9708500037951 778.9729079845479) rotate(0 4.158602133894092 176.60190472026386)"><path d="M-11.03 26.98 C-7.16 15.36, -1.36 7.37, -0.95 0.06 M-10.65 27.84 C-7.45 21.08, -5.35 14.98, -1.42 -0.36" stroke="#1864ab" stroke-width="1" fill="none"></path></g><g transform="translate(680.9708500037951 778.9729079845479) rotate(0 4.158602133894092 176.60190472026386)"><path d="M-4.31 325.01 C0.01 334.85, 6.29 348.3, 7.07 354.53 M-3.93 325.88 C0.1 332.3, 2.51 339.37, 6.59 354.11" stroke="#1864ab" stroke-width="1" fill="none"></path></g><g transform="translate(680.9708500037951 778.9729079845479) rotate(0 4.158602133894092 176.60190472026386)"><path d="M16.21 324.61 C12.73 334.52, 11.22 348.12, 7.07 354.53 M16.59 325.48 C15.84 331.85, 13.45 339.02, 6.59 354.11" stroke="#1864ab" stroke-width="1" fill="none"></path></g></g><g stroke-linecap="round" transform="translate(629.1885057036005 1145.9829347284497) rotate(0 50.947309417040486 30.089686098654738)"><path d="M51.31 -0.37 C60.33 -0.58, 71.7 2.64, 79.67 5.95 C87.64 9.27, 95.6 14.23, 99.13 19.53 C102.67 24.84, 103.43 32.12, 100.9 37.78 C98.37 43.44, 91.47 49.77, 83.97 53.48 C76.47 57.18, 65.51 59.38, 55.9 60.02 C46.3 60.65, 34.66 60.05, 26.33 57.29 C17.99 54.54, 10.28 48.95, 5.9 43.49 C1.52 38.03, -1.45 30.24, 0.03 24.55 C1.51 18.87, 7.8 13.23, 14.77 9.36 C21.75 5.49, 34.73 2.72, 41.86 1.33 C48.99 -0.07, 53.63 0.98, 57.54 0.98 C61.45 0.98, 65.21 0.95, 65.31 1.35 M33.77 0.75 C42.36 -1.58, 54.6 -0.51, 63.73 1.32 C72.86 3.16, 82.31 7.48, 88.56 11.74 C94.81 16.01, 100.04 21.56, 101.2 26.91 C102.36 32.27, 100.09 39.06, 95.53 43.86 C90.96 48.67, 82.35 53.13, 73.8 55.75 C65.25 58.36, 54.04 60.08, 44.24 59.55 C34.44 59.03, 22.27 56.64, 15.02 52.58 C7.77 48.52, 2.62 41.18, 0.74 35.2 C-1.13 29.22, -0.38 21.96, 3.75 16.7 C7.88 11.45, 20.45 6.38, 25.55 3.68 C30.65 0.97, 33.15 0.67, 34.35 0.45 C35.55 0.24, 32.81 1.46, 32.75 2.39" stroke="#1864ab" stroke-width="1" fill="none"></path></g><g transform="translate(694.3656357484431 1068.1443697060292) rotate(0 45 9.5)"><text x="0" y="13" font-family="Virgil, Segoe UI Emoji" font-size="13.677130044843079px" fill="#1864ab" text-anchor="start" style="white-space: pre;" direction="ltr">read storage</text></g><g transform="translate(645.6010617574123 1163.7632037867468) rotate(0 37.61210762331849 8.890134529147986)"><text x="0" y="11.780269058296007" font-family="Virgil, Segoe UI Emoji" font-size="13.677130044843079px" fill="#1864ab" text-anchor="start" style="white-space: pre;" direction="ltr">ledger node</text></g><g stroke-linecap="round" transform="translate(478.99999999999864 618.5833333333333) rotate(0 43 30.5)"><path d="M1.59 0.27 C21.47 -0.87, 40.51 -1.34, 85.46 1.68 M0.31 1 C17.93 -0.84, 34.87 -0.42, 85.76 0.95 M85.64 -0.38 C85.49 14.73, 83.8 29.72, 85.7 61.63 M86.56 -0.75 C85.35 12.92, 85.8 25.77, 86.92 61.66 M84.52 62.59 C68.06 61.25, 46.91 61.19, 0.93 59.38 M86.58 60.23 C67.83 60.98, 49 59.99, -0.84 61.05 M-0.64 60.42 C-1.37 47.03, -1.5 28.23, -0.43 -0.27 M0.82 60.86 C-0.71 47.27, 0.07 34.24, -0.76 -0.22" stroke="#000000" stroke-width="1" fill="none"></path></g><g stroke-linecap="round" transform="translate(327.99999999999864 467.91666666666674) rotate(0 203.33333333333337 262.83333333333337)"><path d="M204.93 -0.35 C258.03 71.89, 311.7 141.52, 407.01 263.33 M203.75 -0.13 C248.6 54.77, 289.44 110, 407.14 262.98 M406.81 263.48 C350.91 336.73, 293.56 410.38, 205.1 526.84 M407.2 263.28 C335.04 357.21, 263.37 451.2, 204.21 525.29 M204.72 526.56 C150.55 458.19, 101.67 392.28, 0.23 262.47 M204.36 525.26 C138.74 438.42, 73.19 352.97, -0.13 263.15 M0.46 261.7 C45.42 201.99, 93.94 140.82, 203.98 -1.34 M-0.19 263.5 C49.75 200.08, 97.99 137.91, 204.47 -0.22" stroke="#000000" stroke-width="1" fill="none"></path></g><g stroke-linecap="round" transform="translate(10 250.24999999999977) rotate(0 381.66666666666674 386.33333333333337)"><path d="M341.64 1.07 C364.99 -7.68, 394.31 -1.48, 419.54 1.29 C444.77 4.05, 468.91 10.07, 493.01 17.67 C517.1 25.26, 541.68 34.59, 564.13 46.84 C586.57 59.1, 608.19 74.65, 627.67 91.19 C647.16 107.72, 665.29 125.74, 681.03 146.03 C696.77 166.33, 710.74 189.79, 722.11 212.97 C733.48 236.14, 742.42 260.53, 749.25 285.08 C756.09 309.63, 761.24 334.68, 763.12 360.26 C765 385.83, 763.99 413.01, 760.52 438.51 C757.04 464.01, 750.85 488.91, 742.26 513.27 C733.68 537.63, 721.88 562.4, 708.98 584.69 C696.09 606.97, 681.79 628.14, 664.88 646.98 C647.97 665.81, 628.08 682.68, 607.53 697.68 C586.97 712.69, 564.74 726.11, 541.56 737 C518.38 747.88, 493.35 757.01, 468.45 763.01 C443.55 769, 417.43 772.38, 392.17 772.96 C366.91 773.54, 341.8 770.85, 316.89 766.49 C291.98 762.13, 266.31 756.25, 242.7 746.82 C219.1 737.4, 196.47 724.12, 175.27 709.94 C154.08 695.77, 133.85 679.55, 115.55 661.77 C97.25 643.98, 79.79 624.29, 65.47 603.25 C51.16 582.21, 39.38 559.24, 29.66 535.52 C19.95 511.81, 12.24 486.5, 7.18 460.96 C2.11 435.41, -1.06 408.16, -0.73 382.25 C-0.4 356.34, 3.73 330.67, 9.14 305.51 C14.55 280.34, 21.67 254.92, 31.76 231.27 C41.85 207.63, 55.16 184.64, 69.68 163.63 C84.2 142.63, 100.73 122.78, 118.9 105.25 C137.07 87.72, 157.26 71.93, 178.72 58.45 C200.18 44.96, 223.56 33.42, 247.66 24.31 C271.76 15.21, 306.78 7.52, 323.34 3.81 C339.9 0.1, 342.03 1.21, 347.02 2.04 C352 2.87, 352.68 2.55, 353.26 8.81 M540.83 35.55 C565.32 39.92, 587.21 59.86, 607.77 75.15 C628.34 90.44, 647.16 108.43, 664.23 127.28 C681.3 146.13, 697.27 166.25, 710.19 188.27 C723.12 210.29, 733.64 234.99, 741.77 259.38 C749.91 283.78, 755.69 309.09, 759.01 334.63 C762.34 360.17, 763.51 387.16, 761.73 412.62 C759.95 438.07, 755.19 462.77, 748.34 487.36 C741.49 511.95, 732.1 536.81, 720.63 560.15 C709.16 583.49, 695.15 606.85, 679.52 627.4 C663.88 647.95, 646.07 666.95, 626.79 683.46 C607.51 699.97, 586.09 714.52, 563.84 726.46 C541.59 738.4, 517.64 747.6, 493.31 755.1 C468.97 762.61, 443.1 768.69, 417.82 771.48 C392.54 774.26, 366.88 774.52, 341.61 771.8 C316.35 769.08, 290.64 763.25, 266.22 755.17 C241.8 747.08, 217.41 735.79, 195.1 723.29 C172.78 710.79, 151.3 696.92, 132.33 680.16 C113.35 663.4, 96.61 643, 81.25 622.74 C65.89 602.47, 51.53 581.62, 40.15 558.58 C28.77 535.55, 19.32 509.25, 12.96 484.51 C6.59 459.78, 3.53 435.81, 1.96 410.17 C0.4 384.54, 0.22 356.35, 3.56 330.68 C6.9 305.01, 13.22 280.05, 21.99 256.18 C30.75 232.31, 42.91 209.4, 56.14 187.46 C69.37 165.53, 84.5 143.75, 101.36 124.56 C118.21 105.38, 136.89 87.42, 157.28 72.34 C177.67 57.27, 200.5 44.8, 223.68 34.13 C246.86 23.47, 271.64 14.01, 296.37 8.35 C321.09 2.69, 346.4 0.54, 372.04 0.18 C397.69 -0.18, 425.04 1.87, 450.23 6.21 C475.41 10.54, 507.68 21.41, 523.15 26.17 C538.62 30.94, 540.44 32.13, 543.05 34.81 C545.67 37.49, 541.91 36.2, 538.83 42.23" stroke="#000000" stroke-width="1" fill="none"></path></g><g transform="translate(270.3333333333335 270.91666666666663) rotate(0 95 26)"><text x="95" y="18" font-family="Virgil, Segoe UI Emoji" font-size="20px" fill="#000000" text-anchor="middle" style="white-space: pre;" direction="ltr">node connected to </text><text x="95" y="44" font-family="Virgil, Segoe UI Emoji" font-size="20px" fill="#000000" text-anchor="middle" style="white-space: pre;" direction="ltr">topic X</text></g><g stroke-linecap="round" transform="translate(299.8333333333338 245.5833333333328) rotate(0 369.33333333333337 389.5000000000002)"><path d="M258.72 17.84 C279.04 4.37, 306.79 5.3, 331.38 2.71 C355.96 0.11, 381.54 -0.16, 406.25 2.29 C430.96 4.74, 455.78 9.68, 479.63 17.39 C503.47 25.1, 527.49 35.91, 549.31 48.57 C571.13 61.23, 591.76 76.2, 610.53 93.35 C629.29 110.51, 646.76 130.68, 661.88 151.49 C677 172.29, 690.61 194.86, 701.25 218.18 C711.88 241.5, 719.67 266.24, 725.68 291.4 C731.69 316.57, 735.73 343.26, 737.31 369.17 C738.88 395.08, 738.53 421.3, 735.14 446.86 C731.74 472.42, 725.63 497.97, 716.94 522.54 C708.26 547.1, 696.18 571.78, 683.03 594.25 C669.89 616.72, 654.78 638.43, 638.07 657.36 C621.35 676.3, 602.83 693.15, 582.77 707.86 C562.71 722.57, 540.34 735.31, 517.71 745.62 C495.09 755.93, 471.29 764.04, 447.01 769.71 C422.72 775.38, 397.01 779.15, 372.01 779.62 C347.01 780.09, 321.2 777.71, 297.03 772.5 C272.87 767.29, 249.65 758.58, 227.02 748.37 C204.39 738.16, 181.58 725.92, 161.23 711.26 C140.89 696.61, 122.3 679.07, 104.97 660.42 C87.63 641.77, 70.64 621.26, 57.22 599.36 C43.8 577.47, 33.28 553.46, 24.45 529.05 C15.63 504.65, 8.15 478.77, 4.28 452.94 C0.42 427.1, 0.21 400.19, 1.27 374.03 C2.34 347.87, 4.85 321.3, 10.7 295.98 C16.54 270.66, 25.74 245.69, 36.35 222.12 C46.96 198.54, 59.57 175.36, 74.36 154.53 C89.15 133.69, 106.65 114.42, 125.08 97.09 C143.51 79.77, 163.39 63.48, 184.93 50.6 C206.46 37.72, 240.18 25.79, 254.3 19.8 C268.41 13.81, 265.43 14.78, 269.62 14.65 C273.81 14.53, 278.09 12.74, 279.46 19.04 M418.65 3.93 C442.36 0.86, 466.61 14.44, 489.68 22.75 C512.75 31.07, 535.83 40.68, 557.06 53.82 C578.29 66.95, 598.58 83.6, 617.06 101.56 C635.55 119.53, 653.15 140.77, 667.98 161.61 C682.81 182.46, 695.67 203.38, 706.04 226.61 C716.42 249.84, 724.89 275.46, 730.25 301.01 C735.61 326.55, 737.59 353.75, 738.23 379.89 C738.87 406.04, 738.42 432.04, 734.06 457.86 C729.7 483.68, 721.65 510.49, 712.07 534.83 C702.5 559.17, 689.99 582.01, 676.6 603.92 C663.21 625.82, 648.83 647.6, 631.75 666.26 C614.66 684.91, 594.98 701.66, 574.1 715.86 C553.22 730.05, 529.39 741.87, 506.44 751.41 C483.5 760.95, 460.79 768.44, 436.43 773.1 C412.07 777.75, 385.44 779.93, 360.26 779.35 C335.09 778.78, 309.24 775.5, 285.36 769.64 C261.48 763.78, 239.39 755.18, 216.99 744.17 C194.59 733.17, 171.08 719.01, 150.96 703.61 C130.84 688.2, 112.63 670.81, 96.27 651.73 C79.91 632.66, 65.18 611.29, 52.78 589.13 C40.39 566.97, 30.31 543.68, 21.9 518.77 C13.49 493.86, 5.85 465.89, 2.31 439.67 C-1.23 413.45, -1.01 387.07, 0.67 361.46 C2.35 335.85, 5.6 310.75, 12.39 286 C19.18 261.25, 29.98 236.4, 41.4 212.96 C52.83 189.53, 65.61 165.99, 80.95 145.39 C96.29 124.79, 114.56 106.17, 133.44 89.35 C152.33 72.54, 172.23 56.77, 194.27 44.5 C216.32 32.23, 241.79 23.01, 265.71 15.73 C289.62 8.44, 313.53 3.08, 337.76 0.8 C361.99 -1.49, 397.9 1.53, 411.09 2.02 C424.28 2.51, 415.78 1.97, 416.9 3.72 C418.02 5.47, 418.39 6.12, 417.82 12.53" stroke="#000000" stroke-width="1" fill="none"></path></g><g transform="translate(470.8333333333337 819.25) rotate(0 67 10.5)"><text x="67" y="15" font-family="Virgil, Segoe UI Emoji" font-size="16px" fill="#1864ab" text-anchor="middle" style="white-space: pre;" direction="ltr">wrap transaction</text></g><g stroke-linecap="round"><g transform="translate(293.73730211150706 483.108463582872) rotate(0 91.43989763379818 87.63531795992901)"><path d="M0 0 C30.48 29.21, 152.4 146.06, 182.88 175.27" stroke="#000000" stroke-width="1.5" fill="none" stroke-dasharray="8 9"></path></g><g transform="translate(293.73730211150706 483.108463582872) rotate(0 91.43989763379818 87.63531795992901)"><path d="M155.43 163.17 C165.01 167.39, 174.59 171.62, 182.88 175.27" stroke="#000000" stroke-width="1.5" fill="none"></path></g><g transform="translate(293.73730211150706 483.108463582872) rotate(0 91.43989763379818 87.63531795992901)"><path d="M169.63 148.36 C174.25 157.75, 178.88 167.14, 182.88 175.27" stroke="#000000" stroke-width="1.5" fill="none"></path></g></g><g stroke-linecap="round" transform="translate(68.50000000000045 614.9166666666663) rotate(0 117.33333333333331 154.83333333333337)"><path d="M117.04 -1.73 C162.18 62.03, 207.2 123.03, 236.58 153.86 M117.75 0.18 C151.55 43.73, 182.84 86.3, 235.48 154.23 M234.25 153.72 C207.45 192.97, 177.87 230.82, 119.76 308 M235.07 154.15 C202.02 198.67, 169.02 242.35, 117.43 309.31 M119.67 308.12 C81.25 258.66, 40.38 208.79, -0.42 156.18 M117.73 309.88 C70.64 249.01, 26.05 187.42, -0.64 154.55 M-0.89 156.88 C38.26 107.24, 78.38 57.38, 117.49 -0.25 M0.67 155.49 C24.46 122.67, 47.76 92.11, 117.93 -0.87" stroke="#000000" stroke-width="1" fill="none"></path></g><g transform="translate(139.8333333333337 652.7499999999993) rotate(0 44 21)"><text x="44" y="15" font-family="Virgil, Segoe UI Emoji" font-size="16px" fill="#000000" text-anchor="middle" style="white-space: pre;" direction="ltr">intent</text><text x="44" y="36" font-family="Virgil, Segoe UI Emoji" font-size="16px" fill="#000000" text-anchor="middle" style="white-space: pre;" direction="ltr">gossip node</text></g><g transform="translate(254.8333333333337 584.75) rotate(0 6.5 10.5)"><text x="6.5" y="15" font-family="Virgil, Segoe UI Emoji" font-size="16px" fill="#000000" text-anchor="middle" style="white-space: pre;" direction="ltr">...</text></g><g stroke-linecap="round" transform="translate(238.3333333333337 586.25) rotate(0 22.5 12)"><path d="M0 -0.54 C17.02 0.47, 30.87 0.24, 44.33 1.82 M-0.47 0.18 C14.64 0.77, 29.53 -0.36, 45.25 0.93 M43.24 0.47 C46.34 6.12, 44.68 12.55, 45.22 24 M44.88 -0.63 C43.89 6.7, 45.04 12.44, 44.77 23.59 M46.32 25.05 C28.82 22.98, 13.03 25.63, -1.97 24.8 M45.61 23.74 C35.63 24.76, 25.49 24.08, -0.92 24.28 M-1.45 22.25 C-1.78 16.77, -1.18 7.87, -1.04 0.52 M-0.24 24.8 C-1.01 14.1, 0.24 5.5, 0.32 0.84" stroke="#000000" stroke-width="1" fill="none"></path></g><g stroke-linecap="round"><g transform="translate(224.96731804957017 744.0277417215675) rotate(0 12.930031682807794 -63.18992992833307)"><path d="M0.86 -1.18 C5.15 -21.96, 21.11 -104.61, 25 -125.2" stroke="#000000" stroke-width="1.5" fill="none" stroke-dasharray="8 9"></path></g><g transform="translate(224.96731804957017 744.0277417215675) rotate(0 12.930031682807794 -63.18992992833307)"><path d="M27.8 -94.78 C27.23 -103.17, 26.9 -108.51, 24.49 -123.83" stroke="#000000" stroke-width="1.5" fill="none"></path></g><g transform="translate(224.96731804957017 744.0277417215675) rotate(0 12.930031682807794 -63.18992992833307)"><path d="M7.65 -98.64 C11.88 -106.25, 16.38 -110.66, 24.49 -123.83" stroke="#000000" stroke-width="1.5" fill="none"></path></g></g><g stroke-linecap="round"><g transform="translate(254.27063554883466 583.25) rotate(0 -1.899603235024756 -29.532247947993255)"><path d="M-0.23 1.06 C-0.76 -9.14, -3.03 -49.96, -3.57 -60.12" stroke="#000000" stroke-width="1.5" fill="none" stroke-dasharray="8 9"></path></g><g transform="translate(254.27063554883466 583.25) rotate(0 -1.899603235024756 -29.532247947993255)"><path d="M9.98 -30.7 C5.89 -37.94, 3.11 -47.35, -3.16 -61.01" stroke="#000000" stroke-width="1.5" fill="none"></path></g><g transform="translate(254.27063554883466 583.25) rotate(0 -1.899603235024756 -29.532247947993255)"><path d="M-10.51 -29.59 C-9.14 -37.09, -6.45 -46.79, -3.16 -61.01" stroke="#000000" stroke-width="1.5" fill="none"></path></g></g><g transform="translate(172.39016309887916 759.9789755351683) rotate(0 36 28.5)"><text x="0" y="13" font-family="Virgil, Segoe UI Emoji" font-size="14.403669724770648px" fill="#000000" text-anchor="start" style="white-space: pre;" direction="ltr">gossipsub </text><text x="0" y="32" font-family="Virgil, Segoe UI Emoji" font-size="14.403669724770648px" fill="#000000" text-anchor="start" style="white-space: pre;" direction="ltr">intent</text><text x="0" y="51" font-family="Virgil, Segoe UI Emoji" font-size="14.403669724770648px" fill="#000000" text-anchor="start" style="white-space: pre;" direction="ltr">mempool</text></g><g stroke-linecap="round" transform="translate(161.3333333333337 754.3467125382265) rotate(0 43 30.5)"><path d="M1.13 0.71 C27.44 -1.52, 56.96 -1.13, 87.02 -1.86 M-0.26 -0.79 C33.21 -0.85, 64.68 0.68, 85.88 -0.55 M84.23 1.01 C86.72 20.28, 86.54 40.31, 86.28 62.44 M86.44 -0.17 C86.69 16.28, 86.68 33.92, 86.46 61.84 M85.12 59.58 C62.42 58.93, 42.11 58.79, 1.84 61.42 M85.03 60.61 C57.87 60.8, 31.56 61.64, -0.42 60.59 M-1.75 59.61 C-2.58 38.08, 0.42 14.2, 0.2 -1.61 M0.67 60.78 C-1.06 38.98, -0.99 16.59, -0.08 0.83" stroke="#000000" stroke-width="1" fill="none"></path></g><g stroke-linecap="round" transform="translate(130.3333333333337 1184.25) rotate(0 63 69)"><path d="M64.08 1.14 C77.26 12.56, 90.76 28.91, 124.12 69.3 M64.37 -0.37 C76.94 15.43, 89.74 30.86, 126.78 70.71 M124.24 71.09 C111.65 84.39, 97.56 101.38, 65.39 137.94 M126.03 69.99 C110.46 85.39, 96.75 102.44, 63.07 138.52 M65.42 139.37 C41.38 116.81, 19.91 92.66, -1.37 69.33 M64.33 137.76 C51.25 123.08, 37.83 109.27, 0.35 69.54 M0.16 69.99 C23.6 43.94, 45.51 19.7, 63.8 0.23 M-0.95 69.56 C16.07 52.86, 34.42 33.4, 63.22 -0.02" stroke="#000000" stroke-width="1" fill="none"></path></g><g transform="translate(167.8333333333337 1242.75) rotate(0 22.5 10.5)"><text x="22.5" y="15" font-family="Virgil, Segoe UI Emoji" font-size="16px" fill="#000000" text-anchor="middle" style="white-space: pre;" direction="ltr">Client</text></g><g stroke-linecap="round"><g transform="translate(193.75406480849324 1179.9681399798692) rotate(0 2.8353834394591786 -177.30302465365833)"><path d="M-0.51 0.4 C0.59 -58.59, 5.01 -295.7, 6.18 -355.01 M1.43 -0.43 C2.44 -59.16, 4.65 -294.6, 5.44 -353.62" stroke="#000000" stroke-width="1" fill="none"></path></g><g transform="translate(193.75406480849324 1179.9681399798692) rotate(0 2.8353834394591786 -177.30302465365833)"><path d="M16.05 -324.67 C12.49 -331.67, 9.06 -338.74, 5.58 -352.93 M15.39 -325.24 C12.71 -331.93, 9.44 -339.39, 4.84 -353.72" stroke="#000000" stroke-width="1" fill="none"></path></g><g transform="translate(193.75406480849324 1179.9681399798692) rotate(0 2.8353834394591786 -177.30302465365833)"><path d="M-4.47 -324.89 C-2.56 -331.75, -0.53 -338.76, 5.58 -352.93 M-5.13 -325.47 C-2.6 -332.1, -0.66 -339.5, 4.84 -353.72" stroke="#000000" stroke-width="1" fill="none"></path></g></g><g transform="translate(222.3333333333337 1138.75) rotate(0 43 10.5)"><text x="43" y="15" font-family="Virgil, Segoe UI Emoji" font-size="16px" fill="#000000" text-anchor="middle" style="white-space: pre;" direction="ltr">send intent</text></g><g transform="translate(156.8333333333337 849.75) rotate(0 14.5 10.5)"><text x="14.5" y="15" font-family="Virgil, Segoe UI Emoji" font-size="16px" fill="#000000" text-anchor="middle" style="white-space: pre;" direction="ltr">add</text></g><g stroke-linecap="round" transform="translate(347.50000000000034 426.9166666666663) rotate(0 67.83333333333337 59.33333333333337)"><path d="M66.71 1.95 C85.15 16.23, 107.2 31.06, 135.78 59.1 M68.31 -0.35 C86.68 16.44, 105.76 32.1, 134.73 59.66 M134.17 58.86 C118.42 74.94, 103.13 89.21, 67.57 120.65 M136.48 60.17 C110.15 80.72, 86.7 101.28, 68.7 118.02 M67.24 119.87 C45.41 96.5, 20.79 75.53, -0.08 60.32 M67.75 119.06 C48.62 103.45, 30.49 86.11, 0.1 60.84 M0.29 60.64 C19.78 41.64, 40.19 25.22, 66.07 -0.93 M0.88 60.59 C18.47 43.24, 35.92 27.42, 68.23 -0.72" stroke="#000000" stroke-width="1" fill="none"></path></g><g stroke-linecap="round"><g transform="translate(423.6124060948256 541.475689032409) rotate(0 25.194276687063677 41.61556127614574)"><path d="M0.71 0.91 C8.84 14.46, 41.49 68.73, 49.68 82.32" stroke="#000000" stroke-width="1.5" fill="none" stroke-dasharray="8 9"></path></g><g transform="translate(423.6124060948256 541.475689032409) rotate(0 25.194276687063677 41.61556127614574)"><path d="M27.87 62.82 C35.52 69.97, 44.42 75.99, 48.43 82.65" stroke="#000000" stroke-width="1.5" fill="none"></path></g><g transform="translate(423.6124060948256 541.475689032409) rotate(0 25.194276687063677 41.61556127614574)"><path d="M45.45 52.23 C46.62 63.45, 48.95 73.42, 48.43 82.65" stroke="#000000" stroke-width="1.5" fill="none"></path></g></g><g stroke-linecap="round" transform="translate(172.50000000000034 402.91666666666674) rotate(0 67.83333333333337 59.33333333333337)"><path d="M69.05 0.77 C85.32 15.5, 101.06 27.51, 135.94 60.65 M67.48 0.55 C93.48 22.61, 117.52 43.85, 136.36 60.23 M137.25 60.91 C110.92 79.95, 86.46 101.29, 66.82 117.28 M136.31 60.15 C115.9 76.6, 96.03 95.41, 67.45 117.79 M66.45 118.14 C51.47 100.25, 29.37 85.28, -1.76 59.69 M67.72 118.64 C53 104.26, 36.25 91.11, -0.97 59.14 M0.49 59.92 C28.11 36.97, 53.67 13.16, 69.39 0.13 M0.6 59.53 C15.38 46.79, 29.87 34.81, 68.31 0.89" stroke="#000000" stroke-width="1" fill="none"></path></g><g stroke-linecap="round" transform="translate(439.3333333333337 10) rotate(0 63 69)"><path d="M64.64 -1.43 C85.79 25.5, 106.47 47.44, 127.57 68.17 M64.82 0.36 C88.31 27.23, 109.9 52.27, 126.67 69.61 M126.16 70.95 C109.25 86.59, 97.09 105.31, 64.92 138.48 M125.59 70.8 C113.29 85.64, 97.18 100.3, 63.49 138.67 M62.38 139.17 C38.97 111.63, 14.28 84.77, -0.31 70.69 M63.55 137.66 C49.22 121.76, 33.18 106.57, 0.43 70.74 M1.67 68.2 C17.85 50.04, 38 30.56, 62.89 -0.04 M0.18 69.82 C16.55 51.22, 32.08 33.82, 64.6 0.17" stroke="#000000" stroke-width="1" fill="none"></path></g><g transform="translate(476.8333333333337 68.5) rotate(0 22.5 10.5)"><text x="22.5" y="15" font-family="Virgil, Segoe UI Emoji" font-size="16px" fill="#000000" text-anchor="middle" style="white-space: pre;" direction="ltr">Client</text></g><g transform="translate(491.3333333333337 194.5) rotate(0 43 10.5)"><text x="43" y="15" font-family="Virgil, Segoe UI Emoji" font-size="16px" fill="#000000" text-anchor="middle" style="white-space: pre;" direction="ltr">send intent</text></g><g stroke-linecap="round"><g transform="translate(503.3333333333337 152.25) rotate(0 -42.53823449781629 137.05380856482776)"><path d="M-0.13 0.6 C-14.13 46.14, -70.07 228.5, -84 274.24 M-1.66 -0.14 C-15.82 44.94, -71.17 226.68, -84.95 272.25" stroke="#000000" stroke-width="1" fill="none"></path></g><g transform="translate(503.3333333333337 152.25) rotate(0 -42.53823449781629 137.05380856482776)"><path d="M-85.58 242.29 C-85.44 251.8, -83.6 260.32, -83.31 272.12 M-85.72 242.56 C-85.84 254.47, -85.44 264.77, -84.29 272" stroke="#000000" stroke-width="1" fill="none"></path></g><g transform="translate(503.3333333333337 152.25) rotate(0 -42.53823449781629 137.05380856482776)"><path d="M-65.94 248.26 C-71.78 255.94, -75.87 262.66, -83.31 272.12 M-66.09 248.53 C-73.78 258.04, -80.95 266.04, -84.29 272" stroke="#000000" stroke-width="1" fill="none"></path></g></g><g transform="translate(196.3333333333337 435.4999999999998) rotate(0 44 21)"><text x="44" y="15" font-family="Virgil, Segoe UI Emoji" font-size="16px" fill="#000000" text-anchor="middle" style="white-space: pre;" direction="ltr">intent</text><text x="44" y="36" font-family="Virgil, Segoe UI Emoji" font-size="16px" fill="#000000" text-anchor="middle" style="white-space: pre;" direction="ltr">gossip node</text></g><g transform="translate(372.3333333333337 458.5000000000002) rotate(0 44 21)"><text x="44" y="15" font-family="Virgil, Segoe UI Emoji" font-size="16px" fill="#000000" text-anchor="middle" style="white-space: pre;" direction="ltr">intent</text><text x="44" y="36" font-family="Virgil, Segoe UI Emoji" font-size="16px" fill="#000000" text-anchor="middle" style="white-space: pre;" direction="ltr">gossip node</text></g><g transform="translate(467.3333333333337 509.4999999999998) rotate(0 64 31.5)"><text x="64" y="15" font-family="Virgil, Segoe UI Emoji" font-size="16px" fill="#000000" text-anchor="middle" style="white-space: pre;" direction="ltr">intent</text><text x="64" y="36" font-family="Virgil, Segoe UI Emoji" font-size="16px" fill="#000000" text-anchor="middle" style="white-space: pre;" direction="ltr">gossip node</text><text x="64" y="57" font-family="Virgil, Segoe UI Emoji" font-size="16px" fill="#000000" text-anchor="middle" style="white-space: pre;" direction="ltr">with matchmaker</text></g><g transform="translate(608.3333333333337 265.4999999999999) rotate(0 95 26)"><text x="95" y="18" font-family="Virgil, Segoe UI Emoji" font-size="20px" fill="#000000" text-anchor="middle" style="white-space: pre;" direction="ltr">node connected to </text><text x="95" y="44" font-family="Virgil, Segoe UI Emoji" font-size="20px" fill="#000000" text-anchor="middle" style="white-space: pre;" direction="ltr">topic Y</text></g><g transform="translate(487.3333333333337 619.0000000000002) rotate(0 36 28.5)"><text x="0" y="13" font-family="Virgil, Segoe UI Emoji" font-size="14.403669724770648px" fill="#000000" text-anchor="start" style="white-space: pre;" direction="ltr">gossipsub </text><text x="0" y="32" font-family="Virgil, Segoe UI Emoji" font-size="14.403669724770648px" fill="#000000" text-anchor="start" style="white-space: pre;" direction="ltr">intent</text><text x="0" y="51" font-family="Virgil, Segoe UI Emoji" font-size="14.403669724770648px" fill="#000000" text-anchor="start" style="white-space: pre;" direction="ltr">mempool</text></g></svg>