<svg version="1.1" xmlns="http://www.w3.org/2000/svg" viewBox="0 0 1048.5000000000005 1379.805555555556" width="1048.5000000000005" height="1379.805555555556">
  <!-- svg-source:excalidraw -->
  
  <defs>
    <style>
      @font-face {
        font-family: "Virgil";
        src: url("https://excalidraw.com/Virgil.woff2");
      }
      @font-face {
        font-family: "Cascadia";
        src: url("https://excalidraw.com/Cascadia.woff2");
      }
    </style>
  </defs>
  <rect x="0" y="0" width="1048.5000000000005" height="1379.805555555556" fill="#ffffff"></rect><g transform="translate(469.67741950529495 720.5254110612868) rotate(0 42.7228354605037 10.890134529147986)"><text x="0" y="14.78026905829601" font-family="Virgil, Segoe UI Emoji" font-size="16.75405312176615px" fill="#1864ab" text-anchor="start" style="white-space: pre;" direction="ltr">add intent</text></g><g transform="translate(361.36376728805413 744.0231689088182) rotate(0 44 9)"><text x="0" y="14" font-family="Cascadia, Segoe UI Emoji" font-size="13.677130044843086px" fill="#c92a2a" text-anchor="start" style="white-space: pre;" direction="ltr">filter.wasm</text></g><g><g transform="translate(462.9637280420327 755.7421845026101) rotate(0 48.51899403943402 -1.3653546283570677)"><path d="M0.17640868239104757 0.22350769825279704 C16.379396937957345 0.22434101645555216, 81.86123858775167 -0.7783862514095442, 98.22810356756113 -1.0841969914343281 M-1.190115488693118 -0.704754705503583 C14.84872020663911 -0.9721564460853127, 81.2112694493976 -3.0186637403862613, 97.77361184333823 -2.9542169549670145" stroke="#1864ab" stroke-width="1" fill="none"></path></g><g transform="translate(462.9637280420327 755.7421845026101) rotate(0 48.51899403943402 -1.3653546283570677)"><path d="M70.12165941695292 9.319129878198053 C81.41455878884862 5.4138508432473476, 91.30243104209958 -1.5799127410080214, 95.91224242535792 -1.1173922826703713 M68.92129392853548 8.476638479632582 C80.86587494976268 3.61284071098953, 90.08840499132165 -0.6388783409633323, 97.43952421167306 -3.6982850643973872" stroke="#1864ab" stroke-width="1" fill="none"></path></g><g transform="translate(462.9637280420327 755.7421845026101) rotate(0 48.51899403943402 -1.3653546283570677)"><path d="M69.79612710089143 -11.199496564549987 C81.02784965596067 -7.2223842519707375, 91.0407852951106 -6.33327793263822, 95.91224242535792 -1.1173922826703713 M68.59576161247398 -12.041987963115458 C80.85376148146263 -9.352038168051559, 90.19614855732075 -6.049048848577214, 97.43952421167306 -3.6982850643973872" stroke="#1864ab" stroke-width="1" fill="none"></path></g></g><g transform="translate(561.7299855242278 722.8404334828081) rotate(0 62.6868460388642 29.747757847533762)"><path d="M1.851579798385501 1.6084478665143251 C34.70622789691269 -2.4198879135423885, 65.3957282140678 0.28711609713494934, 125.92149292971422 -1.105073792859912 M-0.67837571259588 0.12597728427499533 C42.82336816690274 -1.0377504637326402, 88.1523911372827 -0.6797098627175493, 124.95617695725937 0.12761983927339315 M124.27728640581896 -0.598188741132617 C126.17703601845648 18.417016542757896, 126.31963661440756 37.745593484973604, 125.25348907257845 61.17625410132329 M125.91076846993943 -0.7854715818539262 C126.32115223257446 15.563230369090787, 124.9894888326397 29.48588308755259, 125.389136424432 59.00957542401026 M124.300154741066 58.77473766379277 C97.40128760238983 59.7395229749533, 70.00170139327909 58.27216098831619, 0.18966598622500896 58.862336762475174 M124.87414633310814 59.922877130324345 C88.05538849643517 58.82310999769865, 53.31860945767481 59.377006693074094, 0.05658958200365305 59.1312285934038 M1.8183171283453703 59.481618054436844 C0.5990129669671945 42.949427532212894, 1.3031255563264779 28.31032058237664, -0.40766297467052937 1.700549678876996 M0.7006799960508943 60.01960506778429 C0.7205293932041132 43.43471252695136, 0.955003307112118 28.156375734104273, -0.46043073292821646 0.5480908220633864" stroke="#1864ab" stroke-width="1" fill="none"></path></g><g transform="translate(490.05682976554414 624.215596330275) rotate(0 35.64908256880736 28.087155963302735)"><text x="0" y="12.72477064220184" font-family="Virgil, Segoe UI Emoji" font-size="14.403669724770648px" fill="#000000" text-anchor="start" style="white-space: pre;" direction="ltr">gossipsub </text><text x="0" y="31.44954128440368" font-family="Virgil, Segoe UI Emoji" font-size="14.403669724770648px" fill="#000000" text-anchor="start" style="white-space: pre;" direction="ltr">Intent</text><text x="0" y="50.17431192660552" font-family="Virgil, Segoe UI Emoji" font-size="14.403669724770648px" fill="#000000" text-anchor="start" style="white-space: pre;" direction="ltr">mempool</text></g><g transform="translate(452.9444444444432 514.7007936507937) rotate(0 79.5 39)"><text x="79.5" y="18" font-family="Virgil, Segoe UI Emoji" font-size="20px" fill="#000000" text-anchor="middle" style="white-space: pre;" direction="ltr">Intent </text><text x="79.5" y="44" font-family="Virgil, Segoe UI Emoji" font-size="20px" fill="#000000" text-anchor="middle" style="white-space: pre;" direction="ltr">broadcaster</text><text x="79.5" y="70" font-family="Virgil, Segoe UI Emoji" font-size="20px" fill="#000000" text-anchor="middle" style="white-space: pre;" direction="ltr">with matchmaker</text></g><g transform="translate(351.3854414285627 737.9308669656184) rotate(0 53.53768061783779 16.741591928251182)"><path d="M-0.6900553572922945 -1.6621518563479185 C37.370191021563826 -2.164904470654429, 78.36526520498538 0.7553678200522056, 107.69947355673946 -1.474149925634265 M0.8943608487024903 -0.307472282089293 C39.13583924405545 -0.6679050125045176, 77.444647999821 -0.1530402995509501, 107.29383226451762 -0.1849667662754655 M106.71142548010982 0.457143085077405 C106.15254232084077 7.832777859583292, 106.7688253203563 16.697199331476874, 108.28445660756267 33.72588021811856 M107.63299103793986 -0.6518149012699723 C107.58129768776699 7.763430995823763, 108.02521374034687 16.734256078403337, 106.56895672497637 32.83104789481325 M108.17575728581585 34.70092017707242 C68.32564035157418 31.664969391175, 28.816967432835426 34.77391279394218, 1.7479034196585417 34.52915419396771 M106.24273311314471 33.69108116851015 C84.88855331264952 31.941736738780946, 64.79780982959818 32.590079616407365, -0.9225937938317657 32.958161803342534 M-0.934083865955472 32.32089031991376 C-0.9508560879924124 20.27923179429682, 2.063120545556324 7.68888438013008, -0.8046905864030123 0.7807037401944399 M-0.8636626815423369 33.62188312635584 C-1.1114378708035004 21.337832354867324, -0.8573659496933473 9.3380594993334, 0.039879986084997654 -0.9531916910782456" stroke="#1864ab" stroke-width="1" fill="none"></path></g><g><g transform="translate(475.5926241898455 683.0143468397107) rotate(0 -21.135503773457998 24.895867644609666)"><path d="M-0.09740222878754135 -0.10298580341041097 C-7.016888190083109 8.372960492368081, -35.103298815451076 42.37679933158327, -42.17360531812848 50.994392584759225 M-1.6076771282404663 -1.2026572955399752 C-8.090149229787192 6.899312936510183, -33.45732317130964 40.62711768282224, -39.89620190432609 49.1345802397015" stroke="#1864ab" stroke-width="1" fill="none"></path></g><g transform="translate(475.5926241898455 683.0143468397107) rotate(0 -21.135503773457998 24.895867644609666)"><path d="M-31.271385415294777 19.073659937285306 C-32.38998086137092 25.52531372964581, -33.53390490578362 33.74578235932296, -39.22658525167347 48.200020434382786 M-31.24922328053565 20.86206689515752 C-34.416535421753764 29.58154986834792, -36.505552748895845 38.132434385049024, -38.931590753070424 49.879462502013375" stroke="#1864ab" stroke-width="1" fill="none"></path></g><g transform="translate(475.5926241898455 683.0143468397107) rotate(0 -21.135503773457998 24.895867644609666)"><path d="M-14.893321991536293 31.4380863644668 C-20.043353948151218 34.84375086557239, -25.20442176090522 40.03152403633378, -39.22658525167347 48.200020434382786 M-14.871159856777165 33.22649332233901 C-22.94184966793909 38.18337992127627, -29.83261830609551 43.10923873924098, -38.931590753070424 49.879462502013375" stroke="#1864ab" stroke-width="1" fill="none"></path></g></g><g transform="translate(568.5685505466492 728.3112855007478) rotate(0 56.41816143497774 8.206278026905807)"><text x="0" y="11.412556053811695" font-family="Helvetica, Segoe UI Emoji" font-size="13.67713004484308px" fill="#c92a2a" text-anchor="start" style="white-space: pre;" direction="ltr">matchmaker.wasm</text></g><g transform="translate(447.00539658551236 815.9155455904349) rotate(0 88.34697309417056 28.101831091180884)"><path d="M0.9834268819540739 -1.0009811948984861 C58.677014886807115 0.6248763582143531, 112.39655618450684 1.5447309395704016, 177.31045134740626 -0.6794667672365904 M-0.5874079084023833 -0.767146491445601 C64.97571496858322 1.7701018725960713, 131.2398046805908 1.4897500251858693, 177.26171745269303 0.8867015307769179 M177.0234988518313 -0.16338066570460796 C178.24802876936315 16.66833746309616, 177.6963029645574 33.00220898850338, 177.4889879413203 57.66412023936303 M176.29732550590043 0.7230379050597548 C176.91807916699244 21.860061476884127, 177.02340745864703 43.999594165834964, 176.78491072266107 57.152698340051785 M178.59261466937815 54.8299103203872 C106.97661258066603 57.65489813783365, 39.078336245738086 57.22741308906274, 1.9360093008726835 57.308624607668236 M177.48155240623956 56.74340635740103 C109.1770480064079 56.059964847776996, 41.970788273629466 55.988713723633396, 0.9297715509310365 55.20619717442335 M0.5244535338133574 56.10019288693459 C1.863233672790484 42.15985764468783, 0.6612278692054313 30.836543963110017, 1.2773838769644499 0.5971249509602785 M-0.31045352574437857 56.301520975464 C-0.030626098163768822 40.369040869890895, -0.1643973090726586 22.74784673691301, -0.4405574416741729 -0.14826705399900675" stroke="#1864ab" stroke-width="1" fill="none"></path></g><g transform="translate(479.33648776637983 843.5003736920773) rotate(0 56 9)"><text x="0" y="14" font-family="Cascadia, Segoe UI Emoji" font-size="13.67713004484309px" fill="#1864ab" text-anchor="start" style="white-space: pre;" direction="ltr">tx.wawm + data</text></g><g><g transform="translate(611.9546018721132 791.0216634080846) rotate(0 -24.311143272510606 7.73935958261859)"><path d="M1.0160104114562272 -0.16142859645187846 C-7.016293172513716 2.6294175642644406, -40.35437185155983 13.102093224185229, -48.942367345319816 15.688761909925962 M0.09027714813128118 -1.2917825549282134 C-7.992530654774627 1.7199113477495847, -41.5916536852793 13.88069775202748, -49.63829695647744 16.770501720165484" stroke="#1864ab" stroke-width="1" fill="none"></path></g><g transform="translate(611.9546018721132 791.0216634080846) rotate(0 -24.311143272510606 7.73935958261859)"><path d="M-29.89887152634484 0.8723540687077005 C-35.97787207352142 2.3936898075338604, -41.28260637676367 6.959682382621853, -50.11933276830403 16.690829038997762 M-30.411398942805057 0.661434117618974 C-34.609090956295006 2.752454776079709, -37.2230953738315 6.7151400137925545, -49.54332484612403 17.16924058963137" stroke="#1864ab" stroke-width="1" fill="none"></path></g><g transform="translate(611.9546018721132 791.0216634080846) rotate(0 -24.311143272510606 7.73935958261859)"><path d="M-23.84636616755042 17.64026313844292 C-31.215968556110894 15.228433610581526, -37.95890632390955 15.81001584848255, -50.11933276830403 16.690829038997762 M-24.358893584010637 17.429343187354192 C-29.709078737327275 16.061410289749514, -33.569901483949806 16.569900094456052, -49.54332484612403 17.16924058963137" stroke="#1864ab" stroke-width="1" fill="none"></path></g></g><g transform="translate(585.5876088426137 750.9192825112111) rotate(0 37.95403587443957 8.890134529147986)"><text x="0" y="11.780269058296007" font-family="Virgil, Segoe UI Emoji" font-size="13.677130044843084px" fill="#1864ab" text-anchor="start" style="white-space: pre;" direction="ltr">craft data</text></g><g><g transform="translate(528.3892467616317 885.3281000101069) rotate(0 0.7378615995093725 172.22242438488206)"><path d="M-0.7310843389481305 -0.5721253652125596 C-0.1690428893650714 57.09907228124804, 1.6933046778613612 287.55202915880415, 2.2068075379668812 345.01697413497664 M1.0859576537646354 1.741904872711748 C1.568897300640976 59.12998406316629, 1.0479093901576384 285.8360964124049, 1.1204223822183053 343.0991209954681" stroke="#1864ab" stroke-width="1" fill="none"></path></g><g transform="translate(528.3892467616317 885.3281000101069) rotate(0 0.7378615995093725 172.22242438488206)"><path d="M-10.077137678022819 314.46313727310024 C-6.632753099434254 320.48465586185534, -5.886830499681736 326.7580474801618, 1.8781669496870677 344.18713728009783 M-8.610163429844516 314.777071087976 C-5.625043860811152 321.80838053151217, -3.1813251766816277 331.08651746133484, 0.49496155542648235 343.4795509273844" stroke="#1864ab" stroke-width="1" fill="none"></path></g><g transform="translate(528.3892467616317 885.3281000101069) rotate(0 0.7378615995093725 172.22242438488206)"><path d="M10.444067370309124 314.47520997598156 C9.72521348482595 320.3692564923828, 6.307795987288146 326.6401988018952, 1.8781669496870677 344.18713728009783 M11.911041618487427 314.78914379085734 C9.11523313368283 321.919926219546, 5.7780510314142495 331.1946622234768, 0.49496155542648235 343.4795509273844" stroke="#1864ab" stroke-width="1" fill="none"></path></g></g><g transform="translate(431.77370749732177 1234.1740159441954) rotate(0 107.42245889387168 67.81576980568036)"><path d="M82.77190546787614 1.2771622220789993 C95.77486696712195 -1.9790536561412835, 113.24134269850809 -1.387753980373856, 127.48803336004143 0.4308102534276941 C141.73472402157478 2.249374487229244, 156.4804242679513 6.980727000985957, 168.25204943707615 12.188547624888301 C180.023674606201 17.396368248790644, 190.65932411048726 23.864446626915647, 198.11778437479066 31.67773399684176 C205.57624463909406 39.49102136676787, 210.80683639198475 49.8577829383279, 213.00281102289648 59.06827184444497 C215.19878565380822 68.27876075056204, 215.12740932282819 78.31370127070377, 211.293632160261 86.9406674335442 C207.45985499769384 95.56763359638464, 199.318215148531 103.85077540400994, 190.0001480474935 110.8300688214876 C180.68208094645598 117.80936223896526, 168.3711579197767 124.61759242730712, 155.38522955403602 128.8164279384102 C142.39930118829534 133.01526344951327, 126.51231235163891 135.5088800729691, 112.08457785304952 136.02308188810605 C97.65684335446014 136.537283703243, 82.35471464564979 135.20258045033893, 68.81882256249969 131.9016388292319 C55.28293047934959 128.60069720812487, 41.084262682668886 122.91757523475309, 30.86922535414891 116.21743216146388 C20.654188025628933 109.51728908817466, 12.549591514147835 100.17265550148677, 7.528598591379819 91.7007803894966 C2.5076056686118022 83.22890527750643, 0.1431368103613645 74.55052906077603, 0.7432678175408114 65.38618148952283 C1.3433988247202584 56.221833918269624, 4.672734419876531 44.859878807821644, 11.1293846344565 36.714694961977386 C17.58603484903647 28.56951111613313, 28.367970394652026 22.13421329174894, 39.48316910502062 16.515078414457285 C50.59836781538922 10.895943537165632, 69.85537575371978 5.507322762781536, 77.82057689666806 2.999885698227473 C85.78577803961633 0.49244863367341063, 84.99689935927846 1.6526434425848986, 87.2743759627103 1.4704560271329115 C89.55185256614213 1.2882686116809243, 91.24802285760434 1.0080936192089793, 91.48543651725905 1.9067612055155507 M97.5176605319517 -0.14522698782622 C111.19232408987321 -1.9227608336092814, 126.59816940244922 0.03981802702694637, 140.44801639593123 3.0113228737345565 C154.29786338941324 5.982827720442167, 169.61311041995236 11.742446522231486, 180.6167424928438 17.68380209241944 C191.62037456573523 23.625157662607396, 200.74511321004616 30.180505514302297, 206.4698088332799 38.65945629486229 C212.19450445651364 47.13840707542228, 214.7929491345596 59.32378608925033, 214.96491623224628 68.55750677577939 C215.13688332993297 77.79122746230844, 213.18438027097497 85.85621801293742, 207.50161141940004 94.06178041403662 C201.8188425678251 102.26734281513582, 191.59201492911814 111.52266633563218, 180.86830312279662 117.7908811823746 C170.1445913164751 124.05909602911703, 157.01980282253686 128.52345724731202, 143.15934058147099 131.67106949449118 C129.2988783404051 134.81868174167033, 112.37470449937254 137.3176534740401, 97.70552967640144 136.6765546654496 C83.03635485343034 136.0354558568591, 67.62571081463156 132.21163349521592, 55.1442916436444 127.82447664294824 C42.66287247265725 123.43731979068056, 31.72263554492065 117.64607758930491, 22.817014650478527 110.3536135518435 C13.911393756036405 103.06114951438208, 5.487999180489856 93.14580532210105, 1.7105662769916705 84.06969241817976 C-2.0668666265065148 74.99357951425846, -2.800097256698789 64.95430345652407, 0.15241722948941572 55.89693612831569 C3.1049317156776204 46.83956880010731, 11.051277360588458 37.42845987706523, 19.425653194120898 29.725488448929468 C27.800029027653338 22.022517020793707, 38.606823130300555 14.30984036593382, 50.398672230684056 9.679107559501112 C62.19052133106756 5.048374753068404, 82.28923065778339 3.3527298976069906, 90.17674779642189 1.941091610333217 C98.0642649350604 0.5294533230594436, 96.43637874320017 1.234246518846163, 97.72377506251503 1.2092778358584724 C99.0111713818299 1.1843091528707816, 98.11837794149658 0.8663133812653854, 97.90112571231111 1.7912795124070726" stroke="#000000" stroke-width="1" fill="none"></path></g><g transform="translate(478.50390181720275 1289.5663926258123) rotate(0 51.289237668161576 8.890134529147986)"><text x="0" y="11.780269058296007" font-family="Virgil, Segoe UI Emoji" font-size="13.677130044843079px" fill="#000000" text-anchor="start" style="white-space: pre;" direction="ltr">Ledger network</text></g><g transform="translate(546.889552041418 1181.4790732436484) rotate(0 14.702914798206308 8.890134529147986)"><text x="0" y="11.780269058296007" font-family="Virgil, Segoe UI Emoji" font-size="13.677130044843071px" fill="#1864ab" text-anchor="start" style="white-space: pre;" direction="ltr">send</text></g><g transform="translate(403.29700097016644 681.4722222222215) rotate(0 21.993273542600917 12.154177484068896)"><text x="0" y="17.30835496813786" font-family="Virgil, Segoe UI Emoji" font-size="18.520651404295513px" fill="#000000" text-anchor="start" style="white-space: pre;" direction="ltr">apply</text></g><g><g transform="translate(671.3380855927787 785.9729079845479) rotate(0 8.419605335371564 173.0460498630788)"><path d="M-0.4560881707817316 -0.6320918049663306 C2.2665233042594024 56.95910208042625, 14.420772006986653 287.54896012674584, 17.295298841524858 345.44647229521945 M1.5053268102183939 1.6504560520872475 C3.9418915883582066 59.41154381379398, 13.141076279273246 289.52648767292067, 16.082906674783665 346.72419153112395" stroke="#1864ab" stroke-width="1" fill="none"></path></g><g transform="translate(671.3380855927787 785.9729079845479) rotate(0 8.419605335371564 173.0460498630788)"><path d="M10.181460294922347 26.156953391400233 C5.99143298193537 14.77426247466525, 3.726715088319711 7.095759879700523, -0.9498693145811558 0.058315853029489495 M10.559013406795914 27.023216640357926 C8.815125027752567 20.314160529603775, 5.96667351774713 14.406356803968166, -1.4232470424845816 -0.357987773232162" stroke="#1864ab" stroke-width="1" fill="none"></path></g><g transform="translate(671.3380855927787 785.9729079845479) rotate(0 8.419605335371564 173.0460498630788)"><path d="M-10.312813307124559 27.20802518261284 C-6.714766627267772 15.503852692016729, -1.1922924737708342 7.425975225202055, -0.9498693145811558 0.058315853029489495 M-9.935260195250992 28.074288431570533 C-6.905613019204662 21.254151521466785, -4.970640493283352 15.101024532992096, -1.4232470424845816 -0.357987773232162" stroke="#1864ab" stroke-width="1" fill="none"></path></g><g transform="translate(671.3380855927787 785.9729079845479) rotate(0 8.419605335371564 173.0460498630788)"><path d="M3.5157306913174526 318.1823793307872 C8.09635550389314 327.911903152543, 14.648717405092476 341.2574202933397, 15.58912553098424 347.41459918911977 M3.8932838031910197 319.0486425797449 C8.085999270226806 325.4059687069897, 10.653599035448417 332.41255064532766, 15.115747803080815 346.9982955628581" stroke="#1864ab" stroke-width="1" fill="none"></path></g><g transform="translate(671.3380855927787 785.9729079845479) rotate(0 8.419605335371564 173.0460498630788)"><path d="M24.016320887980527 317.262703314833 C20.80658184964338 327.26375835961625, 19.569351592542233 340.95872402913, 15.58912553098424 347.41459918911977 M24.393873999854094 318.1289665637907 C23.810343428814356 324.56666395283173, 21.593044846255147 331.78790099168225, 15.115747803080815 346.9982955628581" stroke="#1864ab" stroke-width="1" fill="none"></path></g></g><g transform="translate(629.1885057036005 1145.9829347284497) rotate(0 50.947309417040486 30.089686098654738)"><path d="M51.31077482661932 -0.3651548748741327 C60.3347071612598 -0.5847597807354431, 71.7028314702914 2.635660940584854, 79.67339665282378 5.951826903883671 C87.64396183535617 9.267992867182487, 95.59603170004632 14.227193959764548, 99.1341659218136 19.531840904918766 C102.67230014358088 24.836487850072984, 103.42942578556831 32.122127688454185, 100.90220198342743 37.779708574808986 C98.37497818128655 43.437289461163786, 91.47066873812658 49.770847448990295, 83.97082310896835 53.47732622304755 C76.47097747981012 57.1838049971048, 65.51029773552891 59.383050165619665, 55.903128208478066 60.01858121915252 C46.29595868142722 60.65411227268538, 34.66176893682677 60.04514869926433, 26.32780594666327 57.290512544244706 C17.99384295649977 54.53587638922508, 10.282503802777352 48.94688841455663, 5.899350267497084 43.490764289034786 C1.516196732216815 38.03464016351294, -1.450267031642581 30.24252354353335, 0.028884734981652116 24.55376779111363 C1.5080365016058852 18.86501203869391, 7.8021827188183375 13.229423324514803, 14.774260867242482 9.35822977451646 C21.746339015666628 5.487036224518116, 34.73359501217589 2.7228506625640003, 41.86135362552652 1.3266064911235702 C48.98911223887715 -0.06963768031685968, 53.63275951655492 0.9775662366165546, 57.540812547346256 0.9807647458738806 C61.44886557813759 0.9839632551312066, 65.21103925805876 0.9522274671526525, 65.30967181027452 1.3457975466675265 M33.7715665377726 0.7521025684448617 C42.360417037790455 -1.5803791739112696, 54.595723798039934 -0.5077935648853806, 63.72709425298412 1.32381529460282 C72.85846470792829 3.155424154091021, 82.31426118855661 7.4767299732607375, 88.55978926743768 11.741755725374066 C94.80531734631874 16.006781477487394, 100.03892902431227 21.560666069857888, 101.20026272627054 26.913969807282793 C102.36159642822881 32.2672735447077, 100.09421321728382 39.05591064391788, 95.52779147918727 43.86157814992351 C90.96136974109072 48.667245655929136, 82.34983353373326 53.132453984428224, 73.80173229769123 55.747974843316534 C65.2536310616492 58.363495702204844, 54.03615407472367 60.08228328582483, 44.23918406293512 59.55470330325335 C34.442214051146564 59.027123320681866, 22.26899812173765 56.64185373448388, 15.019912226959931 52.58249494788764 C7.770826332182214 48.5231361612914, 2.623107518289726 41.17865778241678, 0.7446686942688103 35.19855058367588 C-1.1337701297521054 29.21844338493499, -0.38477221667580963 21.955762303484164, 3.7492792828344363 16.70185175544228 C7.883330782344682 11.4479412074004, 20.448601588603186 6.383204606684499, 25.548977691330286 3.675087295424593 C30.649353794057387 0.9669699841646868, 33.15165858669299 0.6667510347742281, 34.35153589919703 0.4531478878828459 C35.551413211701075 0.23954474099146358, 32.80934528700335 1.4636168807437708, 32.74824156635452 2.393468414076299" stroke="#1864ab" stroke-width="1" fill="none"></path></g><g transform="translate(694.3656357484431 1068.1443697060292) rotate(0 45 9.5)"><text x="0" y="13" font-family="Virgil, Segoe UI Emoji" font-size="13.677130044843079px" fill="#1864ab" text-anchor="start" style="white-space: pre;" direction="ltr">read storage</text></g><g transform="translate(645.6010617574123 1163.7632037867468) rotate(0 37.61210762331849 8.890134529147986)"><text x="0" y="11.780269058296007" font-family="Virgil, Segoe UI Emoji" font-size="13.677130044843079px" fill="#1864ab" text-anchor="start" style="white-space: pre;" direction="ltr">ledger node</text></g><g transform="translate(478.99999999999864 618.5833333333333) rotate(0 43 30.5)"><path d="M1.5909400470554829 0.2670114152133465 C21.47180512063205 -0.8656356163695454, 40.514829160273074 -1.3421107359603046, 85.4567686803639 1.6809698455035686 M0.31466097198426723 0.9997786525636911 C17.92561080381274 -0.8435156681016088, 34.866339306905864 -0.42118940133601435, 85.7570165451616 0.9456514958292246 M85.64201324060559 -0.37886272743344307 C85.48877842666582 14.733339825831356, 83.80328340770677 29.717746206000452, 85.69722251966596 61.628246795386076 M86.55667484365404 -0.7486219760030508 C85.35130721574649 12.92296918537468, 85.80114948993548 25.767619810253386, 86.92164356075227 61.65632107295096 M84.51524906232953 62.58748770877719 C68.05838360823691 61.25437872696668, 46.91235876083374 61.19282822895795, 0.9298829324543476 59.379032503813505 M86.57995969615877 60.23449327982962 C67.82974685430527 60.98327290866524, 48.997081238403915 59.98738247010857, -0.8395507279783487 61.04680975712836 M-0.6398163549602032 60.42472971603274 C-1.3724197122640907 47.02872724030166, -1.5025024387426673 28.227340700849886, -0.42618269845843315 -0.26503728702664375 M0.8204896505922079 60.85592373646796 C-0.7138359423540532 47.27064469028264, 0.06651551762595775 34.2413596779108, -0.7566078249365091 -0.21631751023232937" stroke="#000000" stroke-width="1" fill="none"></path></g><g transform="translate(327.99999999999864 467.91666666666674) rotate(0 203.33333333333337 262.83333333333337)"><path d="M204.9257318528921 -0.3542790188128054 C258.0272706637917 71.88771164377253, 311.6975144733074 141.5218765760099, 407.0124945671027 263.32630127182 M203.75246308828252 -0.12883782765460633 C248.6022244252659 54.76819674434722, 289.44401583015537 110.0042249276872, 407.13632493934244 262.97993948641687 M406.81032637144096 263.47802564080405 C350.9086740231445 336.72776919282154, 293.5571351117592 410.3757141130995, 205.09893391422017 526.8351055061457 M407.1967616079777 263.27751798819196 C335.0392507068434 357.2058125623405, 263.3721290682395 451.2020288461854, 204.21402923490146 525.2881130994217 M204.71835054667258 526.5632789901608 C150.55103121468122 458.1902852756467, 101.67098535535274 392.2829357638993, 0.22707353169822628 262.47044335919077 M204.36396810669044 525.2556447365865 C138.73948479615757 438.4213829697209, 73.19465506841975 352.972096921555, -0.1291243919048176 263.15412752987385 M0.4643631875084416 261.69953576607975 C45.42147958284899 201.99319971337846, 93.94043787789487 140.82327207043647, 203.97832440875365 -1.3355541610510664 M-0.19428668316176034 263.50481732296294 C49.751959595429305 200.0759998681287, 97.99480847256392 137.9095534909727, 204.46992410635139 -0.2180279686818072" stroke="#000000" stroke-width="1" fill="none"></path></g><g transform="translate(10 250.24999999999977) rotate(0 381.66666666666674 402.8333333333335)"><path d="M341.643363429841 1.1603113997805394 C364.74026975825336 -7.939527220272263, 393.7538486779034 -1.507080967662953, 418.718263269691 1.2811478694667926 C443.6826778614786 4.069376706596538, 467.5571814196671 10.166731098333269, 491.42985098056647 17.889684422559014 C515.3025205414658 25.61263774678476, 539.6683362052552 35.127002118425246, 561.9542806350873 47.61886781482127 C584.2402250649195 60.1107335112173, 605.7284826158345 75.96031051039536, 625.1455175595597 92.84087860093518 C644.5625525032849 109.72144669147501, 662.6725457508254 128.145613028165, 678.4564902974387 148.9022763580602 C694.240434844052 169.65893968795538, 708.3102940170213 193.637654636047, 719.8491848392395 217.38085858030627 C731.3880756614576 241.12406252456555, 740.5603740410826 266.1370612337611, 747.6898352307478 291.3615000236159 C754.819296420413 316.58593881347076, 760.3338169527058 342.37719384052343, 762.6259519772309 368.72749131943516 C764.918087001756 395.0777887983469, 764.3975512327847 423.09051566235274, 761.4426453778985 449.4632848970862 C758.4877395230124 475.8360541318197, 752.8825785339284 501.6500505702236, 744.8965168479139 526.9641067278361 C736.9104551618993 552.2781628854486, 725.7690026452256 578.0478461901332, 713.5262752618115 601.3476218427613 C701.2835478783975 624.6473974953894, 687.6810139194695 646.8722101323601, 671.4401525474294 666.7627606436047 C655.1992911753894 686.6533111548492, 635.9925193976394 704.6122029006683, 616.0811070295714 720.6909249102284 C596.1696946615034 736.7696469197886, 574.578336248668 751.2847771510794, 551.9716783390211 763.2350927009654 C529.3650204293741 775.1854082508514, 504.8800310939572 785.3803741109637, 480.4411595716897 792.3928182095448 C456.0022880494222 799.4052623081259, 430.2895575342641 803.7900408600505, 405.3384492054161 805.3097572924521 C380.38734087656815 806.8294737248538, 355.5211230549253 805.0445270475628, 330.7345095986021 801.5111168039549 C305.94789614227886 797.977706560347, 280.3088469960183 792.8633277777038, 256.6187684674768 784.1092958308047 C232.92868993893526 775.3552638839056, 210.10140182497105 762.6792276785525, 188.59403842735293 748.9869251225606 C167.0866750297348 735.2946225665687, 146.42494882789185 719.4715332590401, 127.57458808176813 701.9554804948534 C108.72422733564441 684.4394277306667, 90.58561519119799 664.9088185107047, 75.49187395061062 643.8906085374402 C60.398132710023255 622.8723985641758, 47.71584813803788 599.8029473872741, 37.01214063824392 575.8462206552665 C26.308433138449963 551.8894939232589, 17.501899621734527 526.2103393054775, 11.269628951846869 500.15024814539447 C5.03735828195921 474.09015698531135, 0.5957917677542829 446.1838759032147, -0.3814833810820346 419.4856736947679 C-1.3587585299183522 392.7874714863211, 1.3810779242468625 366.1794788032604, 5.405978058828964 339.96103489471363 C9.430878193411065 313.7425909861669, 15.094241159264925 287.1218608427559, 23.767917426410577 262.17501024348735 C32.44159369355623 237.2281596442188, 44.30269310632814 212.8009151793857, 57.448035661702875 190.27993129910234 C70.59337821707761 167.758947418819, 85.73941917856834 146.2703129047826, 102.63997275865898 127.04910696178729 C119.54052633874963 107.82790101879199, 138.49339747674017 90.25312609857077, 158.85135714224674 74.95269564113056 C179.2093168077533 59.65226518369035, 201.55403441086187 46.22568307213364, 224.7877307516984 35.24652421714603 C248.02142709253494 24.267365362158422, 277.8911585545479 14.600162818973434, 298.25353518726587 9.077742511204917 C318.6159118199838 3.5553222034363996, 337.81308489115287 2.0918655890188425, 346.9619905480059 2.112002370534924 C356.1108962048589 2.1321391520510056, 352.56435541032465 2.6634386452931835, 353.1469691283839 9.198563200301408 M540.8281775136384 37.064633080994156 C565.0850964920828 41.51960687671181, 586.7280920251875 62.109548325926944, 607.1095320279674 77.83379030605249 C627.4909720307472 93.55803228617803, 646.1475837385858 112.03049648855792, 663.1168175303178 131.41008496174743 C680.0860513220498 150.78967343493696, 695.9980738844171 171.48205847669544, 708.9249347783597 194.11132114518958 C721.8517956723023 216.7405838136837, 732.4253213621636 242.09923498274364, 740.6779828939735 267.1856609727122 C748.9306444257835 292.2720869626807, 754.8820480297437 318.32410042711723, 758.4409039692193 344.6298770850008 C761.999759908695 370.9356537428844, 763.4665748045022 398.73326967134176, 762.0311185308274 425.0203209200138 C760.5956622571525 451.3073721686858, 756.2399804749401 476.87518685198694, 749.8281663271705 502.352184577033 C743.4163521794009 527.829182302079, 734.5203681674654 553.6125650849203, 723.5602336442096 577.8823072702899 C712.6000991209537 602.1520494556594, 699.1537265292799 626.4651028094287, 684.0673591876355 647.97063768925 C668.9809918459911 669.4761725690713, 651.7617950187041 689.4475916402259, 633.042029594343 706.9155165492176 C614.322264169982 724.3834414582093, 593.468248891567 739.898712201857, 571.7487666414687 752.7781871431998 C550.0292843913704 765.6576620845426, 526.6053738263281 775.7961813779489, 502.72513609375324 784.1923661972739 C478.84489836117837 792.588551016599, 453.4041689738652 799.5544522564848, 428.4673402460194 803.1552960591499 C403.53051151817357 806.7561398618151, 378.1714702526313 807.8018555968132, 353.1041637266785 805.7974290132647 C328.0368572007257 803.7930024297162, 302.4581972020569 798.6348817904419, 278.06350109030245 791.1287365578592 C253.668804978548 783.6225913252764, 229.22317650030902 772.8482031104278, 206.73598705615186 760.760557617768 C184.2487976119947 748.6729121251082, 162.49716956256896 735.1399920447208, 143.14036442535942 718.6028636019005 C123.78355928814987 702.0657351590802, 106.55172359379497 681.7930650140898, 90.59515623289457 661.5377869608465 C74.63858887199416 641.2825089076031, 59.57727539245281 620.3333334224375, 47.400960259957 597.0711952824402 C35.224645127461194 573.8090571424428, 24.874572579261383 547.1679382354683, 17.5372654379197 521.9649581208625 C10.199958296578018 496.76197800625675, 6.062952126283998 472.20624489329003, 3.3771174119069087 445.8533145948054 C0.6912826975298194 419.50038429632076, -0.691648232618642 390.4675507839868, 1.4222571516571634 363.8473763299547 C3.5361625359329687 337.2272018759227, 8.57315225894278 311.1798811222806, 16.06054971756174 286.1322678706131 C23.547947176180703 261.08465461894554, 34.38908817320692 236.87460025590974, 46.34664190337094 213.56169681994945 C58.30419563353495 190.24879338398915, 72.153555846634 166.9817303234678, 87.80587209854582 146.25484725485126 C103.45818835045763 125.52796418623474, 120.94872509594276 105.93084131290188, 140.2605394148418 89.20039840825035 C159.5723537337408 72.46995550359883, 181.38196268814312 58.262157018122025, 203.67675801194 45.872189826942076 C225.97155333573687 33.48222263576213, 249.94523572028214 22.25211881407829, 274.0293113576231 14.860595261170658 C298.11338699496406 7.469071708263026, 322.89041512481026 3.55707943254752, 348.1812118359857 1.5230485094962773 C373.4720085471612 -0.5109824135549652, 400.6167729414742 -0.12191552664217875, 425.774091624676 2.656409722863202 C450.93141030787774 5.434734972368583, 479.5786224313944 12.580863767162754, 499.1251239351965 18.193000006528564 C518.6716254389986 23.805136245894374, 536.4360049958623 32.019440178714, 543.0531006474885 36.329227159058064 C549.6701962991147 40.63901413940213, 541.91071872106 37.76811917225296, 538.8276978449537 44.051721888592965" stroke="#000000" stroke-width="1" fill="none"></path></g><g transform="translate(334.3333333333335 272.91666666666663) rotate(0 45 13)"><text x="45" y="18" font-family="Virgil, Segoe UI Emoji" font-size="20px" fill="#000000" text-anchor="middle" style="white-space: pre;" direction="ltr">TOPIC X</text></g><g transform="translate(299.8333333333338 245.5833333333328) rotate(0 369.33333333333337 406.0000000000002)"><path d="M258.71887528429653 18.590087296387765 C278.7988134249452 4.627253246151184, 306.23841001926934 5.6143663524235965, 330.55233768820665 2.8815712406224065 C354.86626535714396 0.14877612882121616, 380.1514843299499 -0.21607281472878048, 404.6024412979204 2.1933166255806213 C429.0533982658909 4.602706065890024, 453.62374573307113 9.555642412610581, 477.25807949602967 17.337907882478817 C500.8924132589882 25.120173352347052, 524.7230781959182 36.04596506212109, 546.4084438756718 48.886909444790035 C568.0938095554253 61.72785382745898, 588.636970167166 76.93470872905363, 607.3702735745508 94.3835741784925 C626.1035769819355 111.83243962793136, 643.5959202586414 132.361119968599, 658.80826431998 153.58010214142323 C674.0206083813187 174.79908431424744, 687.7870625075304 197.84332923559344, 698.6443379425826 221.6974672154378 C709.5016133776348 245.55160519528215, 717.5873155850937 270.8852460244573, 723.9519169302929 296.7049300204894 C730.3165182754921 322.5246140165216, 734.7792438359318 349.9341360572108, 736.8319460137775 376.61557119163075 C738.8846481916232 403.2970063260507, 739.080173482582 430.3514271711447, 736.2681299973676 456.79354082700905 C733.4560865121532 483.23565448287343, 727.9825739382725 509.7254301750918, 719.959685102491 535.2682531268172 C711.9367962667095 560.8110760785426, 700.5712600652694 586.5209857059589, 688.1307969826787 610.0504785373613 C675.690333900088 633.5799713687637, 661.3172280344891 656.3942383137917, 645.316906606947 676.4452101152315 C629.3165851794049 696.4961819166713, 611.5155350576424 714.500800336951, 592.1288684174265 730.3563093460004 C572.7422017772105 746.2118183550499, 551.0355345859178 760.1258314886823, 528.9969067656516 771.5782641695281 C506.9582789453853 783.0306968503739, 483.71928102246574 792.2983483031953, 459.8971014958288 799.0709054310757 C436.07492196919185 805.8434625589562, 410.7646549475478 810.7193725597833, 386.0638296058298 812.2136069368104 C361.36300426411185 813.7078413138374, 335.76370194399954 812.334304484991, 311.69214944552084 808.0363116932383 C287.62059694704215 803.7383189014856, 264.40046774964287 795.8808006480577, 241.6345146149577 786.4256501862947 C218.86856148027258 776.9704997245316, 195.8128981393272 765.4110790576875, 175.09643063741 751.30540892266 C154.37996313549283 737.1997387876326, 135.2901422706319 720.1219261564304, 117.33570960345466 701.7916293761298 C99.38127693627743 683.4613325958292, 81.64318241713902 663.1600349333794, 67.36983463434666 641.3236282408566 C53.0964868515543 619.4872215483338, 41.58644768089297 595.4046195508367, 31.69562290670052 570.773189220993 C21.804798132508076 546.1417588911493, 13.134298325736172 519.8968238817064, 8.024885989192 493.5350462617941 C2.9154736526478287 467.17326864188186, 1.3490082408893045 439.586233111851, 1.0391488874354877 412.6025235015195 C0.729289533981671 385.618813891188, 1.7761493340552477 358.0654441975068, 6.1657298684691 331.63278859980494 C10.555310402882952 305.2001330021031, 18.23578886573202 278.96412671921894, 27.3766320939186 254.00658991530838 C36.517475322105184 229.04905311139785, 47.637015118426916 204.34095825274065, 61.0107892375886 181.8875677763417 C74.38456335675028 159.43417729994277, 90.4823773620351 138.41190305945963, 107.61927680888869 119.28624705691482 C124.75617625574228 100.16059105436999, 143.39456652630025 81.95318297699039, 163.83218591871017 67.13363176107276 C184.26980531112008 52.31408054515514, 212.63107373683977 39.0063565100254, 230.24499316334823 30.36893976140908 C247.8589125898567 21.731523012792763, 261.34740192309266 17.049309070365126, 269.51570247776095 15.30913126937486 C277.68400303242925 13.568953468384592, 277.8833368437759 13.36869387163578, 279.25479649135787 19.92787295546748 M418.6544851650815 4.078207858360713 C442.1064374335386 0.8330947403416928, 466.0669659364923 14.849005752040446, 488.89750836204746 23.371642861392957 C511.7280507876026 31.894279970745465, 534.583520505399 41.770082767124286, 555.6377397184124 55.21403051447578 C576.6919589314258 68.65797826182727, 596.8251876456005 85.65949851499761, 615.2228236401281 104.0353293455019 C633.6204596346557 122.4111601760062, 651.1757720084355 144.11709378051358, 666.0235556855781 165.46901549750157 C680.8713393627207 186.82093721448956, 693.7952608477947 208.30622928444402, 704.3095257029838 232.14685964742984 C714.823790558173 255.98749001041566, 723.485579487083 282.261923391936, 729.1091448167132 308.51279767541655 C734.7327101463434 334.7636719588971, 737.0385137116107 362.7156587027604, 738.050917680765 389.6521053483131 C739.0633216499193 416.58855199386585, 739.0631427680902 443.43263208529595, 735.183568631639 470.1314775487329 C731.3039944951878 496.83032301216986, 723.79094297805 524.5567269525583, 714.773472862058 549.8451781289348 C705.7560027460661 575.1336293053113, 693.8576116049315 598.9581789140102, 681.0787479356869 621.8621846069918 C668.2998842664423 644.7661902999735, 654.5615881112287 667.5787986291552, 638.1002908465903 687.2692122868243 C621.6389935819518 706.9596259444934, 602.6001783495376 724.7697130133031, 582.3109643478562 740.0046665530062 C562.0217503461747 755.2396200927094, 538.785079560803 768.1168840248666, 516.3650068365016 778.6789335250436 C493.94493411220026 789.2409830252205, 471.73992475276236 797.7501512212408, 447.7905280020479 803.3769635540682 C423.8411312513334 809.0037758868956, 397.58318140380607 812.1322007056659, 372.66862633221496 812.4398075220081 C347.75407126062385 812.7474143383503, 322.1003229409697 810.3246628472227, 298.3031975725014 805.222604452121 C274.5060722040331 800.1205460570193, 252.4096188279629 792.22945237673, 229.88587412140498 781.8274571513978 C207.36212941484706 771.4254619260655, 183.62614334235127 757.8044508385582, 163.1607293331538 742.8106331001277 C142.69531532395632 727.8168153616972, 124.02867409084368 710.7536536136306, 107.09339006622008 691.8645507208148 C90.15810604159648 672.975447827999, 74.73403618055893 651.6929210949164, 61.54902518541223 629.4760157432328 C48.36401419026554 607.2591103915491, 37.3831513191383 583.7934455602931, 27.983324095339924 558.563118610713 C18.58349687154155 533.3327916611329, 9.842584776367943 504.9059331244284, 5.150061842621994 478.09405404575193 C0.457538908876046 451.2821749670755, -0.5752343157978619 424.16926848867206, -0.17181350713576649 397.69184413865446 C0.23160730152632897 371.21441978863686, 2.1293121810123807 345.1080484342756, 7.570586694594567 319.22950794564633 C13.011861208176754 293.3509674570171, 22.407052060334287 267.2238134885807, 32.47583357435735 242.4206012068789 C42.54461508838042 217.61738892517712, 53.94742536478022 192.58505826713622, 67.98327577873295 170.41023425543568 C82.01912619268566 148.23541024373515, 98.9890237974496 127.92114965390606, 116.69093605807367 109.37165713667576 C134.39284831869776 90.82216461944547, 153.15210002105835 73.2251262881714, 174.19474934247737 59.113279152053906 C195.23739866389639 45.001432015936416, 219.79100460495056 33.86999898345849, 242.9468319865877 24.700574319970826 C266.10265936822486 15.531149656483166, 289.36371443570624 8.242633808420646, 313.1297136323003 4.096731171127942 C336.8957128288944 -0.049171466164760425, 368.24837833987783 -0.13660423387389642, 385.5428271661523 -0.17484150378538743 C402.8372759924267 -0.21307877369687844, 411.51757671072926 1.6711044439488396, 416.8964065899471 3.867307551658996 C422.27523646916495 6.063510659369152, 418.38862046896804 6.320934643306818, 417.8158064414593 13.002377142475552" stroke="#000000" stroke-width="1" fill="none"></path></g><g transform="translate(638.0000000000001 263.91666666666674) rotate(0 44 13)"><text x="44" y="18" font-family="Virgil, Segoe UI Emoji" font-size="20px" fill="#000000" text-anchor="middle" style="white-space: pre;" direction="ltr">TOPIC Y</text></g><g transform="translate(470.8333333333337 819.25) rotate(0 67 10.5)"><text x="67" y="15" font-family="Virgil, Segoe UI Emoji" font-size="16px" fill="#1864ab" text-anchor="middle" style="white-space: pre;" direction="ltr">wrap transaction</text></g><g><g transform="translate(300.6744988055949 527.7899328135961) rotate(0 88.55545865431375 66.92667068139986)"><path d="M0.794693762809038 -0.9373754449188709 C30.13739360714003 21.22117868161096, 146.03305892169695 110.85905136048267, 175.09249689469004 133.28381413569414 M-0.2472307410556822 1.1848985011596231 C29.55738785755492 23.513640458912466, 147.7119091107253 112.47652594592826, 177.35814804968317 134.79071680771858" stroke="#000000" stroke-width="1" fill="none"></path></g><g transform="translate(300.6744988055949 527.7899328135961) rotate(0 88.55545865431375 66.92667068139986)"><path d="M147.1022854436163 124.61722439099192 C154.89567630243891 126.44900671986393, 161.74505448773283 131.20824892788164, 177.23198533070166 136.79010885151774 M148.84170080795624 125.93627644460737 C158.14814733012543 130.12907250640694, 167.33300817132627 132.8359101306556, 176.6253068615951 133.81372660900206" stroke="#000000" stroke-width="1" fill="none"></path></g><g transform="translate(300.6744988055949 527.7899328135961) rotate(0 88.55545865431375 66.92667068139986)"><path d="M159.44397580067817 108.22202138778866 C164.57142929213217 113.73742242611365, 168.70944318652104 122.0985511406737, 177.23198533070166 136.79010885151774 M161.18339116501812 109.54107344140411 C166.52153915109284 119.08391740658384, 171.6007230422489 127.24490313486757, 176.6253068615951 133.81372660900206" stroke="#000000" stroke-width="1" fill="none"></path></g></g><g transform="translate(198.3333333333337 486.2499999999998) rotate(0 48 21)"><text x="48" y="15" font-family="Virgil, Segoe UI Emoji" font-size="16px" fill="#000000" text-anchor="middle" style="white-space: pre;" direction="ltr">Intent </text><text x="48" y="36" font-family="Virgil, Segoe UI Emoji" font-size="16px" fill="#000000" text-anchor="middle" style="white-space: pre;" direction="ltr">broadcaster</text></g><g transform="translate(70.50000000000045 663.9166666666663) rotate(0 117.33333333333331 154.83333333333337)"><path d="M117.04104472324252 -1.730164360255003 C162.1831561956244 62.02765803349516, 207.20264781288176 123.02593014234057, 236.57594685877356 153.86415319517255 M117.74647667445242 0.1755524929612875 C151.54996980506303 43.73338007554412, 182.83867857695242 86.29938640538603, 235.4769094033787 154.22714382968843 M234.2493296178678 153.72331743314862 C207.44953206496928 192.9684622845923, 177.86823299407953 230.82127724606545, 119.75571943446994 307.9994879650573 M235.0678837342808 154.14907080493867 C202.01767038548982 198.6734787972644, 169.02192505878702 242.35427383401742, 117.42954649962485 309.30575005772215 M119.6688788048923 308.11545762295526 C81.25001966528593 258.65859140526504, 40.37598806232212 208.7912188437705, -0.4197720177471638 156.18493132665753 M117.72948994673789 309.87588565113646 C70.64211471666891 249.01103845840944, 26.048172354226296 187.41762178844465, -0.6379077788442373 154.55360740981996 M-0.8869532234966755 156.88094859197736 C38.25686315512284 107.23739338494838, 78.37603272376582 57.3767816304788, 117.48912907764316 -0.2502930872142315 M0.6732508782297373 155.49314302764833 C24.45788039462641 122.67285322844981, 47.76041310960427 92.10775816421955, 117.93460109271109 -0.8706537429243326" stroke="#000000" stroke-width="1" fill="none"></path></g><g transform="translate(134.8333333333337 721.7499999999993) rotate(0 48 21)"><text x="48" y="15" font-family="Virgil, Segoe UI Emoji" font-size="16px" fill="#000000" text-anchor="middle" style="white-space: pre;" direction="ltr">Intent </text><text x="48" y="36" font-family="Virgil, Segoe UI Emoji" font-size="16px" fill="#000000" text-anchor="middle" style="white-space: pre;" direction="ltr">broadcaster</text></g><g transform="translate(256.8333333333337 633.75) rotate(0 6.5 10.5)"><text x="6.5" y="15" font-family="Virgil, Segoe UI Emoji" font-size="16px" fill="#000000" text-anchor="middle" style="white-space: pre;" direction="ltr">...</text></g><g transform="translate(240.3333333333337 635.25) rotate(0 22.5 12)"><path d="M0.0016461722552776337 -0.5376190654933453 C17.02452236507088 0.47210341570898895, 30.873215666040778 0.24101894972845916, 44.32609273120761 1.8222281225025654 M-0.4724953528493643 0.1768226083368063 C14.644954998977484 0.7670332879759372, 29.53287692368031 -0.36082409908995033, 45.24728992022574 0.9317392166703939 M43.23638344928622 0.4654804952442646 C46.336017001271244 6.1210586182773135, 44.677283275723454 12.546339652687315, 45.22075356170535 23.995177078992132 M44.87825753726065 -0.6304188910871744 C43.891882080063226 6.702181918546558, 45.043826419338586 12.43871911428869, 44.76689084805548 23.588126486167315 M46.32296932861209 25.052461434155706 C28.824626109562814 22.98072571428493, 13.030762108042833 25.63049299390987, -1.9703590758144855 24.797051358968023 M45.60731586255133 23.74400121532381 C35.633830218575895 24.75645535802469, 25.485625717788935 24.07568430518732, -0.9161964412778616 24.281583076342944 M-1.4525854475796223 22.247859884053472 C-1.7837725731730463 16.768444146960977, -1.1784605833888055 7.871475461870434, -1.0432656891644 0.5219183452427387 M-0.23594293557107449 24.7985570486635 C-1.0104197341948749 14.10240559987724, 0.24015360288321969 5.503427841886879, 0.31967111863195896 0.8445674832910299" stroke="#000000" stroke-width="1" fill="none"></path></g><g><g transform="translate(226.96731804957017 793.0277417215675) rotate(0 12.426582963420856 -62.193063455443394)"><path d="M0.8614119820296764 -1.1822154454886913 C5.149261943584869 -21.959818128893946, 21.108874999911535 -104.61036384080934, 24.998651383585866 -125.19764441117749 M-0.14548545674420899 0.8115175002906474 C4.089927646097356 -19.795692148596846, 20.39973150732276 -103.40589459348868, 24.301677098033586 -124.14338230519661" stroke="#000000" stroke-width="1" fill="none"></path></g><g transform="translate(226.96731804957017 793.0277417215675) rotate(0 12.426582963420856 -62.193063455443394)"><path d="M27.082911638458114 -93.72501500472936 C26.513710421978622 -102.11013597397006, 26.19624913452903 -107.4498485759985, 23.789679528681198 -122.7780525143362 M28.137074272994738 -94.24048328735444 C27.315890469223163 -105.16301666822352, 26.0177308635458 -118.44345660408396, 23.42560704006032 -124.9211507327027" stroke="#000000" stroke-width="1" fill="none"></path></g><g transform="translate(226.96731804957017 793.0277417215675) rotate(0 12.426582963420856 -62.193063455443394)"><path d="M6.931035038092535 -97.60082096858741 C11.166912982618753 -105.20313609818972, 15.671714510339289 -109.61538396088028, 23.789679528681198 -122.7780525143362 M7.985197672629159 -98.11628925121249 C15.080448482528048 -107.56824287167461, 21.676116105353156 -119.33046476478762, 23.42560704006032 -124.9211507327027" stroke="#000000" stroke-width="1" fill="none"></path></g></g><g><g transform="translate(256.27063554883466 632.25) rotate(0 -2.0855538656905424 -30.425140814737915)"><path d="M-0.23082474991679192 1.0584967665374279 C-0.7594982974392035 -9.137145710270397, -3.0268564575224413 -49.962211178147754, -3.5683817201327432 -60.12299266252394 M-1.8111464729625733 0.5686036236304788 C-2.367137487518848 -9.458490044781485, -3.638287795536522 -51.51432845585752, -3.9402829814642564 -61.90877839601326" stroke="#000000" stroke-width="1" fill="none"></path></g><g transform="translate(256.27063554883466 632.25) rotate(0 -2.0855538656905424 -30.425140814737915)"><path d="M8.929465699517387 -32.2110224725852 C5.02554752811435 -39.525201592640656, 2.4220049569608824 -49.00196719258287, -3.5272997539430753 -62.795402721080066 M8.15355432549979 -34.22895767597353 C2.4516310183738144 -44.812767283070336, -0.32303381731445757 -56.203024154183325, -4.6899009697079554 -62.71868890761125" stroke="#000000" stroke-width="1" fill="none"></path></g><g transform="translate(256.27063554883466 632.25) rotate(0 -2.0855538656905424 -30.425140814737915)"><path d="M-11.582420412734365 -31.59253196833054 C-10.015663141583477 -39.032375081852656, -7.143114034425162 -48.674260100113045, -3.5272997539430753 -62.795402721080066 M-12.358331786751961 -33.610467171718874 C-10.09841207637438 -44.6141104985895, -4.917331944003408 -56.24425524203605, -4.6899009697079554 -62.71868890761125" stroke="#000000" stroke-width="1" fill="none"></path></g></g><g transform="translate(174.39016309887916 808.9789755351683) rotate(0 35.64908256880733 28.087155963302735)"><text x="0" y="12.72477064220184" font-family="Virgil, Segoe UI Emoji" font-size="14.403669724770648px" fill="#000000" text-anchor="start" style="white-space: pre;" direction="ltr">gossipsub </text><text x="0" y="31.44954128440368" font-family="Virgil, Segoe UI Emoji" font-size="14.403669724770648px" fill="#000000" text-anchor="start" style="white-space: pre;" direction="ltr">Intent</text><text x="0" y="50.17431192660552" font-family="Virgil, Segoe UI Emoji" font-size="14.403669724770648px" fill="#000000" text-anchor="start" style="white-space: pre;" direction="ltr">mempool</text></g><g transform="translate(163.3333333333337 803.3467125382265) rotate(0 43 30.5)"><path d="M1.1296370141208172 0.7083086259663105 C27.436123459413647 -1.5200652037188411, 56.959174083173274 -1.1255965385958553, 87.01522935554385 -1.863778542727232 M-0.26153979264199734 -0.7873306218534708 C33.21119777038694 -0.8520152167603373, 64.6838380586356 0.6830283208563924, 85.87515183724463 -0.5456643644720316 M84.23457158729434 1.0050902850925922 C86.72153532771394 20.28225056473166, 86.54155755309388 40.311413560435184, 86.27630330249667 62.4367148168385 M86.4446112755686 -0.16911702789366245 C86.6872581394948 16.27749166283757, 86.68225248182192 33.91520714983345, 86.45809772051871 61.835067158564925 M85.12018777057528 59.5838734395802 C62.42422662340104 58.92576485645026, 42.1125542640686 58.79214972030371, 1.8374680392444134 61.419722367078066 M85.02851846255362 60.61470592580736 C57.87070537805557 60.79679648604244, 31.560573339089743 61.637691006325184, -0.42195955477654934 60.59033138118684 M-1.7517224438488483 59.60591297224164 C-2.5815062504820525 38.079953928850585, 0.4154034871049225 14.204679242148991, 0.20348430797457695 -1.608969759196043 M0.6704185847193003 60.77550298534334 C-1.0641356862522662 38.97918820511549, -0.9874801195599139 16.5867487758398, -0.07501754723489285 0.8279774244874716" stroke="#000000" stroke-width="1" fill="none"></path></g><g transform="translate(130.3333333333337 1184.25) rotate(0 63 69)"><path d="M64.07833160087466 1.1447058208286762 C77.26377959083766 12.556176404021683, 90.75639734808357 28.914407402761285, 124.12349654361606 69.30165689066052 M64.37056680954993 -0.3695362154394388 C76.94117142390459 15.426389854662123, 89.7401091368869 30.855689009912314, 126.783093476668 70.70521224103868 M124.24020816013217 71.08809773996472 C111.65102454975246 84.38947130840272, 97.5639494165033 101.37699402745812, 65.39305056259036 137.94370679929852 M126.03057720698416 69.99235833249986 C110.46068604119122 85.3921036535129, 96.75394456624984 102.43619397442788, 63.07166870869696 138.52023751102388 M65.4165309779346 139.3668358810246 C41.382261343225835 116.81132539689543, 19.911325772032136 92.65579952403904, -1.3699462302029133 69.32552187517285 M64.32743796147406 137.75783831439912 C51.248050447106365 123.07551638580858, 37.83035058557987 109.27493159048258, 0.34578814543783665 69.53956842981279 M0.15893579646945 69.9898313768208 C23.596903253905477 43.94002057962119, 45.50599843394012 19.69586089044808, 63.804110657423735 0.2255445010960102 M-0.9472859855741262 69.5581903513521 C16.06621060501784 52.86443411692977, 34.41830756794661 33.39762403018773, 63.219282353296876 -0.021524006500840187" stroke="#000000" stroke-width="1" fill="none"></path></g><g transform="translate(167.8333333333337 1242.75) rotate(0 22.5 10.5)"><text x="22.5" y="15" font-family="Virgil, Segoe UI Emoji" font-size="16px" fill="#000000" text-anchor="middle" style="white-space: pre;" direction="ltr">Client</text></g><g><g transform="translate(194.24202726346925 1180.0445730837976) rotate(0 3.448138295591775 -152.8412412056225)"><path d="M-0.5071284480392932 0.4026846952736378 C0.7942202043138953 -50.43815346936045, 6.027815511625515 -254.92561785179663, 7.403405039222844 -306.0851671065186 M1.4274903874006122 -0.43150978504680104 C2.640608838449842 -51.0023950930806, 5.67171501139018 -253.83286471160602, 6.661645491324298 -304.7003037172259" stroke="#000000" stroke-width="1" fill="none"></path></g><g transform="translate(194.24202726346925 1180.0445730837976) rotate(0 3.448138295591775 -152.8412412056225)"><path d="M17.11211648052663 -275.6841036349936 C13.59848099000974 -282.7057015850787, 10.212073032290661 -289.7878505187055, 6.805514306478135 -304.0087274263502 M16.45174948154122 -276.259511659707 C13.80837978765776 -282.96597195786626, 10.580258615967086 -290.4385382921448, 6.066752119637958 -304.798248388514" stroke="#000000" stroke-width="1" fill="none"></path></g><g transform="translate(194.24202726346925 1180.0445730837976) rotate(0 3.448138295591775 -152.8412412056225)"><path d="M-3.406119839762181 -276.0333609765347 C-1.4592668110473395 -282.8752485348176, 0.6178410494167927 -289.8643985878223, 6.805514306478135 -304.0087274263502 M-4.066486838747591 -276.6087690012481 C-1.4973369192557078 -283.2272981675136, 0.48528842849797815 -290.6111682099463, 6.066752119637958 -304.798248388514" stroke="#000000" stroke-width="1" fill="none"></path></g></g><g transform="translate(222.3333333333337 1138.75) rotate(0 43 10.5)"><text x="43" y="15" font-family="Virgil, Segoe UI Emoji" font-size="16px" fill="#000000" text-anchor="middle" style="white-space: pre;" direction="ltr">send intent</text></g><g transform="translate(158.8333333333337 898.75) rotate(0 14.5 10.5)"><text x="14.5" y="15" font-family="Virgil, Segoe UI Emoji" font-size="16px" fill="#000000" text-anchor="middle" style="white-space: pre;" direction="ltr">add</text></g><g transform="translate(347.50000000000034 426.9166666666663) rotate(0 67.83333333333337 59.33333333333337)"><path d="M66.71396808698773 1.9535269849002361 C85.14582092507433 16.23466681499655, 107.20485669722163 31.062717819555353, 135.7846485065918 59.10139502212405 M68.30796224437654 -0.3545017000287771 C86.67713457935803 16.442181703181316, 105.76209899472698 32.101703845442586, 134.72742073299992 59.65953596867621 M134.17100390667724 58.86291254684329 C118.41617134708915 74.94128727163502, 103.12760813924176 89.21454270825416, 67.57063202932477 120.64535420263816 M136.47974626782047 60.16542729176581 C110.15021586536123 80.7176480518468, 86.6980725032588 101.28300338751953, 68.69539374671876 118.01821452813853 M67.2362537868321 119.87321083868552 C45.41339317421119 96.49768559344119, 20.792411895940702 75.53130006102226, -0.07606394216418266 60.317447792738676 M67.74875993095338 119.05729371743907 C48.6163139436394 103.4485794611276, 30.490613317117095 86.11368194793666, 0.09647286497056484 60.8416649941355 M0.28581636026501656 60.641526352614164 C19.776232171431186 41.63945544011891, 40.18944856189192 25.219966499730944, 66.07352380827069 -0.9322509653866291 M0.8751961048692465 60.591178143396974 C18.469401597976688 43.23666747644543, 35.918217048794034 27.41844367593526, 68.23316866718233 -0.7152664419263601" stroke="#000000" stroke-width="1" fill="none"></path></g><g transform="translate(368.8333333333336 453.7499999999993) rotate(0 48 21)"><text x="48" y="15" font-family="Virgil, Segoe UI Emoji" font-size="16px" fill="#000000" text-anchor="middle" style="white-space: pre;" direction="ltr">Intent </text><text x="48" y="36" font-family="Virgil, Segoe UI Emoji" font-size="16px" fill="#000000" text-anchor="middle" style="white-space: pre;" direction="ltr">broadcaster</text></g><g><g transform="translate(423.6124060948256 541.475689032409) rotate(0 24.650928437564005 42.1458305833512)"><path d="M0.7094137720763682 0.9121918983757495 C8.841724743796032 14.456974453054523, 41.492973497274726 68.73302032213735, 49.67913960205103 82.31893065391573 M-0.3772827269230039 0.3454886996839197 C7.48586906934109 14.627712838532558, 40.31015998041017 70.02174775329496, 48.529035548723215 83.94617246701847" stroke="#000000" stroke-width="1" fill="none"></path></g><g transform="translate(423.6124060948256 541.475689032409) rotate(0 24.650928437564005 42.1458305833512)"><path d="M26.875467217065477 64.25292124038563 C34.46878929699598 71.48241678895492, 43.3117640858271 77.56893159350435, 47.276199094063514 84.27766958862077 M25.320292819760823 64.42958894742654 C34.368866241878976 72.41056032996545, 43.96511702955064 79.71192406897148, 48.940807228020304 84.57690381682943" stroke="#000000" stroke-width="1" fill="none"></path></g><g transform="translate(423.6124060948256 541.475689032409) rotate(0 24.650928437564005 42.1458305833512)"><path d="M44.543385143776604 53.814306460596164 C45.624278167178005 65.04992130209271, 47.863465549525 75.03810653039335, 47.276199094063514 84.27766958862077 M42.98821074647195 53.99097416763707 C45.172461092597075 66.11314028578933, 47.96872173438612 77.43209556748181, 48.940807228020304 84.57690381682943" stroke="#000000" stroke-width="1" fill="none"></path></g></g><g transform="translate(174.50000000000034 451.91666666666674) rotate(0 67.83333333333337 59.33333333333337)"><path d="M69.04635839536786 0.7661028020083904 C85.31612429364276 15.495695240690063, 101.0642547761401 27.509932558878017, 135.93657311672973 60.654250990599394 M67.47576290927827 0.5513937715440989 C93.48261333499107 22.61002883506939, 117.515419863537 43.84990519104525, 136.35544936421024 60.22959312237799 M137.24858769650268 60.91003121063113 C110.92199043093873 79.9493116883996, 86.46383502535522 101.28788860227299, 66.81980090215802 117.27601473654319 M136.31389062168705 60.14753278531134 C115.90453193305687 76.60015525447207, 96.02725280746822 95.41047302809238, 67.45045942626894 117.79363209443797 M66.45405058935285 118.14266531790305 C51.465287934343024 100.24965880600122, 29.3669706308345 85.28041314072911, -1.7565062753856182 59.68558086082339 M67.7197069581598 118.64124399858225 C53.0031890549014 104.25643948589769, 36.249547964359316 91.10908787623053, -0.9650279227644205 59.137140238657594 M0.491970706731081 59.91798461601138 C28.111961627379063 36.96967658765614, 53.67199951671064 13.160372793599961, 69.38973980024457 0.1298976056277752 M0.6018422897905111 59.52917047776282 C15.37968602180481 46.78585649088025, 29.86975370422006 34.81382266610861, 68.30993539653718 0.8915262464433908" stroke="#000000" stroke-width="1" fill="none"></path></g><g transform="translate(439.3333333333337 10) rotate(0 63 69)"><path d="M64.63563149049878 -1.432322133332491 C85.78824660051615 25.499251693822444, 106.47003237362952 47.440626571290196, 127.57424073293805 68.17441965267062 M64.81548667512834 0.3572951201349497 C88.31375784743578 27.2292590783909, 109.89839399438353 52.26821684371681, 126.66594046913087 69.61238541640341 M126.15978436544538 70.95110441371799 C109.24836296007038 86.59379367250949, 97.09107587613165 105.31340280417353, 64.9150935895741 138.4826623313129 M125.58747071586549 70.79892554320395 C113.29398286573588 85.63589470628648, 97.18259065866471 100.2981311680749, 63.493167048320174 138.66658946312964 M62.3843957670033 139.16806901618838 C38.96988432027399 111.62732264578342, 14.280571897998449 84.76504428938031, -0.3149573318660259 70.69463349506259 M63.546304350718856 137.65731354989111 C49.219867901206015 121.76224120996893, 33.17720780789852 106.56803105242551, 0.4271040614694357 70.74015119113028 M1.6738455779850483 68.1998949162662 C17.854276599176227 50.04318613715469, 37.998247863538566 30.55712643235921, 62.89299910143018 -0.040374863892793655 M0.17678982578217983 69.82168033160269 C16.55255462098867 51.21609812155366, 32.0802256481722 33.81985777728259, 64.59903812967241 0.16955741681158543" stroke="#000000" stroke-width="1" fill="none"></path></g><g transform="translate(476.8333333333337 68.5) rotate(0 22.5 10.5)"><text x="22.5" y="15" font-family="Virgil, Segoe UI Emoji" font-size="16px" fill="#000000" text-anchor="middle" style="white-space: pre;" direction="ltr">Client</text></g><g transform="translate(491.3333333333337 194.5) rotate(0 43 10.5)"><text x="43" y="15" font-family="Virgil, Segoe UI Emoji" font-size="16px" fill="#000000" text-anchor="middle" style="white-space: pre;" direction="ltr">send intent</text></g><g><g transform="translate(503.3333333333337 152.25) rotate(0 -42.53823449781629 137.05380856482776)"><path d="M-0.1288103275001049 0.5966812424361705 C-14.132616322487593 46.14416386807959, -70.06690213009715 228.50061141376693, -83.99974636361003 274.2432821802795 M-1.6555744787771256 -0.13566505062393852 C-15.819399909945206 44.94361370168315, -71.16564461735078 226.682009194217, -84.9476586681325 272.2484305761475" stroke="#000000" stroke-width="1" fill="none"></path></g><g transform="translate(503.3333333333337 152.25) rotate(0 -42.53823449781629 137.05380856482776)"><path d="M-85.57560465133362 242.29275591955246 C-85.4355109529746 251.79541726582, -83.59662535831136 260.3224715716251, -83.30609603864141 272.11811874059026 M-85.72372110395305 242.56347152688267 C-85.83584826938515 254.46999075080151, -85.43717583159575 264.7686776674235, -84.29335785363801 272.00304703970437" stroke="#000000" stroke-width="1" fill="none"></path></g><g transform="translate(503.3333333333337 152.25) rotate(0 -42.53823449781629 137.05380856482776)"><path d="M-65.94062347894317 248.2582832848163 C-71.77644846818468 255.93873137868366, -75.86583755734449 262.66464900171593, -83.30609603864141 272.11811874059026 M-66.0887399315626 248.5289988921465 C-73.7753389221712 258.04117433491814, -80.95320274553855 266.0379474374643, -84.29335785363801 272.00304703970437" stroke="#000000" stroke-width="1" fill="none"></path></g></g></svg>