<svg version="1.1" xmlns="http://www.w3.org/2000/svg" viewBox="0 0 1242.7388535170376 1221.25" width="1242.7388535170376" height="1221.25">
  <!-- svg-source:excalidraw -->
  
  <defs>
    <style>
      @font-face {
        font-family: "Virgil";
        src: url("https://excalidraw.com/Virgil.woff2");
      }
      @font-face {
        font-family: "Cascadia";
        src: url("https://excalidraw.com/Cascadia.woff2");
      }
    </style>
  </defs>
  <rect x="0" y="0" width="1242.7388535170376" height="1221.25" fill="#ffffff"></rect><g stroke-linecap="round" transform="translate(379.20771268219966 21) rotate(0 71.5 31.5)"><path d="M50.18 0.92 C60.79 -0.91, 75.03 0.04, 86.8 1.38 C98.57 2.73, 111.87 5.34, 120.82 8.99 C129.78 12.65, 137.05 18.27, 140.53 23.29 C144.01 28.3, 144.79 34.11, 141.7 39.11 C138.62 44.12, 130.46 49.42, 122.02 53.33 C113.58 57.24, 102.43 61.13, 91.07 62.59 C79.71 64.05, 65.64 63.39, 53.85 62.06 C42.06 60.74, 29.06 58.56, 20.32 54.64 C11.59 50.72, 4.39 43.77, 1.44 38.56 C-1.51 33.35, -0.67 28.38, 2.65 23.36 C5.97 18.34, 11.67 12.35, 21.38 8.42 C31.09 4.49, 52.31 1.1, 60.91 -0.21 C69.51 -1.52, 72.84 0.08, 72.98 0.56 M99.52 2.43 C110.55 4.39, 121.86 9.97, 129.12 14.42 C136.39 18.86, 142.14 23.97, 143.14 29.12 C144.13 34.28, 140.49 40.61, 135.08 45.35 C129.68 50.08, 120.24 54.61, 110.71 57.54 C101.18 60.46, 89.73 62.37, 77.9 62.89 C66.06 63.41, 50.66 62.91, 39.7 60.66 C28.74 58.42, 18.54 53.83, 12.12 49.41 C5.71 44.99, 1.67 39.66, 1.21 34.15 C0.74 28.65, 4.16 21.03, 9.33 16.39 C14.5 11.74, 22.45 8.95, 32.2 6.27 C41.96 3.58, 56.63 1.05, 67.85 0.27 C79.08 -0.52, 94.42 0.95, 99.55 1.56 C104.67 2.16, 99.02 3.4, 98.6 3.92" stroke="#000000" stroke-width="1" fill="none"></path></g><g transform="translate(406.20771268219966 37) rotate(0 43 13)"><text x="0" y="18" font-family="Virgil, Segoe UI Emoji" font-size="20px" fill="#000000" text-anchor="start" style="white-space: pre;" direction="ltr">Intent A</text></g><g stroke-linecap="round" transform="translate(610.7077126821996 126.5) rotate(0 71.5 31.5)"><path d="M69.61 -0.56 C80.91 -1.16, 93.89 0.98, 104.41 3.5 C114.92 6.02, 126.41 9.94, 132.7 14.53 C139 19.13, 142.08 25.82, 142.18 31.07 C142.29 36.31, 139.05 41.56, 133.31 46.02 C127.57 50.47, 117.92 55.07, 107.73 57.8 C97.54 60.53, 84.11 62.34, 72.16 62.41 C60.22 62.49, 46.51 60.76, 36.04 58.25 C25.57 55.74, 15.43 51.9, 9.36 47.34 C3.28 42.78, -0.57 36.22, -0.42 30.9 C-0.27 25.57, 3.86 20, 10.24 15.37 C16.61 10.75, 26.33 5.64, 37.84 3.15 C49.34 0.67, 70.49 0.6, 79.25 0.46 C88.01 0.32, 90.52 1.91, 90.39 2.3 M39.7 4.18 C49.26 1.6, 63.46 -0.75, 75.16 -0.57 C86.87 -0.39, 99.98 1.98, 109.94 5.28 C119.91 8.57, 129.73 14.64, 134.96 19.22 C140.19 23.79, 141.97 27.92, 141.32 32.73 C140.68 37.55, 137.79 43.39, 131.06 48.11 C124.33 52.82, 111.89 58.6, 100.96 61.03 C90.02 63.46, 77.47 63.2, 65.47 62.67 C53.47 62.14, 38.74 60.78, 28.94 57.86 C19.13 54.95, 11.54 50.17, 6.64 45.18 C1.74 40.19, -1.58 33.11, -0.45 27.9 C0.67 22.69, 6.69 18.09, 13.38 13.93 C20.07 9.77, 35.27 4.79, 39.69 2.94 C44.11 1.08, 39.43 2.06, 39.92 2.8" stroke="#000000" stroke-width="1" fill="none"></path></g><g transform="translate(637.7077126821996 142.5) rotate(0 44 13)"><text x="0" y="18" font-family="Virgil, Segoe UI Emoji" font-size="20px" fill="#000000" text-anchor="start" style="white-space: pre;" direction="ltr">Intent B</text></g><g stroke-linecap="round" transform="translate(503.70771268219966 301.5) rotate(0 71.5 31.5)"><path d="M99.98 2.34 C111.08 3.91, 122.04 8.71, 129.27 13.08 C136.5 17.45, 142.06 23.29, 143.34 28.56 C144.62 33.84, 141.92 39.87, 136.96 44.74 C131.99 49.62, 123.32 54.72, 113.56 57.82 C103.81 60.93, 90.45 62.98, 78.44 63.37 C66.44 63.77, 52.54 62.65, 41.52 60.21 C30.51 57.76, 19.29 53.16, 12.34 48.71 C5.4 44.27, 0.6 38.88, -0.13 33.57 C-0.87 28.25, 2.42 21.47, 7.92 16.81 C13.42 12.15, 22.9 8.25, 32.86 5.6 C42.82 2.96, 55.48 1.21, 67.69 0.93 C79.9 0.64, 98.72 2.91, 106.13 3.9 C113.54 4.89, 112.78 6.29, 112.13 6.87 M90.02 1.15 C101.5 2.16, 115.29 5.43, 123.71 9.04 C132.13 12.65, 137.83 17.43, 140.53 22.78 C143.24 28.13, 143.52 35.95, 139.96 41.16 C136.4 46.37, 127.86 50.48, 119.19 54.03 C110.52 57.57, 99.42 61.26, 87.94 62.43 C76.46 63.6, 62.11 62.84, 50.33 61.06 C38.55 59.27, 25.33 55.78, 17.26 51.71 C9.18 47.64, 3.9 41.63, 1.9 36.64 C-0.09 31.65, 1.38 26.38, 5.28 21.76 C9.18 17.15, 16.2 12.3, 25.28 8.94 C34.35 5.59, 49.08 2.71, 59.71 1.66 C70.35 0.6, 84.11 2.53, 89.1 2.61 C94.09 2.69, 89.57 1.7, 89.63 2.13" stroke="#000000" stroke-width="1" fill="none"></path></g><g transform="translate(530.7077126821996 317.5) rotate(0 43 13)"><text x="0" y="18" font-family="Virgil, Segoe UI Emoji" font-size="20px" fill="#000000" text-anchor="start" style="white-space: pre;" direction="ltr">Intent C</text></g><g stroke-linecap="round" transform="translate(217.0161321815479 313.257842502465) rotate(0 71.67228120471407 31.575900111167755)"><path d="M72.12 0.93 C83.67 0.36, 97.38 1.58, 107.72 4.13 C118.06 6.68, 128.35 11.59, 134.18 16.24 C140.02 20.88, 143.07 26.77, 142.74 31.98 C142.41 37.18, 138.41 42.79, 132.2 47.46 C126 52.13, 115.9 57.43, 105.51 59.99 C95.12 62.55, 82.02 63.05, 69.88 62.83 C57.74 62.6, 43.06 61.54, 32.67 58.63 C22.28 55.73, 13.04 50.06, 7.54 45.37 C2.04 40.68, -1.21 35.78, -0.33 30.5 C0.54 25.22, 5.99 18.07, 12.79 13.67 C19.6 9.27, 29.72 6.2, 40.51 4.1 C51.3 2, 70.2 1.58, 77.52 1.07 C84.85 0.55, 84.59 0.76, 84.44 1 M97.86 2.57 C108.6 4.3, 120.22 9.11, 127.71 13.48 C135.19 17.85, 140.9 23.5, 142.79 28.79 C144.68 34.07, 143.7 40.32, 139.03 45.18 C134.35 50.05, 124.55 54.9, 114.73 57.99 C104.91 61.09, 92.08 63.24, 80.11 63.74 C68.15 64.25, 54.15 63.43, 42.93 61 C31.72 58.57, 19.83 53.64, 12.81 49.18 C5.78 44.72, 1.91 39.57, 0.8 34.24 C-0.32 28.91, 1.33 22.09, 6.13 17.22 C10.94 12.34, 19.65 7.63, 29.62 4.99 C39.6 2.34, 54.65 1.83, 65.98 1.35 C77.31 0.87, 92.09 1.63, 97.61 2.11 C103.13 2.59, 99.4 3.84, 99.1 4.22" stroke="#000000" stroke-width="1" fill="none"></path></g><g transform="translate(244.08118941969184 329.29639493988327) rotate(0 44.60722396657036 13.031323855402547)"><text x="0" y="18.062647710805145" font-family="Virgil, Segoe UI Emoji" font-size="20.048190546773174px" fill="#000000" text-anchor="start" style="white-space: pre;" direction="ltr">Intent D</text></g><g stroke-linecap="round" transform="translate(891.7077126821996 125.5) rotate(0 71.5 31.5)"><path d="M63.13 0.15 C74.35 -0.77, 89.14 0.77, 100 3.05 C110.87 5.32, 121.12 9.49, 128.32 13.81 C135.53 18.12, 141.87 23.89, 143.23 28.95 C144.59 34.01, 141.51 39.43, 136.48 44.17 C131.45 48.91, 122.92 54.27, 113.04 57.39 C103.16 60.51, 89.31 62.44, 77.21 62.92 C65.11 63.39, 51.43 62.5, 40.42 60.27 C29.41 58.03, 17.93 54.07, 11.17 49.52 C4.4 44.97, 0.5 38.35, -0.16 32.98 C-0.82 27.6, 1.67 22.09, 7.2 17.28 C12.73 12.46, 22.54 7, 33.03 4.1 C43.51 1.2, 62.9 0.59, 70.09 -0.13 C77.29 -0.85, 76.13 -0.81, 76.17 -0.21 M88.91 2.3 C100.37 3.23, 113.38 7.21, 121.77 10.57 C130.15 13.92, 136.03 17.43, 139.22 22.42 C142.4 27.41, 143.89 35.25, 140.89 40.49 C137.89 45.72, 130.15 50.39, 121.21 53.82 C112.27 57.25, 99.18 59.72, 87.25 61.06 C75.32 62.4, 60.85 63.3, 49.62 61.85 C38.38 60.39, 27.63 56.05, 19.85 52.34 C12.08 48.63, 5.63 44.86, 2.98 39.58 C0.34 34.3, 0.34 25.92, 3.98 20.68 C7.61 15.45, 15.73 11.68, 24.8 8.16 C33.88 4.65, 47.64 0.58, 58.43 -0.42 C69.21 -1.42, 84.38 2.05, 89.52 2.19 C94.66 2.32, 89.65 0.2, 89.26 0.37" stroke="#000000" stroke-width="1" fill="none"></path></g><g transform="translate(918.7077126821996 141.5) rotate(0 43.5 13)"><text x="0" y="18" font-family="Virgil, Segoe UI Emoji" font-size="20px" fill="#000000" text-anchor="start" style="white-space: pre;" direction="ltr">Intent E</text></g><g stroke-linecap="round" transform="translate(675.7077126821996 446.5) rotate(0 71.5 31.5)"><path d="M53.92 1.8 C64.8 -0.15, 79.94 -1.16, 91.51 0.29 C103.08 1.73, 115 6.71, 123.33 10.49 C131.66 14.28, 138.58 18.05, 141.49 23.01 C144.4 27.96, 144.26 35, 140.81 40.22 C137.36 45.45, 129.73 50.63, 120.78 54.36 C111.84 58.09, 98.78 61.49, 87.12 62.6 C75.45 63.71, 62.12 62.6, 50.81 61.03 C39.51 59.46, 27.4 56.87, 19.3 53.16 C11.2 49.44, 4.66 44.1, 2.2 38.75 C-0.26 33.4, 0.9 26.08, 4.56 21.07 C8.21 16.05, 13.86 12.23, 24.15 8.66 C34.44 5.09, 57.5 1, 66.3 -0.36 C75.11 -1.73, 76.96 -0.04, 76.98 0.48 M37.08 4.33 C47.02 1.52, 63.07 -1.15, 75.02 -1.08 C86.98 -1.01, 98.58 1.6, 108.82 4.75 C119.06 7.91, 130.63 13.03, 136.45 17.86 C142.27 22.68, 144.54 28.76, 143.74 33.69 C142.93 38.62, 138.64 43.19, 131.6 47.44 C124.57 51.68, 112.63 56.68, 101.53 59.15 C90.43 61.62, 76.54 62.56, 65 62.26 C53.46 61.96, 41.78 60.1, 32.27 57.33 C22.76 54.56, 13.3 50.25, 7.94 45.66 C2.59 41.07, -0.88 35.41, 0.16 29.78 C1.2 24.14, 7.89 16.24, 14.17 11.85 C20.44 7.47, 33.67 4.66, 37.82 3.45 C41.97 2.24, 38.7 4.14, 39.07 4.57" stroke="#000000" stroke-width="1" fill="none"></path></g><g transform="translate(702.7077126821996 462.5) rotate(0 42.5 13)"><text x="0" y="18" font-family="Virgil, Segoe UI Emoji" font-size="20px" fill="#000000" text-anchor="start" style="white-space: pre;" direction="ltr">Intent F</text></g><g stroke-linecap="round"><g transform="translate(524.2077126821996 58) rotate(0 47.76921141701746 37.84133189322429)"><path d="M0.88 -0.14 C16.84 12.46, 79.68 62.93, 95.66 75.61 M-0.12 -1.26 C15.66 11.52, 78.44 63.86, 94.54 76.95" stroke="#000000" stroke-width="1" fill="none"></path></g><g transform="translate(524.2077126821996 58) rotate(0 47.76921141701746 37.84133189322429)"><path d="M66.02 66.37 C73.85 70.95, 82.66 73.38, 92.87 76.66 M66.06 67.31 C72.48 69.94, 79.27 71.69, 94.14 76.03" stroke="#000000" stroke-width="1" fill="none"></path></g><g transform="translate(524.2077126821996 58) rotate(0 47.76921141701746 37.84133189322429)"><path d="M79.07 50.53 C83.09 59.82, 88.1 66.87, 92.87 76.66 M79.12 51.47 C82.72 57.43, 86.73 62.56, 94.14 76.03" stroke="#000000" stroke-width="1" fill="none"></path></g></g><g stroke-linecap="round"><g transform="translate(671.2077126821996 197) rotate(0 -20.233764651045135 51.83991076943465)"><path d="M0.42 -1 C-6.32 16.02, -34.2 85.86, -40.88 103.09 M-0.83 1.09 C-7.15 18.23, -32.06 87.63, -38.63 104.68" stroke="#000000" stroke-width="1" fill="none"></path></g><g transform="translate(671.2077126821996 197) rotate(0 -20.233764651045135 51.83991076943465)"><path d="M-40.13 73.21 C-38.11 83.08, -39.34 91.36, -36.64 102.98 M-38.55 75.02 C-39.35 81.52, -38.16 90.5, -38.55 105.49" stroke="#000000" stroke-width="1" fill="none"></path></g><g transform="translate(671.2077126821996 197) rotate(0 -20.233764651045135 51.83991076943465)"><path d="M-20.89 80.34 C-23.96 88.41, -30.24 94.82, -36.64 102.98 M-19.31 82.15 C-24.94 86.82, -28.61 94, -38.55 105.49" stroke="#000000" stroke-width="1" fill="none"></path></g></g><g stroke-linecap="round"><g transform="translate(500.66599985221677 340.0701354272285) rotate(0 -66.57264354195786 0.6472883208565463)"><path d="M-0.45 0.27 C-22.69 0.51, -111.45 1.76, -133.8 1.93 M1.52 -0.63 C-20.83 -0.75, -111.81 0.36, -134.66 0.32" stroke="#000000" stroke-width="1" fill="none"></path></g><g transform="translate(500.66599985221677 340.0701354272285) rotate(0 -66.57264354195786 0.6472883208565463)"><path d="M-106.08 -9.85 C-112.45 -8.38, -121.08 -6.08, -132.83 1.52 M-106.11 -9.13 C-115.58 -5.99, -123.99 -3.2, -133.73 -0.62" stroke="#000000" stroke-width="1" fill="none"></path></g><g transform="translate(500.66599985221677 340.0701354272285) rotate(0 -66.57264354195786 0.6472883208565463)"><path d="M-105.96 10.67 C-112.44 6.61, -121.11 3.38, -132.83 1.52 M-105.99 11.39 C-115.52 8.26, -123.97 4.78, -133.73 -0.62" stroke="#000000" stroke-width="1" fill="none"></path></g></g><g stroke-linecap="round"><g transform="translate(756.2077126821996 165) rotate(0 64.70837217989379 -4.642938784137357)"><path d="M0.83 -0.23 C22.58 -1.82, 108.29 -7.46, 129.61 -9.05 M-0.2 -1.4 C21.53 -2.83, 107.63 -6.29, 128.99 -7.55" stroke="#000000" stroke-width="1" fill="none"></path></g><g transform="translate(756.2077126821996 165) rotate(0 64.70837217989379 -4.642938784137357)"><path d="M100.94 5.09 C107.43 0.91, 112.42 -1.11, 127.95 -9.17 M101.86 3.23 C109.45 1.55, 114.86 -2.17, 129.01 -7.23" stroke="#000000" stroke-width="1" fill="none"></path></g><g transform="translate(756.2077126821996 165) rotate(0 64.70837217989379 -4.642938784137357)"><path d="M99.95 -15.41 C106.74 -14.97, 111.96 -12.36, 127.95 -9.17 M100.87 -17.27 C108.71 -13.63, 114.38 -12.03, 129.01 -7.23" stroke="#000000" stroke-width="1" fill="none"></path></g></g><g stroke-linecap="round"><g transform="translate(221.8197755828249 56.84827607754619) rotate(0 75.2602023336757 1.3345313104055663)"><path d="M0.5 -0.78 C25.8 -0.09, 125.93 2.73, 151.21 3.45 M-0.69 1.42 C24.48 1.8, 124.74 1.49, 150.18 1.48" stroke="#000000" stroke-width="1" fill="none"></path></g><g transform="translate(221.8197755828249 56.84827607754619) rotate(0 75.2602023336757 1.3345313104055663)"><path d="M120.7 11.5 C129.66 10.45, 136.88 7.05, 151.43 2.31 M121.81 11.37 C129.82 9.19, 138.68 6.31, 149.9 1.32" stroke="#000000" stroke-width="1" fill="none"></path></g><g transform="translate(221.8197755828249 56.84827607754619) rotate(0 75.2602023336757 1.3345313104055663)"><path d="M120.67 -9.02 C129.52 -4.89, 136.75 -3.12, 151.43 2.31 M121.77 -9.16 C129.83 -5.49, 138.69 -2.53, 149.9 1.32" stroke="#000000" stroke-width="1" fill="none"></path></g></g><g stroke-linecap="round"><g transform="translate(211.50492492372138 340.8259116200478) rotate(0 -52.56618839435134 1.9179762873233699)"><path d="M0.85 0.74 C-16.97 1.05, -88.16 2.18, -105.98 2.49 M-0.16 0.08 C-17.68 0.49, -86.4 3.15, -103.65 3.76" stroke="#000000" stroke-width="1" fill="none"></path></g><g transform="translate(211.50492492372138 340.8259116200478) rotate(0 -52.56618839435134 1.9179762873233699)"><path d="M-74.63 -8.75 C-87.21 -4.47, -97.57 1.11, -102.87 4.93 M-75.96 -7.87 C-81.59 -5.76, -88.34 -2.58, -104.58 3.78" stroke="#000000" stroke-width="1" fill="none"></path></g><g transform="translate(211.50492492372138 340.8259116200478) rotate(0 -52.56618839435134 1.9179762873233699)"><path d="M-73.87 11.76 C-86.85 8.26, -97.5 6.06, -102.87 4.93 M-75.2 12.64 C-80.96 9.88, -87.89 8.19, -104.58 3.78" stroke="#000000" stroke-width="1" fill="none"></path></g></g><g stroke-linecap="round"><g transform="translate(958.2077126821996 195) rotate(0 -1.581596190948062 53.69656897094103)"><path d="M-0.14 0.53 C-0.6 18.4, -1.93 88.56, -2.4 106.06 M-1.67 -0.24 C-2.27 17.95, -2.7 89.82, -3.03 107.63" stroke="#000000" stroke-width="1" fill="none"></path></g><g transform="translate(958.2077126821996 195) rotate(0 -1.581596190948062 53.69656897094103)"><path d="M-12.07 80.33 C-9.83 88.86, -7.37 96.37, -3.75 106.61 M-12.63 79.91 C-9.85 88.65, -6.94 96.71, -3.08 106.72" stroke="#000000" stroke-width="1" fill="none"></path></g><g transform="translate(958.2077126821996 195) rotate(0 -1.581596190948062 53.69656897094103)"><path d="M8.45 80.57 C3.87 89, -0.48 96.43, -3.75 106.61 M7.89 80.15 C4.36 88.91, 0.96 96.89, -3.08 106.72" stroke="#000000" stroke-width="1" fill="none"></path></g></g><g stroke-linecap="round"><g transform="translate(550.7530599856304 356.1973748150889) rotate(267.6065947694387 -4.186089092730924 119.72558200918206)"><path d="M-0.21 0.77 C-1.39 40.63, -6.13 199.81, -7.42 239.32 M-1.77 0.13 C-3.05 39.66, -6.99 197.93, -8.17 237.73" stroke="#000000" stroke-width="1" fill="none"></path></g><g transform="translate(550.7530599856304 356.1973748150889) rotate(267.6065947694387 -4.186089092730924 119.72558200918206)"><path d="M-16.38 209.93 C-13.37 216.75, -13.23 225.73, -6.42 238.2 M-18.52 209.99 C-14.95 219.49, -12.14 228.08, -8.44 237.56" stroke="#000000" stroke-width="1" fill="none"></path></g><g transform="translate(550.7530599856304 356.1973748150889) rotate(267.6065947694387 -4.186089092730924 119.72558200918206)"><path d="M4.13 210.48 C1.59 217.12, -3.82 225.95, -6.42 238.2 M2 210.54 C-1.26 219.76, -5.27 228.17, -8.44 237.56" stroke="#000000" stroke-width="1" fill="none"></path></g></g><g stroke-linecap="round"><g transform="translate(854.3119733691747 475.4835510585458) rotate(0 55.8043655713069 2.4877744403667066)"><path d="M-0.48 0.91 C18.25 1.71, 93.38 4.27, 112.09 4.64 M1.46 0.34 C20.17 0.85, 93.4 2.43, 111.72 3.07" stroke="#000000" stroke-width="1" fill="none"></path></g><g transform="translate(854.3119733691747 475.4835510585458) rotate(0 55.8043655713069 2.4877744403667066)"><path d="M84.77 14.39 C92.81 11.37, 98.04 7.58, 110.51 1.56 M83.92 13.46 C94.33 9.94, 102.97 5.72, 112.09 2.21" stroke="#000000" stroke-width="1" fill="none"></path></g><g transform="translate(854.3119733691747 475.4835510585458) rotate(0 55.8043655713069 2.4877744403667066)"><path d="M85.33 -6.13 C93.18 -3.55, 98.26 -1.75, 110.51 1.56 M84.48 -7.06 C94.87 -3.21, 103.31 -0.06, 112.09 2.21" stroke="#000000" stroke-width="1" fill="none"></path></g></g><g transform="translate(579.2077126821996 55) rotate(0 39 13)"><text x="39" y="18" font-family="Virgil, Segoe UI Emoji" font-size="20px" fill="#000000" text-anchor="middle" style="white-space: pre;" direction="ltr">0.1 BTC</text></g><g transform="translate(674.7077126821996 236) rotate(0 50.5 13)"><text x="50.5" y="18" font-family="Virgil, Segoe UI Emoji" font-size="20px" fill="#000000" text-anchor="middle" style="white-space: pre;" direction="ltr">1000 XTZ</text></g><g transform="translate(377.5570710690768 364.9373522891948) rotate(0 73.5 13)"><text x="73.5" y="18" font-family="Virgil, Segoe UI Emoji" font-size="20.04819054677318px" fill="#000000" text-anchor="middle" style="white-space: pre;" direction="ltr">Give 2.3k ADA</text></g><g transform="translate(79.41613679699378 366.8867522150837) rotate(0 95.99999999999997 13)"><text x="96" y="18" font-family="Virgil, Segoe UI Emoji" font-size="20.048190546773178px" fill="#000000" text-anchor="middle" style="white-space: pre;" direction="ltr">Give max 3.5k EUR</text></g><g transform="translate(200.70771268219966 10) rotate(0 85.5 13)"><text x="85.5" y="18" font-family="Virgil, Segoe UI Emoji" font-size="20px" fill="#000000" text-anchor="middle" style="white-space: pre;" direction="ltr">Want min 3k USD</text></g><g transform="translate(776.7077126821996 106) rotate(0 37.5 13)"><text x="37.5" y="18" font-family="Virgil, Segoe UI Emoji" font-size="20px" fill="#000000" text-anchor="middle" style="white-space: pre;" direction="ltr">1.3 ETH</text></g><g transform="translate(973.2077126821996 220) rotate(0 99 13)"><text x="99" y="18" font-family="Virgil, Segoe UI Emoji" font-size="20px" fill="#000000" text-anchor="middle" style="white-space: pre;" direction="ltr">Give max 15K DOGE</text></g><g transform="translate(463.70771268219966 432) rotate(0 82.5 13)"><text x="82.5" y="18" font-family="Virgil, Segoe UI Emoji" font-size="20px" fill="#000000" text-anchor="middle" style="white-space: pre;" direction="ltr">Want min 3 DOT</text></g><g transform="translate(835.2077126821996 434) rotate(0 99 13)"><text x="99" y="18" font-family="Virgil, Segoe UI Emoji" font-size="20px" fill="#000000" text-anchor="middle" style="white-space: pre;" direction="ltr">Give max 0.20 BNB</text></g><g stroke-linecap="round" transform="translate(510.95771268219966 870.75) rotate(0 286.8497899159663 170.25)"><path d="M-0.76 -0.3 C218.36 -0.13, 434.76 -0.53, 574.1 0.73 M-0.1 -0.23 C141.94 -1.56, 283.91 -1.58, 573.54 -0.05 M574.28 -0.74 C572.35 131.06, 570.63 261.95, 572.6 339.44 M574.33 -0.23 C573.67 112.22, 574.13 224.66, 573.79 340.49 M573.52 339.91 C348.51 342.91, 124.01 342.82, 0.12 340.04 M573.97 340.22 C349.6 341.02, 125.61 341.02, 0.06 340.6 M-0.78 341.34 C-1.65 236.18, -1.05 132.21, 0.07 -1.28 M0.05 341.05 C-1.28 240.34, -1.25 139.94, 0.03 -0.37" stroke="#000000" stroke-width="1" fill="none"></path></g><g transform="translate(641.1488891527895 886.4873949579819) rotate(0 150.9359243697478 18.598739495798327)"><text x="0" y="26.19747899159662" font-family="Virgil, Segoe UI Emoji" font-size="28.61344537815124px" fill="#000000" text-anchor="start" style="white-space: pre;" direction="ltr">Crafted transaction </text></g><g transform="translate(538.1404857914445 936.5609243697459) rotate(0 190.27941176470574 130.19117647058818)"><text x="0" y="26.19747899159661" font-family="Virgil, Segoe UI Emoji" font-size="28.613445378151237px" fill="#000000" text-anchor="start" style="white-space: pre;" direction="ltr">- transfers: </text><text x="0" y="63.39495798319322" font-family="Virgil, Segoe UI Emoji" font-size="28.613445378151237px" fill="#000000" text-anchor="start" style="white-space: pre;" direction="ltr">    - A -- 0.1 BTC  --&gt; B</text><text x="0" y="100.59243697478983" font-family="Virgil, Segoe UI Emoji" font-size="28.613445378151237px" fill="#000000" text-anchor="start" style="white-space: pre;" direction="ltr">    - B -- 1k XTZ   --&gt; C</text><text x="0" y="137.78991596638645" font-family="Virgil, Segoe UI Emoji" font-size="28.613445378151237px" fill="#000000" text-anchor="start" style="white-space: pre;" direction="ltr">    - C -- 2.3k ADA --&gt; D</text><text x="0" y="174.98739495798304" font-family="Virgil, Segoe UI Emoji" font-size="28.613445378151237px" fill="#000000" text-anchor="start" style="white-space: pre;" direction="ltr">    - D -- 3.3k EUR --&gt; G</text><text x="0" y="212.18487394957967" font-family="Virgil, Segoe UI Emoji" font-size="28.613445378151237px" fill="#000000" text-anchor="start" style="white-space: pre;" direction="ltr">    - G -- 3.9 USD  --&gt; A</text><text x="0" y="249.3823529411763" font-family="Virgil, Segoe UI Emoji" font-size="28.613445378151237px" fill="#000000" text-anchor="start" style="white-space: pre;" direction="ltr">- Intent A, B, C, D, G</text></g><g stroke-linecap="round"><g transform="translate(14.981056490832145 603.9922277551025) rotate(0 608.765570417419 -0.6196147879168166)"><path d="M0.81 -0.09 C203.76 -0.1, 1015.13 0.37, 1217.76 0.28 M-0.23 -1.18 C202.59 -1.55, 1013.75 -1.67, 1216.95 -1.34" stroke="#000000" stroke-width="4" fill="none"></path></g></g><g stroke-linecap="round" transform="translate(562.6035006248026 657.75) rotate(0 71.5 31.5)"><path d="M46.21 1.4 C56.45 -0.86, 71.72 -0.53, 83.62 0.45 C95.51 1.43, 108.23 3.94, 117.6 7.28 C126.96 10.61, 135.91 15.42, 139.82 20.45 C143.73 25.47, 143.47 32.09, 141.04 37.44 C138.62 42.79, 133.18 48.45, 125.28 52.56 C117.38 56.67, 104.91 60.47, 93.63 62.1 C82.36 63.74, 69.49 63.68, 57.63 62.37 C45.77 61.07, 31.61 57.95, 22.49 54.26 C13.36 50.57, 6.28 45.33, 2.86 40.23 C-0.56 35.13, -0.66 28.58, 1.97 23.66 C4.61 18.74, 9.17 14.62, 18.66 10.69 C28.14 6.77, 49.7 1.75, 58.88 0.11 C68.06 -1.54, 73.54 0.31, 73.73 0.84 M95.48 2.22 C106.88 3.79, 119.91 7.42, 127.93 11.69 C135.94 15.97, 142.14 22.79, 143.56 27.86 C144.97 32.94, 140.89 37.26, 136.42 42.14 C131.94 47.03, 125.8 53.63, 116.69 57.16 C107.58 60.69, 93.81 62.57, 81.75 63.35 C69.69 64.14, 55.74 64.19, 44.32 61.87 C32.89 59.56, 20.7 54.08, 13.22 49.45 C5.74 44.81, 0.59 39.2, -0.56 34.08 C-1.72 28.97, 0.99 23.25, 6.29 18.73 C11.59 14.21, 21.5 9.88, 31.22 6.96 C40.94 4.04, 53.9 2.08, 64.61 1.2 C75.31 0.32, 90 1.53, 95.43 1.66 C100.85 1.8, 97.51 1.29, 97.14 1.99" stroke="#000000" stroke-width="1" fill="none"></path></g><g transform="translate(589.6035006248026 673.75) rotate(0 43.5 13)"><text x="0" y="18" font-family="Virgil, Segoe UI Emoji" font-size="20px" fill="#000000" text-anchor="start" style="white-space: pre;" direction="ltr">Intent E</text></g><g stroke-linecap="round"><g transform="translate(429.4739487976954 688.6051125581707) rotate(0 62.73265586505397 -1.8804894646548291)"><path d="M-0.08 -0.02 C21.13 -0.52, 105.67 -3.04, 127.05 -3.75 M-1.58 -1.07 C19.49 -1.32, 104.49 -1.94, 126.08 -2.31" stroke="#000000" stroke-width="1" fill="none"></path></g><g transform="translate(429.4739487976954 688.6051125581707) rotate(0 62.73265586505397 -1.8804894646548291)"><path d="M97.99 8.22 C105.64 7.15, 112.71 1.02, 126.05 -2.24 M98.99 8.34 C106.43 4.08, 116.13 0.49, 126.21 -3.02" stroke="#000000" stroke-width="1" fill="none"></path></g><g transform="translate(429.4739487976954 688.6051125581707) rotate(0 62.73265586505397 -1.8804894646548291)"><path d="M97.75 -12.3 C105.35 -7.62, 112.48 -7.99, 126.05 -2.24 M98.75 -12.18 C106.18 -9.7, 115.96 -6.55, 126.21 -3.02" stroke="#000000" stroke-width="1" fill="none"></path></g></g><g stroke-linecap="round"><g transform="translate(711.1035006248026 685.25) rotate(0 78.98850164801809 1.2813376501576386)"><path d="M-0.19 1.09 C26.04 1.23, 130.99 0.73, 157.36 0.83 M-1.74 0.62 C24.88 0.9, 133.23 1.55, 159.72 1.94" stroke="#000000" stroke-width="1" fill="none"></path></g><g transform="translate(711.1035006248026 685.25) rotate(0 78.98850164801809 1.2813376501576386)"><path d="M133.25 10.81 C138.55 8.95, 148.4 6.58, 158.9 3.37 M130.91 11.56 C142.04 8.32, 153.21 3.31, 160.57 1.27" stroke="#000000" stroke-width="1" fill="none"></path></g><g transform="translate(711.1035006248026 685.25) rotate(0 78.98850164801809 1.2813376501576386)"><path d="M133.45 -9.71 C138.68 -5.44, 148.47 -1.68, 158.9 3.37 M131.11 -8.96 C142.18 -4.04, 153.26 -0.89, 160.57 1.27" stroke="#000000" stroke-width="1" fill="none"></path></g></g><g transform="translate(444.6035006248026 641.25) rotate(0 37.5 13)"><text x="37.5" y="18" font-family="Virgil, Segoe UI Emoji" font-size="20px" fill="#000000" text-anchor="middle" style="white-space: pre;" direction="ltr">1.3 ETH</text></g><g transform="translate(701.1035006248026 641.25) rotate(0 99 13)"><text x="99" y="18" font-family="Virgil, Segoe UI Emoji" font-size="20px" fill="#000000" text-anchor="middle" style="white-space: pre;" direction="ltr">Give max 15K DOGE</text></g><g stroke-linecap="round" transform="translate(276.70771268219966 651.5) rotate(0 71.5 31.5)"><path d="M92.08 1.94 C103.2 3.07, 115.35 6.27, 123.73 10.12 C132.11 13.97, 139.69 19.77, 142.38 25.06 C145.07 30.36, 143.97 36.96, 139.87 41.88 C135.76 46.8, 126.93 51.03, 117.74 54.59 C108.55 58.14, 96.39 62.01, 84.7 63.2 C73.02 64.39, 58.97 63.5, 47.63 61.74 C36.29 59.98, 24.44 56.67, 16.65 52.64 C8.87 48.6, 3.05 42.89, 0.92 37.56 C-1.21 32.22, -0.41 25.85, 3.89 20.61 C8.19 15.37, 17.35 9.34, 26.74 6.12 C36.12 2.91, 48.55 2.03, 60.2 1.31 C71.85 0.58, 90.46 1.4, 96.65 1.79 C102.85 2.19, 97.8 3.25, 97.37 3.68 M84.33 0.79 C95.77 1.03, 109.42 3.85, 118.73 7.48 C128.05 11.12, 136.67 17.56, 140.23 22.6 C143.79 27.64, 142.87 32.82, 140.09 37.74 C137.32 42.65, 131.61 47.95, 123.56 52.08 C115.5 56.21, 103.38 61, 91.76 62.51 C80.14 64.03, 65.56 62.43, 53.83 61.14 C42.1 59.86, 29.69 58.25, 21.38 54.82 C13.08 51.39, 6.96 45.72, 4.02 40.57 C1.08 35.42, 0.93 29.32, 3.73 23.92 C6.53 18.52, 12.49 12.15, 20.82 8.19 C29.15 4.23, 43.11 1.22, 53.71 0.16 C64.3 -0.91, 79.28 1.5, 84.41 1.82 C89.55 2.13, 84.7 1.68, 84.51 2.05" stroke="#000000" stroke-width="1" fill="none"></path></g><g transform="translate(303.70771268219966 667.5) rotate(0 44 13)"><text x="0" y="18" font-family="Virgil, Segoe UI Emoji" font-size="20px" fill="#000000" text-anchor="start" style="white-space: pre;" direction="ltr">Intent B</text></g><g stroke-linecap="round" transform="translate(257.4948349456941 773.75) rotate(0 71.5 31.5)"><path d="M56.21 -0.1 C66.93 -1.61, 81.78 0.63, 93.12 2.46 C104.45 4.29, 116.26 7.03, 124.24 10.9 C132.21 14.77, 138.59 20.44, 140.96 25.66 C143.32 30.88, 142.35 37.31, 138.41 42.21 C134.47 47.11, 126.49 51.6, 117.34 55.04 C108.18 58.48, 95.27 61.95, 83.48 62.85 C71.69 63.75, 57.92 62.38, 46.59 60.43 C35.25 58.48, 22.93 55.27, 15.46 51.15 C7.99 47.03, 3.46 41.01, 1.76 35.71 C0.06 30.41, 1 24.04, 5.26 19.37 C9.53 14.69, 17.38 10.74, 27.35 7.68 C37.31 4.62, 57.13 2.33, 65.07 1 C73 -0.33, 74.78 -0.61, 74.97 -0.31 M72.35 0.76 C83.91 0.18, 98.22 2.46, 108.5 4.86 C118.78 7.27, 128.2 10.7, 134.03 15.18 C139.87 19.67, 143.88 26.43, 143.52 31.77 C143.15 37.11, 138.21 42.63, 131.83 47.21 C125.46 51.8, 115.8 56.49, 105.25 59.28 C94.7 62.08, 80.52 64.06, 68.51 63.97 C56.49 63.88, 43.13 61.62, 33.15 58.76 C23.18 55.9, 14 51.61, 8.65 46.81 C3.3 42.01, 0.68 35.31, 1.06 29.97 C1.45 24.63, 4.44 19, 10.97 14.77 C17.5 10.55, 30.02 7.18, 40.26 4.61 C50.49 2.05, 67.23 -0.11, 72.38 -0.63 C77.54 -1.14, 71.39 0.7, 71.18 1.53" stroke="#000000" stroke-width="1" fill="none"></path></g><g transform="translate(284.4948349456941 789.75) rotate(0 42.5 13)"><text x="0" y="18" font-family="Virgil, Segoe UI Emoji" font-size="20px" fill="#000000" text-anchor="start" style="white-space: pre;" direction="ltr">Intent F</text></g><g stroke-linecap="round"><g transform="translate(132.54018224912517 683.447374815089) rotate(267.6065947694387 -2.8765279721611705 120.2564312516904)"><path d="M-0.52 1.12 C-1.78 40.84, -5.39 198.88, -6.77 238.31 M1.41 0.67 C0 40.59, -5.86 200.17, -7.17 239.85" stroke="#000000" stroke-width="1" fill="none"></path></g><g transform="translate(132.54018224912517 683.447374815089) rotate(267.6065947694387 -2.8765279721611705 120.2564312516904)"><path d="M-14.56 213.06 C-13 220.25, -10.56 234.29, -8.59 240.49 M-16.03 210.68 C-14.58 217.37, -11.67 224.44, -7.8 239.02" stroke="#000000" stroke-width="1" fill="none"></path></g><g transform="translate(132.54018224912517 683.447374815089) rotate(267.6065947694387 -2.8765279721611705 120.2564312516904)"><path d="M5.95 213.78 C-0.08 220.62, -5.23 234.39, -8.59 240.49 M4.48 211.4 C1.15 217.79, -0.73 224.69, -7.8 239.02" stroke="#000000" stroke-width="1" fill="none"></path></g></g><g stroke-linecap="round"><g transform="translate(436.09909563266916 802.7335510585458) rotate(0 55.62402737788665 2.075811123512608)"><path d="M1.12 1.05 C19.62 1.56, 92.78 1.98, 110.99 2.58 M0.25 0.55 C18.59 1.23, 91.87 3.21, 110.05 3.6" stroke="#000000" stroke-width="1" fill="none"></path></g><g transform="translate(436.09909563266916 802.7335510585458) rotate(0 55.62402737788665 2.075811123512608)"><path d="M83.35 13.16 C88.57 9.02, 100.62 5.71, 110.69 2.26 M80.98 12.76 C90.44 10.22, 100.28 6.08, 109.22 3.24" stroke="#000000" stroke-width="1" fill="none"></path></g><g transform="translate(436.09909563266916 802.7335510585458) rotate(0 55.62402737788665 2.075811123512608)"><path d="M83.86 -7.36 C88.84 -5.31, 100.74 -2.44, 110.69 2.26 M81.49 -7.75 C90.65 -3.49, 100.32 -0.84, 109.22 3.24" stroke="#000000" stroke-width="1" fill="none"></path></g></g><g transform="translate(45.49483494569688 759.25) rotate(0 82.49999999999997 13)"><text x="82.5" y="18" font-family="Virgil, Segoe UI Emoji" font-size="20px" fill="#000000" text-anchor="middle" style="white-space: pre;" direction="ltr">Want min 3 DOT</text></g><g transform="translate(416.9948349456941 761.25) rotate(0 99 13)"><text x="99" y="18" font-family="Virgil, Segoe UI Emoji" font-size="20px" fill="#000000" text-anchor="middle" style="white-space: pre;" direction="ltr">Give max 0.20 BNB</text></g><g stroke-linecap="round"><g transform="translate(151.11419057273162 566.9852887975298) rotate(267.6065947694387 -3.8912490727336717 119.51381867759)"><path d="M-0.59 0.78 C-1.97 40.47, -6.76 199.17, -8.03 238.89 M1.31 0.14 C-0.28 39.41, -7.34 197.57, -9.09 237.07" stroke="#000000" stroke-width="1" fill="none"></path></g><g transform="translate(151.11419057273162 566.9852887975298) rotate(267.6065947694387 -3.8912490727336717 119.51381867759)"><path d="M-16.79 208.09 C-14.05 217.07, -10.86 226.02, -11.04 237.87 M-18.07 208.53 C-15.06 216.37, -12.99 225.91, -9.27 237.3" stroke="#000000" stroke-width="1" fill="none"></path></g><g transform="translate(151.11419057273162 566.9852887975298) rotate(267.6065947694387 -3.8912490727336717 119.51381867759)"><path d="M3.71 209 C-0.16 217.59, -3.56 226.25, -11.04 237.87 M2.43 209.44 C-0.49 216.96, -4.37 226.23, -9.27 237.3" stroke="#000000" stroke-width="1" fill="none"></path></g></g><g transform="translate(49.568843269306115 642.7879139824408) rotate(0 97 13)"><text x="97" y="18" font-family="Virgil, Segoe UI Emoji" font-size="20px" fill="#000000" text-anchor="middle" style="white-space: pre;" direction="ltr">Want min 0.09 BTC</text></g></svg>