<svg version="1.1" xmlns="http://www.w3.org/2000/svg" viewBox="0 0 1607.8571428571427 2247.5" width="1607.8571428571427" height="2247.5">
  <!-- svg-source:excalidraw -->
  
  <defs>
    <style>
      @font-face {
        font-family: "Virgil";
        src: url("https://excalidraw.com/Virgil.woff2");
      }
      @font-face {
        font-family: "Cascadia";
        src: url("https://excalidraw.com/Cascadia.woff2");
      }
    </style>
  </defs>
  <rect x="0" y="0" width="1607.8571428571427" height="2247.5" fill="#ffffff"></rect><g transform="translate(1047.071428571429 1667.9285714285713) rotate(0 57.5 35)"><text x="0" y="28" font-family="Cascadia, Segoe UI Emoji" font-size="28px" fill="#000000" text-anchor="start" style="white-space: pre;" direction="ltr">send_tx</text><text x="0" y="63" font-family="Cascadia, Segoe UI Emoji" font-size="28px" fill="#000000" text-anchor="start" style="white-space: pre;" direction="ltr">(data)</text></g><g stroke-linecap="round" transform="translate(10 691.5) rotate(0 793.9285714285713 773)"><path d="M514.05 49.32 C542.25 25.17, 583.04 26.09, 619.21 18.39 C655.38 10.69, 694.06 5.89, 731.07 3.13 C768.08 0.37, 804.5 -0.11, 841.29 1.85 C878.08 3.82, 915.31 7.92, 951.82 14.91 C988.33 21.9, 1025.2 31.41, 1060.37 43.8 C1095.55 56.18, 1130.12 72.15, 1162.87 89.22 C1195.62 106.3, 1226.67 125.39, 1256.87 146.25 C1287.08 167.1, 1317.27 189.64, 1344.07 214.37 C1370.87 239.11, 1394.86 266.08, 1417.66 294.67 C1440.46 323.26, 1462.09 354.41, 1480.85 385.9 C1499.62 417.38, 1516.34 450.2, 1530.26 483.61 C1544.17 517.01, 1555.58 551.48, 1564.35 586.31 C1573.11 621.15, 1579.04 656.77, 1582.86 692.59 C1586.67 728.41, 1588.37 764.93, 1587.23 801.21 C1586.09 837.5, 1582.67 874.6, 1576 910.31 C1569.34 946.02, 1558.92 981.04, 1547.24 1015.47 C1535.56 1049.91, 1522.41 1084.56, 1505.93 1116.91 C1489.44 1149.27, 1469.41 1180.02, 1448.34 1209.6 C1427.27 1239.17, 1404.3 1267.62, 1379.48 1294.37 C1354.67 1321.11, 1328.23 1347.01, 1299.44 1370.07 C1270.65 1393.12, 1238.52 1413.79, 1206.74 1432.69 C1174.97 1451.59, 1142.72 1469.26, 1108.8 1483.49 C1074.87 1497.73, 1038.97 1508.58, 1003.19 1518.1 C967.41 1527.63, 931.03 1535.86, 894.11 1540.65 C857.19 1545.45, 818.97 1547.61, 781.67 1546.86 C744.37 1546.11, 706.9 1541.84, 670.31 1536.16 C633.71 1530.48, 597.63 1523.17, 562.12 1512.78 C526.61 1502.39, 490.72 1489.23, 457.24 1473.84 C423.75 1458.44, 392.19 1440.12, 361.19 1420.42 C330.2 1400.73, 299.49 1379.44, 271.28 1355.68 C243.07 1331.92, 216.29 1305.41, 191.92 1277.88 C167.55 1250.34, 145.12 1220.92, 125.04 1190.47 C104.96 1160.03, 86.75 1127.93, 71.44 1095.19 C56.13 1062.46, 43.59 1028.51, 33.18 994.07 C22.77 959.62, 14.41 924.29, 8.96 888.5 C3.52 852.71, 1.01 815.44, 0.52 779.34 C0.04 743.23, 1.37 707.77, 6.03 671.88 C10.69 635.99, 18.3 598.79, 28.49 563.99 C38.67 529.19, 51.9 496.04, 67.13 463.08 C82.36 430.12, 100.27 397.21, 119.86 366.22 C139.45 335.23, 160.97 304.8, 184.66 277.16 C208.35 249.52, 234.4 224.55, 262.01 200.39 C289.62 176.23, 319.59 152.48, 350.32 132.21 C381.05 111.94, 418.23 92.97, 446.4 78.78 C474.57 64.6, 504.9 50.31, 519.37 47.12 C533.83 43.93, 528.33 47.52, 533.19 59.62 M530.92 44.51 C559.77 20.92, 602.09 21.82, 638.6 14.56 C675.1 7.29, 712.84 2.93, 749.94 0.91 C787.03 -1.12, 824.26 -0.79, 861.17 2.4 C898.08 5.58, 935.46 12.08, 971.4 20.03 C1007.34 27.97, 1042.32 37.29, 1076.8 50.06 C1111.28 62.83, 1145.64 79.01, 1178.3 96.66 C1210.97 114.32, 1242.88 133.97, 1272.77 156.01 C1302.67 178.05, 1331.76 203.08, 1357.68 228.9 C1383.61 254.72, 1406.02 282.06, 1428.31 310.92 C1450.59 339.79, 1473.55 370.58, 1491.38 402.07 C1509.2 433.56, 1522.55 466.37, 1535.26 499.87 C1547.97 533.38, 1559.24 567.93, 1567.64 603.08 C1576.03 638.22, 1582.48 674.6, 1585.62 710.75 C1588.76 746.9, 1588.95 783.77, 1586.45 819.97 C1583.95 856.17, 1578.28 892.49, 1570.63 927.95 C1562.98 963.4, 1552.71 998.66, 1540.54 1032.69 C1528.37 1066.73, 1514.72 1100.13, 1497.62 1132.17 C1480.52 1164.21, 1459.66 1195.41, 1437.96 1224.93 C1416.26 1254.45, 1392.87 1283.29, 1367.43 1309.29 C1341.98 1335.29, 1314.81 1358.96, 1285.31 1380.93 C1255.8 1402.89, 1222.68 1422.71, 1190.4 1441.08 C1158.12 1459.45, 1126 1477.52, 1091.62 1491.14 C1057.24 1504.77, 1020.25 1514.22, 984.13 1522.83 C948 1531.43, 911.44 1539.13, 874.89 1542.77 C838.34 1546.41, 801.75 1546.15, 764.83 1544.67 C727.92 1543.19, 690.09 1540.4, 653.39 1533.88 C616.69 1527.36, 579.72 1516.83, 544.62 1505.56 C509.52 1494.28, 475.82 1481.84, 442.81 1466.24 C409.8 1450.63, 377.63 1432.35, 346.56 1411.94 C315.5 1391.53, 284.02 1368.43, 256.41 1343.77 C228.79 1319.11, 204.09 1291.85, 180.89 1263.99 C157.68 1236.14, 136.3 1207.21, 117.19 1176.63 C98.07 1146.06, 81.04 1113.98, 66.22 1080.54 C51.4 1047.09, 38.29 1011.12, 28.26 975.96 C18.23 940.81, 10.69 905.58, 6.06 869.64 C1.43 833.7, -0.28 796.45, 0.48 760.33 C1.23 724.22, 4.78 688.49, 10.59 652.94 C16.41 617.38, 24.84 581.69, 35.37 547.01 C45.9 512.34, 58.1 477.35, 73.79 444.88 C89.47 412.4, 109.13 382.16, 129.49 352.16 C149.85 322.15, 171.51 292.23, 195.95 264.86 C220.39 237.49, 248.01 211.69, 276.12 187.96 C304.23 164.22, 333.24 142.28, 364.61 122.45 C395.98 102.61, 436.48 81.95, 464.35 68.94 C492.23 55.93, 520.11 46.01, 531.86 44.41 C543.62 42.81, 530.93 47.43, 534.9 59.32" stroke="#000000" stroke-width="1" fill="none"></path></g><g transform="translate(583 737.5) rotate(0 177.5 23)"><text x="0" y="32" font-family="Virgil, Segoe UI Emoji" font-size="36px" fill="#000000" text-anchor="start" style="white-space: pre;" direction="ltr">Matchmaker process</text></g><g stroke-linecap="round"><g transform="translate(731.4827638040854 60.860797606473284) rotate(0 -110.44609915157923 392.026758477147)"><path d="M0.35 -0.08 C-36.39 130.82, -183.62 654.36, -220.8 785.22 M-0.93 -1.16 C-37.71 129.44, -184.67 652.94, -221.24 783.67" stroke="#000000" stroke-width="1" fill="none"></path></g><g transform="translate(731.4827638040854 60.860797606473284) rotate(0 -110.44609915157923 392.026758477147)"><path d="M-223.64 755.37 C-221.11 760.26, -220.74 771.84, -219.95 781.85 M-223.32 753.33 C-222.97 762.79, -223.09 772.03, -222.06 783.8" stroke="#000000" stroke-width="1" fill="none"></path></g><g transform="translate(731.4827638040854 60.860797606473284) rotate(0 -110.44609915157923 392.026758477147)"><path d="M-203.88 760.91 C-206.68 764.36, -211.65 774.44, -219.95 781.85 M-203.56 758.87 C-209.18 766.53, -215.3 774.09, -222.06 783.8" stroke="#000000" stroke-width="1" fill="none"></path></g></g><g stroke-linecap="round" transform="translate(383 849.5) rotate(0 100.5 30.5)"><path d="M0.3 -0.65 C73.8 -2.08, 148.55 -3.02, 202.18 -0.2 M-0.52 0.35 C71.03 0.84, 140.82 1.42, 201.25 -0.22 M202.85 0.81 C200.46 19.16, 200.07 34.53, 199.3 60.54 M200.48 -0.54 C201.4 18.43, 201.08 38.72, 201.39 60.27 M199.66 60.36 C138.82 61.07, 72.78 63.36, 1.4 61.3 M200.81 60.37 C145.73 61.16, 90.64 62.67, -0.89 61.46 M-1 61.38 C0.38 37.78, -1.97 15.97, 1.62 -1.09 M0.32 61.12 C-0.57 47.54, -1.45 34, -0.58 -0.32" stroke="#000000" stroke-width="1" fill="none"></path></g><g transform="translate(696 10) rotate(0 98.5 18)"><text x="0" y="25" font-family="Virgil, Segoe UI Emoji" font-size="28px" fill="#000000" text-anchor="start" style="white-space: pre;" direction="ltr">gossip mempool</text></g><g transform="translate(396 858) rotate(0 88 18)"><text x="0" y="25" font-family="Virgil, Segoe UI Emoji" font-size="28px" fill="#d9480f" text-anchor="start" style="white-space: pre;" direction="ltr">Filter_1.wasm</text></g><g stroke-linecap="round" transform="translate(709.5 836) rotate(0 100.5 30.5)"><path d="M-0.05 -0.55 C51.62 -0.63, 105.69 -3.46, 200.8 -1.39 M-0.17 0.61 C41.61 -0.93, 83.47 -0.32, 201.66 -0.27 M200.47 -0.73 C201.27 16.96, 199.72 35.05, 200.68 60.3 M200.01 -0.64 C201.47 23.38, 199.66 46.61, 201.05 61.35 M199.7 62.15 C149.31 57.57, 99.94 60.77, 1.55 61.81 M201.23 61.61 C143.18 59.7, 86.61 60.11, 0 60.77 M1.35 59.43 C0.23 48.81, -0.72 35.93, 0.15 0.76 M-0.96 61.3 C-0.79 46.32, 0.32 31.38, 0.05 0.54" stroke="#000000" stroke-width="1" fill="none"></path></g><g stroke-linecap="round" transform="translate(1065.5 835) rotate(0 100.5 30.5)"><path d="M0.09 0.63 C70.72 -0.61, 141.4 -3.04, 202.15 -0.52 M0.78 0.41 C40.76 -2, 80.9 -1.24, 201.61 -0.25 M201.01 -0.5 C199.64 19.68, 202.4 43.84, 199.43 60.75 M201.08 0.38 C200 19.32, 201.42 38.1, 201.3 60.09 M201.09 61.97 C147.1 58.75, 88.93 58.72, -0.35 60.52 M201.74 61.81 C125.83 59.62, 51.05 59.06, -0.16 61.49 M0.6 61.07 C0.99 39.37, -1.12 15.99, 0.59 1.55 M-0.34 61.69 C0.5 48.21, -0.08 33.59, 0.73 -0.38" stroke="#000000" stroke-width="1" fill="none"></path></g><g transform="translate(1078 846.5) rotate(0 92.5 18)"><text x="0" y="25" font-family="Virgil, Segoe UI Emoji" font-size="28px" fill="#d9480f" text-anchor="start" style="white-space: pre;" direction="ltr">Filter_n.wasm</text></g><g transform="translate(790.5 848.5) rotate(0 11.5 18)"><text x="11.5" y="25" font-family="Virgil, Segoe UI Emoji" font-size="28px" fill="#d9480f" text-anchor="middle" style="white-space: pre;" direction="ltr">...</text></g><g stroke-linecap="round"><g transform="translate(867.9140472935462 58) rotate(0 103.07850980481498 380.9272522865422)"><path d="M0.07 0.39 C34.81 127.39, 172.83 634.5, 207.51 761.37 M-1.35 -0.46 C33.31 126.71, 171.66 635.17, 206.5 762.31" stroke="#000000" stroke-width="1" fill="none"></path></g><g transform="translate(867.9140472935462 58) rotate(0 103.07850980481498 380.9272522865422)"><path d="M189.82 737.61 C190.97 744.05, 195.13 748.18, 207.7 762.36 M189.09 738.74 C194.28 746.17, 200.32 754.32, 206.94 762.69" stroke="#000000" stroke-width="1" fill="none"></path></g><g transform="translate(867.9140472935462 58) rotate(0 103.07850980481498 380.9272522865422)"><path d="M209.62 732.21 C206.38 739.85, 206.17 745.17, 207.7 762.36 M208.89 733.34 C207.57 742.68, 207.13 752.6, 206.94 762.69" stroke="#000000" stroke-width="1" fill="none"></path></g></g><g stroke-linecap="round"><g transform="translate(802.7329110152689 56) rotate(0 -0.07653901507035243 389.2187265299727)"><path d="M-1.14 0.55 C-1.02 130.46, 0.59 649.2, 0.98 778.65 M0.47 -0.21 C0.43 129.46, 0.16 647.35, 0.21 777.13" stroke="#000000" stroke-width="1" fill="none"></path></g><g transform="translate(802.7329110152689 56) rotate(0 -0.07653901507035243 389.2187265299727)"><path d="M-9.14 749.5 C-4.99 759.17, -3.99 768.67, -1.35 776.33 M-10.87 749.44 C-8.03 756.33, -4.32 765.53, -0.3 777.17" stroke="#000000" stroke-width="1" fill="none"></path></g><g transform="translate(802.7329110152689 56) rotate(0 -0.07653901507035243 389.2187265299727)"><path d="M11.38 749.5 C8.87 758.97, 3.23 768.48, -1.35 776.33 M9.65 749.44 C6.68 756.48, 4.59 765.68, -0.3 777.17" stroke="#000000" stroke-width="1" fill="none"></path></g></g><g stroke-linecap="round" transform="translate(297.42857142857144 1452.3571428571427) rotate(0 152.5 64.92857142857144)"><path d="M-1.12 -1.15 C88.54 0.03, 178.88 -2.03, 304.41 0.36 M0.63 0.01 C72.84 0.56, 144.91 0.87, 305.55 0.19 M303.47 -1.68 C305.08 42.07, 302.82 82.41, 305.89 129.34 M304.01 0.23 C304.79 40.19, 305.02 78.52, 305.73 130.24 M305.86 130.05 C212.39 128.97, 122.94 131.24, -1.02 129.37 M304.45 129.44 C200.9 130.6, 96.82 130.89, -0.55 129.86 M-1.16 129.72 C-1.03 85.27, 0.31 42.31, 0.19 -0.46 M0.87 129.71 C-0.69 92.01, -0.06 55.29, 0.3 -0.85" stroke="#000000" stroke-width="1" fill="none"></path></g><g transform="translate(326.42857142857144 1464.8571428571427) rotate(0 132 17)"><text x="0" y="24" font-family="Helvetica, Segoe UI Emoji" font-size="28px" fill="#d9480f" text-anchor="start" style="white-space: pre;" direction="ltr">matchmaker_1.wasm</text></g><g stroke-linecap="round"><g transform="translate(452.63547749887687 923.3196459125622) rotate(0 1.5085053602398943 30.03423133974573)"><path d="M1.13 0.77 C1.49 10.5, 2.61 49.11, 2.76 58.88 M0.26 0.13 C0.42 9.93, 1.74 49.87, 1.84 59.94" stroke="#000000" stroke-width="1" fill="none"></path></g><g transform="translate(452.63547749887687 923.3196459125622) rotate(0 1.5085053602398943 30.03423133974573)"><path d="M-7.75 32.16 C-6.64 40.53, -1.98 50.33, 2.15 58.93 M-8.18 32.11 C-6.39 38.31, -3.67 43.3, 2.34 59.02" stroke="#000000" stroke-width="1" fill="none"></path></g><g transform="translate(452.63547749887687 923.3196459125622) rotate(0 1.5085053602398943 30.03423133974573)"><path d="M12.71 31.69 C6.69 40.41, 4.21 50.38, 2.15 58.93 M12.28 31.64 C9.85 37.81, 8.34 42.9, 2.34 59.02" stroke="#000000" stroke-width="1" fill="none"></path></g></g><g stroke-linecap="round" transform="translate(1062.9285714285716 1454.2857142857142) rotate(0 152.5 74.21428571428572)"><path d="M-0.1 -0.95 C110.22 1.61, 219.18 2.92, 303.75 -0.32 M-0.08 -0.48 C121.38 0.27, 242.75 0.75, 304.89 0.28 M305.82 -1.05 C302.69 45.95, 306.21 90.5, 306.15 147.24 M304.52 -0.51 C304.57 58.12, 303.59 117.61, 304.34 147.63 M304.28 149.72 C194.7 147.4, 85.83 149.94, 0.62 147.87 M305.24 148.14 C233.33 148.79, 160.77 148.8, -0.22 148.82 M0 149.88 C-0.61 103.11, 1.1 59.74, 1.18 -0.28 M-0.72 149.13 C1.83 94.68, 0.9 39.96, 0 -0.38" stroke="#000000" stroke-width="1" fill="none"></path></g><g transform="translate(1091.9285714285716 1466.7857142857142) rotate(0 132 17)"><text x="0" y="24" font-family="Helvetica, Segoe UI Emoji" font-size="28px" fill="#d9480f" text-anchor="start" style="white-space: pre;" direction="ltr">matchmaker_n.wasm</text></g><g stroke-linecap="round" transform="translate(701.4285714285716 2165.214285714286) rotate(0 110.5 27.5)"><path d="M-0.37 0.87 C46.13 1.9, 94.32 -0.28, 219.33 1.27 M0.15 0.76 C85 0.34, 170.97 -1.22, 220.68 -0.18 M219.89 1.78 C219.6 13.98, 220.48 27.96, 222.22 56.64 M221.54 -0.15 C220.16 12.69, 220.44 26.06, 221.91 54.91 M219.91 53.5 C150.48 56.4, 80.55 54.07, -1.72 53.75 M220.35 55.24 C134.79 54.93, 47.41 56.51, -0.84 55.43 M1.15 56.5 C0.11 37.29, -0.69 17.68, 1.89 1.74 M-0.53 54.63 C0.13 38.35, -0.21 20.33, -0.79 -0.21" stroke="#000000" stroke-width="1" fill="none"></path></g><g transform="translate(738.4285714285716 2174.714285714286) rotate(0 79.5 18)"><text x="0" y="25" font-family="Virgil, Segoe UI Emoji" font-size="28px" fill="#000000" text-anchor="start" style="white-space: pre;" direction="ltr">Tx Channel</text></g><g transform="translate(430.9285714285712 992.9285714285714) rotate(0 48.5 18)"><text x="0" y="25" font-family="Virgil, Segoe UI Emoji" font-size="28px" fill="#000000" text-anchor="start" style="white-space: pre;" direction="ltr">is valid</text></g><g stroke-linecap="round" transform="translate(237.49999999999955 1821.4285714285713) rotate(0 268.92857142857133 33.5)"><path d="M0.71 0.79 C160.04 -0.18, 318.61 0.18, 538.56 -0.23 M0.01 0.29 C196.9 -1.08, 394.2 -0.53, 538.19 -0.2 M537.31 0.43 C539.26 25.08, 539.65 53.79, 539.12 65.31 M537.51 -0.25 C537.59 20.97, 539.19 42.74, 538.23 67.39 M537.14 67.27 C396.85 69.1, 256.29 69.24, 0.01 67.64 M537.71 67.01 C368.7 69.39, 200.18 69.43, 0.2 67.38 M1.18 66.75 C1.37 53.77, -0.65 38.53, -1.54 0.99 M-0.38 66.43 C1.24 52.11, -0.13 37.57, 0.97 0.8" stroke="#000000" stroke-width="1" fill="none"></path></g><g transform="translate(254.49999999999955 1837.9285714285713) rotate(0 246 17.5)"><text x="0" y="28" font-family="Cascadia, Segoe UI Emoji" font-size="28px" fill="#000000" text-anchor="start" style="white-space: pre;" direction="ltr">tx_wrapper(data:Vec&lt;u8&gt;) -&gt; Tx</text></g><g stroke-linecap="round"><g transform="translate(458.9085294063941 1602.050408585807) rotate(0 0.6976570081674822 110.20711836693829)"><path d="M-0.42 -0.31 C-0.6 36.65, -0.65 183.74, -0.31 220.65 M1.56 -1.51 C1.69 35.71, 1.98 184.6, 1.96 221.93" stroke="#000000" stroke-width="1" fill="none"></path></g><g transform="translate(458.9085294063941 1602.050408585807) rotate(0 0.6976570081674822 110.20711836693829)"><path d="M-8.84 192.32 C-5.65 205.87, -1.11 215.13, 2.73 221.16 M-8 193.39 C-5.37 200.58, -2.67 207.67, 2.75 222.07" stroke="#000000" stroke-width="1" fill="none"></path></g><g transform="translate(458.9085294063941 1602.050408585807) rotate(0 0.6976570081674822 110.20711836693829)"><path d="M11.68 192.31 C7.37 205.79, 4.42 215.05, 2.73 221.16 M12.52 193.37 C10.12 200.39, 7.79 207.47, 2.75 222.07" stroke="#000000" stroke-width="1" fill="none"></path></g></g><g stroke-linecap="round" transform="translate(908.7857142857133 1813.1428571428569) rotate(0 267.5 33.5)"><path d="M-0.64 0.67 C108.41 0.28, 216.84 0.14, 535 0.68 M0.17 0.34 C173.88 -0.68, 348.12 -0.89, 535.16 -0.13 M534.01 -1.25 C535.59 24.16, 535.06 44.55, 536.27 68.18 M535.94 -0.56 C536.2 14.19, 536.15 27.39, 535.4 67.77 M535.03 67.56 C341.01 66.17, 148.01 66.86, 0.38 66.28 M535.35 67.28 C356.07 65.06, 177.27 65.38, 0.38 66.92 M-0.87 68.63 C1.33 53.41, 2 38.3, 0.31 -0.06 M0.82 66.18 C1.2 49.54, 1.65 33.33, 0.02 0.22" stroke="#000000" stroke-width="1" fill="none"></path></g><g transform="translate(937.7857142857133 1825.6428571428569) rotate(0 246 17.5)"><text x="0" y="28" font-family="Cascadia, Segoe UI Emoji" font-size="28px" fill="#000000" text-anchor="start" style="white-space: pre;" direction="ltr">tx_wrapper(data:Vec&lt;u8&gt;) -&gt; Tx</text></g><g transform="translate(499.71428571428555 1672.7142857142856) rotate(0 57.5 35)"><text x="0" y="28" font-family="Cascadia, Segoe UI Emoji" font-size="28px" fill="#000000" text-anchor="start" style="white-space: pre;" direction="ltr">send_tx</text><text x="0" y="63" font-family="Cascadia, Segoe UI Emoji" font-size="28px" fill="#000000" text-anchor="start" style="white-space: pre;" direction="ltr">(data)</text></g><g transform="translate(313.1428571428569 1506.6428571428569) rotate(0 110 36)"><text x="0" y="25" font-family="Virgil, Segoe UI Emoji" font-size="28px" fill="#000000" text-anchor="start" style="white-space: pre;" direction="ltr">tries to match</text><text x="0" y="61" font-family="Virgil, Segoe UI Emoji" font-size="28px" fill="#000000" text-anchor="start" style="white-space: pre;" direction="ltr">asset exchange</text></g><g transform="translate(1079.1428571428569 1517.2142857142858) rotate(0 101.5 36.00000000000006)"><text x="0" y="25" font-family="Virgil, Segoe UI Emoji" font-size="28px" fill="#000000" text-anchor="start" style="white-space: pre;" direction="ltr">tries to match</text><text x="0" y="61" font-family="Virgil, Segoe UI Emoji" font-size="28px" fill="#000000" text-anchor="start" style="white-space: pre;" direction="ltr">bid for NFT</text></g><g stroke-linecap="round"><g transform="translate(1188.9494785236807 1605.3571428571422) rotate(0 0.5414621188098181 104.08190634635162)"><path d="M1.12 0.55 C1.07 35.17, 0.66 172.79, 0.45 207.31 M0.25 -0.2 C0.06 34.57, 0.13 173.55, -0.04 208.37" stroke="#000000" stroke-width="1" fill="none"></path></g><g transform="translate(1188.9494785236807 1605.3571428571422) rotate(0 0.5414621188098181 104.08190634635162)"><path d="M-9.32 181.62 C-8.19 190.68, -3.91 198.62, 0.18 208.26 M-10.86 179.24 C-6.95 188.33, -3.3 196.99, 0.06 208.01" stroke="#000000" stroke-width="1" fill="none"></path></g><g transform="translate(1188.9494785236807 1605.3571428571422) rotate(0 0.5414621188098181 104.08190634635162)"><path d="M11.2 181.66 C4.94 190.9, 1.83 198.82, 0.18 208.26 M9.66 179.28 C7.4 188.5, 4.89 197.15, 0.06 208.01" stroke="#000000" stroke-width="1" fill="none"></path></g></g><g transform="translate(642.2857142857142 1993.7857142857142) rotate(0 28.5 18)"><text x="0" y="25" font-family="Virgil, Segoe UI Emoji" font-size="28px" fill="#000000" text-anchor="start" style="white-space: pre;" direction="ltr">push</text></g><g transform="translate(945.7857142857142 1977.7857142857142) rotate(0 28.5 18)"><text x="0" y="25" font-family="Virgil, Segoe UI Emoji" font-size="28px" fill="#000000" text-anchor="start" style="white-space: pre;" direction="ltr">push</text></g><g stroke-linecap="round" transform="translate(1042.2857142857142 112.64285714285734) rotate(0 265 261.42857142857144)"><path d="M265.71 -0.17 C322.96 55.03, 377.81 109.62, 530.81 261.36 M265.76 -0.23 C350.06 82.84, 435.45 167.51, 530.13 262.5 M530.41 261.11 C426.78 364.05, 321.86 467.51, 265.78 522.03 M529.92 261.88 C469.16 321.11, 409.84 380.2, 265.48 522.39 M266.86 524.06 C183.74 442.22, 100.96 360.56, -0.19 262.07 M266.02 522.4 C165.72 423.66, 64.85 324.81, -0.24 262.01 M-0.3 262.07 C85.57 175.96, 170.83 94.29, 265.19 0.58 M0.4 262.23 C102.81 161.27, 205.64 59.63, 265.77 0.2" stroke="#000000" stroke-width="1" fill="none"></path></g><g transform="translate(1143.7857142857144 207.28571428571422) rotate(0 170.5 170)"><text x="170.5" y="24" font-family="Helvetica, Segoe UI Emoji" font-size="28px" fill="#000000" text-anchor="middle" style="white-space: pre;" direction="ltr">intent type </text><text x="170.5" y="58" font-family="Helvetica, Segoe UI Emoji" font-size="28px" fill="#000000" text-anchor="middle" style="white-space: pre;" direction="ltr"></text><text x="170.5" y="92" font-family="Helvetica, Segoe UI Emoji" font-size="28px" fill="#000000" text-anchor="middle" style="white-space: pre;" direction="ltr"></text><text x="170.5" y="126" font-family="Helvetica, Segoe UI Emoji" font-size="28px" fill="#000000" text-anchor="middle" style="white-space: pre;" direction="ltr">- Asset Exchange V1,... ,Vn</text><text x="170.5" y="160" font-family="Helvetica, Segoe UI Emoji" font-size="28px" fill="#000000" text-anchor="middle" style="white-space: pre;" direction="ltr"></text><text x="170.5" y="194" font-family="Helvetica, Segoe UI Emoji" font-size="28px" fill="#000000" text-anchor="middle" style="white-space: pre;" direction="ltr">- NFT Bid V1, ....,Vm</text><text x="170.5" y="228" font-family="Helvetica, Segoe UI Emoji" font-size="28px" fill="#000000" text-anchor="middle" style="white-space: pre;" direction="ltr"></text><text x="170.5" y="262" font-family="Helvetica, Segoe UI Emoji" font-size="28px" fill="#000000" text-anchor="middle" style="white-space: pre;" direction="ltr">- Proposal tax rate</text><text x="170.5" y="296" font-family="Helvetica, Segoe UI Emoji" font-size="28px" fill="#000000" text-anchor="middle" style="white-space: pre;" direction="ltr"></text><text x="170.5" y="330" font-family="Helvetica, Segoe UI Emoji" font-size="28px" fill="#000000" text-anchor="middle" style="white-space: pre;" direction="ltr">- ...</text></g><g stroke-linecap="round"><g transform="translate(450.3862781852455 1897.0000000000002) rotate(0 180.69274323288738 129.06926035438676)"><path d="M-0.78 1.11 C59.73 43.8, 301.92 213.33, 362.17 255.97 M1.01 0.65 C61.5 43.56, 301.22 215.09, 361.59 257.49" stroke="#000000" stroke-width="1" fill="none"></path></g><g transform="translate(450.3862781852455 1897.0000000000002) rotate(0 180.69274323288738 129.06926035438676)"><path d="M334.52 250.72 C339.13 250.29, 347.25 252.66, 361.61 256.52 M332.64 249.95 C340.91 251.95, 349.3 253.01, 361.85 257.93" stroke="#000000" stroke-width="1" fill="none"></path></g><g transform="translate(450.3862781852455 1897.0000000000002) rotate(0 180.69274323288738 129.06926035438676)"><path d="M346.4 233.98 C348.3 237.25, 353.74 243.41, 361.61 256.52 M344.52 233.22 C349.46 239.82, 354.57 245.48, 361.85 257.93" stroke="#000000" stroke-width="1" fill="none"></path></g></g><g stroke-linecap="round"><g transform="translate(1177.4663097459384 1887.0000000000002) rotate(0 -152.27551280394005 132.93996181115517)"><path d="M-0.76 -0.59 C-51.6 43.69, -253.98 222.08, -304.74 266.47 M1.04 1.72 C-49.97 45.56, -254.37 220.38, -305.59 264.59" stroke="#000000" stroke-width="1" fill="none"></path></g><g transform="translate(1177.4663097459384 1887.0000000000002) rotate(0 -152.27551280394005 132.93996181115517)"><path d="M-291.86 238.75 C-294.71 246.19, -300.67 254.87, -305.75 263.84 M-291.25 238.96 C-293.72 243.69, -296.89 248.42, -306.1 264.81" stroke="#000000" stroke-width="1" fill="none"></path></g><g transform="translate(1177.4663097459384 1887.0000000000002) rotate(0 -152.27551280394005 132.93996181115517)"><path d="M-278.5 254.32 C-285.79 256.62, -296.09 260.24, -305.75 263.84 M-277.88 254.53 C-283.12 256.1, -288.99 257.67, -306.1 264.81" stroke="#000000" stroke-width="1" fill="none"></path></g></g><g stroke-linecap="round" transform="translate(610.9285714285716 1014.6071428571429) rotate(0 212.5 193.5)"><path d="M212.07 0.82 C288.13 68.06, 363.26 134.6, 424.46 194.31 M213.22 0.4 C278.22 58.87, 343.37 118.13, 425.7 193.75 M423.78 193.92 C340.26 270.91, 258.38 347.23, 212.22 385.86 M424.9 194.61 C376.17 239, 327.65 282.63, 213.73 386.49 M214.31 385.53 C130.71 313.83, 50.1 240.66, -0.45 193.98 M212.26 387.34 C150.7 331.1, 88.16 274.58, -0.41 193.37 M0.15 193.72 C82 117.94, 162.99 45.17, 212.29 -0.41 M-0.5 193.29 C84 117.09, 167.34 40.71, 212.67 -0.06" stroke="#000000" stroke-width="1" fill="none"></path></g><g transform="translate(731.9285714285716 1090.607142857143) rotate(0 85 23)"><text x="0" y="32" font-family="Virgil, Segoe UI Emoji" font-size="36px" fill="#000000" text-anchor="start" style="white-space: pre;" direction="ltr">database</text></g><g stroke-linecap="round"><g transform="translate(533.3073244931843 1031.01183652871) rotate(0 54.259219850633826 87.36295900690254)"><path d="M0.56 0.16 C18.63 29.05, 90.96 145.16, 109.13 174.4 M-0.61 -0.8 C17.27 28.75, 90.05 146.49, 108.35 175.52" stroke="#000000" stroke-width="1" fill="none"></path></g><g transform="translate(533.3073244931843 1031.01183652871) rotate(0 54.259219850633826 87.36295900690254)"><path d="M85 157.55 C92.03 164.79, 102.42 169.54, 110.01 174.82 M85.24 157.54 C88.64 161, 95.47 164.1, 109.28 174.55" stroke="#000000" stroke-width="1" fill="none"></path></g><g transform="translate(533.3073244931843 1031.01183652871) rotate(0 54.259219850633826 87.36295900690254)"><path d="M102.42 146.7 C103.32 157.9, 107.47 166.53, 110.01 174.82 M102.66 146.69 C102.31 152.47, 105.47 157.85, 109.28 174.55" stroke="#000000" stroke-width="1" fill="none"></path></g></g><g stroke-linecap="round"><g transform="translate(381.92857142857156 913.6071428571429) rotate(0 -34.369184567448656 30.998778232419852)"><path d="M0.9 0.08 C-10.56 10.43, -57.14 51.35, -68.46 61.6 M-0.08 -0.93 C-11.77 9.64, -58.46 52.33, -69.64 62.93" stroke="#000000" stroke-width="1" fill="none"></path></g><g transform="translate(381.92857142857156 913.6071428571429) rotate(0 -34.369184567448656 30.998778232419852)"><path d="M-55.83 35.47 C-61.24 46.83, -65.81 55.5, -67.87 64.17 M-55.01 36.97 C-61.06 45.71, -66.16 55.08, -69.41 63.56" stroke="#000000" stroke-width="1" fill="none"></path></g><g transform="translate(381.92857142857156 913.6071428571429) rotate(0 -34.369184567448656 30.998778232419852)"><path d="M-41.87 50.52 C-51.8 57.03, -60.96 60.77, -67.87 64.17 M-41.05 52.02 C-52.26 55.42, -62.4 59.34, -69.41 63.56" stroke="#000000" stroke-width="1" fill="none"></path></g></g><g transform="translate(253.92857142857156 981.6071428571429) rotate(0 37 23)"><text x="0" y="32" font-family="Virgil, Segoe UI Emoji" font-size="36px" fill="#000000" text-anchor="start" style="white-space: pre;" direction="ltr">drop</text></g><g stroke-linecap="round"><g transform="translate(487.92857142857156 1033.607142857143) rotate(0 -3.9163063048803792 203.14835711734835)"><path d="M-0.6 0.53 C-2.28 68.28, -7.75 339.06, -9.11 406.54 M1.28 -0.24 C-0.13 67.15, -5.72 336.92, -6.98 404.7" stroke="#000000" stroke-width="1" fill="none"></path></g><g transform="translate(487.92857142857156 1033.607142857143) rotate(0 -3.9163063048803792 203.14835711734835)"><path d="M-15.81 374.46 C-12.09 385.83, -10.27 399.82, -7.55 404.57 M-15.72 376.61 C-14.19 384.78, -9.62 394.92, -7.95 405.25" stroke="#000000" stroke-width="1" fill="none"></path></g><g transform="translate(487.92857142857156 1033.607142857143) rotate(0 -3.9163063048803792 203.14835711734835)"><path d="M4.71 374.87 C0.62 385.98, -5.36 399.82, -7.55 404.57 M4.79 377.01 C-0.21 384.96, -2.16 394.97, -7.95 405.25" stroke="#000000" stroke-width="1" fill="none"></path></g></g><g transform="translate(513.9285714285716 1183.607142857143) rotate(0 26.5 23)"><text x="0" y="32" font-family="Virgil, Segoe UI Emoji" font-size="36px" fill="#000000" text-anchor="start" style="white-space: pre;" direction="ltr">run</text></g><g transform="translate(325.92857142857156 1133.607142857143) rotate(0 32.5 23)"><text x="0" y="32" font-family="Virgil, Segoe UI Emoji" font-size="36px" fill="#000000" text-anchor="start" style="white-space: pre;" direction="ltr">add</text></g><g stroke-linecap="round"><g transform="translate(1172.3837617831516 908.5565236307668) rotate(0 -0.9164517833874015 27.304770598021832)"><path d="M1.05 -0.47 C0.6 8.63, -1.16 45.81, -1.67 55.08 M0.14 -1.76 C-0.6 7.46, -2.93 46.69, -2.88 56.37" stroke="#000000" stroke-width="1" fill="none"></path></g><g transform="translate(1172.3837617831516 908.5565236307668) rotate(0 -0.9164517833874015 27.304770598021832)"><path d="M-12.31 29.15 C-8.89 38.64, -5.38 50.05, -3.63 55.32 M-11.55 29.77 C-9.67 38.63, -5.87 45.91, -2.74 55.55" stroke="#000000" stroke-width="1" fill="none"></path></g><g transform="translate(1172.3837617831516 908.5565236307668) rotate(0 -0.9164517833874015 27.304770598021832)"><path d="M6.68 29.77 C2.81 39.19, -0.97 50.36, -3.63 55.32 M7.45 30.38 C3.44 38.94, 1.37 46.02, -2.74 55.55" stroke="#000000" stroke-width="1" fill="none"></path></g></g><g transform="translate(1136.428571428571 973.9285714285714) rotate(0 48.5 18)"><text x="0" y="25" font-family="Virgil, Segoe UI Emoji" font-size="28px" fill="#000000" text-anchor="start" style="white-space: pre;" direction="ltr">is valid</text></g><g stroke-linecap="round"><g transform="translate(1151.8508824450746 1020.1001539378572) rotate(0 -80.06632993748349 88.32036449220575)"><path d="M-0.83 -0.36 C-27.43 29.21, -133.45 147.29, -160.08 176.93 M0.93 -1.59 C-25.79 28.18, -133.95 148.15, -161.07 178.23" stroke="#000000" stroke-width="1" fill="none"></path></g><g transform="translate(1151.8508824450746 1020.1001539378572) rotate(0 -80.06632993748349 88.32036449220575)"><path d="M-150.41 150.31 C-153.58 156.5, -155.56 165.48, -162.34 178.19 M-149.6 149.96 C-153.07 157.43, -156.03 165.81, -161.72 178.9" stroke="#000000" stroke-width="1" fill="none"></path></g><g transform="translate(1151.8508824450746 1020.1001539378572) rotate(0 -80.06632993748349 88.32036449220575)"><path d="M-135.16 164.05 C-142.24 166.57, -148.17 171.99, -162.34 178.19 M-134.36 163.7 C-141.97 167.4, -149.19 171.93, -161.72 178.9" stroke="#000000" stroke-width="1" fill="none"></path></g></g><g stroke-linecap="round"><g transform="translate(1266.1148808294615 909.2631332623532) rotate(0 45.475959054614805 62.91139175738911)"><path d="M-0.36 -0.07 C14.94 21.03, 75.94 104.62, 91.31 125.76 M1.66 -1.15 C16.8 20.17, 75.21 105.99, 90.13 126.97" stroke="#000000" stroke-width="1" fill="none"></path></g><g transform="translate(1266.1148808294615 909.2631332623532) rotate(0 45.475959054614805 62.91139175738911)"><path d="M65.51 108.92 C70.84 114.43, 78.99 117.48, 90.09 126.57 M65.17 109.8 C69.99 113.55, 75.69 116.17, 90.79 126.27" stroke="#000000" stroke-width="1" fill="none"></path></g><g transform="translate(1266.1148808294615 909.2631332623532) rotate(0 45.475959054614805 62.91139175738911)"><path d="M82.37 97.22 C83.22 105.73, 86.99 111.83, 90.09 126.57 M82.03 98.1 C83.38 104.32, 85.57 109.38, 90.79 126.27" stroke="#000000" stroke-width="1" fill="none"></path></g></g><g transform="translate(1341.4285714285716 1044.607142857143) rotate(0 37 23)"><text x="0" y="32" font-family="Virgil, Segoe UI Emoji" font-size="36px" fill="#000000" text-anchor="start" style="white-space: pre;" direction="ltr">drop</text></g><g stroke-linecap="round"><g transform="translate(1193.4285714285716 1014.6071428571429) rotate(0 -3.627636585729192 202.90062925443053)"><path d="M-0.45 -0.63 C-1.7 67.12, -6.5 338.66, -7.89 406.43 M1.52 1.65 C0.15 69.04, -7.48 336.93, -8.77 404.54" stroke="#000000" stroke-width="1" fill="none"></path></g><g transform="translate(1193.4285714285716 1014.6071428571429) rotate(0 -3.627636585729192 202.90062925443053)"><path d="M-19.4 376.29 C-15.06 382.55, -13.23 391.1, -10.61 405.4 M-19.16 376.44 C-15.63 384.57, -11.66 393.65, -8.1 404.82" stroke="#000000" stroke-width="1" fill="none"></path></g><g transform="translate(1193.4285714285716 1014.6071428571429) rotate(0 -3.627636585729192 202.90062925443053)"><path d="M1.12 376.79 C-0.08 382.84, -3.8 391.25, -10.61 405.4 M1.35 376.94 C-1.7 384.94, -4.32 393.86, -8.1 404.82" stroke="#000000" stroke-width="1" fill="none"></path></g></g><g transform="translate(1219.4285714285716 1164.607142857143) rotate(0 26.5 23)"><text x="0" y="32" font-family="Virgil, Segoe UI Emoji" font-size="36px" fill="#000000" text-anchor="start" style="white-space: pre;" direction="ltr">run</text></g><g transform="translate(1019.4285714285716 1046.607142857143) rotate(0 32.5 23)"><text x="0" y="32" font-family="Virgil, Segoe UI Emoji" font-size="36px" fill="#000000" text-anchor="start" style="white-space: pre;" direction="ltr">add</text></g><g stroke-linecap="round" transform="translate(634.4285714285716 1174.107142857143) rotate(0 55 49.5)"><path d="M57.64 -0.02 C70.26 13.22, 88.61 30.7, 108.74 50.9 M56.04 -0.61 C73.78 16.05, 92.7 33.39, 110.14 50.24 M111.2 50.69 C89.39 66.44, 70.97 85.85, 55.66 100.79 M109.39 50.36 C93.54 66.08, 74.39 81.69, 55.19 98.27 M54.33 97.31 C41.24 84.6, 27.36 71.8, 0.14 49.68 M55.11 99.66 C38.67 83.7, 20.85 69.29, 0.76 49.93 M-0.03 50.52 C16.6 37.85, 30.93 23.86, 55.03 -0.39 M0.37 49.61 C15.96 33.95, 32.82 20.92, 55.39 0.3" stroke="#000000" stroke-width="1" fill="none"></path></g><g transform="translate(654.9285714285716 1214.107142857143) rotate(0 38 13)"><text x="0" y="18" font-family="Virgil, Segoe UI Emoji" font-size="20px" fill="#000000" text-anchor="start" style="white-space: pre;" direction="ltr">table 1 </text></g><g transform="translate(925.9285714285716 1208.607142857143) rotate(0 35 13)"><text x="35" y="18" font-family="Virgil, Segoe UI Emoji" font-size="20px" fill="#000000" text-anchor="middle" style="white-space: pre;" direction="ltr">table n</text></g><g stroke-linecap="round" transform="translate(906.9285714285716 1174.607142857143) rotate(0 55 49.5)"><path d="M57.33 0.64 C71.74 16.58, 92.46 31.99, 108.54 51.89 M56.13 0.27 C71.74 14.12, 85.23 27.46, 109.99 50.84 M110.21 51.48 C96.72 61.98, 84.98 72.12, 56.09 97.01 M109.07 49.31 C91.87 65.88, 75.38 81.18, 56.34 99.14 M57.26 98.11 C35.73 84.4, 20.07 68.26, -0.55 51.59 M55.4 98.23 C37.16 82.52, 17.17 64.91, 0.39 49.62 M-1.62 51.72 C21.83 31.74, 42.04 10.15, 54.14 1.46 M-0.35 49.52 C10.33 40.5, 22.36 30.33, 56.63 -0.59" stroke="#000000" stroke-width="1" fill="none"></path></g></svg>