<svg version="1.1" xmlns="http://www.w3.org/2000/svg" viewBox="0 0 1643.5462962962963 802.5" width="1643.5462962962963" height="802.5">
  <!-- svg-source:excalidraw -->
  
  <defs>
    <style>
      @font-face {
        font-family: "Virgil";
        src: url("https://excalidraw.com/Virgil.woff2");
      }
      @font-face {
        font-family: "Cascadia";
        src: url("https://excalidraw.com/Cascadia.woff2");
      }
    </style>
  </defs>
  <rect x="0" y="0" width="1643.5462962962963" height="802.5" fill="#ffffff"></rect><g transform="translate(270.4537037037037 10) rotate(0 681.5462962962963 297.00000000000006)"><path d="M-0.27156249806284904 0.20665600821375849 C527.2038002634507 -5.148723955858706, 1055.983247039857 -6.057809205759525, 1362.7984861158386 -0.013739389926195146 M-0.29770428873598576 -0.08372157476842404 C543.1119624737357 4.929751072580685, 1085.885865304933 4.300949237997402, 1363.212904487233 0.3754661832004786 M1363.1768871091858 0.1806104712188244 C1363.7010083823532 197.14821374323222, 1364.069562092337 394.4315450120718, 1362.583891012575 593.6660309605302 M1363.2238092762038 0.36053459979593755 C1364.1793755525084 221.40148392971608, 1364.2165748709174 442.35159196630127, 1363.132587407212 594.1896964941175 M1363.533697035219 593.7525500111283 C940.0569241243915 591.992808731428, 517.9614324940817 591.4231720288905, 0.2900829859077931 593.3958127550782 M1362.7910416346595 593.8337096128614 C941.1565140482608 591.4553055356978, 519.144108272775 591.8517867516516, -0.33810707069933416 594.0335902724416 M0.345473725348711 593.5621963076295 C-0.043462302781641426 440.92423677388587, 0.9475813364014031 285.7396517213434, -0.2003650836646557 0.17704642340540888 M0.046119251474738124 593.8223879370839 C-0.338851608283818 370.2679417433218, -0.5370061411932113 147.41359663903714, -0.1285079214721918 -0.005877384170889855" stroke="#000000" stroke-width="1" fill="none"></path></g><g transform="translate(886.4537037037037 19) rotate(0 42 23)"><text x="0" y="32" font-family="Virgil, Segoe UI Emoji" font-size="36px" fill="#000000" text-anchor="start" style="white-space: pre;" direction="ltr">Node</text></g><g><g transform="translate(157.4537037037037 108.00235129071123) rotate(0 125.1497770866514 -1.884200672210497)"><path d="M0.4303272943943739 0.3288277108222246 C41.862115649275005 -0.3444163144135596, 207.23904546793312 -3.4808297413111338, 248.78821396502568 -4.097229055243207 M-0.8028896053880454 -0.544141686335206 C40.9973101712684 -0.9996451710665346, 209.45964459102365 -1.7205590395153174, 251.10244377869083 -2.509893624710513" stroke="#000000" stroke-width="1" fill="none"></path></g><g transform="translate(157.4537037037037 108.00235129071123) rotate(0 125.1497770866514 -1.884200672210497)"><path d="M223.56987639595965 6.785856532491424 C232.07166409437073 4.905762178169378, 242.17073857516306 3.0952558474759293, 251.93875775466574 -0.7979593394721278 M222.25116317332933 7.179886944219151 C232.8506493927748 4.76939940195906, 242.6314225213422 1.35503972771137, 251.97668293378217 -2.111638210381044" stroke="#000000" stroke-width="1" fill="none"></path></g><g transform="translate(157.4537037037037 108.00235129071123) rotate(0 125.1497770866514 -1.884200672210497)"><path d="M223.35270364317637 -13.734202882171287 C231.91333934928693 -9.121359869882296, 242.08113966493408 -4.438150039272029, 251.93875775466574 -0.7979593394721278 M222.03399042054605 -13.34017247044356 C232.88355338636256 -8.792923838422627, 242.7379468048623 -5.251103678061594, 251.97668293378217 -2.111638210381044" stroke="#000000" stroke-width="1" fill="none"></path></g></g><g transform="translate(412.4537037037037 51) rotate(0 111 57.5)"><path d="M113.86121238581836 -1.416924161836505 C136.52135564440863 13.132202478777618, 160.63141639864074 26.79382067071274, 221.717177702114 57.884858744218946 M112.21565366629511 -0.1818742686882615 C134.74512277456 11.68556739529595, 155.27419039240107 22.71026465939358, 221.0723013067618 57.05637869890779 M221.23398192040622 57.54127992875874 C185.11826480115764 78.90212266966701, 145.3341119031515 97.00380304390565, 113.34307338111103 114.49517961032689 M221.1387702608481 57.57926139887422 C190.6646835987363 73.78591909427196, 158.50297505286522 89.84181232312694, 111.26932174805552 114.43010038789362 M112.74996854178607 116.73148055560887 C74.83014556326904 95.54961285991594, 37.150648334706204 74.58701750133187, -0.9276698101311922 58.45059515722096 M111.54784972313792 115.25398559030145 C86.50516433957031 102.7841787688993, 60.102960247723374 89.8910246053338, 0.7110025668516755 58.80490449722856 M-1.8645704258233309 57.32097508199513 C27.28872399987653 42.985759631879624, 58.35640260489658 27.275079575330015, 111.34800232760608 -0.579644126817584 M-0.10724832769483328 57.015973842702806 C33.50038775706664 38.816947415620085, 66.16397174650804 22.52225201237946, 112.9419299447909 -0.0996349984779954" stroke="#000000" stroke-width="1" fill="none"></path></g><g transform="translate(449.4537037037037 94) rotate(0 77 13)"><text x="0" y="18" font-family="Virgil, Segoe UI Emoji" font-size="20px" fill="#000000" text-anchor="start" style="white-space: pre;" direction="ltr">Inclusive filters</text></g><g transform="translate(679.4537037037037 79) rotate(0 400.5 221.5)"><path d="M-0.39532605931162834 0.415790968388319 C279.9698227896355 -0.6592599081359801, 559.0176689347252 -0.2890818523727354, 800.6346232481301 -0.3011895127594471 M0.08739450238645077 0.22002469636499883 C288.47520580636336 -2.6696131018586455, 576.812165288441 -2.9986178783364594, 801.0964247848839 0.12079112865030767 M800.9478134148181 -0.8357925135942652 C799.2323893073461 166.41915410724187, 800.9128264514685 334.88584424173007, 801.3932428770195 443.2266734081041 M801.016394920716 0.48254108270017876 C801.9515851136613 113.78078611701066, 802.2892896091878 228.95443026452685, 801.0767367646439 443.0174317278954 M800.9178840942681 442.38311441466215 C553.1362381399609 444.77693466484175, 305.47073674742126 443.9070690804683, -0.4515425138175488 443.3913155131042 M801.104907086119 442.96995405294 C601.6898925500922 444.9540268584974, 402.3537869343534 445.2072387263067, -0.3317482087761164 442.7822141680866 M0.7852069442722752 443.0966789669995 C1.2522681089685563 303.6359800663058, -0.1388935106327409 163.0130329447915, -0.5851696378226324 0.5834078637069985 M0.09642671702639087 443.18325118091417 C-0.7574607256515842 332.1303163351876, -1.255093847555266 221.6771520050593, -0.4651794897735216 -0.16864205765981896" stroke="#000000" stroke-width="1" fill="none"></path></g><g transform="translate(282.4537037037037 202) rotate(0 32 24.5)"><path d="M33.43744283173227 0.024828960498364694 C39.94961261209037 -0.1626022969659496, 48.61585765699932 3.4457544111973437, 53.79414332892115 6.856225072808616 C58.972429000842986 10.266695734419889, 63.655984535293555 15.528045143730635, 64.50715686326328 20.487652930166 C65.358329191233 25.447260716601363, 62.66484962358455 31.91182686576103, 58.9011772967395 36.613871791420806 C55.137504969894444 41.31591671708058, 48.25516729516248 46.909101953402335, 41.92512290219297 48.699922484124656 C35.595078509223455 50.49074301484698, 27.14258503224916 49.572085620893155, 20.92091093892241 47.35879497575472 C14.699236845595664 45.14550433061628, 8.090801502718866 40.043319734864, 4.595078342232476 35.42017861329404 C1.0993551817460863 30.797037491724083, -1.1863235935727847 24.697757419959387, -0.053428023995927276 19.619948246334978 C1.0794675455809302 14.54213907271057, 4.39639888848044 7.923642113184938, 11.392451759693621 4.953323571547596 C18.3885046309068 1.9830050299102542, 35.72689209000448 1.8714670389152186, 41.92288920328316 1.7980369965109269 C48.11888631656184 1.7246069541066351, 48.95963415814596 4.272923646858993, 48.56843443936572 4.512743317121846 M42.01841235344784 2.067306042061791 C47.940015690190414 3.4439937750118537, 55.29845608754297 8.403138154516874, 58.90732699254352 12.739402206340102 C62.51619789754407 17.07566625816333, 64.65254833336726 22.886111405326595, 63.67163778345113 28.084890353001153 C62.690727233535 33.28366930067571, 58.10994394924503 40.6569942327433, 53.02186369304673 43.93207589238745 C47.93378343684844 47.2071575520316, 39.90902198039067 48.00551041840942, 33.143156246261356 47.73538031086608 C26.377290512132042 47.46525020332273, 18.013743053516475 45.744777188901764, 12.426669288270855 42.3112952471274 C6.839595523025235 38.87781330535303, 1.1056598636770048 32.249011840667, -0.3792863452123605 27.13448866021989 C-1.8642325541017257 22.01996547977278, -0.09135483913409415 15.975728810235037, 3.5169920349346633 11.624156164444722 C7.125338909003421 7.272583518654408, 14.614371193975149 2.732552046508018, 21.270794899200183 1.0250527854780103 C27.927218604425217 -0.6824464755519974, 39.734558541002166 1.2458542416308458, 43.455534266284864 1.3791605982646757 C47.17650999156756 1.5124669548985057, 44.000554576643715 1.335279954063474, 43.596649250896384 1.8248909252809895" stroke="#000000" stroke-width="1" fill="none"></path></g><g transform="translate(288.9537037037037 216.5) rotate(0 21.5 13)"><text x="21.5" y="18" font-family="Virgil, Segoe UI Emoji" font-size="20px" fill="#000000" text-anchor="middle" style="white-space: pre;" direction="ltr">drop</text></g><g><g transform="translate(593.583536031254 139.01382559608885) rotate(0 78.62927945363862 32.61864359730497)"><path d="M0.13548347465693955 -0.07719483487308021 C26.723011903960145 11.074328396263274, 132.25337830433566 55.257690266979495, 158.51108533776483 66.4006132631305 M-1.2525264304876327 -1.163326068520546 C25.34692417946819 9.69377944515899, 131.68023826556222 53.64487863534467, 158.05030594094774 64.67834950546951" stroke="#000000" stroke-width="1" fill="none"></path></g><g transform="translate(593.583536031254 139.01382559608885) rotate(0 78.62927945363862 32.61864359730497)"><path d="M127.95152644163159 64.88663680003906 C135.80368876790567 63.75899000545841, 142.89492018708364 61.94908728242945, 158.05863956249436 62.95059518265755 M127.31523382293221 62.40563956266219 C135.48015582236613 64.15665262142596, 144.3806781786396 64.73331767184926, 157.06649597901037 65.18767682678283" stroke="#000000" stroke-width="1" fill="none"></path></g><g transform="translate(593.583536031254 139.01382559608885) rotate(0 78.62927945363862 32.61864359730497)"><path d="M135.82363138628327 45.93538443703597 C141.8991009563675 48.900485747115546, 147.29394967688216 51.17444329432378, 158.05863956249436 62.95059518265755 M135.1873387675839 43.4543871996591 C141.1380138634579 50.4209369264409, 147.84572850411186 56.276552485581576, 157.06649597901037 65.18767682678283" stroke="#000000" stroke-width="1" fill="none"></path></g></g><g transform="translate(708.4537037037037 164) rotate(0 108.5 69)"><path d="M107.2098390776664 -0.8578819651156664 C134.279794654157 15.119787100329997, 158.45713524697348 29.660898175649347, 215.3081255275756 69.52734160237014 M108.67629426624626 0.4005259731784463 C142.3132282669656 21.963966025002303, 176.50398570662367 43.48251438602806, 217.08349135424942 70.21116097364575 M215.35794499702752 70.36295151524246 C173.70731554869562 98.05817637357862, 132.06449735816568 121.71746523853392, 110.50326094217598 137.90893977694213 M216.16617515590042 70.44095046911389 C181.30508052021264 91.36325760833918, 147.46448689796028 113.82913726955653, 109.11289155390114 137.38819836173207 M108.71535763330758 138.02831739000976 C77.76067262357101 119.16484979438596, 50.6901114244014 101.35868763412348, 0.527148874476552 68.00331985764205 M108.3235431900248 138.75332568679005 C85.86549681244418 123.58437355452219, 62.883508367799216 107.90416901365855, 0.2339427163824439 70.64886249694973 M1.3268157560378313 68.723359702155 C23.167090399563314 52.230895769009365, 48.44128359286115 37.661618787022306, 110.19210621900856 0.1592977624386549 M0.8794469526037574 69.78384913597256 C41.469494050182405 43.65201999257319, 82.4493210545741 18.092194371959195, 109.96577936317772 -0.8643600484356284" stroke="#000000" stroke-width="1" fill="none"></path></g><g transform="translate(741.4537037037037 218) rotate(0 79.5 13)"><text x="79.5" y="18" font-family="Virgil, Segoe UI Emoji" font-size="20px" fill="#000000" text-anchor="middle" style="white-space: pre;" direction="ltr">Exclusive filters</text></g><g transform="translate(997.4537037037037 80) rotate(0 66.5 23)"><text x="0" y="32" font-family="Virgil, Segoe UI Emoji" font-size="36px" fill="#000000" text-anchor="start" style="white-space: pre;" direction="ltr">Mempool</text></g><g transform="translate(1059.4537037037037 330) rotate(0 188 89.5)"><path d="M-0.08588709732847138 0.9791040573574178 C75.32644342166675 -0.6602288984917014, 150.77520535960804 -0.2354882494861692, 376.688628062151 0.5690968899453036 M0.18902628586470446 -0.2480774248502966 C137.9745736858707 0.961485229969971, 276.72955585640244 1.9369955856618688, 375.7303269909286 -0.59394328747431 M375.2612852435559 1.499991687014699 C373.20209992115383 44.51586506282911, 374.6920635122526 91.56350914482027, 374.6824089270085 177.56131562776864 M376.65647600684315 0.7533263256773353 C375.2171929443534 64.1247648450546, 374.4047000671085 129.31776613146067, 376.8464082637802 179.97330093290657 M376.5586224895507 178.91841870349595 C255.47720313387183 181.00393043595366, 134.93183021769562 181.22254147556743, 0.13430365047214105 178.44687834072099 M376.450526348516 179.13074921722364 C228.42078858804064 177.84845206667174, 81.13022727492205 178.08435729521136, 0.5520901411767777 179.03637434423663 M0.7172706704586744 178.37253371067345 C-0.4951097263861448 117.8186607823707, -1.6966553821135313 56.17021578680722, 1.083397863432765 0.6982657629996538 M-0.30290003027766943 179.71263846661896 C-1.4612629866506905 107.83877881253137, -0.31377394556067895 36.80180174969135, -0.7740376433357596 0.4289185395464301" stroke="#000000" stroke-width="1" fill="none"></path></g><g transform="translate(1093.4537037037037 339) rotate(0 125.5 18)"><text x="0" y="25" font-family="Virgil, Segoe UI Emoji" font-size="28px" fill="#000000" text-anchor="start" style="white-space: pre;" direction="ltr">Intent of interest</text></g><g transform="translate(1025.4537037037037 129.5) rotate(0 206 194)"><path d="M-0.6928905708178779 -0.4012127497936344 C87.16530554488311 0.8136879992484638, 173.63284847754957 0.8747044640963384, 412.74022388247226 0.387667612254872 M0.2900754141267846 0.20707691402555584 C96.96561909067614 -1.6296717904608908, 192.7621512306605 -1.5487831727644745, 412.4103581282433 0.25705722535455106 M411.6034289028291 -0.4431723438774146 C411.4327825315644 138.04276372724297, 410.1220241744632 277.0363862138869, 412.12809331538784 388.26400308051785 M411.50066872872395 -0.35802297238043956 C410.600980611317 117.96318573899909, 411.2564367128994 236.0179750262167, 412.3347479073603 387.70291858278574 M411.2479906235907 387.19165054119287 C288.7949593490748 388.73596775895334, 167.47048279704205 388.48052979079495, 0.10936857406840096 387.05465485578503 M411.82733720745114 388.14021606918413 C264.7163191317383 386.55878797320355, 116.7654238178735 386.27506224083817, -0.041469474401979504 387.9216099420465 M-0.7426747403316342 387.6001566516887 C0.262828527295106 293.6460274392813, -1.8025274291850395 199.33491382086422, -0.1972103399722658 0.05763599875709638 M0.11735273766182475 388.37376607394236 C0.7414283761587931 297.1376687595342, 0.5516676308120204 205.2511522461839, 0.1882312450419169 -0.5652145816297095" stroke="#000000" stroke-width="1" fill="none"></path></g><g transform="translate(1116.4537037037037 149.5) rotate(0 109.5 18)"><text x="0" y="25" font-family="Virgil, Segoe UI Emoji" font-size="28px" fill="#000000" text-anchor="start" style="white-space: pre;" direction="ltr">Intents mempool</text></g><g><g transform="translate(929.4537037037037 239) rotate(0 87.87290717233907 -0.07434127600862439)"><path d="M-0.1789535533636808 -0.6669744182378053 C29.56765080578625 -0.4279538918286562, 147.81802694685757 0.27875176183879374, 177.47785724289716 0.2469718884676695 M-1.7320428982190788 1.5972600668482482 C27.986007460672408 1.556134117823094, 146.92137222500517 -1.4813267749734225, 176.78068683179094 -1.7459426188655198" stroke="#000000" stroke-width="1" fill="none"></path></g><g transform="translate(929.4537037037037 239) rotate(0 87.87290717233907 -0.07434127600862439)"><path d="M147.66776178427847 9.817432824321521 C155.36034314983127 8.031557589263677, 159.5821214721983 4.734013009589958, 175.40856934407725 -3.2291920466162267 M149.11571354535283 9.896891644955112 C154.54774303060478 7.150232914627967, 159.80193547327062 4.473676690014195, 176.3213994556479 -2.006876419465989" stroke="#000000" stroke-width="1" fill="none"></path></g><g transform="translate(929.4537037037037 239) rotate(0 87.87290717233907 -0.07434127600862439)"><path d="M147.29796182098556 -10.70044353686625 C154.86763014178885 -8.043251945001199, 159.16947727756985 -6.898281172897565, 175.40856934407725 -3.2291920466162267 M148.74591358205993 -10.620984716232659 C154.0509139169715 -9.194592816526367, 159.38030283478705 -7.698969124787547, 176.3213994556479 -2.006876419465989" stroke="#000000" stroke-width="1" fill="none"></path></g></g><g><g transform="translate(899.3370730624297 262.4382259377689) rotate(0 77.62192283416897 71.7087315899858)"><path d="M0.9346926402300595 0.9484365452080963 C26.668145953537238 24.71385766862512, 129.44831143826846 119.44410902106168, 155.27757812132663 143.01670139386835 M-0.033732452988624484 0.4007617861032484 C25.42826592762889 23.745127046616677, 128.22757290758793 117.17449454084934, 154.10928137121326 141.02427667147995" stroke="#000000" stroke-width="1" fill="none"></path></g><g transform="translate(899.3370730624297 262.4382259377689) rotate(0 77.62192283416897 71.7087315899858)"><path d="M127.9614303053286 128.87404329100187 C137.179097348898 133.98463737113406, 146.46932264708283 139.63344928587006, 155.11636067261523 141.74923464610757 M127.26852269162649 129.53062227604474 C132.78851157026898 132.79881408508444, 139.38950637021057 134.16001896126542, 153.69246095032966 140.68574019942017" stroke="#000000" stroke-width="1" fill="none"></path></g><g transform="translate(899.3370730624297 262.4382259377689) rotate(0 77.62192283416897 71.7087315899858)"><path d="M141.80926103154624 113.72948695666635 C145.9142296234501 124.59794590223828, 150.03822366219018 135.8967604702228, 155.11636067261523 141.74923464610757 M141.11635341784412 114.38606594170922 C143.69767454131897 120.9744607171968, 147.22002428815784 125.7025982460036, 153.69246095032966 140.68574019942017" stroke="#000000" stroke-width="1" fill="none"></path></g></g><g transform="translate(870.4537037037037 313.5) rotate(0 38.5 13)"><text x="0" y="18" font-family="Virgil, Segoe UI Emoji" font-size="20px" fill="#000000" text-anchor="start" style="white-space: pre;" direction="ltr">Validate</text></g><g transform="translate(583.9537037037037 207) rotate(0 38.5 13)"><text x="0" y="18" font-family="Virgil, Segoe UI Emoji" font-size="20px" fill="#000000" text-anchor="start" style="white-space: pre;" direction="ltr">Validate</text></g><g transform="translate(952.4537037037037 211) rotate(0 31 13)"><text x="0" y="18" font-family="Virgil, Segoe UI Emoji" font-size="20px" fill="#000000" text-anchor="start" style="white-space: pre;" direction="ltr">decline</text></g><g transform="translate(94.4537037037037 93) rotate(0 27.5 13)"><text x="0" y="18" font-family="Virgil, Segoe UI Emoji" font-size="20px" fill="#000000" text-anchor="start" style="white-space: pre;" direction="ltr">intent</text></g><g transform="translate(447.9537037037037 511) rotate(0 83.5 13)"><text x="83.5" y="18" font-family="Virgil, Segoe UI Emoji" font-size="20px" fill="#000000" text-anchor="middle" style="white-space: pre;" direction="ltr">update filter fct</text></g><g><g transform="translate(407.4401646681599 520.9902339971267) rotate(0 -127.07709791004656 0.009479644009843469)"><path d="M-1.1197578940540551 0.9666961167007686 C-43.25773337497065 1.0014300164145804, -211.57281442203868 1.120899894616294, -253.79821170166133 0.8179884543642857 M0.4932304822281002 0.4286076326295736 C-41.701388080591954 0.055134970539567674, -211.98308419061203 -0.9110989092600464, -254.64742630232124 -0.9999999999999547" stroke="#000000" stroke-width="1" fill="none"></path></g><g transform="translate(407.4401646681599 520.9902339971267) rotate(0 -127.07709791004656 0.009479644009843469)"><path d="M-224.80261030439706 -10.828276666123354 C-231.58234166141688 -9.992459626216073, -240.55064196595904 -6.372011951103541, -255.67810567166654 -0.9238376673310542 M-226.69350588806392 -10.24899584917345 C-236.10531673690667 -7.4710602210929435, -243.69656728378595 -4.209885256788148, -254.91037770897148 -1.927350413985505" stroke="#000000" stroke-width="1" fill="none"></path></g><g transform="translate(407.4401646681599 520.9902339971267) rotate(0 -127.07709791004656 0.009479644009843469)"><path d="M-224.8888626823566 9.692750669591003 C-231.75393723559662 6.032461006285381, -240.70333647303158 5.155997130009166, -255.67810567166654 -0.9238376673310542 M-226.77975826602346 10.272031486540907 C-236.07699932192818 6.44962080677311, -243.64051127543704 3.11127415468503, -254.91037770897148 -1.927350413985505" stroke="#000000" stroke-width="1" fill="none"></path></g></g><g transform="translate(529.4537037037037 411) rotate(0 36.5 13)"><text x="0" y="18" font-family="Virgil, Segoe UI Emoji" font-size="20px" fill="#000000" text-anchor="start" style="white-space: pre;" direction="ltr">replace</text></g><g><g transform="translate(634.7835739781142 467.259384665727) rotate(0 53.16953419959509 -94.19396320851192)"><path d="M0.5232098434120416 0.6623513426631689 C17.971451983819293 -30.967726347004533, 87.99421439205551 -157.5092675291258, 105.81585855577819 -189.05027775968705" stroke="#000000" stroke-width="1.5" fill="none" stroke-dasharray="12 8"></path></g><g transform="translate(634.7835739781142 467.259384665727) rotate(0 53.16953419959509 -94.19396320851192)"><path d="M102.13705635886544 -160.16453564077145 C101.6893862794412 -169.12158472291003, 104.35075583930515 -184.63586950910354, 107.40123666059904 -189.26377995255683" stroke="#000000" stroke-width="1.5" fill="none"></path></g><g transform="translate(634.7835739781142 467.259384665727) rotate(0 53.16953419959509 -94.19396320851192)"><path d="M84.21900602013345 -170.16770885953088 C90.88953557203142 -175.26296085655082, 100.60823642296214 -186.83732438835926, 107.40123666059904 -189.26377995255683" stroke="#000000" stroke-width="1.5" fill="none"></path></g></g><g transform="translate(709.4537037037037 336) rotate(0 36.5 13)"><text x="0" y="18" font-family="Virgil, Segoe UI Emoji" font-size="20px" fill="#000000" text-anchor="start" style="white-space: pre;" direction="ltr">replace</text></g><g><g transform="translate(533.827941459964 705.29953462556) rotate(0 -0.536741298259301 -59.364747945198076)"><path d="M0.4495152320712805 0.14976731278002253 C0.2847192538936232 -19.677382748318596, -0.7300834337079058 -99.05986575133046, -0.8993788473103679 -118.87926320317615 M-0.7736280004307627 -0.8172087933495642 C-1.0501964264328982 -20.472187789832933, -1.513162457702411 -98.03743299010088, -1.5229978285898005 -117.49110854267556" stroke="#000000" stroke-width="1" fill="none"></path></g><g transform="translate(533.827941459964 705.29953462556) rotate(0 -0.536741298259301 -59.364747945198076)"><path d="M9.093968812302748 -88.30948766418827 C5.163420113315875 -96.37068110956643, 2.1637225679435392 -106.48316714672278, -0.9281131591815983 -117.81323153934855 M8.612714822330574 -88.92083761100751 C5.584694638963784 -96.3188712732141, 4.331845135793096 -102.45051098965159, -0.8646971931849157 -116.66113691348065" stroke="#000000" stroke-width="1" fill="none"></path></g><g transform="translate(533.827941459964 705.29953462556) rotate(0 -0.536741298259301 -59.364747945198076)"><path d="M-11.427092455416318 -88.23172628328672 C-9.04850015854867 -96.3936985260746, -5.739002510222136 -106.53009228048975, -0.9281131591815983 -117.81323153934855 M-11.908346445388492 -88.84307623010596 C-10.009976364549921 -96.32395126510906, -6.33692200380044 -102.47425693072186, -0.8646971931849157 -116.66113691348065" stroke="#000000" stroke-width="1" fill="none"></path></g></g><g transform="translate(480.4537037037037 737) rotate(0 55.5 13)"><text x="0" y="18" font-family="Virgil, Segoe UI Emoji" font-size="20px" fill="#000000" text-anchor="start" style="white-space: pre;" direction="ltr">admin client</text></g><g transform="translate(419.4537037037037 461) rotate(0 110.5 57.5)"><path d="M152.3383984355305 3.96528025256476 C166.11624960469356 6.224235000503514, 180.70530708678984 13.016699552082596, 191.06013530535552 18.895387534814617 C201.4149635239212 24.77407551754664, 209.69621342521515 32.085117734325905, 214.46736774692448 39.23740814895689 C219.2385220686338 46.38969856358787, 220.9462047830616 54.164917190417945, 219.68706123561154 61.8091300226005 C218.42791768816147 69.45334285478305, 213.86278044654034 78.05518912253088, 206.912506462224 85.10268514205221 C199.96223247790766 92.15018116157354, 189.90379274726087 99.27321211019999, 177.9854173297135 104.09410613972852 C166.06704191216613 108.91500016925706, 150.09745959067186 112.53410763689106, 135.40225395693975 114.02804931922341 C120.70704832320764 115.52199100155576, 104.68489619586992 114.78818924090663, 89.81418352732089 113.05775623372263 C74.94347085877186 111.32732322653862, 58.68438653512816 108.04341858698365, 46.17797794564555 103.64545127611939 C33.67156935616294 99.24748396525513, 22.248052704913043 93.23767940827231, 14.775731990425243 86.66995236853705 C7.303411275937442 80.1022253288018, 3.0509459914983763 71.80812161477756, 1.3440536587187495 64.23908903770784 C-0.3628386740608771 56.67005646063812, 0.2802894960205622 48.657405508786574, 4.5343779937474835 41.25575690611871 C8.788466491474406 33.85410830345085, 17.079625539496426 25.93016441602266, 26.868584645080276 19.829197421700663 C36.657543750664125 13.728230427378666, 49.556999412326064 8.045943248815407, 63.26813262725059 4.649954940186738 C76.97926584217511 1.2539666315580704, 93.01991662831202 -0.7985018263533032, 109.13538393462741 -0.5467324300713443 C125.25085124094281 -0.2949630337893853, 150.47171258533223 4.560325693482793, 159.960936465143 6.160571317878492 C169.45016034495376 7.760816942274192, 166.8688855972004 8.28802233983533, 166.0707272134921 9.054741316302852 M82.0494483663042 0.867230179046544 C95.46149381689179 -1.5742593146670742, 112.9339541393259 0.4097034734733107, 127.86981274683988 1.9327591968073108 C142.80567135435388 3.455814920141311, 159.12254348529035 6.1550103510078245, 171.6646000113881 10.005564519050544 C184.20665653748586 13.856118687093264, 195.35079951627364 18.603853816638495, 203.12215190342647 25.036084205063627 C210.8935042905793 31.46831459348876, 216.11190618285545 40.602627213617176, 218.29271433430506 48.59894684960134 C220.47352248575467 56.595266485585505, 219.83758067632078 65.5921093350201, 216.2070008121242 73.01400202096862 C212.5764209479276 80.43589470691714, 205.7072006889635 87.35664428220812, 196.50923514912554 93.1303029652925 C187.3112696092876 98.90396164837688, 174.39791660538026 103.85954202933385, 161.0192075730965 107.6559541194749 C147.64049854081276 111.45236620961595, 131.25674561489149 115.53868795863634, 116.23698095542306 115.90877550613877 C101.21721629595466 116.27886305364119, 84.97596773305162 112.94325591237094, 70.90061961628606 109.87647940448944 C56.82527149952051 106.80970289660794, 42.43935251421988 103.11999798016957, 31.784892254829742 97.50811645884976 C21.130431995439608 91.89623493752994, 12.463877103919124 83.7010486469229, 6.9738580599452575 76.20519027657053 C1.483839015971391 68.70933190621817, -2.320264803057067 60.196987219635545, -1.1552220090134568 52.53296623673559 C0.009820785030153045 44.86894525383563, 6.767434175989742 37.05005893645534, 13.964114824206916 30.221064379170784 C21.16079547242409 23.392069821886224, 30.923739212720562 16.514920131228813, 42.02486188028959 11.558998893028232 C53.12598454785862 6.603077654827651, 73.6164131819437 1.996668902107216, 80.57085082962111 0.48553694996729746 C87.52528847729852 -1.025595002172621, 83.22578419932867 1.3544089680581248, 83.75148776635409 2.4922071801887213" stroke="#000000" stroke-width="1" fill="none"></path></g><g transform="translate(360 328.5) rotate(0 61.5 36.5)"><path d="M-0.455919211730361 0.3237305637449026 C40.43019329356029 0.8769678311701864, 82.3380896275863 -0.6085908574704081, 124.6703287307173 0.43816045485436916 M-0.9732360066846013 0.9247213276103139 C26.549600170273337 -1.893119913889095, 53.824346556887036 -1.0278167849313466, 123.21889429073781 0.24630820471793413 M123.18902980722487 0.6578245516866446 C124.15172949952074 20.48206377392635, 122.67527589720675 37.15668103266508, 122.49422710575163 74.83662173710763 M122.74583296757191 -0.8968223361298442 C122.76114832959138 20.453629768546673, 123.81333663663827 40.95813174657524, 123.73482586722821 73.77943697292358 M124.09177034534514 73.84634015522897 C85.29955713180826 71.92441559010186, 45.44135919231921 74.12269860678353, -1.466990714892745 71.89120141230524 M122.88994600158185 72.58344235736877 C79.16828622361645 72.0745017293375, 34.43285062015056 71.85529977711849, 0.6909077046439052 73.80581086594611 M0.06632828153669834 74.73247805796564 C0.31393805596046154 57.866851355228576, 1.4913502678554504 39.96866811867803, 0.2667167726904154 -1.3146654609590769 M0.6746487496420741 72.96979397255927 C0.3001215213630348 52.29590706797316, 1.052629118571058 31.480232634395357, -0.7959473552182317 0.8252162607386708" stroke="#000000" stroke-width="1" fill="none"></path></g><g transform="translate(371 339.5) rotate(0 51 13)"><text x="0" y="18" font-family="Virgil, Segoe UI Emoji" font-size="20px" fill="#000000" text-anchor="start" style="white-space: pre;" direction="ltr">peer score</text></g><g transform="translate(448 716.5) rotate(0 103.5 38)"><path d="M-1.1947397512457414 1.1221812168098255 C51.53310926862007 -1.2923443446188128, 102.61206088179186 -0.4124737552550948, 206.84395397476789 0.3405880199107453 M-0.3034255878154613 -0.26062624013278707 C58.68683698118112 -0.9104068778254593, 117.86623622236017 -1.0550201277353608, 206.19006575960674 -0.19444122338299974 M207.88741151057184 0.24102681316435337 C205.44459349866958 22.922237429022793, 204.96927917953582 45.594836365804085, 208.9603088852018 74.07019757665694 M206.63642590958625 -0.08491836208850145 C207.2035486100614 16.278014722652735, 205.3684323130548 34.50668858345598, 207.4085123213008 75.29826151113957 M208.63257895612588 75.22820875210331 C137.4400214607816 74.55676528269001, 68.48826856977844 76.52104509979117, 1.4043184952650978 75.42008814154151 M207.7573506098682 76.70970334821183 C151.72014887677884 77.38877244112126, 97.96364851269811 76.98640889421277, 0.29510580597661956 76.17092989740334 M1.7206633444875479 74.14030175842345 C-1.2603321273252368 49.91429543867707, -0.7462627489492297 22.61534638516605, 1.5156180616468191 0.39945375360548496 M0.6318607302382588 76.5493093309924 C-0.837987018302083 60.66603369358927, 0.25075341992080213 45.9335940470919, -0.10768577735871077 -0.1001588823273778" stroke="#000000" stroke-width="1" fill="none"></path></g><g transform="translate(10 506.5) rotate(0 67.5 13)"><text x="0" y="18" font-family="Virgil, Segoe UI Emoji" font-size="20px" fill="#000000" text-anchor="start" style="white-space: pre;" direction="ltr">inclusive filter</text></g><g transform="translate(199 486.5) rotate(0 29 13)"><text x="0" y="18" font-family="Virgil, Segoe UI Emoji" font-size="20px" fill="#000000" text-anchor="start" style="white-space: pre;" direction="ltr">gossip</text></g><g><g transform="translate(461.6141192562177 468.6646434896247) rotate(0 -17.003172240005114 -31.99302402452537)"><path d="M-0.38048991300165647 0.5714094970375299 C-6.378111874023219 -9.923301653573192, -30.053523760334354 -52.070588493393245, -35.62695863334322 -63.03037418318854 M1.6206141533330083 -0.17420446235686549 C-4.0169864894913045 -10.96986491349516, -27.341271920733853 -53.85203913749147, -33.27839256020123 -64.55745754608826" stroke="#000000" stroke-width="1" fill="none"></path></g><g transform="translate(461.6141192562177 468.6646434896247) rotate(0 -17.003172240005114 -31.99302402452537)"><path d="M-9.779341747598245 -45.921017529538034 C-16.269105905743352 -49.51143623081137, -27.302096397354855 -56.69040489590464, -32.36380848416919 -64.66952340336458 M-10.105828403109207 -45.75836569918519 C-16.637860022995262 -49.04163251874148, -21.6107253687114 -54.24338715757106, -33.10039622558141 -64.49638911275134" stroke="#000000" stroke-width="1" fill="none"></path></g><g transform="translate(461.6141192562177 468.6646434896247) rotate(0 -17.003172240005114 -31.99302402452537)"><path d="M-27.775069513647033 -36.058270216740226 C-28.32297880299289 -42.84532723369292, -33.41921899584041 -53.27799415523309, -32.36380848416919 -64.66952340336458 M-28.101556169157995 -35.89561838638738 C-30.67476365916598 -41.24481909920338, -31.626480563026263 -48.65040630901115, -33.10039622558141 -64.49638911275134" stroke="#000000" stroke-width="1" fill="none"></path></g></g><g transform="translate(379 441.5) rotate(0 26 13)"><text x="0" y="18" font-family="Virgil, Segoe UI Emoji" font-size="20px" fill="#000000" text-anchor="start" style="white-space: pre;" direction="ltr">reset</text></g><g transform="translate(188 76.5) rotate(0 32.5 13)"><text x="0" y="18" font-family="Virgil, Segoe UI Emoji" font-size="20px" fill="#000000" text-anchor="start" style="white-space: pre;" direction="ltr">receive</text></g><g transform="translate(541 638.5) rotate(0 79 13)"><text x="0" y="18" font-family="Virgil, Segoe UI Emoji" font-size="20px" fill="#000000" text-anchor="start" style="white-space: pre;" direction="ltr">inject new filter</text></g><g transform="translate(391 158.5) rotate(0 31 13)"><text x="0" y="18" font-family="Virgil, Segoe UI Emoji" font-size="20px" fill="#000000" text-anchor="start" style="white-space: pre;" direction="ltr">decline</text></g><g><g transform="translate(527.3978652777271 454.56309123473443) rotate(0 0.2444969382851241 -142.7388690102561)"><path d="M-1.0227226998656989 0.15255478285253044 C-0.7470556545764642 -47.540361050631056, 1.2923228007999872 -237.9703775344563, 1.5117165764359015 -285.6302928033647" stroke="#000000" stroke-width="1.5" fill="none" stroke-dasharray="12 8"></path></g><g transform="translate(527.3978652777271 454.56309123473443) rotate(0 0.2444969382851241 -142.7388690102561)"><path d="M11.799878334187799 -256.071492766597 C7.028094538407416 -266.3335865879014, 3.8424901051867764 -273.7864344788376, 0.5958281421599168 -284.48090373942523" stroke="#000000" stroke-width="1.5" fill="none"></path></g><g transform="translate(527.3978652777271 454.56309123473443) rotate(0 0.2444969382851241 -142.7388690102561)"><path d="M-8.720668654805252 -256.2362764380205 C-7.578879425961535 -266.27599877767545, -4.8516347871721806 -273.6813654304565, 0.5958281421599168 -284.48090373942523" stroke="#000000" stroke-width="1.5" fill="none"></path></g></g><g><g transform="translate(475 144.5) rotate(0 -23.32260767034259 39.44553516332061)"><path d="M0.32658103443682185 1.193113299831748 C-7.297560986460505 13.933622565350186, -38.24317586064963 64.158030583368, -46.00910140510653 76.86607410486788 M-0.9611026518233121 0.7738938369043171 C-8.722585733955112 13.63403625311951, -39.26768811369939 65.11706361835202, -46.97179637512196 78.11717648973689" stroke="#000000" stroke-width="1" fill="none"></path></g></g><g><g transform="translate(427.71412185765803 230.5961910106987) rotate(0 -0.012059811595833025 43.772978056073185)"><path d="M-0.881180552020669 -0.26642658971250055 C-0.8299152194832763 14.242440322774147, 0.006207557333012176 73.0450000218426, 0.2079661302268503 87.61307218030092 M0.8570609288290143 -1.451904494650662 C0.8397049346814552 13.186902008528506, -0.1317240312943857 74.07928538871306, -0.25598313976079234 88.99786060679702" stroke="#000000" stroke-width="1" fill="none"></path></g><g transform="translate(427.71412185765803 230.5961910106987) rotate(0 -0.012059811595833025 43.772978056073185)"><path d="M-10.607392191585317 62.21782162320437 C-7.62583748426394 70.75287913813489, -5.520990244148065 76.98257447449392, -0.6619849702343346 90.88350181844083 M-9.618608870241955 59.77752618864747 C-6.183023270308729 72.4097279063621, -1.6523603440349772 82.6820241822796, -0.3925249561667443 89.98784087508915" stroke="#000000" stroke-width="1" fill="none"></path></g><g transform="translate(427.71412185765803 230.5961910106987) rotate(0 -0.012059811595833025 43.772978056073185)"><path d="M9.912212644028552 62.47437527469161 C6.907045875146802 70.78391766982749, 3.0263686130081027 76.93877685902766, -0.6619849702343346 90.88350181844083 M10.900995965371914 60.03407984013471 C6.346365838559331 72.67814376691706, 2.8877952533302658 82.85055181173166, -0.3925249561667443 89.98784087508915" stroke="#000000" stroke-width="1" fill="none"></path></g></g><g><g transform="translate(423.53823396313936 225.17163469981404) rotate(0 -36.169348192155894 3.047512514365252)"><path d="M-0.43450970984995363 -0.6182041671127081 C-12.75905202738214 0.6021542296550499, -61.073708526381274 5.4285630140412975, -73.06887576761952 6.713229195843235 M1.5382339631393553 1.6716346998140215 C-10.997855916276755 2.5596333975709302, -61.50673215352089 4.14505735706132, -73.87693034745116 4.710606141793326" stroke="#000000" stroke-width="1" fill="none"></path></g><g transform="translate(423.53823396313936 225.17163469981404) rotate(0 -36.169348192155894 3.047512514365252)"><path d="M-47.127449267267934 -6.171121796522511 C-56.14116141676984 -0.9392096989748335, -65.88093392355387 2.4671986017311474, -74.63498665466268 4.574600734594062 M-46.41328713456517 -6.850814101215674 C-51.88259376627193 -4.600610145556182, -60.06002140393899 -1.8520845392650926, -74.67098393458237 4.94990173153092" stroke="#000000" stroke-width="1" fill="none"></path></g><g transform="translate(423.53823396313936 225.17163469981404) rotate(0 -36.169348192155894 3.047512514365252)"><path d="M-46.346388172973334 14.3352173685459 C-55.54753469704549 11.911372894305465, -65.57879778122938 7.664852778468809, -74.63498665466268 4.574600734594062 M-45.63222604027057 13.655525063852737 C-51.370776876777555 10.898952409530331, -59.73890015432709 8.640866500672988, -74.67098393458237 4.94990173153092" stroke="#000000" stroke-width="1" fill="none"></path></g></g><g transform="translate(430 251.5) rotate(0 31.5 13)"><text x="0" y="18" font-family="Virgil, Segoe UI Emoji" font-size="20px" fill="#000000" text-anchor="start" style="white-space: pre;" direction="ltr">reduce</text></g></svg>