<svg version="1.1" xmlns="http://www.w3.org/2000/svg" viewBox="0 0 1432 1102.9999999999998" width="1432" height="1102.9999999999998">
  <!-- svg-source:excalidraw -->
  
  <defs>
    <style>
      @font-face {
        font-family: "Virgil";
        src: url("https://excalidraw.com/Virgil.woff2");
      }
      @font-face {
        font-family: "Cascadia";
        src: url("https://excalidraw.com/Cascadia.woff2");
      }
    </style>
  </defs>
  <rect x="0" y="0" width="1432" height="1102.9999999999998" fill="#ffffff"></rect><g transform="translate(934 239.5) rotate(0 149 39)"><text x="0" y="18" font-family="Virgil, Segoe UI Emoji" font-size="20px" fill="#000000" text-anchor="start" style="white-space: pre;" direction="ltr">check VP on latest block</text><text x="0" y="44" font-family="Virgil, Segoe UI Emoji" font-size="20px" fill="#000000" text-anchor="start" style="white-space: pre;" direction="ltr">(to make sure we don't gossip</text><text x="0" y="70" font-family="Virgil, Segoe UI Emoji" font-size="20px" fill="#000000" text-anchor="start" style="white-space: pre;" direction="ltr"> garbage)</text></g><g transform="translate(1009 388) rotate(0 54.5 13)"><text x="0" y="18" font-family="Virgil, Segoe UI Emoji" font-size="20px" fill="#000000" text-anchor="start" style="white-space: pre;" direction="ltr">apply filter</text></g><g><g transform="translate(992.1340348251165 332.141836924823) rotate(0 20.10897022703989 21.31362630687653)"><path d="M-0.865965174883604 -0.20495680645108227 C5.712918088910632 6.952991950516589, 32.06193810640599 36.833945050858894, 38.72370329769046 43.98541568893008 M0.8802643789630382 -1.358163075176999 C7.918090661372521 5.968237258321606, 34.86608971299369 34.6861466453923, 41.08390562896335 42.192148562371734" stroke="#000000" stroke-width="1" fill="none"></path></g><g transform="translate(992.1340348251165 332.141836924823) rotate(0 20.10897022703989 21.31362630687653)"><path d="M14.95303300944219 27.188006906386683 C22.585964405625568 31.30772403203104, 26.575871098319183 35.88029399677653, 40.99801976521218 40.395619429498915 M14.80646656070898 28.278960105579564 C23.218824918485794 32.071743477876524, 30.714645641613387 37.29279000235811, 40.226773572235345 41.570638244822625" stroke="#000000" stroke-width="1" fill="none"></path></g><g transform="translate(992.1340348251165 332.141836924823) rotate(0 20.10897022703989 21.31362630687653)"><path d="M29.9132702451947 13.860028889474847 C34.107898252736575 21.037630482321624, 34.54424529601776 28.77604361805419, 40.99801976521218 40.395619429498915 M29.76670379646149 14.950982088667729 C33.953390637925644 22.45603520890876, 37.15395738008421 31.50369555864421, 40.226773572235345 41.570638244822625" stroke="#000000" stroke-width="1" fill="none"></path></g></g><g transform="translate(624 958.5) rotate(0 114.5 26)"><text x="0" y="18" font-family="Virgil, Segoe UI Emoji" font-size="20px" fill="#000000" text-anchor="start" style="white-space: pre;" direction="ltr">Gossip filter on change</text><text x="0" y="44" font-family="Virgil, Segoe UI Emoji" font-size="20px" fill="#000000" text-anchor="start" style="white-space: pre;" direction="ltr">and new connections</text></g><g><g transform="translate(325 904.5) rotate(0 301.2019071228802 -304.44127144888046)"><path d="M-0.7146139137446881 0.07176963016390792 C40.64808889304599 -44.00104377741614, 196.70114827230572 -172.3384141969184, 249.1918176420033 -265.1706028588116 C301.68248701170086 -358.0027915207048, 255.2416338848571 -499.6240773963432, 314.2294023044407 -556.9213623411954 C373.21717072402436 -614.2186472860476, 554.8600011197229 -600.4526165214678, 603.1184281595051 -608.9543125279248 M1.1110750521998853 -0.9361552593391389 C42.3311755437435 -44.75532795769784, 196.26813224631363 -171.28500486207815, 248.86947644042783 -263.72274410846643 C301.47082063454206 -356.1604833548547, 257.71363595870946 -498.21197046978085, 316.71914021688514 -555.5625907376688 C375.7246444750608 -612.9132110055567, 555.3234532067955 -598.6469214373113, 602.902501989482 -607.8264657157939" stroke="#000000" stroke-width="1" fill="none"></path></g><g transform="translate(325 904.5) rotate(0 301.2019071228802 -304.44127144888046)"><path d="M575.5296215963981 -593.8333282534928 C585.7736134968872 -601.5585060657598, 596.7635467439623 -606.3616695609985, 602.978647776274 -608.1931914772373 M576.2089659543208 -595.2018269681336 C587.0487818516964 -600.5574132579089, 596.4968346065411 -605.4500131089541, 602.4170175291132 -608.6468521758449" stroke="#000000" stroke-width="1" fill="none"></path></g><g transform="translate(325 904.5) rotate(0 301.2019071228802 -304.44127144888046)"><path d="M574.2438378859215 -614.3142159939135 C584.8571577602701 -614.1541033263351, 596.3416463677054 -611.0796333328083, 602.978647776274 -608.1931914772373 M574.9231822438442 -615.6827147085543 C586.2138691159388 -613.0599643129483, 596.1621411961219 -609.9847109672463, 602.4170175291132 -608.6468521758449" stroke="#000000" stroke-width="1" fill="none"></path></g></g><g transform="translate(928 232.5) rotate(0 173.5 42.99999999999997)"><path d="M-0.8805824733950822 -0.056013254020336266 C109.04642058930759 -1.788260492079738, 219.10135692552404 -1.5739065964825665, 346.47784688668384 0.4121967149000853 M0.400493363183628 0.5810638369082823 C93.83211587778214 1.0670891281529458, 188.8013199492517 1.4045861777504474, 347.03209771408825 -0.2333536467699155 M347.1764685101807 -1.6885450668632984 C347.0161310629174 22.803467312082642, 348.19513895075767 44.447499191761004, 346.732413072139 85.31140522286292 M346.64602532051504 -0.7117534186691046 C348.23677733059975 29.981972271203983, 346.4090541255102 59.373644509538984, 346.8731218185276 85.46330214478071 M346.5064067782462 87.00266472189267 C276.7117223826919 85.39010352350549, 204.7208105663155 85.8587449439867, 0.19929401533315477 86.15118694671519 M347.4081079445026 86.06014588397521 C266.4040494192093 86.8391448755221, 184.2863343088925 86.98853591536313, -0.22669522380973248 86.17296668040261 M-0.8416987471282482 84.35977737233038 C0.33350364316254877 59.68163878507909, 0.9061196242645385 35.73144743293522, 0.699757594615221 1.9988496713340282 M-0.5227570328861475 85.99526555277403 C-1.1048500688001512 67.27820736244317, -1.5372752697393297 48.44964747838673, 0.3003897275775671 0.11253989674150944" stroke="#000000" stroke-width="1" fill="none"></path></g><g><g transform="translate(1152.4827272869086 438.804175553587) rotate(0 32.4333079676004 16.903760303142974)"><path d="M-0.8851175777614116 -0.7105961211025715 C10.196719940343542 5.166525745253869, 54.60327383299193 28.722619464303595, 65.75173351296212 34.51811672738855 M0.851056964574382 1.53073696997948 C11.805842056043115 7.120172679407382, 53.881394552214275 27.057857046452582, 64.60137313466507 32.712295950689445" stroke="#000000" stroke-width="1" fill="none"></path></g><g transform="translate(1152.4827272869086 438.804175553587) rotate(0 32.4333079676004 16.903760303142974)"><path d="M33.60694650635692 28.69987025476499 C42.88242955810007 30.14634676005085, 49.22938101786927 30.77044747040477, 64.95028956469136 31.257289749869237 M34.81161938123974 29.46421372323735 C46.424821886256005 31.68636216273099, 56.9085534298112 31.508624350994776, 64.34805079225438 32.58950544457985" stroke="#000000" stroke-width="1" fill="none"></path></g><g transform="translate(1152.4827272869086 438.804175553587) rotate(0 32.4333079676004 16.903760303142974)"><path d="M42.747479596549525 10.326774238771016 C49.729922052643396 16.085836205368224, 53.897840193146564 21.08994276460215, 64.95028956469136 31.257289749869237 M43.95215247143234 11.091117707243377 C52.08237915279348 20.066771321423992, 59.18608771317343 26.683110637725022, 64.34805079225438 32.58950544457985" stroke="#000000" stroke-width="1" fill="none"></path></g></g><g transform="translate(1233.5 476.5) rotate(0 64 13)"><text x="64" y="18" font-family="Virgil, Segoe UI Emoji" font-size="20px" fill="#000000" text-anchor="middle" style="white-space: pre;" direction="ltr">local mempool</text></g><g transform="translate(257 915) rotate(0 33.5 13)"><text x="33.5" y="18" font-family="Virgil, Segoe UI Emoji" font-size="20px" fill="#000000" text-anchor="middle" style="white-space: pre;" direction="ltr">node B</text></g><g transform="translate(1208 398.5) rotate(0 89.5 91)"><path d="M91.60650269314647 -0.508499126881361 C122.85909064497798 39.18700508838519, 160.7700244012475 73.15286089172587, 177.05139927193522 91.09425558522344 M89.77020878531039 -0.25172428227961063 C109.91452295895667 21.46050370099023, 131.54925440423193 44.1787276400812, 178.760877141729 91.30050840042531 M178.6292848996818 93.21139254048467 C143.73099260367454 125.5082790206559, 111.45293700192124 160.04445203090086, 91.77808086201549 183.7412903495133 M179.93677044846117 92.84631766937673 C145.27472030743957 126.50817619046197, 110.12336429823189 163.08807431502268, 90.51643759943545 182.95936234854162 M90.10917083546519 183.7853987403214 C67.17644998859615 161.4903822986409, 47.23738862071187 138.5078150236979, 1.8260019235312939 90.93885077908635 M90.62310178019106 181.7460316028446 C57.53401420842856 148.97754462715238, 24.448400773294267 116.2413990655914, -0.5729173328727484 92.7074248995632 M1.313616555184126 93.58473529294133 C28.012399216741326 64.14396133031696, 55.678195044025784 35.23279305081814, 90.16183726117015 0.0464339442551136 M0.8175450656563044 91.71786429546773 C32.74766215242445 58.664310906641184, 67.94495973110199 23.858582151494915, 89.91279525496066 0.5397522058337927" stroke="#000000" stroke-width="1" fill="none"></path></g><g transform="translate(991 374) rotate(0 78.5 28.5)"><path d="M1.340618148446083 0.9786436408758163 C43.9219612699002 0.12200473107397558, 88.21230402514338 4.371219380274415, 159.42309047281742 -2.9997866302728653 M-0.8787685707211494 0.9623227193951607 C36.7808005604893 -1.0163096732646228, 73.85772046074271 0.2574098759144543, 157.57245361059904 0.9082372263073921 M156.1248078495264 1.5997044891119003 C159.7323235464841 24.229519015178084, 160.22466315753758 43.384464766830206, 153.9294634014368 55.127850756049156 M155.77228461951017 0.9508683755993843 C155.99515018604697 15.279426901414991, 156.4047916903347 26.59895985350013, 156.51317202299833 57.32672215253115 M159.1540079265833 57.11662410199642 C113.702582545951 54.96073680005968, 71.99628961160779 56.76039700590074, -3.887024387717247 58.445780500769615 M155.76506602019072 57.50186062604189 C121.92736051641404 57.19551337487996, 85.23112687543035 54.27579725511372, -0.6118520572781563 58.28934312611818 M-3.7998089641332626 60.42149232327938 C-1.1405915916711091 33.47202726639807, 0.11429074399173267 9.433435622602701, 0.13622476160526276 -0.29453255236148834 M1.1784330531954765 57.141910798847675 C-2.3116679974645375 43.82653317265213, -1.1658662148565053 25.692071378976106, -1.5440737083554268 -1.9819760248064995" stroke="#000000" stroke-width="1" fill="none"></path></g><g transform="translate(226 460) rotate(0 166.5 158)"><path d="M166.67443007933386 2.881401390790833 C229.52267486054973 59.9280362019924, 283.0824301742233 113.3438962737934, 335.8386207279951 157.2939497014007 M166.7810304962236 -0.21106518578113972 C223.86499553159487 54.043810732031176, 276.9418045126752 107.62534770891973, 332.7300829009211 158.27118188625136 M335.36296325258746 157.54825363226436 C278.2489202814315 209.51196070515806, 225.53053561690393 265.9126592241806, 169.9049691383114 316.2973649963482 M332.05933538696684 159.55968832591887 C291.4895449806684 196.83948768664388, 252.03743245028093 233.8399311226212, 167.27564549510518 315.916081107842 M165.13797671007987 316.23844024804146 C112.93016525440964 265.4132081389991, 59.60885092071023 217.40123946213902, -0.21468822460256964 161.0180959246446 M165.84744232657187 317.4024385925772 C110.34980397657078 259.1986259637846, 54.148861761590936 208.0846167832037, 0.46864097193216786 160.45121378989714 M-2.2585055909909384 156.15769699110774 C65.54898776537902 97.67820807667816, 122.76882074041562 38.17919817551453, 170.26871735050594 0.6216232033362086 M1.2996369045491858 159.98920585068936 C44.947182497945604 115.01814632800802, 94.69827426387847 68.76194387792442, 166.0096684144934 0.7965897187907574" stroke="#000000" stroke-width="1" fill="none"></path></g><g><g transform="translate(388 776.5) rotate(0 -8.882852258170033 15.278645874792687)"><path d="M0.6979415528476238 -0.8633024923503398 C-2.3373783508952104 4.2662906040515125, -14.614096145836335 24.648277668041796, -18.106431277850653 29.995786871621384 M-0.3947778612468391 1.297859753826633 C-3.49887748773986 6.681455975955663, -15.546192913718217 26.73519524156271, -18.46364606918768 31.42059424193576" stroke="#000000" stroke-width="1" fill="none"></path></g><g transform="translate(388 776.5) rotate(0 -8.882852258170033 15.278645874792687)"><path d="M-16.227737719947264 15.543918390900608 C-16.462207904881947 17.77788325389838, -15.721057252597884 25.88180631753694, -19.93758292167151 31.42875242117709 M-14.58530659364633 14.145466013044818 C-16.37021228423661 18.39184066156659, -17.14747865591822 24.249926662725255, -17.74320569202162 32.20666771826866" stroke="#000000" stroke-width="1" fill="none"></path></g><g transform="translate(388 776.5) rotate(0 -8.882852258170033 15.278645874792687)"><path d="M-5.767466792255754 21.916489734446685 C-9.190455336719026 22.24350278155111, -11.679338843762578 28.379635214842324, -19.93758292167151 31.42875242117709 M-4.125035665954819 20.518037356590895 C-9.010154063298518 22.876481456817277, -12.848110318306396 26.869944182269748, -17.74320569202162 32.20666771826866" stroke="#000000" stroke-width="1" fill="none"></path></g></g><g transform="translate(195 779.5) rotate(0 136 140.5)"><path d="M137.74178282544017 -1.4012331776320934 C192.33021813640372 55.407372853439306, 246.28436983292926 112.43752064453439, 270.5684390477836 142.12127556279302 M136.42811269499362 0.42790003679692745 C184.96565914375708 49.02095915833488, 233.65298778878525 98.68691355427728, 271.4858357999474 141.7798992600292 M272.9501576833427 142.06153263524175 C226.9327365612611 191.9379766589962, 176.91048360764978 241.81573815336452, 135.39819375798106 280.2108915038407 M272.2236797902733 140.24715628288686 C225.51745701637117 190.39274357380344, 179.11854568086562 238.39672860996797, 136.24369270540774 281.2905827369541 M135.70889798924327 282.2148387618363 C88.768466524221 227.29454154307024, 37.50205158740282 175.46548121580855, -1.8106753416359425 141.89058389142156 M137.0431669447571 280.7115903701633 C85.4516104536131 229.253735096585, 35.16406911127268 175.84394494948907, 0.5123471114784479 140.50741817615926 M-1.0426652021706104 142.50802602246404 C51.797587368097155 89.18136043997482, 97.45961383545772 39.51333972049878, 135.0803815536201 -1.9020252041518688 M-0.33602105639874935 140.92758657597005 C37.62064371200278 102.01811708664522, 72.86048357037828 64.63571096831933, 136.75084442831576 -0.9886007700115442" stroke="#000000" stroke-width="1" fill="none"></path></g><g transform="translate(10 171) rotate(0 295 449)"><path d="M-0.06125048995018006 0.17759961485862732 C137.361869610101 -0.6691192463040353, 274.3058942511678 0.8441347286105156, 589.6867958128453 1.3206818521022798 M-0.7193402796983719 -0.07464132010936737 C185.8058913253248 -4.350508799850941, 371.8997233942152 -4.2120140221714975, 589.5470281094313 0.1938703566789627 M589.8573753416538 -1.434883028268814 C596.333924824059 258.7303006224334, 595.6566480219959 520.27135707587, 591.3628496229649 898.5141501367091 M589.5581860989332 -0.39881839454174045 C589.0957279699445 232.0293238200247, 589.4179311292768 465.52563314884895, 590.37645573318 898.6946963340043 M588.5503725111485 897.431485646963 C466.0466834776104 893.7926807692646, 341.01585211008785 895.6054098418355, 1.254876333475113 899.3354931771754 M590.7920326679945 898.2089167624711 C354.14718441143634 895.6318044486641, 119.29183505624528 895.4064015212654, 0.2148402661085129 897.3544853240251 M-1.5547199189662935 896.5147915780543 C-5.986003200352191 587.2095671959221, -4.843809787571429 279.29701249152424, -0.6533349931240082 -1.1334530889987946 M0.20436739623546601 897.4185836821794 C-2.8883667088150973 589.5228034041821, -2.732051000654697 281.53991680294274, 0.4562246769666672 0.02138185799121857" stroke="#000000" stroke-width="1" fill="none"></path></g><g transform="translate(352 652) rotate(0 71 13)"><text x="0" y="18" font-family="Virgil, Segoe UI Emoji" font-size="20px" fill="#000000" text-anchor="start" style="white-space: pre;" direction="ltr">gossip mempool</text></g><g transform="translate(427 239) rotate(0 76 52)"><text x="0" y="18" font-family="Virgil, Segoe UI Emoji" font-size="20px" fill="#000000" text-anchor="start" style="white-space: pre;" direction="ltr">check VP</text><text x="0" y="44" font-family="Virgil, Segoe UI Emoji" font-size="20px" fill="#000000" text-anchor="start" style="white-space: pre;" direction="ltr">(to make sure </text><text x="0" y="70" font-family="Virgil, Segoe UI Emoji" font-size="20px" fill="#000000" text-anchor="start" style="white-space: pre;" direction="ltr">we don't </text><text x="0" y="96" font-family="Virgil, Segoe UI Emoji" font-size="20px" fill="#000000" text-anchor="start" style="white-space: pre;" direction="ltr">gossip garbage)</text></g><g transform="translate(890 177) rotate(0 266 457.9999999999999)"><path d="M1.400950437784195 -0.3214177191257477 C172.33215777724985 -3.406132838845254, 348.07801965773115 -2.780574176430703, 533.4464576780797 1.1585785806179048 M0.3275377720594406 -0.6242049187421799 C138.0809788748622 -2.4060192160606393, 275.8061454415322 -2.4033642821311956, 532.2092381924392 -0.6632127732038499 M531.8685997068883 -0.4235487997531891 C531.8717449330093 326.5845962151884, 531.1915384434462 654.5748640328644, 533.5652849256993 915.4686484277246 M531.7321149319412 0.11987972557544709 C531.4359027750494 224.4459087952971, 532.1642582781317 449.3869799792766, 532.068841597438 915.8527499228713 M531.654370313883 916.9094214379785 C420.59569152742637 918.879521147847, 307.1036204069853 918.5420549079178, 1.443835073709488 915.3628430306909 M531.8711372822524 916.4677516013381 C405.4227263346315 918.620553935766, 278.9669392883778 918.9905611646172, -0.7844730883836747 915.8995506316421 M0.5858013212680817 914.8155789315698 C-0.939252436041832 730.575611425936, -1.9374887107610703 546.1345635980366, -1.5341028153896332 -1.4770016729831696 M-0.7332272082567215 915.9894302397964 C-2.7559187226295467 660.8653089955448, -2.8247006707191464 405.8009564280508, 0.3433371037244797 0.4253338843584061" stroke="#000000" stroke-width="1" fill="none"></path></g><g transform="translate(266 581.5) rotate(0 64 25.5)"><text x="0" y="18.5" font-family="Virgil, Segoe UI Emoji" font-size="20px" fill="#000000" text-anchor="start" style="white-space: pre;" direction="ltr">local mempool</text><text x="0" y="44" font-family="Virgil, Segoe UI Emoji" font-size="20px" fill="#000000" text-anchor="start" style="white-space: pre;" direction="ltr"></text></g><g><g transform="translate(376.8235105809007 439) rotate(0 -22.108876447076796 58.258787032182425)"><path d="M0.3652193173766136 0.7016690865159032 C-6.976538208994671 19.44326905676571, -35.658251004782336 95.22819201096135, -43.142135504623674 114.29198894166038 M-2.881042980998755 -1.3857357908785346 C-10.54516177159886 17.66861192329573, -37.345434689240676 97.90455952266095, -44.58297221153023 117.90330985524342" stroke="#000000" stroke-width="1" fill="none"></path></g><g transform="translate(376.8235105809007 439) rotate(0 -22.108876447076796 58.258787032182425)"><path d="M-44.03325261899767 90.00454686764712 C-44.5377958766732 97.9813092700468, -43.25522235123353 106.98221702095256, -46.84789746790173 115.69625954665825 M-43.27395117261944 86.24466499123807 C-46.77968555373569 96.9858854092149, -43.60514725305502 103.58650721725056, -45.09372512041571 119.3496450442879" stroke="#000000" stroke-width="1" fill="none"></path></g><g transform="translate(376.8235105809007 439) rotate(0 -22.108876447076796 58.258787032182425)"><path d="M-24.645916181999354 96.73144721360711 C-31.684173127167234 102.52247325303136, -36.846787803435575 109.28706871396689, -46.84789746790173 115.69625954665825 M-23.886614735621123 92.97156533719806 C-32.82639746772066 101.84204830952632, -35.21338527693469 106.51296553775595, -45.09372512041571 119.3496450442879" stroke="#000000" stroke-width="1" fill="none"></path></g></g><g transform="translate(236 548.5) rotate(0 86 51.5)"><path d="M88.06403939053416 -1.7545795254409313 C108.83715310063214 11.918734141718597, 130.92876545920967 24.674510237853973, 173.23580364510417 53.477752823382616 M87.59141297079623 0.09551330469548702 C115.12517594214529 17.249662598315627, 143.39960767276585 32.790699823293835, 171.2806592080742 52.70063295029104 M170.44210724160075 50.95865930989385 C145.53163863925263 69.51147206081077, 114.86821791270748 84.2841210448183, 86.27284900471568 102.69430663064122 M171.0368747804314 52.982526203617454 C146.5197787704505 67.88391086095945, 122.92975108517334 82.6016458149068, 86.50945574976504 103.93849690817297 M86.52923194691539 102.55530955269933 C57.57046896295623 86.96169586071744, 32.685073545780035 71.96107625870033, 0.6955869607627392 52.67818297818303 M87.17300469614565 102.10968764685094 C58.01534810101613 87.83512893138455, 30.011277217585594 70.98106947043911, 0.6579853389412165 51.610296031460166 M-0.09463043883442879 52.09408702328801 C33.10183326531202 32.15427484059706, 63.65007958099246 15.564591021034865, 85.78319231793284 -0.5236210636794567 M0.8318950030952692 52.40369441173971 C27.970981477834286 35.482725799512124, 53.92186630822718 19.902926863413306, 86.989980885759 0.36733647249639034" stroke="#000000" stroke-width="1" fill="none"></path></g><g><g transform="translate(465.07118644067805 446.88751872006856) rotate(0 8.644212438663828 46.73446708919681)"><path d="M0.43747924491763124 -0.039368581026792526 C3.34666462803242 15.916873201385492, 15.326064751762022 79.01469954677103, 18.080407758167826 94.57457520979854 M-0.791982880840078 -1.1056410314049572 C1.942900070631702 14.567922911310921, 14.590612532653903 76.71063097872947, 17.362955553782054 92.57921730418155" stroke="#000000" stroke-width="1" fill="none"></path></g><g transform="translate(465.07118644067805 446.88751872006856) rotate(0 8.644212438663828 46.73446708919681)"><path d="M1.9390180869263567 67.54069654799733 C7.566550179348338 74.69727470930599, 10.883188252822736 85.88471668990505, 16.659268165332147 92.88528943870614 M2.37154076939942 65.84310220524404 C5.325199742352156 72.3047486813364, 7.965118231003583 79.18053307973764, 17.91039358856983 91.96059454482446" stroke="#000000" stroke-width="1" fill="none"></path></g><g transform="translate(465.07118644067805 446.88751872006856) rotate(0 8.644212438663828 46.73446708919681)"><path d="M22.09718162978096 63.69772309435925 C20.58962315130212 72.280932597428, 16.808411484021473 84.82151610174003, 16.659268165332147 92.88528943870614 M22.529704312254022 62.000128751605956 C21.056640083737168 69.18218506221663, 19.253693646786083 76.90496189278525, 17.91039358856983 91.96059454482446" stroke="#000000" stroke-width="1" fill="none"></path></g></g><g transform="translate(486 465) rotate(0 31 13)"><text x="0" y="18" font-family="Virgil, Segoe UI Emoji" font-size="20px" fill="#000000" text-anchor="start" style="white-space: pre;" direction="ltr">decline</text></g><g transform="translate(346 406.5) rotate(0 59 26)"><text x="0" y="18" font-family="Virgil, Segoe UI Emoji" font-size="20px" fill="#000000" text-anchor="start" style="white-space: pre;" direction="ltr">Apply filter </text><text x="0" y="44" font-family="Virgil, Segoe UI Emoji" font-size="20px" fill="#000000" text-anchor="start" style="white-space: pre;" direction="ltr"></text></g><g transform="translate(284 453) rotate(0 34 13)"><text x="0" y="18" font-family="Virgil, Segoe UI Emoji" font-size="20px" fill="#000000" text-anchor="start" style="white-space: pre;" direction="ltr">accept</text></g><g transform="translate(334 400.5) rotate(0 66 18.5)"><path d="M1.2177077941596508 -0.0270681194961071 C51.69109112918379 0.2865927401930093, 99.19442365244035 1.5653206292539834, 132.07578186318284 -1.9336823038756847 M0.8987874481827021 -0.6310887727886438 C35.17581219039859 1.3551734334230428, 68.40713113732639 0.9133507257699971, 132.25928307510918 -0.1466814074665308 M130.08750538155442 1.9722730107605457 C131.32085309056572 10.547013663686812, 129.82340381173424 20.577461866661906, 133.05475227162248 38.946903485804796 M132.22411681152886 0.3426093067973852 C131.89402049208064 9.36651889178902, 132.33187686825175 18.341255121678117, 131.32253701426094 37.18421538732946 M133.35874263569718 36.8657677359879 C89.42968837171796 37.091182494089004, 45.04401103034617 38.5567313670367, -1.3569519110023975 35.57430400326848 M131.38611037470406 37.93389733694494 C91.04997596852485 36.567745776027444, 49.88993752487005 36.75547400221229, -0.06410490535199642 36.59211375378072 M-0.1073743887245655 37.93088187649846 C-1.6064137154631317 21.73219711985439, -0.3635599547438323 9.010948428884149, 0.40109411999583244 1.2142663188278675 M-0.6737645771354437 37.710097094997764 C-0.9147367746569216 21.617532102577385, -0.30339178154245017 7.330163872241972, 0.9724652264267206 -0.13105515576899052" stroke="#000000" stroke-width="1" fill="none"></path></g><g><g transform="translate(443 307) rotate(0 -19.23453852143541 45.89465312517416)"><path d="M-0.35203007608652115 -2.4438027724623677 C-5.957829021576894 12.296506573157941, -29.498208917994564 75.39668837486424, -35.442781972371655 91.03865431635043 M-3.9876563309133055 2.4012504838407045 C-9.87561858327573 18.756573808737038, -32.352267545232436 78.91935964200614, -38.117046966784315 94.23310902281068" stroke="#000000" stroke-width="1" fill="none"></path></g><g transform="translate(443 307) rotate(0 -19.23453852143541 45.89465312517416)"><path d="M-41.328602877462565 63.08636971526336 C-38.491260512307775 69.32439187023259, -38.0294578025566 81.4464330967288, -36.657638460033255 93.34113840325139 M-39.6272452520377 65.32030659877252 C-37.043833149821936 71.14692485298437, -38.39896256164362 81.42986194300882, -39.39929140322717 95.01191748990081" stroke="#000000" stroke-width="1" fill="none"></path></g><g transform="translate(443 307) rotate(0 -19.23453852143541 45.89465312517416)"><path d="M-22.11122390807168 70.28444917666502 C-23.931723651476084 74.77951264922882, -27.99424904960076 85.2069173031823, -36.657638460033255 93.34113840325139 M-20.409866282646817 72.51838606017418 C-23.35751725401886 75.89614040629645, -30.32711119047775 84.0761184067422, -39.39929140322717 95.01191748990081" stroke="#000000" stroke-width="1" fill="none"></path></g></g><g transform="translate(404 235) rotate(0 89.5 57.5)"><path d="M1.4814789146184921 0.4686875492334366 C61.42864643745123 -2.128175185546279, 119.5254569046199 -3.585298465117812, 182.9037139266729 -3.825045570731163 M-1.4448032304644585 1.9032622501254082 C59.555092984810464 0.4687948178499939, 119.53448901697992 -1.5276916075497864, 179.77221418172118 -0.44923413544893265 M177.60940621793267 2.6475458294153214 C179.20646168626843 26.54375201277435, 178.86648871339855 60.56790314242244, 176.03528808057305 117.39093734323978 M180.09182287007567 -0.6182385757565498 C180.91168770007786 24.303209284320477, 181.0914512556046 51.36222275719047, 178.79493189603087 116.15755330771208 M181.49745009839532 117.41369964182377 C122.70674717612562 114.36415959320962, 63.29517938569187 111.34145403824746, -0.747337594628334 112.2669696956873 M178.37595415860412 115.68318998068571 C115.087099846825 115.36258274503052, 55.795811758190396 113.39131909795105, -1.7187807485461235 115.73448693007231 M0.8189503997564316 118.55474664270878 C-1.185897469893098 91.19896540232003, -0.796713948622346 68.06976192072034, -2.9114482551813126 -2.5187258571386337 M-1.7064230367541313 116.25359284132719 C-1.8368234645575283 71.96024334989488, -2.5257885467261074 32.99733056500553, 0.3123750761151314 -1.3427008464932442" stroke="#000000" stroke-width="1" fill="none"></path></g><g><g transform="translate(456.50183698457226 72.41003206263719) rotate(0 8.463391481514037 81.13077530714007)"><path d="M-0.28902247995138186 -1.8041297331452368 C2.103464221764034 25.253689874889556, 12.501262308202316 134.02741808336032, 15.254682949533617 161.19410355646673 M-3.8904446111619473 3.3881746016442778 C-0.6523066118772567 30.90644584281455, 17.816357183547943 137.37214589214378, 20.817227574190056 164.06568034742537" stroke="#000000" stroke-width="1" fill="none"></path></g><g transform="translate(456.50183698457226 72.41003206263719) rotate(0 8.463391481514037 81.13077530714007)"><path d="M4.000630691177362 135.45124723743538 C9.095785671932877 145.64622748946624, 13.827821471377597 156.02737244922386, 24.1693413128461 165.9479590133256 M5.417307309336179 135.84828238170485 C10.904744436105368 148.2283167597586, 15.288437054341891 157.65057664244253, 21.24791201402799 165.63427576426926" stroke="#000000" stroke-width="1" fill="none"></path></g><g transform="translate(456.50183698457226 72.41003206263719) rotate(0 8.463391481514037 81.13077530714007)"><path d="M24.305027282121934 132.47610329747593 C22.631895533197802 143.61731381184208, 20.620143087669636 154.98660637005375, 24.1693413128461 165.9479590133256 M25.72170390028075 132.8731384417454 C23.301596941392205 146.69090217092895, 19.830796847857773 157.26405793412886, 21.24791201402799 165.63427576426926" stroke="#000000" stroke-width="1" fill="none"></path></g></g><g transform="translate(249 181.5) rotate(0 87 13)"><text x="0" y="18" font-family="Virgil, Segoe UI Emoji" font-size="20px" fill="#000000" text-anchor="start" style="white-space: pre;" direction="ltr">Orderbook node A</text></g><g transform="translate(451 29) rotate(0 28.5 13)"><text x="28.5" y="18" font-family="Virgil, Segoe UI Emoji" font-size="20px" fill="#000000" text-anchor="middle" style="white-space: pre;" direction="ltr">Client</text></g><g transform="translate(499 109) rotate(0 62 13)"><text x="0" y="18" font-family="Virgil, Segoe UI Emoji" font-size="20px" fill="#000000" text-anchor="start" style="white-space: pre;" direction="ltr">submit intent</text></g><g transform="translate(908 185) rotate(0 87.5 13)"><text x="0" y="18" font-family="Virgil, Segoe UI Emoji" font-size="20px" fill="#000000" text-anchor="start" style="white-space: pre;" direction="ltr">Orderbook node B</text></g><g transform="translate(431 10) rotate(0 48.5 32)"><path d="M77.20390295670555 7.33868846707966 C84.57621778104824 10.02356799262831, 90.53096099112292 13.45263263435988, 93.77494125572474 19.073181813821495 C97.01892152032656 24.69373099328311, 99.28784954049779 34.543610540308165, 96.66778454431645 41.06198354384935 C94.0477195481351 47.58035654739054, 85.2920382097386 54.28742086011134, 78.05455127863667 58.18341983506862 C70.81706434753472 62.0794188100259, 62.45104649274579 63.98873088321089, 53.242862957704794 64.43797739359302 C44.0346794226638 64.88722390397514, 30.813893313805032 64.22901286182285, 22.805450068390712 60.87889889736138 C14.79700682297639 57.52878493289991, 8.800503882858079 50.052941736810006, 5.192203485218862 44.33729360682419 C1.5839030875796438 38.621645476838374, -0.5438306419207113 32.616212875060434, 1.1556476825554043 26.5850101174465 C2.8551260070315196 20.553807359832568, 8.859530507240265 12.665497455515089, 15.389073432075556 8.150077061140589 C21.918616356910846 3.634656666766089, 31.179149062138396 0.4371458094411196, 40.332905231567146 -0.5075122488004986 C49.4866614009959 -1.4521703070421168, 61.686843135154334 -1.1207820888141105, 70.31161044864805 2.48212871169088 C78.93637776214177 6.08503951219587, 88.32949922356188 14.61556694761651, 92.08150911252946 21.109952554229444 C95.83351900149704 27.604338160842378, 92.92237224309204 41.41631286260929, 92.82366978245349 41.44844235136847 M58.95364961136228 1.076312008042013 C67.51549457751912 1.6723332712143297, 77.1409303433245 7.13035753035155, 83.19735611065309 11.154129008510488 C89.25378187798168 15.177900486669426, 93.59014708525103 18.80471673913815, 95.29220421533387 25.21894087699564 C96.9942613454167 31.633165014853127, 97.53440971383583 43.58864525808585, 93.40969889115006 49.63947383565541 C89.28498806846429 55.69030241322497, 78.87058915506108 58.85619742354028, 70.54393927921922 61.52391234241303 C62.21728940337735 64.19162726128577, 52.960828504236716 66.79277725221215, 43.449799636098845 65.6457633488919 C33.938770767960975 64.49874944557166, 20.99836009144109 58.94690010870549, 13.477766070392015 54.64182892249155 C5.957172049342939 50.336757736277605, -0.11549340417969844 45.524376106766965, -1.6737644901956088 39.81533623160823 C-3.232035576211519 34.10629635644949, -0.01189454263372447 26.088623693774956, 4.128139554296553 20.387589671539104 C8.26817365122683 14.686555649303251, 15.20161233350111 8.91395353813615, 23.166440091386054 5.609132098193118 C31.131267849270998 2.304310658250086, 45.66932675059135 1.8222013369947476, 51.917106101606215 0.5586610318809093 C58.16488545262108 -0.704879273232929, 59.78323155819259 -2.024661395760201, 60.65311619747524 -1.972109732489912 C61.523000836757895 -1.919558069219623, 58.02505065681768 -0.3936758870950203, 57.13641393730212 0.8739710115026433" stroke="#000000" stroke-width="1" fill="none"></path></g><g><g transform="translate(403 279) rotate(0 -40.64783713445067 11.158537755906565)"><path d="M-2.7018480643630025 -2.507914866507053 C-16.479790864884855 1.2484944765766461, -67.62725448856752 20.6985823576649, -80.75852116197348 24.824990378320216 M1.0269102014601232 2.3023346816003327 C-13.184473505268496 5.059427184512218, -68.31479252999029 17.029784839401643, -82.32258447036148 20.805031181424855" stroke="#000000" stroke-width="1" fill="none"></path></g><g transform="translate(403 279) rotate(0 -40.64783713445067 11.158537755906565)"><path d="M-60.87410394508756 6.042604819508153 C-63.63024609689566 10.60361718684582, -76.5241206092738 13.806625146771228, -85.8298209361732 18.993589983433484 M-56.78050834346927 3.995890535982209 C-63.12565529252052 8.996202020375701, -71.50674048151686 12.89958747638893, -81.70210835114122 19.80778206244111" stroke="#000000" stroke-width="1" fill="none"></path></g><g transform="translate(403 279) rotate(0 -40.64783713445067 11.158537755906565)"><path d="M-56.1011809740403 26.001041849954426 C-60.94060314589595 23.121576464773902, -75.59178874089277 18.976218905685954, -85.8298209361732 18.993589983433484 M-52.00758537242201 23.954327566428482 C-59.73217523006407 22.978783083184524, -69.53582196779821 20.933590432103784, -81.70210835114122 19.80778206244111" stroke="#000000" stroke-width="1" fill="none"></path></g></g><g transform="translate(318 247) rotate(0 31 13)"><text x="0" y="18" font-family="Virgil, Segoe UI Emoji" font-size="20px" fill="#000000" text-anchor="start" style="white-space: pre;" direction="ltr">decline</text></g><g transform="translate(250 267) rotate(0 36.5 37)"><path d="M34.65357810352866 0.7681576013953091 C41.22269508516621 -0.4750422717534246, 48.092199138935555 2.2878094007854886, 53.85877793770981 6.338045202290111 C59.625356736484065 10.388281003794734, 66.24004592242122 18.484048060614125, 69.25305089617419 25.069572410423042 C72.26605586992716 31.65509676023196, 73.7019677934834 38.62136585622864, 71.93680778022767 45.851191301143615 C70.17164776697193 53.08101674605859, 64.68997992853834 63.478413321260206, 58.66209081663978 68.44852507991288 C52.63420170474123 73.41863683856556, 43.42166297748205 76.26993610041951, 35.769473108836344 75.67186185305968 C28.117283240190638 75.07378760569985, 18.3243820443463 69.9115258820534, 12.748951604765551 64.86007959575386 C7.173521165184802 59.80863330945432, 3.6907526787681917 52.5863301844704, 2.3168904713518472 45.363184135262436 C0.9430282639355028 38.140038086054474, 2.182203203197016 28.138832253328317, 4.505778360267485 21.521203300506066 C6.829353517337953 14.903574347683815, 8.849458135896892 9.10066654707853, 16.25834141377466 5.657410418328933 C23.667224691652425 2.214154289579336, 40.83142432675402 -0.42034592886008615, 48.95907802753408 0.8616665280084845 C57.08673172831415 2.143678984877055, 64.72723157522033 12.377496167232149, 65.02426361845504 13.349485159540357 M16.80184392331322 6.642403364923652 C22.78520463121752 3.3902152055969474, 33.585942156794864 2.63321563414307, 41.57751656428246 3.2365603036805197 C49.56909097177006 3.8399049732179695, 60.02214210937636 5.178056102244838, 64.7512903682388 10.262471382148352 C69.48043862710124 15.346886662051865, 69.04900014058134 25.80327979074589, 69.95240611745709 33.7430519831016 C70.85581209433283 41.68282417545731, 73.54186041996006 51.4653337373747, 70.17172622949329 57.90110453628262 C66.80159203902652 64.33687533519054, 57.46051644722844 70.41112599149436, 49.73160097465643 72.35767677654911 C42.00268550208442 74.30422756160387, 31.12215604833865 71.80271115648898, 23.798233394061207 69.58040924661114 C16.474310739783764 67.3581073367333, 10.108122751613454 64.4644582588194, 5.7880650489917755 59.02386531728202 C1.468007346370098 53.58327237574463, -2.189703981324504 44.480423563895926, -2.122112821668857 36.936851597386784 C-2.05452166201321 29.39327963087764, 2.3883162824023807 18.767595932110883, 6.193612006925658 13.762433518227155 C9.998907731448936 8.757271104343427, 17.9037641516993 8.132006742951187, 20.709661525470807 6.905877114084426 C23.515558899242315 5.679747485217664, 22.857359268670635 5.905857842348088, 23.028996249554698 6.405655745026586" stroke="#000000" stroke-width="1" fill="none"></path></g><g transform="translate(265 291) rotate(0 21.5 13)"><text x="21.5" y="18" font-family="Virgil, Segoe UI Emoji" font-size="20px" fill="#000000" text-anchor="middle" style="white-space: pre;" direction="ltr">drop</text></g><g transform="translate(284.5 832) rotate(0 46.5 13)"><text x="46.5" y="18" font-family="Virgil, Segoe UI Emoji" font-size="20px" fill="#000000" text-anchor="middle" style="white-space: pre;" direction="ltr">Filter list</text></g><g transform="translate(253 888.5) rotate(0 43 39.5)"><path d="M42.31538299843669 1.852717537432909 C58.01026247031987 11.916289860717953, 72.05120051726699 27.306312295012177, 87.98352710530162 38.836900014430285 M44.39674569107592 -0.6887460742145777 C56.29885508194566 12.924631957672537, 68.44421119131148 24.337397840581833, 85.11078173853457 40.545300802215934 M84.11881629750133 41.38149668648839 C70.49420259865002 54.15888961359859, 58.832646577898416 63.857946942858405, 44.85694865509868 80.7685302682221 M86.42862755991518 40.28094466589391 C71.37262856205925 52.90014232687652, 58.07854955373332 65.87897326286881, 43.41287578083575 79.92681672237813 M42.57063750550151 78.24302806332707 C29.162965981718155 64.86760247897357, 12.667545913960787 52.94677730098366, -0.7453873939812183 39.405105132609606 M43.9285823199898 79.59716822765768 C31.279066918659954 67.43349161591381, 19.1387486612983 55.33747481904924, -0.9062517192214727 40.32326146028936 M1.4812714271247387 38.45305873826146 C13.754742410033943 27.63059645049274, 26.73081330806017 16.002220286950468, 42.56116251274943 1.8756529279053211 M0.6447178814560175 39.17685576342046 C12.759433889761567 28.27018107518554, 25.788542373105884 16.836384170204404, 44.39564777351916 0.3136755432933569" stroke="#000000" stroke-width="1" fill="none"></path></g><g transform="translate(1175 415.5) rotate(0 34.5 13)"><text x="0" y="18" font-family="Virgil, Segoe UI Emoji" font-size="20px" fill="#000000" text-anchor="start" style="white-space: pre;" direction="ltr">Accept</text></g><g><g transform="translate(995.4763399425174 421.5736793336955) rotate(0 0.9211485613142258 69.84340946840899)"><path d="M-0.7766231529414653 -0.3762156374752521 C-0.20634070622406087 23.22869147289648, 2.331283245112415 117.67813289408159, 2.6189202755700536 141.30615172930683 M1.0165109624247997 -1.619332792488858 C1.5423241810533483 21.641465240727285, 1.5623569608271524 115.89746416018865, 1.9307306137971318 139.38298828860437" stroke="#000000" stroke-width="1" fill="none"></path></g><g transform="translate(995.4763399425174 421.5736793336955) rotate(0 0.9211485613142258 69.84340946840899)"><path d="M-9.158321191815382 112.09127716201944 C-5.535271659324639 115.93016830897325, -2.9536417361191782 124.86423445264865, 0.4115099226228631 141.08100461547886 M-7.551495659423715 111.16655124019486 C-5.443167520256305 120.8494920184544, -0.09749995045958038 131.6191220342424, 1.7709063821576274 138.5075028180859" stroke="#000000" stroke-width="1" fill="none"></path></g><g transform="translate(995.4763399425174 421.5736793336955) rotate(0 0.9211485613142258 69.84340946840899)"><path d="M11.362362228680773 111.94446319261057 C10.201601156282477 115.68477000682432, 7.999816004808367 124.65305879991412, 0.4115099226228631 141.08100461547886 M12.96918776107244 111.019737270786 C7.9519567039423364 120.6782648052001, 6.170673380632717 131.49888415350486, 1.7709063821576274 138.5075028180859" stroke="#000000" stroke-width="1" fill="none"></path></g></g><g transform="translate(933 568.5) rotate(0 108 33.5)"><path d="M0.8930837276550605 0.20672483742970674 C84.22697450521134 1.7645639274235387, 172.4387037751825 0.29054773076697793, 215.035784294658 0.017626635204164683 M0.6940091150426588 0.5265202241875327 C47.09624837580414 -1.5005945881829603, 92.92005919561943 -0.6937063163565264, 216.07903449060606 0.47678244540413983 M214.39715663716197 1.148032445460558 C216.92045699225739 16.7394044732675, 217.07678960429504 36.71727018393577, 217.42340544983745 68.20446910336614 M215.03981597162783 0.9567664470523596 C215.99416339641436 22.98888539951295, 216.09814030176028 47.26718011796475, 215.43151963688433 67.88439204357564 M214.63131120015348 66.30793300851192 C139.5567187761566 65.76939262208056, 66.77224384545347 68.03084960401591, 1.1083098523279025 67.54832972018713 M216.80898815189755 66.95175704643833 C147.11064689055038 68.7549937516323, 79.03686204641129 67.4129756996657, -0.7125889651492155 67.36328088221335 M-0.5289014168083668 68.39970924332738 C1.6388024507276713 47.5307117620483, 1.2222056804411112 26.171498979255553, 1.348871748894453 -0.6118091158568859 M0.686783978715539 66.74943657778203 C-0.6904525821469725 48.62583027724176, -0.5551989739201963 31.489488609880205, -0.42533849738538265 0.48539271019399166" stroke="#000000" stroke-width="1" fill="none"></path></g><g transform="translate(951 586.5) rotate(0 92.5 13)"><text x="0" y="18" font-family="Virgil, Segoe UI Emoji" font-size="20px" fill="#000000" text-anchor="start" style="white-space: pre;" direction="ltr">lower node A score</text></g><g transform="translate(1014 467.5) rotate(0 31 13)"><text x="0" y="18" font-family="Virgil, Segoe UI Emoji" font-size="20px" fill="#000000" text-anchor="start" style="white-space: pre;" direction="ltr">decline</text></g><g transform="translate(927 727.5) rotate(0 122 13)"><text x="0" y="18" font-family="Virgil, Segoe UI Emoji" font-size="20px" fill="#000000" text-anchor="start" style="white-space: pre;" direction="ltr">Ban if score &lt; threshold</text></g><g transform="translate(1027.5 936.5) rotate(0 33 13)"><text x="33" y="18" font-family="Virgil, Segoe UI Emoji" font-size="20px" fill="#000000" text-anchor="middle" style="white-space: pre;" direction="ltr">node A</text></g><g transform="translate(965 801) rotate(0 136 140.5)"><path d="M136.8094174079597 0.3876996226608753 C187.39840108165518 55.734144589584325, 240.26805914109573 108.53166413055735, 271.68221620842814 141.25859703496099 M137.9892050717026 -0.08198384381830692 C169.98456070167944 32.27258631745353, 200.66687492715195 65.86538893422112, 272.85002876259387 140.73839916847646 M270.5307317189872 141.95080723240972 C229.31564404722303 186.50192719763146, 183.78212057054043 230.60534329405056, 136.0327228717506 281.56574227288365 M271.8075993154198 141.62655462883413 C225.79950085487218 189.96284378590062, 178.17788177095355 238.42623281376436, 136.31430656649172 281.89227112196386 M138.4977239780128 281.63414265587926 C83.65924983415754 224.88890887552873, 34.209641309082514 171.68697714934126, -1.7100817747414112 141.64265145733953 M136.9897573683411 280.5779271926731 C86.94524868298322 228.36861504806205, 35.098170216009024 175.82656934676692, -0.9957743790000677 141.97495128773153 M0.8997252397239208 139.637046713382 C41.614412357416 98.75463875265793, 80.58398544037715 59.6525836856477, 137.84235207363963 1.1769466586411 M0.688084015622735 141.50351812504232 C41.75620473952964 95.43288244461641, 86.14524236707017 49.55244890624657, 137.75383133627474 0.1924333181232214" stroke="#000000" stroke-width="1" fill="none"></path></g><g transform="translate(1054.5 853.5) rotate(0 46.5 13)"><text x="46.5" y="18" font-family="Virgil, Segoe UI Emoji" font-size="20px" fill="#000000" text-anchor="middle" style="white-space: pre;" direction="ltr">Filter list</text></g><g transform="translate(1023 910) rotate(0 43 39.5)"><path d="M42.64848546311259 1.0417899079620838 C53.268748526647684 8.835889558307827, 61.776535304635765 17.44616641383618, 84.7374746017158 40.63649942353368 M44.557875046506524 -0.8136300835758448 C57.231631866842505 12.341756593845785, 72.39313904680311 25.627525959573685, 86.26626152731478 40.71018501184881 M86.41591564938426 40.66431142762303 C74.8594462707825 48.368492780178784, 65.08427714521065 59.02292603116483, 44.94525436684489 79.37354196980596 M86.41848845221102 40.85607667826116 C74.58900862058626 51.19246586374938, 63.21268738565967 61.608679628930986, 44.819328317418694 78.79721011780202 M42.700141947716475 77.55195822194219 C35.91305094098672 69.65470828007906, 23.257413540389386 63.17131075397134, 1.4284972362220287 38.99008967354894 M44.12351752258837 79.31433286331594 C33.004649612475184 69.5797236129269, 22.686239972133187 61.77657491765916, -0.1263899113982916 39.032586893066764 M0.8819016627967358 38.27516486123204 C13.511498477309942 27.98320086352527, 27.079261012375355 17.461474575623868, 44.39215926453471 1.919858355075121 M-0.6765860822051764 40.51322587393224 C16.112774205580354 24.510651513189075, 33.402292187139395 10.040254018455737, 44.948699126020074 0.6555121149867773" stroke="#000000" stroke-width="1" fill="none"></path></g><g><g transform="translate(959.5470927275428 320.992474032422) rotate(0 0.7521627267699955 123.02723919117318)"><path d="M1.1258973710238933 0.19199669435620303 C1.0287816449800857 40.91331631593548, -0.36615825752430736 204.54740845524483, -0.36032827433959935 245.36105824650184 M0.2578547614719717 -0.7528089864458889 C0.5120986254221178 40.67727923327267, 1.7898229632183804 205.65691492551716, 1.864653727879586 246.80728736879223" stroke="#000000" stroke-width="1" fill="none"></path></g><g transform="translate(959.5470927275428 320.992474032422) rotate(0 0.7521627267699955 123.02723919117318)"><path d="M-8.222543636476061 217.12435012490783 C-5.274795991480115 228.5245379919056, -2.4383925696172293 234.76079350227906, 3.0053039220178746 247.13280861811631 M-7.735359382023475 217.99549680569504 C-3.6819355104963494 228.33118583970526, -1.2994631254563433 239.29725484287675, 2.034344167357149 245.9344913902312" stroke="#000000" stroke-width="1" fill="none"></path></g><g transform="translate(959.5470927275428 320.992474032422) rotate(0 0.7521627267699955 123.02723919117318)"><path d="M12.298387005141919 217.01754194289958 C8.710511777806053 228.64428865641534, 5.010372761833937 234.9145658311372, 3.0053039220178746 247.13280861811631 M12.785571259594505 217.8886886236868 C9.415289696415684 228.21028520458827, 4.373057362776516 239.21499861559874, 2.034344167357149 245.9344913902312" stroke="#000000" stroke-width="1" fill="none"></path></g></g><g transform="translate(900 401.5) rotate(0 36 52)"><text x="0" y="18" font-family="Virgil, Segoe UI Emoji" font-size="20px" fill="#000000" text-anchor="start" style="white-space: pre;" direction="ltr">decline </text><text x="0" y="44" font-family="Virgil, Segoe UI Emoji" font-size="20px" fill="#000000" text-anchor="start" style="white-space: pre;" direction="ltr">on </text><text x="0" y="70" font-family="Virgil, Segoe UI Emoji" font-size="20px" fill="#000000" text-anchor="start" style="white-space: pre;" direction="ltr">same</text><text x="0" y="96" font-family="Virgil, Segoe UI Emoji" font-size="20px" fill="#000000" text-anchor="start" style="white-space: pre;" direction="ltr"> lvl</text></g><g><g transform="translate(988 947.5) rotate(0 -269.9104401600222 -0.04163249063304875)"><path d="M0.05772395208477965 -0.007108915597200394 C-89.70826535945136 -0.043832743912935235, -449.22521483028925 -0.17840622738003728, -538.9544647924602 -0.3699968464672565 M-1.3711097024101764 -1.0564450416248292 C-91.25976469131498 -0.9080811316054315, -450.31957148514374 0.8715072914678604, -539.878604272129 0.9731800603587182" stroke="#000000" stroke-width="1" fill="none"></path></g><g transform="translate(988 947.5) rotate(0 -269.9104401600222 -0.04163249063304875)"><path d="M-28.1502080150928 10.31479987328272 C-21.125844096051047 8.594704328209966, -14.820537899398014 6.058135864713622, -1.8567635104060174 1.7685891911387444 M-27.395453410321068 11.074326809620072 C-21.01790879703397 7.48075556488875, -15.652790118658926 4.887627194722903, 0.4048154089599847 0.4446059074252844" stroke="#000000" stroke-width="1" fill="none"></path></g><g transform="translate(988 947.5) rotate(0 -269.9104401600222 -0.04163249063304875)"><path d="M-28.139590166216855 -10.206405979374303 C-21.14368668474249 -6.383255147615527, -14.841248608925188 -3.3765823418153387, -1.8567635104060174 1.7685891911387444 M-27.384835561445122 -9.446879043036951 C-20.916517752187296 -8.19405288779677, -15.553906643534102 -5.940780159842386, 0.4048154089599847 0.4446059074252844" stroke="#000000" stroke-width="1" fill="none"></path></g><g transform="translate(988 947.5) rotate(0 -269.9104401600222 -0.04163249063304875)"><path d="M-511.73346909019654 -9.303912387741851 C-519.9570309452575 -5.43264469160272, -528.8739611861353 -2.4049575951200577, -541.7930917346198 2.748878167094663 M-510.9787144854248 -8.5443854514045 C-517.8161864678067 -7.2928105295666, -525.7597187758711 -5.02116521480026, -539.5315128152538 1.424894883381203" stroke="#000000" stroke-width="1" fill="none"></path></g><g transform="translate(988 947.5) rotate(0 -269.9104401600222 -0.04163249063304875)"><path d="M-511.6661816810955 11.21718589647323 C-519.8823272027778 9.545273747441763, -528.817433292858 7.029748631294004, -541.7930917346198 2.748878167094663 M-510.9114270763238 11.976712832810582 C-517.8580703008952 8.38188862458427, -525.8174935744173 5.807158245186603, -539.5315128152538 1.424894883381203" stroke="#000000" stroke-width="1" fill="none"></path></g></g><g transform="translate(1022.5 331.5) rotate(0 34.5 13)"><text x="0" y="18" font-family="Virgil, Segoe UI Emoji" font-size="20px" fill="#000000" text-anchor="start" style="white-space: pre;" direction="ltr">Accept</text></g><g transform="translate(421.5 362.5) rotate(0 34.5 13)"><text x="0" y="18" font-family="Virgil, Segoe UI Emoji" font-size="20px" fill="#000000" text-anchor="start" style="white-space: pre;" direction="ltr">Accept</text></g><g><g transform="translate(1006.7234825703624 644.5) rotate(0 -15.49698368979034 30.938627188191788)"><path d="M0.44623341634869584 0.13324056789278993 C-4.56945939927942 10.481774792199337, -25.36073253003987 52.36222949090106, -30.31126802755275 62.71966645568612 M-0.7786327694077044 -0.8424120793025941 C-5.963497533766766 9.076984953529516, -26.628295635833542 50.05354972466518, -31.440200795929297 60.786004151525" stroke="#000000" stroke-width="1" fill="none"></path></g><g transform="translate(1006.7234825703624 644.5) rotate(0 -15.49698368979034 30.938627188191788)"><path d="M-28.264151852019694 30.35754640203836 C-28.56289486984365 40.54180208712569, -30.13198424788362 49.081814242790834, -31.34963902975188 60.29301930156539 M-29.078872182779577 30.992460291729593 C-28.93408645642356 38.112625355999754, -29.773587495633812 46.90075136236524, -31.69179865675734 59.90566412110815" stroke="#000000" stroke-width="1" fill="none"></path></g><g transform="translate(1006.7234825703624 644.5) rotate(0 -15.49698368979034 30.938627188191788)"><path d="M-9.765334411722616 39.24088787337673 C-15.325554681293646 46.989653732821935, -22.10959768907881 53.025386141971666, -31.34963902975188 60.29301930156539 M-10.580054742482499 39.87580176306796 C-15.113630435915002 44.90018798994998, -20.696512778235935 51.41048861746155, -31.69179865675734 59.90566412110815" stroke="#000000" stroke-width="1" fill="none"></path></g></g><g transform="translate(903 715.5) rotate(0 145 28)"><path d="M-1.2216059572087006 -0.12902442118077725 C104.22566360031824 -0.5686417495938181, 209.0899863540656 -2.8344403999904033, 288.8234642252547 0.5639532699634507 M-0.17882399955716358 0.04933737615748868 C66.72625309033594 -1.1669771361820895, 134.00595214004122 -0.7318109071656663, 289.3972118074064 -0.16316868569460885 M290.44698850438 0.5820949263870716 C288.7062085199356 16.830989646166564, 290.2830580997467 32.133858517557385, 289.8441632203758 57.60281075909734 M290.81505186297 -0.6315225753933191 C290.2480555584282 19.70172735862434, 290.2126968314499 41.27944407425821, 289.35906113125384 55.23986675404012 M290.0973086830744 55.42547268471379 C214.95227996808867 55.02258047863789, 137.68171903672567 55.0132993434238, 0.9181288197461889 55.2419059682805 M289.94283707205926 56.54846537194296 C179.8298411063362 56.9302641793143, 69.95606746688038 56.317962845197485, -0.47200378106477486 55.75104422225365 M-0.6608017273247242 54.43982030823827 C0.32683139890432356 37.014340629428624, -1.010068716108799 22.359876117855308, 1.5654364041984081 1.1806670613586903 M-0.5938425567001104 56.62594552896917 C-1.265718451216817 38.94900674931705, -1.1540778190642595 23.210748618468642, -0.7064914610236883 0.9506849255412817" stroke="#000000" stroke-width="1" fill="none"></path></g></svg>