<svg version="1.1" xmlns="http://www.w3.org/2000/svg" viewBox="0 0 1550.3333333333335 1255.5" width="1550.3333333333335" height="1255.5">
  <!-- svg-source:excalidraw -->
  
  <defs>
    <style>
      @font-face {
        font-family: "Virgil";
        src: url("https://excalidraw.com/Virgil.woff2");
      }
      @font-face {
        font-family: "Cascadia";
        src: url("https://excalidraw.com/Cascadia.woff2");
      }
    </style>
  </defs>
  <rect x="0" y="0" width="1550.3333333333335" height="1255.5" fill="#ffffff"></rect><g transform="translate(42 244.5) rotate(0 83.5 52)"><text x="0" y="18" font-family="Virgil, Segoe UI Emoji" font-size="20px" fill="#000000" text-anchor="start" style="white-space: pre;" direction="ltr">Apply :</text><text x="0" y="44" font-family="Virgil, Segoe UI Emoji" font-size="20px" fill="#000000" text-anchor="start" style="white-space: pre;" direction="ltr">- inclusion fliter</text><text x="0" y="70" font-family="Virgil, Segoe UI Emoji" font-size="20px" fill="#000000" text-anchor="start" style="white-space: pre;" direction="ltr">- exclusion filter</text><text x="0" y="96" font-family="Virgil, Segoe UI Emoji" font-size="20px" fill="#000000" text-anchor="start" style="white-space: pre;" direction="ltr"></text></g><g transform="translate(226 35) rotate(0 28.5 13)"><text x="28.5" y="18" font-family="Virgil, Segoe UI Emoji" font-size="20px" fill="#000000" text-anchor="middle" style="white-space: pre;" direction="ltr">Client</text></g><g transform="translate(203.08333333333337 98.33333333333337) rotate(0 32.5 26)"><text x="0" y="18" font-family="Virgil, Segoe UI Emoji" font-size="20px" fill="#000000" text-anchor="start" style="white-space: pre;" direction="ltr">submit</text><text x="0" y="44" font-family="Virgil, Segoe UI Emoji" font-size="20px" fill="#000000" text-anchor="start" style="white-space: pre;" direction="ltr"> intent</text></g><g transform="translate(204 10) rotate(0 48.5 32)"><path d="M77.20390295670555 7.33868846707966 C84.57621778104824 10.02356799262831, 90.53096099112292 13.45263263435988, 93.77494125572474 19.073181813821495 C97.01892152032656 24.69373099328311, 99.28784954049779 34.543610540308165, 96.66778454431645 41.06198354384935 C94.0477195481351 47.58035654739054, 85.2920382097386 54.28742086011134, 78.05455127863667 58.18341983506862 C70.81706434753472 62.0794188100259, 62.45104649274579 63.98873088321089, 53.242862957704794 64.43797739359302 C44.0346794226638 64.88722390397514, 30.813893313805032 64.22901286182285, 22.805450068390712 60.87889889736138 C14.79700682297639 57.52878493289991, 8.800503882858079 50.052941736810006, 5.192203485218862 44.33729360682419 C1.5839030875796438 38.621645476838374, -0.5438306419207113 32.616212875060434, 1.1556476825554043 26.5850101174465 C2.8551260070315196 20.553807359832568, 8.859530507240265 12.665497455515089, 15.389073432075556 8.150077061140589 C21.918616356910846 3.634656666766089, 31.179149062138396 0.4371458094411196, 40.332905231567146 -0.5075122488004986 C49.4866614009959 -1.4521703070421168, 61.686843135154334 -1.1207820888141105, 70.31161044864805 2.48212871169088 C78.93637776214177 6.08503951219587, 88.32949922356188 14.61556694761651, 92.08150911252946 21.109952554229444 C95.83351900149704 27.604338160842378, 92.92237224309204 41.41631286260929, 92.82366978245349 41.44844235136847 M58.95364961136228 1.076312008042013 C67.51549457751912 1.6723332712143297, 77.1409303433245 7.13035753035155, 83.19735611065309 11.154129008510488 C89.25378187798168 15.177900486669426, 93.59014708525103 18.80471673913815, 95.29220421533387 25.21894087699564 C96.9942613454167 31.633165014853127, 97.53440971383583 43.58864525808585, 93.40969889115006 49.63947383565541 C89.28498806846429 55.69030241322497, 78.87058915506108 58.85619742354028, 70.54393927921922 61.52391234241303 C62.21728940337735 64.19162726128577, 52.960828504236716 66.79277725221215, 43.449799636098845 65.6457633488919 C33.938770767960975 64.49874944557166, 20.99836009144109 58.94690010870549, 13.477766070392015 54.64182892249155 C5.957172049342939 50.336757736277605, -0.11549340417969844 45.524376106766965, -1.6737644901956088 39.81533623160823 C-3.232035576211519 34.10629635644949, -0.01189454263372447 26.088623693774956, 4.128139554296553 20.387589671539104 C8.26817365122683 14.686555649303251, 15.20161233350111 8.91395353813615, 23.166440091386054 5.609132098193118 C31.131267849270998 2.304310658250086, 45.66932675059135 1.8222013369947476, 51.917106101606215 0.5586610318809093 C58.16488545262108 -0.704879273232929, 59.78323155819259 -2.024661395760201, 60.65311619747524 -1.972109732489912 C61.523000836757895 -1.919558069219623, 58.02505065681768 -0.3936758870950203, 57.13641393730212 0.8739710115026433" stroke="#000000" stroke-width="1" fill="none"></path></g><g><g transform="translate(199.64325286042856 61.7511219460268) rotate(0 -4.7766916944519835 84.42783353180562)"><path d="M-0.24724753238260744 0.31436435915529737 C-1.9012281336407262 28.71297190854616, -8.611951213588515 141.38402326900098, -10.15718662136519 169.42186536123853 M1.823808783777058 -0.5661982976272701 C-0.013105773865720094 27.537400607898007, -9.369708729235034 139.10098549596555, -11.377192172681035 167.45389779412997" stroke="#000000" stroke-width="1" fill="none"></path></g><g transform="translate(199.64325286042856 61.7511219460268) rotate(0 -4.7766916944519835 84.42783353180562)"><path d="M-18.89204474161353 137.68762939171543 C-16.903399291646508 146.87734660807425, -16.11546497860499 153.44118103942674, -12.29180973534757 165.94953031780076 M-20.401768562337125 137.80907924314639 C-16.5361910379692 145.8755281745849, -16.521867440465694 152.08553713099596, -12.259019857731701 166.74971271341545" stroke="#000000" stroke-width="1" fill="none"></path></g><g transform="translate(199.64325286042856 61.7511219460268) rotate(0 -4.7766916944519835 84.42783353180562)"><path d="M1.5671035516331067 139.28238752409237 C-2.17134236964508 147.9825285078695, -7.1233874648331685 154.0989406560582, -12.29180973534757 165.94953031780076 M0.05737973090951343 139.40383737552332 C-0.8621487224896798 147.26612775660595, -5.63275969535883 153.1031586589153, -12.259019857731701 166.74971271341545" stroke="#000000" stroke-width="1" fill="none"></path></g></g><g transform="translate(1255.75 710.5) rotate(0 101 39)"><text x="0" y="18" font-family="Virgil, Segoe UI Emoji" font-size="20px" fill="#000000" text-anchor="start" style="white-space: pre;" direction="ltr">lower node A score </text><text x="0" y="44" font-family="Virgil, Segoe UI Emoji" font-size="20px" fill="#000000" text-anchor="start" style="white-space: pre;" direction="ltr">if allowed threshold </text><text x="0" y="70" font-family="Virgil, Segoe UI Emoji" font-size="20px" fill="#000000" text-anchor="start" style="white-space: pre;" direction="ltr">exceeded</text></g><g transform="translate(1385.0000000000002 219.5) rotate(0 67.5 52)"><text x="0" y="18" font-family="Virgil, Segoe UI Emoji" font-size="20px" fill="#000000" text-anchor="start" style="white-space: pre;" direction="ltr">corrupt</text><text x="0" y="44" font-family="Virgil, Segoe UI Emoji" font-size="20px" fill="#000000" text-anchor="start" style="white-space: pre;" direction="ltr">intent</text><text x="0" y="70" font-family="Virgil, Segoe UI Emoji" font-size="20px" fill="#000000" text-anchor="start" style="white-space: pre;" direction="ltr">or decline on</text><text x="0" y="96" font-family="Virgil, Segoe UI Emoji" font-size="20px" fill="#000000" text-anchor="start" style="white-space: pre;" direction="ltr">inclusion filter</text></g><g transform="translate(1110.1666666666665 345.5) rotate(0 34.5 13)"><text x="0" y="18" font-family="Virgil, Segoe UI Emoji" font-size="20px" fill="#000000" text-anchor="start" style="white-space: pre;" direction="ltr">Accept</text></g><g><g transform="translate(1276.0627534480382 300.9421286568913) rotate(0 -0.1923652279845669 118.73353370583214)"><path d="M-0.26932938359677794 0.0013243999332188672 C-0.5129644748369704 39.34684629588254, -1.9414271949727586 197.44292722637095, -2.1948023527412714 237.02569773377047 M1.790133960675448 -1.0435842354409397 C1.986498916522925 38.41421062939666, 0.8253534527185805 199.1115719350081, 0.06045950124794208 238.51065164710522" stroke="#000000" stroke-width="1" fill="none"></path></g><g transform="translate(1276.0627534480382 300.9421286568913) rotate(0 -0.1923652279845669 118.73353370583214)"><path d="M-9.855212056913249 208.74766214474604 C-7.42969027277835 216.20979986757982, -4.27305408387555 224.25060514158216, 0.8323016177379485 240.10145673620642 M-9.675338328719906 209.43239576559083 C-5.289202386708599 220.31170008344574, -2.126513393657281 232.60818625105583, -0.38519150563693083 238.49089830740482" stroke="#000000" stroke-width="1" fill="none"></path></g><g transform="translate(1276.0627534480382 300.9421286568913) rotate(0 -0.1923652279845669 118.73353370583214)"><path d="M10.664486629575464 208.99659627569807 C8.185520337478053 216.35320466742664, 6.4396445024695534 224.3345352586473, 0.8323016177379485 240.10145673620642 M10.844360357768807 209.68132989654285 C7.275592820090426 220.2868018477484, 2.4843787492298883 232.486795470456, -0.38519150563693083 238.49089830740482" stroke="#000000" stroke-width="1" fill="none"></path></g></g><g transform="translate(952.5 398.4999999999999) rotate(0 166.5 158)"><path d="M167.2848710977022 -1.795706102922529 C224.65367751356624 53.91699501687053, 283.0414890809719 112.32863153861474, 335.2080150667548 161.23049024604344 M165.53404972031615 0.8228782743892056 C210.366515358803 43.44111901805175, 254.74921643666707 86.0108896746463, 332.17589722163103 157.81505119084738 M330.348123935971 161.18651436645914 C288.4494586100869 194.87951372322138, 246.7022354793567 235.2573863972795, 167.6007821131219 317.82755423183005 M332.5093414034778 160.1856327127623 C272.82133498636557 211.21364714506328, 218.59768966956426 267.05270058271236, 166.96798016644874 315.0945328281985 M170.31564471230308 317.29287361714523 C100.83248504360853 255.75102851010604, 40.25999190916088 190.61968814565606, 0.5039834365118445 160.49428398480126 M167.2196842763099 316.7868097972715 C101.32729638698939 251.68751636524078, 37.26409313671827 190.92869186292808, -0.9876643283668363 158.7615895699173 M-0.14309271571731363 159.17780320994237 C60.17323781844049 103.50185956491602, 125.91566849084343 44.75599541007504, 168.97016354380818 0.9750593760416952 M-0.6627098753673079 159.38430600489073 C44.44051602547906 117.84831959122127, 91.89130555521514 77.01900250197849, 167.66501752484191 -1.0588218144640804" stroke="#000000" stroke-width="1" fill="none"></path></g><g transform="translate(653 947.75) rotate(0 109.5 13)"><text x="0" y="18" font-family="Virgil, Segoe UI Emoji" font-size="20px" fill="#000000" text-anchor="start" style="white-space: pre;" direction="ltr">Gossip inclusion filter </text></g><g><g transform="translate(273.559491910659 964.4899358269781) rotate(0 414.29935408382835 -411.81691789372115)"><path d="M-0.7146139137446881 -86.92843555712504 C57.83704005801319 -119.33899607366871, 282.18321782205635 -207.76277122570485, 352.3255246318065 -282.1972906998822 C422.46783144155665 -356.6318101740596, 340.6412607031572 -457.78420081378334, 420.13922694475633 -533.5355524021892 C499.6371931863555 -609.286903990595, 761.0073834946891 -703.0142212836271, 829.3133220814013 -736.7054002303172 M1.1110750521998853 -87.9363604466281 C59.520126708710706 -120.09328025395041, 281.75020179606423 -206.7093618908646, 352.00318343023105 -280.74943194953704 C422.25616506439786 -354.78950200820947, 343.11326277700954 -456.372093887221, 422.62896485720074 -532.1767807986625 C502.14466693739195 -607.9814677101041, 761.4708355817617 -701.2085261994706, 829.0973959113782 -735.5775534181863" stroke="#000000" stroke-width="1" fill="none"></path></g><g transform="translate(273.559491910659 964.4899358269781) rotate(0 414.29935408382835 -411.81691789372115)"><path d="M807.4821819140782 -712.9127680433362 C815.5646045323698 -724.0076388476958, 824.3399469769646 -732.1462077640513, 829.1735416981702 -735.9442791796297 M808.1615262720009 -714.2812667579769 C816.7822826416923 -723.0574021360419, 823.990381680717 -731.3236066089562, 828.6119114510094 -736.3979398782373" stroke="#000000" stroke-width="1" fill="none"></path></g><g transform="translate(273.559491910659 964.4899358269781) rotate(0 414.29935408382835 -411.81691789372115)"><path d="M799.2753323218901 -731.7214793802949 C810.3993802940264 -735.5330188506396, 822.3313512014145 -736.4371291738682, 829.1735416981702 -735.9442791796297 M799.9546766798128 -733.0899780949356 C811.7228939747139 -734.4818876249662, 822.1237732089681 -735.4307798479283, 828.6119114510094 -736.3979398782373" stroke="#000000" stroke-width="1" fill="none"></path></g></g><g><g transform="translate(1203.1573347582284 298.8640234108742) rotate(0 -44.23253908281322 97.92035483805486)"><path d="M-0.8851175777614116 -0.7105961211025715 C-15.456198103800764 32.17205725689117, -73.6613163877296 163.75027702249008, -88.16577475190371 196.55130579721234 M0.851056964574382 1.53073696997948 C-13.847075988101189 34.125704191044676, -74.38319566850726 162.08551460463906, -89.31613513020076 194.74548502051323" stroke="#000000" stroke-width="1" fill="none"></path></g><g transform="translate(1203.1573347582284 298.8640234108742) rotate(0 -44.23253908281322 97.92035483805486)"><path d="M-87.8961347496429 164.21647123836237 C-86.51254230508928 171.7452117837005, -87.89294282581025 178.69066469342843, -88.96721870017447 193.29047881969302 M-86.69146187476008 164.98081470683474 C-87.21318072587214 176.86449597761487, -88.71578599608313 186.49216845020896, -89.56945747261145 194.62269451440363" stroke="#000000" stroke-width="1" fill="none"></path></g><g transform="translate(1203.1573347582284 298.8640234108742) rotate(0 -44.23253908281322 97.92035483805486)"><path d="M-69.29460270830074 172.88267041105397 C-72.29169870650439 178.2082506976216, -78.10656248090253 183.0877478734381, -88.96721870017447 193.29047881969302 M-68.08992983341793 173.64701387952633 C-75.441637133853 182.2435069114787, -83.82279152167158 188.66655749917413, -89.56945747261145 194.62269451440363" stroke="#000000" stroke-width="1" fill="none"></path></g></g><g transform="translate(1046.5000000000002 537.5) rotate(0 64 13)"><text x="64" y="18" font-family="Virgil, Segoe UI Emoji" font-size="20px" fill="#000000" text-anchor="middle" style="white-space: pre;" direction="ltr">local mempool</text></g><g transform="translate(199.27046263345187 870.5302491103203) rotate(0 23.2473309608541 9.021352313167256)"><text x="23.247330960854097" y="12.042704626334523" font-family="Virgil, Segoe UI Emoji" font-size="13.87900355871886px" fill="#000000" text-anchor="middle" style="white-space: pre;" direction="ltr">node B</text></g><g transform="translate(1026 498.5) rotate(0 89.5 48)"><path d="M91.60650269314647 -0.508499126881361 C123.26918914834037 22.03635150725022, 161.1801229046099 38.851553729455915, 177.05139927193522 48.094255585223436 M89.77020878531039 -0.25172428227961063 C110.15437595320866 11.11609191192314, 131.7891073984839 23.48990406194702, 178.760877141729 48.300508400425315 M178.6292848996818 50.21139254048467 C143.83297735264526 65.9919922200404, 111.55492175089196 84.01187842966988, 91.77808086201549 97.74129034951329 M179.93677044846117 49.84631766937673 C145.03475409748035 66.68128427477554, 109.88339808827267 86.43429048364982, 90.51643759943545 96.95936234854162 M90.10917083546519 97.7853987403214 C67.36125729678199 85.72406604401768, 47.42219592889771 72.97518251445145, 1.8260019235312939 47.93885077908635 M90.62310178019106 95.7460316028446 C57.754116375986484 78.59935277327895, 24.668502940852193 61.48501535784453, -0.5729173328727484 49.70742489956319 M1.313616555184126 50.58473529294133 C28.34465259285644 34.50546663440764, 56.0104484201409 18.9558036589995, 90.16183726117015 0.0464339442551136 M0.8175450656563044 48.717864295467734 C32.57841905733571 31.60209565460682, 67.77571663601324 12.734151647426188, 89.91279525496066 0.5397522058337927" stroke="#000000" stroke-width="1" fill="none"></path></g><g transform="translate(1110.75 198) rotate(0 104.125 47)"><path d="M1.1880865033085182 0.8672964054835244 C58.212358599919334 0.6911834877808845, 116.75118530808564 4.45693481691778, 210.39739826578258 -2.658479606861646 M-0.7787848311733521 0.8528324311182655 C48.66401853521208 -0.9913352381314335, 97.59046481045601 0.13746419452874065, 208.75732149890052 0.8049006285860932 M207.37480784952638 1.5997044891119003 C210.59085681244727 38.13994852080941, 211.08319642350074 71.20532377809286, 205.17946340143678 92.12785075604916 M207.02228461951015 0.9508683755993843 C207.0035412429273 24.05198375657201, 207.41318274721502 44.14407356381417, 207.7631720229983 94.32672215253115 M210.1589311513196 94.10335494988117 C151.89209186094646 92.57831785011462, 96.94427470800775 94.17321793674968, -3.4447700252535025 95.2812837881555 M207.15557322710484 94.44476037940666 C161.14993000426327 93.76873849411788, 112.61099368593447 91.18121920728191, -0.5422373045720137 95.14264540432352 M-3.7998089641332626 97.42149232327938 C-1.138338233679533 55.89025169238448, 0.11654410198330889 17.26988447457552, 0.13622476160526276 -0.29453255236148834 M1.1784330531954765 94.14191079884768 C-2.628335531204939 71.00380558595062, -1.4825337485969068 43.04661620557308, -1.5440737083554268 -1.9819760248064995" stroke="#000000" stroke-width="1" fill="none"></path></g><g transform="translate(156 381) rotate(0 166.5 158)"><path d="M166.67443007933386 2.881401390790833 C229.52267486054973 59.9280362019924, 283.0824301742233 113.3438962737934, 335.8386207279951 157.2939497014007 M166.7810304962236 -0.21106518578113972 C223.86499553159487 54.043810732031176, 276.9418045126752 107.62534770891973, 332.7300829009211 158.27118188625136 M335.36296325258746 157.54825363226436 C278.2489202814315 209.51196070515806, 225.53053561690393 265.9126592241806, 169.9049691383114 316.2973649963482 M332.05933538696684 159.55968832591887 C291.4895449806684 196.83948768664388, 252.03743245028093 233.8399311226212, 167.27564549510518 315.916081107842 M165.13797671007987 316.23844024804146 C112.93016525440964 265.4132081389991, 59.60885092071023 217.40123946213902, -0.21468822460256964 161.0180959246446 M165.84744232657187 317.4024385925772 C110.34980397657078 259.1986259637846, 54.148861761590936 208.0846167832037, 0.46864097193216786 160.45121378989714 M-2.2585055909909384 156.15769699110774 C65.54898776537902 97.67820807667816, 122.76882074041562 38.17919817551453, 170.26871735050594 0.6216232033362086 M1.2996369045491858 159.98920585068936 C44.947182497945604 115.01814632800802, 94.69827426387847 68.76194387792442, 166.0096684144934 0.7965897187907574" stroke="#000000" stroke-width="1" fill="none"></path></g><g><g transform="translate(273.53868154539646 658.1362158252032) rotate(0 -28.23543892387255 67.93371073085632)"><path d="M0.6979415528476238 -0.8633024923503398 C-8.78824057279605 21.817978889406056, -46.86840725534053 112.40671909481452, -56.81160460925569 135.30591658374865 M-0.3947778612468391 1.297859753826633 C-9.9497397096407 24.233144261310205, -47.800504023222416 114.49363666833543, -57.16881940059272 136.73072395406302" stroke="#000000" stroke-width="1" fill="none"></path></g><g transform="translate(273.53868154539646 658.1362158252032) rotate(0 -28.23543892387255 67.93371073085632)"><path d="M-57.14834883551385 108.64189090258924 C-56.71286071567018 114.32040252766194, -55.120205010430126 126.5696692612991, -58.81510787375179 136.73983609236416 M-55.313863574744126 107.07991351797727 C-56.51851622764694 114.85842610332173, -56.661929412622634 124.43159309335664, -56.36413588479069 137.60871523365017" stroke="#000000" stroke-width="1" fill="none"></path></g><g transform="translate(273.53868154539646 658.1362158252032) rotate(0 -28.23543892387255 67.93371073085632)"><path d="M-38.22896174538663 116.59027404130161 C-43.583822163911954 119.92443759563875, -47.83329683914564 129.71931770516858, -58.81510787375179 136.73983609236416 M-36.3944764846169 115.02829665668965 C-43.184264266640724 120.43894560400743, -48.86351653893779 127.68640458613062, -56.36413588479069 137.60871523365017" stroke="#000000" stroke-width="1" fill="none"></path></g></g><g transform="translate(155.24555160142347 764.5) rotate(0 94.37722419928826 97.5)"><path d="M95.74178282544017 -1.4012331776320934 C133.75412822861054 38.638631478128, 171.47666723619804 78.74672783519047, 187.32288744636014 99.12127556279302 M94.42811269499362 0.42790003679692745 C128.05576219940605 33.932544760379834, 162.11599201314246 68.34921225567524, 188.2402841985239 98.7798992600292 M189.70460608191922 99.06153263524175 C157.833761253996 133.4952110624965, 122.31831480424009 168.24909481863492, 93.39819375798106 194.2108915038407 M188.97812818884984 97.24715628288686 C156.31331611105045 132.2330094130362, 124.23441049582732 165.30786337774495, 94.24369270540774 195.29058273695412 M93.70889798924327 196.21483876183632 C62.00836106834933 157.6270608541556, 26.36298727782443 121.7909712242894, -1.8106753416359425 98.89058389142156 M95.0431669447571 194.71159037016335 C59.310261086169625 159.40309667801486, 24.510267644729453 121.8496055723168, 0.5123471114784479 97.50741817615926 M-1.0426652021706104 99.50802602246404 C36.509181172549724 61.89330827193334, 67.12352582808585 27.63124750265851, 93.0803815536201 -1.9020252041518688 M-0.33602105639874935 97.92758657597005 C26.251086040064692 70.68796341409907, 50.2740480896458 44.78950362382457, 94.75084442831576 -0.9886007700115442" stroke="#000000" stroke-width="1" fill="none"></path></g><g transform="translate(10 167) rotate(0 295 449)"><path d="M-0.06125048995018006 0.17759961485862732 C137.361869610101 -0.6691192463040353, 274.3058942511678 0.8441347286105156, 589.6867958128453 1.3206818521022798 M-0.7193402796983719 -0.07464132010936737 C185.8058913253248 -4.350508799850941, 371.8997233942152 -4.2120140221714975, 589.5470281094313 0.1938703566789627 M589.8573753416538 -1.434883028268814 C596.333924824059 258.7303006224334, 595.6566480219959 520.27135707587, 591.3628496229649 898.5141501367091 M589.5581860989332 -0.39881839454174045 C589.0957279699445 232.0293238200247, 589.4179311292768 465.52563314884895, 590.37645573318 898.6946963340043 M588.5503725111485 897.431485646963 C466.0466834776104 893.7926807692646, 341.01585211008785 895.6054098418355, 1.254876333475113 899.3354931771754 M590.7920326679945 898.2089167624711 C354.14718441143634 895.6318044486641, 119.29183505624528 895.4064015212654, 0.2148402661085129 897.3544853240251 M-1.5547199189662935 896.5147915780543 C-5.986003200352191 587.2095671959221, -4.843809787571429 279.29701249152424, -0.6533349931240082 -1.1334530889987946 M0.20436739623546601 897.4185836821794 C-2.8883667088150973 589.5228034041821, -2.732051000654697 281.53991680294274, 0.4562246769666672 0.02138185799121857" stroke="#000000" stroke-width="1" fill="none"></path></g><g transform="translate(264 562) rotate(0 71 13)"><text x="0" y="18" font-family="Virgil, Segoe UI Emoji" font-size="20px" fill="#000000" text-anchor="start" style="white-space: pre;" direction="ltr">gossip mempool</text></g><g transform="translate(890 182) rotate(0 325.1666666666667 457.9999999999999)"><path d="M1.400950437784195 -0.3214177191257477 C211.01000338010493 -3.8334061270654205, 425.4337108634413 -3.20784746465087, 651.779791011413 1.1585785806179048 M0.3275377720594406 -0.6242049187421799 C168.74902215488254 -2.811867605080208, 337.14223200157284 -2.809212671150765, 650.5425715257725 -0.6632127732038499 M650.2019330402215 -0.4235487997531891 C650.2050782663425 326.5845962151884, 649.5248717767795 654.5748640328644, 651.8986182590326 915.4686484277246 M650.0654482652744 0.11987972557544709 C649.7692361083826 224.4459087952971, 650.4975916114649 449.3869799792766, 650.4021749307713 915.8527499228713 M649.9877036472162 916.9094214379785 C513.9085222878804 919.4191861399906, 375.39594859456025 919.0817199000614, 1.443835073709488 915.3628430306909 M650.2044706155857 916.4677516013381 C495.6819608182957 919.1835576891401, 341.1520749223729 919.5535649179914, -0.7844730883836747 915.8995506316421 M0.5858013212680817 914.8155789315698 C-0.939252436041832 730.575611425936, -1.9374887107610703 546.1345635980366, -1.5341028153896332 -1.4770016729831696 M-0.7332272082567215 915.9894302397964 C-2.7559187226295467 660.8653089955448, -2.8247006707191464 405.8009564280508, 0.3433371037244797 0.4253338843584061" stroke="#000000" stroke-width="1" fill="none"></path></g><g transform="translate(249 493.5) rotate(0 64 25.5)"><text x="0" y="18.5" font-family="Virgil, Segoe UI Emoji" font-size="20px" fill="#000000" text-anchor="start" style="white-space: pre;" direction="ltr">local mempool</text><text x="0" y="44" font-family="Virgil, Segoe UI Emoji" font-size="20px" fill="#000000" text-anchor="start" style="white-space: pre;" direction="ltr"></text></g><g><g transform="translate(133.50501141419795 331.8648648648649) rotate(0 59.0875997343461 73.51159850803572)"><path d="M0.3652193173766136 0.7016690865159032 C20.38985811672443 24.5275395487168, 101.17373062381316 120.64954447071679, 121.05624244969093 144.7976118933669 M-2.881042980998755 -1.3857357908785346 C16.821234554120238 22.752882415246823, 99.48654693935482 123.3259119824164, 119.61540574278436 148.40893280694996" stroke="#000000" stroke-width="1" fill="none"></path></g><g transform="translate(133.50501141419795 331.8648648648649) rotate(0 59.0875997343461 73.51159850803572)"><path d="M94.86733125605873 135.1147479515872 C102.580672550211 138.1703230436351, 112.27332574073117 142.3160380776517, 117.35048048641286 146.2018824983648 M95.62663270243696 131.35486607517814 C99.65468437098544 137.82961691944286, 110.08624545825354 140.24071311263396, 119.10465283389888 149.85526799599444" stroke="#000000" stroke-width="1" fill="none"></path></g><g transform="translate(133.50501141419795 331.8648648648649) rotate(0 59.0875997343461 73.51159850803572)"><path d="M110.78558532663263 122.16371750105944 C113.37744582293973 129.5663007233541, 117.77818366135091 138.0174977884354, 117.35048048641286 146.2018824983648 M111.54488677301086 118.40383562465038 C110.76113888229148 128.6421848394853, 116.62632820801703 134.76846358158994, 119.10465283389888 149.85526799599444" stroke="#000000" stroke-width="1" fill="none"></path></g></g><g transform="translate(233 459.5) rotate(0 86 51.5)"><path d="M88.06403939053416 -1.7545795254409313 C108.83715310063214 11.918734141718597, 130.92876545920967 24.674510237853973, 173.23580364510417 53.477752823382616 M87.59141297079623 0.09551330469548702 C115.12517594214529 17.249662598315627, 143.39960767276585 32.790699823293835, 171.2806592080742 52.70063295029104 M170.44210724160075 50.95865930989385 C145.53163863925263 69.51147206081077, 114.86821791270748 84.2841210448183, 86.27284900471568 102.69430663064122 M171.0368747804314 52.982526203617454 C146.5197787704505 67.88391086095945, 122.92975108517334 82.6016458149068, 86.50945574976504 103.93849690817297 M86.52923194691539 102.55530955269933 C57.57046896295623 86.96169586071744, 32.685073545780035 71.96107625870033, 0.6955869607627392 52.67818297818303 M87.17300469614565 102.10968764685094 C58.01534810101613 87.83512893138455, 30.011277217585594 70.98106947043911, 0.6579853389412165 51.610296031460166 M-0.09463043883442879 52.09408702328801 C33.10183326531202 32.15427484059706, 63.65007958099246 15.564591021034865, 85.78319231793284 -0.5236210636794567 M0.8318950030952692 52.40369441173971 C27.970981477834286 35.482725799512124, 53.92186630822718 19.902926863413306, 86.989980885759 0.36733647249639034" stroke="#000000" stroke-width="1" fill="none"></path></g><g><g transform="translate(256.78628328562155 341.98583386689785) rotate(0 27.033415046336785 22.887943572903623)"><path d="M0.43747924491763124 -0.039368581026792526 C9.476398830590053 7.968032029287771, 45.97473576455018 39.27049368628242, 54.85881297351362 46.88152817721222 M-0.791982880840078 -1.1056410314049572 C8.072634273189335 6.6190817392132, 45.23928354544206 36.96642511824087, 54.14136076912785 44.88617027159523" stroke="#000000" stroke-width="1" fill="none"></path></g><g transform="translate(256.78628328562155 341.98583386689785) rotate(0 27.033415046336785 22.887943572903623)"><path d="M25.93720137150033 35.2152185700845 C36.213672682797196 36.91416107022994, 44.03032856420704 42.690559738333725, 53.43767338067794 45.19224240611982 M26.369724053973393 33.51762422733121 C32.075598810903585 36.672507182404196, 37.532281814682136 40.16127503043197, 54.688798803915624 44.26754751223814" stroke="#000000" stroke-width="1" fill="none"></path></g><g transform="translate(256.78628328562155 341.98583386689785) rotate(0 27.033415046336785 22.887943572903623)"><path d="M39.2072858738853 19.561948634208427 C44.65956483675096 26.820910221092817, 47.803718401924876 38.10894975470141, 53.43767338067794 45.19224240611982 M39.63980855635836 17.864354291455136 C42.486701716041935 24.38589324460457, 45.01865435586201 31.324646197736016, 54.688798803915624 44.26754751223814" stroke="#000000" stroke-width="1" fill="none"></path></g></g><g transform="translate(215.33333333333331 356.66666666666663) rotate(0 31 13)"><text x="0" y="18" font-family="Virgil, Segoe UI Emoji" font-size="20px" fill="#000000" text-anchor="start" style="white-space: pre;" direction="ltr">decline</text></g><g transform="translate(111 386) rotate(0 34 13)"><text x="0" y="18" font-family="Virgil, Segoe UI Emoji" font-size="20px" fill="#000000" text-anchor="start" style="white-space: pre;" direction="ltr">accept</text></g><g transform="translate(38 245.5) rotate(0 100.5 41.5)"><path d="M1.0938756789897321 -0.024315486633813378 C77.84049072707082 0.12230529576982957, 151.91908774657523 1.2709957653541037, 201.0680753933265 -1.7370407360841151 M0.807387235972148 -0.5669115884352027 C53.117427093385 1.7637723706770392, 104.48810190580883 1.3668798512688132, 201.23291585320868 -0.13176496443331837 M199.08750538155437 1.9722730107605457 C199.98561338083817 22.23920250590891, 198.4881641020067 43.9618395511061, 202.05475227162242 84.94690348580481 M201.2241168115288 0.3426093067973852 C200.6455857751332 20.81629444342107, 201.08344215130433 41.24080622494222, 200.3225370142609 83.18421538732947 M202.2205682925937 82.87941819076565 C135.88081066325958 83.60186301279367, 69.13086523581754 84.91837611731447, -1.2189596717072126 81.71928702112491 M200.4485385295913 83.83892670183847 C138.5454036277071 82.50573382910093, 75.90214979684947 82.674371446326, -0.05758589803301691 82.63359284824027 M-0.1073743887245655 83.93088187649847 C-1.8618680922873319 49.686356873251505, -0.6190143315680326 18.919267935678363, 0.40109411999583244 1.2142663188278675 M-0.6737645771354437 83.71009709499778 C-0.9291700973175466 49.5637369805947, -0.3178251042030752 17.222573628276578, 0.9724652264267206 -0.13105515576899052" stroke="#000000" stroke-width="1" fill="none"></path></g><g transform="translate(249 186.5) rotate(0 87 13)"><text x="0" y="18" font-family="Virgil, Segoe UI Emoji" font-size="20px" fill="#000000" text-anchor="start" style="white-space: pre;" direction="ltr">Orderbook node A</text></g><g transform="translate(908 190) rotate(0 87.5 13)"><text x="0" y="18" font-family="Virgil, Segoe UI Emoji" font-size="20px" fill="#000000" text-anchor="start" style="white-space: pre;" direction="ltr">Orderbook node B</text></g><g transform="translate(206.85409252669024 796.9323843416369) rotate(0 46 26)"><text x="46" y="18" font-family="Virgil, Segoe UI Emoji" font-size="20px" fill="#000000" text-anchor="middle" style="white-space: pre;" direction="ltr">inclusion</text><text x="46" y="44" font-family="Virgil, Segoe UI Emoji" font-size="20px" fill="#000000" text-anchor="middle" style="white-space: pre;" direction="ltr">filter list</text></g><g transform="translate(196.49466192170803 852.140569395018) rotate(0 29.839857651245552 27.411032028469776)"><path d="M28.31538299843669 1.852717537432909 C40.05627857731463 8.078650137223967, 50.10578516911331 19.581004499085914, 61.66324240779272 26.836900014430285 M30.39674569107592 -0.6887460742145777 C38.55459696795327 9.329839080675535, 47.003500175988336 17.14224702502697, 58.790497041025674 28.545300802215934 M57.79853159999243 29.38149668648839 C48.206503449963385 38.34420770954182, 40.505948239036925 44.12802969182832, 30.856948655098677 56.5905943251616 M60.10834286240629 28.280944665893912 C49.19032222607282 36.72268881701211, 40.03867858805432 45.60694614318581, 29.412875780835748 55.74888077931764 M28.57063750550151 54.06509212026658 C19.948625149164826 44.86187829723535, 8.17121336232546 37.04502473523462, -0.7453873939812183 27.405105132609606 M29.9285823199898 55.41923228459718 C21.29837922191247 46.793921097272545, 13.238960303347554 38.24768506740402, -0.9062517192214727 28.32326146028936 M1.4812714271247387 26.45305873826146 C9.255510102510453 19.392878289707006, 17.81605152182281 11.54924167934805, 28.561162512749434 1.8756529279053211 M0.6447178814560175 27.176855763420463 C8.707271226868034 19.773673980124293, 17.78664166778326 11.725366825796662, 30.39564777351916 0.3136755432933569" stroke="#000000" stroke-width="1" fill="none"></path></g><g transform="translate(1253.0000000000002 701.5) rotate(0 130 50.375)"><path d="M0.8180835488868132 0.1893643153611049 C101.76325610755016 1.7331312331558695, 207.17663170384932 0.3829012782963745, 259.11675805784773 0.01614636997207254 M0.6357270009662322 0.48230364099790524 C56.479974577691586 -1.5784914969038786, 111.79436949100676 -0.8393648052731575, 260.0723972619333 0.43674278559221696 M258.3971566371619 1.148032445460558 C261.04451703839464 25.628424083394922, 261.2008496504323 54.495309404190614, 261.4234054498374 101.9544691033661 M259.0398159716278 0.9567664470523596 C259.9543674778146 34.680034889699876, 260.05834438316055 70.6494790983386, 259.4315196368843 101.6343920435756 M258.7462521642399 100.11605202521089 C168.3000195189347 99.71404053201164, 79.95158284534742 101.78558287025821, 1.0152352228377237 101.2522815997651 M260.74105022610746 100.70580843605539 C177.22260763384602 102.55311266296533, 95.19229301660216 101.32379579532328, -0.6527465359127111 101.08277295751891 M-0.5289014168083668 102.14970924332734 C1.7767834294540807 71.29851240445856, 1.3601866591675207 39.957100264076125, 1.348871748894453 -0.6118091158568859 M0.686783978715539 100.49943657778199 C-0.5612448371155189 73.32717098030258, -0.42599122888874275 47.14217001600189, -0.42533849738538265 0.48539271019399166" stroke="#000000" stroke-width="1" fill="none"></path></g><g transform="translate(1288 400.5) rotate(0 51 26)"><text x="0" y="18" font-family="Virgil, Segoe UI Emoji" font-size="20px" fill="#000000" text-anchor="start" style="white-space: pre;" direction="ltr">decline on </text><text x="0" y="44" font-family="Virgil, Segoe UI Emoji" font-size="20px" fill="#000000" text-anchor="start" style="white-space: pre;" direction="ltr">ex fliter</text></g><g transform="translate(1253.0000000000002 910.5) rotate(0 122 13)"><text x="0" y="18" font-family="Virgil, Segoe UI Emoji" font-size="20px" fill="#000000" text-anchor="start" style="white-space: pre;" direction="ltr">Ban if score &lt; threshold</text></g><g transform="translate(1035.5 935.5) rotate(0 33 13)"><text x="33" y="18" font-family="Virgil, Segoe UI Emoji" font-size="20px" fill="#000000" text-anchor="middle" style="white-space: pre;" direction="ltr">node A</text></g><g transform="translate(968 816) rotate(0 98.99999999999997 101.5)"><path d="M98.8094174079597 0.3876996226608753 C135.59373289495704 40.61775004634634, 174.78939194511617 78.60177066059784, 197.6822162084281 102.25859703496099 M99.9892050717026 -0.08198384381830692 C123.33298903100192 23.117972055058928, 145.48784897338595 47.4726991984807, 198.8500287625938 101.73839916847646 M196.53073171898717 102.95080723240972 C166.79721339093518 135.0008527377434, 133.02223141258582 166.36584887763485, 98.0327228717506 203.56574227288365 M197.80759931541974 102.62655462883413 C164.22811803108078 137.5556013599597, 129.10795680748296 172.4757443724759, 98.31430656649172 203.89227112196386 M100.4977239780128 203.63414265587926 C60.09360938629135 162.11504267329352, 25.157448467407363 123.80849138503895, -1.7100817747414112 102.64265145733953 M98.98975736834109 202.5779271926731 C62.862460918147114 165.11664460135623, 25.12952719999477 127.06016851069404, -0.9957743790000677 102.97495128773153 M0.8997252397239208 100.637046713382 C30.31740290902555 70.96244588399306, 58.3672576553002 43.067470162529496, 99.84235207363963 1.1769466586411 M0.688084015622735 102.50351812504232 C29.98547451615334 69.17929799837991, 62.229409541077914 35.76357502585276, 99.75383133627474 0.1924333181232214" stroke="#000000" stroke-width="1" fill="none"></path></g><g transform="translate(1030.5 847.5) rotate(0 46 26)"><text x="46" y="18" font-family="Virgil, Segoe UI Emoji" font-size="20px" fill="#000000" text-anchor="middle" style="white-space: pre;" direction="ltr">inclusion </text><text x="46" y="44" font-family="Virgil, Segoe UI Emoji" font-size="20px" fill="#000000" text-anchor="middle" style="white-space: pre;" direction="ltr">filter list</text></g><g transform="translate(1022.0000000000001 907) rotate(0 43 39.5)"><path d="M42.64848546311259 1.0417899079620838 C53.268748526647684 8.835889558307827, 61.776535304635765 17.44616641383618, 84.7374746017158 40.63649942353368 M44.557875046506524 -0.8136300835758448 C57.231631866842505 12.341756593845785, 72.39313904680311 25.627525959573685, 86.26626152731478 40.71018501184881 M86.41591564938426 40.66431142762303 C74.8594462707825 48.368492780178784, 65.08427714521065 59.02292603116483, 44.94525436684489 79.37354196980596 M86.41848845221102 40.85607667826116 C74.58900862058626 51.19246586374938, 63.21268738565967 61.608679628930986, 44.819328317418694 78.79721011780202 M42.700141947716475 77.55195822194219 C35.91305094098672 69.65470828007906, 23.257413540389386 63.17131075397134, 1.4284972362220287 38.99008967354894 M44.12351752258837 79.31433286331594 C33.004649612475184 69.5797236129269, 22.686239972133187 61.77657491765916, -0.1263899113982916 39.032586893066764 M0.8819016627967358 38.27516486123204 C13.511498477309942 27.98320086352527, 27.079261012375355 17.461474575623868, 44.39215926453471 1.919858355075121 M-0.6765860822051764 40.51322587393224 C16.112774205580354 24.510651513189075, 33.402292187139395 10.040254018455737, 44.948699126020074 0.6555121149867773" stroke="#000000" stroke-width="1" fill="none"></path></g><g><g transform="translate(1328.119647039781 805.0037313432836) rotate(0 -13.991832002162312 40.01060010938363)"><path d="M0.44623341634869584 0.13324056789278993 C-4.067742170070096 13.50576576592995, -22.852146383993247 67.48218435955411, -27.300964652296805 80.8636122980698 M-0.7786327694077044 -0.8424120793025941 C-5.4617803045574425 12.100975927260128, -24.11970948978692 65.17350459331824, -28.429897420673353 78.92994999390868" stroke="#000000" stroke-width="1" fill="none"></path></g><g transform="translate(1328.119647039781 805.0037313432836) rotate(0 -13.991832002162312 40.01060010938363)"><path d="M-28.978054665909788 48.36559365077542 C-28.226204654495945 58.574311278719804, -28.74541272813969 67.1526342543334, -28.339335654495937 78.43696514394907 M-29.79277499666967 49.00050754046666 C-28.69404020842508 56.11886924577483, -28.57859750252636 64.9418417416688, -28.681495281501395 78.04960996349183" stroke="#000000" stroke-width="1" fill="none"></path></g><g transform="translate(1328.119647039781 805.0037313432836) rotate(0 -13.991832002162312 40.01060010938363)"><path d="M-9.520584560521431 54.886855758968736 C-14.28809246131255 63.32953608327811, -20.292505450310287 70.06946697726812, -28.339335654495937 78.43696514394907 M-10.335304891281314 55.52176964865997 C-14.178033588886887 61.15946007826476, -19.051785473485843 68.31028067274553, -28.681495281501395 78.04960996349183" stroke="#000000" stroke-width="1" fill="none"></path></g></g><g transform="translate(1229.0000000000002 898.5) rotate(0 145 28)"><path d="M-1.2216059572087006 -0.12902442118077725 C104.22566360031824 -0.5686417495938181, 209.0899863540656 -2.8344403999904033, 288.8234642252547 0.5639532699634507 M-0.17882399955716358 0.04933737615748868 C66.72625309033594 -1.1669771361820895, 134.00595214004122 -0.7318109071656663, 289.3972118074064 -0.16316868569460885 M290.44698850438 0.5820949263870716 C288.7062085199356 16.830989646166564, 290.2830580997467 32.133858517557385, 289.8441632203758 57.60281075909734 M290.81505186297 -0.6315225753933191 C290.2480555584282 19.70172735862434, 290.2126968314499 41.27944407425821, 289.35906113125384 55.23986675404012 M290.0973086830744 55.42547268471379 C214.95227996808867 55.02258047863789, 137.68171903672567 55.0132993434238, 0.9181288197461889 55.2419059682805 M289.94283707205926 56.54846537194296 C179.8298411063362 56.9302641793143, 69.95606746688038 56.317962845197485, -0.47200378106477486 55.75104422225365 M-0.6608017273247242 54.43982030823827 C0.32683139890432356 37.014340629428624, -1.010068716108799 22.359876117855308, 1.5654364041984081 1.1806670613586903 M-0.5938425567001104 56.62594552896917 C-1.265718451216817 38.94900674931705, -1.1540778190642595 23.210748618468642, -0.7064914610236883 0.9506849255412817" stroke="#000000" stroke-width="1" fill="none"></path></g><g transform="translate(1047.6666666666667 603.9999999999999) rotate(0 71 13)"><text x="0" y="18" font-family="Virgil, Segoe UI Emoji" font-size="20px" fill="#000000" text-anchor="start" style="white-space: pre;" direction="ltr">gossip mempool</text></g><g><g transform="translate(1320.6491228070179 288.20760308349884) rotate(0 96.04422854939145 204.66753501160497)"><path d="M0.7909628715366124 -1.031228056177497 C32.89396243610619 28.677322359515944, 182.49750032452306 110.71265823812624, 192.341377449029 179.13025654447807 C202.18525457353496 247.5478548508299, 81.87954084056118 371.05709020267267, 59.85422561857236 409.4743617819335 M-0.25292035024613146 1.0417732689902186 C31.715430942524357 30.863595670929772, 181.52241940939237 112.36180396532107, 191.38834461982628 180.58255810038727 C201.2542698302602 248.80331223545346, 80.76293826295682 372.0640666629283, 58.94263091235739 410.36629807938743" stroke="#000000" stroke-width="1" fill="none"></path></g><g transform="translate(1320.6491228070179 288.20760308349884) rotate(0 96.04422854939145 204.66753501160497)"><path d="M65.8861782434666 381.6282570654964 C65.14603816898594 389.19259063725565, 61.66631931803576 397.7059259472339, 57.857550562539515 408.45273202088583 M67.96806178477495 382.2286795605412 C66.54864818879919 387.17657544986054, 63.04372651109165 393.4388380174374, 59.70268621313703 410.99572201342244" stroke="#000000" stroke-width="1" fill="none"></path></g><g transform="translate(1320.6491228070179 288.20760308349884) rotate(0 96.04422854939145 204.66753501160497)"><path d="M82.32187369817535 393.9159711452553 C76.93989227545693 398.18557625966463, 68.90833487676522 403.2958495716884, 57.857550562539515 408.45273202088583 M84.4037572394837 394.51639364030007 C79.46308191361787 396.93773742990163, 72.46328211539507 400.58714657689546, 59.70268621313703 410.99572201342244" stroke="#000000" stroke-width="1" fill="none"></path></g></g><g><g transform="translate(357.4614427994295 1140.0896317577062) rotate(0 50.407433108207755 -53.75937133655566)"><path d="M-0.26097010709345336 0.31196049191057673 C16.489332533865227 -17.414849628814395, 84.46775284453756 -88.23040051315394, 101.07583632350894 -105.81837892306348 M1.802881857343018 -0.569864195175469 C18.43636560653801 -18.731398640842077, 84.59617177169301 -90.07036779314694, 100.67636599299493 -107.83070316502204" stroke="#000000" stroke-width="1" fill="none"></path></g><g transform="translate(357.4614427994295 1140.0896317577062) rotate(0 50.407433108207755 -53.75937133655566)"><path d="M89.69243843639211 -78.3824958729652 C93.39869892178145 -90.80868116050632, 98.40426004347069 -98.81445563330077, 100.33053213079455 -109.57706543953469 M88.3392508073704 -80.10253637964848 C93.67331765304432 -90.04953803728992, 98.05635924744473 -101.14867525745946, 99.98405249790284 -108.49542475548884" stroke="#000000" stroke-width="1" fill="none"></path></g><g transform="translate(357.4614427994295 1140.0896317577062) rotate(0 50.407433108207755 -53.75937133655566)"><path d="M74.57430802956094 -92.25917182176096 C83.60191604161434 -99.82568481058526, 93.8660926552629 -103.00466515225725, 100.33053213079455 -109.57706543953469 M73.22112040053923 -93.97921232844425 C84.10838064814806 -98.77709488139797, 94.04480061245108 -104.77888011514932, 99.98405249790284 -108.49542475548884" stroke="#000000" stroke-width="1" fill="none"></path></g></g><g transform="translate(397 1094.5) rotate(0 33 26)"><text x="0" y="18" font-family="Virgil, Segoe UI Emoji" font-size="20px" fill="#000000" text-anchor="start" style="white-space: pre;" direction="ltr">update</text><text x="0" y="44" font-family="Virgil, Segoe UI Emoji" font-size="20px" fill="#000000" text-anchor="start" style="white-space: pre;" direction="ltr">filters</text></g><g transform="translate(256 1151.5) rotate(0 57 47)"><path d="M32.91102019377027 5.04016406151851 C40.81857320694927 1.1315549549926018, 52.646005403785495 -0.6921578357254331, 62.26579501292033 0.12222235878473953 C71.88558462205516 0.9366025532949122, 82.78225346794835 5.110504128769342, 90.62975784857926 9.926445228579546 C98.47726222921017 14.742386328389749, 105.55301392222262 21.720647469968032, 109.35082129670582 29.017868957645966 C113.14862867118902 36.315090445323904, 114.9036889031135 45.739138515712, 113.4166020954785 53.70977415464716 C111.92951528784349 61.680409793582314, 106.78295655638611 70.46273610265443, 100.4283004508958 76.84168279125691 C94.0736443454055 83.2206294798594, 84.60630991927074 89.38138249799874, 75.28866546253668 91.98345428626207 C65.97102100580263 94.5855260745254, 54.313244538696196 94.35173659860853, 44.522433710491434 92.45411352083688 C34.73162288228667 90.55649044306524, 23.54911814945788 86.17776969461057, 16.54380049330812 80.59771581963224 C9.538482837158359 75.01766194465391, 4.852854821951807 66.83435135122636, 2.4905277735928664 58.97379027096686 C0.12820072523392545 51.11322919070735, -0.4102272002987952 41.19964531983969, 2.3698382031544725 33.434349338075194 C5.14990360660774 25.669053356310698, 13.544677327116705 17.476220705512354, 19.170920194312473 12.382014380379879 C24.79716306150824 7.287808055247402, 32.189894219934146 4.445989682373557, 36.12729540632908 2.869111387280334 C40.06469659272402 1.292233092187112, 42.3919823777327 2.1939322104126595, 42.79532731268207 2.920744609820545 M37.18030059116637 2.8595696526861687 C45.76844013867656 -0.32293362758122024, 60.30517851010766 -1.4948911622344134, 70.12294921164506 0.07869289259899404 C79.94071991318248 1.6522769474324015, 89.17535443346392 6.807521397496557, 96.08692480039082 12.301073981686613 C102.99849516731771 17.79462656587667, 109.09932448525679 25.098475735707044, 111.5923714132064 33.040008397739335 C114.085418341156 40.98154105977162, 113.69272228558378 51.74766440270128, 111.04520636808844 59.95026995388035 C108.3976904505931 68.15287550505943, 102.90966022214522 76.58379051111704, 95.70727590823435 82.25564170481375 C88.50489159432348 87.92749289851047, 77.62218464401575 92.62789513643325, 67.83090048462319 93.98137711606063 C58.039616325230625 95.334859095688, 46.300892206392156 93.2066023783076, 36.959570951878995 90.37653358257802 C27.618249697365833 87.54646478684845, 18.07482180608811 83.36476106719519, 11.782972957544217 77.00096434168316 C5.4911241090003235 70.63716761617113, 0.27341032992541625 60.1999268431878, -0.7915221393843694 52.193753229505845 C-1.8564546086941551 44.18757961582389, 1.2033465150742133 36.053471102197506, 5.393378141685503 28.963922659591464 C9.583409768296793 21.874374216985423, 18.721827874144022 13.91472866459147, 24.348667620283365 9.65646257386959 C29.975507366422708 5.398196483147709, 36.95837426054471 4.640901728960156, 39.15441661852155 3.414326115260181 C41.350458976498395 2.187750501560206, 37.126876130222186 1.878849637809078, 37.52492176814444 2.2970088916697406" stroke="#000000" stroke-width="1" fill="none"></path></g><g transform="translate(287.5 1179.5) rotate(0 25.5 13)"><text x="25.5" y="18" font-family="Virgil, Segoe UI Emoji" font-size="20px" fill="#000000" text-anchor="middle" style="white-space: pre;" direction="ltr">admin</text></g><g transform="translate(370 925.5) rotate(0 99.99999999999999 46.375)"><path d="M0.4236448761075735 1.7618145886808634 C72.6381357703358 -0.06698763370513938, 143.0358294080943 1.6358686089515684, 201.4372675772756 -1.6567773278802633 M0.530428615398705 0.3196939108893275 C76.96083145681769 -1.1320134578272698, 153.6713522868231 -1.7610633252188561, 200.77308559138325 -0.3854183377698064 M201.67945364676413 0.9069829527288675 C201.71129063638156 24.242933808802626, 200.348269560656 44.774984899861735, 199.20251200161871 93.20683013834058 M200.80765890795735 0.5031460104510188 C200.13923536469923 26.423975929641163, 201.3136157565354 53.13065160536207, 199.27034476120022 93.56196789722888 M201.8695180173963 92.25421773828565 C130.0471020657569 90.21222614124416, 61.15386053733525 91.83091108873485, 0.789646303281188 93.76670568622647 M200.4190461905673 92.52866487484424 C125.93037521932271 94.50187062565236, 51.705281709320815 93.8230179781094, 0.8127289386466146 91.988597410731 M1.4854761715978384 94.17027919925748 C-2.068471215388272 63.274005267233576, -0.8754582029790617 32.267313015507526, -1.319456959143281 0.493125194683671 M-0.29284972231835127 92.60105397086589 C-0.3411663418798706 66.80117846240753, 0.16710496487328796 39.3808376753237, -0.23669424932450056 0.5318908570334315" stroke="#000000" stroke-width="1" fill="none"></path></g><g transform="translate(375.75 927) rotate(0 93.5 39)"><text x="0" y="18" font-family="Virgil, Segoe UI Emoji" font-size="20px" fill="#000000" text-anchor="start" style="white-space: pre;" direction="ltr">reset peers score </text><text x="0" y="44" font-family="Virgil, Segoe UI Emoji" font-size="20px" fill="#000000" text-anchor="start" style="white-space: pre;" direction="ltr">and threshold</text><text x="0" y="70" font-family="Virgil, Segoe UI Emoji" font-size="20px" fill="#000000" text-anchor="start" style="white-space: pre;" direction="ltr"></text></g><g><g transform="translate(574.546875 933.9832864996865) rotate(0 221.23195875513858 -1.0264104492978277)"><path d="M1.0399822678416968 0.18405098654329777 C74.86878779467668 -0.27501927216901545, 368.855953459279 -1.9238476927108648, 442.33708328115796 -2.2368718851389984 M0.126834229119122 -0.7649261908605696 C73.81169908188757 -1.1042743156979895, 367.10149872223417 -1.0084595856718304, 441.1397528190822 -0.9356067446279028" stroke="#000000" stroke-width="1" fill="none"></path></g><g transform="translate(574.546875 933.9832864996865) rotate(0 221.23195875513858 -1.0264104492978277)"><path d="M413.250382755424 8.5189246944956 C419.11475649949557 5.0597384175281075, 426.98441579138 5.900755808134459, 441.7217333809198 -0.15190628405983242 M413.08616149007077 9.39422482716511 C419.44887923860585 6.534800430701349, 423.5870584813688 5.893431012626521, 441.00447336944796 -1.00992003970171" stroke="#000000" stroke-width="1" fill="none"></path></g><g transform="translate(574.546875 933.9832864996865) rotate(0 221.23195875513858 -1.0264104492978277)"><path d="M413.2610765794532 -12.002281118710576 C419.211314919743 -10.392209151001728, 427.07833261419717 -4.482026193947082, 441.7217333809198 -0.15190628405983242 M413.0968553140999 -11.126980986041067 C419.4652807887918 -9.877070358439333, 423.6013186296084 -6.409138001073146, 441.00447336944796 -1.00992003970171" stroke="#000000" stroke-width="1" fill="none"></path></g></g><g><g transform="translate(1001.9881903836123 849.714128041044) rotate(0 -320.57648907201764 5.264750586566549)"><path d="M0.4664857830852269 0.9352353069931267 C-106.46038418675595 2.510270654833888, -534.0345267710653 7.1349816648988655, -641.0617579927375 8.572029875898806 M-0.7477479101344944 0.3806298978254201 C-107.81128549038255 2.243443295373594, -534.6764701319677 8.917007546643788, -641.6194639271205 10.148871275307684" stroke="#000000" stroke-width="1" fill="none"></path></g><g transform="translate(1001.9881903836123 849.714128041044) rotate(0 -320.57648907201764 5.264750586566549)"><path d="M-26.041764555475687 12.768976204123 C-17.809535090083102 7.981961052463489, -6.578752588433719 5.053497905754515, -0.6656623877584935 -0.9891194902360441 M-26.762983716069733 10.79887516892294 C-17.64669369910935 7.917929024913309, -6.493646291706696 3.3236013914694365, 0.8393727658316492 0.562779459543526" stroke="#000000" stroke-width="1" fill="none"></path></g><g transform="translate(1001.9881903836123 849.714128041044) rotate(0 -320.57648907201764 5.264750586566549)"><path d="M-26.285396494851412 -7.750786120620326 C-18.12010446195152 -5.528749834644171, -6.80609197404042 -1.4472144534172777, -0.6656623877584935 -0.9891194902360441 M-27.006615655445458 -9.720887155820385 C-17.98005039595234 -4.9382410391765, -6.736011539519385 -1.8688653319581698, 0.8393727658316492 0.562779459543526" stroke="#000000" stroke-width="1" fill="none"></path></g><g transform="translate(1001.9881903836123 849.714128041044) rotate(0 -320.57648907201764 5.264750586566549)"><path d="M-612.0154642417014 0.7361620847068764 C-623.1078891440877 3.4255275804268988, -631.0462755559087 7.755315356988205, -642.7516120979642 8.224516478078513 M-612.7366834022954 -1.233938950493183 C-624.7642647887126 3.8458044375109974, -634.5679726865266 7.186582870973828, -641.246576944374 9.776415427858083" stroke="#000000" stroke-width="1" fill="none"></path></g><g transform="translate(1001.9881903836123 849.714128041044) rotate(0 -320.57648907201764 5.264750586566549)"><path d="M-611.7299140170677 21.255383889030984 C-622.7697256434432 16.936045553051784, -630.8056622423791 14.256019455245967, -642.7516120979642 8.224516478078513 M-612.4511331776617 19.285282853830925 C-624.4046501723839 16.701654966245385, -634.3150051246724 12.378931932151406, -641.246576944374 9.776415427858083" stroke="#000000" stroke-width="1" fill="none"></path></g></g><g transform="translate(678 802.9999999999999) rotate(0 101.5 26)"><text x="0" y="18" font-family="Virgil, Segoe UI Emoji" font-size="20px" fill="#000000" text-anchor="start" style="white-space: pre;" direction="ltr">gossip inclusion filter</text><text x="0" y="44" font-family="Virgil, Segoe UI Emoji" font-size="20px" fill="#000000" text-anchor="start" style="white-space: pre;" direction="ltr">on new connection</text></g><g transform="translate(1121.0833333333333 200.49999999999994) rotate(0 83.5 39)"><text x="0" y="18" font-family="Virgil, Segoe UI Emoji" font-size="20px" fill="#000000" text-anchor="start" style="white-space: pre;" direction="ltr">Apply :</text><text x="0" y="44" font-family="Virgil, Segoe UI Emoji" font-size="20px" fill="#000000" text-anchor="start" style="white-space: pre;" direction="ltr">- inclusion fliter</text><text x="0" y="70" font-family="Virgil, Segoe UI Emoji" font-size="20px" fill="#000000" text-anchor="start" style="white-space: pre;" direction="ltr">- exclusion filter</text></g></svg>