<svg version="1.1" xmlns="http://www.w3.org/2000/svg" viewBox="0 0 2074.4285714285716 1343.7142857142858" width="2074.4285714285716" height="1343.7142857142858">
  <!-- svg-source:excalidraw -->
  
  <defs>
    <style>
      @font-face {
        font-family: "Virgil";
        src: url("https://excalidraw.com/Virgil.woff2");
      }
      @font-face {
        font-family: "Cascadia";
        src: url("https://excalidraw.com/Cascadia.woff2");
      }
    </style>
  </defs>
  <rect x="0" y="0" width="2074.4285714285716" height="1343.7142857142858" fill="#ffffff"></rect><g transform="translate(1121.0714285714287 534.4285714285713) rotate(0 57.5 35)"><text x="0" y="28" font-family="Cascadia, Segoe UI Emoji" font-size="28px" fill="#000000" text-anchor="start" style="white-space: pre;" direction="ltr">send_tx</text><text x="0" y="63" font-family="Cascadia, Segoe UI Emoji" font-size="28px" fill="#000000" text-anchor="start" style="white-space: pre;" direction="ltr">(data)</text></g><g transform="translate(342 10) rotate(0 793.9285714285713 357)"><path d="M514.0519100946894 22.43017456035301 C546.4573206207956 10.532873157758871, 592.2790771960515 10.506764465472363, 633.2150499331157 6.934289207907739 C674.1510226701798 3.3618139503431146, 717.8537971533348 1.6877280445344618, 759.6677465170744 0.9953230149652654 C801.4816958808141 0.30291798539606896, 842.7924128479132 0.8507982407000629, 884.0987461155535 2.7798590304925597 C925.4050793831938 4.708919820285057, 967.0753298545199 7.723527083658316, 1007.5057461229164 12.569687753720245 C1047.936162391313 17.415848423782176, 1088.4827116628871 23.711077566184592, 1126.6812437259327 31.856823050864136 C1164.8797757889783 40.00256853554368, 1202.079691903344 50.66169691367623, 1236.6969385011903 61.444160661797525 C1271.3141850990366 72.22662440991881, 1303.6988157815026 83.9710728635152, 1334.384723313011 96.55160553959189 C1365.0706308445192 109.13213821566858, 1395.084461084362 122.35863952717214, 1420.81238369024 136.92735671825764 C1446.5403062961182 151.49607390934312, 1468.6974403394654 167.31543320306866, 1488.75225894828 183.96390868610484 C1508.8070775570948 200.61238416914102, 1526.8448154937216 218.8896423545373, 1541.1412953431277 236.81820961647463 C1555.4377751925338 254.74677687841196, 1566.8001607265228 273.14255295382554, 1574.531138044717 291.5353122577288 C1582.2621153629111 309.928071561632, 1586.5797492524787 328.60749661191255, 1587.5271592522922 347.174765439894 C1588.4745692521058 365.7420342678754, 1585.7070768267174 384.417666723637, 1580.2155980435978 402.9389252256175 C1574.7241192604781 421.46018372759795, 1566.2984280113942 440.1019458244592, 1554.578286553574 458.3023164517769 C1542.8581450957536 476.5026870790946, 1528.1358337177296 495.0478535382882, 1509.8947492966759 512.1411489895236 C1491.653664875622 529.2344444407589, 1469.0607523288513 545.2973797457405, 1445.1317800272514 560.8620891591888 C1421.2028077256514 576.4267985726372, 1395.3554571921686 592.0081455394275, 1366.3209154870765 605.5294054702138 C1337.2863737819844 619.0506654010001, 1304.4460891359706 630.9123682072749, 1270.9245297966993 641.9896487439065 C1237.402970457428 653.0669292805381, 1201.92829280332 663.106161716151, 1165.1915594514487 671.9930886900034 C1128.4548260995775 680.8800156638559, 1090.2499592926329 689.1684462337857, 1050.504129685473 695.3112105870216 C1010.7583000783129 701.4539749402575, 968.0525047153328 705.6088338973681, 926.7165818084886 708.8496748094183 C885.3806589016444 712.0905157214685, 844.1723187788791 714.6439676230681, 802.4885922444079 714.756256059323 C760.8048657099366 714.868544495578, 717.9708475683308 712.3019124958388, 676.6142226016608 709.5234054269481 C635.2575976349908 706.7448983580574, 594.32855955504 703.5209987626725, 554.3488424443883 698.0852136459788 C514.3691253337366 692.649428529285, 474.3047805345284 685.5763216678674, 436.7359199377509 676.9086947267857 C399.1670593409734 668.241067785704, 362.7987365929602 657.1672461393011, 328.93567886372347 646.0794519994886 C295.0726211344867 634.991657859676, 263.21378048495916 623.4994067360402, 233.5575735623304 610.3819298879105 C203.90136663970162 597.2644530397807, 175.46003007229757 582.6948317182805, 150.9984373279509 567.3745909107099 C126.53684458360425 552.0543501031393, 105.63051973701243 535.1972844517318, 86.78801709625043 518.460485042487 C67.94551445548842 501.7236856332422, 51.01912682312534 484.84003564824286, 37.94342148337887 466.9537944552411 C24.8677161436324 449.06755326223936, 14.814989509234199 429.910053147245, 8.333785057771593 411.1430378844765 C1.8525806063089858 392.376022621708, -1.1921145901494015 373.20935271233276, -0.9438052253967726 354.35170287863025 C-0.6954958606441437 335.49405304492774, 2.772097861450656 316.4476580544469, 9.823641246287366 297.9971388822614 C16.875184631124075 279.54661971007596, 27.86266620334453 261.3005692017899, 41.36545508362349 243.64858784551745 C54.868243963902444 225.996606489245, 71.35760489141518 208.800800803053, 90.8403745279611 192.08525074462673 C110.32314416450703 175.36970068620047, 133.41269181840855 158.3967252420176, 158.26207290289904 143.3552874949598 C183.11145398738952 128.31384974790203, 210.16177675077805 115.01243939150501, 239.93666103490398 101.83662426228 C269.71154531902994 88.66080913305498, 302.49525428012953 75.11020217998917, 336.9113786076546 64.30039671960975 C371.3275029351797 53.490591259230335, 415.5790976831256 44.02780920915518, 446.43340700005473 36.97779150000349 C477.28771631698385 29.927773790851802, 507.28917965129534 23.746495230949318, 522.0372345092292 22.000290464699617 C536.7852893671629 20.254085698449916, 530.4616512093287 20.802583561292277, 534.9217361476576 26.500562902505294 M1101.0251576928697 26.268961976718913 C1142.7294519009324 27.793764309902098, 1176.110710098824 43.79892942537155, 1211.5576696713222 54.140428376213265 C1247.0046292438203 64.48192732705498, 1282.0609194405301 76.2858985295806, 1313.7069151278583 88.3179556817692 C1345.3529108151865 100.3500128339578, 1374.4304726279079 112.05846756601649, 1401.4336437952916 126.33277128934489 C1428.4368149626753 140.60707501267328, 1454.082254581572 157.54050044202705, 1475.725942132161 173.96377802173959 C1497.36962968275 190.38705560145212, 1515.7891226413133 207.5761826159264, 1531.295769098826 224.87243676762012 C1546.8024155563387 242.16869091931383, 1559.4241888018817 259.5674618510623, 1568.7658208772368 277.7413029319018 C1578.107452952592 295.91514401274134, 1584.6406101553487 315.11466605979655, 1587.345561550957 333.9154832526571 C1590.0505129465653 352.7163004455177, 1589.0399024830515 371.6595124430696, 1584.9955292508862 390.5462060890652 C1580.951156018721 409.4328997350608, 1573.8280805964012 429.1296619873203, 1563.0793221579656 447.2356451286305 C1552.3305637195301 465.3416282699407, 1537.4592351974727 482.08393451297223, 1520.5029786202736 499.1821049369266 C1503.5467220430744 516.280275360881, 1483.7664720165892 533.8572828550518, 1461.3417826947712 549.8246676723566 C1438.917093372953 565.7920524896613, 1413.5804568377644 580.7046308146088, 1385.9548426893653 594.9864138407547 C1358.3292285409661 609.2681968669007, 1328.3361217493627 623.4427080971152, 1295.5880978043767 635.5153658292325 C1262.8400738593907 647.5880235613497, 1225.668385716484 658.0890658321607, 1189.4666990194494 667.4223602334582 C1153.2650123224148 676.7556546347557, 1117.4980188743157 684.9975271804503, 1078.3779776221697 691.5151322370172 C1039.2579363700238 698.032737293584, 996.1090278387397 702.989417195881, 954.7464515065733 706.5279905728595 C913.3838751744069 710.066563949838, 871.7191525868647 711.9800222671668, 830.2025196291711 712.7465724988884 C788.6858866714775 713.5131227306101, 747.0452387123049 713.099849445183, 705.646653760412 711.1272919631895 C664.2480688085192 709.1547344811959, 622.3653777503749 705.8103867511966, 581.8110099178139 700.9112276069268 C541.2566420852528 696.012068462657, 500.57978955522356 689.5142038679602, 462.32044676504546 681.7323370975705 C424.06110397486736 673.9504703271808, 386.7724523498056 664.6593749616835, 352.2549531767452 654.2200269845885 C317.7374540036848 643.7806790074934, 285.77546726473616 631.8383481879922, 255.21545172668323 619.0962492350002 C224.65543618863026 606.3541502820082, 194.73807540645817 592.3815261074255, 168.89485994842744 577.7674332666361 C143.0516444903967 563.1533404258466, 120.20212847855665 547.9459542628774, 100.15615897849887 531.4116921902636 C80.11018947844109 514.8774301176497, 63.18565166559571 496.5996382068767, 48.61904294808073 478.5618608309527 C34.05243423056576 460.5240834550287, 20.775933958913093 441.4021192162363, 12.756506673409035 423.1850279347195 C4.737079387904979 404.96793665320274, 1.7333414774241191 387.9820330300238, 0.5024792350563985 369.25931314185203 C-0.7283830073113222 350.5365932536803, 0.10677964052949118 329.61245182731966, 5.371333219202711 310.8487086056891 C10.63588679787593 292.0849653840586, 19.861437067866383 274.7848654153633, 32.08980070709572 256.6768538120689 C44.318164346325055 238.56884220877444, 60.519135180750666 219.28269182414655, 78.74151505457871 202.20063898592252 C96.96389492840676 185.1185861476985, 117.81129043190644 169.75521933949665, 141.42407995006397 154.1845367827247 C165.0368694682215 138.61385422595276, 191.34417886762213 122.29287115550665, 220.4182521635239 108.77654364529081 C249.49232545942567 95.26021613507498, 282.2758833083226 84.00465056173313, 315.8685197254745 73.08657172142972 C349.46115614262646 62.168492881126305, 385.5040096019283 52.09856973756616, 421.97407066643535 43.268070603470335 C458.4441317309424 34.43757146937451, 495.3629875495094 26.465790184939788, 534.6888861125167 20.103576916854763 C574.014784675524 13.741363648769738, 616.3295310369423 8.26910947847594, 657.9294620444792 5.094790994960192 C699.5293930520162 1.9204725114444443, 742.2346266926348 1.0363196971508823, 784.2884721577385 1.057666015760276 C826.3423176228422 1.0790123343696696, 868.9802561912663 2.758840373043995, 910.2525348351014 5.222868906616554 C951.5248134789365 7.686897440189114, 1000.3341673408348 12.158166781913943, 1031.922144020749 15.841837217195632 C1063.5101207006635 19.52550765247732, 1089.3928295504516 24.444684346769282, 1099.7803949145873 27.324891518306686 C1110.167960278723 30.20509868984409, 1099.150877290718 27.61649172530097, 1094.2475362055632 33.123080246420045" stroke="#000000" stroke-width="1" fill="none"></path></g><g transform="translate(857 40) rotate(0 137 18)"><text x="0" y="25" font-family="Virgil, Segoe UI Emoji" font-size="28px" fill="#000000" text-anchor="start" style="white-space: pre;" direction="ltr">Matchmaker process</text></g><g><g transform="translate(222.86079760647328 354.6891932111892) rotate(0 106.38001263895205 -49.84917066042257)"><path d="M0.3461441125720739 -0.07754203341901311 C36.02079981196406 -16.395281903417604, 178.4524123856665 -81.7167575953985, 213.69129423557118 -98.07398606708166 M-0.9312689576670528 -1.1638555463030935 C34.70131562217804 -17.776607064241364, 177.40008965461118 -83.13730836671687, 213.25171380812571 -99.62079928742614" stroke="#000000" stroke-width="1" fill="none"></path></g><g transform="translate(222.86079760647328 354.6891932111892) rotate(0 106.38001263895205 -49.84917066042257)"><path d="M191.7804809055516 -76.92300061514563 C199.53528425722638 -85.86947599175981, 205.05872106050424 -88.07360923820478, 214.5409803106104 -101.43745784947541 M192.10183236573278 -78.96666620956695 C198.5783245942589 -84.8869055915699, 204.25316331767826 -91.13645491526272, 212.425298922195 -99.49375804906603" stroke="#000000" stroke-width="1" fill="none"></path></g><g transform="translate(222.86079760647328 354.6891932111892) rotate(0 106.38001263895205 -49.84917066042257)"><path d="M183.2212672617672 -95.5740023090465 C193.26341393398383 -99.50417423196865, 201.10023502887753 -96.66731467962956, 214.5409803106104 -101.43745784947541 M183.54261872194837 -97.61766790346783 C192.4944481548053 -97.82402452764485, 200.7689560049984 -98.40875050366381, 212.425298922195 -99.49375804906603" stroke="#000000" stroke-width="1" fill="none"></path></g></g><g transform="translate(435 190) rotate(0 100.5 30.5)"><path d="M0.30228201777008173 -0.6468770203834354 C73.8008245780837 -2.075369031978484, 148.54857044824232 -3.021544086318656, 202.1773921800124 -0.2020082214898884 M-0.5150711731448083 0.34608272695316367 C71.02971649455328 0.8398826244254587, 140.82492132407694 1.4158105183054444, 201.24687132809945 -0.21743651142641005 M202.85313778556883 0.8140471931546926 C200.45885965154505 19.16164672104642, 200.06768169925547 34.52692164871842, 199.29892765916884 60.537035739049315 M200.4831153927371 -0.5368771879002452 C201.4007874681335 18.42895265324041, 201.07780316012912 38.722507904842494, 201.38858263473958 60.27236151415855 M199.66202610069283 60.35635774342844 C138.82480269508045 61.0727206487665, 72.78206376220363 63.36109094971197, 1.3968477793047724 61.30072282067892 M200.80719079287368 60.36935480529198 C145.72907142119513 61.15600643926827, 90.64353908927185 62.6662346120484, -0.8925845852582841 61.45602579736284 M-1.0041561778634787 61.377138352021575 C0.38437504499219355 37.77712050275877, -1.9670728352759035 15.971999732963738, 1.6194176618009806 -1.0900472048670053 M0.3155127940699458 61.1180825503543 C-0.5702990912925451 47.53621944719926, -1.4532790505420414 33.99991622716188, -0.5820537926629186 -0.3186256317421794" stroke="#000000" stroke-width="1" fill="none"></path></g><g transform="translate(10 356.5) rotate(0 99 18)"><text x="0" y="25" font-family="Virgil, Segoe UI Emoji" font-size="28px" fill="#000000" text-anchor="start" style="white-space: pre;" direction="ltr">gossip mempool</text></g><g transform="translate(448 198.5) rotate(0 88 18)"><text x="0" y="25" font-family="Virgil, Segoe UI Emoji" font-size="28px" fill="#d9480f" text-anchor="start" style="white-space: pre;" direction="ltr">Filter_1.wasm</text></g><g transform="translate(433.5 340.5) rotate(0 100.5 30.5)"><path d="M-0.047280024403935667 -0.5537700023787676 C51.620602024475204 -0.628010889224492, 105.69454780794297 -3.455279326903973, 200.79615808174668 -1.3927816054562745 M-0.16650662390066084 0.6115832911990254 C41.60918376662184 -0.9254822583406364, 83.46582560200822 -0.32325535022935037, 201.6600048449799 -0.2692831753850847 M200.4661654587835 -0.7271390613168478 C201.27355710982346 16.9593264025636, 199.71610472916626 35.0478247186169, 200.68327364884317 60.30230330862105 M200.00990980584174 -0.643762213177979 C201.4653751504142 23.382381958235054, 199.6589987826068 46.6119133900851, 201.04790350515395 61.35009728651494 M199.701143520426 62.14820568369339 C149.30535857609857 57.57141931358264, 99.94350382221913 60.77005399307845, 1.5504997396991906 61.810259819641765 M201.23002811930021 61.61035474060374 C143.18096408241942 59.69547242646041, 86.61212505309781 60.105911583503584, 0.0034194856233984226 60.773465727065286 M1.3473604079335928 59.43425136245787 C0.22566990123130382 48.81142887128517, -0.7203284694161266 35.93255817759782, 0.15273687802255154 0.7618390265852213 M-0.9578359154984355 61.30252297502011 C-0.7877952410746365 46.322726987954226, 0.3233374700974673 31.378288476169104, 0.04948189575225115 0.5405898569151759" stroke="#000000" stroke-width="1" fill="none"></path></g><g transform="translate(433.5 459.5) rotate(0 100.5 30.5)"><path d="M0.086064127170068 0.6289898263536631 C70.72446984615317 -0.6093558669181325, 141.39549327556716 -3.0422505146970247, 202.1482056836934 -0.5176824363189517 M0.7752498698495953 0.40512990982088143 C40.75841336355838 -1.9983007073092351, 80.89555105786226 -1.2401123397079359, 201.61035474060375 -0.24586191676975186 M201.00761317647994 -0.5043581370264292 C199.64341252104379 19.680349266808484, 202.40405379788018 43.84348646495492, 199.43425136245787 60.74751720391214 M201.07636843901128 0.38091951329261065 C200.0002893917542 19.322968838643284, 201.41864095258526 38.10015934593976, 201.3025229750201 60.08652719575912 M201.0888998864478 61.97123152142775 C147.09986082250774 58.74942883409496, 88.93097961938919 58.721088428711084, -0.3470430332373797 60.51840819844019 M201.74477555052263 61.80645527750906 C125.82571233362562 59.61943457012067, 51.046601001503404 59.05743751369242, -0.16353163368538914 61.488183972579805 M0.601853484287858 61.06954005919397 C0.994223949899897 39.3696425368078, -1.1193451309297233 15.991802738420667, 0.5894543472677469 1.5507969614118338 M-0.3410186292603612 61.689746973104775 C0.4953562579024583 48.20676795477047, -0.07701293016783894 33.58731146603822, 0.7274267850443721 -0.3816591231152415" stroke="#000000" stroke-width="1" fill="none"></path></g><g transform="translate(446 471) rotate(0 92.5 18)"><text x="0" y="25" font-family="Virgil, Segoe UI Emoji" font-size="28px" fill="#d9480f" text-anchor="start" style="white-space: pre;" direction="ltr">Filter_n.wasm</text></g><g transform="translate(522.5 353) rotate(0 11.5 18)"><text x="11.5" y="25" font-family="Virgil, Segoe UI Emoji" font-size="28px" fill="#d9480f" text-anchor="middle" style="white-space: pre;" direction="ltr">...</text></g><g><g transform="translate(220 388) rotate(0 98.76303299690596 50.67725228654223)"><path d="M0.0709077212959528 0.386614676937461 C33.37636410134534 17.30486937426031, 165.63790931043525 84.08699068687856, 198.87707044817506 100.86760385893285 M-1.3510044543631374 -0.4560165630094708 C31.869295236400017 16.623689598608763, 164.47169282946115 84.75123758571222, 197.8644869698398 101.81052113609388" stroke="#000000" stroke-width="1" fill="none"></path></g><g transform="translate(220 388) rotate(0 98.76303299690596 50.67725228654223)"><path d="M168.74128730997836 97.87837102809834 C172.74927322730406 99.73013273061005, 179.6466987892541 99.28775267518465, 199.06935212185607 101.85627411404624 M168.01391745854562 99.00827251827258 C177.39943064611887 99.55717254035189, 187.50361807789793 100.91409410676755, 198.30931668991224 102.18593875324353" stroke="#000000" stroke-width="1" fill="none"></path></g><g transform="translate(220 388) rotate(0 98.76303299690596 50.67725228654223)"><path d="M178.1014141721787 79.61616887421354 C179.9491017781532 85.49773883826742, 184.7839202936747 89.07963616716053, 199.06935212185607 101.85627411404624 M177.37404432074595 80.74607036438778 C183.5902142721439 87.33568181579884, 190.63270479772325 94.66616855479151, 198.30931668991224 102.18593875324353" stroke="#000000" stroke-width="1" fill="none"></path></g></g><g><g transform="translate(218 373) rotate(0 106.09957838393748 0.3779678074432127)"><path d="M-1.1352790262550114 0.5461236443370581 C34.372102758660915 0.8722633209079504, 177.54610804058612 1.2812271323055027, 213.33443579412997 1.1502184476703403 M0.4695607556216417 -0.21276538772508502 C35.82279668880627 -0.1210346327535808, 177.1166958929412 -0.5625518350116908, 212.561969122421 -0.3684916160814464" stroke="#000000" stroke-width="1" fill="none"></path></g><g transform="translate(218 373) rotate(0 106.09957838393748 0.3779678074432127)"><path d="M185.2749180127767 10.431688461902592 C195.49154474559225 7.811711932149803, 202.31558501307836 4.855304871263616, 211.00209249606357 -1.1731225158832967 M183.54456107457105 10.371924336518202 C191.3660192982861 6.256585723204088, 200.16401854816095 4.577827949385021, 212.05421165520326 -0.3291916837729514" stroke="#000000" stroke-width="1" fill="none"></path></g><g transform="translate(218 373) rotate(0 106.09957838393748 0.3779678074432127)"><path d="M185.28788639099488 -10.089516039953665 C195.36236900101173 -6.057076690465255, 202.18220519576607 -2.3609451827119488, 211.00209249606357 -1.1731225158832967 M183.55752945278923 -10.149280165338055 C191.4234776069035 -8.45514221688683, 200.21780561546277 -4.324515613957267, 212.05421165520326 -0.3291916837729514" stroke="#000000" stroke-width="1" fill="none"></path></g></g><g transform="translate(811.4285714285714 168.85714285714278) rotate(0 152.50000000000006 64.92857142857144)"><path d="M-1.1237710777065157 -1.1466519712236523 C88.54280765076862 0.028537509890176338, 178.8768501905841 -2.031001529788397, 304.41452469077376 0.3619883413812518 M0.6292470650635659 0.010997683392912148 C72.8376198679343 0.5649154957350416, 144.9056357919903 0.8659062017162962, 305.5512745957862 0.19425319489136336 M303.46579358540475 -1.6778389271348715 C305.0814919841702 42.067040147805336, 302.8244527352269 82.40822697726215, 305.894688045606 129.34379230519494 M304.0107151539996 0.23119871597737074 C304.78712751470107 40.18917091585963, 305.02410232029456 78.51755308125702, 305.7266139360145 130.23844821179023 M305.8606265250805 130.05229501805653 C212.3911869216378 128.96755450138926, 122.93639888344168 131.23772833097337, -1.019048179461658 129.36839206344953 M304.4513039507733 129.43879063648498 C200.90179113411247 130.60335974751558, 96.81621115543378 130.89094467804517, -0.5477562751568853 129.85510475912844 M-1.1620255950838327 129.71964256545266 C-1.0281375910754182 85.27334350266364, 0.3139480684285185 42.308239889703714, 0.19314984045922756 -0.4640511926263571 M0.8697116049006581 129.7060230168115 C-0.691442847609786 92.01499444452516, -0.06106784975555324 55.28611167759769, 0.2951078386977315 -0.8495182218030095" stroke="#000000" stroke-width="1" fill="none"></path></g><g transform="translate(840.4285714285714 181.35714285714278) rotate(0 132.00000000000006 17)"><text x="0" y="24" font-family="Helvetica, Segoe UI Emoji" font-size="28px" fill="#d9480f" text-anchor="start" style="white-space: pre;" direction="ltr">matchmaker_1.wasm</text></g><g><g transform="translate(642.689174077612 224.88274972224934) rotate(0 78.71631757176112 -1.4612320302388753)"><path d="M1.127699264511466 0.7711972329765557 C27.22563609716981 0.06767941345898398, 131.29021619099822 -3.0360796769396416, 157.17203249448175 -3.6936612934542836 M0.26060264904052 0.13047183495014902 C26.154775075256225 -0.49470937734963405, 130.41816104843912 -2.269866147792434, 156.2563443618008 -2.6355139357147754" stroke="#000000" stroke-width="1" fill="none"></path></g><g transform="translate(642.689174077612 224.88274972224934) rotate(0 78.71631757176112 -1.4612320302388753)"><path d="M129.5179617179962 8.175690429786162 C136.43594302724586 2.922553920720331, 147.07345274523817 -0.7237297952190689, 156.5611856771746 -3.640379528060371 M129.08672866117527 8.124804626719968 C134.10518910820142 6.459052500555467, 140.364741679433 3.471270784836901, 156.753228228178 -3.5544000431073846" stroke="#000000" stroke-width="1" fill="none"></path></g><g transform="translate(642.689174077612 224.88274972224934) rotate(0 78.71631757176112 -1.4612320302388753)"><path d="M129.19098473114946 -12.342913042085701 C136.31317029239776 -10.444265623588603, 147.06469719901645 -6.935692647735248, 156.5611856771746 -3.640379528060371 M128.75975167432853 -12.393798845151895 C134.0151954617519 -9.817367432025875, 140.34231769465697 -8.56498806491922, 156.753228228178 -3.5544000431073846" stroke="#000000" stroke-width="1" fill="none"></path></g></g><g transform="translate(810.9285714285714 404.78571428571433) rotate(0 152.50000000000006 74.21428571428572)"><path d="M-0.09986291979581116 -0.9489214636012911 C110.22267450432794 1.6093343273704273, 219.17980154972855 2.917910034376882, 303.74702645378323 -0.32316943047255275 M-0.07558323476180434 -0.4796051870574057 C121.38159561200708 0.27196607739377765, 242.75022512909456 0.7474273075239732, 304.893704623691 0.2827701879034936 M305.81769483722746 -1.0525121930986643 C302.6922152462748 45.94788418115518, 306.2141423049716 90.4997694317518, 306.14733099378645 147.2429724945022 M304.51667644362897 -0.5113895861431956 C304.5735971723936 58.11933588003741, 303.5909048413179 117.6067784558982, 304.3395039914176 147.62574114690406 M304.2837024153444 149.72002251892908 C194.70131686396047 147.40083860330114, 85.83362161744711 149.9362384234668, 0.6188724084302782 147.86691876653535 M305.2374370848812 148.13649572976288 C233.33049625818907 148.79433035079973, 160.77283466626866 148.79697769329564, -0.21920260763034222 148.81565850432096 M0.0031788889318704605 149.87671905889047 C-0.6054641526019466 103.1099973155851, 1.0951089937412846 59.74229862831001, 1.177347058430314 -0.2801425103098154 M-0.7188849868252873 149.13137238512618 C1.8312679697666319 94.68369335780987, 0.8968563546333465 39.962909662829986, 0.0007378337904810905 -0.38402509968727827" stroke="#000000" stroke-width="1" fill="none"></path></g><g transform="translate(839.9285714285714 417.28571428571433) rotate(0 132.00000000000006 17)"><text x="0" y="24" font-family="Helvetica, Segoe UI Emoji" font-size="28px" fill="#d9480f" text-anchor="start" style="white-space: pre;" direction="ltr">matchmaker_n.wasm</text></g><g><g transform="translate(616.1428571428572 491.1428571428571) rotate(0 90.02134474771515 -0.9102066641098645)"><path d="M-0.038844337686896324 -0.6550244841724634 C29.937305511721863 -1.2565027609555386, 149.1551055857981 -2.952563375278544, 179.4197209350848 -3.4358970445176737 M-1.5183763443119824 1.615483716297895 C28.852903700118407 1.153649328584377, 151.08628121386045 -1.4938211781784707, 181.56106583974224 -2.1960043245894987" stroke="#000000" stroke-width="1" fill="none"></path></g><g transform="translate(616.1428571428572 491.1428571428571) rotate(0 90.02134474771515 -0.9102066641098645)"><path d="M152.51252397771214 6.874421059625744 C160.01253869452782 7.563893633426679, 167.18253013126898 4.532560748700471, 182.05748794614237 -3.4045062838090736 M153.16055997430567 8.220012626151144 C162.5831890233996 5.798890218696662, 170.58034532139646 1.6626057971655595, 182.1512919712336 -1.390411105003782" stroke="#000000" stroke-width="1" fill="none"></path></g><g transform="translate(616.1428571428572 491.1428571428571) rotate(0 90.02134474771515 -0.9102066641098645)"><path d="M152.05844018814082 -13.641763047022545 C159.70770989913336 -7.544723890195559, 166.99738351305996 -5.168637180096217, 182.05748794614237 -3.4045062838090736 M152.70647618473436 -12.296171480497145 C162.41752086823564 -8.153392192667662, 170.5600277187865 -5.722521466431507, 182.1512919712336 -1.390411105003782" stroke="#000000" stroke-width="1" fill="none"></path></g></g><g transform="translate(1843.4285714285716 327.71428571428567) rotate(0 110.5 27.5)"><path d="M-0.3712649204031854 0.8742912178333668 C46.127286648913405 1.8965666186238033, 94.31528293747742 -0.27813688511583945, 219.3258838922547 1.2706366240949063 M0.1482422710534766 0.7608996223704858 C85.00024707141652 0.33774586257120626, 170.97323516510994 -1.2215310800833554, 220.67659303537053 -0.17737203230218437 M219.88847910799092 1.7750218268483877 C219.599343842594 13.98342005768791, 220.4829442563933 27.958456090651456, 222.21915095485753 56.635741924867034 M221.5370480297134 -0.15455770771950483 C220.1616557395552 12.68836955400184, 220.4358556127642 26.061201181262735, 221.906919377856 54.90528848487884 M219.91106322215344 53.50267816611847 C150.48320444539192 56.39726368437703, 80.5469906408075 54.065238396256284, -1.717675717221251 53.7548012129867 M220.3476792753566 55.237865536049895 C134.79311866855733 54.92588436284805, 47.40642282393605 56.5094910848938, -0.8353421135582728 55.428238028603175 M1.153518671169877 56.49977604113519 C0.10644415360875431 37.29499220615253, -0.6856794621329754 17.67703660298139, 1.8906121794134378 1.740512466058135 M-0.5296424748376012 54.628097114153206 C0.1257911731954664 38.34852276509628, -0.20755099155940115 20.32645287923515, -0.7929441155865788 -0.2054034797474742" stroke="#000000" stroke-width="1" fill="none"></path></g><g transform="translate(1880.4285714285716 337.21428571428567) rotate(0 79.5 18)"><text x="0" y="25" font-family="Virgil, Segoe UI Emoji" font-size="28px" fill="#000000" text-anchor="start" style="white-space: pre;" direction="ltr">Tx Channel</text></g><g transform="translate(662.1428571428572 186.6428571428571) rotate(0 48.5 18)"><text x="0" y="25" font-family="Virgil, Segoe UI Emoji" font-size="28px" fill="#000000" text-anchor="start" style="white-space: pre;" direction="ltr">is valid</text></g><g transform="translate(662.9285714285712 441.42857142857144) rotate(0 48.5 18)"><text x="0" y="25" font-family="Virgil, Segoe UI Emoji" font-size="28px" fill="#000000" text-anchor="start" style="white-space: pre;" direction="ltr">is valid</text></g><g transform="translate(1237.4999999999995 205.92857142857127) rotate(0 268.92857142857133 33.5)"><path d="M0.7085161902010442 0.7850171945989133 C160.0448328730118 -0.18414882956604867, 318.6112009779417 0.18140094937224482, 538.5620581877018 -0.23207858577370644 M0.0052596163004636765 0.28693843968212607 C196.9039349686487 -1.0801368087130996, 394.1985648345468 -0.526414391358516, 538.1934896693165 -0.20302956216037274 M537.3069249846573 0.4330772515386343 C539.2629163042894 25.07755581038073, 539.6497859136454 53.79055205415935, 539.1200606681938 65.30565724335611 M537.5079838427315 -0.25478464644402266 C537.5860684861494 20.96752465600148, 539.1924655486895 42.73579057008028, 538.2318686338673 67.38796826917678 M537.1403287422444 67.26585973724723 C396.85180247523147 69.09829492546352, 256.28634520846276 69.24294779278071, 0.00919470563530922 67.63763572201132 M537.7121781454022 67.00839956887066 C368.69534625691756 69.39288090572028, 200.17913196792026 69.43111183747915, 0.2020671557635069 67.38367586024106 M1.1762703601270914 66.74655369482934 C1.3669923003111033 53.769110089819875, -0.6491570417489857 38.53193709943443, -1.536057060584426 0.989628529176116 M-0.37551672477275133 66.43217849452049 C1.2423235188703985 52.107707659434524, -0.13150212061591438 37.568512283638114, 0.9721530852839351 0.8015797408297658" stroke="#000000" stroke-width="1" fill="none"></path></g><g transform="translate(1266.4999999999995 218.42857142857127) rotate(0 246 17.5)"><text x="0" y="28" font-family="Cascadia, Segoe UI Emoji" font-size="28px" fill="#000000" text-anchor="start" style="white-space: pre;" direction="ltr">tx_wrapper(data:Vec&lt;u8&gt;) -&gt; Tx</text></g><g><g transform="translate(1120.5817849527866 244.48630787443392) rotate(0 48.16085738787251 0.48404995489397606)"><path d="M-0.4189908172935247 -0.3057415757328271 C15.196059264164425 0.08012018127210474, 78.3387572940253 0.8702383971694871, 94.47584221129868 1.1996598007808643 M1.5619002742879093 -1.51185984833166 C17.48567897377164 -0.8668773689136652, 80.96722907479857 1.731568102828787, 96.7407055930384 2.479959758119585" stroke="#000000" stroke-width="1" fill="none"></path></g><g transform="translate(1120.5817849527866 244.48630787443392) rotate(0 48.16085738787251 0.48404995489397606)"><path d="M67.61946062088941 10.081266573602054 C77.85308913540388 10.097260125826947, 89.09477566428617 5.756553735367608, 97.51664213139196 1.7126026229280251 M68.4613545853365 11.144824398653302 C75.24590133685395 9.383525973665911, 82.44190998883114 7.3449850019956875, 97.53775024555256 2.62238126912147" stroke="#000000" stroke-width="1" fill="none"></path></g><g transform="translate(1120.5817849527866 244.48630787443392) rotate(0 48.16085738787251 0.48404995489397606)"><path d="M68.51496306249118 -10.420393792400617 C78.23073778071715 -2.9149530579519585, 89.14515236624189 0.2369144613115921, 97.51664213139196 1.7126026229280251 M69.35685702693826 -9.356835967349369 C76.10780290078729 -6.099430805696029, 83.08424657016012 -3.1112443308496944, 97.53775024555256 2.62238126912147" stroke="#000000" stroke-width="1" fill="none"></path></g></g><g transform="translate(1216.7857142857133 461.642857142857) rotate(0 267.5 33.5)"><path d="M-0.6375531695783139 0.6709512852132321 C108.40683328779413 0.2835108323208987, 216.84062175322322 0.13762186003848897, 534.9993511892854 0.6812580011785031 M0.1710580062121153 0.3410178650170565 C173.88105784123758 -0.6822367089055477, 348.1223759593441 -0.8898054139874874, 535.158021743223 -0.13243287913501264 M534.0079085174947 -1.2479520086199045 C535.5881073328759 24.159248336125167, 535.060794279268 44.55006646346301, 536.2679493371396 68.18245307169855 M535.9350011525675 -0.5593644110485911 C536.2028519130217 14.188444321695716, 536.1548138177859 27.3854994609952, 535.3977289078756 67.77211206872016 M535.0274897553026 67.55797821506857 C341.0071178602985 66.17154903547839, 148.01135305147614 66.86155026094988, 0.37911121621727945 66.27751802429557 M535.3479248952119 67.28261678107083 C356.0678062335587 65.06132170742379, 177.26507519092405 65.37900858705864, 0.38210771791636944 66.92165154106915 M-0.8688938077539206 68.62700591050088 C1.3252437560353427 53.40692356554791, 2.0009908525738864 38.299243182875216, 0.30892121233046055 -0.06415959633886814 M0.8177411137148738 66.18130013067275 C1.1978940405230971 49.542882485222066, 1.6468671299796553 33.33326446898281, 0.023455548100173473 0.22276234347373247" stroke="#000000" stroke-width="1" fill="none"></path></g><g transform="translate(1245.7857142857133 474.142857142857) rotate(0 246 17.5)"><text x="0" y="28" font-family="Cascadia, Segoe UI Emoji" font-size="28px" fill="#000000" text-anchor="start" style="white-space: pre;" direction="ltr">tx_wrapper(data:Vec&lt;u8&gt;) -&gt; Tx</text></g><g transform="translate(1115.7142857142856 261.2142857142856) rotate(0 57.5 35)"><text x="0" y="28" font-family="Cascadia, Segoe UI Emoji" font-size="28px" fill="#000000" text-anchor="start" style="white-space: pre;" direction="ltr">send_tx</text><text x="0" y="63" font-family="Cascadia, Segoe UI Emoji" font-size="28px" fill="#000000" text-anchor="start" style="white-space: pre;" direction="ltr">(data)</text></g><g transform="translate(827.1428571428569 223.142857142857) rotate(0 110 36)"><text x="0" y="25" font-family="Virgil, Segoe UI Emoji" font-size="28px" fill="#000000" text-anchor="start" style="white-space: pre;" direction="ltr">tries to match</text><text x="0" y="61" font-family="Virgil, Segoe UI Emoji" font-size="28px" fill="#000000" text-anchor="start" style="white-space: pre;" direction="ltr">asset exchange</text></g><g transform="translate(827.1428571428569 467.71428571428567) rotate(0 101.5 36)"><text x="0" y="25" font-family="Virgil, Segoe UI Emoji" font-size="28px" fill="#000000" text-anchor="start" style="white-space: pre;" direction="ltr">tries to match</text><text x="0" y="61" font-family="Virgil, Segoe UI Emoji" font-size="28px" fill="#000000" text-anchor="start" style="white-space: pre;" direction="ltr">bid for NFT</text></g><g><g transform="translate(1118.571428571428 495.66897041005313) rotate(0 48.144538016628985 0.980796641600648)"><path d="M1.1204854343086479 0.5523995127528907 C17.006438501471855 0.7993149892816065, 80.3202072754233 0.9574441648170933, 96.03947447527693 1.1108587410772544 M0.24960155798122274 -0.20319468839094035 C15.990931688299604 0.19993635155425643, 79.79106218460117 1.7147650897585436, 95.55179106141003 2.164787971592168" stroke="#000000" stroke-width="1" fill="none"></path></g><g transform="translate(1118.571428571428 495.66897041005313) rotate(0 48.144538016628985 0.980796641600648)"><path d="M68.02638641698425 13.15626388148759 C75.84973628551991 8.45122286031103, 86.70260583867422 2.7918591061123443, 95.76715616764994 2.0538312785240214 M66.49324283050512 10.782200947528523 C75.67505754873119 8.406011088650583, 84.80688329879575 5.72512037697936, 95.65035212761285 1.8060146478848855" stroke="#000000" stroke-width="1" fill="none"></path></g><g transform="translate(1118.571428571428 495.66897041005313) rotate(0 48.144538016628985 0.980796641600648)"><path d="M68.55573092145288 -7.358116362171447 C76.1249900034451 -4.666616680961054, 86.78712984697161 -2.9343824228310256, 95.76715616764994 2.0538312785240214 M67.02258733497375 -9.732179296130514 C76.15547271215371 -5.940740128205491, 85.12824449517052 -2.4576043283415245, 95.65035212761285 1.8060146478848855" stroke="#000000" stroke-width="1" fill="none"></path></g></g><g><g transform="translate(1755.714285714285 506.264819974509) rotate(0 43.0688401319901 -79.01422654622127)"><path d="M0.7392744038254022 -0.08525294400751582 C15.133929541228195 -26.55092161201215, 72.37105830817413 -131.76343731844307, 86.4694255274861 -157.943200148435 M-0.331745263505727 -1.1756146849505604 C13.962082532221308 -27.49789338348708, 71.80224505101259 -130.018173762555, 85.9178284657887 -156.32496534332418" stroke="#000000" stroke-width="1" fill="none"></path></g><g transform="translate(1755.714285714285 506.264819974509) rotate(0 43.0688401319901 -79.01422654622127)"><path d="M81.13690491632488 -125.42721534586344 C82.75627204192078 -136.49814656512984, 85.48610777657596 -144.0070772125715, 86.60832132862423 -157.54398340962612 M81.27781562467035 -127.5264128015453 C82.84799825838458 -137.46190328086428, 84.57462199465385 -146.87241577743205, 85.68954409470324 -155.839842009803" stroke="#000000" stroke-width="1" fill="none"></path></g><g transform="translate(1755.714285714285 506.264819974509) rotate(0 43.0688401319901 -79.01422654622127)"><path d="M63.17048620804307 -135.3432529206481 C70.40204266019816 -143.466188372368, 78.67376203500591 -147.91643897326784, 86.60832132862423 -157.54398340962612 M63.311396916388546 -137.44245037632996 C70.93759185190832 -144.13437504999575, 78.75386272615837 -150.18388551171935, 85.68954409470324 -155.839842009803" stroke="#000000" stroke-width="1" fill="none"></path></g></g><g><g transform="translate(1777.1428571428573 224.22743545776592) rotate(0 31.612342237651774 70.77601199371941)"><path d="M-1.175472131744027 -0.41527141593396666 C9.075940586324927 23.306598831794577, 51.584970791619995 117.81786399524368, 62.09062430863914 141.59734036785017 M0.408266269750893 -1.6788928546383977 C10.993649375993902 22.327584942995923, 53.76346158826796 119.55710898920606, 64.40015660704759 143.2309168420772" stroke="#000000" stroke-width="1" fill="none"></path></g><g transform="translate(1777.1428571428573 224.22743545776592) rotate(0 31.612342237651774 70.77601199371941)"><path d="M42.8933155134617 120.34904966704434 C51.012738752970264 127.69536112505835, 59.374003528384314 134.95886789669487, 63.95975079679576 144.40205017589432 M43.520197819761805 122.58485707934832 C50.46883677674074 127.72096952340382, 54.845849616327286 133.57620337507097, 64.59946178098855 143.89096814599287" stroke="#000000" stroke-width="1" fill="none"></path></g><g transform="translate(1777.1428571428573 224.22743545776592) rotate(0 31.612342237651774 70.77601199371941)"><path d="M61.65003506995986 112.02405874424335 C63.18159726371774 122.08799887121792, 65.00591394046529 132.25286765449502, 63.95975079679576 144.40205017589432 M62.276917376259966 114.25986615654733 C63.77133428691963 121.80139330966776, 62.73032173645887 130.06136601003317, 64.59946178098855 143.89096814599287" stroke="#000000" stroke-width="1" fill="none"></path></g></g><g transform="translate(1814.2857142857142 240.28571428571428) rotate(0 28.5 18)"><text x="0" y="25" font-family="Virgil, Segoe UI Emoji" font-size="28px" fill="#000000" text-anchor="start" style="white-space: pre;" direction="ltr">push</text></g><g transform="translate(1805.7857142857142 434.2857142857142) rotate(0 28.5 18)"><text x="0" y="25" font-family="Virgil, Segoe UI Emoji" font-size="28px" fill="#000000" text-anchor="start" style="white-space: pre;" direction="ltr">push</text></g><g transform="translate(304.2857142857141 755.1428571428571) rotate(0 265 261.42857142857144)"><path d="M265.7131215773995 -0.17413503343890033 C322.957852009326 55.02972688786852, 377.8085985777028 109.62176392722895, 530.8073938799268 261.3552997391674 M265.7628304013735 -0.23371868626227926 C350.0620116735923 82.83888198268902, 435.4459054907939 167.51336245889033, 530.130334081704 262.50059422646086 M530.4071398033439 261.1104713903901 C426.7822598836957 364.05315237887686, 321.8626034620134 467.51064058089486, 265.78303215827015 522.0294610984726 M529.9205829681259 261.8752707846723 C469.1600923676085 321.11097630846115, 409.8378504534724 380.19807759810794, 265.47506027012787 522.387967389896 M266.8593996011019 524.0562952426466 C183.74245373318672 442.2202031894156, 100.95624017778022 360.5583201921449, -0.19068878126655 262.0716678631473 M266.0222410983935 522.3994307263047 C165.71555993284568 423.6634970755894, 64.85238246151386 324.8138703099756, -0.242878787599716 262.0060915507493 M-0.2998909100646461 262.07153868395824 C85.56649055422295 175.9556257099512, 170.8279831053478 94.28895104098588, 265.18914312357964 0.5817313983532392 M0.3987304508426459 262.22715534457467 C102.80695842951876 161.2704733579925, 205.63756142504715 59.628631797820326, 265.76917353867566 0.1979176106612561" stroke="#000000" stroke-width="1" fill="none"></path></g><g transform="translate(405.78571428571433 849.785714285714) rotate(0 170.5 170)"><text x="170.5" y="24" font-family="Helvetica, Segoe UI Emoji" font-size="28px" fill="#000000" text-anchor="middle" style="white-space: pre;" direction="ltr">intent type </text><text x="170.5" y="58" font-family="Helvetica, Segoe UI Emoji" font-size="28px" fill="#000000" text-anchor="middle" style="white-space: pre;" direction="ltr"></text><text x="170.5" y="92" font-family="Helvetica, Segoe UI Emoji" font-size="28px" fill="#000000" text-anchor="middle" style="white-space: pre;" direction="ltr"></text><text x="170.5" y="126" font-family="Helvetica, Segoe UI Emoji" font-size="28px" fill="#000000" text-anchor="middle" style="white-space: pre;" direction="ltr">- Asset Exchange V1,... ,Vn</text><text x="170.5" y="160" font-family="Helvetica, Segoe UI Emoji" font-size="28px" fill="#000000" text-anchor="middle" style="white-space: pre;" direction="ltr"></text><text x="170.5" y="194" font-family="Helvetica, Segoe UI Emoji" font-size="28px" fill="#000000" text-anchor="middle" style="white-space: pre;" direction="ltr">- NFT Bid V1, ....,Vm</text><text x="170.5" y="228" font-family="Helvetica, Segoe UI Emoji" font-size="28px" fill="#000000" text-anchor="middle" style="white-space: pre;" direction="ltr"></text><text x="170.5" y="262" font-family="Helvetica, Segoe UI Emoji" font-size="28px" fill="#000000" text-anchor="middle" style="white-space: pre;" direction="ltr">- Proposal tax rate ?</text><text x="170.5" y="296" font-family="Helvetica, Segoe UI Emoji" font-size="28px" fill="#000000" text-anchor="middle" style="white-space: pre;" direction="ltr"></text><text x="170.5" y="330" font-family="Helvetica, Segoe UI Emoji" font-size="28px" fill="#000000" text-anchor="middle" style="white-space: pre;" direction="ltr">- ...</text></g><g transform="translate(1035.7142857142856 797.9999999999999) rotate(0 347.1428571428572 267.85714285714295)"><path d="M333.2502088202074 0.8325515771122696 C357.3956039778874 -4.329716116121129, 385.1036253082021 0.07237804845898177, 410.2792815662688 3.69959801636395 C435.45493782433556 7.326817984268919, 460.5827198271137 14.63706872135921, 484.30414636860786 22.59587138454208 C508.025572910102 30.554674047724948, 531.9102403092242 39.87061120388436, 552.6078408152339 51.45241399546117 C573.3054413212436 63.034216787037984, 591.6179059160844 77.26709034826, 608.4897494046664 92.08668813400297 C625.3615928932485 106.90628591974594, 641.4735386751995 122.81416785366929, 653.8389017467263 140.37000070991903 C666.204264818253 157.92583356616876, 676.0386432506671 178.17917924351934, 682.6819278338271 197.42168527150142 C689.3252124169871 216.6641912994835, 692.52900057855 236.25216585825643, 693.6986092456865 255.82503687781144 C694.868217912823 275.39790789736645, 694.30557878821 295.3733975052994, 689.6995798366461 314.8589113888315 C685.0935808850821 334.34442527236354, 676.3248761110873 354.57205324281824, 666.0626155363029 372.7381201790039 C655.8003549615186 390.90418711518953, 643.2131653053306 407.8088384338233, 628.1260163879401 423.8553130059455 C613.0388674705497 439.9017875780677, 594.6312401011089 455.8817867303644, 575.5397220319601 469.01696761173696 C556.4482039628112 482.1521484931095, 535.93173177802 493.3213358083374, 513.5769079730471 502.6663982941809 C491.2220841680743 512.0114607800244, 466.1130952057988 519.601300159637, 441.4107792021231 525.087342526798 C416.70846319844736 530.573384893959, 391.07619063071394 534.3265664268561, 365.3630119509929 535.5826524971463 C339.6498332712719 536.8387385674366, 312.5242524694214 536.059496675423, 287.13170712379696 532.6238589485398 C261.7391617781725 529.1882212216566, 236.51486305812492 522.7817515076716, 213.00773987724617 514.968826135847 C189.50061669636742 507.1559007640225, 167.00661322751395 497.3231352778647, 146.08896803852448 485.74630671759246 C125.17132284953502 474.1694781573202, 104.74339632805166 460.42404228073354, 87.50186874330939 445.50785477421346 C70.26034115856712 430.59166726769337, 55.15240138979632 413.4330637743734, 42.639802530070824 396.2491816784718 C30.12720367034533 379.0652995825702, 19.59785514327163 361.30955229249423, 12.426275584956443 342.4045621988038 C5.2546960266412555 323.4995721051133, 0.9981123346069865 302.60235367196935, -0.38967481982029994 282.819241116329 C-1.7774619742475863 263.03612856068867, -0.5211352029150378 243.410438111552, 4.099552658392724 223.70588686496188 C8.720240519700486 204.00133561837177, 17.400106619590957 182.99873021089942, 27.334452348026275 164.59193363678833 C37.26879807646159 146.18513706267723, 49.09247849659079 129.40967603756067, 63.70562702900463 113.26510742029527 C78.31877556141848 97.12053880302986, 95.96981932400651 81.07796435904753, 115.01334354250932 67.72452193319586 C134.05686776101214 54.371079507344184, 155.34928337603597 42.78899533920951, 177.9667723400215 33.14445286518523 C200.58426130400701 23.499910391160952, 225.9750100822872 15.321171064676232, 250.71827732642245 9.857267089050197 C275.4615445705577 4.393363113424162, 310.2315304676557 2.042852169120418, 326.42637580483296 0.3610290114290251 C342.6212211420102 -1.3207941462623676, 341.85264710627285 -1.2657952474024228, 347.8873493494859 -0.23367185709815885 C353.9220515926989 0.7984515332061051, 362.50046925801087 2.122386204892446, 362.6345892641111 6.553769353254609 M292.6127570114209 4.701903098365847 C315.6188756940038 -2.6110801251173967, 345.2011080243094 0.15810850156123024, 370.9095949798538 1.1920528780677273 C396.6180819353982 2.2259972545742244, 422.3937078266399 5.096120085527768, 446.86367874468715 10.90556935740483 C471.3336496627344 16.71501862928189, 495.4741157750581 26.212695644002054, 517.7294204881371 36.048748509330096 C539.984725201216 45.88480137465814, 561.1499995370081 56.66551441223955, 580.3955070231607 69.92188654937308 C599.6410145093133 83.17825868650662, 618.228541298662 99.39658463189319, 633.2024654050531 115.5869813321313 C648.1763895114442 131.7773780323694, 660.9211790665685 148.8198908045938, 670.2390516615076 167.06426675080172 C679.5569242564467 185.30864269700965, 685.1217563100665 205.53518191566027, 689.1097009746878 225.0532370093788 C693.0976456393091 244.5712921030973, 695.6512271270434 264.5626977439613, 694.1667196492356 284.17259731311276 C692.6822121714278 303.78249688226424, 687.4637306452508 323.5925870345239, 680.202656107841 342.71263442428756 C672.9415815704311 361.8326818140512, 663.3107733324097 381.24203921875653, 650.6002724247764 398.8928816516949 C637.8897715171432 416.54372408463325, 621.3623453604237 433.8127670030693, 603.9396506620419 448.61768902191784 C586.5169559636602 463.42261104076636, 566.7859431339864 476.541459662991, 546.0641042344861 487.72241376478587 C525.3422653349858 498.90336786658077, 503.28656761882553 508.33617714781303, 479.6086172650403 515.7034136326872 C455.9306669112551 523.0706501175614, 429.6127126706551 528.4923556665746, 403.996402111775 531.925832674031 C378.3800915528949 535.3593096814874, 351.53505227539245 537.3831113808172, 325.9107539117596 536.304275677426 C300.2864555481268 535.2254399740347, 274.8058960173964 531.1198095482489, 250.250611929978 525.4528184536833 C225.6953278425596 519.7858273591178, 201.1084404067171 512.1803481263532, 178.57904938724928 502.30232911003225 C156.04965836778146 492.4243100937112, 134.00535216605888 479.5042136251119, 115.07426581317105 466.18470435575705 C96.14317946028322 452.8651950864022, 79.89625286642918 438.05502272824805, 64.99253126992227 422.3852734939033 C50.08880967341536 406.71552425955855, 35.493230748545564 390.35288337816587, 25.651936234129607 372.16620894968855 C15.810641719713649 353.97953452121124, 10.32260727705588 332.98041290808527, 5.944764183426514 313.2652269230392 C1.5669210897971482 293.5500409379932, -1.7401222919274442 273.5675634674122, -0.6151223276465885 253.87509303941232 C0.5098776366342672 234.18262261141246, 5.60309189800239 214.26146101349093, 12.694763969111648 195.1104043550401 C19.786436040220906 175.95934769658925, 29.688026114356745 156.18821091299895, 41.93491009900896 138.96875308870725 C54.181794083661174 121.74929526441555, 69.04641417438553 106.4140234980161, 86.17606787702493 91.79365740928989 C103.30572157966434 77.17329132056368, 123.60636060219494 62.91304680828063, 144.71283231484534 51.24655655634999 C165.81930402749575 39.58006630441934, 188.93195657591502 29.54895953379005, 212.81489815292738 21.794715897706027 C236.69783972993974 14.040472261622003, 274.7556900039931 7.590385664236953, 288.0104817769195 4.721094739845853 C301.2652735498459 1.8518038154547534, 291.2652789185874 3.809083993985458, 292.343648790486 4.57897035135943 C293.4220186623846 5.348856708733403, 293.4746099842436 5.059060205492609, 294.48070100831103 9.340412884089687" stroke="#000000" stroke-width="1" fill="none"></path></g><g transform="translate(1055.428571428571 911.7142857142858) rotate(0 316 153)"><text x="316" y="24" font-family="Helvetica, Segoe UI Emoji" font-size="28px" fill="#000000" text-anchor="middle" style="white-space: pre;" direction="ltr">matchmaker wasm env </text><text x="316" y="58" font-family="Helvetica, Segoe UI Emoji" font-size="28px" fill="#000000" text-anchor="middle" style="white-space: pre;" direction="ltr"></text><text x="316" y="92" font-family="Helvetica, Segoe UI Emoji" font-size="28px" fill="#000000" text-anchor="middle" style="white-space: pre;" direction="ltr">- read_storage : request storage trough </text><text x="316" y="126" font-family="Helvetica, Segoe UI Emoji" font-size="28px" fill="#000000" text-anchor="middle" style="white-space: pre;" direction="ltr">RPC to a ledger node</text><text x="316" y="160" font-family="Helvetica, Segoe UI Emoji" font-size="28px" fill="#000000" text-anchor="middle" style="white-space: pre;" direction="ltr">- send_tx : wrap data with user defined transaction </text><text x="316" y="194" font-family="Helvetica, Segoe UI Emoji" font-size="28px" fill="#000000" text-anchor="middle" style="white-space: pre;" direction="ltr">code and send it to ledger node</text><text x="316" y="228" font-family="Helvetica, Segoe UI Emoji" font-size="28px" fill="#000000" text-anchor="middle" style="white-space: pre;" direction="ltr">+ usual env</text><text x="316" y="262" font-family="Helvetica, Segoe UI Emoji" font-size="28px" fill="#000000" text-anchor="middle" style="white-space: pre;" direction="ltr">- log</text><text x="316" y="296" font-family="Helvetica, Segoe UI Emoji" font-size="28px" fill="#000000" text-anchor="middle" style="white-space: pre;" direction="ltr">- ...</text></g></svg>