<svg version="1.1" xmlns="http://www.w3.org/2000/svg" viewBox="0 0 1220.0000000000002 820" width="1220.0000000000002" height="820">
  <!-- svg-source:excalidraw -->
  
  <defs>
    <style>
      @font-face {
        font-family: "Virgil";
        src: url("https://excalidraw.com/Virgil.woff2");
      }
      @font-face {
        font-family: "Cascadia";
        src: url("https://excalidraw.com/Cascadia.woff2");
      }
    </style>
  </defs>
  <rect x="0" y="0" width="1220.0000000000002" height="820" fill="#ffffff"></rect><g transform="translate(292 10) rotate(0 306.0000000000001 400)"><path d="M0.398009829223156 -0.4675335690379143 C233.38807693347343 -2.2322934292256837, 467.18376384973544 -2.219102825969458, 611.705397705734 0.05265347510576249 M-0.13706881031394005 0.3514573357999325 C125.54316391348844 -1.1797970600128178, 250.41347003206621 -0.7890012331008915, 612.2266158677639 -0.22544717565178873 M611.4768626257779 0.4358089163899422 C609.8161617025735 208.65067858844998, 609.2911356195809 415.3934489563108, 612.1766378924253 800.0877052500844 M611.7735707856717 -0.3646048523485661 C613.5268731273713 242.21792459115386, 613.4131193079056 484.41998757347466, 612.0351169444623 799.930026128143 M612.3631540820005 800.2106922343373 C445.76640977934017 798.9788310293853, 278.62050013244163 798.9379170183837, -0.0228570893406868 800.6654404357075 M611.9154641963544 800.1722222112119 C437.68004634529365 799.7512580019832, 264.15975071713336 799.8944235188366, -0.18096312507987022 799.9289892695845 M-0.40683650523424153 799.9950558379293 C2.4527262076735497 511.15792807489635, 2.4491387233138084 224.1800486639142, 0.3103795573115349 -0.06838901489973069 M0.022424898296594623 800.0722656749189 C-0.0705894432961941 600.2890666089952, -0.6981143198907376 400.8495710037649, 0.39109538570046426 0.16536314710974695" stroke="#000000" stroke-width="1" fill="none"></path></g><g transform="translate(498 19) rotate(0 100.5 23)"><text x="0" y="32" font-family="Virgil, Segoe UI Emoji" font-size="36px" fill="#000000" text-anchor="start" style="white-space: pre;" direction="ltr">Matchmaker</text></g><g transform="translate(429.81188118811906 168.00990099009857) rotate(0 72.5 13)"><text x="0" y="18" font-family="Virgil, Segoe UI Emoji" font-size="19.900990099009903px" fill="#000000" text-anchor="start" style="white-space: pre;" direction="ltr">Intent mempool</text></g><g><g transform="translate(219.06491687282693 186.16630495017688) rotate(0 95.31008387081246 -0.17229060527444062)"><path d="M1.068055158108473 -0.7094629459083079 C32.48832741819605 -1.154047232832274, 156.67185192817374 -1.869829997250245, 188.20364533694294 -1.8770462726996016 M0.16964538677595553 1.5324650621507319 C31.992207407870364 1.1669343360201656, 158.7942958878774 0.0525488585537367, 190.45052235484889 -0.6765149352800766" stroke="#000000" stroke-width="1" fill="none"></path></g><g transform="translate(219.06491687282693 186.16630495017688) rotate(0 95.31008387081246 -0.17229060527444062)"><path d="M161.2330341234601 8.525811167993579 C168.94323882240766 8.780918056399964, 178.4846619637123 4.516556398351924, 189.04930252120664 1.040895319943436 M162.3348277237064 9.204688657634888 C171.3249629595103 6.584823922300231, 183.20531699185034 3.265699625560025, 190.22419209875932 0.13569336517632813" stroke="#000000" stroke-width="1" fill="none"></path></g><g transform="translate(219.06491687282693 186.16630495017688) rotate(0 95.31008387081246 -0.17229060527444062)"><path d="M160.9278135246855 -11.993127468591004 C168.8566579313112 -6.128787330070427, 178.48155920591446 -4.781199134380256, 189.04930252120664 1.040895319943436 M162.0296071249318 -11.314249978949695 C171.2884484469999 -6.63827147536938, 183.27731496283224 -2.6624720381897014, 190.22419209875932 0.13569336517632813" stroke="#000000" stroke-width="1" fill="none"></path></g></g><g transform="translate(232 148) rotate(0 25.5 13)"><text x="0" y="18" font-family="Virgil, Segoe UI Emoji" font-size="20px" fill="#000000" text-anchor="start" style="white-space: pre;" direction="ltr">fetch</text></g><g transform="translate(417 85) rotate(0 86.5 96.5)"><path d="M87.99881522729993 1.809836994856596 C104.62144788222388 21.79748372294009, 126.69580209011212 44.7276924065128, 171.81470565870404 97.65685130283237 M86.07848442159593 -0.47848514281213284 C107.48424088051542 23.21001938447356, 129.58308413876222 47.030562664158644, 173.9210227187723 97.68765785731375 M174.81486110761762 98.16052580997348 C147.85603208042681 125.12678766656668, 124.42721781194209 154.57270906973633, 87.66791050508618 193.70799101516607 M173.7968681510538 96.62251951731741 C150.63757004082203 121.89701266977937, 126.26966711260378 149.61283472869547, 87.0316851194948 192.47240313328805 M88.67096512392163 192.1574968211353 C57.41676971595733 158.98022822553293, 30.033741857483967 129.57143970543518, 0.4382486827671528 95.70216585323215 M87.08894229494035 192.33351906575265 C60.86590278681368 162.6447470998578, 34.22407836049795 132.29228999970482, -0.8758199755102396 96.29396214522421 M1.142444659024477 95.94613577052951 C34.73474542999641 58.565178497228764, 66.9438570499234 22.90543286902829, 88.09556882455945 0.20273030921816826 M-0.6034596506506205 97.39920344389975 C34.29986963016913 58.29278288735077, 68.77297063419596 20.849133467767388, 87.41182530485094 -0.7807095404714346" stroke="#000000" stroke-width="1" fill="none"></path></g><g transform="translate(746.0000000000002 686) rotate(0 48.5 15)"><path d="M-1.058380115777254 -1.0665686838328838 C35.73248131442815 0.30837435713037853, 73.80411590747535 1.2760165452025831, 95.72133911773562 1.76055221632123 M-0.11289522610604763 0.4345406349748373 C26.948755974508824 -0.6485693387500941, 55.17547103315592 0.9546848006732762, 96.38050493039191 0.3534949477761984 M95.49396504089236 -1.8135110847651958 C96.78447718713433 5.916033508256079, 94.85102803800255 16.056028082966805, 95.97059513255954 31.59764378145337 M97.41306861676276 -0.7648002449423075 C97.57394811678678 9.580177508294582, 96.52935734558851 16.93352279998362, 96.14764347113669 29.897995239123702 M97.6744039170444 28.15147965028882 C64.73077801149338 29.621718142423777, 38.282524878159165 29.27367887297645, 1.7657915465533733 30.52374367788434 M96.13722314871848 30.89861178956926 C60.878979795984925 30.491420100610704, 23.7351411215961 30.45448030082509, -0.36450532637536526 30.963390534743667 M-0.5943339951336384 28.903720904141665 C1.3420954322442413 19.877957796677947, -0.5721810484305023 11.364451311528683, 0.8226266019046307 1.0087005384266376 M-0.42816356383264065 30.116610234603286 C0.6347960641607642 22.886113453656435, -1.0969323107972742 15.150190265849231, -0.008907770738005638 0.012998705729842186" stroke="#000000" stroke-width="1" fill="none"></path></g><g transform="translate(757.0000000000002 687) rotate(0 34 13)"><text x="0" y="18" font-family="Virgil, Segoe UI Emoji" font-size="20px" fill="#000000" text-anchor="start" style="white-space: pre;" direction="ltr">channel</text></g><g><g transform="translate(850.1859043750403 709.8733631156106) rotate(0 76.31159694961093 -1.7682850156788277)"><path d="M-0.08472423031926146 -0.1233217410743237 C25.185242039585525 -0.31811170605690986, 126.66610215914453 -1.0656986280218614, 151.95305832773096 -1.5410893315298382 M-1.5883431805763395 -1.2336696004774423 C24.028862191155593 -1.7597752673619413, 128.2948274184393 -3.258707211945663, 154.2115370797983 -3.413248290283409" stroke="#000000" stroke-width="1" fill="none"></path></g><g transform="translate(850.1859043750403 709.8733631156106) rotate(0 76.31159694961093 -1.7682850156788277)"><path d="M125.92896369567515 5.715021183318925 C136.1651208069563 1.7442513128842339, 142.97701867461086 0.19950843674654362, 153.8679077307752 -2.745554984522787 M125.89142357094588 7.615660376451444 C132.5297738094926 4.300740219057934, 138.47833891175495 2.1445250957132673, 154.70332930600853 -4.110696895954934" stroke="#000000" stroke-width="1" fill="none"></path></g><g transform="translate(850.1859043750403 709.8733631156106) rotate(0 76.31159694961093 -1.7682850156788277)"><path d="M125.70484335797633 -14.804963525741393 C135.95078905493466 -12.049704360057653, 142.8361472324394 -6.868576436936167, 153.8679077307752 -2.745554984522787 M125.66730323324705 -12.904324332608873 C132.51500959321373 -11.88367501635817, 138.51090400671993 -9.706518376183332, 154.70332930600853 -4.110696895954934" stroke="#000000" stroke-width="1" fill="none"></path></g></g><g transform="translate(861.0000000000002 674) rotate(0 15.5 13)"><text x="0" y="18" font-family="Virgil, Segoe UI Emoji" font-size="20px" fill="#000000" text-anchor="start" style="white-space: pre;" direction="ltr">pop</text></g><g transform="translate(930.0000000000002 675) rotate(0 21.5 13)"><text x="0" y="18" font-family="Virgil, Segoe UI Emoji" font-size="20px" fill="#000000" text-anchor="start" style="white-space: pre;" direction="ltr">send</text></g><g transform="translate(10 112) rotate(0 99 69)"><path d="M131.88622241333698 4.547849861837548 C144.72465952320576 6.625563689374713, 158.9058368536816 13.852205179814455, 168.82262596772392 20.47331064286565 C178.73941508176625 27.094416105916842, 186.45826913010146 35.425116279479035, 191.386957097591 44.274482640144704 C196.31564506508053 53.123849000810374, 199.21999421259602 64.24958532270341, 198.3947537726612 73.56950880685967 C197.5695133327264 82.88943229101594, 192.85131019226546 92.07011189208146, 186.43551445798215 100.19402354508226 C180.01971872369884 108.31793519808306, 170.56595345908124 116.26004592216104, 159.89997936696136 122.31297872486454 C149.23400527484148 128.36591152756802, 135.76935090992305 133.94647943680235, 122.4396699052628 136.51162036130322 C109.10998890060256 139.07676128580408, 93.4895432941242 139.66764336563855, 79.92189333899994 137.70382427186973 C66.35424338387567 135.74000517810092, 52.0621367954618 130.41896958542154, 41.03377017451721 124.72870579869036 C30.00540355357262 119.03844201195918, 20.60453390341271 111.6604285966753, 13.751693613332407 103.56224155148263 C6.898853323252101 95.46405450628995, 1.5190964756887695 85.59104680051823, -0.0832715659646226 76.13958352753434 C-1.6856396076180147 66.68812025455046, -0.40695385572819465 55.73471285743719, 4.137485363412054 46.85346191357929 C8.681924582552302 37.97221096972139, 17.88240434664513 29.61168914355621, 27.18336374887687 22.85207786438695 C36.48432315110861 16.09246658521769, 47.48656324064215 9.981255449217096, 59.943241776802495 6.2957942385637296 C72.39992031296283 2.610333027910363, 88.72482228896797 0.6569561601787228, 101.92343496583894 0.7393106004667516 C115.1220476427099 0.8216650407547803, 131.69787194364108 5.14586547543654, 139.13491783802826 6.789920880291902 C146.57196373241544 8.433976285147265, 147.24186150688323 9.736514021450136, 146.545710332162 10.603643029598928 M127.63891146718171 1.8971536845934338 C139.9906716321438 3.2850690005165175, 152.5643107648018 9.401607464111756, 163.03342711569155 15.892108235971989 C173.5025434665813 22.382609007832222, 184.75453089723368 31.972347050262023, 190.45360957252024 40.840158315754834 C196.1526882478068 49.707969581247646, 197.64286155839807 59.78499776443868, 197.22789916741084 69.09897582892886 C196.8129367764236 78.41295389341903, 193.7340216228359 88.05660572910861, 187.9638352265969 96.72402670269591 C182.1936488303579 105.3914476762832, 172.77906573312322 114.62563959093184, 162.6067807899768 121.10350167045266 C152.43449584683037 127.58136374997348, 139.9464078829877 133.11283938094823, 126.93012556771835 135.59119917982082 C113.913843252449 138.0695589786934, 97.94365714828572 137.46593726046717, 84.5090868983607 135.97366046368825 C71.07451664843569 134.48138366690932, 57.708351337831836 131.7403379861315, 46.32270406816824 126.63753839914727 C34.93705679850465 121.53473881216307, 23.862874700596976 113.01513040610693, 16.195203280379133 105.356862941783 C8.52753186016129 97.69859547745908, 2.1710749813622785 89.90910503742803, 0.3166755468611768 80.68793361320368 C-1.537723887639925 71.46676218897933, 1.2337908030966127 59.2330823902647, 5.068806673372521 50.0298343964369 C8.90382254364843 40.826586402609095, 14.617717066651439 32.879984998622014, 23.326770768516624 25.468445650236866 C32.03582447038181 18.056906301851722, 45.03443528945457 9.601050124803663, 57.32312888456364 5.560598306126025 C69.61182247967271 1.5201464874483852, 85.33297387167141 1.7852984268017948, 97.05893233917104 1.2257347381710275 C108.78489080667066 0.6661710495402602, 122.54982828680859 1.6398045087786195, 127.67887968956137 2.2032161743414207 C132.80793109231416 2.766627839904222, 128.24679793503978 3.224837923839683, 127.83324075568773 4.606204731547834" stroke="#000000" stroke-width="1" fill="none"></path></g><g transform="translate(14 173) rotate(0 90 13)"><text x="0" y="18" font-family="Virgil, Segoe UI Emoji" font-size="20px" fill="#000000" text-anchor="start" style="white-space: pre;" direction="ltr">orderbook network</text></g><g transform="translate(1012.0000000000002 641) rotate(0 99 69)"><path d="M110.15839749062977 -0.4799248141176946 C123.27824458479378 -0.7020519713627552, 137.80438230575305 4.533170017738034, 149.4825717232555 9.622709285671824 C161.16076114075793 14.712248553605615, 172.3515388644784 22.36460557805639, 180.22753399564445 30.057310793485044 C188.10352912681049 37.7500160089137, 194.2257272414931 46.489009873853306, 196.7385425102517 55.778940578243734 C199.2513577790103 65.06887128263416, 198.7838617169078 76.45146636930524, 195.30442560819603 85.7968950198276 C191.82498949948425 95.14232367034997, 184.555851337879 104.2905653537773, 175.86192585798102 111.85151248137791 C167.16800037808304 119.41245960897852, 155.24156642362485 126.9575422071728, 143.14087272880806 131.16257778543127 C131.04017903399128 135.3676133636897, 116.80389067658857 136.6924159235607, 103.25776368908032 137.08172595092867 C89.71163670157208 137.47103597829664, 74.40113124244783 136.86316774416287, 61.86411080375855 133.49843794963914 C49.32709036506927 130.13370815511541, 37.32385190727261 123.81046453528613, 28.03564105694464 116.89334718378632 C18.74743020661667 109.9762298322865, 10.826761459661824 100.9657975324184, 6.134845701790709 91.99573384064028 C1.4429299439195944 83.02567014886216, -1.2349175730864321 72.58132924118321, -0.11585349028204917 63.07296503311757 C1.0032105925223338 53.564600825051926, 5.920146161834982 43.145941998421854, 12.849230198617008 34.94554859224642 C19.778314235399034 26.74515518607098, 30.501894754372337 19.618175687240708, 41.458650730410106 13.870604596064958 C52.415406706447875 8.123033504889207, 65.4195786023252 2.6694432567085222, 78.58976605484361 0.46012204519192323 C91.75995350736201 -1.7491991663246758, 112.1008261317077 -0.050514916303124324, 120.47977544552054 0.6146773269653636 C128.8587247593334 1.2798695702338514, 129.28237690139792 3.3183896137935305, 128.86346193772067 4.451275504802851 M97.33652874902059 1.1396691023251435 C110.10300942031898 -0.39982569511667765, 123.64703329333587 1.4872548291243377, 136.30070453502225 4.942199908545611 C148.95437577670862 8.397144987966884, 163.91845293917257 14.987901521024114, 173.25855619913887 21.86933957885278 C182.59865945910516 28.75077763668145, 188.27531775641944 37.296844488676015, 192.34132409482004 46.23082825551761 C196.40733043322064 55.1648120223592, 199.0990421242815 65.8834139703135, 197.6545942295424 75.47324217990233 C196.21014633480328 85.06307038949116, 190.59969165750795 95.55982442864932, 183.67463672638542 103.76979751305062 C176.74958179526288 111.97977059745192, 167.35609407331518 119.18073047230145, 156.10426464280712 124.73308068631015 C144.85243521229907 130.28543090031883, 129.78223771055752 135.35319533729086, 116.16366014333714 137.0838987971028 C102.54508257611677 138.81460225691472, 87.5651479871727 137.49076003030626, 74.39279923948489 135.1173014451818 C61.22045049179708 132.74384286005733, 47.7140781012897 128.57321918409065, 37.12956765721031 122.843147286356 C26.545057213130917 117.11307538862134, 16.93045486799661 109.02641076432201, 10.885736575008522 100.73687005877383 C4.841018282020435 92.44732935322565, 1.540119173643388 82.70437345636942, 0.8612578992817816 73.10590305306692 C0.1823966249201755 63.50743264976443, 1.7182450111683805 52.027432268587646, 6.8125689288388855 43.14604763895886 C11.90689284650939 34.26466300933008, 21.6849091273944 26.39138814962728, 31.427201405304814 19.817595275294202 C41.16949368321523 13.243802400961126, 54.32385624033955 7.046177539591829, 65.26632259630136 3.7032903929603975 C76.20878895226318 0.3604032463289655, 92.06903507067665 0.3249930474795283, 97.08199954107569 -0.2397276044943908 C102.09496401147473 -0.8044482564683099, 95.17443017768593 -0.8123358768459827, 95.34410941869558 0.3149664811168833" stroke="#000000" stroke-width="1" fill="none"></path></g><g transform="translate(1036.0000000000002 694) rotate(0 71.5 13)"><text x="0" y="18" font-family="Virgil, Segoe UI Emoji" font-size="20px" fill="#000000" text-anchor="start" style="white-space: pre;" direction="ltr">ledger network</text></g><g transform="translate(410 418) rotate(0 96.5 58.5)"><path d="M0.16156412288546562 -1.138224195688963 C68.10688687134535 1.6999051635526123, 135.71213317327204 3.1424084966443484, 193.13645089790228 -1.3787073604762554 M-0.12624297104775906 0.12554455362260342 C62.085221565701076 1.5542707015760244, 122.96553414016964 0.16344143645837916, 193.39793034829202 0.4958424028009176 M194.51839078590277 -1.7583736889064312 C193.5684525690787 42.70782538447531, 193.31602606398988 90.38891779892151, 192.15527630969885 117.34274547174577 M192.225934708491 -0.9056864324957132 C192.99941049108284 39.78477914873512, 193.47154716739433 77.2942812137306, 193.26459815539422 117.41755903325979 M192.42738343402746 116.22574393823747 C137.13821916859598 119.82251691440125, 78.55170306600631 115.98303019622345, 1.1831768862903118 118.13147811964159 M193.83575131930414 117.55193412862722 C120.26230041962118 116.3956168511324, 46.26797587797046 117.09384169368077, -0.42060438357293606 116.00580055080358 M-1.21216594055295 116.53788356855516 C2.1379361330159012 68.7965392386541, 0.0038033901341262277 25.293769890442505, 1.1624133698642254 -1.1442232839763165 M-0.8353063222020864 117.92852098308508 C0.7180167812667788 87.02590643744918, -0.10513844305649389 56.092596930265444, -0.6864248272031546 -0.4128339234739542" stroke="#000000" stroke-width="1" fill="none"></path></g><g transform="translate(425 434) rotate(0 68.5 13)"><text x="0" y="18" font-family="Virgil, Segoe UI Emoji" font-size="20px" fill="#000000" text-anchor="start" style="white-space: pre;" direction="ltr">wasm program</text></g><g transform="translate(679 655) rotate(0 20.5 13)"><text x="0" y="18" font-family="Virgil, Segoe UI Emoji" font-size="20px" fill="#000000" text-anchor="start" style="white-space: pre;" direction="ltr">push</text></g><g transform="translate(342.0000000000002 621) rotate(0 157.5 84)"><path d="M-1.0932044703736752 0.5141785923231095 C99.54400652212074 1.7842562311407606, 196.36095454142486 1.7162918933326283, 315.1012352184734 -0.48956907100363073 M0.3991947709695324 -0.26136252970006313 C82.48456766256533 -2.7736925012694593, 165.16981397911076 -1.545392314333319, 315.0885479448985 0.4639201959032788 M314.1502252109349 0.5211570374667645 C315.71103709548714 61.12040737643838, 316.3273342213035 125.41522580012679, 313.7709671743214 169.35647166892886 M315.91086525283754 0.3766197208315134 C315.4714463765174 36.430896391347055, 315.6515876466781 71.67916758395732, 314.4804028328508 168.5251445416361 M314.34836500763936 166.75841975971107 C244.57275953916135 166.1250603774076, 173.13514120784458 164.60844025447375, 0.3129740152425319 169.11691377225713 M315.51005849878277 167.3872907433946 C234.13566482674045 168.88053188591837, 154.56598454790952 168.72639763411857, -0.316192934176065 167.32689038716504 M0.5633647926151752 166.18190432712436 C-0.49070448100566866 107.33475183323026, 1.3560537654161453 41.632142033427954, -1.3823223821818829 1.9162896983325481 M0.37461978755891323 167.27176525630057 C-0.6039795293658972 106.48837660439312, -0.5109316124767065 47.35613579489291, 0.12428355775773525 -0.7083834763616323" stroke="#000000" stroke-width="1" fill="none"></path></g><g transform="translate(356.5 627) rotate(0 53 13)"><text x="53" y="18" font-family="Virgil, Segoe UI Emoji" font-size="20px" fill="#000000" text-anchor="middle" style="white-space: pre;" direction="ltr">tx wrapper</text></g><g><g transform="translate(499.855742480622 545.1034439439748) rotate(0 0.1964504263792719 34.64730670173299)"><path d="M0.43388231322169313 -0.8668584756553173 C0.7082966405498041 10.76327685471818, 0.8824365081126757 58.57338748258576, 1.1903690544349275 70.16147187912136 M-0.7974682016763837 1.2924368792865426 C-0.6521442898856299 12.539123805884346, -0.2935864369430625 56.99980669705235, 0.1764474529513289 68.37184666434534" stroke="#000000" stroke-width="1" fill="none"></path></g><g transform="translate(499.855742480622 545.1034439439748) rotate(0 0.1964504263792719 34.64730670173299)"><path d="M-12.159116047315235 40.20935331872001 C-6.715413239238239 49.31199854213087, -6.36183653233271 53.29696657462952, 0.036884738106386816 67.54003838414557 M-10.71623135066771 39.69654519139126 C-8.078175394895998 49.42881909819656, -4.473882068709008 56.34458230410674, -0.698044393237574 67.77593927981563" stroke="#000000" stroke-width="1" fill="none"></path></g><g transform="translate(499.855742480622 545.1034439439748) rotate(0 0.1964504263792719 34.64730670173299)"><path d="M8.356922209444113 39.74872697011817 C8.427084054108718 49.04623136036997, 3.4056586144488623 53.151879008568, 0.036884738106386816 67.54003838414557 M9.799806906091638 39.23591884278942 C6.509312305298583 48.97583820173736, 4.181899426291038 56.024780149862906, -0.698044393237574 67.77593927981563" stroke="#000000" stroke-width="1" fill="none"></path></g></g><g><g transform="translate(508.82043331014904 284.51820525440195) rotate(0 -0.5958597255751101 63.84952268352336)"><path d="M0.40541956946253777 0.4080375261604785 C0.39031504251920146 21.63454934176235, -0.41770955729668535 105.62761921864892, -0.41536031837088105 126.5648633035379 M-0.8408738859090954 -0.42334671794436884 C-1.022385837361957 21.080376598361795, -1.7029072390906286 106.87032134322408, -1.5842075034554775 128.12239208499105" stroke="#000000" stroke-width="1" fill="none"></path></g><g transform="translate(508.82043331014904 284.51820525440195) rotate(0 -0.5958597255751101 63.84952268352336)"><path d="M-11.101727901844015 99.207797427417 C-9.121381644412686 108.26540289717235, -7.226999983519503 114.16305244756217, -0.5869425110097701 127.10084243172915 M-12.432426974994769 99.03283736737188 C-7.833481970859294 109.56723317382502, -5.033447428047574 119.21410480570903, -2.217033628704744 128.97250017764182" stroke="#000000" stroke-width="1" fill="none"></path></g><g transform="translate(508.82043331014904 284.51820525440195) rotate(0 -0.5958597255751101 63.84952268352336)"><path d="M9.419429460931887 99.25365457547036 C5.799057027803684 108.36807450203756, 2.0924164973453125 114.25320785271512, -0.5869425110097701 127.10084243172915 M8.088730387781133 99.07869451542524 C5.734521832930922 109.76640030165876, 1.5812829543627842 119.39773395568399, -2.217033628704744 128.97250017764182" stroke="#000000" stroke-width="1" fill="none"></path></g></g><g><g transform="translate(481.14780840033995 272.1022612738154) rotate(0 0.9323288810172699 70.86020011324268)"><path d="M0.3805314369499684 -0.9670069880783557 C0.5082893899956769 22.52585888769887, 0.3281020869212474 117.45940980745664, 0.44855031706656523 141.304641558478 M-0.8788282879907638 1.1397103978414087 C-0.3407699850538696 24.78076587104648, 2.552980380374032 119.53951306681334, 2.7434860500254037 142.6874072145637" stroke="#000000" stroke-width="1" fill="none"></path></g><g transform="translate(481.14780840033995 272.1022612738154) rotate(0 0.9323288810172699 70.86020011324268)"><path d="M-9.720056809512489 113.39503721750522 C-5.550394432425772 122.10113344234176, -1.2495038629762965 130.32407528301428, 1.4570556203581693 141.40413674749098 M-7.438824435723536 114.76295238404715 C-5.295106911371272 121.53166111466805, -1.7486524390868263 128.68308484559745, 2.5687402575023772 143.53325633555315" stroke="#000000" stroke-width="1" fill="none"></path></g><g transform="translate(481.14780840033995 272.1022612738154) rotate(0 0.9323288810172699 70.86020011324268)"><path d="M10.796602966371264 112.96297932037432 C9.356205425870563 121.85230375719463, 8.045785103404352 130.19341352630153, 1.4570556203581693 141.40413674749098 M13.077835340160217 114.33089448691625 C9.831861886406395 121.2908211263159, 7.9913760672308225 128.55568779190048, 2.5687402575023772 143.53325633555315" stroke="#000000" stroke-width="1" fill="none"></path></g></g><g><g transform="translate(455.13861114356234 252.3924062373743) rotate(0 -0.5655911044812569 80.42379529835716)"><path d="M-0.20922159478068347 -0.13560165837407112 C-0.4775418030824198 26.826956646507806, -1.4614043919274877 134.18526345822127, -1.6304181121921146 161.1713058024098 M-1.778201661380008 -1.252396474359557 C-1.665169178329377 25.865926100649137, 0.7189498809726613 134.75637062132458, 0.6470194524174575 162.09998707107388" stroke="#000000" stroke-width="1" fill="none"></path></g><g transform="translate(455.13861114356234 252.3924062373743) rotate(0 -0.5655911044812569 80.42379529835716)"><path d="M-10.153284469274634 132.6459504839002 C-8.846892812894142 141.71734240246712, -4.677086457962561 149.04167163521404, 2.2278815461343173 163.89411287761413 M-10.665253720832819 133.37820851877024 C-5.498499543665652 143.22780049204837, -2.558753733185669 151.91576855437847, 1.5736644389128331 162.18013018935108" stroke="#000000" stroke-width="1" fill="none"></path></g><g transform="translate(455.13861114356234 252.3924062373743) rotate(0 -0.5655911044812569 80.42379529835716)"><path d="M10.366648405444916 132.41713352027404 C5.550957923426379 141.52100291643728, 3.5998339359599933 148.91358640245426, 2.2278815461343173 163.89411287761413 M9.854679153886732 133.14939155514406 C8.614111870817364 143.0773867761855, 5.144654147671735 151.83682361479183, 1.5736644389128331 162.18013018935108" stroke="#000000" stroke-width="1" fill="none"></path></g></g><g><g transform="translate(531.258520380326 276.8118844689632) rotate(0 -0.6029874606931571 70.00120127600829)"><path d="M0.7364137955009937 1.030322628468275 C0.6749571673606889 24.064511893590993, -0.6691654868249808 115.1482166002229, -0.7337326191156762 138.03526002183975 M-0.33610769120045014 0.525638063075021 C-0.5670838394446863 23.76307239132382, -1.9802637439512676 116.27424685724117, -1.9423887168872762 139.4767644889415" stroke="#000000" stroke-width="1" fill="none"></path></g><g transform="translate(531.258520380326 276.8118844689632) rotate(0 -0.6029874606931571 70.00120127600829)"><path d="M-10.260123995191261 110.37753521865253 C-9.61660287359797 119.74217393507266, -6.382472517697826 124.53901179768434, -2.140155568521063 141.07306927440175 M-11.194326411059901 111.49271882353369 C-8.458495107939541 117.98350563826176, -5.780852626101264 125.34990663101, -1.892976460780542 138.65577901711174" stroke="#000000" stroke-width="1" fill="none"></path></g><g transform="translate(531.258520380326 276.8118844689632) rotate(0 -0.6029874606931571 70.00120127600829)"><path d="M10.260429017607343 110.54156702886452 C5.372171038114775 119.98791555813258, 3.074290084620082 124.74053308084274, -2.140155568521063 141.07306927440175 M9.326226601738703 111.65675063374569 C6.696679119662248 118.30755758519773, 4.0099423120239654 125.63107821088335, -1.892976460780542 138.65577901711174" stroke="#000000" stroke-width="1" fill="none"></path></g></g><g><g transform="translate(551.3228599757341 255.1892069410564) rotate(0 -0.6477803728046183 79.24922288655497)"><path d="M1.0500543884932994 -0.8246130399405955 C0.8233156271754901 25.47262784219877, -2.062306701153913 131.6131708700009, -2.3456151341025815 158.03579245892738 M0.14219421311281621 1.356861168751493 C0.37523317743196616 27.794696272542406, 0.08554773249251282 133.11453741661126, -0.10408735828782456 159.3230588130505" stroke="#000000" stroke-width="1" fill="none"></path></g><g transform="translate(551.3228599757341 255.1892069410564) rotate(0 -0.6477803728046183 79.24922288655497)"><path d="M-11.613611390080038 129.59352269668545 C-8.765565974364183 138.48389134626686, -7.098224541144322 143.91404671368403, 1.0384365376613007 158.09404017327736 M-10.252568996708575 130.47089313056733 C-7.342329028583297 135.97684665578439, -6.217552370617652 142.0380451725956, 0.2685896941057311 158.81705490237485" stroke="#000000" stroke-width="1" fill="none"></path></g><g transform="translate(551.3228599757341 255.1892069410564) rotate(0 -0.6477803728046183 79.24922288655497)"><path d="M8.907394395315055 129.68475833457316 C7.2836909783378925 138.7348147076206, 4.479475437653632 144.14508969699332, 1.0384365376613007 158.09404017327736 M10.268436788686518 130.56212876845504 C9.031855032033514 136.01369026719573, 6.010116720501826 142.05645353077375, 0.2685896941057311 158.81705490237485" stroke="#000000" stroke-width="1" fill="none"></path></g></g><g><g transform="translate(584.5416125275403 212.309060331667) rotate(0 -1.609528719434934 98.90116447077435)"><path d="M1.1954423971474168 -0.4000472970306873 C0.6101990699142673 32.57923539918016, -2.4350770029572346 165.09764808919786, -3.317840014028275 198.50427224659035 M0.3639109263103455 -1.6556760733108968 C-0.4210644950318624 31.375691884542892, -4.0594015909598715 166.19546061390582, -4.414499836017289 199.4580050148596" stroke="#000000" stroke-width="1" fill="none"></path></g><g transform="translate(584.5416125275403 212.309060331667) rotate(0 -1.609528719434934 98.90116447077435)"><path d="M-14.774428347345687 170.5953310087206 C-12.747605245888392 178.1686260524311, -7.124208539377656 190.67650891838733, -4.886173991461196 199.27484758203522 M-15.057692788761354 171.13747943303306 C-11.621637717702805 177.02145771716394, -9.19279587353648 183.68847655229408, -4.005751382534304 200.1546030920525" stroke="#000000" stroke-width="1" fill="none"></path></g><g transform="translate(584.5416125275403 212.309060331667) rotate(0 -1.609528719434934 98.90116447077435)"><path d="M5.7426531130101415 171.00687776786586 C1.2811530165267082 178.65446005397234, 0.418382262131777 191.03223858696254, -4.886173991461196 199.27484758203522 M5.459388671594474 171.54902619217833 C3.964133359408806 177.41494166305833, 1.4611200581366353 183.9830337085473, -4.005751382534304 200.1546030920525" stroke="#000000" stroke-width="1" fill="none"></path></g></g><g transform="translate(423 483) rotate(0 83.5 21)"><text x="0" y="15" font-family="Virgil, Segoe UI Emoji" font-size="16px" fill="#000000" text-anchor="start" style="white-space: pre;" direction="ltr">Dijkstra's algorithm </text><text x="0" y="36" font-family="Virgil, Segoe UI Emoji" font-size="16px" fill="#000000" text-anchor="start" style="white-space: pre;" direction="ltr">for example</text></g><g transform="translate(519.5000000000002 565.5) rotate(0 50 10.5)"><text x="0" y="15" font-family="Virgil, Segoe UI Emoji" font-size="16px" fill="#000000" text-anchor="start" style="white-space: pre;" direction="ltr">(code, data)</text></g><g transform="translate(355.0000000000002 659) rotate(0 140.00000000000006 56)"><path d="M-0.9666218407640975 0.36544447623174625 C99.78763805541062 1.8864937196610714, 202.26083492809445 0.3726100126014503, 278.53823970752745 -0.00587794743735343 M0.06950020845433695 0.07168229929992927 C110.12375613612735 -0.16590787214582042, 220.9032974912563 -0.48139451456670823, 279.3552879340932 -0.31791339273324226 M281.84623755142104 -0.26715536043047905 C279.5236117155851 39.02677455917002, 277.41461019828927 78.88691617920998, 279.53058553859603 112.89453356340532 M280.1828666571529 -0.8435925785452127 C280.2206532514841 33.991815802082435, 278.6384724534304 68.30849211178723, 280.0624839309604 112.16183138452475 M279.23928052776483 112.88735573200867 C203.03983281419542 113.35006594373853, 123.86053151317024 113.58636123394758, 0.39729914308805003 112.0108560032706 M280.5198527277079 112.47785918462945 C202.6736568686482 110.13022264001195, 124.30407162137055 110.43009238457684, 0.7493202688296695 111.30203667699112 M-1.400600302964449 111.6227756030858 C-0.15362354740500428 71.43007873669269, 0.9235397912561896 30.74915021136404, 1.7250547520816326 -1.882062267512083 M0.7370659951120615 112.91265005432074 C0.9980484694987537 85.05592764876786, 1.2780464739352466 56.99480422697963, 0.44931342639029026 0.8084052857011557" stroke="#000000" stroke-width="1" fill="none"></path></g><g transform="translate(377.0000000000002 668.5) rotate(0 126.5 60)"><text x="0" y="16" font-family="Cascadia, Segoe UI Emoji" font-size="16px" fill="#000000" text-anchor="start" style="white-space: pre;" direction="ltr">tx{</text><text x="0" y="36" font-family="Cascadia, Segoe UI Emoji" font-size="16px" fill="#000000" text-anchor="start" style="white-space: pre;" direction="ltr">code; </text><text x="0" y="56" font-family="Cascadia, Segoe UI Emoji" font-size="16px" fill="#000000" text-anchor="start" style="white-space: pre;" direction="ltr">data = data + intents.data;</text><text x="0" y="76" font-family="Cascadia, Segoe UI Emoji" font-size="16px" fill="#000000" text-anchor="start" style="white-space: pre;" direction="ltr">..</text><text x="0" y="96" font-family="Cascadia, Segoe UI Emoji" font-size="16px" fill="#000000" text-anchor="start" style="white-space: pre;" direction="ltr">}</text><text x="0" y="116" font-family="Cascadia, Segoe UI Emoji" font-size="16px" fill="#000000" text-anchor="start" style="white-space: pre;" direction="ltr"></text></g><g><g transform="translate(567.0000000000002 154) rotate(0 46.73076245466473 -14.85743114189242)"><path d="M-0.25019501298666 -0.36347187906503675 C2.398183088998 -7.537444310883681, 5.53884863605102 -34.770822514593604, 14.848925651609898 -44.1098711386323 C24.159002667168778 -53.448919762671, 42.69306471894185 -57.4396186247468, 55.61026708036661 -56.397763623297216 C68.52746944179137 -55.35590862184763, 88.20269818057616 -49.75612540791432, 92.35213982015848 -37.858741129934785 C96.5015814597408 -25.96135685195525, 90.90376790116231 3.880357005695501, 80.50691691786051 14.986542044579982 C70.1100659345587 26.092727083464464, 38.446355260908604 26.714799319207668, 29.97103392034769 28.778369103372096 M1.8193138758558782 -1.5998985609132796 C4.910069192570324 -8.573338771235818, 8.065625301025188 -33.684427546532824, 16.95656615507789 -43.15512823519297 C25.847507009130595 -52.62582892385311, 42.61456798068869 -59.41567084309645, 55.1649590001721 -58.42410269287415 C67.7153500196555 -57.43253454265185, 88.23606622459677 -49.41727248914229, 92.25891227197833 -37.20571933385916 C96.2817583193599 -24.994166178576023, 89.97300994567263 3.953087563343969, 79.30203528446145 14.845216238824651 C68.63106062325028 25.737344914305332, 36.34310350996442 25.729529492584987, 28.2330643047113 28.14705271902494" stroke="#000000" stroke-width="1" fill="none"></path></g><g transform="translate(567.0000000000002 154) rotate(0 46.73076245466473 -14.85743114189242)"><path d="M53.9928668806709 11.915813962947666 C47.00001021267509 17.8482034505299, 44.23181440441549 18.80311628060849, 26.80182908815332 28.991914248792455 M55.14447740785849 13.3075718349033 C48.72594820585336 17.979902793627563, 43.42745198886061 20.25873116454733, 29.142897151084618 28.6883800055366" stroke="#000000" stroke-width="1" fill="none"></path></g><g transform="translate(567.0000000000002 154) rotate(0 46.73076245466473 -14.85743114189242)"><path d="M57.024569428053496 32.211842689031826 C49.5655914079257 33.81036313796328, 46.150971677570865 30.437727903209527, 26.80182908815332 28.991914248792455 M58.17617995524108 33.60360056098746 C50.939947474935686 33.92088541315588, 44.98798241582082 31.825002814240666, 29.142897151084618 28.6883800055366" stroke="#000000" stroke-width="1" fill="none"></path></g></g><g transform="translate(678.0000000000002 129) rotate(0 70 13)"><text x="0" y="18" font-family="Virgil, Segoe UI Emoji" font-size="20px" fill="#000000" text-anchor="start" style="white-space: pre;" direction="ltr">check validity </text></g><g transform="translate(589.0000000000002 312) rotate(0 55 13)"><text x="0" y="18" font-family="Virgil, Segoe UI Emoji" font-size="20px" fill="#000000" text-anchor="start" style="white-space: pre;" direction="ltr">add/remove</text></g><g><g transform="translate(672.66435149014 698.2302909596041) rotate(0 33.53709000519024 0.35164121944501403)"><path d="M-0.6678242549300194 0.2553902730345725 C10.145243637760508 0.2475592406623301, 54.36803260544951 0.061502168592183715, 65.47951816171425 0.17270952733322253 M1.1824292818922548 -0.6561337789613755 C12.319967284820384 -0.5372735322203253, 57.095784631294045 0.8695417098646301, 67.74200426531043 1.359416217851408" stroke="#000000" stroke-width="1" fill="none"></path></g><g transform="translate(672.66435149014 698.2302909596041) rotate(0 33.53709000519024 0.35164121944501403)"><path d="M39.61614391356218 9.141833615929663 C48.055912548651975 6.945905475087938, 59.30145909271891 4.4297283407074595, 68.40629288298096 3.2352797922966556 M39.79686248823512 10.60815165329057 C49.88504312765283 6.628730367248899, 61.93738588987193 3.185898327966064, 68.32779955980386 2.2840767105398254" stroke="#000000" stroke-width="1" fill="none"></path></g><g transform="translate(672.66435149014 698.2302909596041) rotate(0 33.53709000519024 0.35164121944501403)"><path d="M40.37630374716123 -11.36529098536981 C48.58749047081435 -6.386057673189734, 59.56691070730678 -1.722842911427568, 68.40629288298096 3.2352797922966556 M40.55702232183417 -9.898972948008904 C50.30438976591738 -5.875379215956658, 62.059867230535815 -1.309561786251912, 68.32779955980386 2.2840767105398254" stroke="#000000" stroke-width="1" fill="none"></path></g></g></svg>