<svg version="1.1" xmlns="http://www.w3.org/2000/svg" viewBox="0 0 1304.8333333333326 2698.047619047619" width="1304.8333333333326" height="2698.047619047619">
  <!-- svg-source:excalidraw -->
  
  <defs>
    <style>
      @font-face {
        font-family: "Virgil";
        src: url("https://excalidraw.com/Virgil.woff2");
      }
      @font-face {
        font-family: "Cascadia";
        src: url("https://excalidraw.com/Cascadia.woff2");
      }
    </style>
  </defs>
  <rect x="0" y="0" width="1304.8333333333326" height="2698.047619047619" fill="#ffffff"></rect><g><g transform="translate(855.4449027389005 120.30952380952294) rotate(0 -4.038159720323847 200.2048982633974)"><path d="M1.2436225421726705 -1.0962667830288408 C-0.18356023426598522 66.19299534500725, -5.842362015234741 337.4884805958016, -8.225253358974829 404.5694905163995 M-1.5257922913134099 -4.159693989604712 C-3.1660223146850495 62.27257810305641, -8.291053054419471 332.6166614430689, -9.319941982820406 400.61492886654054" stroke="#000000" stroke-width="1" fill="none"></path></g><g transform="translate(855.4449027389005 120.30952380952294) rotate(0 -4.038159720323847 200.2048982633974)"><path d="M-20.653924390564573 375.2583993991515 C-13.091417996536176 377.12564442151654, -14.58561960471522 390.5612785500762, -10.308479584947005 402.9163366135112 M-20.13938203070582 372.73265214093533 C-16.55356442418254 382.03594606802324, -11.601461540546488 394.73684936536205, -10.219815630659237 398.81407403833185" stroke="#000000" stroke-width="1" fill="none"></path></g><g transform="translate(855.4449027389005 120.30952380952294) rotate(0 -4.038159720323847 200.2048982633974)"><path d="M-0.1358306436961172 375.61593454505595 C1.0215500735978273 377.5538676639272, -6.875647533431605 390.87792728966417, -10.308479584947005 402.9163366135112 M0.3787117161626341 373.0901872868398 C-3.864455143132848 382.54520846922424, -6.736595953123885 395.1097715126825, -10.219815630659237 398.81407403833185" stroke="#000000" stroke-width="1" fill="none"></path></g></g><g transform="translate(753.3452380952435 14.309523809522943) rotate(0 82 52)"><path d="M-0.7988155409693718 0.37502186745405197 C51.0810395307839 -5.218235109001398, 104.79897596240045 -2.0691469646990295, 165.63183826953173 2.4651085659861565 M-0.21313372626900673 -0.17810073122382164 C53.24751683771611 0.8006927561759944, 107.22632154598834 3.5384865593910213, 162.5751690529287 1.985353920608759 M166.43675274401903 0.4917065426707268 C162.18727958381177 25.24700526893139, 164.50830328643323 49.48148337751627, 163.2765328362584 101.51653902977705 M162.70281740650535 -0.30097058042883873 C163.9260143120587 33.91543818041683, 163.00879813030363 68.39744523838164, 162.71007999405265 102.27139291539788 M167.09334916621447 103.05760233849287 C125.38164418563247 101.79266485884786, 89.14718072116375 102.35943183615804, 3.8376168683171272 101.60385053604841 M162.18773445114493 104.12969121709466 C117.30091544538735 102.30405679494143, 71.89001425579188 103.74597504884005, 0.7736980579793453 103.17895672097802 M-3.835618071258068 106.88008230179548 C-0.5319562590122224 76.441262114048, -1.497507873773575 48.11589865237474, 1.1913110688328743 1.7766036316752434 M-1.9445398189127445 103.11840126290917 C-1.217181733697653 76.37757925018668, -0.4138397489488126 51.37037311270833, 1.3259597681462765 1.4039681889116764" stroke="#000000" stroke-width="1" fill="none"></path></g><g transform="translate(677.3333333333387 532.0000000000001) rotate(0 141.42857142857133 118)"><path d="M-1.7606220988962298 0.8779281801375985 C69.85184761217455 4.606444865271829, 139.43796147900923 2.250801655261912, 281.25352842430976 -2.312515846027752 M-0.3161307769152619 -1.2621507623160562 C97.65672964240558 -2.059187943920252, 195.3732519640865 0.24322293686061625, 283.8937290501606 0.6281197404827404 M282.8746208769015 -3.0074618192406977 C282.2959894152893 84.46241553661463, 279.76472743236127 164.5336979122606, 282.0479598379808 237.8541588401985 M282.5964839707991 0.4735133131264134 C280.05478774075374 81.90906707876668, 281.5307779163478 166.00651740909657, 282.8091256668685 236.4772002783432 M282.2562707504258 237.13015496065668 C202.2968836484313 233.58516986637528, 128.57152771182675 235.60595307219353, -1.7074632444297233 236.93853041858296 M282.2811753487152 235.54903041527916 C196.40265959173811 237.06372581512036, 111.96768587404917 236.1801111458764, 0.12094406550753016 235.13682382827125 M-1.3287732559905199 234.8342720816033 C-3.275652828514172 185.60134236516353, -0.3831689872661368 135.8417336577722, -3.064191866133132 -3.1090805124426213 M0.7705424582771137 237.01882749455714 C4.691200856455886 160.15640414919017, 3.024772383780324 87.48426859107146, -0.5890473185874625 0.73424286459264" stroke="#000000" stroke-width="1" fill="none"></path></g><g transform="translate(777.3452380952435 63.30952380952294) rotate(0 49.5 13)"><text x="0" y="18" font-family="Virgil, Segoe UI Emoji" font-size="20px" fill="#000000" text-anchor="start" style="white-space: pre;" direction="ltr">account B</text></g><g transform="translate(563.1666666666665 826.3333333333335) rotate(0 63.5 13)"><text x="0" y="18" font-family="Virgil, Segoe UI Emoji" font-size="20px" fill="#000000" text-anchor="start" style="white-space: pre;" direction="ltr">fetch intents</text></g><g><g transform="translate(500.4785354189287 120.86908421917451) rotate(0 -3.19693492194034 189.22444458360437)"><path d="M0.18991366401314735 -0.677524421364069 C-0.7879183112670111 62.43378368087929, -4.74516570224818 315.89932103198373, -5.645532620155291 379.1264135885728 M-1.169520391719416 1.5811713120806963 C-2.3231189092554527 64.29571818081546, -5.8219138969892645 314.21721268506144, -6.583783507893831 377.29781156147135" stroke="#000000" stroke-width="1" fill="none"></path></g><g transform="translate(500.4785354189287 120.86908421917451) rotate(0 -3.19693492194034 189.22444458360437)"><path d="M-17.59902713314281 349.00459986347727 C-12.28007819841499 358.7310436359809, -9.867458939513462 365.77958689138524, -7.295026299159081 376.8970343966247 M-17.370113622924546 348.8886516092347 C-14.455736801602633 354.5207994398556, -12.01336324505213 360.8616956110953, -6.577574464107902 377.0145641520829" stroke="#000000" stroke-width="1" fill="none"></path></g><g transform="translate(500.4785354189287 120.86908421917451) rotate(0 -3.19693492194034 189.22444458360437)"><path d="M2.9203786705849177 349.2766069365175 C1.7037821031673648 358.94890301015835, -2.41810469910415 365.9108242705368, -7.295026299159081 376.8970343966247 M3.1492921808031804 349.16065868227497 C1.8720965636962021 354.90093152274875, 0.12289344416993941 361.18626377980945, -6.577574464107902 377.0145641520829" stroke="#000000" stroke-width="1" fill="none"></path></g></g><g transform="translate(468.00000000000546 53.33333333333326) rotate(0 49 25.5)"><text x="0" y="18.5" font-family="Virgil, Segoe UI Emoji" font-size="20px" fill="#000000" text-anchor="start" style="white-space: pre;" direction="ltr">account A</text><text x="0" y="44" font-family="Virgil, Segoe UI Emoji" font-size="20px" fill="#000000" text-anchor="start" style="white-space: pre;" direction="ltr"></text></g><g transform="translate(392.66666666667226 601.3333333333335) rotate(0 107.99999999999997 60)"><text x="0" y="16" font-family="Cascadia, Segoe UI Emoji" font-size="16px" fill="#000000" text-anchor="start" style="white-space: pre;" direction="ltr">- 40 &lt; X &lt; 100 USD</text><text x="0" y="36" font-family="Cascadia, Segoe UI Emoji" font-size="16px" fill="#000000" text-anchor="start" style="white-space: pre;" direction="ltr">- USD to EUR</text><text x="0" y="56" font-family="Cascadia, Segoe UI Emoji" font-size="16px" fill="#000000" text-anchor="start" style="white-space: pre;" direction="ltr">  - rate &gt;= 1.5 EUR/USD</text><text x="0" y="76" font-family="Cascadia, Segoe UI Emoji" font-size="16px" fill="#000000" text-anchor="start" style="white-space: pre;" direction="ltr">- USD to CZK</text><text x="0" y="96" font-family="Cascadia, Segoe UI Emoji" font-size="16px" fill="#000000" text-anchor="start" style="white-space: pre;" direction="ltr">  - rate &gt;= 10 USD/CZK</text><text x="0" y="116" font-family="Cascadia, Segoe UI Emoji" font-size="16px" fill="#000000" text-anchor="start" style="white-space: pre;" direction="ltr">- in less than 10 mn</text></g><g transform="translate(367.14285714286245 564.2380952380954) rotate(0 47 12.5)"><text x="0" y="20" font-family="Cascadia, Segoe UI Emoji" font-size="20px" fill="#000000" text-anchor="start" style="white-space: pre;" direction="ltr">- DATA: </text></g><g transform="translate(349.8095238095291 523.6666666666667) rotate(0 142.19047619047626 122.95238095238093)"><path d="M1.954201574904988 -1.5505768469941767 C80.93912172333985 -1.149238584364252, 165.2615420517713 -2.614015744446973, 285.17420394968536 2.7000464163541964 M0.5196809247595467 0.3637743823783066 C113.63624047248406 -1.8841737429468723, 223.65224711168 -0.4424020596916842, 284.72050452537565 1.1897115620197096 M285.72232613563284 -0.8497145688538539 C282.1714491608753 60.98768302736106, 286.76248850363197 117.86737706181667, 282.62235589631086 245.53244102389792 M283.2801275594743 1.6020748828190627 C284.6187494235423 66.49582169387988, 285.19675294421637 130.6608769451709, 283.4742720491543 244.78750864435906 M282.6261997772894 246.77976328120232 C214.83638764174196 243.52870829863306, 145.02697505028158 241.18091824268765, -1.5982683638069533 243.59995543642694 M284.0658755088413 244.64681885282698 C185.71348528125492 245.88433572462404, 87.1056115262644 248.1790709152623, 1.0331304612499392 246.5307876434569 M0.017134496302841817 242.9564105392392 C1.3084822858270286 164.21454718260333, -1.1730287598379083 78.21950525748382, -0.7932788520340456 1.8177160931590228 M-0.2555357406600401 246.36896850396715 C2.3005971216558248 158.83064347579642, 3.7475773033725055 73.90189650483413, -0.04707343169163913 0.4678210986020661" stroke="#000000" stroke-width="1" fill="none"></path></g><g transform="translate(724.9047619047674 629.5238095238096) rotate(0 108 40)"><text x="0" y="16" font-family="Cascadia, Segoe UI Emoji" font-size="16px" fill="#000000" text-anchor="start" style="white-space: pre;" direction="ltr">- 80 EUR</text><text x="0" y="36" font-family="Cascadia, Segoe UI Emoji" font-size="16px" fill="#000000" text-anchor="start" style="white-space: pre;" direction="ltr">- EUR to USD</text><text x="0" y="56" font-family="Cascadia, Segoe UI Emoji" font-size="16px" fill="#000000" text-anchor="start" style="white-space: pre;" direction="ltr">  - rate &gt;= 0.5 USD/EUR</text><text x="0" y="76" font-family="Cascadia, Segoe UI Emoji" font-size="16px" fill="#000000" text-anchor="start" style="white-space: pre;" direction="ltr">- in less than 10 mn</text></g><g transform="translate(693.8333333333387 730.3095238095241) rotate(0 82 12.5)"><text x="0" y="20" font-family="Cascadia, Segoe UI Emoji" font-size="20px" fill="#000000" text-anchor="start" style="white-space: pre;" direction="ltr">- timestamp T'</text></g><g transform="translate(368.5833333333387 735.6428571428564) rotate(0 76 12.5)"><text x="0" y="20" font-family="Cascadia, Segoe UI Emoji" font-size="20px" fill="#000000" text-anchor="start" style="white-space: pre;" direction="ltr">- timestamp T</text></g><g transform="translate(380.3333333333387 598.9523809523811) rotate(0 123.64285714285711 64.73809523809524)"><path d="M1.517021315303088 0.5348156810792846 C67.51070915313481 -1.502580591630389, 136.40596307349392 1.1219591585459863, 247.29551514447405 0.11014645239524075 M-0.17618928815455137 0.7232111487928633 C59.42510365772202 0.7900932683980011, 120.7944142620768 1.9183533491994882, 247.79144630439205 0.8001533689735518 M247.45942433018763 1.157556775957346 C246.42295408735046 43.13118312077685, 247.6896454144455 85.70320195216863, 247.24594850678523 129.94227579466644 M248.26225467425365 0.5810951869934797 C246.80449200382094 27.942727100272624, 246.66089529504637 56.89929729175001, 246.3099191377737 128.86860423951987 M248.08008322947347 129.65750165077665 C191.2905109685858 129.14591573456613, 136.6284589650581 129.87730975262232, 0.2728928885151667 130.91174227751776 M247.18068580416332 129.4769079326144 C178.88663621432937 127.44477536393481, 110.61935201296805 127.7730934914744, 0.3108114404103513 130.0954385242594 M-0.47824961319565773 127.88911190859619 C-2.16114770445884 91.46216726818432, 1.0768952461713481 53.40827331746972, -1.8636080659925938 1.7750464715063572 M0.506104888394475 129.6652581658924 C0.1360415448647525 94.77939436745254, -1.1817685733336423 60.66168662064841, -0.48840212635695934 0.34095862321555614" stroke="#000000" stroke-width="1" fill="none"></path></g><g transform="translate(719.1904761904816 620.9523809523811) rotate(0 118.64285714285722 52.738095238095184)"><path d="M-1.6373457007188326 0.8553884869123877 C67.18338111428422 0.2863499259795282, 137.5651593923649 -0.5054819436494186, 237.66311128637017 -0.3616528929984487 M-0.16289828592121872 0.573285325419776 C65.16912528431429 1.0776684080666126, 131.76683865869387 1.5518085440920888, 237.5124594804392 -0.1438089873534038 M236.10310645241844 -1.6627210341393948 C236.27809673950895 36.00425445106586, 238.16705292866453 74.78951988378088, 236.83064396519768 106.7767488085442 M236.52365698319483 0.7319500725716352 C238.10319993183305 27.132501550151805, 238.78253451273133 54.986206637961466, 237.78425594073343 104.58041989475123 M238.44297413649892 104.6686415186626 C161.1521550244922 104.6630198593231, 82.75406647559109 105.44494376426255, -1.3996383446908072 105.83611790620694 M236.65116853557623 106.24311297974475 C153.37651929192026 105.93442403324521, 69.84951128520694 104.68245573446276, 0.5557506071063114 104.9197369621014 M0.3158307634294033 106.9429719769173 C-0.9184348695201888 71.17538731691553, -1.6911836974544538 40.417938307548525, 1.722315724939108 1.9023585356771946 M0.5547958631068468 106.0272985067927 C0.02014968200542433 70.8407134925059, -0.4453102012076189 35.03440611188607, 0.9864801783114672 0.3846872728317976" stroke="#000000" stroke-width="1" fill="none"></path></g><g transform="translate(169.95833333333871 2091.6726190476193) rotate(0 205 112.5)"><text x="0" y="20" font-family="Cascadia, Segoe UI Emoji" font-size="20px" fill="#000000" text-anchor="start" style="white-space: pre;" direction="ltr">if someone takes between</text><text x="0" y="45" font-family="Cascadia, Segoe UI Emoji" font-size="20px" fill="#000000" text-anchor="start" style="white-space: pre;" direction="ltr">tx.DATA.A.low to tx.DATA.A.high </text><text x="0" y="70" font-family="Cascadia, Segoe UI Emoji" font-size="20px" fill="#000000" text-anchor="start" style="white-space: pre;" direction="ltr">tx.DATA.A.output_asset </text><text x="0" y="95" font-family="Cascadia, Segoe UI Emoji" font-size="20px" fill="#000000" text-anchor="start" style="white-space: pre;" direction="ltr">from my account,</text><text x="0" y="120" font-family="Cascadia, Segoe UI Emoji" font-size="20px" fill="#000000" text-anchor="start" style="white-space: pre;" direction="ltr">it has to credit</text><text x="0" y="145" font-family="Cascadia, Segoe UI Emoji" font-size="20px" fill="#000000" text-anchor="start" style="white-space: pre;" direction="ltr">at least tx.DATA.A.min_rate </text><text x="0" y="170" font-family="Cascadia, Segoe UI Emoji" font-size="20px" fill="#000000" text-anchor="start" style="white-space: pre;" direction="ltr">the amount in tx.DATA.A.input_asset</text><text x="0" y="195" font-family="Cascadia, Segoe UI Emoji" font-size="20px" fill="#000000" text-anchor="start" style="white-space: pre;" direction="ltr"> and to be before</text><text x="0" y="220" font-family="Cascadia, Segoe UI Emoji" font-size="20px" fill="#000000" text-anchor="start" style="white-space: pre;" direction="ltr"> (tx.DATA.A.timestamp + 10mn)</text></g><g><g transform="translate(815.3544502692066 788.0000000000001) rotate(0 -27.087623356496124 44.56460145176672)"><path d="M-1.8816484101116657 -2.6504045002162453 C-11.219768274696284 12.652139161729895, -45.07084076936847 75.74452361118836, -54.18854259399541 91.77960740374972 M2.2923610965907573 2.082493532449007 C-7.59212750680408 16.472979419533495, -47.569055638072946 72.49459637733341, -56.46760780958302 87.02258577393938" stroke="#000000" stroke-width="1" fill="none"></path></g><g transform="translate(815.3544502692066 788.0000000000001) rotate(0 -27.087623356496124 44.56460145176672)"><path d="M-53.09999524372256 57.779999119338925 C-51.269962093896694 64.91135544502211, -51.342734004521674 79.67201244295666, -58.04290260968573 85.96729001599003 M-48.35226315947807 59.555437685099776 C-53.09527725558397 69.02893815790448, -55.939966226206586 79.82955390609126, -56.07162557018764 85.48126362832834" stroke="#000000" stroke-width="1" fill="none"></path></g><g transform="translate(815.3544502692066 788.0000000000001) rotate(0 -27.087623356496124 44.56460145176672)"><path d="M-36.046367180350096 69.19462886637824 C-40.45028996590549 71.92221337828795, -46.75992483828087 82.5083052205353, -58.04290260968573 85.96729001599003 M-31.298635096105606 70.97006743213909 C-42.858195837733824 75.76597772404207, -52.44694156489854 82.05254457994151, -56.07162557018764 85.48126362832834" stroke="#000000" stroke-width="1" fill="none"></path></g></g><g transform="translate(428.857142857148 1203.9523809523812) rotate(0 140.5 137.5)"><text x="0" y="20" font-family="Cascadia, Segoe UI Emoji" font-size="20px" fill="#000000" text-anchor="start" style="white-space: pre;" direction="ltr">- STATE FUNCTION : </text><text x="0" y="45" font-family="Cascadia, Segoe UI Emoji" font-size="20px" fill="#000000" text-anchor="start" style="white-space: pre;" direction="ltr">  - 1/ src: A</text><text x="0" y="70" font-family="Cascadia, Segoe UI Emoji" font-size="20px" fill="#000000" text-anchor="start" style="white-space: pre;" direction="ltr">       dest: B</text><text x="0" y="95" font-family="Cascadia, Segoe UI Emoji" font-size="20px" fill="#000000" text-anchor="start" style="white-space: pre;" direction="ltr">       amount: 46.66 USD</text><text x="0" y="120" font-family="Cascadia, Segoe UI Emoji" font-size="20px" fill="#000000" text-anchor="start" style="white-space: pre;" direction="ltr">  - 2/ src: B</text><text x="0" y="145" font-family="Cascadia, Segoe UI Emoji" font-size="20px" fill="#000000" text-anchor="start" style="white-space: pre;" direction="ltr">       dest: A</text><text x="0" y="170" font-family="Cascadia, Segoe UI Emoji" font-size="20px" fill="#000000" text-anchor="start" style="white-space: pre;" direction="ltr">       amount: 80 EUR</text><text x="0" y="195" font-family="Cascadia, Segoe UI Emoji" font-size="20px" fill="#000000" text-anchor="start" style="white-space: pre;" direction="ltr"></text><text x="0" y="220" font-family="Cascadia, Segoe UI Emoji" font-size="20px" fill="#000000" text-anchor="start" style="white-space: pre;" direction="ltr">- DATA</text><text x="0" y="245" font-family="Cascadia, Segoe UI Emoji" font-size="20px" fill="#000000" text-anchor="start" style="white-space: pre;" direction="ltr">  - 1/ intent A</text><text x="0" y="270" font-family="Cascadia, Segoe UI Emoji" font-size="20px" fill="#000000" text-anchor="start" style="white-space: pre;" direction="ltr">  - 2/ intent B</text></g><g transform="translate(153.41666666667209 2002.8809523809525) rotate(0 223.54166666666669 188.95833333333326)"><path d="M0.8137818160367866 0.8220859117396806 C136.5790314961232 -3.462102171277657, 275.1767757524692 -1.670965011990324, 445.509893224706 -1.548767550950076 M0.8773555274222956 0.1926842016445826 C95.94293269860209 -4.142752226916799, 193.00620194557422 -4.512694934515903, 446.9463825366812 0.5553068040059636 M448.7495611701196 1.5057295080679474 C453.2255291023648 140.49284667315877, 453.4543824384982 283.60193450168265, 446.27389853142495 378.50306374557516 M446.2352938830479 0.4700952713309323 C446.0746934646839 85.55603812973848, 445.6605132905909 170.71849758712406, 447.711174669668 378.15417287590185 M447.5451944971072 378.29234719470037 C325.75481152173137 373.24405044260027, 205.72841167412878 373.9717782776917, 1.7512151061064856 377.4677055328605 M447.7445211417383 377.86183418005044 C281.425054932295 378.816135528259, 113.19664754046532 380.03562371084615, -0.2363022144877444 378.122835128752 M-0.459443323924821 377.11169749163827 C0.6153625470852266 271.9972464832586, 1.5543256468217983 164.79699824158354, 1.938910007877667 -0.1184497371602245 M-0.33690095566333284 378.813855841933 C1.4253984795905217 296.71528165981056, 1.3415694738058312 216.98861615979612, 0.230195308537772 -0.8710215732113926" stroke="#000000" stroke-width="1" fill="none"></path></g><g><g transform="translate(560.3731703843307 1923.6654351395732) rotate(0 -26.8030076904559 39.17409572558665)"><path d="M0.3751780994236471 -0.17796272113919276 C-8.598697151739206 12.330048852619424, -43.31574099957349 64.73417853343932, -51.72227794303778 77.36297435809311 M-2.8656780029833318 -2.74288200840354 C-12.407969153422918 10.054588911490534, -45.96008717486663 67.65995095887232, -53.98119348033551 81.09107345957693" stroke="#000000" stroke-width="1" fill="none"></path></g><g transform="translate(560.3731703843307 1923.6654351395732) rotate(0 -26.8030076904559 39.17409572558665)"><path d="M-48.723813675738995 51.546699939826 C-49.793042673051296 65.01097421539347, -54.389971679120805 74.15694277086565, -50.73342966034297 77.8984283195847 M-47.18698394710583 51.85453079135107 C-50.7656122324759 59.392313788355814, -53.452512062629474 69.73414704900547, -52.83823761462454 80.71366719399032" stroke="#000000" stroke-width="1" fill="none"></path></g><g transform="translate(560.3731703843307 1923.6654351395732) rotate(0 -26.8030076904559 39.17409572558665)"><path d="M-31.057893196406603 61.98869476858088 C-38.937733885759584 71.57674124935834, -50.172615832747326 76.79914010668332, -50.73342966034297 77.8984283195847 M-29.521063467773438 62.296525620105946 C-38.24158637693649 66.76384089224918, -46.15161320546076 74.01838157900077, -52.83823761462454 80.71366719399032" stroke="#000000" stroke-width="1" fill="none"></path></g></g><g transform="translate(539.0000000000055 1878.8809523809525) rotate(0 48 13)"><text x="0" y="18" font-family="Virgil, Segoe UI Emoji" font-size="20px" fill="#000000" text-anchor="start" style="white-space: pre;" direction="ltr">check VPs</text></g><g transform="translate(631.5000000000055 1994.1309523809525) rotate(0 221.2499999999999 191.45833333333326)"><path d="M-0.4800008620051669 0.4187901485977696 C105.13119386063607 -3.511620421140565, 209.46696851205692 -3.1495849230877293, 441.83863322506255 -0.8917929995777089 M0.796509169906285 -0.048659453733172285 C163.02546694249125 -4.289111286094695, 327.32393319276406 -4.121018095189243, 443.237135196927 -0.5102091321154499 M442.95403206166407 -1.7179834078775913 C437.83397288639287 108.49287524062471, 441.97636163927785 214.170510853822, 441.99301463782393 385.0260770701775 M443.617412683089 -0.19401460489352243 C440.4736609766414 137.00748510032557, 441.11433776945984 271.3974036687477, 443.24560644478424 383.1328828510697 M440.78982559927414 383.5749692328072 C342.22829449885717 386.0308314811355, 242.42692873981755 387.1631807140058, 1.3554999821336946 383.8549042422092 M442.81100698500853 383.46784001792906 C318.4652151495194 383.54373318358404, 192.8420874252631 384.7806483126227, -0.7944714528829794 382.17296455238403 M-0.46105095272031815 383.8360279041968 C0.05028677191923536 236.3230436310004, -0.6803652363270675 88.01386425145407, -2.233277808391844 -1.0811368826530245 M-0.9457976004729405 383.51041423737337 C0.12950680185354813 277.9512333197489, 2.0065749336727374 176.13385431452178, -0.42115281005687843 1.1362197444298103" stroke="#000000" stroke-width="1" fill="none"></path></g><g><g transform="translate(579.526514322352 1031.2060215461856) rotate(0 0.5156856755237413 58.11818112018301)"><path d="M-1.651592420786619 -2.417743790894747 C-1.2503134784324932 16.989423213957387, 1.008243426072613 95.80845642864028, 0.4645804026878064 115.78866191615843 M2.6473046229779724 2.4414557696878916 C3.0946863529857036 22.262952268380563, 0.05123513409298219 98.94119427988251, -0.3134307128035836 118.65410603126072" stroke="#000000" stroke-width="1" fill="none"></path></g><g transform="translate(579.526514322352 1031.2060215461856) rotate(0 0.5156856755237413 58.11818112018301)"><path d="M-13.193699924681313 94.01561689208243 C-9.709372908256272 93.01147991209058, -5.143010462130092 105.27155906731659, -0.6581229951822571 120.01294333030962 M-8.25160927552355 89.6733423864374 C-6.388952765066064 99.57507217805717, -2.704147587001702 108.54486262991021, 1.4817884366369434 119.67766867493772" stroke="#000000" stroke-width="1" fill="none"></path></g><g transform="translate(579.526514322352 1031.2060215461856) rotate(0 0.5156856755237413 58.11818112018301)"><path d="M7.318616482252397 94.61966822076054 C6.07554838318946 93.2342490849575, 5.911692463723109 105.35503170087563, -0.6581229951822571 120.01294333030962 M12.26070713141016 90.27739371511551 C7.7387586448393915 100.17535776687059, 5.046662904496798 108.95735979950295, 1.4817884366369434 119.67766867493772" stroke="#000000" stroke-width="1" fill="none"></path></g></g><g transform="translate(409.3333333333387 1153.9523809523812) rotate(0 235.59523809523807 176.00000000000006)"><path d="M-0.7086318349107036 -0.6216801174285369 C99.63705001831447 1.3056015207897356, 200.62237622822474 1.3307732210208791, 469.5563494537834 -1.658065752365687 M0.4109285866673184 0.5433384466993276 C149.787305322582 3.0331426070707326, 297.9898114076723 4.100560031618813, 470.8763385598924 0.391570093739218 M469.00415389077614 -2.3414856198934517 C473.09750419470373 89.28055516836524, 474.5106307352785 182.48800289393165, 472.5980181766605 353.76054630503006 M471.2915793644739 -0.3394671552147164 C469.45598970073564 130.40000237354096, 469.33803712869275 263.4821906552004, 471.71134549360886 351.694497919829 M472.92036030484167 353.08011196752295 C284.97759125900785 354.565582348969, 97.84879230730328 354.7883537490031, 1.3053364746423066 350.9357011730661 M470.99339248221247 351.31739497510955 C325.62634231608826 352.0142401150704, 180.24238007907826 352.5239129236037, 0.2908267920189436 351.6306718321409 M0.33312439401545213 349.50503471989646 C-0.764237292424077 218.1434085775543, -1.5722601138305365 84.41263834224647, -1.4129082747937705 -2.1485037701155623 M-0.48190897444538905 352.5874049466175 C-2.3785744936928177 214.5102329832657, -1.69971167307519 78.67427173639184, 1.1007349170461667 -0.5163280644748462" stroke="#000000" stroke-width="1" fill="none"></path></g><g><g transform="translate(511.22093605596297 789.4662778982079) rotate(0 4.9435735657742725 40.14213940845872)"><path d="M0.2295691363513468 -0.8682191841304301 C2.0525157992022365 12.87516547009993, 11.30701465108848 67.26266692010802, 12.977478963272052 80.79716917891194 M-3.090331831723452 -3.807849122732878 C-1.7714318251632526 10.512723056928795, 7.891208277333343 69.64653271921715, 11.060712684528308 84.09212793965031" stroke="#000000" stroke-width="1" fill="none"></path></g><g transform="translate(511.22093605596297 789.4662778982079) rotate(0 4.9435735657742725 40.14213940845872)"><path d="M-5.413602828149582 59.093255107695214 C0.3197602756347093 64.81126753190351, 5.3449363586219345 73.57520304961737, 8.795633357600646 82.44793781448294 M-2.7566479026422748 56.96446427091395 C0.9359412314052342 64.66674531515841, 7.645416919000814 75.14729388615669, 12.338250242756086 84.1076011526971" stroke="#000000" stroke-width="1" fill="none"></path></g><g transform="translate(511.22093605596297 789.4662778982079) rotate(0 4.9435735657742725 40.14213940845872)"><path d="M14.762839285375215 55.347432631199226 C12.928917945558094 62.4951597472151, 10.431308317072904 72.65572503966051, 8.795633357600646 82.44793781448294 M17.41979421088252 53.21864179441796 C14.373605579026307 62.48958923802496, 14.37518699846025 74.21548032175474, 12.338250242756086 84.1076011526971" stroke="#000000" stroke-width="1" fill="none"></path></g></g><g transform="translate(389.33333333333906 884.0952380952381) rotate(0 260.64285714285717 69.26190476190479)"><path d="M0.43627946078777313 0.44585168659687047 C178.57003413122152 0.4216235278653251, 361.430128523335 1.1118860362576592, 520.6508445880244 0.6048228055238725 M-0.1534244164824486 0.4499919757246971 C110.78948360806598 3.910908548246538, 221.51582821708706 3.2991307181226364, 521.2202577895353 0.34947293847799304 M521.5646155572364 -1.1567223593592644 C527.4360941013038 48.37701583047886, 527.5162659248053 106.43975334893027, 524.6276407933661 136.65826038413107 M519.4228457121977 1.4710877798497677 C520.1421481922287 26.585153855800282, 520.7965412691253 54.766446341662906, 519.5587544350752 140.44485932357966 M522.0262637278864 138.38593261085808 C391.64114718838994 139.09657264858416, 261.92983130807323 139.6401737800234, 1.1905367583036424 138.12366959892572 M521.584807283325 139.24189718358576 C363.82096107519635 140.3727152453271, 205.6308834827904 139.59642630680474, -0.14982567876577377 138.28846982114374 M-3.025136299431324 136.1694996743685 C1.1341632858291266 97.37527578035815, -2.624333713911474 54.842961371211075, 2.2250074669718742 3.335438199341297 M-0.10192873701453209 138.32174509533107 C-2.816990621205242 108.37361328063446, 0.5798569845000192 74.65359654772496, 0.2847810722887516 -1.3328595496714115" stroke="#000000" stroke-width="1" fill="none"></path></g><g transform="translate(522.3333333333386 887.4285714285716) rotate(0 100.5 23)"><text x="0" y="32" font-family="Virgil, Segoe UI Emoji" font-size="36px" fill="#000000" text-anchor="start" style="white-space: pre;" direction="ltr">matchmaker</text></g><g transform="translate(371.3333333333387 527.9285714285716) rotate(0 108.5 26)"><text x="0" y="18" font-family="Virgil, Segoe UI Emoji" font-size="20px" fill="#000000" text-anchor="start" style="white-space: pre;" direction="ltr">intent from account A</text><text x="0" y="44" font-family="Virgil, Segoe UI Emoji" font-size="20px" fill="#000000" text-anchor="start" style="white-space: pre;" direction="ltr"></text></g><g transform="translate(710.3333333333387 548.6666666666667) rotate(0 109 13)"><text x="0" y="18" font-family="Virgil, Segoe UI Emoji" font-size="20px" fill="#000000" text-anchor="start" style="white-space: pre;" direction="ltr">intent from account B</text></g><g transform="translate(698.0476190476244 583.6666666666667) rotate(0 41 12.5)"><text x="0" y="20" font-family="Cascadia, Segoe UI Emoji" font-size="20px" fill="#000000" text-anchor="start" style="white-space: pre;" direction="ltr">- DATA:</text></g><g><g transform="translate(572.73187367355 1507.9868637110021) rotate(0 1.6217411955393572 181.19799638413173)"><path d="M-1.179450763016939 1.9322184093296526 C-0.5701278744407052 61.54428916233372, 4.024312017228427 299.43329841482597, 4.422933154095676 359.72777909011194 M3.375751752108336 0.5128260214626792 C3.733988291197265 60.17572067278218, 4.093961706425968 302.16011233595964, 3.332978427399662 361.8831667468006" stroke="#000000" stroke-width="1" fill="none"></path></g><g transform="translate(572.73187367355 1507.9868637110021) rotate(0 1.6217411955393572 181.19799638413173)"><path d="M-4.042320607206533 336.66840296404 C-6.948572638451573 341.41138605354024, 2.043071610607038 351.44197365382064, 2.568570010353592 359.12446751595087 M-6.3499989080938795 334.7291408309483 C-0.5800236598549278 342.8946169080438, 2.539517902213757 356.06206333629876, 1.9151617623760968 362.4549293942804" stroke="#000000" stroke-width="1" fill="none"></path></g><g transform="translate(572.73187367355 1507.9868637110021) rotate(0 1.6217411955393572 181.19799638413173)"><path d="M16.478686604120877 336.7593173110298 C6.852671729078729 341.29965343761114, 9.125887857331332 351.300476343639, 2.568570010353592 359.12446751595087 M14.171008303233531 334.8200551779381 C12.331612673341837 342.96626508911726, 7.843284440715481 356.10000632409174, 1.9151617623760968 362.4549293942804" stroke="#000000" stroke-width="1" fill="none"></path></g></g><g transform="translate(597.6666666666721 1651.0476190476193) rotate(0 132.5 13)"><text x="0" y="18" font-family="Virgil, Segoe UI Emoji" font-size="20px" fill="#000000" text-anchor="start" style="white-space: pre;" direction="ltr">send transaction to ledger</text></g><g transform="translate(204.00000000000546 2030.1309523809525) rotate(0 25.5 13)"><text x="0" y="18" font-family="Virgil, Segoe UI Emoji" font-size="20px" fill="#000000" text-anchor="start" style="white-space: pre;" direction="ltr">A VP:</text></g><g transform="translate(650.2500000000055 2023.8809523809525) rotate(0 26 13)"><text x="0" y="18" font-family="Virgil, Segoe UI Emoji" font-size="20px" fill="#000000" text-anchor="start" style="white-space: pre;" direction="ltr">B VP:</text></g><g transform="translate(491.50000000000546 1872.464285714286) rotate(0 92.5 24.58333333333337)"><path d="M1.6919681504368782 0.994589738547802 C43.99821584951133 -2.461622380279005, 86.70504490844907 -3.0762061109766368, 184.81988758593798 1.7936608120799065 M-1.2187794782221317 0.29580673947930336 C44.217023485340185 -0.6446855323389169, 92.38973059318961 0.39681920837610996, 185.20526548847556 0.3703942038118839 M188.23417706042528 -3.0391162112355232 C187.48195652126645 11.253936772079538, 185.22290209888791 25.463669137718817, 185.33372277766466 46.298867317537535 M184.65322634205222 0.8887572027742863 C186.61374901797 17.109549362678102, 187.31469689871494 31.87718981970106, 186.51498111709952 50.82017017776774 M185.25991410762072 51.480555626253356 C124.7551129059866 49.49503542191045, 72.29005322046578 45.92313052422063, -0.17355256527662277 47.6107881988089 M184.5629480741918 48.23315597946452 C127.12465715315193 50.32383628009515, 73.38103404827416 49.25696547149377, -1.7778461314737797 50.75605429584788 M-2.237412504851818 47.02764496455597 C3.0813359115583197 28.98832671887556, -0.08929382820303267 9.499965199269369, 2.1742822602391243 2.7789840027689934 M1.3242284916341305 51.000186337779034 C1.4445574798621232 35.527246751667356, -0.32143647288903643 18.06917304079982, 1.8867202661931515 1.8739694096148014" stroke="#000000" stroke-width="1" fill="none"></path></g><g><g transform="translate(618.6248310305027 1923.6654351395732) rotate(0 24.608937217647167 33.68633433850698)"><path d="M1.6001382119953629 -0.5283687718212606 C9.47262499791196 11.08678569541074, 37.160456025690394 59.067040203297985, 45.14278600211806 70.65617716361267 M-0.9757395435869696 -3.2835084865987305 C7.92780791572542 7.488078135606617, 41.91473128397321 54.23469943998739, 50.1936139788813 66.85344350237828" stroke="#000000" stroke-width="1" fill="none"></path></g><g transform="translate(618.6248310305027 1923.6654351395732) rotate(0 24.608937217647167 33.68633433850698)"><path d="M24.90026844452885 46.03911867332387 C34.48091126176316 55.86288307086105, 37.65222531795825 57.12866449991671, 47.956201474029484 64.71442180026752 M23.841923741361175 50.68195206639099 C36.23415575782059 56.343643683663984, 45.00045293582892 60.85178841960205, 51.51784247051543 68.68696317349058" stroke="#000000" stroke-width="1" fill="none"></path></g><g transform="translate(618.6248310305027 1923.6654351395732) rotate(0 24.608937217647167 33.68633433850698)"><path d="M41.73482977195707 34.303806692004514 C47.60387822528852 46.96372437693604, 46.98268710245738 50.8732474872275, 47.956201474029484 64.71442180026752 M40.67648506878939 38.946640085071635 C46.50984378336348 49.101717143713266, 48.8439002688552 58.09375366616524, 51.51784247051543 68.68696317349058" stroke="#000000" stroke-width="1" fill="none"></path></g></g><g transform="translate(523.476190476196 1167.2380952380954) rotate(0 160 12)"><text x="0" y="17" font-family="Helvetica, Segoe UI Emoji" font-size="20px" fill="#000000" text-anchor="start" style="white-space: pre;" direction="ltr">TRANSACTION from matchmaker A</text></g><g transform="translate(23.166666666666515 259.3809523809523) rotate(0 635.833333333333 657.8571428571431)"><path d="M473.8034779440778 20.625060660499912 C501.2102575732247 1.8553085896035668, 537.9136124182708 6.771799167886096, 570.4756028433051 3.558614871964437 C603.0375932683394 0.3454305760427778, 636.5929546768093 -0.2668731615279587, 669.1754204942836 1.3459548849699559 C701.7578863117578 2.95878293146787, 733.9198902991961 6.448497258480226, 765.9703977481504 13.235583150951925 C798.0209051971046 20.022669043423623, 830.8195512305366 30.060130143191998, 861.4784651880087 42.06847023980015 C892.1373791454808 54.0768103364083, 921.4717421954215 68.30628853125894, 949.9238814929829 85.28562373060083 C978.3760207905443 102.26495892994272, 1006.6991561739493 122.8681292870465, 1032.1913009733776 143.94448143585146 C1057.683445772806 165.0208335846564, 1080.6862513952813 187.0584833461889, 1102.8767502895525 211.74373662343055 C1125.0672491838238 236.4289899006722, 1147.0275403095277 263.85203646454073, 1165.334294339005 292.05600109930134 C1183.6410483684824 320.25996573406195, 1199.104134847764 350.2561881607615, 1212.717274466417 380.9675244319942 C1226.3304140850698 411.6788607032269, 1238.1208471212053 443.6883574263795, 1247.0131320509222 476.3240187266975 C1255.905416980639 508.95968002701545, 1262.1362909693328 543.0253494879985, 1266.070984044719 576.781492233902 C1270.005677120105 610.5376349798055, 1271.4185972760513 644.9902688035723, 1270.6212905032385 678.8608752021185 C1269.8239837304257 712.7314816006646, 1267.126207390392 746.875695981507, 1261.2871434078415 780.0051306251786 C1255.448079425291 813.1345652688502, 1246.6467398923578 845.9351095074732, 1235.586906607936 877.6374830641482 C1224.5270733235143 909.3398566208233, 1210.5937982733833 940.4411620611527, 1194.9281437013105 970.2193719652289 C1179.2624891292378 999.9975818693051, 1161.4617959325474 1029.4094167076082, 1141.5929791755 1056.3067424886053 C1121.7241624184526 1083.2040682696024, 1099.2724152261826 1108.319510463213, 1075.7152431590255 1131.6033266512118 C1052.1580710918684 1154.8871428392106, 1026.879850862353 1176.4991076395345, 1000.2499467725571 1196.0096396165977 C973.6200426827613 1215.520171593661, 945.2688432443707 1233.5027648200216, 915.9358186202508 1248.6665185135907 C886.6027939961308 1263.8302722071599, 855.5130132575339 1277.1512844365493, 824.2517990278376 1286.9921617780124 C792.9905847981413 1296.8330391194754, 760.7278289975468 1302.897281771295, 728.3685332420731 1307.7117825623686 C696.0092374865994 1312.5262833534423, 662.6859967450698 1315.8495272754033, 630.0960244949952 1315.8791665244548 C597.5060522449205 1315.9088057735064, 565.0965033571734 1313.4554816246523, 532.8286997416253 1307.8896180566785 C500.5608961260772 1302.3237544887047, 467.5486094098351 1293.174977070506, 436.48920280170637 1282.4839851166116 C405.42979619357766 1271.7929931627173, 375.4554668256078 1259.1448772055248, 346.4722600928529 1243.7436663333128 C317.48905336009796 1228.3424554611008, 288.9987103743831 1209.8347631739066, 262.58996240517695 1190.0767198833396 C236.18121443597076 1170.3186765927726, 211.07534912765993 1149.02724245352, 188.01977227761574 1125.195406589911 C164.96419542757155 1101.363570726302, 143.5815622357392 1074.4566848087043, 124.25650130491181 1047.0857047016848 C104.9314403740844 1019.7147245946653, 87.36791793349705 991.1070538739662, 72.06940669265134 960.9695259477942 C56.77089545180562 930.8319980216222, 42.86708750921988 898.503017358104, 32.4654338598375 866.2605371446533 C22.06378021045513 834.0180569312026, 15.061653150207388 800.6620130530412, 9.659484796357106 767.5146446670905 C4.257316442506824 734.3672762811398, 0.4594467801382507 701.0417511752235, 0.05242373673581824 667.3763268289491 C-0.3545993066666142 633.7109024826748, 2.7436767654823297 599.1510761220978, 7.217346535942511 565.5220985894447 C11.691016306402691 531.8931210567915, 17.431571671818382 497.8255232113084, 26.894442359496907 465.6024616330305 C36.35731304717543 433.3794000547526, 49.54173308075027 402.50228649148977, 63.99457066201364 372.18372911977724 C78.44740824327702 341.8651717480647, 94.93684771259221 311.49599447491084, 113.61146784707717 283.6911174027553 C132.2860879815621 255.88624033059978, 153.67486772748538 229.94333797305868, 176.04229146892334 205.35446668684398 C198.4097152103613 180.76559540062928, 222.03489874374344 157.08454191264508, 247.81601029570487 136.15788968546713 C273.5971218476663 115.23123745828916, 301.8838426673806 95.88292232324767, 330.728960780692 79.7945533237762 C359.5740788940034 63.70618432430473, 393.94606040900743 50.12533440115474, 420.8867189755731 39.627675688638305 C447.8273775421388 29.130016976121873, 477.14931953627104 19.228145610541162, 492.3729121800859 16.808601048677588 C507.5965048239008 14.389056486814013, 510.0306240227776 14.256900182867602, 512.2282748384622 25.11040831745686 M642.138011299025 -0.8163796239269914 C673.2609691062528 -11.216727677982666, 709.3137130402085 3.501505622866489, 741.4244333614454 9.423370464516552 C773.5351536826822 15.345235306166614, 804.0963724198457 23.9088834456363, 834.802333226446 34.714809425973385 C865.5082940330462 45.52073540631047, 896.4681819357772 58.762063709517804, 925.6601982010474 74.25892634653906 C954.8522144663175 89.75578898356031, 983.1042497684523 107.8011191987382, 1009.954430818067 127.6959852481009 C1036.8046118676816 147.5908512974636, 1063.2828881353585 169.71912641167643, 1086.7612844987354 193.6281226427152 C1110.2396808621124 217.53711887375397, 1131.9350800537586 244.19023026431356, 1150.8248089983294 271.14996263433346 C1169.7145379429003 298.10969500435334, 1185.1891704141392 325.4052669287791, 1200.0996581661602 355.3865168628346 C1215.0101459181813 385.36776679689007, 1229.9097117819435 418.6140922528018, 1240.287735510456 451.0374622386663 C1250.6657592389686 483.4608322245308, 1257.229535238869 516.6736027225571, 1262.3678005372353 549.9267367780216 C1267.5060658356017 583.179870833486, 1270.5742787187673 617.1002996929155, 1271.1173273006543 650.5562665714529 C1271.6603758825413 684.0122334499902, 1270.1787858064433 717.1261388759945, 1265.6260920285565 750.6625380492452 C1261.0733982506697 784.1989372224959, 1253.5949825302146 819.2563284534947, 1243.801164633333 851.7746616109571 C1234.0073467364514 884.2929947684195, 1221.1910436345463 915.3276925422813, 1206.8631846472676 945.7725369940196 C1192.535325659989 976.2173814457578, 1176.6418682861968 1006.5662032121872, 1157.8340107096615 1034.4437283213867 C1139.0261531331262 1062.3212534305862, 1116.411093156863 1088.6423041538842, 1094.016039188056 1113.0376876492169 C1071.6209852192492 1137.4330711445496, 1049.2250733595915 1160.2227019466668, 1023.4636868968195 1180.8160292933821 C997.7023004340473 1201.4093566400975, 968.5394539479394 1220.5173854161992, 939.447720411423 1236.5976517295085 C910.3559868749066 1252.6779180428177, 879.49913201544 1265.8207477774479, 848.9132856777214 1277.2976271732377 C818.3274393400029 1288.7745065690276, 787.8925676143547 1299.0458273948634, 755.932642385112 1305.4589281042472 C723.9727171558693 1311.872028813631, 690.1015369612527 1314.7508476826179, 657.1537343022654 1315.7762314295398 C624.2059316432782 1316.8016151764618, 590.5475304757963 1315.657420970833, 558.2458264311883 1311.611230585779 C525.9441223865804 1307.5650402007248, 494.6360784976307 1300.6599806683478, 463.3435100346177 1291.4990891192153 C432.05094157160465 1282.338197570083, 400.2003371227453 1270.8262159839787, 370.49041565311006 1256.6458812909846 C340.78049418347484 1242.4655465979904, 312.44528430807605 1225.388498802181, 285.0839812168063 1206.4170809612508 C257.72267812553656 1187.4456631203207, 230.39386178770258 1165.7265078919572, 206.32259710549158 1142.8173742454037 C182.2513324232806 1119.9082405988502, 160.8363517752675 1095.3414663003132, 140.6563931235404 1068.9622790819294 C120.47643447181328 1042.5830918635456, 101.78420000976837 1013.822608501515, 85.2428451951289 984.5422509351006 C68.70149038048942 955.2618933686862, 53.429390288431534 924.8066798370811, 41.40826423570354 893.2801336834428 C29.387138182975548 861.7535875298046, 19.610342767761875 828.4314375382338, 13.116088878760934 795.3829740132708 C6.621834989759994 762.3345104883077, 4.285152181833818 728.7842661814313, 2.4427409016979027 694.9893525336644 C0.6003296215619873 661.1944388858974, -0.9871935378632579 626.3471373529006, 2.061621197945442 592.6134921266688 C5.110435933754141 558.879846900437, 12.44283524994942 525.4392307913931, 20.735629316550103 492.5874811762734 C29.028423383150788 459.7357315611536, 38.813636041304086 426.65859024575417, 51.818385597549536 395.5029944359501 C64.82313515379498 364.347398626146, 80.95951802457343 334.3242103858727, 98.76412665402279 305.65390631744884 C116.56873528347215 276.983602249025, 137.32629503194173 248.91994078926444, 158.64603737424568 223.4811700254072 C179.96577971654963 198.04239926154997, 201.99505442180137 174.5415495378402, 226.68258070784645 153.0212817343055 C251.37010699389154 131.50101393077077, 278.7135330362214 111.84821334109238, 306.77119509051624 94.35956320419893 C334.8288571448111 76.8709130673055, 364.43434931903596 61.019595162780185, 395.0285530336156 48.089380912944875 C425.62275674819523 35.159166663109566, 458.3591765930019 24.219536603595298, 490.33641737799417 16.778277705187065 C522.3136581629864 9.337018806778833, 561.4687288456639 6.384659977102672, 586.891997743569 3.441827522495487 C612.3152666414742 0.49899506788830195, 633.4887509403834 -2.556006528947478, 642.8760307654251 -0.8787170224560441 C652.2633105904667 0.7985724840353896, 643.3766470089483 2.2572527667500513, 643.215676693819 13.50556456144409" stroke="#000000" stroke-width="1" fill="none"></path></g><g transform="translate(499.5476190476188 287.7142857142859) rotate(0 146 46)"><text x="0" y="32" font-family="Virgil, Segoe UI Emoji" font-size="36px" fill="#000000" text-anchor="start" style="white-space: pre;" direction="ltr">gossip network</text><text x="0" y="78" font-family="Virgil, Segoe UI Emoji" font-size="36px" fill="#000000" text-anchor="start" style="white-space: pre;" direction="ltr">&amp; orderbook app</text></g><g transform="translate(286.0238095238092 418.66666666666686) rotate(0 346.19047619047626 184.16666666666663)"><path d="M0.18997995853424074 -0.6774215936660767 C208.57086687939517 -1.7710504181044446, 419.0068563393186 -0.9456834442274915, 692.6997752655121 -0.5005394220352173 M0.0027706027030944824 0.13976308107376098 C213.14575174308962 2.0014040903818042, 426.14301755144487 1.8884459452402027, 692.6372153390023 -0.3307519793510437 M692.9913786071376 -0.02214781983971596 C692.0272483098821 99.84121120760162, 691.5269933705434 197.2088020629238, 691.895882656309 369.17903906844805 M692.652643410749 -0.29320469405925276 C692.1623852185929 107.31531308695963, 692.1672059380792 216.18532472942871, 691.8160409481139 367.7830627832445 M692.3514819610688 368.16669512589766 C476.43441416252233 370.10753911234076, 262.0552614030384 368.9581502268427, -0.1693286657333374 369.0693097194035 M692.0576937783334 368.31732630332306 C492.04989700771523 366.0406021263485, 291.54247865506585 366.0146312858944, 0.03450621366500855 368.38277315696075 M-0.6711113374593258 367.528762834218 C2.3290793009957214 248.45328975049722, 1.732875445153131 128.10874291653226, -1.202784537799597 0.09103187566351892 M0.041112844699740414 368.3466758345026 C1.05455626213004 288.89139440627963, 1.6015375062744797 208.86482375356937, -0.2142387939606905 -0.08520727649104597" stroke="#000000" stroke-width="1" fill="none"></path></g><g transform="translate(546.4999999999999 438.00000000000017) rotate(0 96.5 18)"><text x="0" y="25" font-family="Virgil, Segoe UI Emoji" font-size="28px" fill="#000000" text-anchor="start" style="white-space: pre;" direction="ltr">global mempool</text></g><g transform="translate(406.02380952380884 937.761904761905) rotate(0 245.5 39)"><text x="0" y="18" font-family="Virgil, Segoe UI Emoji" font-size="19.896103896103885px" fill="#000000" text-anchor="start" style="white-space: pre;" direction="ltr">The matchmacker chooses values he thinks will be</text><text x="0" y="44" font-family="Virgil, Segoe UI Emoji" font-size="19.896103896103885px" fill="#000000" text-anchor="start" style="white-space: pre;" direction="ltr">accepted by all the validity predicate. </text><text x="0" y="70" font-family="Virgil, Segoe UI Emoji" font-size="19.896103896103885px" fill="#000000" text-anchor="start" style="white-space: pre;" direction="ltr"></text></g><g transform="translate(10 1753.047619047619) rotate(0 594.1666666666663 467.4999999999999)"><path d="M568.9995104810761 0.8835682494500929 C600.19021018301 -8.111361745030194, 636.162199626835 -0.08117433394751083, 669.4882139667675 3.09770925415728 C702.8142283067 6.276592842262071, 736.8528202243111 12.214768354638988, 768.9555965206712 19.95686977807884 C801.0583728170312 27.69897120151869, 832.3050502311454 37.355778393847665, 862.104871744928 49.5503177947964 C891.9046932587106 61.74485719574513, 920.7858577424047 77.36481955981101, 947.7545256033668 93.12410618377123 C974.7231934643289 108.88339280773145, 1000.7309442378839 125.10326407426784, 1023.9168789107005 144.1060375385577 C1047.102813583517 163.10881100284755, 1068.152643905767 184.96943868297993, 1086.870133640266 207.14074696951036 C1105.587623374765 229.3120552560408, 1122.3732081256796 252.93998888515608, 1136.2218173176934 277.1338872577403 C1150.0704265097072 301.3277856303245, 1161.7482131994063 326.6195304906975, 1169.961788792349 352.3041372050156 C1178.1753643852915 377.9887439193337, 1182.7117820151022 404.9638177648595, 1185.5032708753486 431.2415275436487 C1188.2947597355949 457.5192373224379, 1189.4756438161648 483.67479244881054, 1186.710721953827 509.9703958777507 C1183.9458000914892 536.2659993066909, 1177.7144276313934 563.5990603271258, 1168.913739701321 589.0151481172898 C1160.1130517712486 614.4312359074537, 1147.9033167903567 638.4612427861479, 1133.9065943733926 662.4669226187344 C1119.9098719564286 686.472602451321, 1103.974606092906 711.2636061763341, 1084.9334051995363 733.0492271128091 C1065.8922043061666 754.8348480492842, 1043.2934543016447 774.350049715906, 1019.6593890131749 793.1806482375848 C996.0253237247051 812.0112467592636, 970.2868672533461 830.4659328264253, 943.1290134687177 846.0328182428821 C915.9711596840893 861.5997036593388, 886.7270025240605 874.8120099055687, 856.7122663054042 886.5819607363255 C826.697530086748 898.3519115670823, 795.3369106389699 909.0909111314178, 763.0405961567803 916.652523227423 C730.7442816745908 924.2141353234282, 696.3871432788758 928.8781570174666, 662.9343794122667 931.951633312357 C629.4816155456576 935.0251096072474, 595.6185900012949 936.6499491844982, 562.3240129571259 935.0933809967653 C529.0294359129568 933.5368128090324, 495.8271106778644 928.4669328095661, 463.1669171472525 922.6122241859596 C430.50672361664056 916.7575155623531, 397.4456718632194 909.9801024977455, 366.3628517734541 899.9651292551263 C335.28003168368883 889.950156012507, 305.12643423808487 876.7586806023268, 276.6699966086608 862.5223847302439 C248.2135589792368 848.286088858161, 220.65857301905424 832.273459248802, 195.62422599690996 814.5473540226291 C170.58987897476567 796.8212487964561, 147.22421042506863 776.8694216425445, 126.4639144757951 756.1657533732058 C105.70361852652154 735.4620851038671, 86.99470094710746 713.3951019369433, 71.06245030126865 690.3253444065967 C55.130199655429855 667.2555868762502, 41.402640288052204 642.8230970230109, 30.870410600762284 617.7472081911264 C20.338180913472364 592.671319359242, 13.091373307112708 566.1963997523618, 7.8690721775291195 539.8700114152904 C2.6467710479455304 513.543623078219, -0.7898706251142282 486.2354405741385, -0.46339617673925204 459.78887816869764 C-0.1369217283642759 433.34231576325675, 3.3892242996137156 406.94089705720916, 9.827918867778976 381.19063698264506 C16.266613435944237 355.44037690808096, 26.396046726125327 330.19411995488673, 38.16877123225231 305.28731772131295 C49.941495738379295 280.38051548773916, 63.80547153335729 254.690426803576, 80.46426590454087 231.74982358120232 C97.12306027572444 208.80922035882864, 116.68459176301437 187.87386086493447, 138.12153745935376 167.64369838707086 C159.55848315569315 147.41353590920724, 183.29124609203893 127.54197079959637, 209.08594008257722 110.3688487140206 C234.88063407311552 93.19572662844483, 263.7854194820956 77.7890693607067, 292.88970140258357 64.60496587361627 C321.9939833230715 51.42086238652582, 352.28555529556724 40.6229470951233, 383.71163160550503 31.264227791477936 C415.13770791544283 21.90550848783257, 447.7204239398445 13.60211659408576, 481.44615926221036 8.452650051744058 C515.1718945845762 3.3031835094023547, 565.712661601968 0.28785597061482804, 586.0660435397 0.3674285374277133 C606.419425477432 0.4470011042405986, 603.533104649437 1.3412145492058771, 603.5664508886022 8.93008545262137 M782.5422991082908 25.03689000721954 C815.8602506828888 25.450475777146494, 844.9824065369656 41.90901526479626, 874.3680784848742 54.05694340387197 C903.7537504327828 66.20487154294769, 932.4860647296911 81.72357424340501, 958.8563307957425 97.92445884167381 C985.2265968617938 114.12534343994261, 1010.1901874210931 131.86017091861467, 1032.5896748811824 151.26225099348477 C1054.9891623412718 170.66433106835487, 1075.1520403009072 191.94661516577253, 1093.2532555562782 214.33693929089438 C1111.3544708116492 236.72726341601623, 1128.0746718861697 261.28341268773613, 1141.1969664134092 285.6041957442158 C1154.3192609406487 309.9249788006955, 1164.3622852253045 334.3943646193002, 1171.9870227197157 360.2616376297725 C1179.611760214127 386.12891064024484, 1184.6639057546374 414.0838206721156, 1186.9453913798761 440.80783380704975 C1189.2268770051148 467.5318469419839, 1189.4040811277387 494.4989283479078, 1185.675936471148 520.6057164393774 C1181.9477918145571 546.7125045308469, 1174.299724260939 572.1950761121806, 1164.5765234403316 597.4485623558671 C1154.8533226197242 622.7020485995537, 1141.862611990723 648.2026359557866, 1127.3367315475039 672.1266339014967 C1112.8108511042847 696.0506318472068, 1096.8874670071464 719.5930731546159, 1077.4212407810169 740.9925500301275 C1057.9550145548874 762.3920269056391, 1034.4259680899736 782.0425093571936, 1010.5393741907274 800.5234951545663 C986.652780291481 819.004480951939, 961.7474410483312 836.8908988558544, 934.1016773855389 851.8784648143635 C906.4559137227466 866.8660307728726, 875.2873683567947 879.1951048950116, 844.6647922139732 890.4488909056206 C814.0422160711518 901.7026769162296, 782.5852081282437 912.2743394632826, 750.3662205286103 919.401180878018 C718.1472329289768 926.5280222927533, 684.7133225573155 930.7466510925362, 651.3508666161723 933.2099393940327 C617.9884106750292 935.6732276955292, 583.699073348131 936.0554043461229, 550.1914848817513 934.1809106869969 C516.6838964153716 932.3064170278708, 482.94233945502083 928.4849844180458, 450.30533581789365 921.962977439276 C417.66833218076647 915.4409704605062, 385.1308449884984 905.6652721966675, 354.36946305898823 895.0488688143779 C323.6080811294781 884.4324654320883, 293.65574853421236 873.0647602403556, 265.73704424083274 858.2645571455384 C237.8183399474531 843.4643540507213, 211.52993756472353 824.4725089568079, 186.8572372987104 806.2476502454751 C162.18453703269728 788.0227915341424, 137.8113933118201 769.9694653526632, 117.70084264475395 748.9154048775415 C97.5902919776878 727.8613444024198, 81.03384467781474 703.3899746724139, 66.1939332963135 679.9232873947453 C51.35402191481226 656.4566001170767, 38.64671874739497 633.2745991604045, 28.66137435574649 608.1152812115301 C18.676029964098007 582.9559632626558, 10.966126326045714 555.3156098375172, 6.2818669464226105 528.9673797014996 C1.597607566799506 502.6191495654819, -0.36169853173203137 476.29672929956524, 0.5558180780078601 450.02590039542423 C1.4733346877477516 423.7550714912832, 5.116553417194003 397.0288699766893, 11.78696660486196 371.3424062766534 C18.457379792529917 345.65594257661746, 28.15239819439102 320.28372822402065, 40.5782972040156 295.9071181952089 C53.00419621364018 271.53050816639717, 68.80112657934166 247.72715668731513, 86.34236066260945 225.08274610378302 C103.88359474587725 202.43833552025092, 123.44164728621709 180.35424380618002, 145.82570170362237 160.04065469401633 C168.20975612102765 139.72706558185263, 194.31003088017394 119.92797989607045, 220.64668716704114 103.20121143080092 C246.98334345390833 86.4744429655314, 274.54578334052053 72.42328541917881, 303.8456394248256 59.68004390239918 C333.1454955091307 46.936802385619536, 364.7495096562371 35.4780218195579, 396.4458236728715 26.741762330123095 C428.1421376895059 18.005502840688287, 461.0502980991535 11.852403153371228, 494.0235235246321 7.262486965790345 C526.9967489501106 2.6725707782094617, 560.6808744075577 -0.6020164569327354, 594.2851762257428 -0.7977347953622029 C627.889478043928 -0.9934531337916704, 664.4188508408052 2.0386686756005092, 695.6493344337431 6.088176935213539 C726.8798180266809 10.13768519482657, 768.0380227405858 19.23513753883542, 781.6680777833699 23.499314762315976 C795.298132826154 27.76349198579653, 780.5665065815172 24.15788578618364, 777.4296646904472 31.673240276096863" stroke="#000000" stroke-width="1" fill="none"></path></g><g transform="translate(613.1666666666664 1791.5476190476193) rotate(0 129 23)"><text x="0" y="32" font-family="Virgil, Segoe UI Emoji" font-size="36px" fill="#000000" text-anchor="start" style="white-space: pre;" direction="ltr">ledger network</text></g><g transform="translate(647.4999999999998 2073.8809523809523) rotate(0 205 112.5)"><text x="0" y="20" font-family="Cascadia, Segoe UI Emoji" font-size="20px" fill="#000000" text-anchor="start" style="white-space: pre;" direction="ltr">if someone takes between</text><text x="0" y="45" font-family="Cascadia, Segoe UI Emoji" font-size="20px" fill="#000000" text-anchor="start" style="white-space: pre;" direction="ltr">tx.DATA.B.low to tx.DATA.B.high </text><text x="0" y="70" font-family="Cascadia, Segoe UI Emoji" font-size="20px" fill="#000000" text-anchor="start" style="white-space: pre;" direction="ltr">tx.DATA.B.output_asset </text><text x="0" y="95" font-family="Cascadia, Segoe UI Emoji" font-size="20px" fill="#000000" text-anchor="start" style="white-space: pre;" direction="ltr">from my account,</text><text x="0" y="120" font-family="Cascadia, Segoe UI Emoji" font-size="20px" fill="#000000" text-anchor="start" style="white-space: pre;" direction="ltr">it has to credit</text><text x="0" y="145" font-family="Cascadia, Segoe UI Emoji" font-size="20px" fill="#000000" text-anchor="start" style="white-space: pre;" direction="ltr">at least tx.DATA.B.min_rate </text><text x="0" y="170" font-family="Cascadia, Segoe UI Emoji" font-size="20px" fill="#000000" text-anchor="start" style="white-space: pre;" direction="ltr">the amount in tx.DATA.B.input_asset</text><text x="0" y="195" font-family="Cascadia, Segoe UI Emoji" font-size="20px" fill="#000000" text-anchor="start" style="white-space: pre;" direction="ltr"> and to be before</text><text x="0" y="220" font-family="Cascadia, Segoe UI Emoji" font-size="20px" fill="#000000" text-anchor="start" style="white-space: pre;" direction="ltr"> (tx.DATA.B.timestamp + 20mn)</text></g><g transform="translate(491.1666666666664 2489.3809523809527) rotate(0 98.5 30)"><path d="M-1.276995599269867 -1.854572355747223 C58.789115568995484 2.098213337957859, 115.00079558491709 3.0095311632752417, 196.5209417939186 -0.6186657547950745 M-0.4108629524707794 -0.7655787169933319 C63.64545234143735 0.527290072143078, 125.02107305526735 0.7643038889765741, 197.12362477183342 -0.5086388289928436 M197.98869997262955 1.536378800868988 C195.1097989857197 16.251584768295288, 195.13003023266793 31.80462032556534, 198.45369058847427 59.09839624166489 M196.23508259654045 0.6720176041126251 C197.58299899101257 13.563890188932419, 196.95223212242126 27.871320635080338, 197.09375855326653 59.81912472844124 M196.1299448609352 61.56838220357895 C118.1729471951723 61.28720018953085, 41.568549627065636 63.08975336641073, 0.021754324436187744 58.1029948592186 M197.16737458109856 59.33840420842171 C121.61077871620654 57.98496666699648, 45.2387226462364 57.400386245548724, 0.9547309577465057 59.818061381578445 M-1.9841203093528748 60.52854722738266 C1.3197284162044525 45.74846088886261, -0.39307256340980534 27.286672890186306, -1.3432263731956482 1.1197394728660583 M0.560817688703537 59.230651408433914 C1.255303943157196 45.51135763525963, 0.4139047503471374 29.498637348413467, -0.8999033272266388 0.7664914429187775" stroke="#000000" stroke-width="1" fill="none"></path></g><g><g transform="translate(360.83333333333314 2377.714285714286) rotate(0 77.78787065040697 54.49420876364684)"><path d="M1.1456771492958067 -0.21832634210586543 C27.17971327975363 18.32640797694524, 129.59764376655076 92.19566011826197, 155.28772237747734 110.36696914434432 M0.28801892333664014 -1.3785516170505434 C26.206526793623055 16.871535967703288, 128.44590817578924 89.95695846857193, 154.11347552292807 108.43705319634638" stroke="#000000" stroke-width="1" fill="none"></path></g><g transform="translate(360.83333333333314 2377.714285714286) rotate(0 77.78787065040697 54.49420876364684)"><path d="M124.85957985646859 99.63397765296288 C132.2348820532705 101.16353960171071, 136.09969034398867 104.2208155899485, 155.6166885113047 110.03121512404643 M125.78332682974472 99.82412466543504 C132.74445566335044 102.16520963209896, 142.47147455060747 104.45829203670716, 154.88761203639967 108.7806949841138" stroke="#000000" stroke-width="1" fill="none"></path></g><g transform="translate(360.83333333333314 2377.714285714286) rotate(0 77.78787065040697 54.49420876364684)"><path d="M136.81548253296202 82.95535679942536 C141.39185106864844 88.32882981670826, 142.5830150491648 95.11587016935061, 155.6166885113047 110.03121512404643 M137.73922950623816 83.14550381189751 C141.15365671740688 90.23509568360521, 147.41919548298583 97.3569824122093, 154.88761203639967 108.7806949841138" stroke="#000000" stroke-width="1" fill="none"></path></g></g><g><g transform="translate(780.235203231667 2387.714285714286) rotate(0 -68.27516166600157 50.4453267860074)"><path d="M-0.8531129479408264 0.9848899483680726 C-23.5578354955084 17.457498429881287, -113.73083220738513 82.87202789121248, -136.51405817292147 99.50614760319445 M0.8998640250507743 0.45635322592221206 C-21.93589301208885 16.97311557509738, -114.76830730164953 83.48175265565456, -137.45018735705392 100.43430034609254" stroke="#000000" stroke-width="1" fill="none"></path></g><g transform="translate(780.235203231667 2387.714285714286) rotate(0 -68.27516166600157 50.4453267860074)"><path d="M-119.08150911566008 75.56829581024016 C-127.13792127196353 80.59687722635043, -129.61870020394178 88.02080508705203, -137.63944789944665 100.6386585065883 M-120.34591284629096 75.53581452729071 C-126.06420531053122 83.60118650971953, -131.00273255369538 91.3011957652601, -136.4762021320917 99.67509449811395" stroke="#000000" stroke-width="1" fill="none"></path></g><g transform="translate(780.235203231667 2387.714285714286) rotate(0 -68.27516166600157 50.4453267860074)"><path d="M-106.98705341016799 92.14671984793836 C-118.47646186788079 92.51052751194341, -124.29760561091436 95.35566442687856, -137.63944789944665 100.6386585065883 M-108.25145714079886 92.11423856498891 C-117.94058355265709 94.73843773305963, -126.85381172939206 96.99014248409495, -136.4762021320917 99.67509449811395" stroke="#000000" stroke-width="1" fill="none"></path></g></g><g transform="translate(577.4999999999999 2506.0476190476193) rotate(0 17.5 12.5)"><text x="0" y="20" font-family="Cascadia, Segoe UI Emoji" font-size="20px" fill="#000000" text-anchor="start" style="white-space: pre;" direction="ltr">...</text></g><g transform="translate(612.2142857142852 1062.0000000000002) rotate(0 87.5 13)"><text x="0" y="18" font-family="Virgil, Segoe UI Emoji" font-size="20px" fill="#000000" text-anchor="start" style="white-space: pre;" direction="ltr">craft transaction</text></g><g transform="translate(437.83333333333337 10) rotate(0 82 52)"><path d="M0.9718953371047974 2.359817385673523 C34.5021896481514 -4.117894384860993, 67.8314341545105 -2.3067333436012265, 162.87172520160675 1.0472067594528198 M-0.5229626297950745 0.0708971619606018 C38.11859574317932 1.8851237106323242, 78.83235870599746 1.6832480239868164, 162.40770715475082 -1.5679330229759216 M165.96153843402863 -2.578251004219055 C164.17311373710632 21.207782316207886, 165.1508320903778 47.03666231632233, 161.45328724384308 107.62854754924774 M163.5065993666649 -0.9419717192649841 C163.47080638170243 34.62879351377487, 164.1410353398323 70.65958071947098, 165.14423936605453 105.57843881845474 M164.64759266376495 107.94547259807587 C111.98209556341172 103.35589509248733, 56.02961115837097 105.7776518368721, 0.5007916688919067 101.71464908123016 M164.8236979842186 104.72539621591568 C98.71495821475982 101.63895592212677, 33.15889178514479 102.25482925891876, -0.24770742654800415 102.91481310129166 M2.0183392763137817 107.25520694255829 C-5.786154117584228 65.02025699615479, 1.147374782562256 29.28909122943878, 2.127519726753235 1.5047301054000854 M0.15294259786605835 102.6921415925026 C-0.7499175238609315 63.81723283529281, -1.0868907141685487 27.234377300739283, -0.6060238480567932 -1.3771695494651794" stroke="#000000" stroke-width="1" fill="none"></path></g><g transform="translate(793.8606368274523 213.30091440074216) rotate(0 21.5 13)"><text x="0" y="18" font-family="Virgil, Segoe UI Emoji" font-size="20px" fill="#000000" text-anchor="start" style="white-space: pre;" direction="ltr">send</text></g><g transform="translate(541.8606368274523 200.30091440074216) rotate(0 21.5 13)"><text x="0" y="18" font-family="Virgil, Segoe UI Emoji" font-size="20px" fill="#000000" text-anchor="start" style="white-space: pre;" direction="ltr">send</text></g></svg>