<svg version="1.1" xmlns="http://www.w3.org/2000/svg" viewBox="0 0 1308.5 905" width="1308.5" height="905">
  <!-- svg-source:excalidraw -->
  
  <defs>
    <style>
      @font-face {
        font-family: "Virgil";
        src: url("https://excalidraw.com/Virgil.woff2");
      }
      @font-face {
        font-family: "Cascadia";
        src: url("https://excalidraw.com/Cascadia.woff2");
      }
    </style>
  </defs>
  <rect x="0" y="0" width="1308.5" height="905" fill="#ffffff"></rect><g transform="translate(685.5 343) rotate(0 306.5 276)"><path d="M345.2222779590181 1.1731088787515205 C367.9357180832287 -0.5274001955339382, 391.45073021189296 10.776626192107674, 413.15059655615016 18.165905893469244 C434.85046290040736 25.555185594830814, 455.9477955091612 33.89798367091587, 475.42147602456146 45.50878708692093 C494.8951565399617 57.119590502925995, 513.8283466929956 72.26620901870272, 529.9926796485515 87.8307263894996 C546.1570126041074 103.39524376029648, 560.6704942369277 120.7427149043952, 572.407473757897 138.89589131170223 C584.1444532788664 157.04906771900926, 593.8899993128682 176.91685581418324, 600.4145567743681 196.74978483334178 C606.9391142358679 216.58271385250032, 610.3391312892471 236.93871728415996, 611.5548185268958 257.8934654266534 C612.7705057645445 278.8482135691468, 611.5345078071339 301.7084499178597, 607.70868020026 322.4782736883024 C603.8828525933861 343.2480974587451, 597.5090227988169 363.08044291092335, 588.5998528856524 382.5124080493096 C579.6906829724878 401.9443731876959, 567.9518893993439 422.0731792555347, 554.2536607212726 439.07006451862003 C540.5554320432012 456.0669497817054, 523.9698860838511 470.7419805688321, 506.4104808172244 484.4937196278215 C488.8510755505978 498.24545868681093, 469.4719687207545 511.7053828505885, 448.8972291215126 521.5804988725565 C428.32248952227076 531.4556148945245, 405.8483710545999 538.6499081661765, 382.96204322177334 543.7444157596296 C360.0757153889468 548.8389233530828, 334.95070664630975 551.8058080439938, 311.5792621245531 552.1475444332754 C288.20781760279647 552.4892808225569, 265.3812975568467 550.387891680535, 242.73337609123345 545.794834095319 C220.08545462562023 541.201776510103, 196.76789838375728 533.6640677806597, 175.69173333087386 524.5891989219792 C154.61556827799043 515.5143300632988, 134.7007577050622 504.31629176753376, 116.2763857739329 491.3456209432363 C97.85201384280363 478.3749501189389, 79.67585492413117 463.0941109270823, 65.1455017440982 446.7651739761946 C50.61514856406522 430.4362370253069, 38.72115680051205 412.4298240174717, 29.09426669373505 393.37199923791025 C19.467376586958054 374.3141744583488, 12.381871914929008 353.0196380604555, 7.384161103436213 332.41822529882586 C2.3864502919434187 311.8168125371962, -1.2606778505354252 290.71033911417544, -0.8919981752217154 269.7635226681323 C-0.5233184999080056 248.8167062220891, 3.469603279514483 227.0324671073074, 9.596239155318472 206.73732662256674 C15.72287503112246 186.44218613782607, 24.946099589344065 166.7220526024083, 35.86781707960222 147.99267975968834 C46.78953456986037 129.2633069169684, 59.72092829867513 110.24024576981954, 75.1265440968674 94.36108956624699 C90.53215989505968 78.48193336267444, 109.38464151833699 64.9669461462101, 128.30151186875585 52.71774253825305 C147.2183822191747 40.468538930296, 167.13446765355405 29.07748667887764, 188.62776619938057 20.865867918504676 C210.1210647452071 12.654249158131714, 234.04582330666645 6.7772243544759245, 257.26130314371505 3.4480299760152775 C280.4767829807637 0.11883559755463091, 309.51509010095185 0.6754189215422363, 327.9206452216722 0.8907016477407979 C346.32620034239255 1.1059843739393596, 357.3611011744838 2.2049256517107474, 367.694633868037 4.739726333206647 C378.0281665615902 7.274527014702548, 390.9320494817598 11.397446098204782, 389.92184138299126 16.099505736716196 M453.1024843466514 31.8943471690788 C475.31664232968905 37.279029431162705, 494.52407367945256 54.40538301840026, 511.62561012172296 68.48115855403302 C528.7271465639933 82.55693408966577, 542.681431614472 99.07392970478588, 555.7117030002738 116.34900038287535 C568.7419743860756 133.6240710609648, 581.0538305303625 152.70877491953718, 589.8072384365337 172.1315826225698 C598.5606463427049 191.5543903256024, 604.5631626133967 211.8325090509645, 608.2321504373014 232.8858466010711 C611.901138261206 253.93918415117773, 613.356040322447 277.21149913094416, 611.8211653799616 298.45160792320956 C610.2862904374762 319.69171671547497, 605.9174344598755 340.22724827518164, 599.0229007823888 360.32649935466367 C592.128367104902 380.4257504341457, 582.6398361899418 401.2570436392007, 570.4539633150416 419.04711440010175 C558.2680904401415 436.8371851610028, 542.3467627103346 452.05449148220447, 525.907663532988 467.0669239200702 C509.4685643556413 482.079356357936, 491.2718441890933 497.62054390959213, 471.8193682509618 509.12170902729633 C452.3668923128303 520.6228741450005, 430.9970819433551 529.0561254144753, 409.1928079041989 536.0739146262954 C387.3885338650427 543.0917038381154, 364.3560300795799 548.8884417916369, 340.99372401602466 551.2284442982168 C317.6314179524694 553.5684468047967, 292.3095104273092 552.864447748109, 269.0189715228673 550.113929665775 C245.72843261842533 547.363411583441, 223.30292520311943 542.2066887715139, 201.25049058937302 534.7253358042129 C179.1980559756266 527.243982836912, 156.11520640409412 516.8287254325571, 136.70436384038885 505.2258118619693 C117.29352127668358 493.6228982913815, 100.7098838391447 480.00948876501633, 84.78543520714138 465.1078543806859 C68.86098657513806 450.2062199963555, 53.098641505932896 434.0280903286093, 41.15767204836891 415.8160055559868 C29.21670259080492 397.6039207833643, 19.727070652989266 376.26270483380927, 13.139618461757436 355.8353457449507 C6.552166270525608 335.40798665609213, 2.891152356168827 314.2590458827179, 1.6329589009779397 293.2518510228354 C0.37476544578705284 272.24465616295294, 1.691375039492243 250.27556569307407, 5.5904577306121155 229.79217658565577 C9.489540421731988 209.30878747823746, 16.029399267841157 189.8137423430675, 25.027455047697174 170.35151637832564 C34.02551082755319 150.88929041358378, 46.14992888528575 130.1426078220627, 59.57879240974822 113.0188207972046 C73.00765593421069 95.89503377234651, 88.22805349769801 81.32697517251354, 105.60063619447197 67.60879422917711 C122.97321889124593 53.89061328584067, 142.99991918916356 40.76862710880908, 163.814288590392 30.709735137185987 C184.62865799162046 20.650843165562897, 207.9322897491832 12.269042074154537, 230.48685260184263 7.25544239943855 C253.04141545450204 2.241842724722564, 275.9245010917493 0.6210930990938456, 299.14166570634853 0.628137088890071 C322.3588303209478 0.6351810786862965, 346.53459604187566 3.235620459635432, 369.7898402894381 7.297706338215903 C393.0450845370005 11.359792216796375, 424.6570288193253 20.73047516397148, 438.67313119172314 25.000652360372897 C452.68923356412097 29.270829556774313, 452.1896996770074 30.585541405565788, 453.886454523825 32.918769516624394 C455.58320937064263 35.251997627683004, 451.66476861771406 35.1004874675772, 448.8536602726289 39.00002102672454" stroke="#000000" stroke-width="1" fill="none"></path></g><g transform="translate(308.5 583) rotate(0 112.5 60)"><path d="M-0.9935343016830682 -0.2999725433887243 C86.47764666124601 -0.276975066222623, 169.11466143508818 -0.9636568502687961, 224.70434258555062 0.19985911619150637 M-0.7893881467878222 0.7091504050323367 C68.83745922849651 2.41914984616138, 136.52536855086336 2.4268960973458436, 224.5873436509588 0.1846074339763522 M223.89160123653704 0.4832888823002577 C225.08074057400222 41.42179028876127, 223.051101270318 80.52423021756115, 225.2547707278281 118.03780299238865 M225.99828025605524 -0.013759954832494259 C224.43495690617704 29.265641746111225, 224.01709690485143 57.47499130014332, 225.47031670715654 120.65777115616952 M225.48262080792838 118.78524351386993 C172.27743423763272 121.80093759384894, 123.69503672043767 121.81656853221487, 0.12511813339459896 120.55047309068648 M224.62927151990294 120.2039372379143 C172.80542358861314 120.64359847144785, 122.4001547958121 120.81397110556688, 0.5928638973615765 120.56122154066203 M0.9187987167388201 119.33285569958393 C0.17191125229001036 96.91679985262456, -0.20424370691180238 70.48047842644158, 1.2853899914771318 -0.9397214073687792 M0.47969093825668097 119.16128058824692 C0.6502664448693396 92.46465895045552, 1.2772768201306464 62.63481377903374, -0.40389585588127375 -0.45685924496501684" stroke="#000000" stroke-width="1" fill="none"></path></g><g transform="translate(470.5 587.5) rotate(0 28.5 13)"><text x="28.5" y="18" font-family="Virgil, Segoe UI Emoji" font-size="20px" fill="#000000" text-anchor="middle" style="white-space: pre;" direction="ltr">Client</text></g><g transform="translate(372.5 212) rotate(0 94.5 17.5)"><path d="M-1.3419503588229418 -1.2857707422226667 C61.74457786018031 -2.913830333100632, 127.53599919136617 0.2675899335276335, 188.50553822331136 -0.1644225399941206 M-0.2010944625362754 0.9691989114508033 C48.95860951067881 -0.5201389775332066, 97.4872566983104 0.5687759234849361, 189.98253400716936 -0.10093993041664362 M190.40914130024618 0.6597041804343462 C189.56681013633502 9.863794875796879, 189.86560208131564 17.69993703905492, 189.9344844203443 35.49745443649588 M189.41953785810625 -0.4880513558164239 C188.5981012334582 10.736848916392766, 190.0081625630614 23.39772235602139, 188.9538905480877 35.25064673926679 M189.81326144747442 35.94333103485403 C113.52298673680055 34.036107418434675, 38.233869786746794 35.66007452954536, 1.7690836172550917 34.435288520529845 M188.27427910361445 35.72661057021467 C124.84378583496441 34.48066973059436, 60.51008001901212 34.157423758199414, 0.8538445392623544 34.92975473310796 M1.5649291258305311 35.69383296556769 C0.24394054408185173 26.21950652310623, 0.2036402344238012 21.21573252510278, 1.9675267320126295 -1.5171190183609724 M-0.6203607162460685 35.567866086028495 C-0.2871036054100843 26.94828021759166, -0.30713604106567816 16.953815465793003, 0.6451950529590249 0.21040138509124517" stroke="#000000" stroke-width="1" fill="none"></path></g><g transform="translate(81.5 150) rotate(0 101 69.5)"><path d="M101.21740839071572 -0.4795717615634203 C127.91589978700503 17.738421343266968, 157.39406743077564 36.41154049430043, 203.62517360039058 70.75486445240676 M102.6982893338427 -0.8755660792812705 C122.53843441484497 13.268084845505655, 143.93305710768328 27.6207887660712, 202.21808102633807 70.98922236356884 M203.3349051792175 71.20790600590408 C163.40914039705882 94.87963245185092, 125.76736461949534 122.14301311001182, 100.00942644663155 140.02400535158813 M202.71494939830157 69.32240541372448 C163.45582637055776 97.0193054058589, 124.33143444783053 124.59180133920162, 102.81283461954445 139.33992002997547 M103.34237274713814 140.67487710528076 C68.10425008400344 117.38562336627395, 33.407542266650125 93.8007827978395, -1.4406541269272566 68.18463909439743 M102.7697020759806 139.28890965972096 C78.52150443379767 123.16820025525986, 53.95953571924009 106.99536954348906, 0.791719644330442 69.09895147476345 M-0.3092001359909773 68.60023557953537 C25.672980602737518 51.67544742250816, 49.53377016643062 34.7614701040648, 101.49349877424538 -1.320668401196599 M0.6404709508642554 70.17326916847378 C20.597312665265054 56.57076628716662, 40.29668434942141 42.608502025958146, 101.2207456221804 0.6119282701984048" stroke="#000000" stroke-width="1" fill="none"></path></g><g transform="translate(128.5 196) rotate(0 58.5 13)"><text x="58.5" y="18" font-family="Virgil, Segoe UI Emoji" font-size="20px" fill="#000000" text-anchor="middle" style="white-space: pre;" direction="ltr">tonic server</text></g><g transform="translate(441 217.5) rotate(0 34 13)"><text x="34" y="18" font-family="Virgil, Segoe UI Emoji" font-size="20px" fill="#000000" text-anchor="middle" style="white-space: pre;" direction="ltr">channel</text></g><g><g transform="translate(377.65684553640017 611.9375738014032) rotate(0 -88.1911017655998 -165.1108426035698)"><path d="M0.42770771495997906 1.0791088331490755 C-29.034846925190564 -53.973775427333365, -146.60402773793277 -275.8121855213833, -175.89467037551984 -331.3007940402886 M-0.8068844640254975 0.6000370252132416 C-30.49905048904466 -54.21400622851338, -147.65350571918722 -274.7838186553461, -176.80991124615952 -330.0728606883696" stroke="#000000" stroke-width="1" fill="none"></path></g><g transform="translate(377.65684553640017 611.9375738014032) rotate(0 -88.1911017655998 -165.1108426035698)"><path d="M-152.7483636459252 -309.86008000829077 C-163.6773392490246 -316.3248526398162, -172.90967168804113 -324.89866755851256, -174.87945168905838 -328.8595798596999 M-155.12173367961404 -310.8049762024433 C-159.36163456476146 -314.0514429009618, -163.95134691108098 -319.50473795963575, -176.91021496963634 -329.8338966382927" stroke="#000000" stroke-width="1" fill="none"></path></g><g transform="translate(377.65684553640017 611.9375738014032) rotate(0 -88.1911017655998 -165.1108426035698)"><path d="M-170.8825079716381 -300.2542061823416 C-174.96168226026603 -310.3703322816171, -177.42294060333705 -322.530866389461, -174.87945168905838 -328.8595798596999 M-173.25587800532693 -301.1991023764941 C-173.6089267342745 -306.48640321453763, -174.3189470600313 -313.9948176857237, -176.91021496963634 -329.8338966382927" stroke="#000000" stroke-width="1" fill="none"></path></g></g><g transform="translate(343.5 596) rotate(0 63.5 50)"><path d="M63.96295600943267 -0.15046867541968822 C83.53919523443095 15.32375317892991, 100.04581512139178 29.560993168847634, 126.20691370777786 51.93158814497292 M63.95450060162693 -0.3014588663354516 C85.34715865270235 18.239509755047038, 106.72899995173327 34.582923392346125, 127.69929392728955 50.61716419365257 M128.21659588627517 49.30002638883889 C107.83386252836324 65.33980938971973, 87.8529295163881 81.9298070598673, 63.440654216334224 99.8196766693145 M126.36353166494519 50.03699856903404 C110.08346128757113 65.21758505302482, 91.48597035692075 79.27539478876628, 63.62433241400868 100.14995661284775 M63.71066659502685 101.58720854111016 C41.286990073109045 81.50761746047064, 17.345124110365283 67.58280372489243, -1.2231749314814806 51.12288245745003 M64.37312673125416 99.20044436957687 C46.39686170550995 86.56580601816997, 28.16277554961853 73.01121729657054, 0.9147359291091561 50.218034028075635 M-1.1259378213435411 52.855425925925374 C16.881668280465533 35.49033230761066, 33.18741356621497 22.82060929726809, 65.4079921822995 1.1906317789107561 M0.2576083103194833 50.01074743177742 C22.105853870818393 33.788995213154706, 45.21194562048652 15.619216203317045, 63.04111604485661 -0.2873987266793847" stroke="#000000" stroke-width="1" fill="none"></path></g><g transform="translate(383 615) rotate(0 25 26)"><text x="25" y="18" font-family="Virgil, Segoe UI Emoji" font-size="20px" fill="#000000" text-anchor="middle" style="white-space: pre;" direction="ltr">tonic</text><text x="25" y="44" font-family="Virgil, Segoe UI Emoji" font-size="20px" fill="#000000" text-anchor="middle" style="white-space: pre;" direction="ltr">client</text></g><g transform="translate(45.5 10) rotate(0 605 210)"><path d="M-0.31072840765118603 -0.7709657303988934 C466.36108663249763 -4.449601382799447, 931.507461456582 -3.5786194272711875, 1210.181719326228 0.5735963471233845 M0.22158208526670933 -0.011162090674042703 C373.8721099982039 0.012757967077195786, 747.1557498648764 0.3519673448428513, 1209.7768461409955 0.14007199965417386 M1210.9787918777874 0.9650446763064823 C1211.745711321719 107.49817272623493, 1210.835352525273 212.30291667874744, 1210.5318860332493 420.53467897803796 M1210.5173165711744 0.11257915568259542 C1212.27116685299 164.4790077364391, 1211.8094296215716 327.8559388702065, 1209.894769882839 420.443242525318 M1209.6498746864497 419.9009896166623 C942.1618125049397 422.8347282491997, 674.3496284667402 422.88297308314594, 0.5919546835124493 419.84452782943845 M1210.1579679314048 419.67001683674755 C967.7509346125647 416.0200055776909, 724.9142446927726 415.99383791077884, -0.16162076555192473 420.00402604304253 M0.2157766554184593 419.7690377044501 C-1.145959692546712 299.2010098419609, -3.0863446693286756 180.00772641989755, 0.555473355809871 0.036518298288222395 M0.07723025269990973 420.36830807734265 C1.9794838794827756 261.05588095100234, 1.3385446611448226 103.54308754820516, 0.16174012313771058 0.16756398042914455" stroke="#000000" stroke-width="1" fill="none"></path></g><g transform="translate(749.5 15) rotate(0 21.5 13)"><text x="0" y="18" font-family="Virgil, Segoe UI Emoji" font-size="20px" fill="#000000" text-anchor="start" style="white-space: pre;" direction="ltr">node</text></g><g><g transform="translate(275.63249078494573 239.28556437383384) rotate(0 46.162784076237585 -1.7171669784233927)"><path d="M-0.6777422357350588 -0.8954611670225858 C14.556955746864748 -1.3322932632034394, 75.33578544038272 -2.2167581430402263, 90.71450235913976 -2.7155229937376815 M1.16730436116457 1.248817774951458 C16.84415412150867 0.4404491735482837, 78.0532370560888 -3.969816394555258, 93.00331038821025 -4.683151731798276" stroke="#000000" stroke-width="1" fill="none"></path></g><g transform="translate(275.63249078494573 239.28556437383384) rotate(0 46.162784076237585 -1.7171669784233927)"><path d="M64.00304772406986 5.945135459908158 C72.65900549284682 4.667818654714411, 77.36699307971813 1.994695621883709, 92.01353413264735 -6.172784008616432 M65.21397132408043 6.438231570319147 C77.1296609795957 3.025611608344084, 87.26418040978865 -3.1056103153892405, 92.13738175414039 -3.9242469180094446" stroke="#000000" stroke-width="1" fill="none"></path></g><g transform="translate(275.63249078494573 239.28556437383384) rotate(0 46.162784076237585 -1.7171669784233927)"><path d="M62.74345458451346 -14.53737970568179 C71.68834166082375 -10.846863342333695, 76.70139372766754 -8.559267202210219, 92.01353413264735 -6.172784008616432 M63.95437818452403 -14.044283595270802 C76.45469341530726 -9.299367710082777, 87.09055394738314 -7.278174064081398, 92.13738175414039 -3.9242469180094446" stroke="#000000" stroke-width="1" fill="none"></path></g></g><g transform="translate(297.5 152) rotate(0 27.5 39)"><text x="0" y="18" font-family="Virgil, Segoe UI Emoji" font-size="20px" fill="#000000" text-anchor="start" style="white-space: pre;" direction="ltr">push </text><text x="0" y="44" font-family="Virgil, Segoe UI Emoji" font-size="20px" fill="#000000" text-anchor="start" style="white-space: pre;" direction="ltr">intent</text><text x="0" y="70" font-family="Virgil, Segoe UI Emoji" font-size="20px" fill="#000000" text-anchor="start" style="white-space: pre;" direction="ltr"></text></g><g transform="translate(615.5 239) rotate(0 27.5 39)"><text x="0" y="18" font-family="Virgil, Segoe UI Emoji" font-size="20px" fill="#000000" text-anchor="start" style="white-space: pre;" direction="ltr">pop </text><text x="0" y="44" font-family="Virgil, Segoe UI Emoji" font-size="20px" fill="#000000" text-anchor="start" style="white-space: pre;" direction="ltr">intent</text><text x="0" y="70" font-family="Virgil, Segoe UI Emoji" font-size="20px" fill="#000000" text-anchor="start" style="white-space: pre;" direction="ltr"></text></g><g transform="translate(67.5 35) rotate(0 163 185)"><path d="M114.02419768489477 9.22081768735319 C127.66424677103127 1.2048813461414145, 145.01419940566913 0.3644650135337694, 160.7580414274742 0.02390852870303206 C176.5018834492793 -0.3166479561277053, 193.0545888364253 2.1890247818357933, 208.4872498157253 7.177478778368766 C223.91991079502532 12.165932774901737, 240.04215378903982 20.050175215062993, 253.35400730327433 29.954632507900868 C266.6658608175088 39.859089800738744, 278.29533697259205 52.429920049759005, 288.35837090113233 66.60422253539602 C298.4214048296726 80.77852502103303, 307.41674144075944 98.03468935424777, 313.7322108745161 115.00044742172295 C320.0476803082728 131.96620548919813, 324.6298945586234 150.52004557721193, 326.25118750367244 168.39877094024712 C327.8724804487215 186.2774963032823, 327.0362406127889 204.63932756800384, 323.4599685448105 222.27279959993413 C319.88369647683214 239.90627163186443, 312.77242320987364 258.1189557160915, 304.79355509580205 274.19960313182895 C296.81468698173046 290.2802505475664, 287.05672557421366 306.2244889767769, 275.58675986038105 318.7566840943591 C264.11679414654844 331.2888792119413, 250.12332705239598 341.31273054181673, 235.97376081280655 349.39277383732235 C221.8241945732171 357.47281713282797, 206.38627616812147 363.99974450892995, 190.68936242284445 367.2369438673927 C174.99244867756744 370.47414322585547, 157.5175659203551 371.2457955964346, 141.7922783411445 368.8159699880988 C126.06699076193391 366.386144379763, 110.79795065660485 360.33222843908226, 96.33763694758083 352.6579902173779 C81.87732323855681 344.9837519956736, 67.10449565749853 334.71484750414186, 55.030396087000426 322.7705406578727 C42.95629651650232 310.8262338116035, 32.234827837189634 296.41593349216316, 23.893039524592183 280.99214913976283 C15.551251211994732 265.5683647873625, 8.934425169326909 247.62834043145773, 4.979666211415719 230.22783454347052 C1.0249072535045278 212.8273286554833, -0.6765968028254955 194.54916072267167, 0.1644857771250372 176.58911381183964 C1.0055683570755698 158.6290669010076, 4.746746365796777 139.46961053115393, 10.026161691118915 122.46755307847826 C15.305577016441053 105.4654956258026, 22.397306094864987 89.15459897671863, 31.84097772905787 74.57676909578568 C41.28464936325075 59.99893921485272, 53.71818282298825 45.88263327585871, 66.6881914962762 35.000573792880516 C79.65820016956417 24.118514309902324, 101.41758829126674 13.940858986638208, 109.66102976878561 9.28441219791651 C117.90447124630448 4.62796540919481, 114.29792381201946 6.877610180267614, 116.14884036138943 7.061893060550318 C117.9997569107594 7.246175940833022, 119.72415782962308 7.328019810385262, 120.76652906500547 10.390109479612732 M217.0252591589104 10.638691132492795 C231.9668624700844 13.9520969777001, 246.78893336703115 27.035987163191876, 259.609113810572 37.643406722723824 C272.42929425411285 48.25082628225577, 284.4666376358037 60.08108050468323, 293.94634182015557 74.2832084896845 C303.42604600450744 88.48533647468577, 310.97377315463325 105.35037969819787, 316.48733891668337 122.85617463273144 C322.0009046787335 140.361969567265, 326.3442708461262 161.0926774623098, 327.0277363924562 179.3179780968859 C327.71120193878613 197.54327873146198, 324.8114506603625 214.7413954888582, 320.5881321946631 232.20797844018796 C316.3648137289637 249.67456139151773, 310.1181278278187 268.8749874723309, 301.6878255982599 284.1174758048645 C293.25752336870113 299.35996413739815, 282.21491275598623 312.19476464541765, 270.00631881731033 323.66290843538974 C257.7977248786344 335.1310522253618, 242.8471307499072 345.48207984949903, 228.43626196620434 352.9263385446971 C214.0253931825015 360.3705972398952, 199.54062545944515 365.99862933893866, 183.54110611509324 368.3284606065783 C167.54158677074133 370.6582918742179, 148.50564111316186 370.2986556792119, 132.4391459000928 366.90532615053485 C116.37265068702374 363.5119966218578, 100.98521434025382 356.42961648900075, 87.14213483667892 347.96848343451603 C73.29905533310402 339.5073503800313, 60.57940760678491 328.50773509934936, 49.38066887864339 316.13852782362636 C38.18193015050187 303.76932054790336, 27.57885009673134 289.6659003346387, 19.94970246782981 273.7532397801781 C12.320554838928278 257.8405792257175, 6.840229782567533 238.38265746250593, 3.6057831052341953 220.6625644968627 C0.3713364279008573 202.94247153121947, -0.7673249345108435 185.21153505550387, 0.5430224038297808 167.4326819863187 C1.8533697421704052 149.65382891713352, 5.177703000511097 130.9387553992209, 11.467867135277942 113.9894460817517 C17.758031270044786 97.0401367642825, 27.797146795492807 79.70370164890852, 38.28400721243085 65.73682608150354 C48.770867629368894 51.769950514098554, 61.173937937330166 40.11980446976902, 74.38902963690622 30.18819267732181 C87.60412133648227 20.256580884874595, 102.22065034416403 10.933473844903844, 117.57455740988713 6.14715532682024 C132.92846447561024 1.3608368087366358, 150.64119579519732 0.7553413720778034, 166.51247203124484 1.4702815688201838 C182.38374826729236 2.1852217655625643, 204.17961836456954 8.84617014703493, 212.80221482617222 10.436796507274522 C221.4248112877749 12.027422867514113, 217.5170247725299 10.302987430029907, 218.24805080086094 11.014039730257736 C218.97907682919197 11.725092030485564, 218.354279756206 11.707430419380321, 217.18837099615848 14.703110308641499" stroke="#000000" stroke-width="1" fill="none"></path></g><g transform="translate(219.5 52) rotate(0 32.5 13)"><text x="0" y="18" font-family="Virgil, Segoe UI Emoji" font-size="20px" fill="#000000" text-anchor="start" style="white-space: pre;" direction="ltr">thread</text></g><g transform="translate(657.5 81) rotate(0 104.5 94)"><path d="M103.1995235402137 1.2008096557110548 C132.03980270451865 23.28647885480896, 158.73422337821685 49.06026525665075, 207.7967685777694 93.81601750664413 M105.69927525427192 0.7157989600673318 C137.33688133698888 30.155830100942403, 168.57134562847205 57.49799734570086, 209.68209680821747 94.49502946529537 M210.11383047886193 96.71104514412582 C172.8938555309642 127.30082051796839, 134.78337526788005 161.39783975254744, 105.02702591009438 188.56770616583526 M208.66607150342315 95.93754173908383 C178.55731783255004 123.33108272148297, 148.12532454698345 149.231688952595, 105.2736784806475 188.7339393356815 M106.3432790953666 189.42521244101226 C73.70258471955545 160.91140259192326, 42.20849692895076 132.79604441779665, 0.9067144710570574 95.01423239521682 M105.42810147907585 188.8864964703098 C77.91447474448941 166.15989461387508, 51.493107752548525 141.076262244815, 0.8834858229383826 95.74415905866772 M0.05370190925896168 95.24486183933914 C24.821171911945566 72.1061752115842, 47.725774996029216 52.0587976042647, 106.74424490518868 0.4458183627575636 M0.0621168902143836 95.44440753851086 C32.17076135803946 67.01159521271475, 64.87790229781531 36.70264347582125, 105.18885648157448 0.29122208151966333" stroke="#000000" stroke-width="1" fill="none"></path></g><g transform="translate(848.5 570) rotate(0 145 144)"><path d="M144.67539785351295 0.8083707515231071 C191.6182923144023 45.550377423709186, 239.83923427520003 93.91776499344071, 290.76333779908737 146.5806912557411 M144.26408297598178 0.7876615201873944 C191.42614427263192 43.957346586062286, 234.42569111264459 88.57900714990208, 290.02393865661764 145.10915186390218 M290.1509178130679 146.55915855628794 C247.83025616662556 185.02972987740503, 205.62017763910455 225.8936183360024, 145.1110510119074 288.7945006049172 M289.680343982696 145.1688164306981 C248.07311921884568 188.3641825037549, 203.59336856141022 231.59297588297716, 145.15660217524368 288.6316836408693 M144.13136387905672 288.5363154445483 C107.59931219237406 248.34016580372304, 67.12648715652635 209.62735855495663, -0.0500257234634891 143.70430285682414 M145.25036084333362 287.81051959387145 C111.16715123106162 255.31537338972794, 77.1336037051295 221.22269120237434, -0.6299377270667024 145.53780400089948 M-1.3595244851660773 143.75072256818314 C44.993216729589136 99.99680666947977, 89.1649536282091 56.07633953689296, 144.52321069866892 0.8584784214098434 M0.36968513920470436 145.03912116893332 C51.89997906695052 93.1865768705459, 103.1652890696538 42.622599947619456, 145.7559967335453 0.26931533357411647" stroke="#000000" stroke-width="1" fill="none"></path></g><g><g transform="translate(571.7950482273475 234.81471614101469) rotate(0 49.04126847364819 -9.152588006084187)"><path d="M0.7256805527955292 -1.074036007001996 C16.93260296363345 -4.420035609852319, 81.98250364605143 -16.25496725117686, 98.43501283362275 -19.281667156151208 M-0.3524758863262831 0.9764911439828574 C15.59268765402919 -2.2319455169586293, 80.89783995447486 -14.58602334380048, 97.49111802348634 -17.72804725068313" stroke="#000000" stroke-width="1" fill="none"></path></g><g transform="translate(571.7950482273475 234.81471614101469) rotate(0 49.04126847364819 -9.152588006084187)"><path d="M69.91294357773168 -2.386036503294619 C81.95417791713565 -6.9889840824945715, 92.3344615081945 -13.151316157475815, 96.81608526067575 -18.23454088057083 M70.96338770106686 -2.397758990692111 C78.32293759154601 -6.707046673664513, 84.45346709274999 -10.867309411922543, 97.35557479535927 -18.535212172108412" stroke="#000000" stroke-width="1" fill="none"></path></g><g transform="translate(571.7950482273475 234.81471614101469) rotate(0 49.04126847364819 -9.152588006084187)"><path d="M66.09303164016403 -22.548582849802237 C79.79361912256846 -19.120569913407618, 91.69979148384975 -17.228841174406917, 96.81608526067575 -18.23454088057083 M67.14347576349921 -22.56030533719973 C75.5741441359351 -21.78593934959225, 82.6684358319724 -20.85920002132828, 97.35557479535927 -18.535212172108412" stroke="#000000" stroke-width="1" fill="none"></path></g></g><g transform="translate(355.5 468) rotate(0 27.5 26)"><text x="0" y="18" font-family="Virgil, Segoe UI Emoji" font-size="20px" fill="#000000" text-anchor="start" style="white-space: pre;" direction="ltr">send </text><text x="0" y="44" font-family="Virgil, Segoe UI Emoji" font-size="20px" fill="#000000" text-anchor="start" style="white-space: pre;" direction="ltr">intent</text></g><g transform="translate(740.5 160) rotate(0 16.5 13)"><text x="0" y="18" font-family="Virgil, Segoe UI Emoji" font-size="20px" fill="#000000" text-anchor="start" style="white-space: pre;" direction="ltr">App</text></g><g transform="translate(948.5 633) rotate(0 38 13)"><text x="0" y="18" font-family="Virgil, Segoe UI Emoji" font-size="20px" fill="#000000" text-anchor="start" style="white-space: pre;" direction="ltr">network</text></g><g transform="translate(1091 236.5) rotate(0 64.5 18)"><path d="M-1.7132768649607897 -1.5875485222786665 C26.572579779941595 -0.1932412547711282, 55.16092475187035 1.9716670947428794, 128.19726675562563 -0.7364391963928938 M-0.5439894637092948 -0.9154027113690972 C35.061622927431024 0.66548582312651, 69.05622858181597 0.650794500084594, 129.9595671752468 -0.7328836629167199 M128.9199768882245 1.2043714839965105 C129.0561891557649 16.203516059368855, 129.16113535184417 28.363093450292958, 128.67823588661852 36.124482961371555 M129.18269620928916 0.9287185957655311 C129.513059148863 12.104262300021952, 128.80597780115906 25.031178341619682, 128.25526930484924 35.10461437609048 M129.9410613756627 37.97366461344065 C78.22148280097173 35.99186217927375, 31.70612595174461 34.85847264670768, -0.05385536141693592 36.347849043086185 M128.57540609035644 36.42738759424539 C97.0400874773972 37.04789781327361, 63.35012199096383 36.226819542599856, 0.8538669804111123 35.01301142480226 M-0.668394984677434 35.905694635584965 C-0.4101121679320932 26.678684030473242, 1.7196333750709891 20.157638467475778, -0.31620669551193714 0.3866009432822466 M-0.8522794982418418 35.61634036805482 C0.39783789455890656 22.96112021449954, -0.4535095816850662 7.861654722504319, 0.49647958669811487 -0.4338704952970147" stroke="#000000" stroke-width="1" fill="none"></path></g><g transform="translate(1139.5 241) rotate(0 34 13)"><text x="34" y="18" font-family="Virgil, Segoe UI Emoji" font-size="20px" fill="#000000" text-anchor="middle" style="white-space: pre;" direction="ltr">channel</text></g><g><g transform="translate(1049.6963875921424 619.8157228501277) rotate(0 26.679319663356637 -171.31046871811833)"><path d="M-0.22223469503223892 0.509036098793149 C8.947629335414529 -56.50405640766251, 46.20625514781057 -285.856291047495, 55.15668596597707 -343.12997353502976 M-1.79804663926363 -0.2693238946795464 C7.243898120190858 -57.013546469437365, 44.87053724063515 -284.8053883122766, 54.4614410454998 -341.75752989338207" stroke="#000000" stroke-width="1" fill="none"></path></g><g transform="translate(1049.6963875921424 619.8157228501277) rotate(0 26.679319663356637 -171.31046871811833)"><path d="M60.802613777832605 -311.4621185637644 C57.978107697586545 -323.45198836234584, 56.26219286330918 -328.8546269844961, 55.132359746716375 -339.8409034679221 M60.94324746800355 -312.9332603221393 C57.84884297270929 -322.65644020024666, 54.97805769380007 -333.3779469791284, 54.96151979906803 -342.4560164012523" stroke="#000000" stroke-width="1" fill="none"></path></g><g transform="translate(1049.6963875921424 619.8157228501277) rotate(0 26.679319663356637 -171.31046871811833)"><path d="M40.55989619276927 -314.83144893599086 C44.0106347329892 -325.73442359360354, 48.59948598812359 -330.0876556928612, 55.132359746716375 -339.8409034679221 M40.70052988294022 -316.30259069436573 C45.17616752662766 -324.8579607318353, 49.87027141346 -334.3203178574379, 54.96151979906803 -342.4560164012523" stroke="#000000" stroke-width="1" fill="none"></path></g></g><g><g transform="translate(1089.9430622009568 246.1274295218438) rotate(0 -130.07717657621174 -10.957868955572508)"><path d="M-0.04506579749286166 -0.9711107779294252 C-43.271617680912726 -4.842332998470532, -216.1878567597544 -19.359938405235937, -259.3248521398784 -23.049190029463567 M-1.5278640705160798 1.133452118318528 C-44.88818404454168 -2.557271731694357, -217.1591357425688 -17.727717839205347, -260.1092873549306 -21.56145581504221" stroke="#000000" stroke-width="1" fill="none"></path></g><g transform="translate(1089.9430622009568 246.1274295218438) rotate(0 -130.07717657621174 -10.957868955572508)"><path d="M-232.74211737819206 -28.777036846099264 C-240.04880753844375 -25.682193603237845, -248.92346661656677 -23.718434514971783, -260.4769328849607 -20.178835899512123 M-231.20201805819016 -28.6427610343749 C-241.0693993594758 -26.22602339505405, -250.2561241357866 -24.251312967274536, -260.9767207250216 -21.43766347871984" stroke="#000000" stroke-width="1" fill="none"></path></g><g transform="translate(1089.9430622009568 246.1274295218438) rotate(0 -130.07717657621174 -10.957868955572508)"><path d="M-234.55153170719424 -8.335754543566459 C-241.34054730514725 -11.431315588181091, -249.6671861763172 -15.658640309888842, -260.4769328849607 -20.178835899512123 M-233.01143238719234 -8.201478731842094 C-242.10073337095827 -12.386290350878669, -250.7042891063246 -16.999746494443208, -260.9767207250216 -21.43766347871984" stroke="#000000" stroke-width="1" fill="none"></path></g></g><g><g transform="translate(772.3386595940472 273.89497987134774) rotate(0 72.22626513055263 185.58602817204994)"><path d="M1.093783949688077 0.4450353931635618 C25.24875818359891 62.536917590431344, 120.55396392137007 309.84563389237707, 144.24364846717054 371.53898131486454 M0.20888179393485196 -0.3669249707646669 C24.25743001830989 61.48505092440864, 119.02234514350265 307.8356074547927, 143.24492128764697 369.8792985332241" stroke="#000000" stroke-width="1" fill="none"></path></g><g transform="translate(772.3386595940472 273.89497987134774) rotate(0 72.22626513055263 185.58602817204994)"><path d="M124.23935801046227 347.1342376235794 C129.57158808060484 350.7517994678287, 132.81012835191763 357.5306155091288, 142.01747428638348 371.7851005428513 M122.9489569959629 348.1868667246695 C129.2499442662359 352.74088193507345, 133.69359842409477 359.34082174609705, 143.61385713995853 370.78182546412995" stroke="#000000" stroke-width="1" fill="none"></path></g><g transform="translate(772.3386595940472 273.89497987134774) rotate(0 72.22626513055263 185.58602817204994)"><path d="M143.3761684380665 339.72461624028466 C143.9991500398403 345.31578900927866, 142.59094890669428 353.8937865078739, 142.01747428638348 371.7851005428513 M142.08576742356712 340.7772453413748 C143.60531590754113 347.2276888302559, 143.29461445692922 355.6684774657784, 143.61385713995853 370.78182546412995" stroke="#000000" stroke-width="1" fill="none"></path></g></g><g transform="translate(948 177) rotate(0 27.5 39)"><text x="0" y="18" font-family="Virgil, Segoe UI Emoji" font-size="20px" fill="#000000" text-anchor="start" style="white-space: pre;" direction="ltr">pop </text><text x="0" y="44" font-family="Virgil, Segoe UI Emoji" font-size="20px" fill="#000000" text-anchor="start" style="white-space: pre;" direction="ltr">intent</text><text x="0" y="70" font-family="Virgil, Segoe UI Emoji" font-size="20px" fill="#000000" text-anchor="start" style="white-space: pre;" direction="ltr"></text></g><g transform="translate(776.5 489) rotate(0 45 39)"><text x="0" y="18" font-family="Virgil, Segoe UI Emoji" font-size="20px" fill="#000000" text-anchor="start" style="white-space: pre;" direction="ltr">gossip</text><text x="0" y="44" font-family="Virgil, Segoe UI Emoji" font-size="20px" fill="#000000" text-anchor="start" style="white-space: pre;" direction="ltr">validated</text><text x="0" y="70" font-family="Virgil, Segoe UI Emoji" font-size="20px" fill="#000000" text-anchor="start" style="white-space: pre;" direction="ltr">intent</text></g><g><g transform="translate(1076.5795077287444 648.4755860024927) rotate(0 28.48115567884338 -184.96874924799678)"><path d="M-0.9720508228987454 0.5347278546541929 C8.548738348803575 -60.90684613762196, 48.20287392746238 -307.1510536386518, 57.934362180585595 -368.7372683627395 M0.7184837657399474 -0.23014396699145445 C9.997133074070419 -62.00506278179359, 47.64309942191047 -308.666211134631, 56.906659523545386 -370.47222635064776" stroke="#000000" stroke-width="1" fill="none"></path></g><g transform="translate(1076.5795077287444 648.4755860024927) rotate(0 28.48115567884338 -184.96874924799678)"><path d="M63.722436938215274 -341.31593195207404 C61.906183633443035 -353.0333537240125, 59.32027011360736 -362.000759555895, 58.74224938131738 -368.71420183878894 M62.60883483361848 -342.0031229439004 C60.39878026064172 -351.37410912776676, 58.21300671360403 -362.53159974981077, 57.498271682819905 -370.76168601036574" stroke="#000000" stroke-width="1" fill="none"></path></g><g transform="translate(1076.5795077287444 648.4755860024927) rotate(0 28.48115567884338 -184.96874924799678)"><path d="M43.4324992915424 -344.3881351810233 C49.06991919367021 -354.81226063392546, 53.939927334344276 -362.6507272349885, 58.74224938131738 -368.71420183878894 M42.318897186945605 -345.07532617284966 C47.82180630811643 -353.23235882671224, 53.34743857326902 -363.2222260558952, 57.498271682819905 -370.76168601036574" stroke="#000000" stroke-width="1" fill="none"></path></g></g><g><g transform="translate(1118.7742492779478 680.7689096277551) rotate(0 22.037745430705854 -200.46282169660407)"><path d="M0.3233411025255919 0.7983600128442048 C7.9446740384070225 -66.24473864457833, 37.649827556892305 -334.80023420114446, 45.041534409399716 -401.72400340605236 M-0.966043547987938 0.17189507424831385 C6.630499379825409 -66.70968303769158, 37.012525602339785 -333.0428824063801, 44.53248344714532 -400.1630023884372" stroke="#000000" stroke-width="1" fill="none"></path></g><g transform="translate(1118.7742492779478 680.7689096277551) rotate(0 22.037745430705854 -200.46282169660407)"><path d="M52.887692100111806 -369.60338074975687 C49.796466113359095 -377.2790548679373, 49.723841786418014 -385.98564835947013, 46.03141670095513 -401.1559077351139 M51.00230880987313 -370.9401838610046 C48.91884947376587 -378.3866163155586, 47.06367597371434 -387.35994029635884, 44.530523632455264 -400.7652172920079" stroke="#000000" stroke-width="1" fill="none"></path></g><g transform="translate(1118.7742492779478 680.7689096277551) rotate(0 22.037745430705854 -200.46282169660407)"><path d="M32.49670997170587 -371.91159439343653 C34.3665899145366 -379.0817900853476, 39.244788645859956 -387.22796146191956, 46.03141670095513 -401.1559077351139 M30.61132668146719 -373.24839750468425 C34.09838100445671 -380.10856612255594, 37.81607369536994 -388.4510540948018, 44.530523632455264 -400.7652172920079" stroke="#000000" stroke-width="1" fill="none"></path></g></g><g transform="translate(1153.5 509) rotate(0 53 13)"><text x="0" y="18" font-family="Virgil, Segoe UI Emoji" font-size="20px" fill="#000000" text-anchor="start" style="white-space: pre;" direction="ltr">push intent</text></g><g transform="translate(927.5 869) rotate(0 60.5 13)"><text x="0" y="18" font-family="Virgil, Segoe UI Emoji" font-size="20px" fill="#000000" text-anchor="start" style="white-space: pre;" direction="ltr">libP2P magic</text></g><g transform="translate(10 591) rotate(0 112.5 60)"><path d="M-1.5142849398475884 0.553524617053628 C66.00470488628359 -0.24305155153365388, 135.3342075428591 -0.5429507314538504, 226.6966794338363 1.0452707140117883 M-0.5616804488298297 -0.7701934647091031 C45.33572179816147 0.0783918283424524, 89.91007045121967 -0.12059873913763486, 225.47797007737137 -0.8345232042587399 M223.6971178967505 0.5779940467327833 C225.4655091553926 42.43070994503798, 224.76584307253356 82.0270152445883, 224.75528517551714 119.37070739082996 M224.87522554304445 -0.9878116985782981 C224.38557309303428 31.945209410972907, 225.80680057797576 64.51591152790937, 225.68386039044702 120.62490727100526 M225.08608890242988 121.40604919555251 C137.4288439285879 120.31049437120556, 50.48125727737776 121.00491148400998, -0.7817733715912103 120.9278519206845 M225.0507527792623 120.28779177356837 C175.2842012845541 121.90649397002927, 127.06428826231904 122.4156326878275, 0.43051236564427614 120.0059540148537 M-1.7814715187996626 118.58831602148716 C0.7500703699886799 73.39412737824026, -1.4038994543254375 28.87260528467597, -1.4182467143982649 -0.18715071864426136 M-0.5015237936750054 120.94495551381264 C0.7807403864338998 96.66351062525067, 0.8231932284310464 71.6186847323552, 0.8680527498945594 -0.22570983972400427" stroke="#000000" stroke-width="1" fill="none"></path></g><g transform="translate(172 595.5) rotate(0 28.5 13)"><text x="28.5" y="18" font-family="Virgil, Segoe UI Emoji" font-size="20px" fill="#000000" text-anchor="middle" style="white-space: pre;" direction="ltr">Client</text></g><g transform="translate(45 604) rotate(0 63.5 50)"><path d="M62.21352550573647 1.089687405154109 C86.5948629044462 18.94895818644203, 111.0149291986134 37.83833749528043, 125.00430157966912 52.64155220799148 M64.33476370479912 -0.621205641888082 C80.35360333411955 13.397190621672198, 98.03291095127352 26.962856075624007, 127.43148258235306 51.09573276434094 M127.35062983818352 52.252918956801295 C112.99927238135598 61.223212149580945, 99.77110854287632 71.29219702904113, 63.41646275110543 100.07345861010253 M126.3414979269728 50.44643290434033 C102.75179591079242 69.30142938015051, 77.72314087211154 89.81337037212215, 64.8988786926493 99.77337287459522 M64.17897448129952 99.27718680910766 C42.774899296229705 83.54851402910427, 18.494612453645097 67.48135442566127, -1.6263149660080671 51.15027582459152 M63.40365874674171 100.01136396918446 C39.035329738678406 81.30654368424788, 13.50090583902783 61.19631937459111, 0.8536777189001441 50.87716902885586 M0.6026732046157122 50.63826000504196 C23.39060678546317 33.299030715133995, 48.01128485863097 12.237430761940772, 62.04766032285988 -1.3885552305728197 M-0.05239275190979242 51.94947256240994 C22.807325287004932 32.607151278313246, 46.24680600895547 14.212147032395002, 64.76032668258995 -0.27070470061153173" stroke="#000000" stroke-width="1" fill="none"></path></g><g transform="translate(84.5 623) rotate(0 25 26)"><text x="25" y="18" font-family="Virgil, Segoe UI Emoji" font-size="20px" fill="#000000" text-anchor="middle" style="white-space: pre;" direction="ltr">tonic</text><text x="25" y="44" font-family="Virgil, Segoe UI Emoji" font-size="20px" fill="#000000" text-anchor="middle" style="white-space: pre;" direction="ltr">client</text></g><g><g transform="translate(56.3114298545612 629.5240581901872) rotate(0 41.46003622322837 -175.94581906726017)"><path d="M-0.8970551300793885 -0.9481840621680021 C13.13958329006884 -59.67952130783781, 69.88765430226195 -292.7617566177837, 83.81712757653615 -351.2618503484389 M0.8328521972894669 1.168415359854698 C14.799830156488753 -57.403032352295355, 69.72068222842384 -294.42073285742026, 83.18782803430281 -353.060053494375" stroke="#000000" stroke-width="1" fill="none"></path></g><g transform="translate(56.3114298545612 629.5240581901872) rotate(0 41.46003622322837 -175.94581906726017)"><path d="M85.26084511152898 -322.27143881062 C86.61805832799939 -332.1280732162677, 84.49983470015297 -337.9977091611095, 84.03638306087873 -352.4603656479975 M87.77935100052004 -323.4736713232654 C86.08232977404397 -331.7205074147757, 85.20722521925295 -339.5442005973666, 83.84424062180392 -353.3680422283595" stroke="#000000" stroke-width="1" fill="none"></path></g><g transform="translate(56.3114298545612 629.5240581901872) rotate(0 41.46003622322837 -175.94581906726017)"><path d="M65.2660211785377 -326.88955728836805 C71.99402371010537 -335.36626314818704, 75.20324938968635 -340.00544104206784, 84.03638306087873 -352.4603656479975 M67.78452706752876 -328.0917898010135 C71.58901764850197 -335.196940963724, 76.24451387308233 -341.743255073718, 83.84424062180392 -353.3680422283595" stroke="#000000" stroke-width="1" fill="none"></path></g></g><g transform="translate(110 455) rotate(0 27.5 26)"><text x="0" y="18" font-family="Virgil, Segoe UI Emoji" font-size="20px" fill="#000000" text-anchor="start" style="white-space: pre;" direction="ltr">send </text><text x="0" y="44" font-family="Virgil, Segoe UI Emoji" font-size="20px" fill="#000000" text-anchor="start" style="white-space: pre;" direction="ltr">intent</text></g><g><g transform="translate(271.2249358699996 208.0299388552018) rotate(0 48.52931530958574 6.081890202687646)"><path d="M-1.016262512281537 -0.007730342075228602 C14.993052986321887 2.1904903427143836, 79.63594608186702 11.00225579757489, 95.96739330959642 13.22117312237915 M0.6510609394311904 -1.0573927170038222 C17.019356418980202 0.7634881922235037, 82.16175207084933 9.243149963135492, 98.07489313145304 11.28507396318313" stroke="#000000" stroke-width="1" fill="none"></path></g><g transform="translate(271.2249358699996 208.0299388552018) rotate(0 48.52931530958574 6.081890202687646)"><path d="M68.78977857800498 15.934009384981316 C77.95869258972449 15.935043405397206, 86.66548066661821 12.263097731954913, 99.0358539350065 9.824022292348708 M68.84067982985005 16.98833719795845 C79.90513624861552 15.684819487640146, 91.10186943481976 13.344624400841422, 98.91165983730131 10.85073196534362" stroke="#000000" stroke-width="1" fill="none"></path></g><g transform="translate(271.2249358699996 208.0299388552018) rotate(0 48.52931530958574 6.081890202687646)"><path d="M71.41645389094437 -4.41840028036874 C79.82213867105561 1.516013227230859, 87.76029581489883 3.7996919714095734, 99.0358539350065 9.824022292348708 M71.46735514278943 -3.3640724673916047 C81.64213619949851 3.0233941422297077, 91.84404275176983 8.391467793505914, 98.91165983730131 10.85073196534362" stroke="#000000" stroke-width="1" fill="none"></path></g></g></svg>