<svg version="1.1" xmlns="http://www.w3.org/2000/svg" viewBox="0 0 1291.666666666666 3283.333333333333" width="1291.666666666666" height="3283.333333333333">
  <!-- svg-source:excalidraw -->
  
  <defs>
    <style>
      @font-face {
        font-family: "Virgil";
        src: url("https://excalidraw.com/Virgil.woff2");
      }
      @font-face {
        font-family: "Cascadia";
        src: url("https://excalidraw.com/Cascadia.woff2");
      }
    </style>
  </defs>
  <rect x="0" y="0" width="1291.666666666666" height="3283.333333333333" fill="#ffffff"></rect><g><g transform="translate(938.955795196089 523.309523809523) rotate(0 -0.20228272864960672 275.2048982633973)"><path d="M1.2436225421726705 -1.0962667830288408 C1.16658321408421 91.19299534500722, 0.9083552265162365 462.48848059580143, -0.1243926688736563 554.5694905163994 M-1.5257922913134099 -4.159693989604712 C-1.8158788663348537 87.27257810305639, -1.5403358126684932 457.61666144306884, -1.2190812927192338 550.6149288665405" stroke="#000000" stroke-width="1" fill="none"></path></g><g transform="translate(938.955795196089 523.309523809523) rotate(0 -0.20228272864960672 275.2048982633973)"><path d="M-13.09735857606048 525.4517141511199 C-5.366147838773394 527.2537972632854, -6.690493613674808 540.6291044629088, -2.207618894845832 552.9163366135111 M-12.582816216201728 522.9259668929037 C-8.792003824790916 532.1479016343557, -3.6323428804303424 544.775087472966, -2.1189549405580648 548.8140740383318" stroke="#000000" stroke-width="1" fill="none"></path></g><g transform="translate(938.955795196089 523.309523809523) rotate(0 -0.20228272864960672 275.2048982633973)"><path d="M7.4238156542008085 525.4141562345246 C8.751292794832965 527.4102498525042, 1.0229897074678123 540.797277594623, -2.207618894845832 552.9163366135111 M7.93835801405956 522.8884089763085 C3.9042500221134695 532.4127765808969, 1.2384925802533342 545.0542845244596, -2.1189549405580648 548.8140740383318" stroke="#000000" stroke-width="1" fill="none"></path></g></g><g transform="translate(836.178571428577 417.30952380952294) rotate(0 82 52)"><path d="M-0.7988155409693718 0.37502186745405197 C51.0810395307839 -5.218235109001398, 104.79897596240045 -2.0691469646990295, 165.63183826953173 2.4651085659861565 M-0.21313372626900673 -0.17810073122382164 C53.24751683771611 0.8006927561759944, 107.22632154598834 3.5384865593910213, 162.5751690529287 1.985353920608759 M166.43675274401903 0.4917065426707268 C162.18727958381177 25.24700526893139, 164.50830328643323 49.48148337751627, 163.2765328362584 101.51653902977705 M162.70281740650535 -0.30097058042883873 C163.9260143120587 33.91543818041683, 163.00879813030363 68.39744523838164, 162.71007999405265 102.27139291539788 M167.09334916621447 103.05760233849287 C125.38164418563247 101.79266485884786, 89.14718072116375 102.35943183615804, 3.8376168683171272 101.60385053604841 M162.18773445114493 104.12969121709466 C117.30091544538735 102.30405679494143, 71.89001425579188 103.74597504884005, 0.7736980579793453 103.17895672097802 M-3.835618071258068 106.88008230179548 C-0.5319562590122224 76.441262114048, -1.497507873773575 48.11589865237474, 1.1913110688328743 1.7766036316752434 M-1.9445398189127445 103.11840126290917 C-1.217181733697653 76.37757925018668, -0.4138397489488126 51.37037311270833, 1.3259597681462765 1.4039681889116764" stroke="#000000" stroke-width="1" fill="none"></path></g><g transform="translate(704.1666666666722 1085) rotate(0 200 118)"><path d="M-1.309404652852729 0.652930145920232 C98.55147818647364 4.4995423242531265, 196.90532565890243 2.7476103329520667, 398.807364623533 -1.7198574358931036 M-0.2351118451042399 -0.9386830267632977 C138.26271656443186 -1.8445726329590748, 276.5699019632029 -0.13223043189091177, 400.77092681335273 0.4671433530525193 M400.0174780197588 -3.0074618192406977 C399.4388465581466 84.46241553661463, 396.9075845752186 164.5336979122606, 399.1908169808381 237.8541588401985 M399.73934111365645 0.4735133131264134 C397.1976448836111 81.90906707876668, 398.67363505920514 166.00651740909657, 399.95198280972585 236.4772002783432 M399.5531211764309 236.84051550009295 C287.49312763887474 233.55425313795743, 180.06948929594444 235.0571440387157, -1.2698695070526154 236.69800106320758 M399.57164315050926 235.66460623611465 C278.18930776528185 236.83653209445094, 157.88055919009014 236.1793728096945, 0.0899481621920839 235.3580411740817 M-1.3287732559905199 234.8342720816033 C-3.275652828514172 185.60134236516353, -0.3831689872661368 135.8417336577722, -3.064191866133132 -3.1090805124426213 M0.7705424582771137 237.01882749455714 C4.691200856455886 160.15640414919017, 3.024772383780324 87.48426859107146, -0.5890473185874625 0.73424286459264" stroke="#000000" stroke-width="1" fill="none"></path></g><g transform="translate(860.178571428577 466.30952380952294) rotate(0 49.5 13)"><text x="0" y="18" font-family="Virgil, Segoe UI Emoji" font-size="20px" fill="#000000" text-anchor="start" style="white-space: pre;" direction="ltr">account B</text></g><g transform="translate(550 1559.3333333333335) rotate(0 63.5 13)"><text x="0" y="18" font-family="Virgil, Segoe UI Emoji" font-size="20px" fill="#000000" text-anchor="start" style="white-space: pre;" direction="ltr">fetch intents</text></g><g><g transform="translate(395.0088984232656 523.8690842191745) rotate(0 -1.1797687068295204 275.3730419915308)"><path d="M0.18991366401314735 -0.677524421364069 C-0.11552957289673788 91.14998281685473, -1.3832220103968136 459.480316711861, -1.6112001899336519 551.4236084044255 M-1.169520391719416 1.5811713120806963 C-1.6507301708851796 93.01191731679093, -2.459970205137899 457.7982083649387, -2.5494510776721926 549.5950063773241" stroke="#000000" stroke-width="1" fill="none"></path></g><g transform="translate(395.0088984232656 523.8690842191745) rotate(0 -1.1797687068295204 275.3730419915308)"><path d="M-13.890147416546867 521.4174935502168 C-8.467998587491955 531.1065773802239, -5.951737305514595 538.1182757591093, -3.260693868937442 549.1942292124775 M-13.661233906328604 521.3015452959743 C-10.680373825074566 526.907462654898, -8.171518811085782 533.2247245799371, -2.543242033886263 549.3117589679357" stroke="#000000" stroke-width="1" fill="none"></path></g><g transform="translate(395.0088984232656 523.8690842191745) rotate(0 -1.1797687068295204 275.3730419915308)"><path d="M6.631030057374814 521.4532352576308 C5.517972045678766 531.1634140645251, 1.4991630693649247 538.1637303202648, -3.260693868937442 549.1942292124775 M6.859943567593077 521.3372870033883 C5.648865623821804 527.0996063256104, 3.96578205595869 533.4095671568169, -2.543242033886263 549.3117589679357" stroke="#000000" stroke-width="1" fill="none"></path></g></g><g transform="translate(344.83333333333894 456.33333333333326) rotate(0 49 25.5)"><text x="0" y="18.5" font-family="Virgil, Segoe UI Emoji" font-size="20px" fill="#000000" text-anchor="start" style="white-space: pre;" direction="ltr">account A</text><text x="0" y="44" font-family="Virgil, Segoe UI Emoji" font-size="20px" fill="#000000" text-anchor="start" style="white-space: pre;" direction="ltr"></text></g><g transform="translate(541.6666666666665 659.3333333333334) rotate(0 153.5 13)"><text x="0" y="18" font-family="Virgil, Segoe UI Emoji" font-size="20px" fill="#000000" text-anchor="start" style="white-space: pre;" direction="ltr">send to the orderbook network</text></g><g transform="translate(530.3333333333388 153.33333333333337) rotate(0 125 21)"><text x="125" y="15" font-family="Virgil, Segoe UI Emoji" font-size="16px" fill="#000000" text-anchor="middle" style="white-space: pre;" direction="ltr">COMMON DATA FORMAT :</text><text x="125" y="36" font-family="Virgil, Segoe UI Emoji" font-size="16px" fill="#000000" text-anchor="middle" style="white-space: pre;" direction="ltr">(same idea as ERC or FA spec)</text></g><g transform="translate(199.50000000000574 1154.3333333333335) rotate(0 159.49999999999997 49)"><text x="0" y="15.600000000000001" font-family="Cascadia, Segoe UI Emoji" font-size="16px" fill="#000000" text-anchor="start" style="white-space: pre;" direction="ltr">- FORMAT EXCHANGE ASSET V1</text><text x="0" y="35.2" font-family="Cascadia, Segoe UI Emoji" font-size="16px" fill="#000000" text-anchor="start" style="white-space: pre;" direction="ltr">- 40 &lt; X &lt; 100 USD;</text><text x="0" y="54.800000000000004" font-family="Cascadia, Segoe UI Emoji" font-size="16px" fill="#000000" text-anchor="start" style="white-space: pre;" direction="ltr">- USD to EUR @ rate &gt;= 1.5 EUR/USD</text><text x="0" y="74.4" font-family="Cascadia, Segoe UI Emoji" font-size="16px" fill="#000000" text-anchor="start" style="white-space: pre;" direction="ltr">- USD to CZK @ rate &gt;= 10 USD/CZK</text><text x="0" y="94" font-family="Cascadia, Segoe UI Emoji" font-size="16px" fill="#000000" text-anchor="start" style="white-space: pre;" direction="ltr">- in less than 10 mn</text></g><g transform="translate(196.83333333333883 1128.6666666666667) rotate(0 35 12.5)"><text x="0" y="20" font-family="Cascadia, Segoe UI Emoji" font-size="20px" fill="#000000" text-anchor="start" style="white-space: pre;" direction="ltr">DATA: </text></g><g transform="translate(179.50000000000546 1076.6666666666667) rotate(0 219.33333333333337 128.66666666666666)"><path d="M1.2923673075270499 -1.0254391617513028 C127.02737008293661 -1.0136397885873605, 256.29220868753015 -1.982337255016975, 439.19126577007535 1.78561503690907 M0.3436793041870906 0.24057401505493364 C174.35652052334672 -1.5652127307148802, 346.31888073497004 -0.6117294195330014, 438.8912218488385 0.7867890129072113 M439.9770103506079 -0.8300580763306945 C436.4841963199851 63.680078653410476, 440.96903090431783 123.34719864278604, 436.9487518884694 256.9696253713002 M437.591307284603 1.5650139989529057 C438.8649705864495 69.51511424545991, 439.429603120796 136.75337979298467, 437.78096061942966 256.24192555230036 M437.50620045535356 257.9119958354387 C331.09208414632377 254.50875138425175, 223.3423504490951 252.95609317733752, -1.0569788749347833 255.80910135639522 M438.45829765596517 256.5014209574923 C286.6815630758976 257.68531754952755, 134.73587020479752 259.2028891132272, 0.6832376197397543 257.7473413910227 M0.016738123084339498 254.4531863374853 C1.3212710692459657 171.63335637255028, -1.1028350488077567 81.7281360065075, -0.7749278899635463 1.7756667696519524 M-0.24962441871759145 257.7868014164757 C2.364320376976662 166.27068138300734, 3.7778274888347916 77.30377189811527, -0.04598447948109358 0.45699896813153473" stroke="#000000" stroke-width="1" fill="none"></path></g><g transform="translate(733.1666666666722 1169.6666666666667) rotate(0 122 50)"><text x="0" y="16" font-family="Cascadia, Segoe UI Emoji" font-size="16px" fill="#000000" text-anchor="start" style="white-space: pre;" direction="ltr">- FORMAT EXCHANGE ASSET V1</text><text x="0" y="36" font-family="Cascadia, Segoe UI Emoji" font-size="16px" fill="#000000" text-anchor="start" style="white-space: pre;" direction="ltr">- 80 EUR</text><text x="0" y="56" font-family="Cascadia, Segoe UI Emoji" font-size="16px" fill="#000000" text-anchor="start" style="white-space: pre;" direction="ltr">- EUR to USD</text><text x="0" y="76" font-family="Cascadia, Segoe UI Emoji" font-size="16px" fill="#000000" text-anchor="start" style="white-space: pre;" direction="ltr">- rate &gt;= 0.5 USD/EUR</text><text x="0" y="96" font-family="Cascadia, Segoe UI Emoji" font-size="16px" fill="#000000" text-anchor="start" style="white-space: pre;" direction="ltr">- in less than 10 mn</text></g><g transform="translate(720.6666666666722 1286.1666666666667) rotate(0 82 12.5)"><text x="0" y="20" font-family="Cascadia, Segoe UI Emoji" font-size="20px" fill="#000000" text-anchor="start" style="white-space: pre;" direction="ltr">- timestamp T'</text></g><g transform="translate(336.84523809524364 1288.6428571428564) rotate(0 76 12.5)"><text x="0" y="20" font-family="Cascadia, Segoe UI Emoji" font-size="20px" fill="#000000" text-anchor="start" style="white-space: pre;" direction="ltr">- timestamp T</text></g><g transform="translate(187.1666666666722 1127.6666666666667) rotate(0 211.5 71.16666666666666)"><path d="M0.975948857944074 0.3440642184092372 C116.68274782693928 -0.9224470610627169, 234.25621806543214 0.7660042124790192, 423.00630520930525 0.07086077389772831 M-0.11334826532879619 0.46526511367824813 C102.28393288925463 1.2363121908528394, 205.8186369641429 1.962158377860505, 423.3253537581018 0.5147645314883544 M423.1737100444734 1.157556775957346 C422.0095491221361 47.31325061960766, 423.2762404492311 94.06733694983023, 422.960234221071 142.79941865180928 M423.97654038853943 0.5810951869934797 C422.4664466096399 30.774132341581083, 422.3228499008653 62.56210777436693, 422.0242048520595 141.7257470966627 M423.5110432237356 142.4499766737959 C328.7897143083901 141.64626578593752, 235.43708795805014 142.11679520396777, 0.1755608179007202 143.25687021899995 M422.9324317822122 142.33379489624642 C305.84509955231715 140.46462740546124, 188.7749863621606 140.675845071543, 0.19995504825443472 142.73171562315383 M-0.47824961319565773 140.74625476573902 C-2.190105066479494 100.58308569298434, 1.0479378841506939 58.79296730992692, -1.8636080659925938 1.7750464715063572 M0.506104888394475 142.52240102303523 C0.10124559959396717 104.2498204567159, -1.2165645186044276 66.74539594203232, -0.48840212635695934 0.34095862321555614" stroke="#000000" stroke-width="1" fill="none"></path></g><g transform="translate(723.1666666666722 1129.6666666666667) rotate(0 136.5 74.16666666666666)"><path d="M-1.521010291510606 0.7946120915468455 C77.50960448293729 0.21736313013617892, 157.99035610989984 -0.5182081193091643, 273.35058248342443 -0.3359570138204337 M-0.15132416400936846 0.5325527037770154 C75.05372880018041 1.2609301191777265, 151.43454276408943 1.701382020200447, 273.2106346720642 -0.13359118338919881 M271.8173921667038 -1.6627210341393948 C272.0734114636666 51.03041825847079, 273.9623676528222 104.84184749859074, 272.54492967948306 149.63389166568714 M272.2379426974802 0.7319500725716352 C274.1651060915551 38.385203803889446, 274.8444406724534 77.49161114543675, 273.4985416550188 147.43756275189418 M274.0750351268044 147.58316171425545 C185.1459188000288 147.60141467085404, 95.18820588045533 148.32778192858643, -1.3001923330747844 148.6676874804214 M272.41053949940374 149.0457650575472 C176.47722627528051 148.7101157123622, 80.30948468603276 147.5471012883117, 0.5162638485879064 147.81641652016125 M0.3158307634294033 149.80011483406025 C-0.8892839952992897 100.46192149911074, -1.6620328232335548 56.133863814796, 1.722315724939108 1.9023585356771946 M0.5547958631068468 148.88444136393565 C-0.18934737037246419 99.23597990566242, -0.6548072535855074 48.96779608105619, 0.9864801783114672 0.3846872728317976" stroke="#000000" stroke-width="1" fill="none"></path></g><g transform="translate(220.7916666666722 2678.958333333333) rotate(0 205 112.5)"><text x="205" y="20" font-family="Cascadia, Segoe UI Emoji" font-size="20px" fill="#000000" text-anchor="middle" style="white-space: pre;" direction="ltr">if someone takes between</text><text x="205" y="45" font-family="Cascadia, Segoe UI Emoji" font-size="20px" fill="#000000" text-anchor="middle" style="white-space: pre;" direction="ltr">tx.DATA.A.low to tx.DATA.A.high </text><text x="205" y="70" font-family="Cascadia, Segoe UI Emoji" font-size="20px" fill="#000000" text-anchor="middle" style="white-space: pre;" direction="ltr">tx.DATA.A.output_asset </text><text x="205" y="95" font-family="Cascadia, Segoe UI Emoji" font-size="20px" fill="#000000" text-anchor="middle" style="white-space: pre;" direction="ltr">from my account,</text><text x="205" y="120" font-family="Cascadia, Segoe UI Emoji" font-size="20px" fill="#000000" text-anchor="middle" style="white-space: pre;" direction="ltr">it has to credit</text><text x="205" y="145" font-family="Cascadia, Segoe UI Emoji" font-size="20px" fill="#000000" text-anchor="middle" style="white-space: pre;" direction="ltr">at least tx.DATA.A.min_rate </text><text x="205" y="170" font-family="Cascadia, Segoe UI Emoji" font-size="20px" fill="#000000" text-anchor="middle" style="white-space: pre;" direction="ltr">the amount in tx.DATA.A.input_asset</text><text x="205" y="195" font-family="Cascadia, Segoe UI Emoji" font-size="20px" fill="#000000" text-anchor="middle" style="white-space: pre;" direction="ltr"> and to be before</text><text x="205" y="220" font-family="Cascadia, Segoe UI Emoji" font-size="20px" fill="#000000" text-anchor="middle" style="white-space: pre;" direction="ltr"> (tx.DATA.A.timestamp + 10mn)</text></g><g><g transform="translate(904.8718373548788 1333.254899070862) rotate(0 -101.08440080579737 160.91488056818505)"><path d="M-1.8816484101116657 -2.6504045002162453 C-35.8853607577967 51.435565533869315, -168.39880318487056 269.66165547188547, -202.1820974925979 324.48016563658626 M2.2923610965907573 2.082493532449007 C-32.257719989904494 55.256405791672925, -170.89701805357504 266.41172823803055, -204.46116270818553 319.72314400677595" stroke="#000000" stroke-width="1" fill="none"></path></g><g transform="translate(904.8718373548788 1333.254899070862) rotate(0 -101.08440080579737 160.91488056818505)"><path d="M-201.5910459826608 290.3628838691617 C-199.57909832783005 297.54396232691045, -199.46992576489876 312.3476549407891, -206.03645750828824 318.6678482488266 M-196.8433138984163 292.13832243492254 C-201.3888401447486 301.66312916090357, -204.03678856427558 312.5102802648068, -204.06518046879015 318.1818218611649" stroke="#000000" stroke-width="1" fill="none"></path></g><g transform="translate(904.8718373548788 1333.254899070862) rotate(0 -101.08440080579737 160.91488056818505)"><path d="M-184.3453869460467 301.4852598194112 C-188.63769933781106 304.3668687324634, -194.83561941796654 315.1028794224139, -206.03645750828824 318.6678482488266 M-179.5976548618022 303.2606983851721 C-191.03381265833647 308.22164857055594, -200.50175872966508 314.6703259656777, -204.06518046879015 318.1818218611649" stroke="#000000" stroke-width="1" fill="none"></path></g></g><g transform="translate(452.8333333333388 1922.6666666666667) rotate(0 140.5 137.5)"><text x="0" y="20" font-family="Cascadia, Segoe UI Emoji" font-size="20px" fill="#000000" text-anchor="start" style="white-space: pre;" direction="ltr">- STATE FUNCTION : </text><text x="0" y="45" font-family="Cascadia, Segoe UI Emoji" font-size="20px" fill="#000000" text-anchor="start" style="white-space: pre;" direction="ltr">  - 1/ src: A</text><text x="0" y="70" font-family="Cascadia, Segoe UI Emoji" font-size="20px" fill="#000000" text-anchor="start" style="white-space: pre;" direction="ltr">       dest: B</text><text x="0" y="95" font-family="Cascadia, Segoe UI Emoji" font-size="20px" fill="#000000" text-anchor="start" style="white-space: pre;" direction="ltr">       amount: 46.66 USD</text><text x="0" y="120" font-family="Cascadia, Segoe UI Emoji" font-size="20px" fill="#000000" text-anchor="start" style="white-space: pre;" direction="ltr">  - 2/ src: B</text><text x="0" y="145" font-family="Cascadia, Segoe UI Emoji" font-size="20px" fill="#000000" text-anchor="start" style="white-space: pre;" direction="ltr">       dest: A</text><text x="0" y="170" font-family="Cascadia, Segoe UI Emoji" font-size="20px" fill="#000000" text-anchor="start" style="white-space: pre;" direction="ltr">       amount: 80 EUR</text><text x="0" y="195" font-family="Cascadia, Segoe UI Emoji" font-size="20px" fill="#000000" text-anchor="start" style="white-space: pre;" direction="ltr"></text><text x="0" y="220" font-family="Cascadia, Segoe UI Emoji" font-size="20px" fill="#000000" text-anchor="start" style="white-space: pre;" direction="ltr">- DATA</text><text x="0" y="245" font-family="Cascadia, Segoe UI Emoji" font-size="20px" fill="#000000" text-anchor="start" style="white-space: pre;" direction="ltr">  - 1/ intent A</text><text x="0" y="270" font-family="Cascadia, Segoe UI Emoji" font-size="20px" fill="#000000" text-anchor="start" style="white-space: pre;" direction="ltr">  - 2/ intent B</text></g><g transform="translate(204.25000000000557 2590.166666666667) rotate(0 223.54166666666669 188.95833333333326)"><path d="M0.8137818160367866 0.8220859117396806 C136.5790314961232 -3.462102171277657, 275.1767757524692 -1.670965011990324, 445.509893224706 -1.548767550950076 M0.8773555274222956 0.1926842016445826 C95.94293269860209 -4.142752226916799, 193.00620194557422 -4.512694934515903, 446.9463825366812 0.5553068040059636 M448.7495611701196 1.5057295080679474 C453.2255291023648 140.49284667315877, 453.4543824384982 283.60193450168265, 446.27389853142495 378.50306374557516 M446.2352938830479 0.4700952713309323 C446.0746934646839 85.55603812973848, 445.6605132905909 170.71849758712406, 447.711174669668 378.15417287590185 M447.5451944971072 378.29234719470037 C325.75481152173137 373.24405044260027, 205.72841167412878 373.9717782776917, 1.7512151061064856 377.4677055328605 M447.7445211417383 377.86183418005044 C281.425054932295 378.816135528259, 113.19664754046532 380.03562371084615, -0.2363022144877444 378.122835128752 M-0.459443323924821 377.11169749163827 C0.6153625470852266 271.9972464832586, 1.5543256468217983 164.79699824158354, 1.938910007877667 -0.1184497371602245 M-0.33690095566333284 378.813855841933 C1.4253984795905217 296.71528165981056, 1.3415694738058312 216.98861615979612, 0.230195308537772 -0.8710215732113926" stroke="#000000" stroke-width="1" fill="none"></path></g><g><g transform="translate(611.2065037176642 2510.9511494252874) rotate(0 -26.8030076904559 39.17409572558665)"><path d="M0.3751780994236471 -0.17796272113919276 C-8.598697151739206 12.330048852619424, -43.31574099957349 64.73417853343932, -51.72227794303778 77.36297435809311 M-2.8656780029833318 -2.74288200840354 C-12.407969153422918 10.054588911490534, -45.96008717486663 67.65995095887232, -53.98119348033551 81.09107345957693" stroke="#000000" stroke-width="1" fill="none"></path></g><g transform="translate(611.2065037176642 2510.9511494252874) rotate(0 -26.8030076904559 39.17409572558665)"><path d="M-48.723813675738995 51.546699939826 C-49.793042673051296 65.01097421539347, -54.389971679120805 74.15694277086565, -50.73342966034297 77.8984283195847 M-47.18698394710583 51.85453079135107 C-50.7656122324759 59.392313788355814, -53.452512062629474 69.73414704900547, -52.83823761462454 80.71366719399032" stroke="#000000" stroke-width="1" fill="none"></path></g><g transform="translate(611.2065037176642 2510.9511494252874) rotate(0 -26.8030076904559 39.17409572558665)"><path d="M-31.057893196406603 61.98869476858088 C-38.937733885759584 71.57674124935834, -50.172615832747326 76.79914010668332, -50.73342966034297 77.8984283195847 M-29.521063467773438 62.296525620105946 C-38.24158637693649 66.76384089224918, -46.15161320546076 74.01838157900077, -52.83823761462454 80.71366719399032" stroke="#000000" stroke-width="1" fill="none"></path></g></g><g transform="translate(589.8333333333389 2466.166666666667) rotate(0 48 13)"><text x="0" y="18" font-family="Virgil, Segoe UI Emoji" font-size="20px" fill="#000000" text-anchor="start" style="white-space: pre;" direction="ltr">check VPs</text></g><g transform="translate(682.3333333333389 2581.416666666667) rotate(0 221.2499999999999 191.45833333333326)"><path d="M-0.4800008620051669 0.4187901485977696 C105.13119386063607 -3.511620421140565, 209.46696851205692 -3.1495849230877293, 441.83863322506255 -0.8917929995777089 M0.796509169906285 -0.048659453733172285 C163.02546694249125 -4.289111286094695, 327.32393319276406 -4.121018095189243, 443.237135196927 -0.5102091321154499 M442.95403206166407 -1.7179834078775913 C437.83397288639287 108.49287524062471, 441.97636163927785 214.170510853822, 441.99301463782393 385.0260770701775 M443.617412683089 -0.19401460489352243 C440.4736609766414 137.00748510032557, 441.11433776945984 271.3974036687477, 443.24560644478424 383.1328828510697 M440.78982559927414 383.5749692328072 C342.22829449885717 386.0308314811355, 242.42692873981755 387.1631807140058, 1.3554999821336946 383.8549042422092 M442.81100698500853 383.46784001792906 C318.4652151495194 383.54373318358404, 192.8420874252631 384.7806483126227, -0.7944714528829794 382.17296455238403 M-0.46105095272031815 383.8360279041968 C0.05028677191923536 236.3230436310004, -0.6803652363270675 88.01386425145407, -2.233277808391844 -1.0811368826530245 M-0.9457976004729405 383.51041423737337 C0.12950680185354813 277.9512333197489, 2.0065749336727374 176.13385431452178, -0.42115281005687843 1.1362197444298103" stroke="#000000" stroke-width="1" fill="none"></path></g><g><g transform="translate(606.5362584801142 1734.755794842261) rotate(0 -0.4052584480965038 64.10344811567683)"><path d="M-1.651592420786619 -2.417743790894747 C-1.7743786128270735 18.98451221245533, -1.6120822459002893 105.78390142112997, -2.679810403679676 127.75919590714606 M2.6473046229779724 2.4414557696878916 C2.570621218591123 24.258041266878504, -2.56909053787992 108.91663927237222, -3.457821519171066 130.62464002224837" stroke="#000000" stroke-width="1" fill="none"></path></g><g transform="translate(606.5362584801142 1734.755794842261) rotate(0 -0.4052584480965038 64.10344811567683)"><path d="M-15.717869447397355 105.78831383426414 C-12.377492485807451 104.82248202646133, -7.954155432253108 117.12818315938559, -3.8025138015497397 131.98347732129727 M-10.775778798239593 101.44603932861911 C-9.103414431493237 111.41483721792929, -5.611424613472535 120.44613156008889, -1.6626023697305392 131.64820266592537" stroke="#000000" stroke-width="1" fill="none"></path></g><g transform="translate(606.5362584801142 1734.755794842261) rotate(0 -0.4052584480965038 64.10344811567683)"><path d="M4.776509947439628 106.83732079626238 C3.3957077963390407 105.38780997175729, 3.092962827674296 117.45160609995955, -3.8025138015497397 131.98347732129727 M9.71860059659739 102.49504629061734 C5.006261282590993 112.32158901997786, 2.1269264685023908 121.02676644161646, -1.6626023697305392 131.64820266592537" stroke="#000000" stroke-width="1" fill="none"></path></g></g><g transform="translate(396.1666666666722 1872.6666666666667) rotate(0 244.16666666666663 176.0000000000001)"><path d="M-0.6634301925562324 -0.5820248818852009 C103.24258550149285 1.2775421696778102, 207.7474444281164 1.3011082375689311, 486.8034429697117 -1.5523023764540258 M0.38471660169474786 0.508680407171324 C155.16714127861778 2.964231088874647, 308.85057322963445 3.9635609420064184, 488.0392336634058 0.366592932875231 M486.14701103363325 -2.3414856198934517 C490.24036133756084 89.28055516836524, 491.6534878781356 182.48800289393165, 489.7408753195176 353.76054630503006 M488.434436507331 -0.3394671552147164 C486.59884684359275 130.40000237354096, 486.48089427154986 263.4821906552004, 488.85420263646597 351.694497919829 M489.9528729793867 353.01121464672326 C295.3600663916018 354.45291825535327, 101.52930902271942 354.6614796909812, 1.2220727125979962 351.00358981786485 M488.1488210434789 351.3609364400627 C337.5077165383682 352.0437203697839, 186.8507787360621 352.52088257566834, 0.2722757645427436 351.6542302427747 M0.33312439401545213 349.50503471989646 C-0.764237292424077 218.1434085775543, -1.5722601138305365 84.41263834224647, -1.4129082747937705 -2.1485037701155623 M-0.48190897444538905 352.5874049466175 C-2.3785744936928177 214.5102329832657, -1.69971167307519 78.67427173639184, 1.1007349170461667 -0.5163280644748462" stroke="#000000" stroke-width="1" fill="none"></path></g><g><g transform="translate(381.55412071780376 1343.4380251132766) rotate(0 74.8649406969889 154.0589727231105)"><path d="M0.2295691363513468 -0.8682191841304301 C25.359638176273762 50.84744324165051, 127.8426265364461 257.1240557778609, 152.8202132257012 308.6308358082154 M-3.090331831723452 -3.807849122732878 C21.535690551908267 48.48500082847938, 124.42682016269096 259.50792157697003, 150.90344694695744 311.9257945689538" stroke="#000000" stroke-width="1" fill="none"></path></g><g transform="translate(381.55412071780376 1343.4380251132766) rotate(0 74.8649406969889 154.0589727231105)"><path d="M127.96622125950668 292.0529658600879 C136.17017534935258 295.84913517069975, 143.6050472569927 302.7018253227253, 148.63836762002978 310.2816044437864 M130.623176185014 289.92417502330665 C136.50669855741077 295.8186757352685, 145.36484435607326 304.59501095694867, 152.18098450518522 311.9412677820006" stroke="#000000" stroke-width="1" fill="none"></path></g><g transform="translate(381.55412071780376 1343.4380251132766) rotate(0 74.8649406969889 154.0589727231105)"><path d="M146.35973947301426 282.9535982933168 C147.59757445746197 290.1726277866602, 148.17442376519438 300.4180168064834, 148.63836762002978 310.2816044437864 M149.01669439852157 280.82480745653555 C148.71005409418223 290.0392522382077, 151.45305953749892 301.84077868050076, 152.18098450518522 311.9412677820006" stroke="#000000" stroke-width="1" fill="none"></path></g></g><g transform="translate(486.1666666666721 1665.6666666666665) rotate(0 128.49999999999994 32.83333333333337)"><path d="M0.8779757673606874 0.8972390677345277 C85.76830160198823 0.40954643657590856, 180.1699891139595 1.7986417526647758, 255.7223780624534 1.2171550910011293 M-0.30875375051994325 0.9055710518199922 C54.56378672850969 4.666658607504063, 109.00051152511745 3.435507113717441, 256.8682742997852 0.7032849329601288 M257.278901271522 -1.1567223593592644 C261.9431112272913 20.980787824901476, 262.0232830507929 51.6472973377755, 260.34192650765175 63.80111752698828 M255.13713142648334 1.4710877798497677 C255.867892981482 11.872603584763924, 256.52228605837865 25.34134579959019, 255.27304014936084 67.58771646643687 M258.490293546218 65.38920096101262 C193.90954993128884 66.41256489567733, 130.6847735437034 67.50651651020371, 2.3958552209983828 64.86141867959171 M257.6018995338794 67.11175776260296 C179.99010325305915 67.661179589029, 101.52055211481702 66.09896330852364, -0.3015115931591034 65.19306528358685 M-3.025136299431324 63.312356817225705 C2.1729719307646143 45.62131927379724, -1.5855250689759863 24.19219121523205, 2.2250074669718742 3.335438199341297 M-0.10192873701453209 65.46460223818828 C-2.309464251014094 51.79516115890202, 1.087383354691167 34.35383516140287, 0.2847810722887516 -1.3328595496714115" stroke="#000000" stroke-width="1" fill="none"></path></g><g transform="translate(509.1666666666721 1679) rotate(0 100.5 23)"><text x="0" y="32" font-family="Virgil, Segoe UI Emoji" font-size="36px" fill="#000000" text-anchor="start" style="white-space: pre;" direction="ltr">matchmaker</text></g><g transform="translate(328.1666666666722 1089.5) rotate(0 108.5 25.5)"><text x="0" y="18.5" font-family="Virgil, Segoe UI Emoji" font-size="20px" fill="#000000" text-anchor="start" style="white-space: pre;" direction="ltr">intent from account A</text><text x="0" y="44" font-family="Virgil, Segoe UI Emoji" font-size="20px" fill="#000000" text-anchor="start" style="white-space: pre;" direction="ltr"></text></g><g transform="translate(737.1666666666722 1101.6666666666667) rotate(0 109 13)"><text x="0" y="18" font-family="Virgil, Segoe UI Emoji" font-size="20px" fill="#000000" text-anchor="start" style="white-space: pre;" direction="ltr">intent from account B</text></g><g transform="translate(739.1666666666721 1136.6666666666667) rotate(0 29.5 24.5)"><text x="0" y="19.5" font-family="Cascadia, Segoe UI Emoji" font-size="20px" fill="#000000" text-anchor="start" style="white-space: pre;" direction="ltr">DATA:</text><text x="0" y="44" font-family="Cascadia, Segoe UI Emoji" font-size="20px" fill="#000000" text-anchor="start" style="white-space: pre;" direction="ltr"></text></g><g><g transform="translate(584.766416963369 2226.701149425288) rotate(0 18.814183637177905 115.48371066984589)"><path d="M-1.179450763016939 1.9322184093296526 C5.1606862727721445 39.63952725757179, 32.67838275329267 189.90948889101634, 38.80781803737277 228.29920766154038 M3.375751752108336 0.5128260214626792 C9.464802438410114 38.27095876802025, 32.748032442490214 192.63630281215, 37.717863310676755 230.45459531822905" stroke="#000000" stroke-width="1" fill="none"></path></g><g transform="translate(584.766416963369 2226.701149425288) rotate(0 18.814183637177905 115.48371066984589)"><path d="M26.333771738886753 207.0194899684497 C24.71384180131282 211.21359853161024, 35.01793549473527 220.66153893828846, 36.953454893630685 227.6958960873793 M24.026093437999407 205.08022783535802 C31.252887283937135 212.58310033933122, 35.858631318563056 225.09076386815428, 36.30004664565319 231.02635796570883" stroke="#000000" stroke-width="1" fill="none"></path></g><g transform="translate(584.766416963369 2226.701149425288) rotate(0 18.814183637177905 115.48371066984589)"><path d="M46.64871585047698 204.11724116298774 C38.42042956512629 209.09037856219524, 42.07355869397453 219.48849406444228, 36.953454893630685 227.6958960873793 M44.341037549589636 202.17797902989605 C44.0842754697289 210.7711127879729, 41.158544655392575 224.35474353401793, 36.30004664565319 231.02635796570883" stroke="#000000" stroke-width="1" fill="none"></path></g></g><g transform="translate(648.5000000000056 2276.3333333333335) rotate(0 87 13)"><text x="0" y="18" font-family="Virgil, Segoe UI Emoji" font-size="20px" fill="#000000" text-anchor="start" style="white-space: pre;" direction="ltr">send tx to ledger</text></g><g transform="translate(254.83333333333894 2617.416666666667) rotate(0 25.5 13)"><text x="0" y="18" font-family="Virgil, Segoe UI Emoji" font-size="20px" fill="#000000" text-anchor="start" style="white-space: pre;" direction="ltr">A VP:</text></g><g transform="translate(701.0833333333389 2611.166666666667) rotate(0 26 13)"><text x="0" y="18" font-family="Virgil, Segoe UI Emoji" font-size="20px" fill="#000000" text-anchor="start" style="white-space: pre;" direction="ltr">B VP:</text></g><g transform="translate(542.3333333333389 2459.75) rotate(0 92.5 24.58333333333337)"><path d="M1.6919681504368782 0.994589738547802 C43.99821584951133 -2.461622380279005, 86.70504490844907 -3.0762061109766368, 184.81988758593798 1.7936608120799065 M-1.2187794782221317 0.29580673947930336 C44.217023485340185 -0.6446855323389169, 92.38973059318961 0.39681920837610996, 185.20526548847556 0.3703942038118839 M188.23417706042528 -3.0391162112355232 C187.48195652126645 11.253936772079538, 185.22290209888791 25.463669137718817, 185.33372277766466 46.298867317537535 M184.65322634205222 0.8887572027742863 C186.61374901797 17.109549362678102, 187.31469689871494 31.87718981970106, 186.51498111709952 50.82017017776774 M185.25991410762072 51.480555626253356 C124.7551129059866 49.49503542191045, 72.29005322046578 45.92313052422063, -0.17355256527662277 47.6107881988089 M184.5629480741918 48.23315597946452 C127.12465715315193 50.32383628009515, 73.38103404827416 49.25696547149377, -1.7778461314737797 50.75605429584788 M-2.237412504851818 47.02764496455597 C3.0813359115583197 28.98832671887556, -0.08929382820303267 9.499965199269369, 2.1742822602391243 2.7789840027689934 M1.3242284916341305 51.000186337779034 C1.4445574798621232 35.527246751667356, -0.32143647288903643 18.06917304079982, 1.8867202661931515 1.8739694096148014" stroke="#000000" stroke-width="1" fill="none"></path></g><g><g transform="translate(669.4581643638362 2510.9511494252874) rotate(0 24.608937217647167 33.68633433850698)"><path d="M1.6001382119953629 -0.5283687718212606 C9.47262499791196 11.08678569541074, 37.160456025690394 59.067040203297985, 45.14278600211806 70.65617716361267 M-0.9757395435869696 -3.2835084865987305 C7.92780791572542 7.488078135606617, 41.91473128397321 54.23469943998739, 50.1936139788813 66.85344350237828" stroke="#000000" stroke-width="1" fill="none"></path></g><g transform="translate(669.4581643638362 2510.9511494252874) rotate(0 24.608937217647167 33.68633433850698)"><path d="M24.90026844452885 46.03911867332387 C34.48091126176316 55.86288307086105, 37.65222531795825 57.12866449991671, 47.956201474029484 64.71442180026752 M23.841923741361175 50.68195206639099 C36.23415575782059 56.343643683663984, 45.00045293582892 60.85178841960205, 51.51784247051543 68.68696317349058" stroke="#000000" stroke-width="1" fill="none"></path></g><g transform="translate(669.4581643638362 2510.9511494252874) rotate(0 24.608937217647167 33.68633433850698)"><path d="M41.73482977195707 34.303806692004514 C47.60387822528852 46.96372437693604, 46.98268710245738 50.8732474872275, 47.956201474029484 64.71442180026752 M40.67648506878939 38.946640085071635 C46.50984378336348 49.101717143713266, 48.8439002688552 58.09375366616524, 51.51784247051543 68.68696317349058" stroke="#000000" stroke-width="1" fill="none"></path></g></g><g transform="translate(583.1666666666722 1891.6666666666667) rotate(0 70.5 12)"><text x="0" y="17" font-family="Helvetica, Segoe UI Emoji" font-size="20px" fill="#000000" text-anchor="start" style="white-space: pre;" direction="ltr">TRANSACTION</text></g><g transform="translate(10 736.6666666666665) rotate(0 635.833333333333 395.0000000000001)"><path d="M473.8034779440778 11.996533748252773 C504.3584723028584 0.17988608159555497, 544.8053096933872 3.2724255615694915, 580.8234582953082 1.5849793589474075 C616.8416068972292 -0.10246684367467651, 653.9975945339655 0.12837105085091594, 689.9123695556041 1.871856532520269 C725.8271445772426 3.615342014189622, 761.3237985829086 6.536518429742348, 796.3121084251395 12.045892248963526 C831.3004182673704 17.555266068184704, 866.8956574672976 25.60548021695218, 899.8422286089897 34.92809944784733 C932.7887997506817 44.25071867874248, 964.1309659658423 55.08111687989475, 993.9915352752917 67.98160763433441 C1023.852104584741 80.88209838877407, 1053.176242462588 96.69616221474352, 1079.0056444656857 112.33104397448528 C1104.8350464687833 127.96592573422704, 1127.6569527703816 143.86239853754273, 1148.9679472938765 161.79089819278497 C1170.2789418173713 179.7193978480272, 1190.7528501824943 199.7046358383924, 1206.8716116066553 219.9020419059387 C1222.9903730308163 240.09944797348498, 1235.5962288721116 261.43550137656683, 1245.680515838843 282.9753345980627 C1255.7648028055742 304.5151678195586, 1263.3245257644137 326.7364942367045, 1267.3773334070434 349.14104123491387 C1271.430141049673 371.5455882331232, 1272.119066179697 394.8105761839662, 1269.9973616946213 417.40261658731885 C1267.8756572095456 439.9946569906715, 1262.5621536905705 462.7714277720722, 1254.647106496589 484.69328365502986 C1246.7320593026075 506.61513953798755, 1236.311809572278 528.3677345689113, 1222.507078530732 548.933751885065 C1208.7023474891862 569.4997692012188, 1191.427259138011 589.3741520851923, 1171.818720247314 608.0893875519523 C1152.210181356617 626.8046230187123, 1129.3453943988989 644.6472643063415, 1104.8558451865501 661.2251646856248 C1080.3662959742014 677.8030650649081, 1053.5089012608664 693.8448996468298, 1024.8814249732218 707.5567898276518 C996.2539486855773 721.2686800084737, 964.9805114536646 733.1405982389858, 933.0909874606828 743.4965057705565 C901.2014634677009 753.8524133021272, 867.711578421962 762.5984995726276, 833.5442810153306 769.6922350170761 C799.3769836086992 776.7859704615246, 763.8002039654532 782.5407688055742, 728.087203020894 786.0589184372475 C692.3742020763348 789.5770680689208, 655.4077812756552 791.5732315614749, 619.2662753479756 790.8011328071156 C583.1247694202959 790.0290340527562, 546.6697279147493 785.9351343415107, 511.2381674548159 781.426325911091 C475.80660699488254 776.9175174806713, 440.26968549640185 771.505883569223, 406.67691258837556 763.7482822245975 C373.08413968034927 755.9906808799719, 340.67988972614216 746.4685662244194, 309.6815300066582 734.8807178433381 C278.6831702871742 723.2928694622567, 248.07042897046819 708.9636773868641, 220.68675427147156 694.2211919381094 C193.30307957247493 679.4787064893547, 168.22337789180142 663.7334330189202, 145.37948181267836 646.42580515081 C122.53558573355532 629.1181772826998, 101.45431681021091 609.7573215960758, 83.62337779673328 590.3754247294479 C65.79243878325565 570.99352786282, 50.543531500337565 551.2131376964021, 38.39384773181257 530.1344239510422 C26.244163963287576 509.0557102056823, 17.012238417426413 486.09797022763104, 10.725275185583314 463.9031422572885 C4.438311953740215 441.70831428694595, 1.0788384792436052 419.51048089134304, 0.6720683407539809 396.9654561289869 C0.2652982022643566 374.42043136663074, 2.2964785068224387 350.9292990194045, 8.284654354645568 328.6329936831516 C14.272830202468697 306.3366883468987, 24.53943800324246 284.15580580516496, 36.601123427692755 263.1876241114695 C48.66280885214305 242.21944241777405, 63.00540597634871 222.2563142041237, 80.65476690134733 202.82390352097883 C98.30412782634595 183.39149283783397, 119.9002478996782 164.1720017822293, 142.49728897768443 146.5931600126003 C165.09433005569068 129.01431824297129, 189.13806690741544 111.99825536135901, 216.23701336938473 97.35085290320472 C243.33595983135402 82.70345044505044, 274.05558279521097 70.26833937953027, 305.0909677495001 58.70874526367459 C336.1263527037893 47.149151147818905, 370.8764743187764 35.96118446579601, 402.4493230951198 27.993288208070624 C434.0221718714632 20.025391950345238, 475.7449691237721 13.071827985973963, 494.5280604075606 10.901367717322273 C513.3111516913491 8.730907448670584, 512.9102031833168 8.862618213535058, 515.1478707978509 14.970526596160482 M820.8014729643066 17.654037978812198 C856.2581352342123 17.35803293402292, 888.2707412186766 31.37941917308529, 920.772593570293 41.405545876986935 C953.2744459219094 51.43167258088858, 986.4285769051085 64.30621342642372, 1015.812587074005 77.81079820222209 C1045.1965972429016 91.31538297802045, 1072.4625819114237 106.34131303630126, 1097.0766545836723 122.43305453177715 C1121.6907272559208 138.52479602725305, 1143.4510346077452 155.64205173322847, 1163.497023107496 174.3612471750774 C1183.5430116072469 193.08044261692635, 1202.7975837512918 213.9157980781904, 1217.3525855821774 234.74822718287075 C1231.907587413063 255.5806562875511, 1242.2935006036296 277.4629620100607, 1250.8270340928104 299.3558218031595 C1259.3605675819913 321.2486815962582, 1265.6672267031618 343.7259613181795, 1268.5537865172632 366.1053859414634 C1271.4403463313647 388.4848105647473, 1271.1197685572965 411.34271630126227, 1268.14639297742 433.632369542863 C1265.1730173975434 455.9220227844637, 1259.8449043430091 478.20310847341517, 1250.7135330380042 499.8433053910676 C1241.5821617329993 521.4835023087201, 1229.0336117887164 543.5067525117643, 1213.3581651473903 563.4735510487776 C1197.6827185060642 583.440349585791, 1177.3625877698928 601.3203922421199, 1156.6608531900486 619.6440966131477 C1135.9591186102043 637.9678009841755, 1114.4671952958804 657.1332424519078, 1089.1477576683246 673.4157772749445 C1063.8283200407689 689.6983120979812, 1034.3996288954386 704.4086583818976, 1004.7442274247139 717.3393055513679 C975.0888259539894 730.2699527208383, 943.5735216102862 741.630622123874, 911.2153488439772 750.9996602917668 C878.8571760776681 760.3686984596595, 845.1966132419573 767.3436867007351, 810.5951908268597 773.5535345587243 C775.9937684117622 779.7633824167135, 739.6934485762943 785.6852098974256, 703.6068143533917 788.258747439702 C667.520180130489 790.8322849819784, 630.1203658250445 790.4089353523589, 594.075385489444 788.9947598123827 C558.0304051538435 787.5805842724064, 522.5752609516496 784.899231417877, 487.33693233978875 779.7736941998448 C452.0986037279279 774.6481569818127, 415.60476629710564 767.1755714573422, 382.645413818279 758.24153650419 C349.68606133945235 749.3075015510377, 319.61155752548507 738.387124578706, 289.5808174668288 726.1694844809314 C259.55007740817257 713.9518443831568, 229.26449915674957 700.2976149669968, 202.4609734663415 684.9356959175423 C175.65744777593343 669.5737768680877, 150.41425595655738 651.760892516222, 128.75966332438043 633.9979701842041 C107.10507069220345 616.2350478521861, 89.01683763566929 598.1879290550382, 72.5334176732797 578.3581619254343 C56.04999771089011 558.5283947958303, 41.06731234819561 536.506205169034, 29.85914355004286 515.0193674065803 C18.65097475189011 493.5325296441265, 10.0456271507299 471.61267511508123, 5.284404884363198 449.43713535071146 C0.5231826179964969 427.2615955863417, -0.12388041302737451 404.3216850944424, 1.2918099518426516 381.9661288203617 C2.707500316712678 359.610572546281, 6.40190424535128 337.30936771090603, 13.778547073583354 315.30379770622744 C21.15518990181543 293.29822770154885, 32.37488320533826 271.0561384736321, 45.551666921235096 249.93270879229004 C58.728450637131935 228.809279110948, 73.96167245868591 207.78897569902063, 92.83924936896437 188.56321961817525 C111.71682627924284 169.33746353732988, 134.76527102196522 151.42517149914906, 158.81712838290588 134.57817230721776 C182.86898574384654 117.73117311528647, 209.3618391536217 101.51919853097743, 237.15039353460833 87.48122446658749 C264.93894791559495 73.44325040219755, 294.3515103111477 61.214246078275956, 325.5484546688257 50.3503279208781 C356.74539902650366 39.486409763480246, 389.92175114910657 29.699842510831445, 424.33205968067614 22.29771552220035 C458.7423682122457 14.895588533569253, 496.42141696449454 9.67680320489283, 532.0103058582431 5.937565989091524 C567.5991947519917 2.198328773290219, 601.9433372699614 -0.16947118156219668, 637.8653930431675 -0.13770777260748446 C673.7874488163736 -0.10594436365277224, 717.075112720223 3.3818317434814276, 747.5426404974797 6.128146442819798 C778.0101682747364 8.874461142158168, 808.9377723102505 13.357738192462383, 820.6705597067075 16.340180423422737 C832.4033471031646 19.322622654383093, 820.6917788250531 17.806289035703383, 817.9393648762222 24.022799828581924" stroke="#000000" stroke-width="1" fill="none"></path></g><g transform="translate(461.6666666666665 806.0000000000001) rotate(0 162 23)"><text x="0" y="32" font-family="Virgil, Segoe UI Emoji" font-size="36px" fill="#000000" text-anchor="start" style="white-space: pre;" direction="ltr">orderbook network</text></g><g transform="translate(160 971.6666666666667) rotate(0 483.33333333333337 184.16666666666663)"><path d="M0.18997995853424074 -0.6774215936660767 C291.4406344771386 -2.4303734183311465, 584.7463915348054 -1.6050064444541934, 966.9854895512264 -0.5005394220352173 M0.0027706027030944824 0.13976308107376098 C297.54205818971 2.6945874770482385, 594.9356304446857 2.581629331906637, 966.9229296247165 -0.3307519793510437 M967.2770928928518 -0.02214781983971596 C966.3129625955963 99.84121120760162, 965.8127076562577 197.2088020629238, 966.1815969420232 369.17903906844805 M966.9383576964632 -0.29320469405925276 C966.4480995043072 107.31531308695963, 966.4529202237934 216.18532472942871, 966.1017552338282 367.7830627832445 M966.637196246783 368.16669512589766 C665.4081001083057 370.6570302208264, 365.7169190088907 369.50764133532834, -0.1693286657333374 369.0693097194035 M966.3434080640476 368.31732630332306 C686.925371392568 364.97728411356604, 407.00771313905716 364.9513132731119, 0.03450621366500855 368.38277315696075 M-0.6711113374593258 367.528762834218 C2.3290793009957214 248.45328975049722, 1.732875445153131 128.10874291653226, -1.202784537799597 0.09103187566351892 M0.041112844699740414 368.3466758345026 C1.05455626213004 288.89139440627963, 1.6015375062744797 208.86482375356937, -0.2142387939606905 -0.08520727649104597" stroke="#000000" stroke-width="1" fill="none"></path></g><g transform="translate(533.3333333333334 991.0000000000001) rotate(0 113 18)"><text x="0" y="25" font-family="Virgil, Segoe UI Emoji" font-size="28px" fill="#000000" text-anchor="start" style="white-space: pre;" direction="ltr">"global mempool" </text></g><g transform="translate(500.9999999999998 222.3333333333336) rotate(0 152 39)"><text x="0" y="18" font-family="Virgil, Segoe UI Emoji" font-size="20px" fill="#000000" text-anchor="start" style="white-space: pre;" direction="ltr">- exchange of assets for VP 1</text><text x="0" y="44" font-family="Virgil, Segoe UI Emoji" font-size="20px" fill="#000000" text-anchor="start" style="white-space: pre;" direction="ltr">- accepted rates for VP 2</text><text x="0" y="70" font-family="Virgil, Segoe UI Emoji" font-size="20px" fill="#000000" text-anchor="start" style="white-space: pre;" direction="ltr">- ..</text></g><g transform="translate(919.9999999999998 1879.3333333333335) rotate(0 137.5 90.99999999999994)"><text x="0" y="18" font-family="Virgil, Segoe UI Emoji" font-size="20px" fill="#000000" text-anchor="start" style="white-space: pre;" direction="ltr">The matchmacker chooses</text><text x="0" y="44" font-family="Virgil, Segoe UI Emoji" font-size="20px" fill="#000000" text-anchor="start" style="white-space: pre;" direction="ltr">values he thinks will be</text><text x="0" y="70" font-family="Virgil, Segoe UI Emoji" font-size="20px" fill="#000000" text-anchor="start" style="white-space: pre;" direction="ltr">accepted by all the validity</text><text x="0" y="96" font-family="Virgil, Segoe UI Emoji" font-size="20px" fill="#000000" text-anchor="start" style="white-space: pre;" direction="ltr">predicate. </text><text x="0" y="122" font-family="Virgil, Segoe UI Emoji" font-size="20px" fill="#000000" text-anchor="start" style="white-space: pre;" direction="ltr"></text><text x="0" y="148" font-family="Virgil, Segoe UI Emoji" font-size="20px" fill="#000000" text-anchor="start" style="white-space: pre;" direction="ltr"></text><text x="0" y="174" font-family="Virgil, Segoe UI Emoji" font-size="20px" fill="#000000" text-anchor="start" style="white-space: pre;" direction="ltr">here is naive AVG</text></g><g transform="translate(60.833333333333485 2338.333333333333) rotate(0 594.1666666666663 467.4999999999999)"><path d="M568.9995104810761 0.8835682494500929 C600.19021018301 -8.111361745030194, 636.162199626835 -0.08117433394751083, 669.4882139667675 3.09770925415728 C702.8142283067 6.276592842262071, 736.8528202243111 12.214768354638988, 768.9555965206712 19.95686977807884 C801.0583728170312 27.69897120151869, 832.3050502311454 37.355778393847665, 862.104871744928 49.5503177947964 C891.9046932587106 61.74485719574513, 920.7858577424047 77.36481955981101, 947.7545256033668 93.12410618377123 C974.7231934643289 108.88339280773145, 1000.7309442378839 125.10326407426784, 1023.9168789107005 144.1060375385577 C1047.102813583517 163.10881100284755, 1068.152643905767 184.96943868297993, 1086.870133640266 207.14074696951036 C1105.587623374765 229.3120552560408, 1122.3732081256796 252.93998888515608, 1136.2218173176934 277.1338872577403 C1150.0704265097072 301.3277856303245, 1161.7482131994063 326.6195304906975, 1169.961788792349 352.3041372050156 C1178.1753643852915 377.9887439193337, 1182.7117820151022 404.9638177648595, 1185.5032708753486 431.2415275436487 C1188.2947597355949 457.5192373224379, 1189.4756438161648 483.67479244881054, 1186.710721953827 509.9703958777507 C1183.9458000914892 536.2659993066909, 1177.7144276313934 563.5990603271258, 1168.913739701321 589.0151481172898 C1160.1130517712486 614.4312359074537, 1147.9033167903567 638.4612427861479, 1133.9065943733926 662.4669226187344 C1119.9098719564286 686.472602451321, 1103.974606092906 711.2636061763341, 1084.9334051995363 733.0492271128091 C1065.8922043061666 754.8348480492842, 1043.2934543016447 774.350049715906, 1019.6593890131749 793.1806482375848 C996.0253237247051 812.0112467592636, 970.2868672533461 830.4659328264253, 943.1290134687177 846.0328182428821 C915.9711596840893 861.5997036593388, 886.7270025240605 874.8120099055687, 856.7122663054042 886.5819607363255 C826.697530086748 898.3519115670823, 795.3369106389699 909.0909111314178, 763.0405961567803 916.652523227423 C730.7442816745908 924.2141353234282, 696.3871432788758 928.8781570174666, 662.9343794122667 931.951633312357 C629.4816155456576 935.0251096072474, 595.6185900012949 936.6499491844982, 562.3240129571259 935.0933809967653 C529.0294359129568 933.5368128090324, 495.8271106778644 928.4669328095661, 463.1669171472525 922.6122241859596 C430.50672361664056 916.7575155623531, 397.4456718632194 909.9801024977455, 366.3628517734541 899.9651292551263 C335.28003168368883 889.950156012507, 305.12643423808487 876.7586806023268, 276.6699966086608 862.5223847302439 C248.2135589792368 848.286088858161, 220.65857301905424 832.273459248802, 195.62422599690996 814.5473540226291 C170.58987897476567 796.8212487964561, 147.22421042506863 776.8694216425445, 126.4639144757951 756.1657533732058 C105.70361852652154 735.4620851038671, 86.99470094710746 713.3951019369433, 71.06245030126865 690.3253444065967 C55.130199655429855 667.2555868762502, 41.402640288052204 642.8230970230109, 30.870410600762284 617.7472081911264 C20.338180913472364 592.671319359242, 13.091373307112708 566.1963997523618, 7.8690721775291195 539.8700114152904 C2.6467710479455304 513.543623078219, -0.7898706251142282 486.2354405741385, -0.46339617673925204 459.78887816869764 C-0.1369217283642759 433.34231576325675, 3.3892242996137156 406.94089705720916, 9.827918867778976 381.19063698264506 C16.266613435944237 355.44037690808096, 26.396046726125327 330.19411995488673, 38.16877123225231 305.28731772131295 C49.941495738379295 280.38051548773916, 63.80547153335729 254.690426803576, 80.46426590454087 231.74982358120232 C97.12306027572444 208.80922035882864, 116.68459176301437 187.87386086493447, 138.12153745935376 167.64369838707086 C159.55848315569315 147.41353590920724, 183.29124609203893 127.54197079959637, 209.08594008257722 110.3688487140206 C234.88063407311552 93.19572662844483, 263.7854194820956 77.7890693607067, 292.88970140258357 64.60496587361627 C321.9939833230715 51.42086238652582, 352.28555529556724 40.6229470951233, 383.71163160550503 31.264227791477936 C415.13770791544283 21.90550848783257, 447.7204239398445 13.60211659408576, 481.44615926221036 8.452650051744058 C515.1718945845762 3.3031835094023547, 565.712661601968 0.28785597061482804, 586.0660435397 0.3674285374277133 C606.419425477432 0.4470011042405986, 603.533104649437 1.3412145492058771, 603.5664508886022 8.93008545262137 M782.5422991082908 25.03689000721954 C815.8602506828888 25.450475777146494, 844.9824065369656 41.90901526479626, 874.3680784848742 54.05694340387197 C903.7537504327828 66.20487154294769, 932.4860647296911 81.72357424340501, 958.8563307957425 97.92445884167381 C985.2265968617938 114.12534343994261, 1010.1901874210931 131.86017091861467, 1032.5896748811824 151.26225099348477 C1054.9891623412718 170.66433106835487, 1075.1520403009072 191.94661516577253, 1093.2532555562782 214.33693929089438 C1111.3544708116492 236.72726341601623, 1128.0746718861697 261.28341268773613, 1141.1969664134092 285.6041957442158 C1154.3192609406487 309.9249788006955, 1164.3622852253045 334.3943646193002, 1171.9870227197157 360.2616376297725 C1179.611760214127 386.12891064024484, 1184.6639057546374 414.0838206721156, 1186.9453913798761 440.80783380704975 C1189.2268770051148 467.5318469419839, 1189.4040811277387 494.4989283479078, 1185.675936471148 520.6057164393774 C1181.9477918145571 546.7125045308469, 1174.299724260939 572.1950761121806, 1164.5765234403316 597.4485623558671 C1154.8533226197242 622.7020485995537, 1141.862611990723 648.2026359557866, 1127.3367315475039 672.1266339014967 C1112.8108511042847 696.0506318472068, 1096.8874670071464 719.5930731546159, 1077.4212407810169 740.9925500301275 C1057.9550145548874 762.3920269056391, 1034.4259680899736 782.0425093571936, 1010.5393741907274 800.5234951545663 C986.652780291481 819.004480951939, 961.7474410483312 836.8908988558544, 934.1016773855389 851.8784648143635 C906.4559137227466 866.8660307728726, 875.2873683567947 879.1951048950116, 844.6647922139732 890.4488909056206 C814.0422160711518 901.7026769162296, 782.5852081282437 912.2743394632826, 750.3662205286103 919.401180878018 C718.1472329289768 926.5280222927533, 684.7133225573155 930.7466510925362, 651.3508666161723 933.2099393940327 C617.9884106750292 935.6732276955292, 583.699073348131 936.0554043461229, 550.1914848817513 934.1809106869969 C516.6838964153716 932.3064170278708, 482.94233945502083 928.4849844180458, 450.30533581789365 921.962977439276 C417.66833218076647 915.4409704605062, 385.1308449884984 905.6652721966675, 354.36946305898823 895.0488688143779 C323.6080811294781 884.4324654320883, 293.65574853421236 873.0647602403556, 265.73704424083274 858.2645571455384 C237.8183399474531 843.4643540507213, 211.52993756472353 824.4725089568079, 186.8572372987104 806.2476502454751 C162.18453703269728 788.0227915341424, 137.8113933118201 769.9694653526632, 117.70084264475395 748.9154048775415 C97.5902919776878 727.8613444024198, 81.03384467781474 703.3899746724139, 66.1939332963135 679.9232873947453 C51.35402191481226 656.4566001170767, 38.64671874739497 633.2745991604045, 28.66137435574649 608.1152812115301 C18.676029964098007 582.9559632626558, 10.966126326045714 555.3156098375172, 6.2818669464226105 528.9673797014996 C1.597607566799506 502.6191495654819, -0.36169853173203137 476.29672929956524, 0.5558180780078601 450.02590039542423 C1.4733346877477516 423.7550714912832, 5.116553417194003 397.0288699766893, 11.78696660486196 371.3424062766534 C18.457379792529917 345.65594257661746, 28.15239819439102 320.28372822402065, 40.5782972040156 295.9071181952089 C53.00419621364018 271.53050816639717, 68.80112657934166 247.72715668731513, 86.34236066260945 225.08274610378302 C103.88359474587725 202.43833552025092, 123.44164728621709 180.35424380618002, 145.82570170362237 160.04065469401633 C168.20975612102765 139.72706558185263, 194.31003088017394 119.92797989607045, 220.64668716704114 103.20121143080092 C246.98334345390833 86.4744429655314, 274.54578334052053 72.42328541917881, 303.8456394248256 59.68004390239918 C333.1454955091307 46.936802385619536, 364.7495096562371 35.4780218195579, 396.4458236728715 26.741762330123095 C428.1421376895059 18.005502840688287, 461.0502980991535 11.852403153371228, 494.0235235246321 7.262486965790345 C526.9967489501106 2.6725707782094617, 560.6808744075577 -0.6020164569327354, 594.2851762257428 -0.7977347953622029 C627.889478043928 -0.9934531337916704, 664.4188508408052 2.0386686756005092, 695.6493344337431 6.088176935213539 C726.8798180266809 10.13768519482657, 768.0380227405858 19.23513753883542, 781.6680777833699 23.499314762315976 C795.298132826154 27.76349198579653, 780.5665065815172 24.15788578618364, 777.4296646904472 31.673240276096863" stroke="#000000" stroke-width="1" fill="none"></path></g><g transform="translate(529.9999999999999 3174.8333333333335) rotate(0 129 23)"><text x="0" y="32" font-family="Virgil, Segoe UI Emoji" font-size="36px" fill="#000000" text-anchor="start" style="white-space: pre;" direction="ltr">ledger network</text></g><g transform="translate(698.3333333333333 2679.166666666667) rotate(0 205 112.5)"><text x="205" y="20" font-family="Cascadia, Segoe UI Emoji" font-size="20px" fill="#000000" text-anchor="middle" style="white-space: pre;" direction="ltr">if someone takes between</text><text x="205" y="45" font-family="Cascadia, Segoe UI Emoji" font-size="20px" fill="#000000" text-anchor="middle" style="white-space: pre;" direction="ltr">tx.DATA.B.low to tx.DATA.B.high </text><text x="205" y="70" font-family="Cascadia, Segoe UI Emoji" font-size="20px" fill="#000000" text-anchor="middle" style="white-space: pre;" direction="ltr">tx.DATA.B.output_asset </text><text x="205" y="95" font-family="Cascadia, Segoe UI Emoji" font-size="20px" fill="#000000" text-anchor="middle" style="white-space: pre;" direction="ltr">from my account,</text><text x="205" y="120" font-family="Cascadia, Segoe UI Emoji" font-size="20px" fill="#000000" text-anchor="middle" style="white-space: pre;" direction="ltr">it has to credit</text><text x="205" y="145" font-family="Cascadia, Segoe UI Emoji" font-size="20px" fill="#000000" text-anchor="middle" style="white-space: pre;" direction="ltr">at least tx.DATA.B.min_rate </text><text x="205" y="170" font-family="Cascadia, Segoe UI Emoji" font-size="20px" fill="#000000" text-anchor="middle" style="white-space: pre;" direction="ltr">the amount in tx.DATA.B.input_asset</text><text x="205" y="195" font-family="Cascadia, Segoe UI Emoji" font-size="20px" fill="#000000" text-anchor="middle" style="white-space: pre;" direction="ltr"> and to be before</text><text x="205" y="220" font-family="Cascadia, Segoe UI Emoji" font-size="20px" fill="#000000" text-anchor="middle" style="white-space: pre;" direction="ltr"> (tx.DATA.B.timestamp + 20mn)</text></g><g transform="translate(529.9999999999999 3076.666666666667) rotate(0 137.5 30)"><path d="M-0.9896256175925732 -1.4372268110992907 C80.86268898388697 2.17691104307577, 159.7279582018216 2.8831495502550304, 274.62874713638234 -0.4794436879990101 M-0.3184039970985651 -0.5932959448360204 C88.3795972661642 0.7914978209864199, 175.0001567348713 0.9751749965349734, 275.0958047476791 -0.39417678147161006 M275.98869997262955 1.536378800868988 C273.1097989857197 16.251584768295288, 273.13003023266793 31.80462032556534, 276.4536905884743 59.09839624166489 M274.23508259654045 0.6720176041126251 C275.5829989910126 13.563890188932419, 274.95223212242126 27.871320635080338, 275.0937585532665 59.81912472844124 M274.3257385892098 61.215439746014354 C165.34888671598648 61.388930533862386, 57.42025122484326 62.785844354029926, 0.0168588182823658 58.52988930807948 M275.12970927486646 59.48728707897532 C169.69321478007447 57.87125630803928, 63.62476798291433 57.41822752631244, 0.7398821219390631 59.85900412051356 M-1.9841203093528748 60.52854722738266 C1.3197284162044525 45.74846088886261, -0.39307256340980534 27.286672890186306, -1.3432263731956482 1.1197394728660583 M0.560817688703537 59.230651408433914 C1.255303943157196 45.51135763525963, 0.4139047503471374 29.498637348413467, -0.8999033272266388 0.7664914429187775" stroke="#000000" stroke-width="1" fill="none"></path></g><g><g transform="translate(411.66666666666663 2965) rotate(0 84.92857956555204 54.49420876364684)"><path d="M1.1456771492958067 -0.21832634210586543 C29.559949584801988 18.32640797694524, 141.49882529179254 92.19566011826197, 169.56914020776748 110.36696914434432 M0.28801892333664014 -1.3785516170505434 C28.586763098671412 16.871535967703288, 140.34708970103102 89.95695846857193, 168.3948933532182 108.43705319634638" stroke="#000000" stroke-width="1" fill="none"></path></g><g transform="translate(411.66666666666663 2965) rotate(0 84.92857956555204 54.49420876364684)"><path d="M138.83087233780125 100.83770341560539 C146.28456881588107 102.09512076675787, 150.21872903234885 104.88321302011465, 169.89810634159483 110.03121512404643 M139.7546193110774 101.02785042807754 C146.81168640936775 103.02251483191696, 156.628492973866 104.96709383096209, 169.1690298666898 108.7806949841138" stroke="#000000" stroke-width="1" fill="none"></path></g><g transform="translate(411.66666666666663 2965) rotate(0 84.92857956555204 54.49420876364684)"><path d="M150.08559055732587 83.67811949917723 C154.893543093809 88.88030908296034, 156.31086170117607 95.50572128989882, 169.89810634159483 110.03121512404643 M151.009337530602 83.86826651164938 C154.72025281048732 90.75539578256459, 161.27858659830702 97.66802782036227, 169.1690298666898 108.7806949841138" stroke="#000000" stroke-width="1" fill="none"></path></g></g><g><g transform="translate(840.0000000000001 2975) rotate(0 -60.84011707526014 50.94532678600717)"><path d="M-0.8531129479408264 0.9848899483680726 C-21.079487298594593 17.624165096547916, -101.33909122281611 83.70536122454563, -121.64396899143863 100.50614760319422 M0.8998640250507743 0.45635322592221206 C-19.45754481517504 17.13978224176401, -102.37656631708049 84.3150859889877, -122.58009817557107 101.43430034609231" stroke="#000000" stroke-width="1" fill="none"></path></g><g transform="translate(840.0000000000001 2975) rotate(0 -60.84011707526014 50.94532678600717)"><path d="M-105.73585385098465 75.60949158620292 C-113.36587567827655 80.91372252950899, -115.4256215735907 88.60246229813383, -122.7693587179638 101.63865850658807 M-107.00025758161553 75.57701030325347 C-112.21778637408467 83.95658313494593, -116.6553263004281 91.97169214670464, -121.60611295060883 100.67509449811372" stroke="#000000" stroke-width="1" fill="none"></path></g><g transform="translate(840.0000000000001 2975) rotate(0 -60.84011707526014 50.94532678600717)"><path d="M-92.66844088423146 91.43234596656583 C-103.9959581200302 92.27356673930471, -109.66478965826822 95.59219616401256, -122.7693587179638 101.63865850658807 M-93.93284461486233 91.39986468361639 C-103.44113458050539 94.58714752175723, -112.17312642622903 97.40226112993406, -121.60611295060883 100.67509449811372" stroke="#000000" stroke-width="1" fill="none"></path></g></g><g transform="translate(628.3333333333334 3093.3333333333335) rotate(0 17.5 12.5)"><text x="0" y="20" font-family="Cascadia, Segoe UI Emoji" font-size="20px" fill="#000000" text-anchor="start" style="white-space: pre;" direction="ltr">...</text></g><g transform="translate(673.3333333333331 1775.0000000000002) rotate(0 87.5 13)"><text x="0" y="18" font-family="Virgil, Segoe UI Emoji" font-size="20px" fill="#000000" text-anchor="start" style="white-space: pre;" direction="ltr">craft transaction</text></g><g transform="translate(314.66666666666686 413) rotate(0 82 52)"><path d="M0.9718953371047974 2.359817385673523 C34.5021896481514 -4.117894384860993, 67.8314341545105 -2.3067333436012265, 162.87172520160675 1.0472067594528198 M-0.5229626297950745 0.0708971619606018 C38.11859574317932 1.8851237106323242, 78.83235870599746 1.6832480239868164, 162.40770715475082 -1.5679330229759216 M165.96153843402863 -2.578251004219055 C164.17311373710632 21.207782316207886, 165.1508320903778 47.03666231632233, 161.45328724384308 107.62854754924774 M163.5065993666649 -0.9419717192649841 C163.47080638170243 34.62879351377487, 164.1410353398323 70.65958071947098, 165.14423936605453 105.57843881845474 M164.64759266376495 107.94547259807587 C111.98209556341172 103.35589509248733, 56.02961115837097 105.7776518368721, 0.5007916688919067 101.71464908123016 M164.8236979842186 104.72539621591568 C98.71495821475982 101.63895592212677, 33.15889178514479 102.25482925891876, -0.24770742654800415 102.91481310129166 M2.0183392763137817 107.25520694255829 C-5.786154117584228 65.02025699615479, 1.147374782562256 29.28909122943878, 2.127519726753235 1.5047301054000854 M0.15294259786605835 102.6921415925026 C-0.7499175238609315 63.81723283529281, -1.0868907141685487 27.234377300739283, -0.6060238480567932 -1.3771695494651794" stroke="#000000" stroke-width="1" fill="none"></path></g><g transform="translate(424.9999999999999 10) rotate(0 216.6666666666668 217.5)"><path d="M215.75568967938457 -1.348526907885675 C282.65253087879177 64.8530313715304, 346.43878791664855 130.1929731424446, 431.97077057964066 219.2690997259856 M216.62733811138543 0.6304229251122169 C286.37453612019254 72.26249609166636, 357.65911844203794 143.36895612650835, 433.37864857326696 218.0588066610414 M433.29271403567446 216.9687705262574 C352.25782894214467 300.58297851243054, 269.3723497826413 383.1548584893724, 218.142936623242 436.2999056905554 M433.19481352451135 218.49059004471806 C372.6199230009106 279.2059311492976, 312.37237516515216 339.73689334649345, 217.45442002341073 434.93252566157406 M217.52841943218155 436.1319713267851 C137.09601523798318 356.2170268206753, 57.86338403789017 279.50726301417933, -0.36520159734862373 219.06527414883863 M216.5718356238947 435.64771607995146 C158.87922792232158 377.7716444771595, 102.9619988710009 320.42827707856884, 0.21063268154918188 217.90524342547417 M1.1326109005290792 216.8046846302716 C48.56157042702018 168.51953769446555, 95.80972304237166 121.20654765808008, 217.9674676205525 0.32571077246142005 M-0.05581132189877982 217.6810727576487 C79.5246422182127 138.42493098514385, 159.49549903272782 58.10726244531031, 216.93798894973236 0.19989882336951717" stroke="#000000" stroke-width="1" fill="none"></path></g></svg>