<svg version="1.1" xmlns="http://www.w3.org/2000/svg" viewBox="0 0 1734.6666666666663 2705.9599810098944" width="1734.6666666666663" height="2705.9599810098944">
  <!-- svg-source:excalidraw -->
  
  <defs>
    <style>
      @font-face {
        font-family: "Virgil";
        src: url("https://excalidraw.com/Virgil.woff2");
      }
      @font-face {
        font-family: "Cascadia";
        src: url("https://excalidraw.com/Cascadia.woff2");
      }
    </style>
  </defs>
  <rect x="0" y="0" width="1734.6666666666663" height="2705.9599810098944" fill="#ffffff"></rect><g transform="translate(456.642857142863 616.3647429146567) rotate(0 94 60)"><text x="0" y="16" font-family="Cascadia, Segoe UI Emoji" font-size="16px" fill="#000000" text-anchor="start" style="white-space: pre;" direction="ltr">- 400 &lt; X &lt; 1000 USD</text><text x="0" y="36" font-family="Cascadia, Segoe UI Emoji" font-size="16px" fill="#000000" text-anchor="start" style="white-space: pre;" direction="ltr">- rate USD to EUR: </text><text x="0" y="56" font-family="Cascadia, Segoe UI Emoji" font-size="16px" fill="#000000" text-anchor="start" style="white-space: pre;" direction="ltr">  &gt;= 1.5 EUR/USD</text><text x="0" y="76" font-family="Cascadia, Segoe UI Emoji" font-size="16px" fill="#000000" text-anchor="start" style="white-space: pre;" direction="ltr">- rate USD to CZK:</text><text x="0" y="96" font-family="Cascadia, Segoe UI Emoji" font-size="16px" fill="#000000" text-anchor="start" style="white-space: pre;" direction="ltr">  &gt;= 10 USD/CZK</text><text x="0" y="116" font-family="Cascadia, Segoe UI Emoji" font-size="16px" fill="#000000" text-anchor="start" style="white-space: pre;" direction="ltr">- in less than 20 mn</text></g><g transform="translate(431.1190476190533 579.2695048194187) rotate(0 47 12.5)"><text x="0" y="20" font-family="Cascadia, Segoe UI Emoji" font-size="20px" fill="#000000" text-anchor="start" style="white-space: pre;" direction="ltr">- DATA: </text></g><g transform="translate(413.7857142857199 538.6980762479901) rotate(0 142.19047619047626 122.95238095238095)"><path d="M0.7522489228663732 -2.2863179172792 C75.46676602838393 1.8416474370049782, 148.94222235077007 4.125699040295379, 283.2273383372771 -0.03786614227825423 M0.015288606426154603 -0.0703285745194289 C92.04820167611105 -2.0900890284647033, 182.40836400546118 -3.348715523786934, 284.63843448007685 0.24050877274141738 M285.15392824882827 -0.29881251417602833 C289.12459836628 87.03047787950955, 287.861632239892 181.25153027778475, 285.9088359972242 242.7146411259603 M283.7765902401812 0.3739583695993714 C287.34667238980603 98.99885135827398, 285.9415516764234 197.4007611172211, 283.31811330930026 246.44821394883323 M284.53584605892684 244.91703563180033 C185.84923931275966 246.0682015302562, 82.95170058721388 241.04882660295098, 0.14140065456562909 243.57992392796086 M285.18092706083166 245.10648452272778 C196.74989127737626 241.60529543797975, 107.4958066828481 243.42309312494402, -1.192473400680786 247.14526598537495 M-2.754597866420088 244.4350449692518 C-3.985248019692466 172.6403421710073, -0.15728387268003474 104.2664453438005, -1.96734152148352 2.445706297583001 M0.5839272363670382 247.26946446377767 C1.6840889636016314 181.2202181132819, 3.419568403756664 113.59066680351759, 1.3673342243579454 0.6290040966715933" stroke="#000000" stroke-width="1" fill="none"></path></g><g transform="translate(432.55952380952954 750.6742667241799) rotate(0 76 12.5)"><text x="0" y="20" font-family="Cascadia, Segoe UI Emoji" font-size="20px" fill="#000000" text-anchor="start" style="white-space: pre;" direction="ltr">- timestamp T</text></g><g transform="translate(444.30952380952954 613.9837905337045) rotate(0 123.64285714285711 64.73809523809524)"><path d="M0.48217126308650077 -0.018170522950197544 C63.33593431466409 2.745375004898288, 126.2728660064948 1.5080524072118884, 247.62358328470813 1.0731658633851344 M0.47768217150464165 0.07464698627106356 C86.98631523187953 -0.511872901945119, 174.02661848111572 0.22408333816841858, 247.82379260466487 0.34557178131173233 M249.1311756784894 -1.733109349384904 C248.66815602617376 41.13595029431883, 248.51728206710928 78.53516702725597, 249.2754165942647 130.3963265162671 M247.95515274003674 0.4636286022141576 C246.6268393175627 38.67475845187991, 246.16523224878563 76.54990216415553, 247.7919196684711 128.51622153397295 M247.92272363044634 131.10769906854597 C188.35423812332706 127.73330502428948, 131.67250681513838 127.55876992340048, 0.17544113872667508 130.41233418009492 M247.6756426153055 129.11898269059864 C193.83770342118447 129.03450791542022, 139.94037494841638 129.07956504333066, -0.11900348101717978 129.8817256101907 M-1.2053998466581106 127.62019244253281 C2.2017108366696077 76.99359765541962, -0.11176459334214162 27.481022262227313, -0.6778695937246084 -1.4431586805731058 M-0.7518291147425771 129.93299273725245 C-0.1571233808147232 81.42481715916435, 0.37117013939745025 35.50454460384235, 0.02534270565956831 -0.6822551069781184" stroke="#000000" stroke-width="1" fill="none"></path></g><g transform="translate(435.30952380952954 542.9599810098948) rotate(0 108.5 26)"><text x="0" y="18" font-family="Virgil, Segoe UI Emoji" font-size="20px" fill="#000000" text-anchor="start" style="white-space: pre;" direction="ltr">intent from account A</text><text x="0" y="44" font-family="Virgil, Segoe UI Emoji" font-size="20px" fill="#000000" text-anchor="start" style="white-space: pre;" direction="ltr"></text></g><g><g transform="translate(1147.5038780357704 795.9123619622758) rotate(0 -53.42583591365286 44.56460145176672)"><path d="M-1.8816484101116657 -2.6504045002162453 C-19.999172460415195 12.652139161729895, -88.96786169796303 75.74452361118836, -106.86496770830888 91.77960740374972 M2.2923610965907573 2.082493532449007 C-16.371531692522996 16.472979419533495, -91.46607656666752 72.49459637733341, -109.1440329238965 87.02258577393938" stroke="#000000" stroke-width="1" fill="none"></path></g><g transform="translate(1147.5038780357704 795.9123619622758) rotate(0 -53.42583591365286 44.56460145176672)"><path d="M-96.97327344807526 61.51036020690815 C-98.36178237160912 67.15912932645931, -101.65404638711377 80.55551645674115, -110.71932772399921 85.96729001599003 M-92.22554136383077 63.285798772669004 C-100.47355298550447 71.19966367774339, -106.79954940439173 80.52506448612527, -108.74805068450112 85.48126362832834" stroke="#000000" stroke-width="1" fill="none"></path></g><g transform="translate(1147.5038780357704 795.9123619622758) rotate(0 -53.42583591365286 44.56460145176672)"><path d="M-84.37702040907442 77.71080500831104 C-90.36811260275151 77.26543985783884, -98.26708574453953 84.73699071455592, -110.71932772399921 85.96729001599003 M-79.62928832482993 79.48624357407189 C-92.96151834069285 80.87265717893388, -104.26885040845835 83.7914025345357, -108.74805068450112 85.48126362832834" stroke="#000000" stroke-width="1" fill="none"></path></g></g><g><g transform="translate(845.0953332756721 787.7629416150178) rotate(0 6.503135966104878 44.94998853119168)"><path d="M0.2295691363513468 -0.8682191841304301 C2.572369932645762 14.47778184434425, 13.906285318306109 75.27574879132962, 16.096603763933206 90.41286742437786 M-3.090331831723452 -3.807849122732878 C-1.2515776917197268 12.115339431173116, 10.490478944550972 77.65961459043875, 14.179837485189463 93.70782618511623" stroke="#000000" stroke-width="1" fill="none"></path></g><g transform="translate(845.0953332756721 787.7629416150178) rotate(0 6.503135966104878 44.94998853119168)"><path d="M-2.634410622612174 68.91236414548185 C3.2281127681710338 74.55397744862225, 8.380032706941755 83.2420712597845, 11.914758158261801 92.06363605994886 M0.022544302895132873 66.78357330870058 C3.8298250838671315 74.41278069568463, 10.652315340312954 84.82570296863625, 15.45737504341724 93.72329939816302" stroke="#000000" stroke-width="1" fill="none"></path></g><g transform="translate(845.0953332756721 787.7629416150178) rotate(0 6.503135966104878 44.94998853119168)"><path d="M17.49081067352654 64.90044812351871 C15.801986225718604 72.07090509641067, 13.45021813292469 82.25484165109708, 11.914758158261801 92.06363605994886 M20.147765599033846 62.77165728673745 C17.23110369034127 72.05717618141038, 17.362728638707786 83.80390687988381, 15.45737504341724 93.72329939816302" stroke="#000000" stroke-width="1" fill="none"></path></g></g><g transform="translate(366.8571428571429 426.5790286289425) rotate(0 520.6904761904763 184.16666666666663)"><path d="M0.18997995853424074 -0.6774215936660767 C314.0140138800656 -2.6099702564137335, 629.8931503406594 -1.7846032825367804, 1041.6997752655122 -0.5005394220352173 M0.0027706027030944824 0.13976308107376098 C320.5312604144926 2.8834077433120644, 640.9140348942508 2.7704495981704627, 1041.6372153390023 -0.3307519793510437 M1041.9913786071377 -0.02214781983971596 C1041.0272483098822 99.84121120760162, 1040.5269933705436 197.2088020629238, 1040.8958826563091 369.17903906844805 M1041.652643410749 -0.29320469405925276 C1041.162385218593 107.31531308695963, 1041.1672059380792 216.18532472942871, 1040.816040948114 367.7830627832445 M1041.3514819610689 368.16669512589766 C716.8837447695789 370.8067093092316, 393.95392261715165 369.65732042373355, -0.1693286657333374 369.0693097194035 M1041.0576937783333 368.31732630332306 C740.0086386338586 364.6876407173758, 438.45996190735275 364.6616698769217, 0.03450621366500855 368.38277315696075 M-0.6711113374593258 367.528762834218 C2.3290793009957214 248.45328975049722, 1.732875445153131 128.10874291653226, -1.202784537799597 0.09103187566351892 M0.041112844699740414 368.3466758345026 C1.05455626213004 288.89139440627963, 1.6015375062744797 208.86482375356937, -0.2142387939606905 -0.08520727649104597" stroke="#000000" stroke-width="1" fill="none"></path></g><g><g transform="translate(1282.682919017011 128.2218857717986) rotate(0 -17.0312413320529 200.2048982633974)"><path d="M1.2436225421726705 -1.0962667830288408 C-4.51458743817567 66.19299534500725, -27.49749803478316 337.4884805958016, -34.21141658243293 404.5694905163995 M-1.5257922913134099 -4.159693989604712 C-7.497049518594733 62.27257810305641, -29.94618907396789 332.6166614430689, -35.30610520627851 400.61492886654054" stroke="#000000" stroke-width="1" fill="none"></path></g><g transform="translate(1282.682919017011 128.2218857717986) rotate(0 -17.0312413320529 200.2048982633974)"><path d="M-44.812948020722764 374.69367298690827 C-37.817265640167456 376.7533803412213, -39.881655085948424 390.3652462875438, -36.29464280840511 402.9163366135112 M-44.29840566086401 372.1679257286921 C-41.40185018584739 381.7122214117026, -37.146497478744436 394.6284740063071, -36.20597885411734 398.81407403833185" stroke="#000000" stroke-width="1" fill="none"></path></g><g transform="translate(1282.682919017011 128.2218857717986) rotate(0 -17.0312413320529 200.2048982633974)"><path d="M-24.359324594251486 376.3577917068154 C-23.756431643618477 378.07987437633847, -32.20369810406736 391.172425729569, -36.29464280840511 402.9163366135112 M-23.844782234392735 373.8320444485993 C-28.76995128220266 383.0289176988285, -32.31425755320609 395.31058549426433, -36.20597885411734 398.81407403833185" stroke="#000000" stroke-width="1" fill="none"></path></g></g><g transform="translate(1183.1785714285772 22.22188577179861) rotate(0 82 52)"><path d="M-0.7988155409693718 0.37502186745405197 C51.0810395307839 -5.218235109001398, 104.79897596240045 -2.0691469646990295, 165.63183826953173 2.4651085659861565 M-0.21313372626900673 -0.17810073122382164 C53.24751683771611 0.8006927561759944, 107.22632154598834 3.5384865593910213, 162.5751690529287 1.985353920608759 M166.43675274401903 0.4917065426707268 C162.18727958381177 25.24700526893139, 164.50830328643323 49.48148337751627, 163.2765328362584 101.51653902977705 M162.70281740650535 -0.30097058042883873 C163.9260143120587 33.91543818041683, 163.00879813030363 68.39744523838164, 162.71007999405265 102.27139291539788 M167.09334916621447 103.05760233849287 C125.38164418563247 101.79266485884786, 89.14718072116375 102.35943183615804, 3.8376168683171272 101.60385053604841 M162.18773445114493 104.12969121709466 C117.30091544538735 102.30405679494143, 71.89001425579188 103.74597504884005, 0.7736980579793453 103.17895672097802 M-3.835618071258068 106.88008230179548 C-0.5319562590122224 76.441262114048, -1.497507873773575 48.11589865237474, 1.1913110688328743 1.7766036316752434 M-1.9445398189127445 103.11840126290917 C-1.217181733697653 76.37757925018668, -0.4138397489488126 51.37037311270833, 1.3259597681462765 1.4039681889116764" stroke="#000000" stroke-width="1" fill="none"></path></g><g transform="translate(1069.1666666666724 539.9123619622758) rotate(0 141.42857142857133 118)"><path d="M-1.7606220988962298 0.8779281801375985 C69.85184761217455 4.606444865271829, 139.43796147900923 2.250801655261912, 281.25352842430976 -2.312515846027752 M-0.3161307769152619 -1.2621507623160562 C97.65672964240558 -2.059187943920252, 195.3732519640865 0.24322293686061625, 283.8937290501606 0.6281197404827404 M282.8746208769015 -3.0074618192406977 C282.2959894152893 84.46241553661463, 279.76472743236127 164.5336979122606, 282.0479598379808 237.8541588401985 M282.5964839707991 0.4735133131264134 C280.05478774075374 81.90906707876668, 281.5307779163478 166.00651740909657, 282.8091256668685 236.4772002783432 M282.2562707504258 237.13015496065668 C202.2968836484313 233.58516986637528, 128.57152771182675 235.60595307219353, -1.7074632444297233 236.93853041858296 M282.2811753487152 235.54903041527916 C196.40265959173811 237.06372581512036, 111.96768587404917 236.1801111458764, 0.12094406550753016 235.13682382827125 M-1.3287732559905199 234.8342720816033 C-3.275652828514172 185.60134236516353, -0.3831689872661368 135.8417336577722, -3.064191866133132 -3.1090805124426213 M0.7705424582771137 237.01882749455714 C4.691200856455886 160.15640414919017, 3.024772383780324 87.48426859107146, -0.5890473185874625 0.73424286459264" stroke="#000000" stroke-width="1" fill="none"></path></g><g transform="translate(1207.1785714285772 71.22188577179861) rotate(0 50.5 13)"><text x="0" y="18" font-family="Virgil, Segoe UI Emoji" font-size="20px" fill="#000000" text-anchor="start" style="white-space: pre;" direction="ltr">account C</text></g><g transform="translate(923.0000000000002 823.2456952956093) rotate(0 63.5 13)"><text x="0" y="18" font-family="Virgil, Segoe UI Emoji" font-size="20px" fill="#000000" text-anchor="start" style="white-space: pre;" direction="ltr">fetch intents</text></g><g><g transform="translate(926.7025068846872 128.78144618145018) rotate(0 -16.02593393680263 193.5044186042494)"><path d="M0.18991366401314735 -0.677524421364069 C-5.064251316221108 63.86044168776097, -26.126830727018664 323.0326110663921, -31.30353064987987 387.68636162986286 M-1.169520391719416 1.5811713120806963 C-6.599451914209549 65.72237618769714, -27.20357892175975 321.3505027194698, -32.241781537618415 385.8577596027614" stroke="#000000" stroke-width="1" fill="none"></path></g><g transform="translate(926.7025068846872 128.78144618145018) rotate(0 -16.02593393680263 193.5044186042494)"><path d="M-41.36214782028799 356.97274415701867 C-36.64437042442043 366.89064961327097, -34.83518420830298 374.12765569326575, -32.953024328883664 385.45698243791475 M-41.133234310069724 356.8567959027761 C-38.605940474208346 362.62494968044786, -36.55064068329969 369.0867358428309, -32.235572493832485 385.574512193373" stroke="#000000" stroke-width="1" fill="none"></path></g><g transform="translate(926.7025068846872 128.78144618145018) rotate(0 -16.02593393680263 193.5044186042494)"><path d="M-20.90565498404578 358.6012106831135 C-22.708571685253 368.03289766531276, -27.413856585276903 374.75131054202626, -32.953024328883664 385.45698243791475 M-20.676741473827516 358.48526242887095 C-22.328147473912686 364.08395023662234, -24.451572889128045 370.2130833790378, -32.235572493832485 385.574512193373" stroke="#000000" stroke-width="1" fill="none"></path></g></g><g transform="translate(897.8333333333392 61.245695295608925) rotate(0 49.5 13)"><text x="0" y="18" font-family="Virgil, Segoe UI Emoji" font-size="20px" fill="#000000" text-anchor="start" style="white-space: pre;" direction="ltr">account B</text></g><g transform="translate(758.9761904761962 572.150457200371) rotate(0 47 12.5)"><text x="0" y="20" font-family="Cascadia, Segoe UI Emoji" font-size="20px" fill="#000000" text-anchor="start" style="white-space: pre;" direction="ltr">- DATA: </text></g><g transform="translate(741.6428571428628 531.5790286289425) rotate(0 142.19047619047626 122.95238095238093)"><path d="M1.954201574904988 -1.5505768469941767 C80.93912172333985 -1.149238584364252, 165.2615420517713 -2.614015744446973, 285.17420394968536 2.7000464163541964 M0.5196809247595467 0.3637743823783066 C113.63624047248406 -1.8841737429468723, 223.65224711168 -0.4424020596916842, 284.72050452537565 1.1897115620197096 M285.72232613563284 -0.8497145688538539 C282.1714491608753 60.98768302736106, 286.76248850363197 117.86737706181667, 282.62235589631086 245.53244102389792 M283.2801275594743 1.6020748828190627 C284.6187494235423 66.49582169387988, 285.19675294421637 130.6608769451709, 283.4742720491543 244.78750864435906 M282.6261997772894 246.77976328120232 C214.83638764174196 243.52870829863306, 145.02697505028158 241.18091824268765, -1.5982683638069533 243.59995543642694 M284.0658755088413 244.64681885282698 C185.71348528125492 245.88433572462404, 87.1056115262644 248.1790709152623, 1.0331304612499392 246.5307876434569 M0.017134496302841817 242.9564105392392 C1.3084822858270286 164.21454718260333, -1.1730287598379083 78.21950525748382, -0.7932788520340456 1.8177160931590228 M-0.2555357406600401 246.36896850396715 C2.3005971216558248 158.83064347579642, 3.7475773033725055 73.90189650483413, -0.04707343169163913 0.4678210986020661" stroke="#000000" stroke-width="1" fill="none"></path></g><g transform="translate(1087.738095238101 634.4361714860852) rotate(0 94 40)"><text x="0" y="16" font-family="Cascadia, Segoe UI Emoji" font-size="16px" fill="#000000" text-anchor="start" style="white-space: pre;" direction="ltr">- 0 &lt; X &lt; 0.05 BTC </text><text x="0" y="36" font-family="Cascadia, Segoe UI Emoji" font-size="16px" fill="#000000" text-anchor="start" style="white-space: pre;" direction="ltr">- rate BTC to EUR: </text><text x="0" y="56" font-family="Cascadia, Segoe UI Emoji" font-size="16px" fill="#000000" text-anchor="start" style="white-space: pre;" direction="ltr">  &gt;= 0.00001 BTC/USD</text><text x="0" y="76" font-family="Cascadia, Segoe UI Emoji" font-size="16px" fill="#000000" text-anchor="start" style="white-space: pre;" direction="ltr">- in less than 1 mn</text></g><g transform="translate(1085.6666666666724 738.2218857717996) rotate(0 88 12.5)"><text x="0" y="20" font-family="Cascadia, Segoe UI Emoji" font-size="20px" fill="#000000" text-anchor="start" style="white-space: pre;" direction="ltr">- timestamp T''</text></g><g transform="translate(760.4166666666724 743.5552191051322) rotate(0 82 12.5)"><text x="0" y="20" font-family="Cascadia, Segoe UI Emoji" font-size="20px" fill="#000000" text-anchor="start" style="white-space: pre;" direction="ltr">- timestamp T'</text></g><g transform="translate(759.1666666666724 606.8647429146567) rotate(0 123.64285714285711 64.73809523809524)"><path d="M1.517021315303088 0.5348156810792846 C67.51070915313481 -1.502580591630389, 136.40596307349392 1.1219591585459863, 247.29551514447405 0.11014645239524075 M-0.17618928815455137 0.7232111487928633 C59.42510365772202 0.7900932683980011, 120.7944142620768 1.9183533491994882, 247.79144630439205 0.8001533689735518 M247.45942433018763 1.157556775957346 C246.42295408735046 43.13118312077685, 247.6896454144455 85.70320195216863, 247.24594850678523 129.94227579466644 M248.26225467425365 0.5810951869934797 C246.80449200382094 27.942727100272624, 246.66089529504637 56.89929729175001, 246.3099191377737 128.86860423951987 M248.08008322947347 129.65750165077665 C191.2905109685858 129.14591573456613, 136.6284589650581 129.87730975262232, 0.2728928885151667 130.91174227751776 M247.18068580416332 129.4769079326144 C178.88663621432937 127.44477536393481, 110.61935201296805 127.7730934914744, 0.3108114404103513 130.0954385242594 M-0.47824961319565773 127.88911190859619 C-2.16114770445884 91.46216726818432, 1.0768952461713481 53.40827331746972, -1.8636080659925938 1.7750464715063572 M0.506104888394475 129.6652581658924 C0.1360415448647525 94.77939436745254, -1.1817685733336423 60.66168662064841, -0.48840212635695934 0.34095862321555614" stroke="#000000" stroke-width="1" fill="none"></path></g><g transform="translate(1082.0238095238153 625.8647429146567) rotate(0 118.64285714285722 52.738095238095184)"><path d="M-1.6373457007188326 0.8553884869123877 C67.18338111428422 0.2863499259795282, 137.5651593923649 -0.5054819436494186, 237.66311128637017 -0.3616528929984487 M-0.16289828592121872 0.573285325419776 C65.16912528431429 1.0776684080666126, 131.76683865869387 1.5518085440920888, 237.5124594804392 -0.1438089873534038 M236.10310645241844 -1.6627210341393948 C236.27809673950895 36.00425445106586, 238.16705292866453 74.78951988378088, 236.83064396519768 106.7767488085442 M236.52365698319483 0.7319500725716352 C238.10319993183305 27.132501550151805, 238.78253451273133 54.986206637961466, 237.78425594073343 104.58041989475123 M238.44297413649892 104.6686415186626 C161.1521550244922 104.6630198593231, 82.75406647559109 105.44494376426255, -1.3996383446908072 105.83611790620694 M236.65116853557623 106.24311297974475 C153.37651929192026 105.93442403324521, 69.84951128520694 104.68245573446276, 0.5557506071063114 104.9197369621014 M0.3158307634294033 106.9429719769173 C-0.9184348695201888 71.17538731691553, -1.6911836974544538 40.417938307548525, 1.722315724939108 1.9023585356771946 M0.5547958631068468 106.0272985067927 C0.02014968200542433 70.8407134925059, -0.4453102012076189 35.03440611188607, 0.9864801783114672 0.3846872728317976" stroke="#000000" stroke-width="1" fill="none"></path></g><g transform="translate(181.79166666667243 2099.584981009895) rotate(0 205 125)"><text x="0" y="20" font-family="Cascadia, Segoe UI Emoji" font-size="20px" fill="#000000" text-anchor="start" style="white-space: pre;" direction="ltr">if someone takes between</text><text x="0" y="45" font-family="Cascadia, Segoe UI Emoji" font-size="20px" fill="#000000" text-anchor="start" style="white-space: pre;" direction="ltr">tx.DATA.A.low to tx.DATA.A.high </text><text x="0" y="70" font-family="Cascadia, Segoe UI Emoji" font-size="20px" fill="#000000" text-anchor="start" style="white-space: pre;" direction="ltr">tx.DATA.A.output_asset </text><text x="0" y="95" font-family="Cascadia, Segoe UI Emoji" font-size="20px" fill="#000000" text-anchor="start" style="white-space: pre;" direction="ltr">from my account,</text><text x="0" y="120" font-family="Cascadia, Segoe UI Emoji" font-size="20px" fill="#000000" text-anchor="start" style="white-space: pre;" direction="ltr">it has to credit</text><text x="0" y="145" font-family="Cascadia, Segoe UI Emoji" font-size="20px" fill="#000000" text-anchor="start" style="white-space: pre;" direction="ltr">at least tx.DATA.A.min_rate </text><text x="0" y="170" font-family="Cascadia, Segoe UI Emoji" font-size="20px" fill="#000000" text-anchor="start" style="white-space: pre;" direction="ltr">the amount in tx.DATA.A.input_asset</text><text x="0" y="195" font-family="Cascadia, Segoe UI Emoji" font-size="20px" fill="#000000" text-anchor="start" style="white-space: pre;" direction="ltr"> and to be before</text><text x="0" y="220" font-family="Cascadia, Segoe UI Emoji" font-size="20px" fill="#000000" text-anchor="start" style="white-space: pre;" direction="ltr"> (tx.DATA.A.timestamp</text><text x="0" y="245" font-family="Cascadia, Segoe UI Emoji" font-size="20px" fill="#000000" text-anchor="start" style="white-space: pre;" direction="ltr">  + tx.DATA.A.TTL)</text></g><g transform="translate(656.6904761904817 1155.8647429146567) rotate(0 140.5 175)"><text x="0" y="20" font-family="Cascadia, Segoe UI Emoji" font-size="20px" fill="#000000" text-anchor="start" style="white-space: pre;" direction="ltr">- STATE FUNCTION : </text><text x="0" y="45" font-family="Cascadia, Segoe UI Emoji" font-size="20px" fill="#000000" text-anchor="start" style="white-space: pre;" direction="ltr">  - 1/ src: A</text><text x="0" y="70" font-family="Cascadia, Segoe UI Emoji" font-size="20px" fill="#000000" text-anchor="start" style="white-space: pre;" direction="ltr">       dest: C</text><text x="0" y="95" font-family="Cascadia, Segoe UI Emoji" font-size="20px" fill="#000000" text-anchor="start" style="white-space: pre;" direction="ltr">       amount: 466.6 USD</text><text x="0" y="120" font-family="Cascadia, Segoe UI Emoji" font-size="20px" fill="#000000" text-anchor="start" style="white-space: pre;" direction="ltr">  - 2/ src: C</text><text x="0" y="145" font-family="Cascadia, Segoe UI Emoji" font-size="20px" fill="#000000" text-anchor="start" style="white-space: pre;" direction="ltr">       dest: B</text><text x="0" y="170" font-family="Cascadia, Segoe UI Emoji" font-size="20px" fill="#000000" text-anchor="start" style="white-space: pre;" direction="ltr">       amount: 800 EUR</text><text x="0" y="195" font-family="Cascadia, Segoe UI Emoji" font-size="20px" fill="#000000" text-anchor="start" style="white-space: pre;" direction="ltr">  - 3/ src: B </text><text x="0" y="220" font-family="Cascadia, Segoe UI Emoji" font-size="20px" fill="#000000" text-anchor="start" style="white-space: pre;" direction="ltr">       dest: A</text><text x="0" y="245" font-family="Cascadia, Segoe UI Emoji" font-size="20px" fill="#000000" text-anchor="start" style="white-space: pre;" direction="ltr">       amount: 0.017 BTC</text><text x="0" y="270" font-family="Cascadia, Segoe UI Emoji" font-size="20px" fill="#000000" text-anchor="start" style="white-space: pre;" direction="ltr">- DATA</text><text x="0" y="295" font-family="Cascadia, Segoe UI Emoji" font-size="20px" fill="#000000" text-anchor="start" style="white-space: pre;" direction="ltr">  - 1/ intent A</text><text x="0" y="320" font-family="Cascadia, Segoe UI Emoji" font-size="20px" fill="#000000" text-anchor="start" style="white-space: pre;" direction="ltr">  - 2/ intent B</text><text x="0" y="345" font-family="Cascadia, Segoe UI Emoji" font-size="20px" fill="#000000" text-anchor="start" style="white-space: pre;" direction="ltr">  - 3/ intent C</text></g><g transform="translate(165.2500000000058 2010.7933143432283) rotate(0 223.54166666666669 188.95833333333326)"><path d="M0.8137818160367866 0.8220859117396806 C136.5790314961232 -3.462102171277657, 275.1767757524692 -1.670965011990324, 445.509893224706 -1.548767550950076 M0.8773555274222956 0.1926842016445826 C95.94293269860209 -4.142752226916799, 193.00620194557422 -4.512694934515903, 446.9463825366812 0.5553068040059636 M448.7495611701196 1.5057295080679474 C453.2255291023648 140.49284667315877, 453.4543824384982 283.60193450168265, 446.27389853142495 378.50306374557516 M446.2352938830479 0.4700952713309323 C446.0746934646839 85.55603812973848, 445.6605132905909 170.71849758712406, 447.711174669668 378.15417287590185 M447.5451944971072 378.29234719470037 C325.75481152173137 373.24405044260027, 205.72841167412878 373.9717782776917, 1.7512151061064856 377.4677055328605 M447.7445211417383 377.86183418005044 C281.425054932295 378.816135528259, 113.19664754046532 380.03562371084615, -0.2363022144877444 378.122835128752 M-0.459443323924821 377.11169749163827 C0.6153625470852266 271.9972464832586, 1.5543256468217983 164.79699824158354, 1.938910007877667 -0.1184497371602245 M-0.33690095566333284 378.813855841933 C1.4253984795905217 296.71528165981056, 1.3415694738058312 216.98861615979612, 0.230195308537772 -0.8710215732113926" stroke="#000000" stroke-width="1" fill="none"></path></g><g><g transform="translate(719.266714856718 1907.5777971018488) rotate(0 -142.00890453205378 53.12911521399576)"><path d="M0.3751780994236471 -0.17796272113919276 C-47.000662765605156 16.981722015422463, -235.32556906890326 87.9925443474545, -282.1340716262335 105.27301333491133 M-2.8656780029833318 -2.74288200840354 C-50.80993476728886 14.70626207429357, -237.96991524419636 90.9183167728875, -284.3929871635312 109.00111243639515" stroke="#000000" stroke-width="1" fill="none"></path></g><g transform="translate(719.266714856718 1907.5777971018488) rotate(0 -142.00890453205378 53.12911521399576)"><path d="M-262.2655142408655 88.96962737513644 C-269.8309607441461 98.90465200449415, -280.76681131151565 104.47616170323418, -281.14522334353865 105.80846729640291 M-260.72868451223235 89.27745822666151 C-269.22114004299726 94.01871625187705, -276.8958716101442 101.54795762985808, -283.2500312978202 108.62370617080853" stroke="#000000" stroke-width="1" fill="none"></path></g><g transform="translate(719.266714856718 1907.5777971018488) rotate(0 -142.00890453205378 53.12911521399576)"><path d="M-254.6612126250546 108.02991591759073 C-265.39913082118807 110.82343346156686, -279.19229054113504 109.23305773615627, -281.14522334353865 105.80846729640291 M-253.12438289642142 108.3377467691158 C-263.71685779794376 107.45085954300212, -273.63988619851995 109.34471340753326, -283.2500312978202 108.62370617080853" stroke="#000000" stroke-width="1" fill="none"></path></g></g><g transform="translate(709.8333333333392 1862.7933143432283) rotate(0 48 13)"><text x="0" y="18" font-family="Virgil, Segoe UI Emoji" font-size="20px" fill="#000000" text-anchor="start" style="white-space: pre;" direction="ltr">check VPs</text></g><g transform="translate(643.3333333333392 2002.0433143432283) rotate(0 221.24999999999994 191.45833333333326)"><path d="M-0.4800008620051669 0.4187901485977696 C105.13119386063607 -3.511620421140565, 209.46696851205692 -3.1495849230877293, 441.83863322506255 -0.8917929995777089 M0.796509169906285 -0.048659453733172285 C163.02546694249125 -4.289111286094695, 327.32393319276406 -4.121018095189243, 443.237135196927 -0.5102091321154499 M442.95403206166407 -1.7179834078775913 C437.83397288639287 108.49287524062471, 441.97636163927785 214.170510853822, 441.99301463782393 385.0260770701775 M443.617412683089 -0.19401460489352243 C440.4736609766414 137.00748510032557, 441.11433776945984 271.3974036687477, 443.24560644478424 383.1328828510697 M440.78982559927414 383.5749692328072 C342.22829449885717 386.0308314811355, 242.42692873981755 387.1631807140058, 1.3554999821336946 383.8549042422092 M442.81100698500853 383.46784001792906 C318.4652151495194 383.54373318358404, 192.8420874252631 384.7806483126227, -0.7944714528829794 382.17296455238403 M-0.46105095272031815 383.8360279041968 C0.05028677191923536 236.3230436310004, -0.6803652363270675 88.01386425145407, -2.233277808391844 -1.0811368826530245 M-0.9457976004729405 383.51041423737337 C0.12950680185354813 277.9512333197489, 2.0065749336727374 176.13385431452178, -0.42115281005687843 1.1362197444298103" stroke="#000000" stroke-width="1" fill="none"></path></g><g><g transform="translate(807.7045543714379 1013.1183835084613) rotate(0 0.5261074989212204 44.64512406836468)"><path d="M-1.651592420786619 -2.417743790894747 C-1.1960331482374802 12.49840419668461, 1.2796450770476777 73.3533613422764, 0.7902623838578844 88.84254781252177 M2.6473046229779724 2.4414557696878916 C3.1489666831807166 17.771933251107782, 0.32263678506804716 76.48609919351863, 0.012251268366494372 91.70799192762406" stroke="#000000" stroke-width="1" fill="none"></path></g><g transform="translate(807.7045543714379 1013.1183835084613) rotate(0 0.5261074989212204 44.64512406836468)"><path d="M-12.719208419830219 67.02068123197718 C-9.269425631914508 66.02604716988344, -4.737379229277843 78.29738476216077, -0.3324410140121792 93.06682922667297 M-7.777117770672456 62.67840672633214 C-5.9601007262648515 72.59664925833796, -2.3215576850261685 81.58161743181476, 1.8074704178070213 92.73155457130106" stroke="#000000" stroke-width="1" fill="none"></path></g><g transform="translate(807.7045543714379 1013.1183835084613) rotate(0 0.5261074989212204 44.64512406836468)"><path d="M7.78967506370512 67.73180755311222 C6.513354834661067 66.33123993223069, 6.31597451692871 78.43858908372167, -0.3324410140121792 93.06682922667297 M12.731765712862883 63.38953304746718 C8.163879356955258 73.2706914010692, 5.42658871236753 82.03458351466148, 1.8074704178070213 92.73155457130106" stroke="#000000" stroke-width="1" fill="none"></path></g></g><g transform="translate(637.1666666666724 1101.8647429146567) rotate(0 235.59523809523807 206.00000000000006)"><path d="M-0.7086318349107036 -0.6216801174285369 C99.63705001831447 1.3056015207897356, 200.62237622822474 1.3307732210208791, 469.5563494537834 -1.658065752365687 M0.4109285866673184 0.5433384466993276 C149.787305322582 3.0331426070707326, 297.9898114076723 4.100560031618813, 470.8763385598924 0.391570093739218 M469.3422962081982 -1.979345338092407 C473.33374172797215 105.01525020523337, 474.5283104267748 213.35004950794942, 472.380324056657 413.48825561504646 M471.2759424835076 -0.286964278320153 C469.6267902263786 152.9323354670624, 469.5270805072133 308.1320229639754, 471.6307864867051 411.74174766950244 M472.92036030484167 413.0801119675229 C284.97759125900785 414.5655823489689, 97.84879230730328 414.788353749003, 1.3053364746423066 410.93570117306604 M470.99339248221247 411.3173949751095 C325.62634231608826 412.0142401150703, 180.24238007907826 412.52391292360363, 0.2908267920189436 411.6306718321408 M0.28160250513490137 409.89091256682576 C-1.1106507429211816 255.34414455076035, -1.7937026442589001 98.794650455218, -1.194384190577474 -1.8162105652588691 M-0.4073756737386151 412.49655536330505 C-2.213142593620518 251.20516853126676, -1.6392744699909958 91.80836091238008, 0.9304923797183109 -0.4364714174033954" stroke="#000000" stroke-width="1" fill="none"></path></g><g transform="translate(617.1666666666728 892.0076000575139) rotate(0 260.64285714285717 69.26190476190479)"><path d="M0.43627946078777313 0.44585168659687047 C178.57003413122152 0.4216235278653251, 361.430128523335 1.1118860362576592, 520.6508445880244 0.6048228055238725 M-0.1534244164824486 0.4499919757246971 C110.78948360806598 3.910908548246538, 221.51582821708706 3.2991307181226364, 521.2202577895353 0.34947293847799304 M521.5646155572364 -1.1567223593592644 C527.4360941013038 48.37701583047886, 527.5162659248053 106.43975334893027, 524.6276407933661 136.65826038413107 M519.4228457121977 1.4710877798497677 C520.1421481922287 26.585153855800282, 520.7965412691253 54.766446341662906, 519.5587544350752 140.44485932357966 M522.0262637278864 138.38593261085808 C391.64114718838994 139.09657264858416, 261.92983130807323 139.6401737800234, 1.1905367583036424 138.12366959892572 M521.584807283325 139.24189718358576 C363.82096107519635 140.3727152453271, 205.6308834827904 139.59642630680474, -0.14982567876577377 138.28846982114374 M-3.025136299431324 136.1694996743685 C1.1341632858291266 97.37527578035815, -2.624333713911474 54.842961371211075, 2.2250074669718742 3.335438199341297 M-0.10192873701453209 138.32174509533107 C-2.816990621205242 108.37361328063446, 0.5798569845000192 74.65359654772496, 0.2847810722887516 -1.3328595496714115" stroke="#000000" stroke-width="1" fill="none"></path></g><g transform="translate(750.1666666666723 895.3409333908471) rotate(0 100.5 23)"><text x="0" y="32" font-family="Virgil, Segoe UI Emoji" font-size="36px" fill="#000000" text-anchor="start" style="white-space: pre;" direction="ltr">matchmaker</text></g><g transform="translate(763.1666666666724 535.8409333908471) rotate(0 109 26)"><text x="0" y="18" font-family="Virgil, Segoe UI Emoji" font-size="20px" fill="#000000" text-anchor="start" style="white-space: pre;" direction="ltr">intent from account B</text><text x="0" y="44" font-family="Virgil, Segoe UI Emoji" font-size="20px" fill="#000000" text-anchor="start" style="white-space: pre;" direction="ltr"></text></g><g transform="translate(1102.1666666666724 556.5790286289424) rotate(0 110 13)"><text x="0" y="18" font-family="Virgil, Segoe UI Emoji" font-size="20px" fill="#000000" text-anchor="start" style="white-space: pre;" direction="ltr">intent from account C</text></g><g transform="translate(1089.8809523809582 591.5790286289424) rotate(0 41 12.5)"><text x="0" y="20" font-family="Cascadia, Segoe UI Emoji" font-size="20px" fill="#000000" text-anchor="start" style="white-space: pre;" direction="ltr">- DATA:</text></g><g><g transform="translate(776.8094375224384 1516.2460125071334) rotate(0 -12.130418743906091 168.85120955027605)"><path d="M-1.179450763016939 1.9322184093296526 C-5.731722485660734 57.42869355104849, -21.78366103887172 278.85532035839987, -26.5466345132245 335.0342054224006 M3.375751752108336 0.5128260214626792 C-1.4276063200227647 56.06012506149695, -21.71401134967418 281.58213427953353, -27.636589239920514 337.18959307908926" stroke="#000000" stroke-width="1" fill="none"></path></g><g transform="translate(776.8094375224384 1516.2460125071334) rotate(0 -12.130418743906091 168.85120955027605)"><path d="M-32.37111069102683 311.16207983839905 C-36.13000198704318 316.14890355141813, -28.00292906214386 326.44557939761614, -28.400997656966585 334.4308938482395 M-34.678788991914175 309.22281770530736 C-29.874424970293855 317.69146712313415, -27.733913911217567 331.1602287835296, -29.05440590494408 337.76135572656904" stroke="#000000" stroke-width="1" fill="none"></path></g><g transform="translate(776.8094375224384 1516.2460125071334) rotate(0 -12.130418743906091 168.85120955027605)"><path d="M-11.945502788509454 313.1406005480352 C-22.420636035758953 317.30759244514786, -20.98075819361764 326.95651503848023, -28.400997656966585 334.4308938482395 M-14.2531810893968 311.2013384149435 C-17.053986216356176 318.9508514920628, -22.485977023273552 331.6861049094169, -29.05440590494408 337.76135572656904" stroke="#000000" stroke-width="1" fill="none"></path></g></g><g transform="translate(790.5000000000058 1658.9599810098948) rotate(0 132.5 13)"><text x="0" y="18" font-family="Virgil, Segoe UI Emoji" font-size="20px" fill="#000000" text-anchor="start" style="white-space: pre;" direction="ltr">send transaction to ledger</text></g><g transform="translate(215.83333333333917 2038.0433143432283) rotate(0 25.5 13)"><text x="0" y="18" font-family="Virgil, Segoe UI Emoji" font-size="20px" fill="#000000" text-anchor="start" style="white-space: pre;" direction="ltr">A VP:</text></g><g transform="translate(662.0833333333392 2031.7933143432283) rotate(0 26 13)"><text x="0" y="18" font-family="Virgil, Segoe UI Emoji" font-size="20px" fill="#000000" text-anchor="start" style="white-space: pre;" direction="ltr">B VP:</text></g><g transform="translate(662.3333333333392 1856.3766476765618) rotate(0 92.5 24.58333333333337)"><path d="M1.6919681504368782 0.994589738547802 C43.99821584951133 -2.461622380279005, 86.70504490844907 -3.0762061109766368, 184.81988758593798 1.7936608120799065 M-1.2187794782221317 0.29580673947930336 C44.217023485340185 -0.6446855323389169, 92.38973059318961 0.39681920837610996, 185.20526548847556 0.3703942038118839 M188.23417706042528 -3.0391162112355232 C187.48195652126645 11.253936772079538, 185.22290209888791 25.463669137718817, 185.33372277766466 46.298867317537535 M184.65322634205222 0.8887572027742863 C186.61374901797 17.109549362678102, 187.31469689871494 31.87718981970106, 186.51498111709952 50.82017017776774 M185.25991410762072 51.480555626253356 C124.7551129059866 49.49503542191045, 72.29005322046578 45.92313052422063, -0.17355256527662277 47.6107881988089 M184.5629480741918 48.23315597946452 C127.12465715315193 50.32383628009515, 73.38103404827416 49.25696547149377, -1.7778461314737797 50.75605429584788 M-2.237412504851818 47.02764496455597 C3.0813359115583197 28.98832671887556, -0.08929382820303267 9.499965199269369, 2.1742822602391243 2.7789840027689934 M1.3242284916341305 51.000186337779034 C1.4445574798621232 35.527246751667356, -0.32143647288903643 18.06917304079982, 1.8867202661931515 1.8739694096148014" stroke="#000000" stroke-width="1" fill="none"></path></g><g><g transform="translate(750.4814560337619 1907.5777971018488) rotate(0 4.055054996357796 38.79890567893381)"><path d="M1.6001382119953629 -0.5283687718212606 C2.621330924148846 12.79097614221968, 2.90398565687482 67.58799243734269, 4.035021559539371 80.88131984446632 M-0.9757395435869696 -3.2835084865987305 C1.0765138419623064 9.19226858241556, 7.658260915157639 62.755651674032094, 9.085849536302618 77.07858618323193" stroke="#000000" stroke-width="1" fill="none"></path></g><g transform="translate(750.4814560337619 1907.5777971018488) rotate(0 4.055054996357796 38.79890567893381)"><path d="M-5.037812667575704 46.66635172981218 C2.092687985431396 58.78000642614334, 2.7476856936686698 62.20801360318598, 6.8484370314508 74.93956448112117 M-6.096157370743381 51.3091851228793 C1.9247328556253906 60.644397229608565, 6.423256716384118 68.81976344213803, 10.410078027936748 78.91210585434423" stroke="#000000" stroke-width="1" fill="none"></path></g><g transform="translate(750.4814560337619 1907.5777971018488) rotate(0 4.055054996357796 38.79890567893381)"><path d="M15.352956561520003 44.35625808850598 C17.90573358439217 57.22339025954873, 13.96708038592727 61.17181741833542, 6.8484370314508 74.93956448112117 M14.294611858352326 48.9990914815731 C14.499558546216594 59.22845585967115, 11.207066470408485 68.28647520667367, 10.410078027936748 78.91210585434423" stroke="#000000" stroke-width="1" fill="none"></path></g></g><g transform="translate(702.3095238095298 1119.150457200371) rotate(0 153.5 12)"><text x="0" y="17" font-family="Helvetica, Segoe UI Emoji" font-size="20px" fill="#000000" text-anchor="start" style="white-space: pre;" direction="ltr">TRANSACTION from matchmaker </text></g><g transform="translate(10 267.29331434322796) rotate(0 857.3333333333331 657.8571428571431)"><path d="M639.017065975791 20.625060660499912 C672.7417747604426 2.483438225540624, 718.5040763424499 7.760570177951669, 758.8629377644723 4.437805238072883 C799.2217991864948 1.115040298194098, 840.6660132990143 -0.013147449771073183, 881.1702345079252 0.6884710212272012 C921.6744557168362 1.3900894922254756, 961.8320601283417 3.548261346141733, 1001.8882650179379 8.647516064062529 C1041.944469907534 13.746770781983326, 1082.8039602652 21.680352913039904, 1121.5074638455026 31.283999328751975 C1160.2109674258052 40.887645744464045, 1197.6247149406802 52.31892738616627, 1234.1092864997534 66.26939455833497 C1270.5938580588265 80.21986173050367, 1306.961168547501 97.44080582212486, 1340.4148931999416 114.98680236176415 C1373.8686178523822 132.53279890140342, 1404.8180506152416 150.74323200610834, 1434.8316344143968 171.54537379617068 C1464.845218213552 192.34751558623302, 1494.582514169617 215.66164081083582, 1520.4963959948723 239.79965310213817 C1546.4102778201275 263.9376653934405, 1569.3982677505817 289.7254329694284, 1590.3149253659285 316.3734475439848 C1611.2315829812753 343.0214621185412, 1630.201807494942 370.9179680748363, 1645.9963416869534 399.68774054947653 C1661.790875878965 428.45751302411674, 1674.7533482472581 458.70690212135355, 1685.0821305179982 488.99208239182605 C1695.4109127887382 519.2772626622985, 1702.995160105524 550.4109213587866, 1707.9690353113929 581.3988221723116 C1712.9429105172617 612.3867229858366, 1715.7368036243006 643.9021954812115, 1714.9253817532112 674.9194872729761 C1714.113959882122 705.9367790647407, 1710.0002206524766 736.9771581449514, 1703.1005040848568 767.5025729228992 C1696.200787517237 798.0279877008469, 1686.02444249882 828.3948558179538, 1673.5270823474925 858.0719759406627 C1661.029722196165 887.7490960633716, 1645.9298199979153 917.5820876873646, 1628.1163431768914 945.5652936591525 C1610.3028663558675 973.5484996309405, 1589.375158196037 1000.337890164202, 1566.6462214213493 1025.97121177139 C1543.9172846466615 1051.604533378578, 1518.874615522469 1076.2032661413923, 1491.7427225287645 1099.3652233022806 C1464.61082953506 1122.5271804631689, 1435.1080338752154 1144.8287546481295, 1403.8548634591223 1164.9429547367197 C1372.6016930430292 1185.05715482531, 1338.8918325288312 1204.005813648755, 1304.2237000322066 1220.0504238338222 C1269.555567535582 1236.0950340188892, 1233.1443891341876 1249.0280465709366, 1195.8460684793743 1261.2106158471229 C1158.547747824561 1273.3931851233092, 1119.5132761516377 1284.715040543583, 1080.4337761033264 1293.1458394909405 C1041.3542760550151 1301.576638438298, 1001.6651519088097 1308.0983331794582, 961.3690681895066 1311.7954095312675 C921.0729844702036 1315.4924858830768, 879.2391867922735 1316.1024500516462, 838.6572737875083 1315.3282976017967 C798.0753607827431 1314.5541451519473, 757.7983018871046 1312.2207215892854, 717.8775901609158 1307.1504948321708 C677.9568784347271 1302.0802680750562, 637.7792083834024 1294.1856939312547, 599.1330034303755 1284.9069370591096 C560.4867984773487 1275.6281801869645, 522.4422603754635 1264.9673911821442, 486.0003604427546 1251.4779535992998 C449.55846051004556 1237.9885160164554, 414.1554707948977 1221.4327976252732, 380.4816038341215 1203.9703115620432 C346.8077368733452 1186.5078254988132, 314.3470234001592 1167.6667055107878, 283.9571586780969 1146.70303721992 C253.5672939560346 1125.739368929052, 224.12724333268025 1102.2875148152827, 198.14241550174768 1078.1883018168357 C172.1575876708151 1054.0890888183887, 149.24759882886056 1028.4250070186558, 128.0481916925014 1002.1077592292376 C106.84878455614226 975.7905114398194, 87.0642317278992 948.6938767234656, 70.9459726835928 920.2848150803268 C54.8277136392864 891.875753437188, 42.173422623607145 861.8302242575243, 31.338637426663013 831.653389370405 C20.50385222971888 801.4765544832857, 11.05295640107126 769.9916208423849, 5.937261501927992 739.2238057576108 C0.8215666027847233 708.4559906728366, -0.2900990261748385 678.0547539564661, 0.6444680318033988 647.04649886176 C1.579035089781636 616.0382437670539, 5.001848717969949 583.9113762340187, 11.544663849797416 553.1742751893739 C18.087478981624884 522.4371741447292, 27.96519902109619 492.42998229256614, 39.9013588227682 462.62389259389164 C51.837518624440214 432.81780289521714, 65.81725098443616 402.75065690826136, 83.1616226598295 374.3377369973268 C100.50599433522285 345.9248170863922, 121.29873052900716 317.9138745751285, 143.96758887512829 292.14637312828415 C166.63644722124943 266.3788716814398, 192.02323222853224 242.82401795721194, 219.1747727365563 219.73272831626065 C246.32631324458035 196.64143867530936, 275.83324937420923 173.88168799278952, 306.8768319232727 153.59863528257642 C337.9204144723361 133.31558257236333, 371.16233224288914 114.28550200623022, 405.43626803093684 98.03441205498211 C439.71020381898455 81.78332210373401, 475.4027903308153 68.33735233209752, 512.5204466515589 56.0920955750878 C549.6381029723025 43.84683881807806, 603.3748196999433 31.075884663357176, 628.1422059553984 24.56287151292372 C652.9095922108535 18.049858362490266, 651.4927540967766 16.59818170705252, 661.1247641842898 17.01401667248706 C670.756774271803 17.429851637921598, 682.6114024544833 16.471786976158647, 685.9342664804778 27.05788130553094 M1185.9270379076058 51.71160020285345 C1227.398538372549 53.01060458371887, 1261.8340022835603 77.59085243783029, 1297.0701597833477 93.5090115551842 C1332.306317283135 109.42717067253811, 1366.1550644743581 128.0158728142691, 1397.3439829063298 147.22055490697693 C1428.5329013383014 166.42523699968476, 1456.6312104955316 186.0178429492609, 1484.2036703751774 208.7371041114311 C1511.776130254823 231.4563652736013, 1539.5777289242255 257.62432297490955, 1562.778742184204 283.53612187999806 C1585.9797554441825 309.4479207850866, 1605.5095862705366 336.4663319908802, 1623.4097499350487 364.20789754196227 C1641.3099135995608 391.94946309304436, 1657.1747230027827 420.8071739804484, 1670.1797241712766 449.9855151864907 C1683.1847253397705 479.16385639253303, 1694.081677457452 508.5745997193868, 1701.439756946012 539.2779447782161 C1708.797836434572 569.9812898370454, 1713.0209777389466 602.8956528044164, 1714.3282011026365 634.2055855394666 C1715.6354244663264 665.5155182745168, 1713.5798680276444 696.1334935249056, 1709.2830971281517 727.1375411885176 C1704.986326228659 758.1415888521296, 1698.6500708162835 789.9254542136076, 1688.5475757056797 820.2298715211385 C1678.445080595076 850.5342888286694, 1663.9284277458685 880.2215547520054, 1648.6681264645288 908.9640450337033 C1633.407825183189 937.7065353154012, 1617.4104060523264 965.8226975792, 1596.985768017641 992.684813211326 C1576.5611299829557 1019.5469288434518, 1551.8766022384186 1045.9177680492533, 1526.1202982564164 1070.136738826459 C1500.3639942744142 1094.3557096036645, 1471.872516521081 1116.6188881688254, 1442.4479441256271 1137.9986378745602 C1413.0233717301733 1159.378387580295, 1382.6820079955598 1180.4941091751489, 1349.5728638836933 1198.4152370608688 C1316.4637197718268 1216.3363649465887, 1280.2949685400486 1231.5968803251972, 1243.7930794544286 1245.52540518888 C1207.2911903688087 1259.453930052563, 1168.8698706618957 1271.991696608249, 1130.561529369974 1281.986386242967 C1092.2531880780525 1291.981075877685, 1053.6919483839342 1299.775405541485, 1013.9430317028994 1305.4935429971886 C974.1941150218645 1311.211680452892, 932.6278587811372 1315.0937411920818, 892.0680292837648 1316.2952109771877 C851.5081997863923 1317.4966807622936, 811.0777431097138 1316.1527503061682, 770.5840547186649 1312.702361707824 C730.090366327616 1309.2519731094796, 688.4256591770875 1303.2248789542894, 649.1058989374717 1295.5928793871226 C609.7861386978559 1287.9608798199558, 571.9893896136795 1278.6495963262732, 534.6654932809702 1266.910364304823 C497.34159694826093 1255.1711322833726, 460.47064335695256 1240.828543032116, 425.1625209412162 1225.1574872584206 C389.85439852547984 1209.4864314847252, 354.90665968834753 1192.2153022455034, 322.8167587865521 1172.8840296626508 C290.72685788475667 1153.5527570797983, 260.1241957361222 1131.800001013416, 232.62311553044367 1109.169851761305 C205.12203532476514 1086.5397025091938, 181.19683004784915 1062.5890538399972, 157.8102775524809 1037.1031341499843 C134.42372505711265 1011.6172144599715, 110.90644762461038 984.0804591116147, 92.30380055823412 956.2543336212279 C73.70115349185785 928.4282081308412, 59.20968705702055 899.7351490672366, 46.19439515422334 870.146381207664 C33.179103251426135 840.5576133480914, 21.710029828906897 809.4449740069049, 14.212049141450848 778.7217264637925 C6.714068453994798 747.9984789206801, 2.6360974962666432 716.9979696500048, 1.2065110294870465 685.8068959489899 C-0.2230754372925503 654.615822247975, 1.826596624873654 622.5416116214678, 5.634530340773267 591.5752842577028 C9.44246405667288 560.6089568939378, 14.72221662989015 530.0448018419228, 24.054113324884725 500.00893176640017 C33.3860100198793 469.9730616908776, 46.36464473602533 440.25935730020007, 61.62591051074071 411.3600638045674 C76.88717628545608 382.46077030893474, 94.90271802350988 353.68178177254816, 115.62170797317697 326.6131707926043 C136.34069792284404 299.54455981266045, 160.60558786721438 273.01609531802256, 185.93985020874322 248.9483979249042 C211.27411255027206 224.88070053178586, 238.38262994563348 203.6384749399839, 267.6272820223501 182.2069864338942 C296.87193409906666 160.7754979278045, 328.3096962739501 138.56442309403843, 361.4077626690428 120.359466888366 C394.5058290641355 102.15451068269356, 430.1611771721616 86.91912948713416, 466.2156803929064 72.97724919985956 C502.27018361365117 59.035368912584964, 539.4472233206384 46.911626889337334, 577.7347819935114 36.70818516471843 C616.0223406663845 26.504743440099524, 655.9553734683237 17.813264780914306, 695.9410324301449 11.756598852146112 C735.9266913919661 5.6999329233779195, 777.2957440628605 1.9409371413507681, 817.6487357644387 0.3681895921092746 C858.0017274660169 -1.204557957132219, 897.9488648771572 -0.8545956723332324, 938.0589826396139 2.3201135566971516 C978.1691004020705 5.494822785727536, 1018.8151910765607 11.804945739901882, 1058.3094423391785 19.41644496629158 C1097.8036936017963 27.027944192681275, 1153.7530567997876 42.57012907994897, 1175.024490215321 47.98910891503533 C1196.2959236308545 53.40808875012169, 1185.2042970173102 49.62608176145642, 1185.9380428323798 51.930323976809746 C1186.6717886474494 54.23456619216307, 1184.811337132095 52.0723290208922, 1179.4269651057384 61.81456220715529" stroke="#000000" stroke-width="1" fill="none"></path></g><g transform="translate(727.3809523809525 295.62664767656156) rotate(0 182 46)"><text x="182" y="32" font-family="Virgil, Segoe UI Emoji" font-size="36px" fill="#364fc7" text-anchor="middle" style="white-space: pre;" direction="ltr">Intent broadcaster </text><text x="182" y="78" font-family="Virgil, Segoe UI Emoji" font-size="36px" fill="#364fc7" text-anchor="middle" style="white-space: pre;" direction="ltr">network</text></g><g transform="translate(976.3333333333336 445.91236196227584) rotate(0 96.5 18)"><text x="0" y="25" font-family="Virgil, Segoe UI Emoji" font-size="28px" fill="#000000" text-anchor="start" style="white-space: pre;" direction="ltr">global mempool</text></g><g transform="translate(633.8571428571425 945.6742667241807) rotate(0 245.5 26)"><text x="0" y="18" font-family="Virgil, Segoe UI Emoji" font-size="19.896103896103885px" fill="#000000" text-anchor="start" style="white-space: pre;" direction="ltr">The matchmacker chooses values he thinks will be</text><text x="0" y="44" font-family="Virgil, Segoe UI Emoji" font-size="19.896103896103885px" fill="#000000" text-anchor="start" style="white-space: pre;" direction="ltr">accepted by all the validity predicate.</text></g><g transform="translate(50.83333333333371 1760.9599810098948) rotate(0 788.6666666666663 467.4999999999999)"><path d="M755.3241937846796 0.8835682494500929 C792.956421941949 -8.03494387443637, 836.3426167956927 -0.2796082641014457, 876.617394544705 2.218002588795798 C916.8921722937173 4.715613441693042, 957.8931712691374 9.557478500543567, 996.9728602787529 15.869233366833555 C1036.0525492883685 22.180988233123543, 1074.2946839829056 29.999865986477545, 1111.0955286023986 40.088531786535725 C1147.8963732218917 50.177197586593905, 1183.7995810292796 63.31254389112251, 1217.7779279957113 76.40122816718264 C1251.756274962143 89.48991244324277, 1284.7922346017285 102.70954303695014, 1314.9656104009887 118.62063744289651 C1345.1389862002488 134.5317318488429, 1373.1850378440986 153.03847938852599, 1398.8181827912717 171.8677946028609 C1424.451327738445 190.6971098171958, 1448.1424169329919 210.80394836543837, 1468.764480084027 231.59652872890598 C1489.386543235062 252.3891090923736, 1507.798077471311 274.195877388087, 1522.5505616974817 296.6232767836666 C1537.3030459236525 319.0506761792462, 1548.2976105235136 342.78882617512795, 1557.279385441051 366.1609251023835 C1566.2611603585885 389.533024029639, 1573.4987740599304 412.91145539894234, 1576.4412112027067 436.8558703471999 C1579.383648345483 460.8002852954575, 1578.6619803169758 486.0186340074425, 1574.9340082977094 509.82741479192896 C1571.206036278443 533.6361955764155, 1563.797086826925 556.3985925008826, 1554.0733790871077 579.7085550541188 C1544.3496713472905 603.0185176073551, 1532.3328363718379 627.5474885495593, 1516.5917618588069 649.6871901113467 C1500.850687345776 671.8268916731341, 1481.108879626836 692.2104001959066, 1459.6269320089214 712.5467644248432 C1438.1449843910068 732.8831286537799, 1414.023904350387 753.421100927862, 1387.7000761513193 771.7053754849663 C1361.3762479522516 789.9896500420707, 1332.3403138547908 806.539666669787, 1301.683962814515 822.2524117674693 C1271.0276117742394 837.9651568651516, 1238.3128057916742 853.2870165178468, 1203.761969909665 865.9818460710601 C1169.2111340276556 878.6766756242733, 1131.808427577434 889.1088956118994, 1094.3789475224594 898.4213890867491 C1056.9494674674847 907.7338825615988, 1018.2525550148392 916.2019014699573, 979.1850895798177 921.8568069201581 C940.1176241447962 927.5117123703589, 900.2354176443718 930.2009321945807, 859.9741549123302 932.3508217879538 C819.7128921802886 934.5007113813269, 778.1139405221912 936.1942268894138, 737.6175131875684 934.7561444803968 C697.1210858529456 933.3180620713797, 656.6104506467395 929.0656390734598, 616.9955909045933 923.7223273338516 C577.3807311624471 918.3790155942434, 537.743204471362 911.4972629092102, 499.9283547346911 902.6962740427475 C462.1135049980202 893.8952851762848, 425.09039572421386 882.9656828553809, 390.106492484568 870.916394135075 C355.1225892449221 858.8671054147692, 321.38929924651706 845.3986029809987, 290.02493529681584 830.4005417209121 C258.6605713471146 815.4024804608255, 228.8054968397849 798.8254289976848, 201.92030878636058 780.9280265745557 C175.03512073293626 763.0306241514267, 150.87371621019494 743.3555204950743, 128.7138069762699 723.0161271821379 C106.55389774234483 702.6767338692015, 85.77836262865571 680.8179661176475, 68.96085338281023 658.8916666969374 C52.14334413696474 636.9653672762272, 38.30833770975058 614.3968572695713, 27.80875150119698 591.4583306578771 C17.309165292643378 568.5198040461829, 10.487224379064969 545.2628101101113, 5.9633361314886315 521.2605070267718 C1.439447883912294 497.2582039434323, -0.7869573401703747 471.5349085381103, 0.6654220157389545 447.4445121578399 C2.1178013716482837 423.35411577756946, 6.908218995242957 400.24064375330005, 14.677612266944607 376.7181287451494 C22.447005538646255 353.1956137369987, 33.18016789151337 328.94147383025023, 47.281781645948854 306.3094221089359 C61.38339540038434 283.6773703876216, 79.49263121110509 261.69165173814207, 99.28729479355752 240.92581841726357 C119.08195837600995 220.15998509638507, 141.18099685251715 200.664638455944, 166.04976314066346 181.71442218366485 C190.91852942880976 162.76420591138572, 219.1445642917272 143.78139589759854, 248.4998925224354 127.22452078358873 C277.8552207531436 110.6676456695789, 308.88181227041247 96.0081427993954, 342.1817325249128 82.37317149960592 C375.4816527794131 68.73820019981643, 411.86782632774873 55.99108993738471, 448.29941404943713 45.414692984851854 C484.73100177112553 34.838296032319, 521.9394997344598 25.69558396482512, 560.7712588550434 18.91478978440881 C599.6030179756269 12.133995603992503, 645.3885468052478 7.718761553880123, 681.2899687729388 4.729927902354007 C717.1913907406298 1.74109425082789, 756.829145491552 0.1738628390857192, 776.1797906611893 0.9817878752521096 C795.5304358308265 1.7897129114185, 797.3152792880251 1.9413413120986718, 797.393839790762 9.57747811935235 M656.2796524545773 5.306631687703657 C692.0724971715526 -5.9361319019016605, 737.9855336571364 0.02531942077077548, 778.5700854940245 -0.2907656771774896 C819.1546373309126 -0.6068507751257546, 859.6735376079218 -0.13598730187407204, 899.7869634759056 3.4101211000140665 C939.9003893438894 6.956229501902206, 980.191427512666 13.603857846249849, 1019.2506407019275 20.98588473415134 C1058.309853891189 28.367911622052834, 1097.6720970387187 37.3627259039201, 1134.142242611475 47.70228242742303 C1170.6123881842313 58.04183895092596, 1205.154967641084 69.45262947703188, 1238.0715141384658 83.02322387516892 C1270.9880606358474 96.59381827330597, 1302.151996818363 112.39283045733198, 1331.641521595765 129.1258488162453 C1361.131046373167 145.85886717515862, 1390.209491031083 164.42882002569434, 1415.0086628028782 183.42133402864886 C1439.8078345746735 202.41384803160338, 1460.9642469957294 222.05671763782811, 1480.4365522265362 243.08093283397235 C1499.908857457343 264.1051480301166, 1518.1926805239873 287.05250626798204, 1531.8424941877188 309.56662520551436 C1545.4923078514503 332.0807441430467, 1554.8517695561643 354.50540568117583, 1562.3354342089256 378.1656464591664 C1569.8190988616868 401.82588723715696, 1575.110833540523 427.3545866753665, 1576.744482104286 451.5280698734576 C1578.378130668049 475.7015530715487, 1576.8733901670964 499.42834944209676, 1572.1373255915032 523.2065456477129 C1567.40126101591 546.9847418533291, 1559.2885674485178 570.9848303432861, 1548.328094650727 594.1972471071543 C1537.3676218529363 617.4096638710225, 1523.25179859152 640.7532648984406, 1506.3744888047593 662.4810462309222 C1489.4971790179986 684.2088275634037, 1469.3947830633874 704.4748214925095, 1447.0642359301632 724.5639351020437 C1424.733688796939 744.653048711578, 1399.5649536146368 765.4420305671526, 1372.3912060054142 783.0157278881277 C1345.2174583961917 800.5894252091027, 1315.794939649932 815.0358676024558, 1284.0217502748283 830.0061190278936 C1252.2485608997245 844.9763704533315, 1216.7627562578796 860.7596042309815, 1181.7520697547907 872.8372364407544 C1146.7413832517018 884.9148686505273, 1111.2436697107441 893.7686190132001, 1073.9576312562945 902.4719122865312 C1036.6715928018448 911.1752055598622, 997.5548890371847 919.8954558993269, 958.0358390280926 925.0569960807404 C918.5167890190005 930.218536262154, 877.4944046070193 932.1695319027631, 836.8433312017419 933.4411533750124 C796.1922577964644 934.7127748472617, 754.7754344547685 934.8310233039887, 714.1293985964278 932.6867249142362 C673.4833627380871 930.5424265244836, 632.4580439697281 926.3385987387248, 592.9671160516973 920.5753630364974 C553.4761881336665 914.8121273342699, 514.3795720892076 907.3708144799289, 477.1838310882427 898.1073107008713 C439.9880900872778 888.8438069218137, 404.08552563602643 877.8211385899017, 369.7926700459077 864.9943403621517 C335.49981445578896 852.1675421344016, 301.7625922606006 837.2867227813883, 271.42669754753035 821.1465213343714 C241.09080283446005 805.0063198873545, 213.6753718490253 786.5511901509087, 187.77730176748594 768.1531316800504 C161.87923168594656 749.755073209192, 137.10833744990023 731.0618498673175, 116.03827705829417 710.7581705092213 C94.96821666668812 690.454491151125, 76.81441187531533 668.4018830004221, 61.35693941784962 646.331055531473 C45.899466960383904 624.2602280625239, 32.97138812832217 601.7581637794549, 23.293442313499895 578.3332056955263 C13.61549649867762 554.9082476115977, 6.6472344740037475 529.8854848108459, 3.2892645289159645 505.7813070279014 C-0.0687054161718188 481.67712924495686, 0.2751127780470597 457.5680406694932, 3.145622642973194 433.7081389978592 C6.016132507899329 409.84823732622516, 11.638706753381959 386.0790897563803, 20.51232371847277 362.62189699809727 C29.385940683563582 339.1647042398142, 41.36821052245134 315.13975782411507, 56.387324433518074 292.9649824481608 C71.4064383445848 270.79020707220656, 89.94707330084748 249.87796707162985, 110.62700718487315 229.5732447423718 C131.30694106889882 209.26852241311374, 154.72933911808147 189.78847171029804, 180.4669277376721 171.13664847261242 C206.20451635726275 152.4848252349268, 234.9671674484734 133.69495447770663, 265.0525389024169 117.66230531625803 C295.13791035636046 101.62965615480942, 326.847877473037 87.71508935342084, 360.97915646133333 74.9407535039208 C395.1104354496297 62.16641765442077, 432.53963123899615 50.72940488885391, 469.840212832195 41.016290219257826 C507.14079442539384 31.303175549661745, 553.4711079057435 22.222338562144728, 584.7826460205263 16.662065486344318 C616.0941841353091 11.101792410543908, 644.9943192517673 7.684333037653848, 657.7094415208919 7.654651764455366 C670.4245637900166 7.624970491256884, 658.7481588340588 9.106843423507144, 661.0733796352745 16.483977847153426" stroke="#000000" stroke-width="1" fill="none"></path></g><g transform="translate(772.0000000000001 1773.4599810098948) rotate(0 129 23)"><text x="0" y="32" font-family="Virgil, Segoe UI Emoji" font-size="36px" fill="#000000" text-anchor="start" style="white-space: pre;" direction="ltr">ledger network</text></g><g transform="translate(659.3333333333335 2081.7933143432283) rotate(0 205 125)"><text x="0" y="20" font-family="Cascadia, Segoe UI Emoji" font-size="20px" fill="#000000" text-anchor="start" style="white-space: pre;" direction="ltr">if someone takes between</text><text x="0" y="45" font-family="Cascadia, Segoe UI Emoji" font-size="20px" fill="#000000" text-anchor="start" style="white-space: pre;" direction="ltr">tx.DATA.B.amount </text><text x="0" y="70" font-family="Cascadia, Segoe UI Emoji" font-size="20px" fill="#000000" text-anchor="start" style="white-space: pre;" direction="ltr">tx.DATA.B.output_asset </text><text x="0" y="95" font-family="Cascadia, Segoe UI Emoji" font-size="20px" fill="#000000" text-anchor="start" style="white-space: pre;" direction="ltr">from my account,</text><text x="0" y="120" font-family="Cascadia, Segoe UI Emoji" font-size="20px" fill="#000000" text-anchor="start" style="white-space: pre;" direction="ltr">it has to credit</text><text x="0" y="145" font-family="Cascadia, Segoe UI Emoji" font-size="20px" fill="#000000" text-anchor="start" style="white-space: pre;" direction="ltr">at least tx.DATA.B.min_rate </text><text x="0" y="170" font-family="Cascadia, Segoe UI Emoji" font-size="20px" fill="#000000" text-anchor="start" style="white-space: pre;" direction="ltr">the amount in tx.DATA.B.input_asset</text><text x="0" y="195" font-family="Cascadia, Segoe UI Emoji" font-size="20px" fill="#000000" text-anchor="start" style="white-space: pre;" direction="ltr"> and to be before</text><text x="0" y="220" font-family="Cascadia, Segoe UI Emoji" font-size="20px" fill="#000000" text-anchor="start" style="white-space: pre;" direction="ltr"> (tx.DATA.B.timestamp </text><text x="0" y="245" font-family="Cascadia, Segoe UI Emoji" font-size="20px" fill="#000000" text-anchor="start" style="white-space: pre;" direction="ltr">  + tx.DATA.C.TTL)</text></g><g transform="translate(790.0000000000001 2562.2933143432283) rotate(0 98.5 30)"><path d="M-1.276995599269867 -1.854572355747223 C58.789115568995484 2.098213337957859, 115.00079558491709 3.0095311632752417, 196.5209417939186 -0.6186657547950745 M-0.4108629524707794 -0.7655787169933319 C63.64545234143735 0.527290072143078, 125.02107305526735 0.7643038889765741, 197.12362477183342 -0.5086388289928436 M197.98869997262955 1.536378800868988 C195.1097989857197 16.251584768295288, 195.13003023266793 31.80462032556534, 198.45369058847427 59.09839624166489 M196.23508259654045 0.6720176041126251 C197.58299899101257 13.563890188932419, 196.95223212242126 27.871320635080338, 197.09375855326653 59.81912472844124 M196.1299448609352 61.56838220357895 C118.1729471951723 61.28720018953085, 41.568549627065636 63.08975336641073, 0.021754324436187744 58.1029948592186 M197.16737458109856 59.33840420842171 C121.61077871620654 57.98496666699648, 45.2387226462364 57.400386245548724, 0.9547309577465057 59.818061381578445 M-1.9841203093528748 60.52854722738266 C1.3197284162044525 45.74846088886261, -0.39307256340980534 27.286672890186306, -1.3432263731956482 1.1197394728660583 M0.560817688703537 59.230651408433914 C1.255303943157196 45.51135763525963, 0.4139047503471374 29.498637348413467, -0.8999033272266388 0.7664914429187775" stroke="#000000" stroke-width="1" fill="none"></path></g><g><g transform="translate(372.66666666666686 2385.6266476765613) rotate(0 207.7619128988852 88.60154334951562)"><path d="M1.1456771492958067 -0.21832634210586543 C70.50439402924637 29.69551950556817, 346.22104751401446 149.0412177613766, 415.23580687443376 178.5816383160819 M0.28801892333664014 -1.3785516170505434 C69.5312075431158 28.24064749632622, 345.06931192325294 146.80251611168657, 414.0615600198845 176.65172236808397" stroke="#000000" stroke-width="1" fill="none"></path></g><g transform="translate(372.66666666666686 2385.6266476765613) rotate(0 207.7619128988852 88.60154334951562)"><path d="M383.7482757006232 174.19206725684907 C391.40813578236464 174.29296454254924, 395.5098503544818 175.93169017917057, 415.5647730082611 178.245884295784 M384.67202267389933 174.38221426932122 C391.9722788470066 174.8938633375276, 402.0060125731201 175.35039484978873, 414.8356965333561 176.99536415585138" stroke="#000000" stroke-width="1" fill="none"></path></g><g transform="translate(372.66666666666686 2385.6266476765613) rotate(0 207.7619128988852 88.60154334951562)"><path d="M391.87455618251875 155.34840604371422 C397.57561992698203 159.7408099691093, 399.86009123763955 165.59345812995156, 415.5647730082611 178.245884295784 M392.7983031557949 155.53855305618637 C397.6495496790009 161.4512530619757, 405.33055780066746 167.36341268311608, 414.8356965333561 176.99536415585138" stroke="#000000" stroke-width="1" fill="none"></path></g></g><g><g transform="translate(932.2493121968448 2395.6266476765613) rotate(0 -14.668361028142101 82.94532678600717)"><path d="M-0.8531129479408264 0.9848899483680726 C-5.688901949555247 28.290831763214587, -24.386164477619374 137.03869455787896, -29.300456897202547 164.50614760319422 M0.8998640250507743 0.45635322592221206 C-4.066959466135696 27.806448908430674, -25.42363957188375 137.64841932232102, -30.23658608133499 165.4343003460923" stroke="#000000" stroke-width="1" fill="none"></path></g><g transform="translate(932.2493121968448 2395.6266476765613) rotate(0 -14.668361028142101 82.94532678600717)"><path d="M-33.55213226274978 135.88449963199454 C-35.593413110620695 142.36085669270597, -32.085231317058884 151.07840109283245, -30.425846623727722 165.63865850658806 M-34.816535993380654 135.8520183490451 C-33.409655090305804 145.4438785275718, -31.221916451330387 154.68316243057532, -29.262600856372757 164.6750944981137" stroke="#000000" stroke-width="1" fill="none"></path></g><g transform="translate(932.2493121968448 2395.6266476765613) rotate(0 -14.668361028142101 82.94532678600717)"><path d="M-13.373845607213145 139.62037302824768 C-21.009036681354036 144.92146713448832, -23.073891023757724 152.60720156025317, -30.425846623727722 165.63865850658806 M-14.63824933784402 139.58789174529824 C-19.861854134655744 147.96389942531323, -24.30547260348311 155.97543237884267, -29.262600856372757 164.6750944981137" stroke="#000000" stroke-width="1" fill="none"></path></g></g><g transform="translate(876.3333333333336 2578.959981009895) rotate(0 17.5 12.5)"><text x="0" y="20" font-family="Cascadia, Segoe UI Emoji" font-size="20px" fill="#000000" text-anchor="start" style="white-space: pre;" direction="ltr">...</text></g><g transform="translate(840.0476190476189 1069.912361962276) rotate(0 87.5 13)"><text x="0" y="18" font-family="Virgil, Segoe UI Emoji" font-size="20px" fill="#000000" text-anchor="start" style="white-space: pre;" direction="ltr">craft transaction</text></g><g transform="translate(867.6666666666671 17.912361962275668) rotate(0 82 52)"><path d="M0.9718953371047974 2.359817385673523 C34.5021896481514 -4.117894384860993, 67.8314341545105 -2.3067333436012265, 162.87172520160675 1.0472067594528198 M-0.5229626297950745 0.0708971619606018 C38.11859574317932 1.8851237106323242, 78.83235870599746 1.6832480239868164, 162.40770715475082 -1.5679330229759216 M165.96153843402863 -2.578251004219055 C164.17311373710632 21.207782316207886, 165.1508320903778 47.03666231632233, 161.45328724384308 107.62854754924774 M163.5065993666649 -0.9419717192649841 C163.47080638170243 34.62879351377487, 164.1410353398323 70.65958071947098, 165.14423936605453 105.57843881845474 M164.64759266376495 107.94547259807587 C111.98209556341172 103.35589509248733, 56.02961115837097 105.7776518368721, 0.5007916688919067 101.71464908123016 M164.8236979842186 104.72539621591568 C98.71495821475982 101.63895592212677, 33.15889178514479 102.25482925891876, -0.24770742654800415 102.91481310129166 M2.0183392763137817 107.25520694255829 C-5.786154117584228 65.02025699615479, 1.147374782562256 29.28909122943878, 2.127519726753235 1.5047301054000854 M0.15294259786605835 102.6921415925026 C-0.7499175238609315 63.81723283529281, -1.0868907141685487 27.234377300739283, -0.6060238480567932 -1.3771695494651794" stroke="#000000" stroke-width="1" fill="none"></path></g><g transform="translate(1225.693970160786 180.21327636301783) rotate(0 21.5 13)"><text x="0" y="18" font-family="Virgil, Segoe UI Emoji" font-size="20px" fill="#000000" text-anchor="start" style="white-space: pre;" direction="ltr">send</text></g><g transform="translate(938.693970160786 167.21327636301783) rotate(0 21.5 13)"><text x="0" y="18" font-family="Virgil, Segoe UI Emoji" font-size="20px" fill="#000000" text-anchor="start" style="white-space: pre;" direction="ltr">send</text></g><g transform="translate(622.1428571428681 53.33333333333326) rotate(0 49 26)"><text x="0" y="18" font-family="Virgil, Segoe UI Emoji" font-size="20px" fill="#000000" text-anchor="start" style="white-space: pre;" direction="ltr">account A</text><text x="0" y="44" font-family="Virgil, Segoe UI Emoji" font-size="20px" fill="#000000" text-anchor="start" style="white-space: pre;" direction="ltr"></text></g><g transform="translate(591.9761904761962 10) rotate(0 82 52)"><path d="M2.070797611027956 -0.5285180695354939 C43.93414872772993 4.311662056073546, 85.03692931830885 -1.8620443562418223, 165.99493389204144 1.4539027325809002 M-0.02619420923292637 -0.42067388258874416 C39.940111650526525 2.1740529239177704, 76.72392811514437 0.7246274054050446, 162.92652780376375 -1.5763845201581717 M163.06369285658002 3.5178799740970135 C166.15276591986418 20.931507317721845, 161.715588619411 48.528739855438474, 163.51619904115796 102.4439157359302 M163.75830585323274 1.1818413976579905 C164.13815740294754 28.28643731586635, 161.52746996827423 54.46014982648194, 164.77176356874406 105.79922684468329 M166.6894196756184 100.97716177627444 C123.84814094565809 100.17984199173749, 92.37153583019972 100.40860902912915, -3.358879040926695 103.54981542751193 M163.17167211137712 103.78448828496039 C127.55794746652245 107.4492335434258, 89.79872073121369 106.50773878052831, 1.8571326192468405 105.64866366423666 M-0.13295454904437065 102.1509630791843 C1.3486445182561875 82.64074063897132, 3.95198693215847 52.434973002225156, 1.6832982785999775 -1.5087937004864216 M-0.2661369387060404 105.3038317207247 C0.29936940170824533 71.45135078988969, -0.7995344331115484 36.414202271774414, 1.9740778263658285 -1.289243495091796" stroke="#000000" stroke-width="1" fill="none"></path></g><g transform="translate(663.0034939703149 159.30091440074216) rotate(0 21.5 13)"><text x="0" y="18" font-family="Virgil, Segoe UI Emoji" font-size="20px" fill="#000000" text-anchor="start" style="white-space: pre;" direction="ltr">send</text></g><g><g transform="translate(660.6967447509187 118.65045720037108) rotate(0 -4.124707692645501 194.88910626682454)"><path d="M0.9921036634594202 0.2359388496726751 C-0.5599714969216545 65.1942074221652, -7.047645581572632 324.19180854423905, -8.820685173716402 389.37599149966616 M0.053819357436150295 -0.685797199588269 C-1.6114380001580975 64.4346296958346, -7.5128856268556214 325.41958268904125, -9.241519048750407 390.46400973323733" stroke="#000000" stroke-width="1" fill="none"></path></g><g transform="translate(660.6967447509187 118.65045720037108) rotate(0 -4.124707692645501 194.88910626682454)"><path d="M-18.419801097793446 363.70556531746644 C-17.064545608014516 371.94548676220853, -10.525771191932956 380.7922566697144, -10.75432442681492 389.83560518112034 M-19.333559546118543 361.6715062166821 C-16.194458790464097 367.3243764340863, -15.531655500235242 374.634203679659, -8.413445961602038 390.37999947212637" stroke="#000000" stroke-width="1" fill="none"></path></g><g transform="translate(660.6967447509187 118.65045720037108) rotate(0 -4.124707692645501 194.88910626682454)"><path d="M2.0953298308196544 364.2049703311597 C-3.543119022305118 372.4442138846845, -3.999603846368087 381.12069642971784, -10.75432442681492 389.83560518112034 M1.1815713824945568 362.17091123037534 C-0.07461855555065222 367.6906981146634, -3.8060175877066467 374.89355618326044, -8.413445961602038 390.37999947212637" stroke="#000000" stroke-width="1" fill="none"></path></g></g><g><g transform="translate(621.7478813884228 786.6504572003711) rotate(0 28.95893198234228 52.29340213270859)"><path d="M0.9691490795463322 0.9952187810093165 C10.15610163972159 18.528585584337513, 46.36788481848338 87.2997459286203, 55.49906230846821 104.11469956971705 M0.018813616968691438 0.47210469570010893 C9.572732614245313 17.7923568189765, 48.76659363834211 85.55318932936837, 57.8990503477159 102.57734209503978" stroke="#000000" stroke-width="1" fill="none"></path></g><g transform="translate(621.7478813884228 786.6504572003711) rotate(0 28.95893198234228 52.29340213270859)"><path d="M36.83001193197545 82.00509291347399 C44.38501970293332 88.740451729738, 48.20176254346696 95.40762002864307, 56.33064549995987 102.10693606380373 M35.18704954234984 82.56758329570576 C43.15171582767786 89.79741975014275, 52.05606551060229 97.63812964861793, 58.74929461369692 102.71830526478588" stroke="#000000" stroke-width="1" fill="none"></path></g><g transform="translate(621.7478813884228 786.6504572003711) rotate(0 28.95893198234228 52.29340213270859)"><path d="M54.73428157454568 71.97727505753059 C56.264288254620695 82.18090898904389, 54.14674007777087 92.1717531828312, 56.33064549995987 102.10693606380373 M53.091319184920074 72.53976543976236 C54.84415252519501 83.15443138241174, 57.45473407619399 94.52015300794609, 58.74929461369692 102.71830526478588" stroke="#000000" stroke-width="1" fill="none"></path></g></g><g transform="translate(771.1190476190534 612.7695048194188) rotate(0 94 40)"><text x="0" y="16" font-family="Cascadia, Segoe UI Emoji" font-size="16px" fill="#000000" text-anchor="start" style="white-space: pre;" direction="ltr">- 800 EUR</text><text x="0" y="36" font-family="Cascadia, Segoe UI Emoji" font-size="16px" fill="#000000" text-anchor="start" style="white-space: pre;" direction="ltr">- rate EUR to BTC: </text><text x="0" y="56" font-family="Cascadia, Segoe UI Emoji" font-size="16px" fill="#000000" text-anchor="start" style="white-space: pre;" direction="ltr">  &gt;= 47058 EUR/BTC</text><text x="0" y="76" font-family="Cascadia, Segoe UI Emoji" font-size="16px" fill="#000000" text-anchor="start" style="white-space: pre;" direction="ltr">- in less than 10 mn</text></g><g transform="translate(1112.8690476190534 2006.3111714860856) rotate(0 221.2499999999999 191.45833333333326)"><path d="M-0.6953440626471306 0.9973519603713419 C165.51209636700494 -1.335714800823758, 326.8451352617182 -2.3296463932375415, 442.252203292042 0.6643101646973754 M0.922089240581496 -0.5097678906216754 C136.2653225008118 -0.5998502634038136, 274.46317402347614 0.7884553201670845, 443.03095717488435 0.24938884879951376 M443.1617795659526 0.41074810429240965 C439.5040620998506 147.2131303707946, 442.9887857558446 295.2227810882417, 443.8104291721792 383.1160409362805 M443.6021151903131 -0.7095483915902016 C444.84943142528533 79.01108702234309, 443.7239480514333 160.19192007132332, 443.4704301534432 383.5642375303666 M441.23412847423253 381.3094463507972 C307.3171442088153 387.7573721568549, 169.8004182046019 387.38250494832937, 1.6343724019886001 384.0226830583505 M443.36541169096586 383.2029012861305 C321.50174542080407 384.8305778694596, 198.37816434117696 383.9071573874902, 0.7136206499538853 383.65206059064946 M-2.0159184911491153 381.3867004077631 C1.815766668181747 240.37333114182775, -0.36782842998609055 100.59236467998672, -0.23597328412674562 1.7078459178661878 M0.9326408353735595 382.7872289837347 C4.148551119659608 295.65376859298584, 3.019188174859916 208.3209847456703, 0.3127813727701391 -0.3157770126195486" stroke="#000000" stroke-width="1" fill="none"></path></g><g transform="translate(1131.6190476190534 2036.0611714860856) rotate(0 27 13)"><text x="0" y="18" font-family="Virgil, Segoe UI Emoji" font-size="20px" fill="#000000" text-anchor="start" style="white-space: pre;" direction="ltr">C VP:</text></g><g transform="translate(1128.8690476190475 2086.0611714860856) rotate(0 205 125)"><text x="0" y="20" font-family="Cascadia, Segoe UI Emoji" font-size="20px" fill="#000000" text-anchor="start" style="white-space: pre;" direction="ltr">if someone takes between</text><text x="0" y="45" font-family="Cascadia, Segoe UI Emoji" font-size="20px" fill="#000000" text-anchor="start" style="white-space: pre;" direction="ltr">tx.DATA.C.low to tx.DATA.C. high </text><text x="0" y="70" font-family="Cascadia, Segoe UI Emoji" font-size="20px" fill="#000000" text-anchor="start" style="white-space: pre;" direction="ltr">tx.DATA.C.output_asset </text><text x="0" y="95" font-family="Cascadia, Segoe UI Emoji" font-size="20px" fill="#000000" text-anchor="start" style="white-space: pre;" direction="ltr">from my account,</text><text x="0" y="120" font-family="Cascadia, Segoe UI Emoji" font-size="20px" fill="#000000" text-anchor="start" style="white-space: pre;" direction="ltr">it has to credit</text><text x="0" y="145" font-family="Cascadia, Segoe UI Emoji" font-size="20px" fill="#000000" text-anchor="start" style="white-space: pre;" direction="ltr">at least tx.DATA.C.min_rate </text><text x="0" y="170" font-family="Cascadia, Segoe UI Emoji" font-size="20px" fill="#000000" text-anchor="start" style="white-space: pre;" direction="ltr">the amount in tx.DATA.C.input_asset</text><text x="0" y="195" font-family="Cascadia, Segoe UI Emoji" font-size="20px" fill="#000000" text-anchor="start" style="white-space: pre;" direction="ltr"> and to be before</text><text x="0" y="220" font-family="Cascadia, Segoe UI Emoji" font-size="20px" fill="#000000" text-anchor="start" style="white-space: pre;" direction="ltr"> (tx.DATA.C.timestamp</text><text x="0" y="245" font-family="Cascadia, Segoe UI Emoji" font-size="20px" fill="#000000" text-anchor="start" style="white-space: pre;" direction="ltr"> + tx.DATA.C.TTL)</text></g><g><g transform="translate(852.1190476190533 1900.7695048194187) rotate(0 171.5763820102904 50.013744903942666)"><path d="M0.2832865197211505 -0.6764065403491258 C57.55270178305606 16.00110323242843, 287.23898239520685 82.58586569838226, 344.1798908073455 99.10916137509048 M-1.0271267867647111 1.5828760806284845 C56.13821020100886 18.557946232315153, 286.30332928373787 84.38452197825536, 343.8512880175747 100.70389634823427" stroke="#000000" stroke-width="1" fill="none"></path></g><g transform="translate(852.1190476190533 1900.7695048194187) rotate(0 171.5763820102904 50.013744903942666)"><path d="M312.80012078805305 104.80692433997814 C324.5084884078729 100.24308595322844, 333.8142337774598 100.30983923863316, 343.22098769130184 99.47684683172032 M313.3705051312078 103.82955276187334 C323.996897711836 102.18836443301457, 334.3863111430913 100.88519717260088, 342.97643924107774 100.87860606411472" stroke="#000000" stroke-width="1" fill="none"></path></g><g transform="translate(852.1190476190533 1900.7695048194187) rotate(0 171.5763820102904 50.013744903942666)"><path d="M318.42762189195054 85.07240550339455 C328.0263269285005 87.36874211633868, 335.37961115243746 94.28238544141679, 343.22098769130184 99.47684683172032 M318.99800623510527 84.09503392528975 C327.82469840935624 89.45877395005017, 336.21837812561824 95.15424495983825, 342.97643924107774 100.87860606411472" stroke="#000000" stroke-width="1" fill="none"></path></g></g><g><g transform="translate(1327.643805334609 2398.7695048194187) rotate(0 -168.1296689151594 93.12835462281134)"><path d="M0.9767920095473526 0.32709286026656637 C-55.067202587465886 31.158399894869692, -280.12617480476916 154.68849629032792, -336.02529978813493 185.72092370151796 M0.030469085220247605 -0.546787333432585 C-56.23622766392598 30.348934089707942, -281.46395394566997 155.41158586682187, -337.23612983986624 186.8034965790554" stroke="#000000" stroke-width="1" fill="none"></path></g><g transform="translate(1327.643805334609 2398.7695048194187) rotate(0 -168.1296689151594 93.12835462281134)"><path d="M-317.0794534562808 163.26709646088244 C-325.2034059160723 173.36780803926337, -330.14235957454144 176.9847387741573, -336.7835593847174 184.8319370675578 M-317.12650644599466 163.97222998374315 C-322.3298626740922 169.74517416794393, -327.25096739450436 174.3741845036973, -336.4544164370362 186.89116458908907" stroke="#000000" stroke-width="1" fill="none"></path></g><g transform="translate(1327.643805334609 2398.7695048194187) rotate(0 -168.1296689151594 93.12835462281134)"><path d="M-307.0750086153955 181.18443682745257 C-318.50873001445893 185.63502413581344, -326.6479953568448 183.52039508584957, -336.7835593847174 184.8319370675578 M-307.12206160510937 181.88957035031328 C-314.74798986256496 183.4087019676178, -322.09558288851156 183.69202220689647, -336.4544164370362 186.89116458908907" stroke="#000000" stroke-width="1" fill="none"></path></g></g></svg>