<svg version="1.1" xmlns="http://www.w3.org/2000/svg" viewBox="0 0 614.666666666667 1137.5555555555557" width="614.666666666667" height="1137.5555555555557">
  <!-- svg-source:excalidraw -->
  
  <defs>
    <style>
      @font-face {
        font-family: "Virgil";
        src: url("https://excalidraw.com/Virgil.woff2");
      }
      @font-face {
        font-family: "Cascadia";
        src: url("https://excalidraw.com/Cascadia.woff2");
      }
    </style>
  </defs>
  <rect x="0" y="0" width="614.666666666667" height="1137.5555555555557" fill="#ffffff"></rect><g transform="translate(10.000000000000227 630) rotate(0 297.33333333333337 248.77777777777774)"><path d="M334.9184239262888 0.9628204199994741 C357.61318781513376 -0.46798792675921663, 381.1760983884753 10.097447477221575, 402.8172980653631 17.10182743735305 C424.4584977422509 24.10620739748453, 445.48057713011485 31.96629493548454, 464.76562198761576 42.98910018078834 C484.05066684511667 54.01190542609214, 502.73676418266353 68.47126991987294, 518.5275672103685 83.23865890917585 C534.3183702380734 98.00604789847877, 548.3647207447251 114.4532253961063, 559.5104401538454 131.59343411660586 C570.6561595629656 148.73364283710544, 579.6923603159947 167.48006457176143, 585.4018836650898 186.0799112321732 C591.1114070141849 204.67975789258497, 593.56752861198 223.68931568773556, 593.7675802484162 243.1925140790764 C593.9676318848523 262.6957124704173, 591.5919705158403 283.9882267673045, 586.6021934837065 303.0991015802183 C581.6124164515727 322.2099763931321, 573.9716330483031 340.2685365104465, 563.828918055613 357.85776295655904 C553.6862030629229 375.4469894026716, 540.647254966045 393.62558419460595, 525.7459035275655 408.6344602568936 C510.84455208908594 423.64333631918123, 493.0388482150247 436.2378437075314, 474.4208094247357 447.9110193302847 C455.8027706344467 459.58419495303804, 435.4073157664958 470.89665179294934, 414.03767078583155 478.6735139934136 C392.6680258051673 486.4503761938779, 369.50590691090554 491.5101617632576, 346.20293954075015 494.57219253307034 C322.89997217059476 497.6342233028831, 297.5299944002978 498.5736723962217, 274.2198665648991 497.0456986122899 C250.90973872950042 495.51772482835815, 228.3756299136256 491.6003757098676, 206.342172528358 485.40434982947966 C184.30871514309038 479.2083239490917, 161.88538409041297 470.1754634530928, 142.0191222532934 459.8695433299624 C122.15286041617382 449.56362320683206, 103.76069359737681 437.29897154642066, 87.14460150564051 423.5688290906975 C70.5285094139042 409.8386866349743, 54.48661335093557 394.01858695445327, 42.3225697028756 377.48868859562344 C30.158526054815624 360.9587902367936, 20.94750660952963 343.0227510809609, 14.16033961728067 324.38943893771864 C7.373172625031709 305.75612679447636, 3.410838531248989 285.1999634794303, 1.5995677493818334 265.6888157361697 C-0.21170303248532218 246.1776679929091, -0.4457196968885362 226.50542683221653, 3.2927149260777355 207.32255247815496 C7.031149549044008 188.1396781240934, 14.542224737148734 168.4776382004422, 24.030175487179463 150.5915696118003 C33.51812623721019 132.70550102315843, 46.1550310402328 115.74847335264687, 60.22041942626211 100.00614094630373 C74.28580781229142 84.26380853996059, 90.30467973397866 68.55734416069944, 108.42250580335534 56.13757517374145 C126.54033187273201 43.71780618678347, 147.9341957221833 33.946446295439955, 168.9273758425222 25.487527024555817 C189.9205559628611 17.02860775367168, 211.62869000652296 9.646635351215934, 234.38158652538868 5.384059548436625 C257.1344830442544 1.121483745657315, 284.821458533434 -0.09374838519841451, 305.4447549557166 -0.0879277921200412 C326.06805137799915 -0.0821071990416679, 345.897539488099 3.0887611723037907, 358.1213650590843 5.418983106906865 C370.3451906300696 7.7492050415099385, 379.77093652886884 9.858662128044397, 378.7877083816282 13.893403815498402 M270.56716697284907 0.8168045843331129 C292.2734262652211 -5.314808602112848, 318.9072793226502 -1.3552680387990819, 342.3379426486357 1.3681842705154281 C365.7686059746212 4.091636579829938, 389.8767574688352 9.672224572914814, 411.15114692876193 17.157518440220173 C432.42553638868867 24.64281230752553, 451.46030035135635 34.76196344620268, 469.98427940819624 46.27994747434758 C488.50825846503614 57.79793150249248, 507.0817557911711 71.49995865876747, 522.2950212698014 86.2654226090896 C537.5082867484317 101.03088655941173, 550.5620970911078 117.18037484028339, 561.2638722799782 134.87273117628035 C571.9656474688485 152.56508751227733, 580.8428621125926 173.124773944432, 586.5056724030235 192.41956062507137 C592.1684826934544 211.71434730571073, 595.1719151293357 231.03290129372485, 595.2407340225634 250.64145126011653 C595.3095529157911 270.2500012265082, 592.7437084104065 291.3566976277091, 586.9185857623892 310.0708604234214 C581.0934631143718 328.7850232191337, 571.2887833682976 345.68791163944877, 560.2899981344593 362.92642803439026 C549.2912129006211 380.16494442933174, 536.1101102788357 398.64892141362924, 520.9258743593596 413.50195879307046 C505.74163843988345 428.3549961725117, 488.06685999120947 440.776192432574, 469.1845826176027 452.04465231103745 C450.30230524399593 463.3131121895009, 429.5091620324894 473.8862145747935, 407.6322101177189 481.11271806385093 C385.75525820294837 488.3392215529084, 361.1701642889881 492.91474743240803, 337.92287112897964 495.40367324538204 C314.6755779689712 497.89259905835604, 291.5241145109888 498.2217067299148, 268.1484511576684 496.04627294169484 C244.77278780434798 493.8708391534749, 219.62109776823684 488.85595995247945, 197.66889100905723 482.3510705160624 C175.71668424987763 475.84618107964536, 155.91037887843098 467.27655747658434, 136.4352106025908 457.0169363231926 C116.9600423267506 446.7573151698009, 97.06494067599681 435.02937934321494, 80.8178813540161 420.79334359571226 C64.57082203203538 406.5573078482096, 50.319741630602635 388.88068910652066, 38.95285467070647 371.6007218381767 C27.58596771081031 354.32075456983273, 18.83544355825249 335.9115134760466, 12.616559594639114 317.11353998564834 C6.397675631025739 298.3155664952501, 2.5979255197939892 278.07897302706635, 1.639550889026225 258.81288089578726 C0.6811762582584606 239.5467887645082, 2.361884281408 220.75255079306405, 6.866311810032528 201.5169871979739 C11.370739338657057 182.28142360288373, 19.144338458098893 161.23469722250962, 28.66611606077339 143.39949932524627 C38.18789366344789 125.56430142798293, 49.771042548035524 109.7760522640439, 63.996977426079496 94.50579981439381 C78.22291230412347 79.23554736474372, 95.47583682244783 64.09586854395049, 114.02172532903722 51.777984627345745 C132.56761383562662 39.460100710740996, 154.04997733013343 28.41792663907215, 175.27230846561588 20.598496314765327 C196.49463960109833 12.779065990458506, 225.46321455159583 7.926335298621533, 241.3557121419319 4.8614026815048135 C257.248209732268 1.7964700643880938, 265.3207242555103 2.256037524805649, 270.6272940076323 2.2089006120650083 C275.93386375975433 2.161763699324368, 272.43230719068936 0.7214085763353402, 273.1951306546641 4.578581205060971" stroke="#000000" stroke-width="1" fill="none"></path></g><g><g transform="translate(438.09430045827685 84.39381000377631) rotate(0 -123.58096726310748 97.08125281601733)"><path d="M0.42770771495997906 1.0791088331490755 C-40.831468757693145 33.29877945519848, -205.58713690044567 160.55058889127585, -246.67440137053532 192.3345352549024 M-0.8068844640254975 0.6000370252132416 C-42.295672321547244 33.05854865401846, -206.63661488170013 161.57895575731308, -247.589642241175 193.56246860682143" stroke="#000000" stroke-width="1" fill="none"></path></g><g transform="translate(438.09430045827685 84.39381000377631) rotate(0 -123.58096726310748 97.08125281601733)"><path d="M-229.89841943881302 168.2221249172977 C-238.82213286942715 178.743642541765, -245.67586169490167 187.17882318791857, -245.65918268407387 194.7757494354911 M-232.27178947250187 167.27722872314516 C-235.18275226849286 173.7815995486493, -238.40957161899266 178.0741237552304, -247.68994596465183 193.80143265689833" stroke="#000000" stroke-width="1" fill="none"></path></g><g transform="translate(438.09430045827685 84.39381000377631) rotate(0 -123.58096726310748 97.08125281601733)"><path d="M-217.2612069516362 184.3906394730564 C-230.77099252359102 188.92006775412497, -242.34330638842434 191.31811711291016, -245.65918268407387 194.7757494354911 M-219.63457698532505 183.44574327890388 C-225.2371441489814 186.48100181509514, -231.16761973867509 187.31436876674118, -247.68994596465183 193.80143265689833" stroke="#000000" stroke-width="1" fill="none"></path></g></g><g transform="translate(417.55555555555566 10) rotate(0 63.5 50)"><path d="M63.96295600943267 -0.15046867541968822 C83.53919523443095 15.32375317892991, 100.04581512139178 29.560993168847634, 126.20691370777786 51.93158814497292 M63.95450060162693 -0.3014588663354516 C85.34715865270235 18.239509755047038, 106.72899995173327 34.582923392346125, 127.69929392728955 50.61716419365257 M128.21659588627517 49.30002638883889 C107.83386252836324 65.33980938971973, 87.8529295163881 81.9298070598673, 63.440654216334224 99.8196766693145 M126.36353166494519 50.03699856903404 C110.08346128757113 65.21758505302482, 91.48597035692075 79.27539478876628, 63.62433241400868 100.14995661284775 M63.71066659502685 101.58720854111016 C41.286990073109045 81.50761746047064, 17.345124110365283 67.58280372489243, -1.2231749314814806 51.12288245745003 M64.37312673125416 99.20044436957687 C46.39686170550995 86.56580601816997, 28.16277554961853 73.01121729657054, 0.9147359291091561 50.218034028075635 M-1.1259378213435411 52.855425925925374 C16.881668280465533 35.49033230761066, 33.18741356621497 22.82060929726809, 65.4079921822995 1.1906317789107561 M0.2576083103194833 50.01074743177742 C22.105853870818393 33.788995213154706, 45.21194562048652 15.619216203317045, 63.04111604485661 -0.2873987266793847" stroke="#000000" stroke-width="1" fill="none"></path></g><g transform="translate(457.05555555555566 45) rotate(0 25 13)"><text x="25" y="18" font-family="Virgil, Segoe UI Emoji" font-size="20px" fill="#000000" text-anchor="middle" style="white-space: pre;" direction="ltr">client</text></g><g transform="translate(27.88888888888914 167.44444444444446) rotate(0 285 178.1111111111111)"><path d="M-0.31072840765118603 -0.7709657303988934 C220.06800433564936 -2.4003915949538355, 438.92129686288547 -1.529409639425576, 570.1817193262281 0.5735963471233845 M0.22158208526670933 -0.011162090674042703 C176.33035056684173 -0.004077438749373032, 352.0722310021521 0.3351319390162825, 569.7768461409958 0.14007199965417386 M571.1739063861862 1.1574187875689483 C571.9163185606016 91.4803242636614, 570.8244868554955 179.73030578545468, 570.6379133555604 356.8634852742788 M570.6204395851285 0.13502093019608968 C572.3477210780725 139.64476807725003, 571.7939401395471 277.9677691973947, 569.8737930816984 356.753821679582 M569.6498746864498 356.12321183888446 C443.75941826980574 357.15316228391805, 317.54483999647204 357.2014071178643, 0.5919546835124493 356.0667500516606 M570.1579679314049 355.8922390589697 C455.97932047825316 354.5576674843041, 341.37101642414933 354.53149981739205, -0.16162076555192473 356.2262482652647 M0.2587900446805857 355.94521939877507 C-0.9843982685060471 253.42226073102114, -3.311583819997284 152.54809105979808, 0.6662026264617584 0.04379793554284349 M0.09262549977031835 356.663949635259 C2.0458491857175223 221.24361697826558, 1.2771437452260725 87.9816609576198, 0.19398175216071495 0.2009665498708319" stroke="#000000" stroke-width="1" fill="none"></path></g><g transform="translate(33.2222222222224 247.1111111111111) rotate(0 104.5 94)"><path d="M103.1995235402137 1.2008096557110548 C132.03980270451865 23.28647885480896, 158.73422337821685 49.06026525665075, 207.7967685777694 93.81601750664413 M105.69927525427192 0.7157989600673318 C137.33688133698888 30.155830100942403, 168.57134562847205 57.49799734570086, 209.68209680821747 94.49502946529537 M210.11383047886193 96.71104514412582 C172.8938555309642 127.30082051796839, 134.78337526788005 161.39783975254744, 105.02702591009438 188.56770616583526 M208.66607150342315 95.93754173908383 C178.55731783255004 123.33108272148297, 148.12532454698345 149.231688952595, 105.2736784806475 188.7339393356815 M106.3432790953666 189.42521244101226 C73.70258471955545 160.91140259192326, 42.20849692895076 132.79604441779665, 0.9067144710570574 95.01423239521682 M105.42810147907585 188.8864964703098 C77.91447474448941 166.15989461387508, 51.493107752548525 141.076262244815, 0.8834858229383826 95.74415905866772 M0.05370190925896168 95.24486183933914 C24.821171911945566 72.1061752115842, 47.725774996029216 52.0587976042647, 106.74424490518868 0.4458183627575636 M0.0621168902143836 95.44440753851086 C32.17076135803946 67.01159521271475, 64.87790229781531 36.70264347582125, 105.18885648157448 0.29122208151966333" stroke="#000000" stroke-width="1" fill="none"></path></g><g transform="translate(36.33333333333371 719.6666666666665) rotate(0 153.94444444444446 107.83333333333334)"><path d="M153.63590782694519 0.9067144710570574 C203.47914584329357 33.513088609086765, 254.75304876476537 70.19857177081931, 308.7450918470407 109.77299294061959 M153.17455373797566 0.8834858229383826 C203.03408826244174 32.527728317558974, 248.5771802754163 65.7972543063315, 307.9157398435185 108.12243091966957 M308.0577220235849 109.74424490518868 C263.38815034424795 137.7376011722566, 218.5504289133961 168.47681516798525, 154.12423378042877 216.55548174368838 M307.5312867852757 108.18885648157448 C263.13098119638767 140.8998345090542, 215.86517156215288 173.58705757982096, 154.17519228253514 216.37333692020425 M153.02824884466827 216.26664764868715 C114.37337135483511 185.28529049339392, 71.29693200455047 155.99465996646012, -0.055964233353734016 106.5504917819053 M154.28008096013218 215.45469320720682 C117.83024469913605 191.7137623575454, 81.72308468168292 166.09878335377203, -0.7047170838341117 108.60164624359459 M-1.5249197501689196 106.59873959608376 C47.60231513716281 74.18925632080064, 94.49889945667238 41.677303368132556, 153.46520608477294 0.9629180748015642 M0.41465981397777796 108.0438805213198 C54.93092458117754 69.03037337942048, 109.40098135694863 31.489265669342117, 154.84796880278736 0.30207934882491827" stroke="#000000" stroke-width="1" fill="none"></path></g><g transform="translate(79.2222222222224 305.1111111111111) rotate(0 60.5 26)"><text x="60.5" y="18" font-family="Virgil, Segoe UI Emoji" font-size="20px" fill="#000000" text-anchor="middle" style="white-space: pre;" direction="ltr">Intent </text><text x="60.5" y="44" font-family="Virgil, Segoe UI Emoji" font-size="20px" fill="#000000" text-anchor="middle" style="white-space: pre;" direction="ltr">broadcaster</text></g><g transform="translate(123.88888888888914 736.6666666666665) rotate(0 65.5 39)"><text x="65.5" y="18" font-family="Virgil, Segoe UI Emoji" font-size="20px" fill="#000000" text-anchor="middle" style="white-space: pre;" direction="ltr">intent</text><text x="65.5" y="44" font-family="Virgil, Segoe UI Emoji" font-size="20px" fill="#000000" text-anchor="middle" style="white-space: pre;" direction="ltr">broadcaster </text><text x="65.5" y="70" font-family="Virgil, Segoe UI Emoji" font-size="20px" fill="#000000" text-anchor="middle" style="white-space: pre;" direction="ltr">network</text></g><g><g transform="translate(212.01027001470516 726.5922064695411) rotate(0 -19.541424020389968 -144.91649142777564)"><path d="M-0.22223469503223892 0.509036098793149 C-6.606046396460063 -47.70606397754829, -31.562123511562383 -241.8663288969239, -38.16536842527048 -290.34201895434444 M-1.79804663926363 -0.2693238946795464 C-8.309777611683733 -48.215554039323145, -32.897841418737805 -240.8154261617055, -38.86061334574775 -288.96957531269675" stroke="#000000" stroke-width="1" fill="none"></path></g><g transform="translate(212.01027001470516 726.5922064695411) rotate(0 -19.541424020389968 -144.91649142777564)"><path d="M-24.30329153180494 -261.4824824869695 C-29.71139291590059 -272.6128936124004, -33.9862970705402 -277.14085761652115, -38.18969464453117 -287.05294888723677 M-24.162657841633997 -262.9536242453444 C-30.323217606965475 -271.5902365887641, -36.264453131026144 -281.26224899344646, -38.36053459217952 -289.668061820567" stroke="#000000" stroke-width="1" fill="none"></path></g><g transform="translate(212.01027001470516 726.5922064695411) rotate(0 -19.541424020389968 -144.91649142777564)"><path d="M-44.663070512319635 -258.91355231072265 C-43.70743753662399 -270.80637311845527, -41.641115837330645 -276.13445221548324, -38.18969464453117 -287.05294888723677 M-44.52243682214869 -260.3846940690975 C-43.07828936526455 -270.0732071944087, -41.41088880677491 -280.7052523603135, -38.36053459217952 -289.668061820567" stroke="#000000" stroke-width="1" fill="none"></path></g></g><g><g transform="translate(77.67793422238765 412.6869060034677) rotate(0 -10.633973992238225 190.80117127582864)"><path d="M1.093783949688077 0.4450353931635618 C-2.3523506867030086 64.27529862502423, -17.451580430139515 318.5375390653415, -21.36300475464095 381.9692675224219 M0.20888179393485196 -0.3669249707646669 C-3.3436788519920237 63.22343195900153, -18.983199208006923 316.5275126277572, -22.36173193416451 380.3095847407814" stroke="#000000" stroke-width="1" fill="none"></path></g><g transform="translate(77.67793422238765 412.6869060034677) rotate(0 -10.633973992238225 190.80117127582864)"><path d="M-30.233900168313156 351.4119398565362 C-27.656949595165166 356.6249326103904, -27.12178603933926 364.8977001545985, -23.58917893542801 382.21538675040864 M-31.524301182812522 352.46456895762634 C-28.011786849918387 358.57946915754553, -26.334117094968505 366.7079589971588, -21.99279608185296 381.2121116716873" stroke="#000000" stroke-width="1" fill="none"></path></g><g transform="translate(77.67793422238765 412.6869060034677) rotate(0 -10.633973992238225 190.80117127582864)"><path d="M-9.747004631549684 352.5981580706855 C-12.13461211699562 357.70985228163073, -16.574013476239486 365.6945859702879, -23.58917893542801 382.21538675040864 M-11.03740564604905 353.6507871717756 C-12.610326729949412 359.53048345572904, -16.02242818132698 367.36426884390585, -21.99279608185296 381.2121116716873" stroke="#000000" stroke-width="1" fill="none"></path></g></g><g transform="translate(75.55555555555588 556.6666666666666) rotate(0 44 26)"><text x="88" y="18" font-family="Virgil, Segoe UI Emoji" font-size="20px" fill="#000000" text-anchor="end" style="white-space: pre;" direction="ltr">validate </text><text x="88" y="44" font-family="Virgil, Segoe UI Emoji" font-size="20px" fill="#000000" text-anchor="end" style="white-space: pre;" direction="ltr">msg</text></g><g><g transform="translate(262.3024456769044 764.382453753298) rotate(0 -21.284387935828022 -182.86249151414583)"><path d="M0.3233411025255919 0.7983600128442048 C-6.626092698480791 -60.377961917092236, -35.20400612754676 -305.46635056371406, -42.38306601192717 -366.52334304113583 M-0.966043547987938 0.17189507424831385 C-7.940267357062405 -60.842906310205485, -35.84130808209929 -303.70899876894964, -42.89211697418157 -364.96234202352065" stroke="#000000" stroke-width="1" fill="none"></path></g><g transform="translate(262.3024456769044 764.382453753298) rotate(0 -21.284387935828022 -182.86249151414583)"><path d="M-28.148205394150853 -336.734345025938 C-32.78018763621437 -343.8266985435594, -34.403955383542716 -351.9671858532677, -41.39318372037176 -365.95524737019736 M-30.03358868438953 -338.07114813718573 C-33.86546029882784 -344.86638142861557, -37.46666968484858 -353.202471162896, -42.89407678887162 -365.56455692709136" stroke="#000000" stroke-width="1" fill="none"></path></g><g transform="translate(262.3024456769044 764.382453753298) rotate(0 -21.284387935828022 -182.86249151414583)"><path d="M-48.535120643868126 -334.3904830447871 C-48.227708925649495 -342.1068466363915, -44.90164103143812 -350.8164112896332, -41.39318372037176 -365.95524737019736 M-50.420503934106804 -335.72728615603484 C-48.67823197301347 -343.20766144766446, -46.70768664816415 -352.18432989996785, -42.89407678887162 -365.56455692709136" stroke="#000000" stroke-width="1" fill="none"></path></g></g><g transform="translate(262.88888888888914 1079.4444444444443) rotate(0 60.5 13)"><text x="0" y="18" font-family="Virgil, Segoe UI Emoji" font-size="20px" fill="#000000" text-anchor="start" style="white-space: pre;" direction="ltr">libP2P magic</text></g><g transform="translate(56.500000000000455 20.666666666666515) rotate(0 63.5 50)"><path d="M62.21352550573647 1.089687405154109 C86.5948629044462 18.94895818644203, 111.0149291986134 37.83833749528043, 125.00430157966912 52.64155220799148 M64.33476370479912 -0.621205641888082 C80.35360333411955 13.397190621672198, 98.03291095127352 26.962856075624007, 127.43148258235306 51.09573276434094 M127.35062983818352 52.252918956801295 C112.99927238135598 61.223212149580945, 99.77110854287632 71.29219702904113, 63.41646275110543 100.07345861010253 M126.3414979269728 50.44643290434033 C102.75179591079242 69.30142938015051, 77.72314087211154 89.81337037212215, 64.8988786926493 99.77337287459522 M64.17897448129952 99.27718680910766 C42.774899296229705 83.54851402910427, 18.494612453645097 67.48135442566127, -1.6263149660080671 51.15027582459152 M63.40365874674171 100.01136396918446 C39.035329738678406 81.30654368424788, 13.50090583902783 61.19631937459111, 0.8536777189001441 50.87716902885586 M0.6026732046157122 50.63826000504196 C23.39060678546317 33.299030715133995, 48.01128485863097 12.237430761940772, 62.04766032285988 -1.3885552305728197 M-0.05239275190979242 51.94947256240994 C22.807325287004932 32.607151278313246, 46.24680600895547 14.212147032395002, 64.76032668258995 -0.27070470061153173" stroke="#000000" stroke-width="1" fill="none"></path></g><g transform="translate(96.00000000000045 52.666666666666515) rotate(0 25 13)"><text x="25" y="18" font-family="Virgil, Segoe UI Emoji" font-size="20px" fill="#000000" text-anchor="middle" style="white-space: pre;" direction="ltr">client</text></g><g><g transform="translate(114.55304045209004 123.82658113117344) rotate(0 1.1460335550456193 70.06388952054452)"><path d="M-0.8970551300793885 -0.9481840621680021 C-0.2984175993253908 22.376780934111505, 2.697649855290789 117.51975459196285, 3.1891222401707635 141.075963103257 M0.8328521972894669 1.168415359854698 C1.3618292670945205 24.653269889653952, 2.530677781452675 115.86077835232632, 2.559822697937416 139.27775995732088" stroke="#000000" stroke-width="1" fill="none"></path></g><g transform="translate(114.55304045209004 123.82658113117344) rotate(0 1.1460335550456193 70.06388952054452)"><path d="M-9.506391510198036 112.1818993672668 C-3.8386685768974944 117.85378407466908, -2.1896153249276127 127.40696999321132, 3.408377724513339 139.87744780369837 M-6.987885621206979 110.97966685462137 C-5.13857984254534 118.64781527340526, -2.102750056098861 126.83506197884255, 3.2162352854385245 138.96977122333635" stroke="#000000" stroke-width="1" fill="none"></path></g><g transform="translate(114.55304045209004 123.82658113117344) rotate(0 1.1460335550456193 70.06388952054452)"><path d="M11.01415978525835 112.01765285624575 C11.215899282180297 117.5798990890583, 7.397427681049231 127.1768470814412, 3.408377724513339 139.87744780369837 M13.532665674249408 110.81542034360032 C9.704919062107287 118.66826158751334, 7.064731026735277 126.90093914470037, 3.2162352854385245 138.96977122333635" stroke="#000000" stroke-width="1" fill="none"></path></g></g><g transform="translate(119.7222222222224 126.88888888888886) rotate(0 43 13)"><text x="0" y="18" font-family="Virgil, Segoe UI Emoji" font-size="20px" fill="#000000" text-anchor="start" style="white-space: pre;" direction="ltr">send msg</text></g><g transform="translate(240.63888888888914 247.9444444444444) rotate(0 90 17.5)"><text x="0" y="28" font-family="Cascadia, Segoe UI Emoji" font-size="28px" fill="#000000" text-anchor="start" style="white-space: pre;" direction="ltr">Gossip Node</text></g><g transform="translate(409.0277777777778 129.7222222222211) rotate(0 43 13)"><text x="0" y="18" font-family="Virgil, Segoe UI Emoji" font-size="20px" fill="#000000" text-anchor="start" style="white-space: pre;" direction="ltr">send msg</text></g><g transform="translate(377.5000000000002 275.66666666666663) rotate(0 104.5 94)"><path d="M104.84941869042814 -0.7103943433612585 C129.52231598389335 23.38893370939419, 154.61529424753974 45.55532219823451, 209.4453134443611 94.72527275420725 M104.43462513852865 0.7900619162246585 C128.8886455015745 22.476117580588905, 154.68672491400503 44.21153718225658, 208.92189361620694 94.72674792539328 M209.7483019735664 96.28456602431834 C178.86746778688394 122.86325855726376, 149.3387275946792 147.50860417369753, 106.0506080891937 189.9030734691769 M208.98346926737577 95.04500549566 C182.1002243394125 119.8389755138196, 154.06529706140049 143.79748629257085, 105.45836763549596 187.86413302551955 M106.23141949437559 189.8504130039364 C79.92501447326504 166.1173288240563, 50.59381199930794 141.80176198319532, -1.8795529697090387 95.09859917499125 M104.732765247114 188.31124344002455 C76.00765272517688 160.75938118794, 46.57507169208488 136.48144504386, 0.9216423826292157 95.59945189487189 M1.2010539676994085 95.07607481814921 C32.605916675226766 64.53754825857467, 64.08642003736459 37.9638179169502, 103.62547235749662 -1.8238312806934118 M0.8627193765714765 95.32702648174018 C41.67849311060272 58.655741683905944, 83.03835908477194 21.878431773977354, 104.84836946893483 0.6426349533721805" stroke="#000000" stroke-width="1" fill="none"></path></g><g transform="translate(427.5000000000002 336.6666666666667) rotate(0 60.5 26)"><text x="60.5" y="18" font-family="Virgil, Segoe UI Emoji" font-size="20px" fill="#000000" text-anchor="middle" style="white-space: pre;" direction="ltr">DKG </text><text x="60.5" y="44" font-family="Virgil, Segoe UI Emoji" font-size="20px" fill="#000000" text-anchor="middle" style="white-space: pre;" direction="ltr">broadcaster</text></g><g><g transform="translate(511.9461444219187 87.70907263366013) rotate(0 -12.517762726731121 91.93089683002349)"><path d="M-0.9013083938509225 0.14252042211592197 C-5.151554044205538 30.73080996005027, -21.8619040281504 152.61104618004404, -25.86189142350013 183.41556305867664 M0.8263659700378776 -0.8282603016123176 C-3.045076039712719 29.93056483293115, -19.34200303262021 154.02200141775302, -23.778206509350785 184.6900539616593" stroke="#000000" stroke-width="1" fill="none"></path></g><g transform="translate(511.9461444219187 87.70907263366013) rotate(0 -12.517762726731121 91.93089683002349)"><path d="M-29.88416687017872 153.37388153460603 C-29.27178848843208 162.9384542044962, -24.969167987705568 169.46158610659737, -24.9302303705355 183.3462507142224 M-30.088665847579083 156.0037434417082 C-28.824928564457228 166.66010578211277, -25.291434479493482 175.72507503000327, -24.704858653060146 184.26442496706775" stroke="#000000" stroke-width="1" fill="none"></path></g><g transform="translate(511.9461444219187 87.70907263366013) rotate(0 -12.517762726731121 91.93089683002349)"><path d="M-9.55246770499856 156.15632855880105 C-14.426293324800795 164.81702791709336, -15.612524188761306 170.5889959335869, -24.9302303705355 183.3462507142224 M-9.756966682398922 158.78619046590322 C-15.864566929552211 168.44741817951828, -19.725145567030836 176.50048893943216, -24.704858653060146 184.26442496706775" stroke="#000000" stroke-width="1" fill="none"></path></g></g><g transform="translate(267.5555555555559 725.3333333333333) rotate(0 146.44444444444446 103.83333333333329)"><path d="M146.83131847716868 1.5742114093154669 C182.82820991191392 24.914509236991613, 214.97928702673562 51.29499728623053, 294.0824129310332 104.59903835318983 M146.6278800321743 -0.6029669148847461 C193.05750214310774 33.08084086389902, 238.03845584333766 64.12406212972166, 292.39288039867654 103.1741689639166 M294.26229641110524 103.7545049097389 C247.1056149062876 136.97470222190952, 198.8131171837004 173.47148989058095, 145.50542853213847 207.2073415225992 M293.6016485280253 103.62054075766355 C248.76619836506015 134.14595186154358, 205.66865397785995 164.45221371104006, 146.16366493236274 206.9366167482609 M146.98497937060893 206.60586533012483 C104.77129996346619 176.61558375788536, 64.53289542712581 150.7572951971708, 1.2809198293834925 103.28108417056501 M147.98688160907477 207.42881831495706 C94.35057631578607 169.11698126528097, 40.771666669904576 131.6403270187384, 0.6099623097106814 103.49065204430372 M-1.688397129997611 103.3821378853172 C31.808234646711497 79.14934242821299, 67.29713341582566 57.36146778992377, 148.50345740653574 1.3924708869308233 M0.5195513619109988 103.2637908058241 C45.02857677141205 73.55688701917417, 88.97624213635922 42.358356564985584, 146.10261874925345 0.5096452133730054" stroke="#000000" stroke-width="1" fill="none"></path></g><g transform="translate(359.11111111111154 747.3333333333333) rotate(0 65.5 39)"><text x="65.5" y="18" font-family="Virgil, Segoe UI Emoji" font-size="20px" fill="#000000" text-anchor="middle" style="white-space: pre;" direction="ltr">DKG</text><text x="65.5" y="44" font-family="Virgil, Segoe UI Emoji" font-size="20px" fill="#000000" text-anchor="middle" style="white-space: pre;" direction="ltr">broadcaster </text><text x="65.5" y="70" font-family="Virgil, Segoe UI Emoji" font-size="20px" fill="#000000" text-anchor="middle" style="white-space: pre;" direction="ltr">network</text></g><g><g transform="translate(465.15347918996827 460.3483147067638) rotate(0 -28.93502882102007 131.41072758187778)"><path d="M-0.45535109080374236 -1.052504187449813 C-10.117791263055862 42.61389526945618, -48.76917626208097 218.872424284233, -58.51790603089071 262.85370830839975 M1.5064508571848272 1.009327168799937 C-8.251567750726702 44.71905891039488, -49.150492950700524 220.10454792973982, -59.37650849922485 263.8739593512054" stroke="#000000" stroke-width="1" fill="none"></path></g><g transform="translate(465.15347918996827 460.3483147067638) rotate(0 -28.93502882102007 131.41072758187778)"><path d="M-64.72065204262418 234.37347795813616 C-63.48154434969954 241.2576527924918, -62.59792604740604 247.81690487656374, -59.855731223439044 263.31383880774035 M-63.93713650080991 233.4521968746492 C-62.976112110372945 241.434322881616, -60.74104123776534 246.91754449744587, -58.7695098274473 264.3068447251479" stroke="#000000" stroke-width="1" fill="none"></path></g><g transform="translate(465.15347918996827 460.3483147067638) rotate(0 -28.93502882102007 131.41072758187778)"><path d="M-44.735697735359196 239.03412208983843 C-48.620535012463975 244.65526599698683, -52.827642489905344 250.0273219100472, -59.855731223439044 263.31383880774035 M-43.95218219354493 238.11284100635146 C-47.40872813842772 244.95867387764642, -49.59157763018099 249.41160268900381, -58.7695098274473 264.3068447251479" stroke="#000000" stroke-width="1" fill="none"></path></g></g><g><g transform="translate(484.69252832542907 747.4664849035967) rotate(0 14.084132448121068 -131.00508283094277)"><path d="M0.43570274077355853 0.6069998804479837 C5.039450540475256 -42.99827758068453, 22.216344727239047 -217.20025575283225, 26.833107129601878 -260.97764815842277 M-0.7946920496597887 -0.11992912765592334 C4.233087728887505 -44.1075557330088, 24.251735204158756 -219.16654436148016, 28.96295694590185 -262.6171655423335" stroke="#000000" stroke-width="1" fill="none"></path></g><g transform="translate(484.69252832542907 747.4664849035967) rotate(0 14.084132448121068 -131.00508283094277)"><path d="M37.03810015430232 -235.30851750159735 C35.746645683217984 -239.93993194470275, 32.29273908055309 -246.94790495005302, 30.01975599073444 -261.87047242851474 M35.069215446873805 -233.34222978344286 C34.22265788219873 -241.27536481417349, 31.072782154087825 -248.8494308470227, 28.807420254243652 -262.5288085752494" stroke="#000000" stroke-width="1" fill="none"></path></g><g transform="translate(484.69252832542907 747.4664849035967) rotate(0 14.084132448121068 -131.00508283094277)"><path d="M16.64405959942396 -237.5895506516889 C20.141695826607005 -241.76075307715223, 21.46444797583943 -248.234466236817, 30.01975599073444 -261.87047242851474 M14.675174891995448 -235.62326293353442 C19.564718009652765 -242.97063886444474, 22.148929783506752 -249.9033585371986, 28.807420254243652 -262.5288085752494" stroke="#000000" stroke-width="1" fill="none"></path></g></g><g transform="translate(338.0000000000007 564.6666666666666) rotate(0 44 26)"><text x="88" y="18" font-family="Virgil, Segoe UI Emoji" font-size="20px" fill="#000000" text-anchor="end" style="white-space: pre;" direction="ltr">validate </text><text x="88" y="44" font-family="Virgil, Segoe UI Emoji" font-size="20px" fill="#000000" text-anchor="end" style="white-space: pre;" direction="ltr">msg</text></g></svg>