<svg version="1.1" xmlns="http://www.w3.org/2000/svg" viewBox="0 0 654 1458.8888888888891" width="654" height="1458.8888888888891">
  <!-- svg-source:excalidraw -->
  
  <defs>
    <style>
      @font-face {
        font-family: "Virgil";
        src: url("https://excalidraw.com/Virgil.woff2");
      }
      @font-face {
        font-family: "Cascadia";
        src: url("https://excalidraw.com/Cascadia.woff2");
      }
    </style>
  </defs>
  <rect x="0" y="0" width="654" height="1458.8888888888891" fill="#ffffff"></rect><g transform="translate(155.1111111111111 1031.3333333333335) rotate(0 209.83333333333326 208.77777777777777)"><path d="M236.5634536138736 0.6538251336698977 C254.79146816588232 -0.2017984367349328, 273.8548674758405 9.85457344875401, 291.00395523123854 17.16257492139067 C308.1530429866366 24.470576394027333, 324.69210181864275 32.9114554906499, 339.45798014626183 44.501833969489866 C354.2238584738809 56.09221244832983, 368.3559172401571 71.33909651826633, 379.59922519695283 86.70484579443048 C390.84253315374855 102.07059507059463, 400.28381262558946 119.22290725370547, 406.91782788703614 136.69632962647478 C413.5518431484828 154.16975199924408, 418.02965989669565 173.200183020178, 419.4033167656327 191.54538003104636 C420.7769736345698 209.89057704191472, 418.9032567630551 228.41575813351878, 415.1597691006587 246.76751169168497 C411.41628143826233 265.11926524985114, 405.200598664766 284.8471986051793, 396.94239079125464 301.6559013800435 C388.68418291774327 318.46460415490765, 378.01788243578574 333.6445466678096, 365.6105218595904 347.61972834087004 C353.20316128339505 361.5949100139305, 338.3150302488932 375.46189201448186, 322.49822733408274 385.50699141840613 C306.6814244192723 395.5520908223304, 288.567363120261 402.4253133906967, 270.7097043707274 407.8903247644156 C252.85204562119384 413.3553361381345, 234.0165038452766 417.71729927583317, 215.35227483688124 418.2970596607195 C196.68804582848588 418.8768200456059, 177.20322363720427 416.09478676909185, 158.72433032035536 411.36888707373356 C140.24543700350645 406.64298737837527, 120.8020656673726 399.3295144464267, 104.47891493578773 389.94166148856965 C88.15576420420285 380.5538085307126, 73.7799032957714 368.5651076609642, 60.78542593084609 355.0417693265913 C47.79094856592077 341.5184309922184, 35.56794979436972 325.2581152927619, 26.512050746235815 308.80163148233214 C17.456151698101912 292.3451476719024, 10.935745467367052 274.3763101326293, 6.450031642042688 256.30286646401265 C1.9643178167183253 238.22942279539598, -1.0802864096284472 218.86650205787586, -0.4022322057103622 200.36096947063203 C0.2758219982077227 181.8554368833882, 4.4881901365982815 163.07548113567654, 10.518356865551198 145.2696709405497 C16.548523594504115 127.46386074542286, 25.61968994840229 109.1444937856525, 35.77876816800713 93.52610829987098 C45.93784638761198 77.90772281408947, 57.465285986050205 63.73293814175056, 71.47282618318025 51.559358025860575 C85.48036638031029 39.38577790997059, 102.59311546737929 28.427267819321752, 119.82400935078739 20.484627604531084 C137.05490323419548 12.541987389740417, 156.30697687192264 7.18972742455991, 174.85818948362885 3.9035167371165755 C193.40940209533505 0.6173060496732412, 217.68565720164338 0.4789550590195499, 231.13128502102458 0.7673634798710793 C244.57691284040578 1.0557719007226087, 248.80333932925993 3.494469941258051, 255.53195639991608 5.633967262225752 C262.26057347057224 7.773464583193453, 272.33490000852896 10.366072407641397, 271.5029874449616 13.604347405677288 M256.4820592476901 6.4149266357158865 C274.60880669820693 7.2353907012323475, 294.3108778928838 16.456334860262864, 311.08460745886987 25.573412982659903 C327.8583370248559 34.69049110505694, 343.8128614455303 48.00328028543709, 357.1244366436065 61.11739537009814 C370.43601184168267 74.23151045475917, 381.52385459848995 88.53540866346876, 390.9540586473268 104.25810349062616 C400.38426269616366 119.98079831778355, 408.69344205856373 137.52079640032778, 413.70566093662774 155.4535643330425 C418.71787981469174 173.3863322657572, 421.77050181754737 193.04810288911312, 421.027371915711 211.85471108691442 C420.28424201387463 230.66131928471572, 415.0924739924404 250.30398917844872, 409.2468815256096 268.2932135198503 C403.4012890587788 286.28243786125194, 395.9952541314614 304.0785310603973, 385.9538171147261 319.7900571353241 C375.9123800979908 335.5015832102509, 362.83906877101265 349.7763586633519, 348.9982594251979 362.5623699694111 C335.1574500793831 375.34838127547033, 319.4518801580158 387.91083279498093, 302.90896103983755 396.5061249716793 C286.3660419216593 405.10141714837766, 267.9979422285731 410.5598178703955, 249.7407447161283 414.13412302960126 C231.48354720368346 417.70842818880703, 212.28464363257575 419.7644402307947, 193.3657759651686 417.951955926914 C174.44690829776147 416.13947162303333, 154.02531965057872 409.85642061313035, 136.2275387116855 403.2592172063172 C118.42975777279226 396.66201379950405, 101.57895838079168 389.2048310840166, 86.57909033180918 378.368735486035 C71.57922228282669 367.53263988805344, 57.68942864711925 352.87906231131404, 46.22833041779052 338.2426436184277 C34.76723218846178 323.6062249255413, 25.246892311387537 307.7309593741923, 17.812500955836782 290.5502233287169 C10.378109600286027 273.36948728324154, 4.0924294688451255 253.90503872532966, 1.6219822844859948 235.1582273455755 C-0.8484648998731359 216.41141596582136, 0.38372174863079067 196.7909967881373, 2.989817849681998 178.069355050192 C5.595913950733205 159.3477133122467, 9.535141123363221 139.93697173235583, 17.25855889079324 122.8283769179036 C24.981976658223257 105.71978210345138, 37.240110584010395 89.44491107064445, 49.3303244542621 75.41778616347867 C61.4205383245138 61.39066125631288, 74.57754251665288 49.37071588534143, 89.79984211230347 38.66562747490889 C105.02214170795405 27.960539064476343, 122.69796707207641 17.651480626283213, 140.6641220281656 11.187255700883384 C158.63027698425478 4.723030775483555, 178.57909249204337 1.080151437652513, 197.5967718488386 -0.11972207749008135 C216.61445120563386 -1.3195955926326757, 244.53724315112584 2.8785800555942087, 254.770198168937 3.988014610027818 C265.00315318674814 5.097449164461428, 258.45217513611703 5.762142098086012, 258.99450195570546 6.536885249111577 C259.5368287752939 7.311628400137143, 259.1053840625136 5.3471011953259, 258.02415908646736 8.636473516181212" stroke="#000000" stroke-width="1" fill="none"></path></g><g transform="translate(399.6666666666665 35.333333333333485) rotate(0 112.5 60.00000000000003)"><path d="M-0.9935343016830682 -0.2999725433887243 C86.47764666124601 -0.276975066222623, 169.11466143508818 -0.9636568502687961, 224.70434258555062 0.19985911619150637 M-0.7893881467878222 0.7091504050323367 C68.83745922849651 2.41914984616138, 136.52536855086336 2.4268960973458436, 224.5873436509588 0.1846074339763522 M223.89160123653704 0.4832888823002577 C225.08074057400222 41.42179028876127, 223.051101270318 80.52423021756115, 225.2547707278281 118.03780299238865 M225.99828025605524 -0.013759954832494259 C224.43495690617704 29.265641746111225, 224.01709690485143 57.47499130014332, 225.47031670715654 120.65777115616952 M225.48262080792838 118.78524351386993 C172.27743423763272 121.80093759384894, 123.69503672043767 121.81656853221487, 0.12511813339459896 120.55047309068648 M224.62927151990294 120.2039372379143 C172.80542358861314 120.64359847144785, 122.4001547958121 120.81397110556688, 0.5928638973615765 120.56122154066203 M0.9187987167388201 119.33285569958393 C0.17191125229001036 96.91679985262456, -0.20424370691180238 70.48047842644158, 1.2853899914771318 -0.9397214073687792 M0.47969093825668097 119.16128058824692 C0.6502664448693396 92.46465895045552, 1.2772768201306464 62.63481377903374, -0.40389585588127375 -0.45685924496501684" stroke="#000000" stroke-width="1" fill="none"></path></g><g transform="translate(561.6666666666665 39.833333333333485) rotate(0 28.5 13)"><text x="28.5" y="18" font-family="Virgil, Segoe UI Emoji" font-size="20px" fill="#000000" text-anchor="middle" style="white-space: pre;" direction="ltr">Client</text></g><g transform="translate(227.44444444444434 602.7777777777779) rotate(0 51.16666666666663 31.944444444444443)"><path d="M-1.3419503588229418 -1.2857707422226667 C32.77128036540623 -2.494683878952637, 69.58940420181801 0.6867363876756281, 101.83887155664463 -0.1644225399941206 M-0.2010944625362754 0.9691989114508033 C26.60046442085877 -0.3732414120218406, 52.77096651867032 0.7156734889963021, 103.31586734050263 -0.10093993041664362 M103.74247463357945 0.6597041804343462 C102.88884906142225 17.168693799473758, 103.18764100640287 32.30973488640868, 103.26781775367756 64.38634332538479 M102.75287119143952 -0.4880513558164239 C102.19976929852014 20.30355482936526, 103.60983062812333 42.53113418196638, 102.28722388142099 64.1395356281557 M103.14659478080769 64.83221992374294 C61.252163355580215 63.22073041103056, 20.35888969097286 64.84469752214125, 1.7690836172550917 63.32417740941875 M101.60761243694772 64.61549945910357 C67.69654198937738 63.32166987243936, 32.88225899450481 62.998423900044415, 0.8538445392623544 63.81864362199687 M1.5649291258305311 64.5827218544566 C0.43614213952484226 48.77964338499845, 0.39584182986679173 37.447117359998316, 1.9675267320126295 -1.5171190183609724 M-0.6203607162460685 64.4567549749174 C-0.08153216051869094 48.40136454342347, -0.10156459617428482 30.97109522856772, 0.6451950529590249 0.21040138509124517" stroke="#000000" stroke-width="1" fill="none"></path></g><g transform="translate(189.33333333333303 374.55555555555566) rotate(0 101 69.5)"><path d="M101.21740839071572 -0.4795717615634203 C127.91589978700503 17.738421343266968, 157.39406743077564 36.41154049430043, 203.62517360039058 70.75486445240676 M102.6982893338427 -0.8755660792812705 C122.53843441484497 13.268084845505655, 143.93305710768328 27.6207887660712, 202.21808102633807 70.98922236356884 M203.3349051792175 71.20790600590408 C163.40914039705882 94.87963245185092, 125.76736461949534 122.14301311001182, 100.00942644663155 140.02400535158813 M202.71494939830157 69.32240541372448 C163.45582637055776 97.0193054058589, 124.33143444783053 124.59180133920162, 102.81283461954445 139.33992002997547 M103.34237274713814 140.67487710528076 C68.10425008400344 117.38562336627395, 33.407542266650125 93.8007827978395, -1.4406541269272566 68.18463909439743 M102.7697020759806 139.28890965972096 C78.52150443379767 123.16820025525986, 53.95953571924009 106.99536954348906, 0.791719644330442 69.09895147476345 M-0.3092001359909773 68.60023557953537 C25.672980602737518 51.67544742250816, 49.53377016643062 34.7614701040648, 101.49349877424538 -1.320668401196599 M0.6404709508642554 70.17326916847378 C20.597312665265054 56.57076628716662, 40.29668434942141 42.608502025958146, 101.2207456221804 0.6119282701984048" stroke="#000000" stroke-width="1" fill="none"></path></g><g transform="translate(236.33333333333303 420.55555555555566) rotate(0 58.5 13)"><text x="58.5" y="18" font-family="Virgil, Segoe UI Emoji" font-size="20px" fill="#000000" text-anchor="middle" style="white-space: pre;" direction="ltr">tonic server</text></g><g transform="translate(231.3888888888887 610.2777777777779) rotate(0 47 26)"><text x="47" y="18" font-family="Virgil, Segoe UI Emoji" font-size="20px" fill="#000000" text-anchor="middle" style="white-space: pre;" direction="ltr">orderbook</text><text x="47" y="44" font-family="Virgil, Segoe UI Emoji" font-size="20px" fill="#000000" text-anchor="middle" style="white-space: pre;" direction="ltr"> channel</text></g><g><g transform="translate(495.16799466201655 125.38553816643906) rotate(0 -81.89067646145759 136.75628034987187)"><path d="M0.42770771495997906 1.0791088331490755 C-26.93470515714318 46.52378863314998, -136.10331889769586 226.67563478103338, -163.29381976723553 271.6845903226114 M-0.8068844640254975 0.6000370252132416 C-28.398908720997277 46.283557831969965, -137.1527968789503 227.7040016470706, -164.2090606378752 272.91252367453046" stroke="#000000" stroke-width="1" fill="none"></path></g><g transform="translate(495.16799466201655 125.38553816643906) rotate(0 -81.89067646145759 136.75628034987187)"><path d="M-156.72392975268025 243.5605555743153 C-161.86968790807026 255.54358923535116, -164.91258323845784 265.4766627868446, -162.27860108077408 274.12580450320013 M-159.0972997863691 242.61565938016275 C-159.8277203194206 249.98633322734003, -160.87100717668784 255.1371205499583, -164.30936436135204 273.15148772460736" stroke="#000000" stroke-width="1" fill="none"></path></g><g transform="translate(495.16799466201655 125.38553816643906) rotate(0 -81.89067646145759 136.75628034987187)"><path d="M-139.12032288153523 254.10726252539794 C-150.75262070932413 262.21502440405146, -160.36849375178423 268.21008285257994, -162.27860108077408 274.12580450320013 M-141.49369291522407 253.1623663312454 C-145.98243872018375 258.2627677910642, -150.79191227390655 261.1571500654823, -164.30936436135204 273.15148772460736" stroke="#000000" stroke-width="1" fill="none"></path></g></g><g transform="translate(434.6666666666665 48.333333333333485) rotate(0 63.5 50)"><path d="M63.96295600943267 -0.15046867541968822 C83.53919523443095 15.32375317892991, 100.04581512139178 29.560993168847634, 126.20691370777786 51.93158814497292 M63.95450060162693 -0.3014588663354516 C85.34715865270235 18.239509755047038, 106.72899995173327 34.582923392346125, 127.69929392728955 50.61716419365257 M128.21659588627517 49.30002638883889 C107.83386252836324 65.33980938971973, 87.8529295163881 81.9298070598673, 63.440654216334224 99.8196766693145 M126.36353166494519 50.03699856903404 C110.08346128757113 65.21758505302482, 91.48597035692075 79.27539478876628, 63.62433241400868 100.14995661284775 M63.71066659502685 101.58720854111016 C41.286990073109045 81.50761746047064, 17.345124110365283 67.58280372489243, -1.2231749314814806 51.12288245745003 M64.37312673125416 99.20044436957687 C46.39686170550995 86.56580601816997, 28.16277554961853 73.01121729657054, 0.9147359291091561 50.218034028075635 M-1.1259378213435411 52.855425925925374 C16.881668280465533 35.49033230761066, 33.18741356621497 22.82060929726809, 65.4079921822995 1.1906317789107561 M0.2576083103194833 50.01074743177742 C22.105853870818393 33.788995213154706, 45.21194562048652 15.619216203317045, 63.04111604485661 -0.2873987266793847" stroke="#000000" stroke-width="1" fill="none"></path></g><g transform="translate(474.1666666666665 67.33333333333348) rotate(0 25 26)"><text x="25" y="18" font-family="Virgil, Segoe UI Emoji" font-size="20px" fill="#000000" text-anchor="middle" style="white-space: pre;" direction="ltr">tonic</text><text x="25" y="44" font-family="Virgil, Segoe UI Emoji" font-size="20px" fill="#000000" text-anchor="middle" style="white-space: pre;" direction="ltr">client</text></g><g transform="translate(10 226.77777777777794) rotate(0 317 434.1111111111111)"><path d="M-0.31072840765118603 -0.7709657303988934 C244.6973125653342 -2.6053125737383964, 488.1799133222551 -1.734330618210137, 634.1817193262281 0.5735963471233845 M0.22158208526670933 -0.011162090674042703 C196.08452650997796 -0.002393898166716115, 391.58058288842454 0.3368154795989394, 633.7768461409958 0.14007199965417386 M634.7341700784863 0.7238586075603962 C636.0890846059001 221.0723398862407, 635.4062446639216 440.12439858801673, 634.3989559166134 868.6232730647755 M634.3880276862533 0.08444312773644924 C637.3569934143666 339.47699330670554, 637.0106545581464 678.1273433971736, 633.9210692230613 868.5546886095983 M633.6498746864498 868.1232118388845 C493.5996576933191 869.3435411026685, 353.2253188434988 869.3917859366147, 0.5919546835124493 868.0667500516606 M634.1579679314049 867.8922390589697 C507.1564818916843 866.326123515865, 379.72533925101163 866.2999558489529, -0.16162076555192473 868.2262482652648 M0.16184928342700006 868.0489825269414 C-2.5737187243575845 619.799155080008, -4.029158458816508 372.5804929467953, 0.41664824411273005 0.02739156559109688 M0.057928699627518655 868.4984819421751 C2.927428985051811 540.292849005945, 2.44667469304055 213.43708141090138, 0.1213176790624857 0.1256860252469778" stroke="#000000" stroke-width="1" fill="none"></path></g><g transform="translate(230.6666666666663 509.0000000000002) rotate(0 27.5 26)"><text x="0" y="18" font-family="Virgil, Segoe UI Emoji" font-size="20px" fill="#000000" text-anchor="start" style="white-space: pre;" direction="ltr">push </text><text x="0" y="44" font-family="Virgil, Segoe UI Emoji" font-size="20px" fill="#000000" text-anchor="start" style="white-space: pre;" direction="ltr">intent</text></g><g transform="translate(285.3333333333337 694.888888888889) rotate(0 15.5 13)"><text x="0" y="18" font-family="Virgil, Segoe UI Emoji" font-size="20px" fill="#000000" text-anchor="start" style="white-space: pre;" direction="ltr">pop</text></g><g transform="translate(169.33333333333326 730.4444444444446) rotate(0 104.5 94.00000000000001)"><path d="M103.1995235402137 1.2008096557110548 C132.03980270451865 23.28647885480896, 158.73422337821685 49.06026525665075, 207.7967685777694 93.81601750664413 M105.69927525427192 0.7157989600673318 C137.33688133698888 30.155830100942403, 168.57134562847205 57.49799734570086, 209.68209680821747 94.49502946529537 M210.11383047886193 96.71104514412582 C172.8938555309642 127.30082051796839, 134.78337526788005 161.39783975254744, 105.02702591009438 188.56770616583526 M208.66607150342315 95.93754173908383 C178.55731783255004 123.33108272148297, 148.12532454698345 149.231688952595, 105.2736784806475 188.7339393356815 M106.3432790953666 189.42521244101226 C73.70258471955545 160.91140259192326, 42.20849692895076 132.79604441779665, 0.9067144710570574 95.01423239521682 M105.42810147907585 188.8864964703098 C77.91447474448941 166.15989461387508, 51.493107752548525 141.076262244815, 0.8834858229383826 95.74415905866772 M0.05370190925896168 95.24486183933914 C24.821171911945566 72.1061752115842, 47.725774996029216 52.0587976042647, 106.74424490518868 0.4458183627575636 M0.0621168902143836 95.44440753851086 C32.17076135803946 67.01159521271475, 64.87790229781531 36.70264347582125, 105.18885648157448 0.29122208151966333" stroke="#000000" stroke-width="1" fill="none"></path></g><g transform="translate(281.44444444444457 1235) rotate(0 94.44444444444446 67.33333333333331)"><path d="M94.63590782694519 0.9067144710570574 C125.19302352195605 20.739173043886616, 157.1777061345428 44.56517599969585, 189.74509184704058 69.77299294061959 M94.17455373797566 0.8834858229383826 C125.22632996616058 20.220746780999214, 152.3427120347528 41.205799473516855, 188.91573984351837 68.12243091966957 M189.05772202358477 69.74424490518868 C161.90435840970733 86.46153140010621, 134.24417719731312 105.46275957988883, 95.12423378042877 135.55548174368835 M188.53128678527557 68.18885648157448 C161.7048990283058 88.20227440572343, 132.41683814012342 108.60470250002106, 95.17519228253514 135.37333692020422 M94.02824884466827 135.26664764868713 C71.19930647546425 115.47768089996336, 43.93373735342174 97.1742652774012, -0.055964233353734016 66.5504917819053 M95.28008096013218 134.4546932072068 C72.62405136149998 119.96132969798826, 50.6438641777883 104.16339961257759, -0.7047170838341117 68.60164624359459 M-1.5249197501689196 66.59873959608376 C29.280774547625338 47.00547389225103, 58.0889939967543 26.75681915679015, 94.46520608477294 0.9629180748015642 M0.41465981397777796 68.0438805213198 C33.95531236985699 43.24460451188497, 67.7211223440245 19.740274294419216, 95.84796880278736 0.30207934882491827" stroke="#000000" stroke-width="1" fill="none"></path></g><g><g transform="translate(273.82728743885605 676.6090018287191) rotate(0 -0.03371215174138342 22.892102003032534)"><path d="M0.7256805527955292 -1.074036007001996 C0.5700677264505883 6.3443456007727175, 0.16982746013713945 37.566938801948325, 0.259801410525597 45.304620107599014 M-0.3524758863262831 0.9764911439828574 C-0.7698475831536689 8.532435693666407, -0.9148362314394308 39.2358827093247, -0.6840933996108106 46.85824001306709" stroke="#000000" stroke-width="1" fill="none"></path></g><g transform="translate(273.82728743885605 676.6090018287191) rotate(0 -0.03371215174138342 22.892102003032534)"><path d="M-10.41199740489122 25.671531566099766 C-5.259371215023009 35.768166045459296, -2.00949472646319 44.19746941136427, -1.3591261624213984 46.35174638317939 M-9.361553281556038 25.659809078702274 C-6.311120575952609 30.5823489704687, -4.684206890833158 35.63826690877866, -0.8196366277378729 46.051075091641806" stroke="#000000" stroke-width="1" fill="none"></path></g><g transform="translate(273.82728743885605 676.6090018287191) rotate(0 -0.03371215174138342 22.892102003032534)"><path d="M5.072128792013923 25.52901472954887 C4.04046302896408 35.7762162338234, 1.1051041857352546 44.262448880825644, -1.3591261624213984 46.35174638317939 M6.122572915349106 25.517292242151377 C5.26712585110094 30.489361894711326, 2.9874009297535338 35.58123677167325, -0.8196366277378729 46.051075091641806" stroke="#000000" stroke-width="1" fill="none"></path></g></g><g transform="translate(208.33333333333326 812.4444444444446) rotate(0 71 13)"><text x="0" y="18" font-family="Virgil, Segoe UI Emoji" font-size="20px" fill="#000000" text-anchor="start" style="white-space: pre;" direction="ltr">Orderbook app</text></g><g transform="translate(337 1298) rotate(0 38 13)"><text x="0" y="18" font-family="Virgil, Segoe UI Emoji" font-size="20px" fill="#000000" text-anchor="start" style="white-space: pre;" direction="ltr">network</text></g><g transform="translate(428.3888888888887 930.388888888889) rotate(0 64.5 18)"><path d="M-1.7132768649607897 -1.5875485222786665 C26.572579779941595 -0.1932412547711282, 55.16092475187035 1.9716670947428794, 128.19726675562563 -0.7364391963928938 M-0.5439894637092948 -0.9154027113690972 C35.061622927431024 0.66548582312651, 69.05622858181597 0.650794500084594, 129.9595671752468 -0.7328836629167199 M128.9199768882245 1.2043714839965105 C129.0561891557649 16.203516059368855, 129.16113535184417 28.363093450292958, 128.67823588661852 36.124482961371555 M129.18269620928916 0.9287185957655311 C129.513059148863 12.104262300021952, 128.80597780115906 25.031178341619682, 128.25526930484924 35.10461437609048 M129.9410613756627 37.97366461344065 C78.22148280097173 35.99186217927375, 31.70612595174461 34.85847264670768, -0.05385536141693592 36.347849043086185 M128.57540609035644 36.42738759424539 C97.0400874773972 37.04789781327361, 63.35012199096383 36.226819542599856, 0.8538669804111123 35.01301142480226 M-0.668394984677434 35.905694635584965 C-0.4101121679320932 26.678684030473242, 1.7196333750709891 20.157638467475778, -0.31620669551193714 0.3866009432822466 M-0.8522794982418418 35.61634036805482 C0.39783789455890656 22.96112021449954, -0.4535095816850662 7.861654722504319, 0.49647958669811487 -0.4338704952970147" stroke="#000000" stroke-width="1" fill="none"></path></g><g transform="translate(476.8888888888887 934.888888888889) rotate(0 34 13)"><text x="34" y="18" font-family="Virgil, Segoe UI Emoji" font-size="20px" fill="#000000" text-anchor="middle" style="white-space: pre;" direction="ltr">channel</text></g><g><g transform="translate(408.0155976852261 1255.4624647095472) rotate(0 16.068715539774303 -143.38731187005024)"><path d="M-0.22223469503223892 0.509036098793149 C5.410761294220417 -47.19633745830648, 28.521914941840016 -239.31769630071486, 33.9354777188124 -287.2836598388936 M-1.79804663926363 -0.2693238946795464 C3.7070300789967465 -47.705827520081336, 27.186197034664595 -238.26679356549644, 33.24023279833513 -285.9112161972459" stroke="#000000" stroke-width="1" fill="none"></path></g><g transform="translate(408.0155976852261 1255.4624647095472) rotate(0 16.068715539774303 -143.38731187005024)"><path d="M40.781328559590314 -255.86473975398508 C37.580915151443854 -267.7792988751628, 35.49127411213183 -273.10440461550616, 33.91115149955171 -283.9945897717859 M40.92196224976126 -257.33588151235995 C37.37951623159794 -266.96061781138525, 34.060308714761696 -277.58909534076713, 33.74031155190336 -286.60970270511615" stroke="#000000" stroke-width="1" fill="none"></path></g><g transform="translate(408.0155976852261 1255.4624647095472) rotate(0 16.068715539774303 -143.38731187005024)"><path d="M20.417894574650006 -258.40453477067797 C23.537592173755147 -269.4903410120022, 27.79031537050598 -274.0244060520041, 33.91115149955171 -283.9945897717859 M20.55852826482095 -259.87567652905284 C24.62996853959321 -268.6431526560115, 28.920763013973634 -278.3224855004346, 33.74031155190336 -286.60970270511615" stroke="#000000" stroke-width="1" fill="none"></path></g></g><g><g transform="translate(448.7866240789458 929.3319510898458) rotate(0 -60.91880165107534 -21.23855808731915)"><path d="M-0.04506579749286166 -0.9711107779294252 C-20.218826039200597 -8.269229375719412, -100.92389855119376 -36.49442029148034, -121.00810228960559 -43.61056829295685 M-1.5278640705160798 1.133452118318528 C-21.83539240282955 -5.984168108943239, -101.89517753400814 -34.86219972544975, -121.7925375046578 -42.12283407853549" stroke="#000000" stroke-width="1" fill="none"></path></g><g transform="translate(448.7866240789458 929.3319510898458) rotate(0 -60.91880165107534 -21.23855808731915)"><path d="M-93.41108812573023 -41.647702368919674 C-101.0363917822029 -40.882538484659065, -110.21824728238717 -41.24807784407598, -122.16018303468793 -40.740214163005405 M-91.87098880572833 -41.51342655719531 C-101.99193712579167 -41.56788178824362, -111.50556124005038 -42.07186598627203, -122.65997087474882 -41.99904174221312" stroke="#000000" stroke-width="1" fill="none"></path></g><g transform="translate(448.7866240789458 929.3319510898458) rotate(0 -60.91880165107534 -21.23855808731915)"><path d="M-100.40129361646744 -22.353738815955577 C-105.93810499303792 -27.429543320164377, -113.00282579484121 -33.638676227926354, -122.16018303468793 -40.740214163005405 M-98.86119429646554 -22.219463004231212 C-106.54524807782211 -28.544007828135552, -113.80594904081678 -35.26638106003679, -122.65997087474882 -41.99904174221312" stroke="#000000" stroke-width="1" fill="none"></path></g></g><g><g transform="translate(264.14339072465054 916.3655282877605) rotate(0 35.64476512417616 173.42197200051595)"><path d="M1.093783949688077 0.4450353931635618 C13.05492484814008 58.48223219992001, 59.58479724407593 289.5722069398204, 71.08064845441758 347.2108689717966 M0.20888179393485196 -0.3669249707646669 C12.063596682851067 57.430365533897316, 58.05317846620853 287.56218050223606, 70.08192127489403 345.5511861901561" stroke="#000000" stroke-width="1" fill="none"></path></g><g transform="translate(264.14339072465054 916.3655282877605) rotate(0 35.64476512417616 173.42197200051595)"><path d="M55.155663408150716 319.8068149136972 C59.47206711571231 324.18984239246396, 61.720083003463884 331.696941745083, 68.85447427363053 347.4569881997833 M53.86526239365135 320.85944401478736 C59.14182276908699 326.17045651510716, 62.572012921009886 333.5155460007829, 70.45085712720558 346.453713121062" stroke="#000000" stroke-width="1" fill="none"></path></g><g transform="translate(264.14339072465054 916.3655282877605) rotate(0 35.64476512417616 173.42197200051595)"><path d="M75.26601720815991 315.7210258314885 C74.66481926632324 321.27945522411306, 72.029700944519 329.778653305515, 68.85447427363053 347.4569881997833 M73.97561619366054 316.7736549325786 C74.24101940133625 323.1581491815555, 72.67498650244765 331.51831347875816, 70.45085712720558 346.453713121062" stroke="#000000" stroke-width="1" fill="none"></path></g></g><g transform="translate(380.9444444444441 855.3333333333335) rotate(0 27.5 39)"><text x="0" y="18" font-family="Virgil, Segoe UI Emoji" font-size="20px" fill="#000000" text-anchor="start" style="white-space: pre;" direction="ltr">pop </text><text x="0" y="44" font-family="Virgil, Segoe UI Emoji" font-size="20px" fill="#000000" text-anchor="start" style="white-space: pre;" direction="ltr">intent</text><text x="0" y="70" font-family="Virgil, Segoe UI Emoji" font-size="20px" fill="#000000" text-anchor="start" style="white-space: pre;" direction="ltr"></text></g><g transform="translate(191.66666666666674 934.0000000000001) rotate(0 45 39)"><text x="0" y="18" font-family="Virgil, Segoe UI Emoji" font-size="20px" fill="#000000" text-anchor="start" style="white-space: pre;" direction="ltr">gossip</text><text x="0" y="44" font-family="Virgil, Segoe UI Emoji" font-size="20px" fill="#000000" text-anchor="start" style="white-space: pre;" direction="ltr">validated</text><text x="0" y="70" font-family="Virgil, Segoe UI Emoji" font-size="20px" fill="#000000" text-anchor="start" style="white-space: pre;" direction="ltr">intent</text></g><g><g transform="translate(427.3612186250821 1270.0542623367503) rotate(0 19.68719346966111 -150.54396704475514)"><path d="M-0.9720508228987454 0.5347278546541929 C5.617417612409486 -49.43191873654141, 33.546270245491925 -249.77641663324906, 40.34643776222106 -299.8877039562562 M0.7184837657399474 -0.23014396699145445 C7.065812337676331 -50.53013538071304, 32.986495739940025 -251.29157412922828, 39.31873510518085 -301.62266194416446" stroke="#000000" stroke-width="1" fill="none"></path></g><g transform="translate(427.3612186250821 1270.0542623367503) rotate(0 19.68719346966111 -150.54396704475514)"><path d="M46.8181466733268 -272.6123959391347 C44.75057218440234 -284.28169453984384, 41.913444354225874 -293.1954394743183, 41.15432496295284 -299.86463743230564 M45.70454456873001 -273.299586930961 C43.23474164081423 -282.61663448979596, 40.78914568937445 -293.7186254734316, 39.91034726445537 -301.91212160388244" stroke="#000000" stroke-width="1" fill="none"></path></g><g transform="translate(427.3612186250821 1270.0542623367503) rotate(0 19.68719346966111 -150.54396704475514)"><path d="M26.462134259607048 -275.211003450539 C31.872860012009983 -285.76050220981335, 36.51593426623697 -293.71933962466716, 41.15432496295284 -299.86463743230564 M25.348532155010254 -275.89819444236537 C30.616565181233952 -284.18113266684816, 35.90748745738548 -294.2954953287018, 39.91034726445537 -301.91212160388244" stroke="#000000" stroke-width="1" fill="none"></path></g></g><g><g transform="translate(456.62626813641646 1287.002597132243) rotate(0 17.85098991996574 -158.3655450784776)"><path d="M0.3233411025255919 0.7983600128442048 C6.549088868160318 -52.21231310520283, 30.671901705658787 -264.63810650426706, 36.66802338791949 -317.5294501697994 M-0.966043547987938 0.17189507424831385 C5.2349142095787045 -52.67725749831609, 30.034599751106263 -262.88075470950264, 36.15897242566509 -315.96844915218423" stroke="#000000" stroke-width="1" fill="none"></path></g><g transform="translate(456.62626813641646 1287.002597132243) rotate(0 17.85098991996574 -158.3655450784776)"><path d="M44.40896484606613 -285.3836868738584 C41.34317280724147 -293.0657485130304, 41.29609442737682 -301.77844601944946, 37.6579056794749 -316.96135449886094 M42.52358155582745 -286.7204899851061 C40.46890349502569 -294.17402337946726, 38.642485646934055 -303.15421831036775, 36.15701261097504 -316.57066405575495" stroke="#000000" stroke-width="1" fill="none"></path></g><g transform="translate(456.62626813641646 1287.002597132243) rotate(0 17.85098991996574 -158.3655450784776)"><path d="M24.026438548279202 -287.76541400051764 C25.920026903447095 -294.9241257426467, 30.821718550710777 -303.0585524476445, 37.6579056794749 -316.96135449886094 M22.141055258040524 -289.10221711176536 C25.654504948400543 -295.9493769122961, 29.39864230829713 -304.27864456089696, 36.15701261097504 -316.57066405575495" stroke="#000000" stroke-width="1" fill="none"></path></g></g><g transform="translate(502 1174) rotate(0 20.5 13)"><text x="0" y="18" font-family="Virgil, Segoe UI Emoji" font-size="20px" fill="#000000" text-anchor="start" style="white-space: pre;" direction="ltr">push</text></g><g transform="translate(316 1411.7777777777778) rotate(0 60.5 13)"><text x="0" y="18" font-family="Virgil, Segoe UI Emoji" font-size="20px" fill="#000000" text-anchor="start" style="white-space: pre;" direction="ltr">libP2P magic</text></g><g transform="translate(55.61111111111131 10) rotate(0 112.5 60.00000000000003)"><path d="M-1.5142849398475884 0.553524617053628 C66.00470488628359 -0.24305155153365388, 135.3342075428591 -0.5429507314538504, 226.6966794338363 1.0452707140117883 M-0.5616804488298297 -0.7701934647091031 C45.33572179816147 0.0783918283424524, 89.91007045121967 -0.12059873913763486, 225.47797007737137 -0.8345232042587399 M223.6971178967505 0.5779940467327833 C225.4655091553926 42.43070994503798, 224.76584307253356 82.0270152445883, 224.75528517551714 119.37070739082996 M224.87522554304445 -0.9878116985782981 C224.38557309303428 31.945209410972907, 225.80680057797576 64.51591152790937, 225.68386039044702 120.62490727100526 M225.08608890242988 121.40604919555251 C137.4288439285879 120.31049437120556, 50.48125727737776 121.00491148400998, -0.7817733715912103 120.9278519206845 M225.0507527792623 120.28779177356837 C175.2842012845541 121.90649397002927, 127.06428826231904 122.4156326878275, 0.43051236564427614 120.0059540148537 M-1.7814715187996626 118.58831602148716 C0.7500703699886799 73.39412737824026, -1.4038994543254375 28.87260528467597, -1.4182467143982649 -0.18715071864426136 M-0.5015237936750054 120.94495551381264 C0.7807403864338998 96.66351062525067, 0.8231932284310464 71.6186847323552, 0.8680527498945594 -0.22570983972400427" stroke="#000000" stroke-width="1" fill="none"></path></g><g transform="translate(217.6111111111113 14.5) rotate(0 28.5 13)"><text x="28.5" y="18" font-family="Virgil, Segoe UI Emoji" font-size="20px" fill="#000000" text-anchor="middle" style="white-space: pre;" direction="ltr">Client</text></g><g transform="translate(90.61111111111131 23) rotate(0 63.5 50)"><path d="M62.21352550573647 1.089687405154109 C86.5948629044462 18.94895818644203, 111.0149291986134 37.83833749528043, 125.00430157966912 52.64155220799148 M64.33476370479912 -0.621205641888082 C80.35360333411955 13.397190621672198, 98.03291095127352 26.962856075624007, 127.43148258235306 51.09573276434094 M127.35062983818352 52.252918956801295 C112.99927238135598 61.223212149580945, 99.77110854287632 71.29219702904113, 63.41646275110543 100.07345861010253 M126.3414979269728 50.44643290434033 C102.75179591079242 69.30142938015051, 77.72314087211154 89.81337037212215, 64.8988786926493 99.77337287459522 M64.17897448129952 99.27718680910766 C42.774899296229705 83.54851402910427, 18.494612453645097 67.48135442566127, -1.6263149660080671 51.15027582459152 M63.40365874674171 100.01136396918446 C39.035329738678406 81.30654368424788, 13.50090583902783 61.19631937459111, 0.8536777189001441 50.87716902885586 M0.6026732046157122 50.63826000504196 C23.39060678546317 33.299030715133995, 48.01128485863097 12.237430761940772, 62.04766032285988 -1.3885552305728197 M-0.05239275190979242 51.94947256240994 C22.807325287004932 32.607151278313246, 46.24680600895547 14.212147032395002, 64.76032668258995 -0.27070470061153173" stroke="#000000" stroke-width="1" fill="none"></path></g><g transform="translate(130.1111111111113 42) rotate(0 25 26)"><text x="25" y="18" font-family="Virgil, Segoe UI Emoji" font-size="20px" fill="#000000" text-anchor="middle" style="white-space: pre;" direction="ltr">tonic</text><text x="25" y="44" font-family="Virgil, Segoe UI Emoji" font-size="20px" fill="#000000" text-anchor="middle" style="white-space: pre;" direction="ltr">client</text></g><g><g transform="translate(170.46900190706242 116.24802178742368) rotate(0 32.71474486981879 134.2540171079352)"><path d="M-0.8970551300793885 -0.9481840621680021 C10.224486172265664 43.773490129908396, 55.312168713246066 224.50330057094732, 66.3265448697171 269.45621827803836 M0.8328521972894669 1.168415359854698 C11.884733038685578 46.04997908545085, 55.145196639407956 222.8443243313108, 65.69724532748376 267.65801513210226" stroke="#000000" stroke-width="1" fill="none"></path></g><g transform="translate(170.46900190706242 116.24802178742368) rotate(0 32.71474486981879 134.2540171079352)"><path d="M47.54239078479371 243.66422027001477 C54.803267510502735 248.5551015596072, 58.07458674701958 257.28176867661193, 66.54580035405968 268.25770297847976 M50.06089667378477 242.46198775736934 C53.61386979764352 249.23077942111982, 58.333827390988965 256.5599897072193, 66.35365791498486 267.35002639811773" stroke="#000000" stroke-width="1" fill="none"></path></g><g transform="translate(170.46900190706242 116.24802178742368) rotate(0 32.71474486981879 134.2540171079352)"><path d="M67.49344390599889 238.86052567723635 C69.48361527953342 244.88216689369796, 67.4391475659268 254.88873722551241, 66.54580035405968 268.25770297847976 M70.01194979498995 237.65829316459093 C68.01617132360515 245.89119165058318, 67.21763521522037 254.549111664146, 66.35365791498486 267.35002639811773" stroke="#000000" stroke-width="1" fill="none"></path></g></g><g transform="translate(197.83333333333326 156.22222222222234) rotate(0 27.5 26)"><text x="0" y="18" font-family="Virgil, Segoe UI Emoji" font-size="20px" fill="#000000" text-anchor="start" style="white-space: pre;" direction="ltr">send </text><text x="0" y="44" font-family="Virgil, Segoe UI Emoji" font-size="20px" fill="#000000" text-anchor="start" style="white-space: pre;" direction="ltr">intent</text></g><g><g transform="translate(290.73264310336845 518.0844188818753) rotate(0 0.8704562501555984 39.98748631101269)"><path d="M-1.016262512281537 -0.007730342075228602 C-0.8932333668214747 13.492355712156055, 0.20451431615021348 67.51158264478325, 0.6496751907362524 81.03236533902918 M0.6510609394311904 -1.0573927170038222 C1.1330700658368398 12.065353561665177, 2.730320305132533 65.75247681034385, 2.75717501259287 79.09626617983317" stroke="#000000" stroke-width="1" fill="none"></path></g><g transform="translate(290.73264310336845 518.0844188818753) rotate(0 0.8704562501555984 39.98748631101269)"><path d="M-8.025714696152097 49.17723777175148 C-4.2618400902891365 59.13703047800522, -0.9692660488484321 65.58053613626308, 3.718135816146332 77.63521450899874 M-7.974813444307035 50.231565584728614 C-3.7392907133783844 61.89856263134052, 0.4499124702203785 72.65063324231882, 3.5939417184411466 78.66192418199365" stroke="#000000" stroke-width="1" fill="none"></path></g><g transform="translate(290.73264310336845 518.0844188818753) rotate(0 0.8704562501555984 39.98748631101269)"><path d="M12.492121141646123 48.805196216273586 C10.252062234763436 58.70009503093156, 7.540604020487027 65.25246935921949, 3.718135816146332 77.63521450899874 M12.543022393491185 49.85952402925072 C9.009545064053544 61.53241369395317, 5.4278260245842676 72.42539127066719, 3.5939417184411466 78.66192418199365" stroke="#000000" stroke-width="1" fill="none"></path></g></g><g transform="translate(213.75 236.27777777777789) rotate(0 90 17.5)"><text x="0" y="28" font-family="Cascadia, Segoe UI Emoji" font-size="28px" fill="#000000" text-anchor="start" style="white-space: pre;" direction="ltr">Gossip Node</text></g><g transform="translate(474.1388888888887 164.05555555555458) rotate(0 27.5 26)"><text x="0" y="18" font-family="Virgil, Segoe UI Emoji" font-size="20px" fill="#000000" text-anchor="start" style="white-space: pre;" direction="ltr">send </text><text x="0" y="44" font-family="Virgil, Segoe UI Emoji" font-size="20px" fill="#000000" text-anchor="start" style="white-space: pre;" direction="ltr">intent</text></g><g><g transform="translate(332.75 492.2777777777778) rotate(0 -0.750017737629264 50.40315388146794)"><path d="M0.012638699635863393 0.48267012275755405 C-0.03513662852346888 16.986471210295974, -0.14613426961004727 83.28600498673826, -0.23050437010824676 99.72355050481868 M-1.439864712394774 -0.30953200813382864 C-1.6707433766499162 16.313132398563145, -1.2864736301079391 84.40473439299822, -1.2995646280422806 101.1158397710697" stroke="#000000" stroke-width="1" fill="none"></path></g><g transform="translate(332.75 492.2777777777778) rotate(0 -0.750017737629264 50.40315388146794)"><path d="M-10.82921116867131 72.56774484989643 C-8.781364464609927 80.7091482176343, -6.658794670464789 90.65893102912905, -0.06698624055832614 102.90718200903397 M-11.906506711365939 72.43460343749672 C-6.624034457997368 84.05407975268307, -2.515017651672675 94.50069548352403, -0.7000191892683505 101.77371482744825" stroke="#000000" stroke-width="1" fill="none"></path></g><g transform="translate(332.75 492.2777777777778) rotate(0 -0.750017737629264 50.40315388146794)"><path d="M9.69192763056525 72.51422131948556 C5.487727524853307 80.67409351873513, 1.357937956794271 90.64018382416268, -0.06698624055832614 102.90718200903397 M8.614632087870621 72.38107990708585 C5.81108432730447 83.9840060222031, 1.833573218673898 94.45171315186988, -0.7000191892683505 101.77371482744825" stroke="#000000" stroke-width="1" fill="none"></path></g></g></svg>