<svg version="1.1" xmlns="http://www.w3.org/2000/svg" viewBox="0 0 885 2364.0555555555566" width="885" height="2364.0555555555566">
  <!-- svg-source:excalidraw -->
  
  <defs>
    <style>
      @font-face {
        font-family: "Virgil";
        src: url("https://excalidraw.com/Virgil.woff2");
      }
      @font-face {
        font-family: "Cascadia";
        src: url("https://excalidraw.com/Cascadia.woff2");
      }
    </style>
  </defs>
  <rect x="0" y="0" width="885" height="2364.0555555555566" fill="#ffffff"></rect><g transform="translate(426.9444444444448 1700) rotate(0 51 13)"><text x="0" y="18" font-family="Virgil, Segoe UI Emoji" font-size="20px" fill="#1864ab" text-anchor="start" style="white-space: pre;" direction="ltr">add intent</text></g><g transform="translate(354.8333333333335 1632) rotate(0 108.5 13)"><text x="0" y="18" font-family="Virgil, Segoe UI Emoji" font-size="20px" fill="#c92a2a" text-anchor="start" style="white-space: pre;" direction="ltr">B_private_filter.wasm</text></g><g><g transform="translate(418.2316527104466 1673.7288135593221) rotate(0 -0.610413961039626 44.99824514805812)"><path d="M0.17640868239104757 0.22350769825279704 C-0.11035115550692359 15.521914681964564, -0.587501879569664 75.70948207613552, -0.7103849932244712 90.70124500161974 M-1.190115488693118 -0.704754705503583 C-1.641027886825159 14.325417219423699, -1.2374710179237274 73.4692045871588, -1.16487671744737 88.83122503808706" stroke="#1864ab" stroke-width="1" fill="none"></path></g><g transform="translate(418.2316527104466 1673.7288135593221) rotate(0 -0.610413961039626 44.99824514805812)"><path d="M-11.201432082444617 62.26176369902203 C-7.028598773987716 73.30505604308323, -3.9082303652274852 81.23396792962814, -3.0262461354276833 90.6680497103837 M-12.401797570862064 61.41927230045656 C-6.576568817499512 70.90891525130117, -3.8398134459461453 80.95864512368415, -1.4989643491125402 88.08715692865668" stroke="#1864ab" stroke-width="1" fill="none"></path></g><g transform="translate(418.2316527104466 1673.7288135593221) rotate(0 -0.610413961039626 44.99824514805812)"><path d="M9.319491390857076 62.15358704379971 C5.607590439194986 73.26860606403973, 0.8442064684828194 81.23907738450202, -3.0262461354276833 90.6680497103837 M8.11912590243963 61.31109564523424 C6.389821026754344 70.90113537133824, 1.5710222882048894 80.99069457075153, -1.4989643491125402 88.08715692865668" stroke="#1864ab" stroke-width="1" fill="none"></path></g></g><g transform="translate(311.50000000000045 1776.5000000000005) rotate(0 91.66666666666676 43.5)"><path d="M1.851579798385501 1.6084478665143251 C50.10955949407076 -2.689819423947484, 96.20239140838395 0.01718458672985368, 183.88113418531933 -1.105073792859912 M-0.67837571259588 0.12597728427499533 C63.0598171142241 -1.4689665640083465, 128.62528903192543 -1.1109259629932555, 182.91581821286448 0.12761983927339315 M182.23692766142406 -0.598188741132617 C184.123764056399 27.595982379000656, 184.2663646523501 56.103525157459124, 183.21313032818355 88.6807384062559 M183.87040972554453 -0.7854715818539262 C184.48706392564208 22.33429583376275, 183.1554005257073 43.02801401689651, 183.3487776800371 86.51405972894287 M182.2597959966711 86.27922196872538 C142.74209603512054 87.34658979608993, 102.72367700313538 85.87922780945281, 0.18966598622500896 86.36682106740778 M182.83378758871325 87.42736143525696 C129.14951360039424 86.11719928542158, 77.54721840998785 86.67109598079702, 0.05658958200365305 86.63571289833641 M1.8183171283453703 86.98610235936945 C0.3456862863060082 63.58517408119519, 1.0497988756652916 42.07732937540862, -0.40766297467052937 1.700549678876996 M0.7006799960508943 87.5240893727169 C0.9065657078195367 63.74189341710884, 1.1410396217275416 41.26625320948663, -0.46043073292821646 0.5480908220633864" stroke="#1864ab" stroke-width="1" fill="none"></path></g><g transform="translate(66 1632) rotate(0 73 13)"><text x="0" y="18" font-family="Virgil, Segoe UI Emoji" font-size="20px" fill="#000000" text-anchor="start" style="white-space: pre;" direction="ltr">Intent mempool</text></g><g transform="translate(45.88888888888869 1440.8333333333335) rotate(0 90.5 12)"><text x="0" y="17" font-family="Helvetica, Segoe UI Emoji" font-size="20px" fill="#c92a2a" text-anchor="start" style="white-space: pre;" direction="ltr">B_public_filter.wasm</text></g><g transform="translate(128.16666666666652 412.1111111111112) rotate(0 90.5 12)"><text x="0" y="17" font-family="Helvetica, Segoe UI Emoji" font-size="20px" fill="#c92a2a" text-anchor="start" style="white-space: pre;" direction="ltr">A_public_filter.wasm</text></g><g transform="translate(148 35) rotate(0 28.5 13)"><text x="28.5" y="18" font-family="Virgil, Segoe UI Emoji" font-size="20px" fill="#000000" text-anchor="middle" style="white-space: pre;" direction="ltr">Client</text></g><g transform="translate(185.08333333333337 116.33333333333337) rotate(0 32.5 26)"><text x="0" y="18" font-family="Virgil, Segoe UI Emoji" font-size="20px" fill="#000000" text-anchor="start" style="white-space: pre;" direction="ltr">submit</text><text x="0" y="44" font-family="Virgil, Segoe UI Emoji" font-size="20px" fill="#000000" text-anchor="start" style="white-space: pre;" direction="ltr"> intent</text></g><g transform="translate(126 10) rotate(0 48.5 32)"><path d="M77.20390295670555 7.33868846707966 C84.57621778104824 10.02356799262831, 90.53096099112292 13.45263263435988, 93.77494125572474 19.073181813821495 C97.01892152032656 24.69373099328311, 99.28784954049779 34.543610540308165, 96.66778454431645 41.06198354384935 C94.0477195481351 47.58035654739054, 85.2920382097386 54.28742086011134, 78.05455127863667 58.18341983506862 C70.81706434753472 62.0794188100259, 62.45104649274579 63.98873088321089, 53.242862957704794 64.43797739359302 C44.0346794226638 64.88722390397514, 30.813893313805032 64.22901286182285, 22.805450068390712 60.87889889736138 C14.79700682297639 57.52878493289991, 8.800503882858079 50.052941736810006, 5.192203485218862 44.33729360682419 C1.5839030875796438 38.621645476838374, -0.5438306419207113 32.616212875060434, 1.1556476825554043 26.5850101174465 C2.8551260070315196 20.553807359832568, 8.859530507240265 12.665497455515089, 15.389073432075556 8.150077061140589 C21.918616356910846 3.634656666766089, 31.179149062138396 0.4371458094411196, 40.332905231567146 -0.5075122488004986 C49.4866614009959 -1.4521703070421168, 61.686843135154334 -1.1207820888141105, 70.31161044864805 2.48212871169088 C78.93637776214177 6.08503951219587, 88.32949922356188 14.61556694761651, 92.08150911252946 21.109952554229444 C95.83351900149704 27.604338160842378, 92.92237224309204 41.41631286260929, 92.82366978245349 41.44844235136847 M58.95364961136228 1.076312008042013 C67.51549457751912 1.6723332712143297, 77.1409303433245 7.13035753035155, 83.19735611065309 11.154129008510488 C89.25378187798168 15.177900486669426, 93.59014708525103 18.80471673913815, 95.29220421533387 25.21894087699564 C96.9942613454167 31.633165014853127, 97.53440971383583 43.58864525808585, 93.40969889115006 49.63947383565541 C89.28498806846429 55.69030241322497, 78.87058915506108 58.85619742354028, 70.54393927921922 61.52391234241303 C62.21728940337735 64.19162726128577, 52.960828504236716 66.79277725221215, 43.449799636098845 65.6457633488919 C33.938770767960975 64.49874944557166, 20.99836009144109 58.94690010870549, 13.477766070392015 54.64182892249155 C5.957172049342939 50.336757736277605, -0.11549340417969844 45.524376106766965, -1.6737644901956088 39.81533623160823 C-3.232035576211519 34.10629635644949, -0.01189454263372447 26.088623693774956, 4.128139554296553 20.387589671539104 C8.26817365122683 14.686555649303251, 15.20161233350111 8.91395353813615, 23.166440091386054 5.609132098193118 C31.131267849270998 2.304310658250086, 45.66932675059135 1.8222013369947476, 51.917106101606215 0.5586610318809093 C58.16488545262108 -0.704879273232929, 59.78323155819259 -2.024661395760201, 60.65311619747524 -1.972109732489912 C61.523000836757895 -1.919558069219623, 58.02505065681768 -0.3936758870950203, 57.13641393730212 0.8739710115026433" stroke="#000000" stroke-width="1" fill="none"></path></g><g transform="translate(106.22222222222217 528.7222222222223) rotate(0 109 68)"><path d="M109.61706592142582 3.3890931457281113 C151.7978658569604 27.717762674912812, 183.91911132015287 48.78206089153886, 221.33877469599247 66.99335025250912 M109.7424489185214 -0.24825405329465866 C146.89292961858212 24.13107366450131, 180.94398880951107 48.768916595727205, 217.68252455443144 68.14276695996523 M220.77181531488895 67.29706500470638 C181.13254541449248 89.23998692847789, 147.49427815221247 117.29782588586212, 113.40760184824467 136.34881661832333 M216.89657675474882 69.65652848035097 C190.7555913052708 84.95772386305035, 165.56589929230512 99.8686377607286, 110.32333909720182 135.9015610292554 M107.81268836557865 136.2800948470831 C74.94092461667955 113.09337702579798, 39.24456424839795 93.40427699387075, -0.2521934360265732 71.37064956128597 M108.64609491080046 137.64743924885988 C72.38495783157647 110.08019559644164, 35.718975186571484 90.03535865694286, 0.5505107566714287 70.70473528653383 M-2.660217270255089 65.65214751660824 C44.62807473398746 40.66432767026126, 80.47818659476937 13.618993398547168, 113.85011149942875 0.7321889251470566 M1.5307983085513115 70.16515208035707 C29.518694705292585 50.35699829794466, 63.209718334451324 29.854267711937425, 108.83352195471525 0.9382760599255562" stroke="#000000" stroke-width="1" fill="none"></path></g><g><g transform="translate(213.9276993222528 662.1305644166026) rotate(0 -2.041971431454215 105.21798646307226)"><path d="M0.6979415528476238 -0.8633024923503398 C-0.057084741989937515 34.24607080014469, -3.21262810130997 174.54717864850772, -4.424669624419016 209.8744680481805 M-0.3947778612468391 1.297859753826633 C-1.2185838788345875 36.661236172048845, -4.1447248691918555 176.63409622202863, -4.7818844157560445 211.29927541849486" stroke="#000000" stroke-width="1" fill="none"></path></g><g transform="translate(213.9276993222528 662.1305644166026) rotate(0 -2.041971431454215 105.21798646307226)"><path d="M-15.91892505883459 184.7857604200891 C-12.027838654536913 189.912934425205, -6.989847490535208 201.67575762803983, -6.428172888915119 211.308387556796 M-14.084439798064865 183.22378303547714 C-12.0341592439135 190.5662162014229, -8.912869065661551 199.67844292887986, -3.9772008999540187 212.177266698082" stroke="#000000" stroke-width="1" fill="none"></path></g><g transform="translate(213.9276993222528 662.1305644166026) rotate(0 -2.041971431454215 105.21798646307226)"><path d="M4.598228853575682 185.19367918688894 C2.1564668705029577 190.3142231313236, 0.8589521525463208 201.9510848212968, -6.428172888915119 211.308387556796 M6.432714114345407 183.63170180227698 C2.477116856476542 190.80906163946378, -0.40494085639737953 199.80193076601404, -3.9772008999540187 212.177266698082" stroke="#000000" stroke-width="1" fill="none"></path></g></g><g transform="translate(116.46777382364564 746.5555555555558) rotate(0 127.09524884474423 124.58333333333326)"><path d="M128.74178282544017 -1.4012331776320934 C179.73518356179005 49.1435405690976, 230.22247825350846 99.87711108241311, 252.75893673727208 126.12127556279302 M127.42811269499362 0.42790003679692745 C172.73627779506288 43.38116612406066, 218.2994522962561 87.37296725464603, 253.67633348943585 125.7798992600292 M255.14065537283116 126.06153263524175 C212.08905264358586 170.30099673571377, 165.16526098948225 214.60988852026873, 126.39819375798106 248.37755817050726 M254.41417747976178 124.24715628288686 C210.6639343985358 168.84632914920695, 167.32358619484233 211.35315351952534, 127.24369270540774 249.45724940362066 M126.70889798924327 250.38150542850286 C82.97548780504924 201.42285318607458, 35.056438828151045 155.48267741793143, -1.8106753416359425 125.89058389142156 M128.0431669447571 248.8782570368299 C79.90701707277137 203.32176060351847, 32.938235994909576 155.75053018096833, 0.5123471114784479 124.50741817615926 M-1.0426652021706104 126.50802602246404 C48.483512258995326 78.97937948580831, 90.92103548096493 35.04380898036062, 126.0803815536201 -1.9020252041518688 M-0.33602105639874935 124.92758657597005 C35.160215926822275 90.33104910891502, 67.99643911188468 57.22173929870128, 127.75084442831576 -0.9886007700115442" stroke="#000000" stroke-width="1" fill="none"></path></g><g transform="translate(11 197.66666666666663) rotate(0 248.88888888888894 410.80555555555554)"><path d="M-0.0618075631562769 0.1792148833557664 C115.90935485913892 -0.8050370285798804, 231.39706444925025 0.7219799912365171, 497.46172499854094 1.332693453547149 M-0.7258826795422281 -0.07532018291576202 C156.7940202687663 -3.6800732798025857, 313.8786001021609 -3.540318892120148, 497.32068610786445 0.19563360757295772 M497.6351531194317 -1.434883028268814 C503.637667661013 236.61583903189748, 502.96039085895 476.04243389479814, 499.14062740074274 822.1252612478203 M497.3359638767111 -0.39881839454174045 C496.9365860508864 212.25773528063047, 497.25878921021865 425.9824560700605, 498.1542335109579 822.3058074451155 M496.31496592691525 821.0374261200334 C393.27284559275756 817.7975718183811, 287.6805985650879 819.626787661867, 1.2662894337280681 822.958750598733 M498.5770139828878 821.821927971537 C298.76124438491803 819.57630849222, 100.75124918082328 819.3488555251967, 0.21679423832876965 820.9597254791582 M-1.5547199189662935 820.1259026891655 C-5.450917963698507 537.185119453176, -4.308724550917745 255.63700589492086, -0.6533349931240082 -1.1334530889987946 M0.20436739623546601 821.0296947932906 C-2.638164244047469 539.3254728187082, -2.4818485358870688 257.5341445208838, 0.4562246769666672 0.02138185799121857" stroke="#000000" stroke-width="1" fill="none"></path></g><g transform="translate(140.22222222222217 582.7222222222223) rotate(0 73 13)"><text x="0" y="18" font-family="Virgil, Segoe UI Emoji" font-size="20px" fill="#000000" text-anchor="start" style="white-space: pre;" direction="ltr">Intent mempool</text></g><g><g transform="translate(212.75211044171732 454.11934095084155) rotate(0 -1.7312425622579894 34.96255937844225)"><path d="M0.3652193173766136 0.7016690865159032 C-0.183993580721735 11.67785983885231, -1.6955278634176603 56.401145921394345, -2.386867734986061 67.69953363417997 M-2.881042980998755 -1.3857357908785346 C-3.7526171433259243 9.903202705382332, -3.3827115478759953 59.07751343309395, -3.8277044418926174 71.31085454776301" stroke="#000000" stroke-width="1" fill="none"></path></g><g transform="translate(212.75211044171732 454.11934095084155) rotate(0 -1.7312425622579894 34.96255937844225)"><path d="M-12.734338809691165 45.09240274075844 C-10.117294242912363 52.485888234510554, -5.6910201284640225 60.92818795632779, -6.0926296982641155 69.10380423917785 M-11.975037363312934 41.332520864349384 C-12.73624292735202 51.56295896684888, -6.849018455175267 57.68156022843264, -4.338457350778096 72.75718973680749" stroke="#000000" stroke-width="1" fill="none"></path></g><g transform="translate(212.75211044171732 454.11934095084155) rotate(0 -1.7312425622579894 34.96255937844225)"><path d="M7.785280976858354 45.347757790218616 C3.577356987123493 52.70988195892654, 1.1820229976646255 61.06729063047621, -6.0926296982641155 69.10380423917785 M8.544582423236585 41.58787591380956 C1.901878672248348 51.807472887991324, 1.902765865508214 57.85282201514799, -4.338457350778096 72.75718973680749" stroke="#000000" stroke-width="1" fill="none"></path></g></g><g transform="translate(223.16666666666652 471.5) rotate(0 34 13)"><text x="0" y="18" font-family="Virgil, Segoe UI Emoji" font-size="20px" fill="#000000" text-anchor="start" style="white-space: pre;" direction="ltr">accept</text></g><g transform="translate(184.55555555555543 201.83333333333337) rotate(0 156.5 23)"><text x="0" y="32" font-family="Virgil, Segoe UI Emoji" font-size="36px" fill="#000000" text-anchor="start" style="white-space: pre;" direction="ltr">Orderbook node A</text></g><g transform="translate(226.310942322787 789.2726772424948) rotate(0 46 26)"><text x="46" y="18" font-family="Virgil, Segoe UI Emoji" font-size="20px" fill="#000000" text-anchor="middle" style="white-space: pre;" direction="ltr">Public</text><text x="46" y="44" font-family="Virgil, Segoe UI Emoji" font-size="20px" fill="#000000" text-anchor="middle" style="white-space: pre;" direction="ltr">filter list</text></g><g transform="translate(147.52394315492552 871.6351575456055) rotate(0 73.2624378109453 13.75995024875624)"><path d="M1.4938892852514982 -0.4703116249293089 C51.77187607688112 2.170716248892308, 101.67994213791992 2.970106505297185, 147.2032386005129 1.2593410778790712 M-0.4255410647019744 0.7072657709941268 C56.49502297827155 -0.2814374287265464, 112.7978893054858 -0.9010016937392875, 146.19814585579738 0.42746091540902853 M144.6505085170473 -1.5745178889483213 C146.81630789708035 8.457889230080198, 146.04038088988202 17.847308144152663, 147.73636274935856 27.215030504853935 M145.9293868435751 -0.8388180667534471 C146.1070426609747 7.471656011062816, 146.1003809776537 15.639436569286794, 145.96576776040897 26.82431891886285 M146.7216728270258 27.11778958001873 C110.40166621122404 28.002125851971563, 68.97382382576897 25.100904993874487, 1.2711291443556547 26.19482768932125 M147.44837440980777 27.72989204851678 C92.73608188224814 27.663140817984992, 38.70571322096049 28.294547393426352, -0.610454729758203 28.259640339293988 M0.9824676644057035 28.216529025228233 C-1.1605319646709085 20.04370064776024, 0.09856376372646097 9.647439729398695, -1.8383286464959383 -1.9620950054377317 M-0.27125780936330557 27.634184721389325 C0.3948907261447685 18.98865689006124, 0.4099937980727928 12.169368644609618, -0.9449732517823577 -0.8038367861881852" stroke="#000000" stroke-width="1" fill="none"></path></g><g transform="translate(219.7222222222224 684.0555555555555) rotate(0 44.5 13)"><text x="0" y="18" font-family="Virgil, Segoe UI Emoji" font-size="20px" fill="#000000" text-anchor="start" style="white-space: pre;" direction="ltr">try_send</text></g><g transform="translate(153.47419191114454 878.9697346600325) rotate(0 67.31218905472633 8.925373134328368)"><text x="67.31218905472635" y="11.85074626865671" font-family="Helvetica, Segoe UI Emoji" font-size="14.87562189054726px" fill="#c92a2a" text-anchor="middle" style="white-space: pre;" direction="ltr">B_public_filter.wasm</text></g><g transform="translate(34.5 1580.5) rotate(0 109 68)"><path d="M109.1857104562223 -2.5705676935613155 C141.2392153678648 22.324385800305755, 183.76851520633323 48.36575510855764, 215.9527329467237 69.37207129970193 M111.95459880121052 -1.5612667668610811 C142.74034915247933 21.93924606902525, 176.67422357963397 42.545914550535386, 216.11782618053257 70.5875604879111 M221.46430769190192 70.59659579768777 C177.98768337996677 93.35988027980551, 144.63562015810982 112.49390413943678, 108.07181098684669 132.3881460763514 M216.0220348406583 70.64379341714084 C194.7681751446985 81.50895631538704, 171.9340818135254 93.11787773493677, 109.4311900306493 134.9739694725722 M110.05692699179053 139.92282072082162 C71.56587425554171 108.99670206783338, 37.27322104973719 90.05704769417642, 1.0267616771161556 71.81291607394814 M110.30346204526722 136.41638709418476 C80.39483266709372 119.5137513355352, 52.478480680976055 101.47756116949022, -1.387341184541583 68.65368099324405 M0.9551455043256283 70.82863930240273 C25.434656297769397 54.015069471765315, 50.258662709016356 34.675053323060276, 106.49275591596961 -2.1791802309453487 M-0.6334315966814756 68.62339658848941 C35.51795707287267 45.972794316615904, 70.64543482026085 24.331210229918355, 110.29437364824116 1.7103742491453886" stroke="#000000" stroke-width="1" fill="none"></path></g><g transform="translate(10 1150) rotate(0 297.6111111111111 454.9999999999998)"><path d="M-0.05717800706624985 1.5604209050536157 C167.92709371525174 3.7918462913541324, 333.0480002642299 4.71223627739234, 594.7160667924417 -0.6287509337067605 M-0.018885535746812822 0.37630396559834484 C236.5064221648396 -0.971665713907116, 474.1104217294396 0.23412859666264724, 595.9544119304253 -0.4705953292548657 M595.9171192674173 0.9752686128020287 C596.9192351407391 351.0417243855073, 596.6832850045545 702.1057006049899, 594.4510169057382 908.7481680020685 M595.4082954829765 -0.4576301269233227 C600.5417735449058 182.7750612622126, 600.7952180496437 366.1973347131161, 595.9809580987526 909.3394959993656 M593.8312075643075 909.9314478024836 C415.52532399848303 908.6000562660582, 237.51984479056878 907.498073815573, 0.9302990570664407 910.8657836541529 M595.033651465757 909.901014668494 C407.1032508045745 908.0675369097064, 219.88762599178068 908.1565633369754, -0.34385690167546273 910.0834992237385 M0.7704872742295266 908.5912143334742 C-3.6210323762148606 613.8675421429795, -4.1997956227511155 320.85730836801207, 0.735320581495762 0.25978938192129136 M-0.2421584077179432 910.3715010471637 C1.2978840810805552 665.9388871083032, 2.0549861175566906 422.2324274968354, -0.7632106967270375 0.6564582891762257" stroke="#000000" stroke-width="1" fill="none"></path></g><g><g transform="translate(134.04375885820264 1474.3305064222286) rotate(0 4.764078184205459 54.14443897083413)"><path d="M2.730736583843827 2.5856387253850697 C3.705188202282848 19.76851545808219, 2.7996045029216132 86.45297584272936, 3.1355145818505434 102.99719888381678 M0.7686122301220895 1.5209602233767514 C2.9256683466296023 19.21889655356609, 8.381803512504014 89.60803406144197, 8.75954413828887 106.76791771829147" stroke="#000000" stroke-width="1" fill="none"></path></g><g transform="translate(134.04375885820264 1474.3305064222286) rotate(0 4.764078184205459 54.14443897083413)"><path d="M0.657628157483126 77.13692717638361 C-0.2872365856008505 84.81205351700795, 0.4718518843598942 88.59069757622234, 12.668741740709915 103.64538418456931 M-3.6143329559548842 77.30202041019248 C2.1313006960747827 88.60739701488288, 5.9671194719442475 94.70045664465229, 10.491697984239831 107.56621561713536" stroke="#000000" stroke-width="1" fill="none"></path></g><g transform="translate(134.04375885820264 1474.3305064222286) rotate(0 4.764078184205459 54.14443897083413)"><path d="M21.147770035645713 76.0081720219735 C16.03908358120549 84.31229492787602, 12.635157089437417 88.32026998069108, 12.668741740709915 103.64538418456931 M16.875808922207703 76.17326525578237 C16.379718108687797 88.01521789999163, 13.974345347653136 94.4520905281693, 10.491697984239831 107.56621561713536" stroke="#000000" stroke-width="1" fill="none"></path></g></g><g transform="translate(155.33333333333348 1501.3333333333335) rotate(0 34 13)"><text x="0" y="18" font-family="Virgil, Segoe UI Emoji" font-size="20px" fill="#000000" text-anchor="start" style="white-space: pre;" direction="ltr">accept</text></g><g transform="translate(25 1431.8333333333335) rotate(0 118 18.277777777777715)"><path d="M0.1562642159767948 0.10655341586223019 C93.28476463525539 0.35442407518569174, 189.27421949045544 -0.2968276484800463, 236.0771905225297 -0.039658170882054415 M0.6667509564911502 0.4755535843177955 C82.66973798946066 1.3714353063333848, 164.52941191043254 2.200815107857607, 235.4279285158454 0.36480757195930885 M234.19407303817573 -1.9003742206841707 C234.7598180894316 11.630094541557508, 233.74585957569488 28.033562495083366, 235.5520388055593 37.02073870744131 M235.48698473628613 0.2402052665129304 C236.6450742075127 8.049921224794014, 235.71088610979731 18.73180763137832, 235.61975369509312 35.686171394358794 M237.18138143215072 35.82974050112925 C167.18792310676656 37.97343948861135, 96.67718859811441 37.41415231881371, -0.48598653024939664 36.15957148692678 M235.85455135047525 36.0663679442172 C167.75903077114484 35.26814436517158, 100.44070776011466 35.564473567947786, -0.3679555884943943 36.96004654264591 M-1.0895901154726744 36.95109157409094 C0.9860722617877438 29.13230953494906, -0.5665100617634342 20.68298664802886, 0.9767229724675417 -0.605396019294858 M0.8551871245726943 37.293245804082076 C-0.9206782058905811 24.711908354289342, -0.09406880299560738 11.310175434831077, -0.6105107897892594 0.03366608265787363" stroke="#000000" stroke-width="1" fill="none"></path></g><g transform="translate(189 1167.3888888888891) rotate(0 157.5 46)"><text x="0" y="32" font-family="Virgil, Segoe UI Emoji" font-size="36px" fill="#000000" text-anchor="start" style="white-space: pre;" direction="ltr">Orderbook node B</text><text x="0" y="78" font-family="Virgil, Segoe UI Emoji" font-size="36px" fill="#000000" text-anchor="start" style="white-space: pre;" direction="ltr">with matchmaker</text></g><g><g transform="translate(266.6590621671555 1442.7014769451257) rotate(0 51.43523406117208 -0.7910624823745138)"><path d="M1.1727592807263136 -0.9367600601166486 C18.326220200878208 -1.3194931813586739, 85.56153103074344 -2.4096638498251575, 102.541148948576 -2.767961927732222 M0.3293191737681629 1.185836962983012 C17.362799839746774 1.0462546433996174, 84.58008621072682 -0.7225708722119466, 101.62205099230601 -1.2454090359115524" stroke="#000000" stroke-width="1" fill="none"></path></g><g transform="translate(266.6590621671555 1442.7014769451257) rotate(0 51.43523406117208 -0.7910624823745138)"><path d="M72.1667284766723 9.888301698447702 C81.20996858524803 7.501316786672936, 88.16478715751175 1.7151435158293689, 103.20961148021712 -0.11309707895456977 M74.12714419295533 9.115342396268186 C85.14844301433723 5.8412317764251585, 94.87982200733714 0.4265096635868808, 100.71908751139387 -2.1955961462536377" stroke="#000000" stroke-width="1" fill="none"></path></g><g transform="translate(266.6590621671555 1442.7014769451257) rotate(0 51.43523406117208 -0.7910624823745138)"><path d="M71.59515666891426 -10.624945437352512 C80.71117603837958 -7.512472890001849, 87.81938464209532 -7.793602733868742, 103.20961148021712 -0.11309707895456977 M73.55557238519728 -11.397904739532027 C84.67998714467456 -6.645542915827821, 94.6351500543943 -4.028842333593638, 100.71908751139387 -2.1955961462536377" stroke="#000000" stroke-width="1" fill="none"></path></g></g><g transform="translate(279.16666666666697 1394.1944444444448) rotate(0 31 13)"><text x="0" y="18" font-family="Virgil, Segoe UI Emoji" font-size="20px" fill="#000000" text-anchor="start" style="white-space: pre;" direction="ltr">decline</text></g><g transform="translate(177.77777777777806 1050.8888888888887) rotate(0 29 13)"><text x="0" y="18" font-family="Virgil, Segoe UI Emoji" font-size="20px" fill="#000000" text-anchor="start" style="white-space: pre;" direction="ltr">gossip</text></g><g transform="translate(343.16666666666697 1620.1666666666665) rotate(0 120.69444444444446 23.75)"><path d="M-0.5734270311902518 -1.3812265846509877 C86.71241753196028 -2.1639128239611276, 176.43706584794322 0.2627954860763062, 241.90751811423283 -1.2249994242530409 M0.7432022385807363 -0.2555054692765353 C88.21938831065242 -1.359182223208091, 175.7515250369323 -0.9313363399849449, 241.57043547373326 -0.15370497820695023 M241.02495313332315 0.457143085077405 C240.6014195701237 11.293845307780431, 241.21770256963924 23.619334227871153, 242.597984260776 47.742696361616254 M241.9465186911532 -0.6518149012699723 C242.00493800022073 11.40504999482073, 242.4488540528006 24.017494076397274, 240.8824843781897 46.847864038310945 M242.30330370140683 48.5119230518216 C152.1106860266455 45.675517918446374, 62.201803889994906 48.25900946988167, 1.4524850189917924 48.369187752819364 M240.69698574323135 47.672759963613466 C192.20949297770147 45.11081492144042, 144.7718993672953 45.64957942429057, -0.7666634489548774 47.06371349911092 M-0.934083865955472 46.33770646341145 C-0.9004335959674791 29.165231741266325, 2.1135430375812576 11.444068130571395, -0.8046905864030123 0.7807037401944399 M-0.8636626815423369 47.63869926985353 C-1.221909421752207 30.20329831331037, -0.9678375006420538 13.052175272721797, 0.039879986084997654 -0.9531916910782456" stroke="#1864ab" stroke-width="1" fill="none"></path></g><g><g transform="translate(263.40094891252255 1649.3704072164464) rotate(0 34.80386380788123 -2.447585552618193)"><path d="M-0.09740222878754135 -0.10298580341041097 C11.501712917971732 -0.614833764553191, 57.489706724823115 -2.5621719530230846, 68.93800133020055 -2.932372956768404 M-1.6076771282404663 -1.2026572955399752 C10.428451878267646 -2.0884813204110877, 59.13568236896455 -4.311853601784119, 71.21540474400294 -4.79218530182613" stroke="#1864ab" stroke-width="1" fill="none"></path></g><g transform="translate(263.40094891252255 1649.3704072164464) rotate(0 34.80386380788123 -2.447585552618193)"><path d="M43.32719197467554 5.308346581623445 C51.1179366738523 1.9390023032657142, 58.9297776764661 0.308835775311727, 71.88502139665556 -5.726745107144843 M43.34935410943467 7.096753539495657 C50.55690310720885 4.3483249088620495, 59.17284408765858 1.1245996505165046, 72.1800158952586 -4.047303039514254" stroke="#1864ab" stroke-width="1" fill="none"></path></g><g transform="translate(263.40094891252255 1649.3704072164464) rotate(0 34.80386380788123 -2.447585552618193)"><path d="M42.432397639893495 -15.193344701884888 C50.466312867164845 -13.533392506376305, 58.497625329432566 -10.134988851818267, 71.88502139665556 -5.726745107144843 M42.45455977465262 -13.404937744012676 C50.092954855508886 -10.135126127957674, 58.971233314997505 -7.348127135730852, 72.1800158952586 -4.047303039514254" stroke="#1864ab" stroke-width="1" fill="none"></path></g></g><g transform="translate(372.33333333333326 1416.2777777777783) rotate(0 109.58333333333337 17.5)"><path d="M-0.6569057967755253 1.262647848611688 C77.78642573761049 0.17074774740271614, 155.5372121631651 -0.6635512216078157, 219.4471229168316 0.15455970799854954 M0.4075751121911583 -0.64174142059544 C56.191541705319736 -1.1055663361949244, 111.11262782465052 0.05560552248207529, 219.87848215315907 0.06458047095679957 M218.31671726020681 0.09220077283680439 C217.71317783437365 7.3638673587702215, 220.60089180312747 16.329642907716334, 219.8993537953745 34.54038985259831 M218.93935872955876 -0.3814321393147111 C219.1543716047115 7.00225655687973, 218.706407621891 14.61034768074751, 218.2895280603941 34.64233661349863 M219.70539102178304 33.67442581902096 C170.9648535800936 34.3546597477035, 121.9254136449292 36.06569671106983, -0.5033882707452829 33.75656685444466 M218.67075185446515 35.14470621649625 C145.4579406338435 34.7054611397412, 73.81070069717546 34.279713191989295, 0.6545131452962039 34.557290593058646 M-1.0211259592324495 36.22882189042866 C0.44554523709230126 21.035982238594443, 1.541987996129319 5.702900963835415, 1.050978196784854 -0.23146299831569195 M-0.06769069191068411 35.50261077936739 C-0.41249010316096246 26.099915264640003, -0.05347204557619989 17.42375840805471, 0.9905341351404786 0.07323736604303122" stroke="#000000" stroke-width="1" fill="none"></path></g><g transform="translate(397.33333333333326 1420.6111111111113) rotate(0 92.5 13)"><text x="0" y="18" font-family="Virgil, Segoe UI Emoji" font-size="20px" fill="#000000" text-anchor="start" style="white-space: pre;" direction="ltr">lower node A score</text></g><g transform="translate(321.50000000000045 1784.5000000000005) rotate(0 82.5 12)"><text x="0" y="17" font-family="Helvetica, Segoe UI Emoji" font-size="20px" fill="#c92a2a" text-anchor="start" style="white-space: pre;" direction="ltr">matchmaker.wasm</text></g><g transform="translate(123.83333333333326 401.44444444444457) rotate(0 95.83333333333326 25.416666666666686)"><path d="M-1.9544421266764402 1.1241032015532255 C68.45956047639866 1.8860625058878204, 132.66471794092396 2.1317419440019867, 189.77570521521056 1.3997767698019743 M-0.4118511909618974 -0.4688389217481017 C64.16076977876942 0.18085374908211405, 126.50399678945533 -1.521181469395135, 192.2599093780541 0.41892138961702585 M190.3533757893988 -1.8639365900307894 C193.86599943455448 14.877236012602237, 191.4339996915697 29.819166595581944, 193.50799911903823 49.79214176846051 M191.1919183597588 -0.5755227422341704 C192.76887752130457 16.146473605263374, 192.7328885050101 33.80234694403289, 191.7126439378285 50.20218959295505 M192.62013929771865 51.91070685101056 C134.90399799852932 51.42367085635976, 73.94934847485268 49.86843553006963, -1.1622726153582335 50.77191737604642 M192.4410167500996 51.48621073209995 C139.0542935975826 49.489244388649276, 87.85046896648896 50.66444267542105, -0.5051190787926316 50.230280934212146 M0.02291138656437397 52.78887418222928 C-0.3102903613587843 34.74685008055533, -2.0462947735330093 20.53485642016556, -0.1602605413645506 0.06340779177844524 M-0.011388295330107212 51.10892945372814 C-0.21677656722410232 33.77038756315599, 0.6153317217792699 17.294250495887063, 0.10776982363313437 0.15715659502893686" stroke="#000000" stroke-width="1" fill="none"></path></g><g transform="translate(301.66666666666697 1936.0000000000005) rotate(0 97.75 22.08333333333337)"><path d="M0.9834268819540739 -1.0009811948984861 C64.74797816681675 0.7842492326395587, 124.53848274452612 1.7041038139956073, 196.11650515906513 -0.6794667672365904 M-0.5874079084023833 -0.767146491445601 C71.9900709422771 1.8965115738241003, 145.26851662797856 1.6161597264138983, 196.0677712643519 0.8867015307769179 M195.82955266349018 -0.16338066570460796 C197.0321953503027 13.093840744734454, 196.48046954549693 25.85321555177996, 196.29504175297916 45.627124723667976 M195.1033793175593 0.7230379050597548 C195.62531229249046 17.183165406730676, 195.73064058414505 34.64580202552806, 195.59096453431994 45.11570282435673 M197.39866848103702 42.792914804692145 C118.40247908947057 45.78737936677574, 43.12401545168831 45.359894318004834, 1.9360093008726835 45.27162909197318 M196.28760621789843 44.706410841705974 C120.79803084000014 44.10344677387899, 46.40670012915507 44.03219564973539, 0.9297715509310365 43.1692016587283 M0.5244535338133574 44.06319737123954 C1.771228780325813 32.97153965841674, 0.5692229767407607 24.496903506262885, 1.2773838769644499 0.5971249509602785 M-0.31045352574437857 44.26452545976895 C-0.07936462912863712 31.83391297119675, -0.2131358400375269 17.714586455219766, -0.4405574416741729 -0.14826705399900675" stroke="#1864ab" stroke-width="1" fill="none"></path></g><g transform="translate(308.00000000000045 1944.166666666667) rotate(0 83.5 13)"><text x="0" y="18" font-family="Virgil, Segoe UI Emoji" font-size="20px" fill="#1864ab" text-anchor="start" style="white-space: pre;" direction="ltr">wrap transaction</text></g><g><g transform="translate(403.28500119108605 1866.3993121121816) rotate(0 -0.3713510104122406 32.16084624121822)"><path d="M1.0160104114562272 -0.16142859645187846 C0.9636375815190735 10.769913117130983, -0.4547180813958923 53.804570988517945, -1.062782821123085 64.53173522712522 M0.09027714813128118 -1.2917825549282134 C-0.01259990074183892 9.86040690061613, -1.6919999151153544 54.5831755163602, -1.7587124322807108 65.61347503736475" stroke="#1864ab" stroke-width="1" fill="none"></path></g><g transform="translate(403.28500119108605 1866.3993121121816) rotate(0 -0.3713510104122406 32.16084624121822)"><path d="M-11.615031604717892 37.98702054258588 C-10.764696292493856 42.04467051936612, -9.036854843994714 49.39755720449995, -2.2397482441072976 65.53380235619703 M-12.127559021178108 37.776100591497155 C-10.294492479181297 42.306423201965345, -6.811762627855733 48.68514396125775, -1.6637403219273006 66.01221390683064" stroke="#1864ab" stroke-width="1" fill="none"></path></g><g transform="translate(403.28500119108605 1866.3993121121816) rotate(0 -0.3713510104122406 32.16084624121822)"><path d="M8.90037298536788 38.47505424114266 C4.880109631139909 42.59043594680945, 1.7330564353301563 49.82735548867346, -2.2397482441072976 65.53380235619703 M8.387845568907665 38.26413429005393 C5.9974765784330515 42.67779377701192, 5.25402554181145 48.955979414978394, -1.6637403219273006 66.01221390683064" stroke="#1864ab" stroke-width="1" fill="none"></path></g></g><g transform="translate(342.00000000000045 1826.3333333333335) rotate(0 55.5 13)"><text x="0" y="18" font-family="Virgil, Segoe UI Emoji" font-size="20px" fill="#1864ab" text-anchor="start" style="white-space: pre;" direction="ltr">craft data</text></g><g><g transform="translate(402.9033456219755 1984.8333333333335) rotate(0 0.6750118974310624 82.17620711943425)"><path d="M-0.7310843389481305 -0.5721253652125596 C-0.18999279005784142 27.083666526098764, 1.588555174397511 137.4750003830578, 2.081108133810261 164.92453960408102 M1.0859576537646354 1.741904872711748 C1.547947399948206 29.114578308017023, 0.9431598866937881 135.75906763665859, 0.9947229780616851 163.0066864645725" stroke="#1864ab" stroke-width="1" fill="none"></path></g><g transform="translate(402.9033456219755 1984.8333333333335) rotate(0 0.6750118974310624 82.17620711943425)"><path d="M-10.162391072138448 134.35604135934486 C-6.726335602001671 140.3802880360002, -5.988618684858068 146.65665415424453, 1.7524675455304475 164.0947027492022 M-8.695416823960144 134.66997517422064 C-5.72165793411709 141.70561754258912, -3.2893330434174315 150.98788463920772, 0.36926215126986217 163.3871163964888" stroke="#1864ab" stroke-width="1" fill="none"></path></g><g transform="translate(402.9033456219755 1984.8333333333335) rotate(0 0.6750118974310624 82.17620711943425)"><path d="M10.35877556263386 134.39754236833338 C9.631848102208405 140.28834679476506, 6.206232715400954 146.55629319231596, 1.7524675455304475 164.0947027492022 M11.825749810812162 134.71147618320916 C9.018525001208825 141.83830127944412, 5.66995992675487 151.10887738545406, 0.36926215126986217 163.3871163964888" stroke="#1864ab" stroke-width="1" fill="none"></path></g></g><g transform="translate(262.3333333333337 2155.722222222223) rotate(0 157.08333333333326 99.16666666666674)"><path d="M121.11966277309486 2.1014963994841764 C136.88171573310794 -2.0984058660020013, 157.58558269109758 -1.4921770456248116, 175.15315931228105 -0.09391491171028576 C192.7207359334645 1.30434722220424, 210.8456461086539 5.526634259716492, 226.5251225001956 10.491069202971332 C242.2045988917373 15.455504146226172, 257.0985666088635 21.642291814214374, 269.2300176615312 29.69269474781875 C281.36146871419885 37.74309768142312, 291.8210386517307 48.479517719053945, 299.31382881620175 58.79348680459756 C306.8066189806728 69.10745589014118, 312.6131491942892 80.6270903996024, 314.18675864835757 91.57650926108047 C315.76036810242596 102.52592812255855, 313.3988421912305 113.7731606612471, 308.7554855406121 124.48999997346608 C304.1121288899937 135.20683928568505, 296.40924121148737 146.5889964762883, 286.32661874464713 155.87754513439432 C276.2439962778069 165.16609379250036, 262.5845555298425 173.64352049417636, 248.25975073957056 180.2212919221023 C233.93494594929865 186.79906335002823, 217.39264128398327 192.29406977858446, 200.37779000301558 195.34417370195 C183.3629387220479 198.39427762531557, 163.758194376242 199.50158804404393, 146.17064305376448 198.52191546229562 C128.58309173128697 197.54224288054732, 110.82259636292503 193.86063148601812, 94.85248206815054 189.46613821146022 C78.88236777337605 185.07164493690232, 63.27423941285211 179.81509664250945, 50.34995728511751 172.15495581494812 C37.42567515738291 164.4948149873868, 25.333738722376857 153.3811749437752, 17.306789301742924 143.50529324609226 C9.27983988110899 133.62941154840934, 4.4798183323133856 123.71768483505907, 2.1882607613138987 112.8996656288506 C-0.10329680968558819 102.08164642264212, -0.006998666842174206 89.5684479514374, 3.557443875746003 78.59717800884138 C7.12188641833418 67.62590806624536, 14.3765601511767 56.61634004955422, 23.574916016842963 47.07204597327448 C32.77327188250923 37.52775189699474, 45.02288740756058 28.46564355132826, 58.74757906974358 21.331413551162925 C72.47227073192659 14.19718355099759, 94.63575490229394 7.663378735562034, 105.92306598994097 4.266665972282468 C117.21037707758799 0.869953209002901, 122.14277303503779 1.0387146873823856, 126.47144559562574 0.9511369714855249 C130.8001181562137 0.8635592555886641, 131.4085095426026 2.0048549794657617, 131.89510135346868 3.741199676901303 M140.1412302893304 -0.6185447445152334 C156.28860805323046 -3.2215125108696867, 175.535711075404 1.2364636290477051, 192.77504506899453 3.8662037073377604 C210.01437906258505 6.495943785627816, 228.69746612755534 9.303532212993346, 243.57723425087354 15.159895725225098 C258.45700237419175 21.01625923745685, 271.4296899811462 30.10936895411161, 282.0536538089037 39.00438478072828 C292.6776176366611 47.89940060734495, 302.11006141801556 57.75610322389805, 307.3210172174181 68.52999068492512 C312.53197301682064 79.3038781459522, 314.1519867059835 92.39636581327481, 313.31938860531886 103.64770954689071 C312.4867905046542 114.8990532805066, 308.5909150098691 125.69792384819557, 302.3254286134303 136.0380530866205 C296.0599422169915 146.3781823250454, 287.4401296003437 157.37387073273578, 275.72647022668616 165.68848497744023 C264.0128108530286 174.00309922214467, 247.794506179703 180.7255029104163, 232.04347237148488 185.9257385548472 C216.29243856326676 191.12597419927806, 198.19020445119907 195.14353153317086, 181.22026737737747 196.88989884402545 C164.25033030355587 198.63626615488005, 147.25680224146788 198.5181497874891, 130.22384992855535 196.4039424199748 C113.19089761564283 194.28973505246051, 94.72265496819841 189.51913579972256, 79.02255349990226 184.2046546389397 C63.32245203160611 178.89017347815684, 47.35142828591773 172.72237015563368, 36.02324111877846 164.51705545527756 C24.69505395163919 156.31174075492143, 16.895800919943714 145.57710861314925, 11.053430497066643 134.97276643680289 C5.211060074189571 124.36842426045652, 1.652326674895955 112.22697399061312, 0.9690185815160248 100.89100239719934 C0.28571048813609445 89.55503080378557, 1.1896142145417228 77.71473850097212, 6.95358193678706 66.95693687632023 C12.717549659032397 56.19913525166833, 24.3017139976806 45.11455830766531, 35.55282491498805 36.34419264928796 C46.8039358322955 27.57382699091061, 59.712264169359365 20.14380641454647, 74.46024744063175 14.334742926056137 C89.20823071190412 8.525679437565802, 113.46163783563719 3.8414417048041116, 124.04072454262234 1.4898117183459618 C134.6198112496075 -0.861818268112188, 135.197205920902 -0.16705442808273574, 137.93476768254266 0.22496300730723817 C140.6723294441833 0.6169804426972121, 140.19457705048302 2.1347267698432875, 140.46609511246618 3.8419163306858053" stroke="#000000" stroke-width="1" fill="none"></path></g><g transform="translate(330.6666666666672 2236.722222222223) rotate(0 75 13)"><text x="0" y="18" font-family="Virgil, Segoe UI Emoji" font-size="20px" fill="#000000" text-anchor="start" style="white-space: pre;" direction="ltr">Ledger network</text></g><g transform="translate(430.6666666666672 2078.6666666666674) rotate(0 21.5 13)"><text x="0" y="18" font-family="Virgil, Segoe UI Emoji" font-size="20px" fill="#1864ab" text-anchor="start" style="white-space: pre;" direction="ltr">send</text></g><g transform="translate(102.16666666666674 280.3333333333336) rotate(0 80 19.16666666666663)"><path d="M-0.6905943024903536 0.32242448814213276 C33.28598841838539 -0.9404595341533422, 67.19239406101406 -1.4408148374408483, 159.47450645081696 1.9008873868733644 M0.9325531804934144 -0.7254244023934007 C60.919086181558654 0.30477886404842125, 124.43345979694274 1.163899024389684, 159.26189140323547 0.7599255805835128 M158.12394006364045 0.7108119893819094 C159.32319059336245 11.904509136298026, 158.93499132359088 26.04707598841434, 159.71868063323197 38.766180075084094 M159.87483862880615 0.33545110281556845 C160.27745223310774 15.87041426372401, 159.14484355119055 30.94478229371204, 160.90740198735145 37.53466477648658 M161.88515831343827 36.810281313334826 C121.23446339182553 36.993050756429554, 81.06864510290323 38.103973987077595, 1.4868702422827482 39.0467985638727 M159.71580667141822 38.03716936366004 C114.42787294927982 36.44592432485265, 68.85216704849152 37.15104706392926, 0.7141989255324006 37.42966770784301 M0.24900527112185955 38.06677565661562 C1.0516908145043997 30.12913538468996, 0.47842150689102697 21.579451732026993, -0.09818302281200886 0.6073058415204287 M-0.7470268225297332 38.60158300058288 C0.5293501846026631 27.461240586048554, 0.730701082153246 18.788220521062573, -0.8004753505811095 0.25435209926217794" stroke="#2b8a3e" stroke-width="1" fill="none"></path></g><g transform="translate(118.83333333333326 286.3333333333336) rotate(0 58.5 13)"><text x="0" y="18" font-family="Virgil, Segoe UI Emoji" font-size="20px" fill="#2b8a3e" text-anchor="start" style="white-space: pre;" direction="ltr">RPC socket</text></g><g><g transform="translate(171.33333333333326 84.50000000000023) rotate(0 -0.2174542032089164 92.9715444884263)"><path d="M-0.06687776260077949 -0.25647850222885604 C0.0310334164649249 30.864046178385614, 1.0293609697371724 154.93337018303572, 1.1262189108878375 186.4130474667996 M-1.5611273173056543 -1.436733661238104 C-1.5698340580426158 29.820184224899855, 0.5061566098965706 155.9957163173519, 0.769438375476748 187.3798226380907" stroke="#000000" stroke-width="1" fill="none"></path></g><g transform="translate(171.33333333333326 84.50000000000023) rotate(0 -0.2174542032089164 92.9715444884263)"><path d="M-10.277205521512375 161.199181017967 C-8.071322288073787 169.8621630508951, -0.7279135991862766 180.08070261276765, 0.3157541814632716 187.59009341357276 M-10.076669101874874 159.29269333978934 C-5.25195081828687 171.09919240865776, -0.7954608267667673 181.28963320440954, 0.6195697446726265 187.07114509234205" stroke="#000000" stroke-width="1" fill="none"></path></g><g transform="translate(171.33333333333326 84.50000000000023) rotate(0 -0.2174542032089164 92.9715444884263)"><path d="M10.242335234960645 160.93755240851874 C5.370435125967838 169.67933325730473, 5.636736565700496 179.9881074764967, 0.3157541814632716 187.59009341357276 M10.442871654598147 159.0310647303411 C7.081900180657174 170.8599775989188, 3.3504744440948064 181.15481610179478, 0.6195697446726265 187.07114509234205" stroke="#000000" stroke-width="1" fill="none"></path></g></g><g><g transform="translate(161.05786999170755 319.5000000000002) rotate(0 6.229659321298328 38.38718641846346)"><path d="M0.945526321604848 0.701070187613368 C2.754842202951962 13.118674703342522, 8.500016134929925 62.932329248402546, 10.3110863955495 75.23557562509362 M-0.017211088892072457 0.02352809077128759 C2.2006690816672685 12.577937169903572, 10.592379438401283 64.18135111425845, 12.4765297314887 76.75084474615562" stroke="#2b8a3e" stroke-width="1" fill="none"></path></g><g transform="translate(161.05786999170755 319.5000000000002) rotate(0 6.229659321298328 38.38718641846346)"><path d="M-0.8776778842681168 48.765318909181865 C1.7406725347414207 57.83570067652081, 4.246418519165865 63.39094778633984, 11.325154216102238 78.7033415262382 M-2.4769665965237735 51.49988961637637 C3.258760623794334 59.0132005434335, 8.202692643236013 69.51048542857738, 13.228385141192849 77.56332657512087" stroke="#2b8a3e" stroke-width="1" fill="none"></path></g><g transform="translate(161.05786999170755 319.5000000000002) rotate(0 6.229659321298328 38.38718641846346)"><path d="M19.393519553871396 45.571800972829294 C16.870263991367473 55.61497462979333, 14.214978129899585 61.98328903966904, 11.325154216102238 78.7033415262382 M17.79423084161574 48.3063716800238 C16.445094176298554 56.802332644690786, 14.322414434701138 68.41288927793865, 13.228385141192849 77.56332657512087" stroke="#2b8a3e" stroke-width="1" fill="none"></path></g></g><g transform="translate(176.33333333333326 329.6666666666671) rotate(0 24 13)"><text x="0" y="18" font-family="Virgil, Segoe UI Emoji" font-size="20px" fill="#2b8a3e" text-anchor="start" style="white-space: pre;" direction="ltr">apply</text></g><g transform="translate(72.61111111111109 1285.9999999999995) rotate(0 59.44444444444446 17.777777777777715)"><path d="M1.2141910325735807 -1.7846666406840086 C38.72259330097587 0.3108054172765047, 75.65318909659985 -0.363524876855728, 119.2124384109759 -1.9410193394869566 M-0.03539153095334768 -0.3845906490460038 C41.36559144966306 -0.5964672531415192, 83.43543677311393 -0.007155862026330562, 119.09286308464495 0.03840333875268698 M119.4738867943072 -1.5661075543612242 C117.35621037561864 9.952808916775684, 117.18907471973867 19.987794800144037, 118.16345883057353 34.3212106130602 M119.60182929214922 0.3462057774886489 C118.39955087910513 12.868884391151324, 118.72536485801558 24.564848489127964, 118.90321532067743 35.106744418437984 M120.84087706253764 35.97668575267812 C90.28427622001621 36.24193807698567, 59.138516365653956 34.12798299647648, -0.5153478253632784 35.200677444744315 M118.9198948460528 36.24411381274035 C72.63883841079144 36.90010417669792, 28.40048465039581 36.09231511920471, 0.017367609776556492 35.90744707971385 M1.7347785364836454 35.05029015760442 C-1.9571983985188925 23.666761941586845, -0.002641396928163675 12.867296301863213, -0.4722902048379183 -1.920477731153369 M0.9126100623980165 36.15587757020762 C-0.027390414372913785 23.32858436627098, -0.3618185161509442 12.381791002117055, -0.9171207761391997 -0.3369850153103471" stroke="#000000" stroke-width="1" fill="none"></path></g><g transform="translate(81.5 1292.944444444444) rotate(0 51.5 10.5)"><text x="0" y="15" font-family="Virgil, Segoe UI Emoji" font-size="16px" fill="#000000" text-anchor="start" style="white-space: pre;" direction="ltr">libp2p socket</text></g><g><g transform="translate(181.21120696849619 912.3356324438407) rotate(0 -26.807965264273264 179.29109292710262)"><path d="M-0.7244088549166918 0.060164316371083215 C-9.518430282159837 59.802638083081874, -44.871882307450925 298.32307813903407, -53.86467349482591 358.0504605818923 M1.0961377669125794 -0.9538533628731967 C-7.742832157149109 59.01973047597352, -45.23356918133394 299.3959889323087, -54.712068295459105 359.53603921707827" stroke="#000000" stroke-width="1" fill="none"></path></g><g transform="translate(181.21120696849619 912.3356324438407) rotate(0 -26.807965264273264 179.29109292710262)"><path d="M-60.38980600971492 330.41724686686837 C-59.55038499704894 335.2229692323874, -57.72356431788187 342.1485525288991, -54.113323472793056 357.5473741299297 M-61.42718772299351 330.96456519597166 C-59.17068384716129 341.0626256028527, -56.66490962254043 351.11655328913355, -55.221477863731636 359.8267691337328" stroke="#000000" stroke-width="1" fill="none"></path></g><g transform="translate(181.21120696849619 912.3356324438407) rotate(0 -26.807965264273264 179.29109292710262)"><path d="M-40.1154218636357 333.5904707611202 C-43.48821691338797 337.61285771941124, -45.884305585665025 343.8774968037233, -54.113323472793056 357.5473741299297 M-41.152803576914295 334.13778909022346 C-46.12210164231652 343.18529217945564, -50.861964777942134 352.1051765608964, -55.221477863731636 359.8267691337328" stroke="#000000" stroke-width="1" fill="none"></path></g></g><g><g transform="translate(105.81486434334886 1330.8533421648167) rotate(0 1.9246895647846998 45.392839549144355)"><path d="M0.6400330144912003 -0.16635749526321897 C1.333394159027589 14.802601781083142, 3.6194320661259343 75.4710207665612, 4.332467511809784 90.93817073199448 M-0.48308838224038486 -1.2992991256155073 C0.05094295513371916 14.320538620078807, 2.6293994357307904 76.73591896255435, 3.4670287764923455 92.08497822390419" stroke="#000000" stroke-width="1" fill="none"></path></g><g transform="translate(105.81486434334886 1330.8533421648167) rotate(0 1.9246895647846998 45.392839549144355)"><path d="M-8.376422764172643 64.66648354088431 C-5.443916122536432 74.28276321180574, 1.0226316866458207 79.8074864805149, 2.554121669690478 93.14602579095882 M-8.298591625315934 63.65338729308462 C-3.927347443564292 74.6724753234432, 0.08040489109053617 85.45737418759452, 4.254135684418845 92.52253074397814" stroke="#000000" stroke-width="1" fill="none"></path></g><g transform="translate(105.81486434334886 1330.8533421648167) rotate(0 1.9246895647846998 45.392839549144355)"><path d="M12.122387019363858 63.70794306483356 C8.619902525685966 73.73488059888808, 8.642477554885527 79.56092910557001, 2.554121669690478 93.14602579095882 M12.200218158220567 62.69484681703386 C8.551023355382847 74.24595929667119, 4.536454461392348 85.4059882142617, 4.254135684418845 92.52253074397814" stroke="#000000" stroke-width="1" fill="none"></path></g></g><g transform="translate(122.61111111111131 1351.8333333333326) rotate(0 23.5 13)"><text x="0" y="18" font-family="Virgil, Segoe UI Emoji" font-size="20px" fill="#000000" text-anchor="start" style="white-space: pre;" direction="ltr">Apply</text></g><g transform="translate(262.6111111111113 1610.7222222222217) rotate(0 19 10.5)"><text x="0" y="15" font-family="Virgil, Segoe UI Emoji" font-size="16px" fill="#000000" text-anchor="start" style="white-space: pre;" direction="ltr">apply</text></g><g><g transform="translate(149.8911777504568 1719.7571816404825) rotate(0 -2.7811010815600525 65.54274506155798)"><path d="M0.013626239821314723 0.15222241468727593 C-0.8137068813178229 22.00709745242083, -4.791681088076674 109.82202517608226, -5.575828402941397 131.89895488605703 M-1.4383587136119604 -0.8134647629410028 C-1.8364623320731805 20.598734040547253, -2.652929127828919 108.01789829546631, -3.321579697584084 129.9582111889204" stroke="#000000" stroke-width="1" fill="none"></path></g><g transform="translate(149.8911777504568 1719.7571816404825) rotate(0 -2.7811010815600525 65.54274506155798)"><path d="M-12.805524599659616 100.12951481452498 C-9.875167067663128 108.66863626431953, -6.258944624629848 114.26967162537318, -2.0897771018047844 130.30131205149794 M-12.329013453717703 101.79904057661358 C-8.841017202375053 112.35275331560227, -5.724725431069171 123.12931271708098, -2.5904154722069417 129.9865343689626" stroke="#000000" stroke-width="1" fill="none"></path></g><g transform="translate(149.8911777504568 1719.7571816404825) rotate(0 -2.7811010815600525 65.54274506155798)"><path d="M7.712176421630524 100.50891853984783 C5.530901604638325 108.95589290286615, 4.037925272143515 114.46245135118777, -2.0897771018047844 130.30131205149794 M8.188687567572437 102.17844430193642 C3.650412591138738 112.72813660009056, -1.2574991929526727 123.35631618462449, -2.5904154722069417 129.9865343689626" stroke="#000000" stroke-width="1" fill="none"></path></g></g><g transform="translate(136.5 1853.444444444444) rotate(0 8 13)"><text x="0" y="18" font-family="Virgil, Segoe UI Emoji" font-size="20px" fill="#000000" text-anchor="start" style="white-space: pre;" direction="ltr">...</text></g><g><g transform="translate(516.5833333333339 1825.270298982176) rotate(0 94.50309224814269 1.0482931042179189)"><path d="M-0.4560881707817316 -0.6320918049663306 C30.961018941849776 -0.37600409057293593, 157.89325019493853 0.8734292717499407, 189.4622726670671 1.4358352692243899 M1.5053268102183939 1.6504560520872475 C32.63638722594858 2.0764376427948052, 156.6135544672251 2.850956817924765, 188.2498805003259 2.7135545051289047" stroke="#1864ab" stroke-width="1" fill="none"></path></g><g transform="translate(516.5833333333339 1825.270298982176) rotate(0 94.50309224814269 1.0482931042179189)"><path d="M26.783281630421886 -11.44697269101542 C16.253520965123407 -8.604430297522896, 7.680622865575785 -1.9946004628888376, -0.9498693145811558 0.058315853029489495 M27.160834742295453 -10.580709442057726 C21.895809836162975 -8.621644011992434, 15.172444154598006 -5.7525802398761705, -1.4232470424845816 -0.357987773232162" stroke="#1864ab" stroke-width="1" fill="none"></path></g><g transform="translate(516.5833333333339 1825.270298982176) rotate(0 94.50309224814269 1.0482931042179189)"><path d="M26.57625743393422 9.073191620410261 C16.142377881707148 4.119491139600976, 7.648142593428307 2.932291255874194, -0.9498693145811558 0.058315853029489495 M26.953810545807787 9.939454869367955 C21.544052043483447 7.110409354115305, 14.869006421303196 5.190006122207761, -1.4232470424845816 -0.357987773232162" stroke="#1864ab" stroke-width="1" fill="none"></path></g><g transform="translate(516.5833333333339 1825.270298982176) rotate(0 94.50309224814269 1.0482931042179189)"><path d="M158.9868977232612 12.083389470358794 C169.9432256705132 7.471112672377281, 182.83947935376884 6.411372860268243, 187.75609935652648 3.4039621631247248 M159.36445083513476 12.949652719316488 C167.09734427378677 10.567649922917983, 173.5617946942915 8.725541353131085, 187.28272162862305 2.9876585368630733" stroke="#1864ab" stroke-width="1" fill="none"></path></g><g transform="translate(516.5833333333339 1825.270298982176) rotate(0 94.50309224814269 1.0482931042179189)"><path d="M159.0244276350645 -8.437784811137858 C169.94927622377057 -5.25279077451324, 182.83126969774048 1.4848828892240542, 187.75609935652648 3.4039621631247248 M159.40198074693808 -7.571521562180164 C167.3191777506164 -5.164067454581142, 173.77486857877489 -2.2164732903443864, 187.28272162862305 2.9876585368630733" stroke="#1864ab" stroke-width="1" fill="none"></path></g></g><g transform="translate(726 1786.944444444444) rotate(0 74.5 44)"><path d="M74.85976103395399 -0.36515470282363793 C86.03960487614269 -0.8159088941972972, 99.53219372348953 2.5550064782782695, 110.03073289539785 6.004567398931208 C120.52927206730617 9.454128319584147, 131.26765339914252 14.42877770939808, 137.85099606540388 20.33221082109399 C144.43433873166524 26.235643932789902, 148.87798576195547 34.253335824672284, 149.53078889296606 41.425166069106666 C150.18359202397664 48.59699631354105, 147.01571509873182 56.98561238020841, 141.76781485146734 63.363192287700286 C136.51991460420285 69.74077219519216, 127.7079090102073 75.4763015074854, 118.04338740937918 79.69064551405792 C108.37886580855105 83.90498952063044, 95.5423773467584 87.7440089263072, 83.78068524649862 88.64925632713536 C72.01899314623884 89.55450372796352, 58.745450507590796 88.0584502674296, 47.47323480782052 85.12212991902692 C36.20101910805024 82.18580957062423, 23.7782751084799 76.54050665746843, 16.14739104787695 71.0313342367192 C8.516506987274003 65.52216181596998, 3.614186545695259 58.77355837416525, 1.6879304442028342 52.06709539453157 C-0.23832565728959065 45.36063241489789, 0.9388946076193512 37.416559077172, 4.589854438922401 30.792556358917125 C8.240814270225451 24.168553640662243, 14.784960096603557 17.307722618216946, 23.593689432021137 12.323079085002284 C32.40241876743872 7.338435551787623, 47.39646359966107 2.8781965450885485, 57.44223045142788 0.8846951596291603 C67.4879973031947 -1.1088062258302276, 78.37994003344147 0.2779063554006716, 83.86829054262202 0.3620707722459571 C89.35664105180257 0.44623518909124255, 90.59662549351424 0.5816744179282765, 90.37233350651115 1.389681660700873 M44.85622489586878 4.767542653570452 C54.82231220823116 1.5094068608538596, 70.00913527252591 -0.17122803965849087, 82.06557885305874 0.2346630446617013 C94.12202243359157 0.6405541289818935, 107.25562181925503 3.362008659474181, 117.19488637906576 7.202889159491605 C127.1341509388765 11.043769659509028, 136.2558053596139 16.848258704263323, 141.70116621192318 23.279946044766245 C147.14652706423246 29.711633385269167, 150.625867385276 38.38872069511244, 149.8670514929214 45.79301320250913 C149.10823560056681 53.19730570990582, 143.6264736050581 61.78258178553462, 137.14827085779558 67.70570108914639 C130.67006811053307 73.62882039275816, 121.34729123194015 78.19653917539046, 110.99783500934635 81.33172902417977 C100.64837878675255 84.46691887296907, 86.74416593772531 86.41073253952578, 75.05153352223275 86.51684018188222 C63.35890110674017 86.62294782423865, 51.10894814415109 85.30461547982601, 40.842040516390895 81.96837487831837 C30.575132888630698 78.63213427681073, 20.316941385783863 72.31085745799861, 13.450087755671547 66.49939657283636 C6.58323412555923 60.68793568767411, 0.8762847779228291 53.69743571050409, -0.3590812642830059 47.099609567344906 C-1.594447306488841 40.501783424185724, 0.8527539425967907 33.20486183277819, 6.037891502436537 26.912439713881273 C11.223029062276282 20.620017594984354, 24.294631634900938 13.22221578679349, 30.751744094755473 9.345076853963398 C37.20885655461001 5.4679379211333075, 42.240432590507666 4.6403366723958435, 44.780566261563756 3.6496061169007277 C47.320699932619846 2.658875561405612, 45.59225541131061 2.575101566238389, 45.992546121092005 3.4006935209927036" stroke="#1864ab" stroke-width="1" fill="none"></path></g><g transform="translate(523 1776.944444444444) rotate(0 82 13)"><text x="0" y="18" font-family="Virgil, Segoe UI Emoji" font-size="20px" fill="#1864ab" text-anchor="start" style="white-space: pre;" direction="ltr">env.read storage</text></g><g transform="translate(750 1812.944444444444) rotate(0 55 13)"><text x="0" y="18" font-family="Virgil, Segoe UI Emoji" font-size="20px" fill="#1864ab" text-anchor="start" style="white-space: pre;" direction="ltr">ledger node</text></g><g transform="translate(418 1885.944444444444) rotate(0 23.5 12.5)"><text x="0" y="20" font-family="Cascadia, Segoe UI Emoji" font-size="20px" fill="#1864ab" text-anchor="start" style="white-space: pre;" direction="ltr">data</text></g></svg>