<svg version="1.1" xmlns="http://www.w3.org/2000/svg" viewBox="0 0 617.2824810015826 460" width="1234.5649620031652" height="920">
  <!-- svg-source:excalidraw -->
  
  <defs>
    <style>
      @font-face {
        font-family: "Virgil";
        src: url("https://excalidraw.com/Virgil.woff2");
      }
      @font-face {
        font-family: "Cascadia";
        src: url("https://excalidraw.com/Cascadia.woff2");
      }
    </style>
  </defs>
  <rect x="0" y="0" width="617.2824810015826" height="460" fill="#ffffff"></rect><g><g transform="translate(370.78392370089165 142.15774045067883) rotate(0 -37.03079616979399 -33.140840143272456)"><path d="M0 0 C-12.343598723264662 -11.04694671442415, -61.71799361632331 -55.234733572120746, -74.06159233958797 -66.2816802865449 M0 0 C-12.343598723264662 -11.04694671442415, -61.71799361632331 -55.234733572120746, -74.06159233958797 -66.2816802865449" stroke="#000000" stroke-width="1" fill="none"></path></g><g transform="translate(370.78392370089165 142.15774045067883) rotate(0 -37.03079616979399 -33.140840143272456)"><path d="M-46.21228298420374 -55.127489664715455 C-51.91932217755881 -57.41326997749104, -57.626361370913884 -59.69905029026663, -74.06159233958797 -66.2816802865449 M-46.21228298420374 -55.127489664715455 C-53.65134122658587 -58.106977328971645, -61.09039946896801 -61.086464993227835, -74.06159233958797 -66.2816802865449" stroke="#000000" stroke-width="1" fill="none"></path></g><g transform="translate(370.78392370089165 142.15774045067883) rotate(0 -37.03079616979399 -33.140840143272456)"><path d="M-59.897559190988275 -39.835883551234225 C-62.80013358820257 -45.255306939510824, -65.70270798541688 -50.67473032778742, -74.06159233958797 -66.2816802865449 M-59.897559190988275 -39.835883551234225 C-63.68103066580578 -46.90003798571898, -67.46450214062327 -53.964192420203744, -74.06159233958797 -66.2816802865449" stroke="#000000" stroke-width="1" fill="none"></path></g></g><g transform="translate(382.2824810015826 284.9823736780258) rotate(0 112.5 19.5)"><text x="0" y="15.5" font-family="Cascadia, Segoe UI Emoji" font-size="16px" fill="#000000" text-anchor="start" style="white-space: pre;" direction="ltr">sdk</text><text x="0" y="35" font-family="Cascadia, Segoe UI Emoji" font-size="16px" fill="#000000" text-anchor="start" style="white-space: pre;" direction="ltr">(generated by the node) </text></g><g><g transform="translate(89.85557184907933 367.7643521822306) rotate(0 -1.9465594668322836 -67.15395524069419)"><path d="M0 0 C-0.6488531556107612 -22.38465174689806, -3.2442657780538062 -111.92325873449032, -3.8931189336645673 -134.30791048138838 M0 0 C-0.6488531556107612 -22.38465174689806, -3.2442657780538062 -111.92325873449032, -3.8931189336645673 -134.30791048138838" stroke="#000000" stroke-width="1" fill="none"></path></g><g transform="translate(89.85557184907933 367.7643521822306) rotate(0 -1.9465594668322836 -67.15395524069419)"><path d="M7.179986997957151 -106.42626194642753 C3.60129439678126 -115.43727023414809, 0.022601795605369013 -124.44827852186864, -3.8931189336645673 -134.30791048138838 M7.179986997957151 -106.42626194642753 C3.0598831146699075 -116.80052271036462, -1.0602207686173362 -127.1747834743017, -3.8931189336645673 -134.30791048138838" stroke="#000000" stroke-width="1" fill="none"></path></g><g transform="translate(89.85557184907933 367.7643521822306) rotate(0 -1.9465594668322836 -67.15395524069419)"><path d="M-13.332605882585636 -105.83167326259226 C-10.281878985217935 -115.03484535121241, -7.231152087850234 -124.23801743983256, -3.8931189336645673 -134.30791048138838 M-13.332605882585636 -105.83167326259226 C-9.820342288734778 -116.42716979907195, -6.308078694883919 -127.02266633555163, -3.8931189336645673 -134.30791048138838" stroke="#000000" stroke-width="1" fill="none"></path></g></g><g transform="translate(10 377) rotate(0 133 36.5)"><path d="M0 0 C85.3012970019132 0, 170.6025940038264 0, 266 0 M0 0 C73.97712491862477 0, 147.95424983724953 0, 266 0 M266 0 C266 14.90531606990844, 266 29.81063213981688, 266 73 M266 0 C266 24.812064748816194, 266 49.62412949763239, 266 73 M266 73 C170.1707465838641 73, 74.34149316772817 73, 0 73 M266 73 C179.01652248986065 73, 92.0330449797213 73, 0 73 M0 73 C0 52.028140482120214, 0 31.05628096424043, 0 0 M0 73 C0 57.57533765453845, 0 42.1506753090769, 0 0" stroke="#000000" stroke-width="1" fill="none"></path></g><g transform="translate(28.55372978461105 391.3509596553075) rotate(0 117.5 19.5)"><text x="0" y="15.5" font-family="Cascadia, Segoe UI Emoji" font-size="16px" fill="#000000" text-anchor="start" style="white-space: pre;" direction="ltr">apps </text><text x="0" y="35" font-family="Cascadia, Segoe UI Emoji" font-size="16px" fill="#000000" text-anchor="start" style="white-space: pre;" direction="ltr">(node/client/broadcaster)</text></g><g transform="translate(91.64597821935695 19.64904034469248) rotate(0 164 19.5)"><text x="0" y="15.5" font-family="Cascadia, Segoe UI Emoji" font-size="16px" fill="#000000" text-anchor="start" style="white-space: pre;" direction="ltr">shared</text><text x="0" y="35" font-family="Cascadia, Segoe UI Emoji" font-size="16px" fill="#000000" text-anchor="start" style="white-space: pre;" direction="ltr">(has to be able to compile to wasm)</text></g><g transform="translate(385.60086501116325 397.272926847814) rotate(0 94 19.5)"><text x="0" y="15.5" font-family="Cascadia, Segoe UI Emoji" font-size="16px" fill="#000000" text-anchor="start" style="white-space: pre;" direction="ltr">wasm</text><text x="0" y="35" font-family="Cascadia, Segoe UI Emoji" font-size="16px" fill="#000000" text-anchor="start" style="white-space: pre;" direction="ltr">(tx/vp/mm/mm_filter)</text></g><g transform="translate(372.5841425175331 159.6388687298202) rotate(0 65.5 19.5)"><text x="0" y="15.5" font-family="Cascadia, Segoe UI Emoji" font-size="16px" fill="#000000" text-anchor="start" style="white-space: pre;" direction="ltr">vm_env</text><text x="0" y="35" font-family="Cascadia, Segoe UI Emoji" font-size="16px" fill="#000000" text-anchor="start" style="white-space: pre;" direction="ltr">(wasm imports)</text></g><g><g transform="translate(439.6283466036588 380.8001806210125) rotate(0 4.6230183261913 -20.902986620293262)"><path d="M0 0 C1.5410061087304332 -6.9676622067644205, 7.705030543652167 -34.8383110338221, 9.2460366523826 -41.805973240586525 M0 0 C1.5410061087304332 -6.9676622067644205, 7.705030543652167 -34.8383110338221, 9.2460366523826 -41.805973240586525" stroke="#000000" stroke-width="1" fill="none"></path></g><g transform="translate(439.6283466036588 380.8001806210125) rotate(0 4.6230183261913 -20.902986620293262)"><path d="M12.05106292530985 -20.582425570589226 C11.418604937572303 -25.36776479595431, 10.786146949834755 -30.153104021319397, 9.2460366523826 -41.805973240586525 M12.05106292530985 -20.582425570589226 C11.000689307754165 -28.529821557093324, 9.950315690198481 -36.47721754359742, 9.2460366523826 -41.805973240586525" stroke="#000000" stroke-width="1" fill="none"></path></g><g transform="translate(439.6283466036588 380.8001806210125) rotate(0 4.6230183261913 -20.902986620293262)"><path d="M-2.2474220343046234 -23.744756351631512 C0.3440438008944757 -27.817075031826686, 2.935509636093575 -31.889393712021864, 9.2460366523826 -41.805973240586525 M-2.2474220343046234 -23.744756351631512 C2.0564327621654295 -30.507982031265467, 6.360287558635482 -37.27120771089942, 9.2460366523826 -41.805973240586525" stroke="#000000" stroke-width="1" fill="none"></path></g></g><g><g transform="translate(435.7545479716453 267.098668523472) rotate(331.69963896209117 -0.7613487068082634 -25.329671671349374)"><path d="M0 0 C-0.25378290226942113 -8.443223890449792, -1.2689145113471056 -42.216119452248954, -1.5226974136165268 -50.65934334269875 M0 0 C-0.25378290226942113 -8.443223890449792, -1.2689145113471056 -42.216119452248954, -1.5226974136165268 -50.65934334269875" stroke="#000000" stroke-width="1" fill="none"></path></g><g transform="translate(435.7545479716453 267.098668523472) rotate(331.69963896209117 -0.7613487068082634 -25.329671671349374)"><path d="M7.855994283443135 -27.11763438002525 C5.49550302769606 -33.04276764452474, 3.1350117719489843 -38.96790090902422, -1.5226974136165268 -50.65934334269875 M7.855994283443135 -27.11763438002525 C4.947346296812259 -34.41871075484605, 2.038698310181383 -41.719787129666855, -1.5226974136165268 -50.65934334269875" stroke="#000000" stroke-width="1" fill="none"></path></g><g transform="translate(435.7545479716453 267.098668523472) rotate(331.69963896209117 -0.7613487068082634 -25.329671671349374)"><path d="M-9.47052158741095 -26.5968411923785 C-7.47016054874511 -32.65305113635538, -5.469799510079269 -38.70926108033226, -1.5226974136165268 -50.65934334269875 M-9.47052158741095 -26.5968411923785 C-7.005633783448809 -34.059433064843255, -4.540745979486668 -41.522024937308004, -1.5226974136165268 -50.65934334269875" stroke="#000000" stroke-width="1" fill="none"></path></g></g><g transform="translate(63.285314376454416 195.61946653897442) rotate(0 37.5 10)"><text x="0" y="16" font-family="Cascadia, Segoe UI Emoji" font-size="16px" fill="#000000" text-anchor="start" style="white-space: pre;" direction="ltr">apps lib</text></g><g><g transform="translate(92.78716291373254 173.9894903752272) rotate(0 13.591460616421028 -49.9714717715254)"><path d="M0 0 C4.530486872140343 -16.657157257175133, 22.65243436070171 -83.28578628587567, 27.182921232842055 -99.9429435430508 M0 0 C4.530486872140343 -16.657157257175133, 22.65243436070171 -83.28578628587567, 27.182921232842055 -99.9429435430508" stroke="#000000" stroke-width="1" fill="none"></path></g><g transform="translate(92.78716291373254 173.9894903752272) rotate(0 13.591460616421028 -49.9714717715254)"><path d="M29.685172093942384 -70.04747999708579 C28.852123668834214 -80.00026659095015, 28.01907524372604 -89.95305318481451, 27.182921232842055 -99.9429435430508 M29.685172093942384 -70.04747999708579 C29.114182395908543 -76.86933865564812, 28.543192697874698 -83.69119731421044, 27.182921232842055 -99.9429435430508" stroke="#000000" stroke-width="1" fill="none"></path></g><g transform="translate(92.78716291373254 173.9894903752272) rotate(0 13.591460616421028 -49.9714717715254)"><path d="M9.883323047095715 -75.43327396935555 C15.642698834582891 -83.59302403906283, 21.402074622070067 -91.7527741087701, 27.182921232842055 -99.9429435430508 M9.883323047095715 -75.43327396935555 C13.830925782595408 -81.02614598964513, 17.7785285180951 -86.61901800993469, 27.182921232842055 -99.9429435430508" stroke="#000000" stroke-width="1" fill="none"></path></g></g><g transform="translate(86 10) rotate(0 173 29.5)"><path d="M0 0 C78.07684335522355 0, 156.1536867104471 0, 346 0 M0 0 C73.92250052280724 0, 147.84500104561448 0, 346 0 M346 0 C346 20.393917631544173, 346 40.78783526308835, 346 59 M346 0 C346 18.928294513188305, 346 37.85658902637661, 346 59 M346 59 C217.0930432576686 59, 88.1860865153372 59, 0 59 M346 59 C215.78196398429571 59, 85.56392796859143 59, 0 59 M0 59 C0 41.80192109402269, 0 24.603842188045377, 0 0 M0 59 C0 43.79432932380587, 0 28.588658647611737, 0 0" stroke="#000000" stroke-width="1" fill="none"></path></g><g transform="translate(43.2657470703125 184.531494140625) rotate(0 60 20)"><path d="M0 0 C33.42204972356558 0, 66.84409944713116 0, 120 0 M0 0 C33.467595018446445 0, 66.93519003689289 0, 120 0 M120 0 C120 15.734081573784353, 120 31.468163147568706, 120 40 M120 0 C120 10.11925607174635, 120 20.2385121434927, 120 40 M120 40 C83.83784989267588 40, 47.67569978535175 40, 0 40 M120 40 C92.28809221833944 40, 64.57618443667889 40, 0 40 M0 40 C0 24.581784419715405, 0 9.163568839430809, 0 0 M0 40 C0 27.624028630554676, 0 15.248057261109352, 0 0" stroke="#000000" stroke-width="1" fill="none"></path></g><g transform="translate(359 150) rotate(0 80 29.5)"><path d="M0 0 C56.95298126339914 0, 113.90596252679828 0, 160.00000000000003 0 M0 0 C45.05082342028619 0, 90.10164684057239 0, 160.00000000000003 0 M160.00000000000003 0 C160.00000000000003 23.18054458256811, 160.00000000000003 46.36108916513622, 160.00000000000003 59 M160.00000000000003 0 C160.00000000000003 20.162706863321365, 160.00000000000003 40.32541372664273, 160.00000000000003 59 M160.00000000000003 59 C113.93401786684993 59, 67.86803573369981 59, 0 59 M160.00000000000003 59 C109.10346773266794 59, 58.206935465335846 59, 0 59 M0 59 C0 41.165330978669225, 0 23.33066195733845, 0 0 M0 59 C0 39.036813045106825, 0 19.07362609021365, 0 0" stroke="#000000" stroke-width="1" fill="none"></path></g><g transform="translate(370 271) rotate(0 118.5 32)"><path d="M0 0 C52.525061885453766 0, 105.05012377090753 0, 237 0 M0 0 C84.22590051200241 0, 168.45180102400482 0, 237 0 M237 0 C237 24.732346069812778, 237 49.464692139625555, 237 64 M237 0 C237 17.010484397411346, 237 34.02096879482269, 237 64 M237 64 C143.2318891486153 64, 49.46377829723059 64, 0 64 M237 64 C159.99075475428253 64, 82.98150950856507 64, 0 64 M0 64 C0 47.84081295728683, 0 31.681625914573665, 0 0 M0 64 C0 39.41412268877029, 0 14.828245377540583, 0 0" stroke="#000000" stroke-width="1" fill="none"></path></g><g transform="translate(374.7513427734375 386.24859619140625) rotate(0 109.5 31.5)"><path d="M0 0 C47.69843074623496 0, 95.39686149246992 0, 219.00000000000003 0 M0 0 C80.85726423617454 0, 161.7145284723491 0, 219.00000000000003 0 M219.00000000000003 0 C219.00000000000003 19.497863398678604, 219.00000000000003 38.99572679735721, 219.00000000000003 63 M219.00000000000003 0 C219.00000000000003 20.444973633997144, 219.00000000000003 40.88994726799429, 219.00000000000003 63 M219.00000000000003 63 C164.80258871968837 63, 110.60517743937672 63, 0 63 M219.00000000000003 63 C166.9376629913226 63, 114.87532598264517 63, 0 63 M0 63 C0 47.72418024670333, 0 32.44836049340665, 0 0 M0 63 C0 47.953409852273765, 0 32.90681970454752, 0 0" stroke="#000000" stroke-width="1" fill="none"></path></g></svg>