<svg version="1.1" xmlns="http://www.w3.org/2000/svg" viewBox="0 0 776.3206202503957 509.25" width="1552.6412405007914" height="1018.5">
  <!-- svg-source:excalidraw -->
  
  <defs>
    <style>
      @font-face {
        font-family: "Virgil";
        src: url("https://excalidraw.com/Virgil.woff2");
      }
      @font-face {
        font-family: "Cascadia";
        src: url("https://excalidraw.com/Cascadia.woff2");
      }
    </style>
  </defs>
  <rect x="0" y="0" width="776.3206202503957" height="509.25" fill="#ffffff"></rect><g stroke-linecap="round"><g transform="translate(370.78392370089165 142.65774045067883) rotate(0 -37.03079616979399 -33.140840143272456)"><path d="M0 0 C-12.34 -11.05, -61.72 -55.23, -74.06 -66.28 M0 0 C-12.34 -11.05, -61.72 -55.23, -74.06 -66.28" stroke="#000000" stroke-width="1" fill="none"></path></g><g transform="translate(370.78392370089165 142.65774045067883) rotate(0 -37.03079616979399 -33.140840143272456)"><path d="M-46.21 -55.13 C-51.92 -57.41, -57.63 -59.7, -74.06 -66.28 M-46.21 -55.13 C-53.65 -58.11, -61.09 -61.09, -74.06 -66.28" stroke="#000000" stroke-width="1" fill="none"></path></g><g transform="translate(370.78392370089165 142.65774045067883) rotate(0 -37.03079616979399 -33.140840143272456)"><path d="M-59.9 -39.84 C-62.8 -45.26, -65.7 -50.67, -74.06 -66.28 M-59.9 -39.84 C-63.68 -46.9, -67.46 -53.96, -74.06 -66.28" stroke="#000000" stroke-width="1" fill="none"></path></g></g><g transform="translate(382.2824810015826 285.4823736780258) rotate(0 112.5 19.5)"><text x="0" y="15.5" font-family="Cascadia, Segoe UI Emoji" font-size="16px" fill="#000000" text-anchor="start" style="white-space: pre;" direction="ltr">sdk</text><text x="0" y="35" font-family="Cascadia, Segoe UI Emoji" font-size="16px" fill="#000000" text-anchor="start" style="white-space: pre;" direction="ltr">(generated by the node) </text></g><g stroke-linecap="round"><g transform="translate(89.85557184907933 368.2643521822306) rotate(0 -1.9465594668322836 -67.15395524069419)"><path d="M0 0 C-0.65 -22.38, -3.24 -111.92, -3.89 -134.31 M0 0 C-0.65 -22.38, -3.24 -111.92, -3.89 -134.31" stroke="#000000" stroke-width="1" fill="none"></path></g><g transform="translate(89.85557184907933 368.2643521822306) rotate(0 -1.9465594668322836 -67.15395524069419)"><path d="M7.18 -106.43 C3.6 -115.44, 0.02 -124.45, -3.89 -134.31 M7.18 -106.43 C3.06 -116.8, -1.06 -127.17, -3.89 -134.31" stroke="#000000" stroke-width="1" fill="none"></path></g><g transform="translate(89.85557184907933 368.2643521822306) rotate(0 -1.9465594668322836 -67.15395524069419)"><path d="M-13.33 -105.83 C-10.28 -115.03, -7.23 -124.24, -3.89 -134.31 M-13.33 -105.83 C-9.82 -116.43, -6.31 -127.02, -3.89 -134.31" stroke="#000000" stroke-width="1" fill="none"></path></g></g><g stroke-linecap="round" transform="translate(10 377.5) rotate(0 133 36.5)"><path d="M0 0 C85.3 0, 170.6 0, 266 0 M0 0 C73.98 0, 147.95 0, 266 0 M266 0 C266 14.91, 266 29.81, 266 73 M266 0 C266 24.81, 266 49.62, 266 73 M266 73 C170.17 73, 74.34 73, 0 73 M266 73 C179.02 73, 92.03 73, 0 73 M0 73 C0 52.03, 0 31.06, 0 0 M0 73 C0 57.58, 0 42.15, 0 0" stroke="#000000" stroke-width="1" fill="none"></path></g><g transform="translate(28.55372978461105 391.8509596553075) rotate(0 117.5 19.5)"><text x="0" y="15.5" font-family="Cascadia, Segoe UI Emoji" font-size="16px" fill="#000000" text-anchor="start" style="white-space: pre;" direction="ltr">apps </text><text x="0" y="35" font-family="Cascadia, Segoe UI Emoji" font-size="16px" fill="#000000" text-anchor="start" style="white-space: pre;" direction="ltr">(node/client/broadcaster)</text></g><g transform="translate(91.64597821935695 20.14904034469248) rotate(0 164 19.5)"><text x="0" y="15.5" font-family="Cascadia, Segoe UI Emoji" font-size="16px" fill="#000000" text-anchor="start" style="white-space: pre;" direction="ltr">shared</text><text x="0" y="35" font-family="Cascadia, Segoe UI Emoji" font-size="16px" fill="#000000" text-anchor="start" style="white-space: pre;" direction="ltr">(has to be able to compile to wasm)</text></g><g transform="translate(385.60086501116325 397.772926847814) rotate(0 94 19.5)"><text x="0" y="15.5" font-family="Cascadia, Segoe UI Emoji" font-size="16px" fill="#000000" text-anchor="start" style="white-space: pre;" direction="ltr">wasm</text><text x="0" y="35" font-family="Cascadia, Segoe UI Emoji" font-size="16px" fill="#000000" text-anchor="start" style="white-space: pre;" direction="ltr">(tx/vp/mm/mm_filter)</text></g><g transform="translate(372.5841425175331 160.1388687298202) rotate(0 65.5 19.5)"><text x="0" y="15.5" font-family="Cascadia, Segoe UI Emoji" font-size="16px" fill="#000000" text-anchor="start" style="white-space: pre;" direction="ltr">vm_env</text><text x="0" y="35" font-family="Cascadia, Segoe UI Emoji" font-size="16px" fill="#000000" text-anchor="start" style="white-space: pre;" direction="ltr">(wasm imports)</text></g><g stroke-linecap="round"><g transform="translate(439.6283466036588 381.3001806210125) rotate(0 4.6230183261913 -20.902986620293262)"><path d="M0 0 C1.54 -6.97, 7.71 -34.84, 9.25 -41.81 M0 0 C1.54 -6.97, 7.71 -34.84, 9.25 -41.81" stroke="#000000" stroke-width="1" fill="none"></path></g><g transform="translate(439.6283466036588 381.3001806210125) rotate(0 4.6230183261913 -20.902986620293262)"><path d="M12.05 -20.58 C11.42 -25.37, 10.79 -30.15, 9.25 -41.81 M12.05 -20.58 C11 -28.53, 9.95 -36.48, 9.25 -41.81" stroke="#000000" stroke-width="1" fill="none"></path></g><g transform="translate(439.6283466036588 381.3001806210125) rotate(0 4.6230183261913 -20.902986620293262)"><path d="M-2.25 -23.74 C0.34 -27.82, 2.94 -31.89, 9.25 -41.81 M-2.25 -23.74 C2.06 -30.51, 6.36 -37.27, 9.25 -41.81" stroke="#000000" stroke-width="1" fill="none"></path></g></g><g stroke-linecap="round"><g transform="translate(435.7545479716453 267.598668523472) rotate(331.69963896209117 -0.7613487068082634 -25.329671671349374)"><path d="M0 0 C-0.25 -8.44, -1.27 -42.22, -1.52 -50.66 M0 0 C-0.25 -8.44, -1.27 -42.22, -1.52 -50.66" stroke="#000000" stroke-width="1" fill="none"></path></g><g transform="translate(435.7545479716453 267.598668523472) rotate(331.69963896209117 -0.7613487068082634 -25.329671671349374)"><path d="M7.86 -27.12 C5.5 -33.04, 3.14 -38.97, -1.52 -50.66 M7.86 -27.12 C4.95 -34.42, 2.04 -41.72, -1.52 -50.66" stroke="#000000" stroke-width="1" fill="none"></path></g><g transform="translate(435.7545479716453 267.598668523472) rotate(331.69963896209117 -0.7613487068082634 -25.329671671349374)"><path d="M-9.47 -26.6 C-7.47 -32.65, -5.47 -38.71, -1.52 -50.66 M-9.47 -26.6 C-7.01 -34.06, -4.54 -41.52, -1.52 -50.66" stroke="#000000" stroke-width="1" fill="none"></path></g></g><g transform="translate(63.285314376454416 196.11946653897442) rotate(0 37.5 10)"><text x="0" y="16" font-family="Cascadia, Segoe UI Emoji" font-size="16px" fill="#000000" text-anchor="start" style="white-space: pre;" direction="ltr">apps lib</text></g><g stroke-linecap="round"><g transform="translate(92.78716291373254 174.4894903752272) rotate(0 13.591460616421028 -49.9714717715254)"><path d="M0 0 C4.53 -16.66, 22.65 -83.29, 27.18 -99.94 M0 0 C4.53 -16.66, 22.65 -83.29, 27.18 -99.94" stroke="#000000" stroke-width="1" fill="none"></path></g><g transform="translate(92.78716291373254 174.4894903752272) rotate(0 13.591460616421028 -49.9714717715254)"><path d="M29.69 -70.05 C28.85 -80, 28.02 -89.95, 27.18 -99.94 M29.69 -70.05 C29.11 -76.87, 28.54 -83.69, 27.18 -99.94" stroke="#000000" stroke-width="1" fill="none"></path></g><g transform="translate(92.78716291373254 174.4894903752272) rotate(0 13.591460616421028 -49.9714717715254)"><path d="M9.88 -75.43 C15.64 -83.59, 21.4 -91.75, 27.18 -99.94 M9.88 -75.43 C13.83 -81.03, 17.78 -86.62, 27.18 -99.94" stroke="#000000" stroke-width="1" fill="none"></path></g></g><g stroke-linecap="round" transform="translate(86 10.5) rotate(0 173 29.5)"><path d="M0 0 C78.08 0, 156.15 0, 346 0 M0 0 C73.92 0, 147.85 0, 346 0 M346 0 C346 20.39, 346 40.79, 346 59 M346 0 C346 18.93, 346 37.86, 346 59 M346 59 C217.09 59, 88.19 59, 0 59 M346 59 C215.78 59, 85.56 59, 0 59 M0 59 C0 41.8, 0 24.6, 0 0 M0 59 C0 43.79, 0 28.59, 0 0" stroke="#000000" stroke-width="1" fill="none"></path></g><g stroke-linecap="round" transform="translate(43.2657470703125 185.031494140625) rotate(0 60 20)"><path d="M0 0 C33.42 0, 66.84 0, 120 0 M0 0 C33.47 0, 66.94 0, 120 0 M120 0 C120 15.73, 120 31.47, 120 40 M120 0 C120 10.12, 120 20.24, 120 40 M120 40 C83.84 40, 47.68 40, 0 40 M120 40 C92.29 40, 64.58 40, 0 40 M0 40 C0 24.58, 0 9.16, 0 0 M0 40 C0 27.62, 0 15.25, 0 0" stroke="#000000" stroke-width="1" fill="none"></path></g><g stroke-linecap="round" transform="translate(359 150.5) rotate(0 80 29.5)"><path d="M0 0 C56.95 0, 113.91 0, 160 0 M0 0 C45.05 0, 90.1 0, 160 0 M160 0 C160 23.18, 160 46.36, 160 59 M160 0 C160 20.16, 160 40.33, 160 59 M160 59 C113.93 59, 67.87 59, 0 59 M160 59 C109.1 59, 58.21 59, 0 59 M0 59 C0 41.17, 0 23.33, 0 0 M0 59 C0 39.04, 0 19.07, 0 0" stroke="#000000" stroke-width="1" fill="none"></path></g><g stroke-linecap="round" transform="translate(370 271.5) rotate(0 118.5 32)"><path d="M0 0 C52.53 0, 105.05 0, 237 0 M0 0 C84.23 0, 168.45 0, 237 0 M237 0 C237 24.73, 237 49.46, 237 64 M237 0 C237 17.01, 237 34.02, 237 64 M237 64 C143.23 64, 49.46 64, 0 64 M237 64 C159.99 64, 82.98 64, 0 64 M0 64 C0 47.84, 0 31.68, 0 0 M0 64 C0 39.41, 0 14.83, 0 0" stroke="#000000" stroke-width="1" fill="none"></path></g><g stroke-linecap="round" transform="translate(374.7513427734375 386.74859619140625) rotate(0 109.5 31.5)"><path d="M0 0 C47.7 0, 95.4 0, 219 0 M0 0 C80.86 0, 161.71 0, 219 0 M219 0 C219 19.5, 219 39, 219 63 M219 0 C219 20.44, 219 40.89, 219 63 M219 63 C164.8 63, 110.61 63, 0 63 M219 63 C166.94 63, 114.88 63, 0 63 M0 63 C0 47.72, 0 32.45, 0 0 M0 63 C0 47.95, 0 32.91, 0 0" stroke="#000000" stroke-width="1" fill="none"></path></g><g transform="translate(449.28721872014825 19.64904034469248) rotate(0 79.5 19)"><text x="0" y="15" font-family="Cascadia, Segoe UI Emoji" font-size="16px" fill="#000000" text-anchor="start" style="white-space: pre;" direction="ltr">vm_macro</text><text x="0" y="34" font-family="Cascadia, Segoe UI Emoji" font-size="16px" fill="#000000" text-anchor="start" style="white-space: pre;" direction="ltr">(macros for wasm)</text></g><g stroke-linecap="round" transform="translate(443.6412405007913 10) rotate(0 93.00000000000003 29.5)"><path d="M0 0 C50.14 0, 100.27 0, 186 0 M0 0 C37.6 0, 75.21 0, 186 0 M186 0 C186 16.88, 186 33.75, 186 59 M186 0 C186 18.69, 186 37.37, 186 59 M186 59 C143.03 59, 100.05 59, 0 59 M186 59 C123.49 59, 60.97 59, 0 59 M0 59 C0 44.11, 0 29.22, 0 0 M0 59 C0 39.12, 0 19.24, 0 0" stroke="#000000" stroke-width="1" fill="none"></path></g><g stroke-linecap="round"><g transform="translate(455.67203667058527 139.64084014327244) rotate(0 37.46920383020603 -31.64084014327245)"><path d="M0 0 C12.49 -10.55, 62.45 -52.73, 74.94 -63.28 M0 0 C12.49 -10.55, 62.45 -52.73, 74.94 -63.28" stroke="#000000" stroke-width="1" fill="none"></path></g><g transform="translate(455.67203667058527 139.64084014327244) rotate(0 37.46920383020603 -31.64084014327245)"><path d="M60.02 -37.25 C64.54 -45.14, 69.06 -53.03, 74.94 -63.28 M60.02 -37.25 C63.87 -43.97, 67.72 -50.68, 74.94 -63.28" stroke="#000000" stroke-width="1" fill="none"></path></g><g transform="translate(455.67203667058527 139.64084014327244) rotate(0 37.46920383020603 -31.64084014327245)"><path d="M46.78 -52.93 C55.31 -56.07, 63.85 -59.2, 74.94 -63.28 M46.78 -52.93 C54.05 -55.6, 61.31 -58.27, 74.94 -63.28" stroke="#000000" stroke-width="1" fill="none"></path></g></g><g stroke-linecap="round" transform="translate(183.82062025039568 225.25) rotate(0 76 38)"><path d="M0 0 C57.61 0, 115.21 0, 152 0 M152 0 C152 19.78, 152 39.56, 152 76 M152 76 C99.22 76, 46.45 76, 0 76 M0 76 C0 49.51, 0 23.01, 0 0" stroke="#2b8a3e" stroke-width="1.5" fill="none" stroke-dasharray="8 9"></path></g><g transform="translate(193.82062025039568 238.75) rotate(0 67 25)"><text x="0" y="12.666666666666668" font-family="Helvetica, Segoe UI Emoji" font-size="16px" fill="#2b8a3e" text-anchor="start" style="white-space: pre;" direction="ltr">tests</text><text x="0" y="29.333333333333336" font-family="Helvetica, Segoe UI Emoji" font-size="16px" fill="#2b8a3e" text-anchor="start" style="white-space: pre;" direction="ltr">(integration tests &amp;</text><text x="0" y="46" font-family="Helvetica, Segoe UI Emoji" font-size="16px" fill="#2b8a3e" text-anchor="start" style="white-space: pre;" direction="ltr">wasm test helpers)</text></g><g stroke-linecap="round"><g transform="translate(243.44606623306274 218.3409090909091) rotate(0 -15.877998632690165 -67.72727272727272)"><path d="M0 0 C-5.29 -22.58, -26.46 -112.88, -31.76 -135.45" stroke="#2b8a3e" stroke-width="1.5" fill="none" stroke-dasharray="8 9"></path></g><g transform="translate(243.44606623306274 218.3409090909091) rotate(0 -15.877998632690165 -67.72727272727272)"><path d="M-15.33 -110.35 C-21.42 -119.65, -27.51 -128.96, -31.76 -135.45" stroke="#2b8a3e" stroke-width="1.5" fill="none"></path></g><g transform="translate(243.44606623306274 218.3409090909091) rotate(0 -15.877998632690165 -67.72727272727272)"><path d="M-35.31 -105.67 C-33.99 -116.71, -32.68 -127.75, -31.76 -135.45" stroke="#2b8a3e" stroke-width="1.5" fill="none"></path></g></g><g stroke-linecap="round"><g transform="translate(339.2751657049412 245.44754376024295) rotate(0 20.122533077790422 -17.110135516485116)"><path d="M0 0 C6.71 -5.7, 33.54 -28.52, 40.25 -34.22" stroke="#2b8a3e" stroke-width="1.5" fill="none" stroke-dasharray="8 9"></path></g><g transform="translate(339.2751657049412 245.44754376024295) rotate(0 20.122533077790422 -17.110135516485116)"><path d="M27.19 -11.26 C30.99 -17.95, 34.79 -24.64, 40.25 -34.22" stroke="#2b8a3e" stroke-width="1.5" fill="none"></path></g><g transform="translate(339.2751657049412 245.44754376024295) rotate(0 20.122533077790422 -17.110135516485116)"><path d="M15.48 -25.02 C22.7 -27.7, 29.91 -30.38, 40.25 -34.22" stroke="#2b8a3e" stroke-width="1.5" fill="none"></path></g></g><g stroke-linecap="round" transform="translate(376.8206202503957 450.25) rotate(0 108.5 24.5)"><path d="M0 0 C65.9 0, 131.81 0, 217 0 M217 0 C217 19.29, 217 38.59, 217 49 M217 49 C171.53 49, 126.07 49, 0 49 M0 49 C0 31.08, 0 13.15, 0 0" stroke="#2b8a3e" stroke-width="1.5" fill="none" stroke-dasharray="8 9"></path></g><g transform="translate(389.8206202503957 466.75) rotate(0 40 8.5)"><text x="0" y="13" font-family="Helvetica, Segoe UI Emoji" font-size="16px" fill="#2b8a3e" text-anchor="start" style="white-space: pre;" direction="ltr">wasm tests</text></g><g stroke-linecap="round"><g transform="translate(374.8206202503957 481.69647325190215) rotate(0 -54.764095613762024 -86.48180936131345)"><path d="M0 0 C-18.25 -28.83, -91.27 -144.14, -109.53 -172.96" stroke="#2b8a3e" stroke-width="1.5" fill="none" stroke-dasharray="8 9"></path></g><g transform="translate(374.8206202503957 481.69647325190215) rotate(0 -54.764095613762024 -86.48180936131345)"><path d="M-85.78 -154.64 C-92.99 -160.2, -100.19 -165.76, -109.53 -172.96" stroke="#2b8a3e" stroke-width="1.5" fill="none"></path></g><g transform="translate(374.8206202503957 481.69647325190215) rotate(0 -54.764095613762024 -86.48180936131345)"><path d="M-103.11 -143.66 C-105.06 -152.55, -107.01 -161.45, -109.53 -172.96" stroke="#2b8a3e" stroke-width="1.5" fill="none"></path></g></g><g stroke-linecap="round" transform="translate(623.3206202503957 392.625) rotate(0 71.5 38)"><path d="M0 0 C46.19 0, 92.39 0, 143 0 M143 0 C143 27.92, 143 55.84, 143 76 M143 76 C105.78 76, 68.57 76, 0 76 M0 76 C0 49.05, 0 22.09, 0 0" stroke="#2b8a3e" stroke-width="1.5" fill="none" stroke-dasharray="8 9"></path></g><g transform="translate(634.8206202503957 407.125) rotate(0 59 25)"><text x="0" y="12.666666666666668" font-family="Helvetica, Segoe UI Emoji" font-size="16px" fill="#2b8a3e" text-anchor="start" style="white-space: pre;" direction="ltr">wasm_for_tests</text><text x="0" y="29.333333333333336" font-family="Helvetica, Segoe UI Emoji" font-size="16px" fill="#2b8a3e" text-anchor="start" style="white-space: pre;" direction="ltr">(pre-build scripts</text><text x="0" y="46" font-family="Helvetica, Segoe UI Emoji" font-size="16px" fill="#2b8a3e" text-anchor="start" style="white-space: pre;" direction="ltr">used for testing)</text></g><g stroke-linecap="round"><g transform="translate(621.823327046125 399.9183202338404) rotate(0 -29.711650758121493 -33.465881828447365)"><path d="M0 0 C-9.9 -11.16, -49.52 -55.78, -59.42 -66.93" stroke="#2b8a3e" stroke-width="1.5" fill="none" stroke-dasharray="8 9"></path></g><g transform="translate(621.823327046125 399.9183202338404) rotate(0 -29.711650758121493 -33.465881828447365)"><path d="M-33.03 -52.66 C-43.48 -58.31, -53.93 -63.96, -59.42 -66.93" stroke="#2b8a3e" stroke-width="1.5" fill="none"></path></g><g transform="translate(621.823327046125 399.9183202338404) rotate(0 -29.711650758121493 -33.465881828447365)"><path d="M-48.38 -39.04 C-52.75 -50.08, -57.12 -61.12, -59.42 -66.93" stroke="#2b8a3e" stroke-width="1.5" fill="none"></path></g></g></svg>