<svg version="1.1" xmlns="http://www.w3.org/2000/svg" viewBox="0 0 609.8888888888891 1001.5555555555555" width="609.8888888888891" height="1001.5555555555555">
  <!-- svg-source:excalidraw -->
  
  <defs>
    <style>
      @font-face {
        font-family: "Virgil";
        src: url("https://excalidraw.com/Virgil.woff2");
      }
      @font-face {
        font-family: "Cascadia";
        src: url("https://excalidraw.com/Cascadia.woff2");
      }
    </style>
  </defs>
  <rect x="0" y="0" width="609.8888888888891" height="1001.5555555555555" fill="#ffffff"></rect><g stroke-linecap="round" transform="translate(10.000000000000227 619) rotate(0 286.83333333333337 186.27777777777777)"><path d="M323.12 0.48 C346.35 -0.4, 370.64 8.27, 392.71 14.08 C414.78 19.9, 436.19 26.21, 455.54 35.38 C474.9 44.54, 493.49 56.79, 508.85 69.07 C524.2 81.34, 537.56 94.96, 547.67 109.02 C557.78 123.09, 565.46 138.44, 569.53 153.45 C573.59 168.46, 574.05 183.59, 572.05 199.07 C570.05 214.55, 565.14 231.57, 557.54 246.34 C549.93 261.11, 539.4 274.63, 526.43 287.7 C513.46 300.77, 497.41 314.28, 479.73 324.74 C462.05 335.2, 441.41 343.18, 420.34 350.46 C399.28 357.73, 376.54 364.67, 353.36 368.4 C330.17 372.12, 305.46 373.25, 281.25 372.8 C257.05 372.36, 231.19 370.02, 208.11 365.73 C185.04 361.45, 163.3 355.1, 142.8 347.08 C122.3 339.06, 102.07 328.64, 85.11 317.6 C68.14 306.57, 53.38 294.11, 40.99 280.86 C28.6 267.62, 17.53 252.9, 10.78 238.15 C4.03 223.4, 0.92 207.91, 0.47 192.36 C0.03 176.81, 2.99 160.03, 8.1 144.84 C13.2 129.66, 20.3 115, 31.11 101.26 C41.91 87.52, 56.69 73.93, 72.91 62.4 C89.13 50.87, 108.45 40.82, 128.42 32.07 C148.38 23.32, 169.99 15.03, 192.69 9.92 C215.39 4.8, 239.09 2.39, 264.63 1.39 C290.17 0.39, 328.6 2.24, 345.94 3.91 C363.29 5.59, 369.53 8.31, 368.71 11.41 M249.73 1.31 C271.99 -3.49, 298.85 0.97, 322.51 2.9 C346.16 4.83, 369.33 7.66, 391.64 12.89 C413.95 18.12, 436.66 25.33, 456.36 34.3 C476.06 43.27, 494.98 54.58, 509.84 66.7 C524.71 78.82, 535.86 92.82, 545.54 107.01 C555.22 121.2, 563.56 136.61, 567.92 151.82 C572.28 167.04, 573.27 182.52, 571.68 198.3 C570.1 214.08, 565.75 231.51, 558.4 246.52 C551.05 261.54, 540.46 275.31, 527.57 288.41 C514.69 301.5, 499 314.86, 481.11 325.09 C463.23 335.32, 441.62 342.61, 420.27 349.8 C398.91 356.99, 376.07 364.47, 352.98 368.22 C329.88 371.97, 305.42 372.57, 281.69 372.28 C257.96 371.98, 233.81 370.59, 210.6 366.44 C187.39 362.3, 163.26 355.44, 142.44 347.43 C121.63 339.42, 102.88 329.53, 85.72 318.37 C68.56 307.22, 51.66 293.86, 39.49 280.48 C27.31 267.1, 19.26 252.63, 12.66 238.08 C6.06 223.54, 0.84 208.79, -0.11 193.22 C-1.05 177.65, 1.49 160.12, 6.99 144.64 C12.49 129.16, 21.68 114.19, 32.91 100.34 C44.15 86.5, 58.37 72.9, 74.37 61.56 C90.38 50.22, 109.04 40.99, 128.95 32.3 C148.85 23.6, 173.79 14.43, 193.81 9.39 C213.84 4.34, 239.79 2.81, 249.11 2 C258.44 1.19, 249.01 1.75, 249.75 4.52" stroke="#000000" stroke-width="1" fill="none"></path></g><g stroke-linecap="round"><g transform="translate(440.09430045827685 84.39381000377631) rotate(0 -123.58096726310748 97.08125281601733)"><path d="M0.43 1.08 C-40.83 33.3, -205.59 160.55, -246.67 192.33 M-0.81 0.6 C-42.3 33.06, -206.64 161.58, -247.59 193.56" stroke="#000000" stroke-width="1" fill="none"></path></g><g transform="translate(440.09430045827685 84.39381000377631) rotate(0 -123.58096726310748 97.08125281601733)"><path d="M-229.9 168.22 C-238.82 178.74, -245.68 187.18, -245.66 194.78 M-232.27 167.28 C-235.18 173.78, -238.41 178.07, -247.69 193.8" stroke="#000000" stroke-width="1" fill="none"></path></g><g transform="translate(440.09430045827685 84.39381000377631) rotate(0 -123.58096726310748 97.08125281601733)"><path d="M-217.26 184.39 C-230.77 188.92, -242.34 191.32, -245.66 194.78 M-219.63 183.45 C-225.24 186.48, -231.17 187.31, -247.69 193.8" stroke="#000000" stroke-width="1" fill="none"></path></g></g><g stroke-linecap="round" transform="translate(419.55555555555566 10) rotate(0 63.5 50)"><path d="M63.96 -0.15 C83.54 15.32, 100.05 29.56, 126.21 51.93 M63.95 -0.3 C85.35 18.24, 106.73 34.58, 127.7 50.62 M128.22 49.3 C107.83 65.34, 87.85 81.93, 63.44 99.82 M126.36 50.04 C110.08 65.22, 91.49 79.28, 63.62 100.15 M63.71 101.59 C41.29 81.51, 17.35 67.58, -1.22 51.12 M64.37 99.2 C46.4 86.57, 28.16 73.01, 0.91 50.22 M-1.13 52.86 C16.88 35.49, 33.19 22.82, 65.41 1.19 M0.26 50.01 C22.11 33.79, 45.21 15.62, 63.04 -0.29" stroke="#000000" stroke-width="1" fill="none"></path></g><g transform="translate(459.05555555555566 45) rotate(0 25 13)"><text x="25" y="18" font-family="Virgil, Segoe UI Emoji" font-size="20px" fill="#000000" text-anchor="middle" style="white-space: pre;" direction="ltr">client</text></g><g stroke-linecap="round" transform="translate(29.88888888888914 167.44444444444446) rotate(0 285 178.1111111111111)"><path d="M-0.31 -0.77 C220.07 -2.4, 438.92 -1.53, 570.18 0.57 M0.22 -0.01 C176.33 0, 352.07 0.34, 569.78 0.14 M571.17 1.16 C571.92 91.48, 570.82 179.73, 570.64 356.86 M570.62 0.14 C572.35 139.64, 571.79 277.97, 569.87 356.75 M569.65 356.12 C443.76 357.15, 317.54 357.2, 0.59 356.07 M570.16 355.89 C455.98 354.56, 341.37 354.53, -0.16 356.23 M0.26 355.95 C-0.98 253.42, -3.31 152.55, 0.67 0.04 M0.09 356.66 C2.05 221.24, 1.28 87.98, 0.19 0.2" stroke="#000000" stroke-width="1" fill="none"></path></g><g stroke-linecap="round" transform="translate(35.2222222222224 247.1111111111111) rotate(0 104.5 94)"><path d="M103.2 1.2 C132.04 23.29, 158.73 49.06, 207.8 93.82 M105.7 0.72 C137.34 30.16, 168.57 57.5, 209.68 94.5 M210.11 96.71 C172.89 127.3, 134.78 161.4, 105.03 188.57 M208.67 95.94 C178.56 123.33, 148.13 149.23, 105.27 188.73 M106.34 189.43 C73.7 160.91, 42.21 132.8, 0.91 95.01 M105.43 188.89 C77.91 166.16, 51.49 141.08, 0.88 95.74 M0.05 95.24 C24.82 72.11, 47.73 52.06, 106.74 0.45 M0.06 95.44 C32.17 67.01, 64.88 36.7, 105.19 0.29" stroke="#000000" stroke-width="1" fill="none"></path></g><g stroke-linecap="round" transform="translate(38.33333333333371 719.6666666666665) rotate(0 153.94444444444446 107.83333333333334)"><path d="M153.64 0.91 C203.48 33.51, 254.75 70.2, 308.75 109.77 M153.17 0.88 C203.03 32.53, 248.58 65.8, 307.92 108.12 M308.06 109.74 C263.39 137.74, 218.55 168.48, 154.12 216.56 M307.53 108.19 C263.13 140.9, 215.87 173.59, 154.18 216.37 M153.03 216.27 C114.37 185.29, 71.3 155.99, -0.06 106.55 M154.28 215.45 C117.83 191.71, 81.72 166.1, -0.7 108.6 M-1.52 106.6 C47.6 74.19, 94.5 41.68, 153.47 0.96 M0.41 108.04 C54.93 69.03, 109.4 31.49, 154.85 0.3" stroke="#000000" stroke-width="1" fill="none"></path></g><g transform="translate(81.2222222222224 305.1111111111111) rotate(0 60.5 26)"><text x="60.5" y="18" font-family="Virgil, Segoe UI Emoji" font-size="20px" fill="#000000" text-anchor="middle" style="white-space: pre;" direction="ltr">Intent </text><text x="60.5" y="44" font-family="Virgil, Segoe UI Emoji" font-size="20px" fill="#000000" text-anchor="middle" style="white-space: pre;" direction="ltr">broadcaster</text></g><g transform="translate(125.88888888888914 736.6666666666665) rotate(0 65.5 39)"><text x="65.5" y="18" font-family="Virgil, Segoe UI Emoji" font-size="20px" fill="#000000" text-anchor="middle" style="white-space: pre;" direction="ltr">intent</text><text x="65.5" y="44" font-family="Virgil, Segoe UI Emoji" font-size="20px" fill="#000000" text-anchor="middle" style="white-space: pre;" direction="ltr">broadcaster </text><text x="65.5" y="70" font-family="Virgil, Segoe UI Emoji" font-size="20px" fill="#000000" text-anchor="middle" style="white-space: pre;" direction="ltr">network</text></g><g stroke-linecap="round"><g transform="translate(194.78803531967287 711.1012425683343) rotate(0 -9.930306672873826 -137.17100947717222)"><path d="M-0.22 0.51 C-3.4 -45.12, -15.54 -228.96, -18.94 -274.85 M-1.8 -0.27 C-5.11 -45.63, -16.88 -227.91, -19.64 -273.48" stroke="#000000" stroke-width="1" fill="none"></path></g><g transform="translate(194.78803531967287 711.1012425683343) rotate(0 -9.930306672873826 -137.17100947717222)"><path d="M-6.78 -245.19 C-11.65 -256.56, -15.4 -261.34, -18.97 -271.56 M-6.64 -246.66 C-12.16 -255.6, -17.47 -265.58, -19.14 -274.18" stroke="#000000" stroke-width="1" fill="none"></path></g><g transform="translate(194.78803531967287 711.1012425683343) rotate(0 -9.930306672873826 -137.17100947717222)"><path d="M-27.26 -243.9 C-25.74 -255.64, -23.11 -260.82, -18.97 -271.56 M-27.12 -245.37 C-24.99 -254.89, -22.65 -265.34, -19.14 -274.18" stroke="#000000" stroke-width="1" fill="none"></path></g></g><g stroke-linecap="round"><g transform="translate(79.67793422238765 412.6869060034677) rotate(0 -10.633973992238225 190.80117127582864)"><path d="M1.09 0.45 C-2.35 64.28, -17.45 318.54, -21.36 381.97 M0.21 -0.37 C-3.34 63.22, -18.98 316.53, -22.36 380.31" stroke="#000000" stroke-width="1" fill="none"></path></g><g transform="translate(79.67793422238765 412.6869060034677) rotate(0 -10.633973992238225 190.80117127582864)"><path d="M-30.23 351.41 C-27.66 356.62, -27.12 364.9, -23.59 382.22 M-31.52 352.46 C-28.01 358.58, -26.33 366.71, -21.99 381.21" stroke="#000000" stroke-width="1" fill="none"></path></g><g transform="translate(79.67793422238765 412.6869060034677) rotate(0 -10.633973992238225 190.80117127582864)"><path d="M-9.75 352.6 C-12.13 357.71, -16.57 365.69, -23.59 382.22 M-11.04 353.65 C-12.61 359.53, -16.02 367.36, -21.99 381.21" stroke="#000000" stroke-width="1" fill="none"></path></g></g><g transform="translate(78.55555555555588 577.6666666666666) rotate(0 44 26)"><text x="88" y="18" font-family="Virgil, Segoe UI Emoji" font-size="20px" fill="#000000" text-anchor="end" style="white-space: pre;" direction="ltr">validate </text><text x="88" y="44" font-family="Virgil, Segoe UI Emoji" font-size="20px" fill="#000000" text-anchor="end" style="white-space: pre;" direction="ltr">msg</text></g><g stroke-linecap="round"><g transform="translate(240.62578677942997 741.1808137661421) rotate(0 -9.446058487090795 -171.26167152056792)"><path d="M0.32 0.8 C-2.68 -56.51, -15.47 -286.13, -18.71 -343.32 M-0.97 0.17 C-3.99 -56.98, -16.11 -284.37, -19.22 -341.76" stroke="#000000" stroke-width="1" fill="none"></path></g><g transform="translate(240.62578677942997 741.1808137661421) rotate(0 -9.446058487090795 -171.26167152056792)"><path d="M-6.13 -312.77 C-10.36 -320.05, -11.58 -328.38, -17.72 -342.75 M-8.01 -314.1 C-11.39 -321.11, -14.54 -329.66, -19.22 -342.36" stroke="#000000" stroke-width="1" fill="none"></path></g><g transform="translate(240.62578677942997 741.1808137661421) rotate(0 -9.446058487090795 -171.26167152056792)"><path d="M-26.62 -311.67 C-25.88 -319.27, -22.13 -327.87, -17.72 -342.75 M-28.51 -313 C-26.28 -320.36, -23.83 -329.2, -19.22 -342.36" stroke="#000000" stroke-width="1" fill="none"></path></g></g><g transform="translate(244.88888888888914 642.4444444444443) rotate(0 78 18)"><text x="0" y="25" font-family="Virgil, Segoe UI Emoji" font-size="28px" fill="#000000" text-anchor="start" style="white-space: pre;" direction="ltr">libP2P logic</text></g><g stroke-linecap="round" transform="translate(58.500000000000455 20.666666666666515) rotate(0 63.5 50)"><path d="M62.21 1.09 C86.59 18.95, 111.01 37.84, 125 52.64 M64.33 -0.62 C80.35 13.4, 98.03 26.96, 127.43 51.1 M127.35 52.25 C113 61.22, 99.77 71.29, 63.42 100.07 M126.34 50.45 C102.75 69.3, 77.72 89.81, 64.9 99.77 M64.18 99.28 C42.77 83.55, 18.49 67.48, -1.63 51.15 M63.4 100.01 C39.04 81.31, 13.5 61.2, 0.85 50.88 M0.6 50.64 C23.39 33.3, 48.01 12.24, 62.05 -1.39 M-0.05 51.95 C22.81 32.61, 46.25 14.21, 64.76 -0.27" stroke="#000000" stroke-width="1" fill="none"></path></g><g transform="translate(98.00000000000045 52.666666666666515) rotate(0 25 13)"><text x="25" y="18" font-family="Virgil, Segoe UI Emoji" font-size="20px" fill="#000000" text-anchor="middle" style="white-space: pre;" direction="ltr">client</text></g><g stroke-linecap="round"><g transform="translate(116.55304045209004 123.82658113117344) rotate(0 1.1460335550456193 70.06388952054452)"><path d="M-0.9 -0.95 C-0.3 22.38, 2.7 117.52, 3.19 141.08 M0.83 1.17 C1.36 24.65, 2.53 115.86, 2.56 139.28" stroke="#000000" stroke-width="1" fill="none"></path></g><g transform="translate(116.55304045209004 123.82658113117344) rotate(0 1.1460335550456193 70.06388952054452)"><path d="M-9.51 112.18 C-3.84 117.85, -2.19 127.41, 3.41 139.88 M-6.99 110.98 C-5.14 118.65, -2.1 126.84, 3.22 138.97" stroke="#000000" stroke-width="1" fill="none"></path></g><g transform="translate(116.55304045209004 123.82658113117344) rotate(0 1.1460335550456193 70.06388952054452)"><path d="M11.01 112.02 C11.22 117.58, 7.4 127.18, 3.41 139.88 M13.53 110.82 C9.7 118.67, 7.06 126.9, 3.22 138.97" stroke="#000000" stroke-width="1" fill="none"></path></g></g><g transform="translate(121.7222222222224 126.88888888888886) rotate(0 43 13)"><text x="0" y="18" font-family="Virgil, Segoe UI Emoji" font-size="20px" fill="#000000" text-anchor="start" style="white-space: pre;" direction="ltr">send msg</text></g><g transform="translate(242.63888888888914 247.9444444444444) rotate(0 90 17.5)"><text x="0" y="28" font-family="Cascadia, Segoe UI Emoji" font-size="28px" fill="#000000" text-anchor="start" style="white-space: pre;" direction="ltr">Gossip Node</text></g><g transform="translate(411.0277777777778 129.7222222222211) rotate(0 43 13)"><text x="0" y="18" font-family="Virgil, Segoe UI Emoji" font-size="20px" fill="#000000" text-anchor="start" style="white-space: pre;" direction="ltr">send msg</text></g><g stroke-linecap="round" transform="translate(379.5000000000002 275.66666666666663) rotate(0 104.5 94)"><path d="M104.85 -0.71 C129.52 23.39, 154.62 45.56, 209.45 94.73 M104.43 0.79 C128.89 22.48, 154.69 44.21, 208.92 94.73 M209.75 96.28 C178.87 122.86, 149.34 147.51, 106.05 189.9 M208.98 95.05 C182.1 119.84, 154.07 143.8, 105.46 187.86 M106.23 189.85 C79.93 166.12, 50.59 141.8, -1.88 95.1 M104.73 188.31 C76.01 160.76, 46.58 136.48, 0.92 95.6 M1.2 95.08 C32.61 64.54, 64.09 37.96, 103.63 -1.82 M0.86 95.33 C41.68 58.66, 83.04 21.88, 104.85 0.64" stroke="#000000" stroke-width="1" fill="none"></path></g><g transform="translate(429.5000000000002 336.6666666666667) rotate(0 60.5 26)"><text x="60.5" y="18" font-family="Virgil, Segoe UI Emoji" font-size="20px" fill="#000000" text-anchor="middle" style="white-space: pre;" direction="ltr">DKG </text><text x="60.5" y="44" font-family="Virgil, Segoe UI Emoji" font-size="20px" fill="#000000" text-anchor="middle" style="white-space: pre;" direction="ltr">broadcaster</text></g><g stroke-linecap="round"><g transform="translate(513.9461444219187 87.70907263366013) rotate(0 -12.517762726731121 91.93089683002349)"><path d="M-0.9 0.14 C-5.15 30.73, -21.86 152.61, -25.86 183.42 M0.83 -0.83 C-3.05 29.93, -19.34 154.02, -23.78 184.69" stroke="#000000" stroke-width="1" fill="none"></path></g><g transform="translate(513.9461444219187 87.70907263366013) rotate(0 -12.517762726731121 91.93089683002349)"><path d="M-29.88 153.37 C-29.27 162.94, -24.97 169.46, -24.93 183.35 M-30.09 156 C-28.82 166.66, -25.29 175.73, -24.7 184.26" stroke="#000000" stroke-width="1" fill="none"></path></g><g transform="translate(513.9461444219187 87.70907263366013) rotate(0 -12.517762726731121 91.93089683002349)"><path d="M-9.55 156.16 C-14.43 164.82, -15.61 170.59, -24.93 183.35 M-9.76 158.79 C-15.86 168.45, -19.73 176.5, -24.7 184.26" stroke="#000000" stroke-width="1" fill="none"></path></g></g><g stroke-linecap="round" transform="translate(269.5555555555559 725.3333333333333) rotate(0 146.44444444444446 103.83333333333329)"><path d="M146.83 1.57 C182.83 24.91, 214.98 51.29, 294.08 104.6 M146.63 -0.6 C193.06 33.08, 238.04 64.12, 292.39 103.17 M294.26 103.75 C247.11 136.97, 198.81 173.47, 145.51 207.21 M293.6 103.62 C248.77 134.15, 205.67 164.45, 146.16 206.94 M146.98 206.61 C104.77 176.62, 64.53 150.76, 1.28 103.28 M147.99 207.43 C94.35 169.12, 40.77 131.64, 0.61 103.49 M-1.69 103.38 C31.81 79.15, 67.3 57.36, 148.5 1.39 M0.52 103.26 C45.03 73.56, 88.98 42.36, 146.1 0.51" stroke="#000000" stroke-width="1" fill="none"></path></g><g transform="translate(361.11111111111154 747.3333333333333) rotate(0 65.5 39)"><text x="65.5" y="18" font-family="Virgil, Segoe UI Emoji" font-size="20px" fill="#000000" text-anchor="middle" style="white-space: pre;" direction="ltr">DKG</text><text x="65.5" y="44" font-family="Virgil, Segoe UI Emoji" font-size="20px" fill="#000000" text-anchor="middle" style="white-space: pre;" direction="ltr">broadcaster </text><text x="65.5" y="70" font-family="Virgil, Segoe UI Emoji" font-size="20px" fill="#000000" text-anchor="middle" style="white-space: pre;" direction="ltr">network</text></g><g stroke-linecap="round"><g transform="translate(467.15347918996827 460.3483147067638) rotate(0 -15.779146250146141 133.42830623812284)"><path d="M-0.46 -1.05 C-5.73 43.29, -26.84 222.24, -32.21 266.89 M1.51 1.01 C-3.87 45.39, -27.22 223.47, -33.06 267.91" stroke="#000000" stroke-width="1" fill="none"></path></g><g transform="translate(467.15347918996827 460.3483147067638) rotate(0 -15.779146250146141 133.42830623812284)"><path d="M-41.33 238.91 C-39.35 245.68, -37.72 252.11, -33.54 267.35 M-40.54 237.99 C-38.94 245.87, -36.06 251.25, -32.46 268.34" stroke="#000000" stroke-width="1" fill="none"></path></g><g transform="translate(467.15347918996827 460.3483147067638) rotate(0 -15.779146250146141 133.42830623812284)"><path d="M-20.98 241.58 C-24.2 247.59, -27.76 253.34, -33.54 267.35 M-20.2 240.65 C-23.09 247.84, -24.71 252.63, -32.46 268.34" stroke="#000000" stroke-width="1" fill="none"></path></g></g><g stroke-linecap="round"><g transform="translate(476.89783627576935 759.0734847840447) rotate(0 16.992017933412512 -153.6682868299145)"><path d="M0.44 0.61 C6.01 -50.55, 27.06 -254.97, 32.65 -306.3 M-0.79 -0.12 C5.2 -51.66, 29.1 -256.94, 34.78 -307.94" stroke="#000000" stroke-width="1" fill="none"></path></g><g transform="translate(476.89783627576935 759.0734847840447) rotate(0 16.992017933412512 -153.6682868299145)"><path d="M42.78 -280.62 C41.51 -285.25, 38.07 -292.27, 35.84 -307.2 M40.82 -278.65 C39.99 -286.59, 36.86 -294.17, 34.62 -307.86" stroke="#000000" stroke-width="1" fill="none"></path></g><g transform="translate(476.89783627576935 759.0734847840447) rotate(0 16.992017933412512 -153.6682868299145)"><path d="M22.4 -282.95 C25.91 -287.11, 27.25 -293.58, 35.84 -307.2 M20.43 -280.98 C25.33 -288.32, 27.94 -295.24, 34.62 -307.86" stroke="#000000" stroke-width="1" fill="none"></path></g></g><g transform="translate(340.0000000000007 564.6666666666666) rotate(0 44 26)"><text x="88" y="18" font-family="Virgil, Segoe UI Emoji" font-size="20px" fill="#000000" text-anchor="end" style="white-space: pre;" direction="ltr">validate </text><text x="88" y="44" font-family="Virgil, Segoe UI Emoji" font-size="20px" fill="#000000" text-anchor="end" style="white-space: pre;" direction="ltr">msg</text></g></svg>